<svg width="39" height="42" viewBox="0 0 39 42" fill="none" xmlns="http://www.w3.org/2000/svg">
<path opacity="0.4" d="M10.8254 31.8305C16.8041 31.8305 21.6508 26.9838 21.6508 21.0051C21.6508 15.0264 16.8041 10.1797 10.8254 10.1797C4.84669 10.1797 0 15.0264 0 21.0051C0 26.9838 4.84669 31.8305 10.8254 31.8305Z" fill="#46A83E"/>
<path d="M26.6604 37.2551C24.4275 37.2551 21.7159 36.2834 18.3839 35.0894L18.0864 34.9828C15.6647 34.1156 12.007 33.8424 9.00444 35.6763C8.82042 35.7891 8.57991 35.7307 8.46747 35.5466C8.35503 35.3625 8.41311 35.1221 8.59722 35.0097C11.8349 33.0317 15.758 33.319 18.3498 34.2473L18.6475 34.3539C21.6862 35.4428 24.0863 36.3028 26.0577 36.4553C28.0795 36.6123 29.4956 35.9785 30.6483 34.4023C30.7613 34.2478 30.9697 34.1979 31.1403 34.2845L31.1762 34.3027C31.3686 34.4004 31.4455 34.6354 31.3479 34.8278C31.3091 34.9042 31.2487 34.9624 31.1779 34.9986C29.9309 36.6316 28.4494 37.2551 26.6604 37.2551Z" fill="white"/>
<path d="M26.8655 41.0742H12.8476C11.5232 41.0742 10.3097 40.3546 9.68072 39.1964C8.76772 37.5149 8.28516 35.6088 8.28516 33.6841C8.28516 31.3119 8.99793 29.0318 10.3465 27.0905C11.6128 25.2676 13.3511 23.8606 15.386 23.0083V4.36914C15.386 4.15342 15.5609 3.97852 15.7766 3.97852H23.9365C24.1522 3.97852 24.3271 4.15342 24.3271 4.36914V23.0082C26.3621 23.8605 28.1004 25.2676 29.3666 27.0905C30.7152 29.0318 31.428 31.3119 31.428 33.6841C31.428 35.6088 30.9454 37.5149 30.0324 39.1963C29.4036 40.3546 28.1901 41.0742 26.8655 41.0742ZM16.1673 4.75977V23.2714C16.1673 23.4321 16.0689 23.5764 15.9193 23.6351C13.9221 24.4182 12.2169 25.7672 10.9881 27.5363C9.73093 29.3461 9.06641 31.472 9.06641 33.6841C9.06641 35.479 9.51625 37.2562 10.3673 38.8235C10.8594 39.7299 11.8098 40.2929 12.8476 40.2929H26.8655C27.9033 40.2929 28.8538 39.7299 29.3459 38.8236C30.1969 37.2562 30.6467 35.479 30.6467 33.6841C30.6467 31.472 29.9822 29.3461 28.725 27.5363C27.4962 25.7672 25.791 24.4181 23.7939 23.635C23.6443 23.5763 23.5459 23.432 23.5459 23.2713V4.75977H16.1673Z" fill="white"/>
<path d="M24.4636 4.75998H15.2487C14.7034 4.75998 14.2598 4.31633 14.2598 3.77102V0.98896C14.2598 0.443649 14.7034 0 15.2487 0H24.4636C25.0089 0 25.4526 0.443649 25.4526 0.98896V3.77102C25.4526 4.31633 25.0089 4.75998 24.4636 4.75998ZM15.2487 0.78125C15.1342 0.78125 15.041 0.874424 15.041 0.98896V3.77102C15.041 3.88556 15.1342 3.97873 15.2487 3.97873H24.4636C24.5781 3.97873 24.6713 3.88556 24.6713 3.77102V0.98896C24.6713 0.874424 24.5781 0.78125 24.4636 0.78125H15.2487Z" fill="white"/>
<path d="M8.67578 34.0748C8.46006 34.0748 8.28516 33.8999 8.28516 33.6842C8.28516 27.3037 13.4761 22.1128 19.8566 22.1128C20.0723 22.1128 20.2472 22.2877 20.2472 22.5034C20.2472 22.7191 20.0723 22.894 19.8566 22.894C13.9068 22.894 9.06641 27.7345 9.06641 33.6842C9.06641 33.8999 8.8915 34.0748 8.67578 34.0748Z" fill="white"/>
<path d="M26.1992 28.2541L32.1985 22.2548C32.617 21.8363 33.2955 21.8363 33.714 22.2548L35.1176 23.6584C35.5361 24.0769 35.5361 24.7554 35.1176 25.1739L29.1183 31.1732" fill="white"/>
<path d="M29.1183 31.5639C29.0183 31.5639 28.9184 31.5257 28.8421 31.4494C28.6896 31.2969 28.6896 31.0496 28.8421 30.8971L34.8414 24.8977C34.9701 24.769 35.0409 24.598 35.0409 24.4162C35.0409 24.2343 34.9701 24.0633 34.8415 23.9347L33.4378 22.531C33.3092 22.4024 33.1382 22.3315 32.9563 22.3315C32.7744 22.3315 32.6034 22.4024 32.4748 22.531L26.4755 28.5303C26.3229 28.6829 26.0756 28.6829 25.923 28.5303C25.7705 28.3778 25.7705 28.1305 25.923 27.978L31.9223 21.9786C32.1985 21.7024 32.5657 21.5503 32.9563 21.5503C33.3468 21.5503 33.714 21.7024 33.9902 21.9786L35.3939 23.3823C35.6701 23.6584 35.8222 24.0257 35.8222 24.4162C35.8222 24.8067 35.6701 25.174 35.3938 25.4501L29.3946 31.4494C29.3183 31.5257 29.2183 31.5639 29.1183 31.5639Z" fill="white"/>
<path d="M12.8479 40.6837H26.8648C28.0482 40.6837 29.1355 40.0338 29.6981 38.9926C30.4169 37.6621 30.8736 36.1694 31 34.5834C21.9124 30.8602 14.423 41.381 8.78394 34.9229L8.74805 34.9411C8.91191 36.4042 9.35711 37.7821 10.0292 39.0189C10.5892 40.0492 11.6752 40.6837 12.8479 40.6837Z" fill="white"/>
<path d="M34.2203 7.93604C34.431 8.09034 34.6482 8.24522 34.8351 8.43519L34.9808 8.57351C35.0272 8.62171 35.0688 8.67439 35.1132 8.72505C35.199 8.82877 35.2925 8.92839 35.3643 9.04454C35.6802 9.48841 35.8981 10.0232 35.9755 10.5825C36.056 11.1422 36.0008 11.7109 35.8787 12.2437C35.7562 12.7788 35.5681 13.2835 35.3678 13.7705C34.9644 14.7435 34.4891 15.6487 34.2 16.5974C34.0556 17.0705 33.9604 17.5552 33.9598 18.0507C33.9654 18.1736 33.9645 18.299 33.975 18.4235C33.992 18.5467 34.0026 18.6731 34.0239 18.7982C34.0518 18.9213 34.0748 19.0481 34.1078 19.1727C34.1445 19.296 34.1847 19.4193 34.2203 19.5473C33.8995 19.1312 33.6745 18.6256 33.5732 18.0872C33.4697 17.5479 33.4979 16.9869 33.5958 16.4529C33.6936 15.9168 33.8619 15.4042 34.0474 14.91C34.1406 14.6628 34.2413 14.4208 34.3394 14.1801L34.6386 13.4674C35.0283 12.5279 35.3849 11.5918 35.359 10.6377C35.3486 10.1629 35.235 9.68873 35.0292 9.23662C34.9868 9.11881 34.9183 9.01388 34.8611 8.90136C34.8308 8.84605 34.8034 8.78843 34.7704 8.73425L34.667 8.57361C34.5362 8.35184 34.3709 8.15377 34.2203 7.93604Z" fill="#666666"/>
<path d="M37.1011 11.8994C37.3119 12.0537 37.5291 12.2086 37.7159 12.3986L37.8616 12.5369C37.9081 12.5851 37.9496 12.6378 37.9941 12.6884C38.0798 12.7922 38.1733 12.8918 38.2451 13.0079C38.561 13.4518 38.779 13.9866 38.8564 14.5459C38.9368 15.1056 38.8817 15.6743 38.7595 16.2071C38.637 16.7422 38.449 17.2469 38.2487 17.7339C37.8453 18.7069 37.37 19.6121 37.0808 20.5608C36.9364 21.0339 36.8413 21.5186 36.8406 22.0141C36.8462 22.137 36.8453 22.2624 36.8559 22.3869C36.8729 22.5101 36.8835 22.6365 36.9048 22.7616C36.9327 22.8847 36.9556 23.0115 36.9887 23.1361C37.0254 23.2594 37.0656 23.3827 37.1011 23.5107C36.7803 23.0946 36.5553 22.589 36.4541 22.0506C36.3506 21.5113 36.3787 20.9503 36.4767 20.4163C36.5744 19.8802 36.7427 19.3675 36.9282 18.8734C37.0214 18.6262 37.1221 18.3842 37.2202 18.1435L37.5194 17.4308C37.9092 16.4913 38.2658 15.5552 38.2398 14.6011C38.2295 14.1262 38.1158 13.6521 37.91 13.2C37.8677 13.0822 37.7991 12.9773 37.7419 12.8647C37.7117 12.8094 37.6842 12.7518 37.6513 12.6976L37.5479 12.537C37.417 12.3152 37.2518 12.1172 37.1011 11.8994Z" fill="#666666"/>
</svg>
