<svg width="512" height="512" viewBox="0 0 512 512" fill="none" xmlns="http://www.w3.org/2000/svg">
<path opacity="0.4" d="M347.166 315.305C408.388 315.305 458.018 265.675 458.018 204.453C458.018 143.231 408.388 93.6011 347.166 93.6011C285.944 93.6011 236.314 143.231 236.314 204.453C236.314 265.675 285.944 315.305 347.166 315.305Z" fill="#46A83E"/>
<path d="M404.634 183.582C404.73 183.375 404.804 183.159 404.863 182.937C404.882 182.867 404.894 182.797 404.909 182.727C404.944 182.564 404.968 182.399 404.982 182.231C404.987 182.159 404.995 182.088 404.997 182.016C404.998 181.977 405.005 181.94 405.005 181.902C405.005 96.2346 338.76 26.4777 257.107 25.8511C256.737 25.8336 256.37 25.7985 256 25.793C255.638 25.7989 255.279 25.8336 254.918 25.8508C173.253 26.4637 106.995 96.2261 106.995 181.902C106.995 181.956 107.004 182.009 107.006 182.063C107.009 182.137 107.015 182.21 107.022 182.284C107.039 182.458 107.067 182.629 107.106 182.798C107.12 182.858 107.129 182.918 107.146 182.977C107.208 183.199 107.288 183.413 107.387 183.62C107.41 183.669 107.439 183.715 107.465 183.764C107.556 183.936 107.659 184.101 107.775 184.259C107.797 184.289 107.81 184.323 107.833 184.353L230.516 342.592H201.743C193.318 342.592 186.464 349.446 186.464 357.871V470.884C186.464 479.309 193.318 486.164 201.743 486.164H314.756C323.181 486.164 330.036 479.309 330.036 470.884V357.871C330.036 349.446 323.181 342.592 314.756 342.592H285.808L404.208 184.298C404.229 184.27 404.241 184.239 404.261 184.21C404.382 184.04 404.49 183.863 404.583 183.676C404.599 183.644 404.619 183.614 404.634 183.582ZM317.293 184.063C343.136 161.73 368.766 161.222 395.516 182.562L285.645 329.453L317.293 184.063ZM231.255 36.126C228.152 38.8627 225.392 41.9034 222.94 45.1087C219.125 50.155 215.937 55.5528 213.245 61.1348C210.528 66.7073 208.313 72.4695 206.438 78.3091C198.993 101.698 196.709 126.275 198.33 150.31C198.612 147.304 198.769 144.304 199.115 141.315C199.368 138.323 199.738 135.342 200.087 132.367C200.871 126.424 201.748 120.509 202.896 114.654C204.028 108.797 205.348 102.99 206.932 97.2699C207.725 94.4094 208.576 91.5728 209.447 88.7453L210.857 84.5421C211.33 83.1433 211.871 81.7708 212.374 80.3851C216.607 69.4124 221.852 58.7799 228.968 49.8271C232.544 45.4019 236.605 41.4391 241.175 38.5082C243.478 37.0889 245.877 35.9168 248.362 35.0837C250.864 34.3309 253.423 33.9221 256 33.8801C258.576 33.9269 261.136 34.3321 263.638 35.0859C266.121 35.9205 268.523 37.0872 270.821 38.5136C275.39 41.4447 279.455 45.4036 283.025 49.8328C290.145 58.7821 295.376 69.4199 299.614 80.3892C300.117 81.7745 300.659 83.1469 301.132 84.5456L302.543 88.7482L303.835 92.9963L305.056 97.2728C306.64 102.993 307.965 108.798 309.093 114.655C310.243 120.51 311.123 126.424 311.907 132.368C312.256 135.343 312.628 138.323 312.881 141.315C313.229 144.304 313.386 147.304 313.67 150.31C315.301 126.275 313.021 101.695 305.573 78.3051C303.702 72.4633 301.481 66.7035 298.765 61.13C296.074 55.5466 292.88 50.1517 289.067 45.103C286.614 41.903 283.857 38.8641 280.757 36.1284C344.172 47.9719 393.066 104.474 396.779 173.456C368.661 152.934 340.677 154.049 313.459 176.807C294.389 163.278 275.193 156.512 256 156.512C236.807 156.512 217.611 163.278 198.541 176.807C171.324 154.048 143.339 152.933 115.221 173.456C118.935 104.47 167.834 47.9646 231.255 36.126ZM116.536 182.521C143.282 161.212 168.911 161.744 194.75 184.101L230.319 329.282L116.536 182.521ZM322.036 357.871V470.884C322.036 474.898 318.77 478.164 314.756 478.164H201.743C197.729 478.164 194.464 474.898 194.464 470.884V357.871C194.464 353.857 197.729 350.592 201.743 350.592H238.676C238.677 350.592 238.678 350.592 238.679 350.592V393.066C238.679 397.189 242.856 399.997 246.674 398.44L258.25 393.721L269.826 398.44C273.643 399.997 277.821 397.189 277.821 393.066V350.592C277.822 350.592 277.823 350.592 277.824 350.592H314.756C318.77 350.592 322.036 353.857 322.036 357.871ZM241.817 342.592L202.858 183.572C238.612 158.032 273.448 158.047 309.203 183.615L274.598 342.592H241.817V342.592Z" fill="white"/>
</svg>
