<svg width="176" height="176" viewBox="0 0 176 176" fill="none" xmlns="http://www.w3.org/2000/svg">
<path fill-rule="evenodd" clip-rule="evenodd" d="M149.57 57.3566V57.4791C149.57 59.603 149.284 61.686 148.766 63.6738C148.535 64.5315 148.249 65.362 147.936 66.1925C147.541 65.5798 147.119 64.9672 146.656 64.3817V64.3681C143.987 60.9645 140.365 58.3232 136.199 56.5125C132.019 54.7153 127.294 53.7487 122.338 53.7487L91.2396 53.7351H91.2124L65.2606 53.7079C64.4028 51.7746 63.831 49.8005 63.5723 47.8808L63.5587 47.6766L63.4089 45.648V45.6344L63.3817 45.1715C63.3817 44.9945 63.368 44.8175 63.368 44.6405C63.368 43.3607 63.5859 42.081 64.008 40.8556C64.185 40.3519 64.3892 39.8482 64.6343 39.3717C65.4921 37.6834 66.7448 36.2403 68.2561 35.1647C70.1896 33.776 72.5451 33 75.0368 33H89.9053L125.129 33.0136C127.131 33.0272 129.064 33.2587 130.834 33.6943H130.862C132.673 34.1164 134.402 34.7427 136.049 35.5732L136.063 35.5868C139.222 37.1661 142.067 39.4806 144.273 42.2716L144.287 42.2988C144.968 43.1429 145.648 44.1368 146.275 45.2259C146.847 46.2198 147.35 47.2409 147.773 48.262V48.2756C148.971 51.1892 149.556 54.2252 149.57 57.3566Z" fill="white"/>
<path fill-rule="evenodd" clip-rule="evenodd" d="M78.141 111.08C76.8884 112.795 75.4723 114.279 73.9337 115.463L73.7703 115.572H73.7567L72.082 116.73L72.0548 116.743L71.6871 116.975C70.4617 117.764 69.1001 118.323 67.6432 118.595C67.1122 118.704 66.5812 118.772 66.0502 118.799H66.0366C65.8323 118.813 65.6281 118.813 65.4102 118.813C63.7355 118.813 62.088 118.445 60.5766 117.778C58.4117 116.784 56.56 115.137 55.3209 112.986L47.8731 100.106L30.2814 69.5822C29.3011 67.8395 28.5386 66.056 28.0212 64.3133L28.0076 64.2861C27.4629 62.5162 27.1498 60.6918 27.0408 58.8538V58.8402C27.0136 58.3637 27 57.8736 27 57.3971C27 54.3338 27.5855 51.2432 28.7292 48.3978L28.7428 48.3569C29.1377 47.3494 29.6551 46.2739 30.2814 45.1711C30.8669 44.1772 31.4932 43.2378 32.174 42.3665V42.3529C34.1347 39.8342 36.4902 37.7784 39.2406 36.2127L39.2542 36.1991C41.0924 35.1371 43.0394 34.3339 45.0137 33.8029H45.0273C45.8715 33.5578 46.7429 33.3944 47.628 33.2583C47.2876 33.8982 46.9608 34.5789 46.6749 35.2733H46.6885C45.4767 38.2549 44.9048 41.4815 44.9048 44.8035C44.9048 50.4127 46.5251 56.2534 49.6295 61.6448L65.1652 88.5746L65.1774 88.6018L78.141 111.08Z" fill="white"/>
<path fill-rule="evenodd" clip-rule="evenodd" d="M137.356 82.5573C137.356 84.5723 136.838 86.5873 135.79 88.4252L128.342 101.306L110.71 131.788C109.702 133.517 108.545 135.069 107.292 136.39L107.265 136.403C105.999 137.765 104.583 138.963 103.044 139.957L103.03 139.97C100.089 141.917 96.6581 143.238 93.1316 143.742H93.1044C92.0287 143.918 90.8305 144 89.5779 144C88.4205 144 87.2904 143.918 86.2011 143.769H86.1875C83.0287 143.347 80.0604 142.326 77.3236 140.719C75.4855 139.657 73.8107 138.377 72.3538 136.934V136.921C71.7275 136.308 71.142 135.641 70.5838 134.946C71.3054 134.906 72.0543 134.851 72.7896 134.756C77.0785 134.143 81.1769 132.332 84.8259 129.623C88.475 126.914 91.6747 123.292 94.1664 119.005L109.729 92.0876L109.743 92.0603L109.757 92.0331L122.732 69.5962C124.843 69.8276 126.831 70.3178 128.628 71.053L128.805 71.1483L130.643 72.0346L130.67 72.0468L131.065 72.2374C132.345 72.9045 133.516 73.8167 134.496 74.9467C134.837 75.3416 135.164 75.7786 135.463 76.2129V76.2265C136.498 77.8208 137.111 79.6166 137.301 81.4682C137.342 81.8357 137.356 82.1897 137.356 82.5573Z" fill="white"/>
</svg>
