<svg width="55" height="55" viewBox="0 0 55 55" fill="none" xmlns="http://www.w3.org/2000/svg">
<path d="M18.7793 33.9473L20.7525 34.1453V35.1877L19.2873 35.281" fill="white"/>
<path d="M25.8991 26.5C25.8412 26.4284 25.8396 26.3769 25.8519 26.3325C25.8645 26.288 25.8784 26.2435 25.8948 26.1999C25.9275 26.1126 25.971 26.0288 26.0271 25.9536C26.0838 25.8791 26.1472 25.8087 26.2221 25.751C26.2988 25.6953 26.3889 25.6531 26.5033 25.6509C26.5601 25.6498 26.6071 25.695 26.6082 25.7518C26.6083 25.7566 26.608 25.7614 26.6075 25.7661L26.6068 25.7709C26.5932 25.8792 26.5621 25.9555 26.5253 26.0252C26.4867 26.0929 26.4444 26.155 26.4037 26.2188C26.3624 26.2819 26.3169 26.3423 26.2687 26.4036L26.1962 26.4969C26.1723 26.529 26.1363 26.5547 26.0454 26.561L26.0404 26.5614C25.9843 26.5653 25.9323 26.5403 25.8991 26.5Z" fill="white"/>
<path d="M25.6497 28.7057C25.5642 28.6397 25.5375 28.5685 25.5266 28.4966L25.4978 28.2799C25.4814 28.1347 25.4759 27.988 25.4845 27.8411C25.4941 27.6944 25.511 27.547 25.5458 27.4022C25.5831 27.258 25.6404 27.1155 25.7442 26.9905C25.7755 26.9528 25.8314 26.9477 25.8691 26.979C25.8838 26.9912 25.8936 27.0072 25.8981 27.0245L25.8986 27.0264C25.9387 27.1776 25.9486 27.3149 25.9514 27.452C25.9517 27.5884 25.9469 27.7239 25.9447 27.8604C25.9414 27.9967 25.9339 28.1335 25.9229 28.2717L25.9076 28.4798C25.903 28.5495 25.8845 28.6198 25.8078 28.6953L25.8069 28.6962C25.7637 28.7387 25.6964 28.7418 25.6497 28.7057Z" fill="white"/>
<path d="M20.9393 24.9519C21.0616 24.8699 21.1895 24.8496 21.3149 24.8496C21.4405 24.8501 21.5662 24.854 21.6913 24.8625C21.9416 24.8797 22.1893 24.9183 22.4313 24.9756C22.5527 25.0026 22.6717 25.0387 22.7903 25.074C22.9092 25.1085 23.0264 25.1478 23.1417 25.1921C23.3717 25.2824 23.5946 25.3911 23.7986 25.5427C23.8353 25.5699 23.843 25.6218 23.8157 25.6585C23.7987 25.6814 23.7712 25.6929 23.7447 25.6917C23.4931 25.6788 23.2568 25.6329 23.0232 25.5825C22.9067 25.5566 22.7912 25.5285 22.676 25.5009C22.5607 25.4734 22.4446 25.4506 22.3297 25.4248C22.0992 25.3752 21.8698 25.3267 21.6393 25.2845C21.5241 25.2626 21.4084 25.2449 21.2923 25.2303C21.2342 25.2225 21.1764 25.2149 21.1183 25.1943C21.0601 25.1762 21.0018 25.1532 20.9416 25.1103L20.937 25.1071C20.8946 25.0768 20.8847 25.0179 20.915 24.9754C20.9217 24.966 20.9302 24.958 20.9393 24.9519Z" fill="white"/>
<path d="M21.5664 25.6364C21.7357 25.6111 21.8902 25.6492 22.0336 25.7088C22.1765 25.7703 22.3173 25.8382 22.4537 25.915C22.7259 26.0694 22.9775 26.262 23.1981 26.4832C23.3098 26.5926 23.4108 26.712 23.5069 26.8338C23.6044 26.9547 23.6932 27.082 23.773 27.214C23.9317 27.4787 24.0566 27.7621 24.1227 28.0639C24.1323 28.1079 24.1045 28.1514 24.0605 28.161C24.0299 28.1677 23.9996 28.1563 23.9808 28.134L23.9802 28.1332C23.7854 27.9023 23.6151 27.6693 23.4371 27.4455C23.3952 27.3877 23.348 27.3343 23.3033 27.2791C23.2604 27.2224 23.2131 27.1697 23.1669 27.1163C23.0745 27.0092 22.9749 26.9094 22.8747 26.8112C22.6733 26.6159 22.4587 26.436 22.2282 26.2755C22.1132 26.1948 21.9929 26.1214 21.8692 26.0529C21.8069 26.0195 21.7446 25.986 21.6866 25.9403C21.6266 25.8988 21.5681 25.852 21.5142 25.786L21.5104 25.7813C21.4792 25.7431 21.4848 25.6868 21.5231 25.6555C21.5359 25.645 21.5512 25.6387 21.5664 25.6364Z" fill="white"/>
<path d="M21.5428 28.3988C21.4528 28.2969 21.4213 28.19 21.4051 28.0812L21.3601 27.7531C21.3334 27.533 21.3172 27.3096 21.3254 27.0814C21.3351 26.8539 21.3593 26.6202 21.4342 26.3884C21.4564 26.3306 21.4776 26.2734 21.5061 26.2178C21.5377 26.1625 21.5657 26.1081 21.607 26.0574C21.6802 25.9545 21.7888 25.8704 21.9019 25.8197C21.943 25.8012 21.9914 25.8196 22.0098 25.8607C22.0206 25.8847 22.0188 25.9111 22.0074 25.9326L22.002 25.9426C21.9032 26.1253 21.8619 26.2966 21.8302 26.4896C21.7999 26.6814 21.7878 26.8848 21.7859 27.0925L21.7845 27.7275L21.7853 28.0516C21.786 28.16 21.7726 28.2703 21.7007 28.3856C21.6719 28.4319 21.611 28.4461 21.5647 28.4173C21.5565 28.4122 21.5489 28.4057 21.5428 28.3988Z" fill="white"/>
<path d="M21.1412 27.695C21.2647 27.5807 21.4088 27.5262 21.5557 27.4929C21.703 27.4609 21.8516 27.4333 22.0013 27.4121C22.3008 27.3706 22.6044 27.359 22.9054 27.3766C23.056 27.3839 23.2056 27.4026 23.3544 27.4232C23.5033 27.443 23.6509 27.4702 23.7966 27.5048C24.0875 27.5756 24.3714 27.675 24.6341 27.8256C24.6732 27.848 24.6867 27.8979 24.6643 27.9371C24.6488 27.964 24.6203 27.9788 24.5913 27.9781L24.5907 27.9781C24.2929 27.9699 24.0089 27.9363 23.726 27.9066C23.5849 27.891 23.4443 27.8753 23.3038 27.8623C23.1633 27.8493 23.0225 27.8436 22.8823 27.8367C22.6016 27.825 22.3214 27.8231 22.0408 27.8355C21.9005 27.8411 21.7604 27.8528 21.6205 27.8688C21.5505 27.8771 21.4806 27.885 21.4075 27.8806C21.335 27.8796 21.2609 27.8734 21.1805 27.8485L21.1757 27.847C21.1283 27.8324 21.1017 27.782 21.1163 27.7345C21.1211 27.7189 21.1301 27.7054 21.1412 27.695Z" fill="white"/>
<path d="M22.0723 27.6198C22.105 28.142 22.3537 28.5482 22.6559 28.5482C22.9352 28.5482 23.1684 28.0966 23.2281 27.6317C22.8338 27.5921 22.4484 27.588 22.0723 27.6198Z" fill="white"/>
<path d="M22.1836 28.9246C22.232 28.8889 22.2759 28.8714 22.3185 28.8609C22.3613 28.8476 22.4021 28.845 22.4426 28.8459C22.5236 28.8454 22.604 28.8422 22.6837 28.8362C22.8431 28.8241 22.9991 28.8053 23.1541 28.781C23.3095 28.7577 23.4624 28.7221 23.6169 28.6824C23.7727 28.6451 23.9304 28.6058 24.1112 28.5843L24.113 28.5841C24.16 28.5785 24.2027 28.6121 24.2083 28.6592C24.211 28.682 24.2043 28.7039 24.1916 28.7209C24.077 28.8729 23.925 28.9829 23.7599 29.0653C23.5936 29.1455 23.4144 29.2 23.2323 29.2349C23.0498 29.269 22.8629 29.2768 22.6798 29.2614C22.5882 29.2526 22.4976 29.2407 22.4079 29.2257C22.3187 29.2093 22.2306 29.175 22.1574 29.0809C22.121 29.0341 22.1294 28.9666 22.1762 28.9301C22.1768 28.9296 22.1774 28.9292 22.178 28.9288L22.1836 28.9246Z" fill="white"/>
<path d="M21.9842 30.866C21.8249 30.8063 21.6874 30.6229 21.6808 30.4229C21.6745 30.3233 21.695 30.2191 21.7427 30.1266C21.7676 30.0811 21.797 30.0375 21.8325 29.9996C21.872 29.9563 21.8931 29.9396 21.9235 29.9113C22.1514 29.7061 22.4053 29.5222 22.6858 29.3797C22.8257 29.3078 22.9727 29.2485 23.1237 29.201C23.1991 29.1771 23.2756 29.1559 23.353 29.1388L23.4116 29.1256C23.4361 29.1211 23.4606 29.1167 23.4855 29.1142C23.535 29.1088 23.5852 29.1072 23.6351 29.1109C23.7349 29.1173 23.8338 29.1421 23.9258 29.1834C23.9716 29.2045 24.0154 29.2299 24.0567 29.2589C24.0963 29.2866 24.1411 29.3264 24.1632 29.3471L24.488 29.6433L24.2643 29.5942C24.5492 29.5023 24.8364 29.4178 25.1227 29.3308C25.2968 29.2732 25.5071 29.2667 25.6898 29.3221C25.7827 29.3484 25.87 29.3918 25.9495 29.445C25.9698 29.4578 25.9884 29.4731 26.0076 29.4872L26.0551 29.5261C26.0861 29.552 26.1162 29.5787 26.146 29.6056C26.2652 29.7132 26.3703 29.8329 26.4693 29.9548L26.5063 30.0016C26.5218 30.022 26.5371 30.0425 26.55 30.0646C26.5763 30.1084 26.5979 30.1547 26.6138 30.2027C26.645 30.2988 26.6555 30.4005 26.6424 30.4988C26.6329 30.5952 26.584 30.6982 26.5536 30.7549C26.5206 30.8223 26.4865 30.8892 26.4517 30.9558C26.3833 31.0895 26.3121 31.2221 26.2377 31.3534C26.216 31.3918 26.1673 31.4053 26.1289 31.3836C26.0966 31.3653 26.0819 31.3279 26.091 31.2936C26.1296 31.1477 26.1713 31.0031 26.2159 30.8597C26.2375 30.7877 26.26 30.7161 26.2834 30.6448C26.3112 30.5643 26.3197 30.5263 26.3188 30.472C26.3192 30.4211 26.3065 30.3713 26.2857 30.3273C26.2749 30.3053 26.2616 30.285 26.2467 30.2663C26.2393 30.2569 26.2314 30.2481 26.2234 30.2393L26.1873 30.2009C26.0895 30.0974 25.9844 30.0032 25.8777 29.9143L25.7962 29.8501L25.7552 29.82C25.7437 29.8129 25.7331 29.8044 25.7211 29.7981C25.6749 29.7705 25.6249 29.7502 25.5734 29.7371C25.4681 29.7105 25.3657 29.7139 25.2564 29.7528C24.9721 29.8465 24.6886 29.9427 24.4028 30.0315L24.4018 30.0319C24.3214 30.0569 24.2373 30.0352 24.1791 29.9825L23.854 29.6866C23.8224 29.6576 23.8119 29.649 23.7918 29.6341C23.7732 29.621 23.7531 29.6101 23.7327 29.5998C23.6916 29.5799 23.6466 29.5667 23.6004 29.5623C23.5773 29.5597 23.5538 29.5598 23.5305 29.5616C23.5188 29.5622 23.5073 29.5642 23.4956 29.5657L23.4468 29.5754C23.3807 29.5879 23.3153 29.6041 23.2505 29.6226C23.1209 29.6595 22.9941 29.707 22.8698 29.762C22.6215 29.8729 22.3881 30.024 22.1717 30.2003C22.109 30.2522 22.0819 30.2699 22.057 30.3067C22.0304 30.3409 22.0138 30.3833 22.0038 30.4297C21.9857 30.525 22.0021 30.6294 22.081 30.7405C22.1075 30.7779 22.0987 30.8296 22.0613 30.8561C22.0382 30.8725 22.009 30.8751 21.9842 30.866Z" fill="white"/>
<path d="M24.2793 30.8618C24.7781 30.2273 25.4861 30.1334 25.7361 30.6172C25.4551 30.84 25.1804 30.8058 24.9099 30.5954C24.7673 30.5584 24.5334 30.6913 24.2793 30.8618Z" fill="white"/>
<path d="M23.5227 30.6171C23.1781 29.9001 22.798 29.8594 22.3975 30.2095C22.498 30.4812 22.721 30.5309 23.0824 30.3293L23.2726 30.5641C23.3249 30.6287 23.4119 30.6541 23.4908 30.6278L23.5227 30.6171Z" fill="white"/>
<path d="M23.602 31.1302C23.6751 31.2285 23.6888 31.325 23.6848 31.4191C23.6803 31.5133 23.6743 31.6078 23.665 31.7023C23.6461 31.8912 23.6101 32.0795 23.5539 32.2627C23.4968 32.4455 23.4258 32.6253 23.3322 32.7939C23.2364 32.9609 23.1157 33.1166 22.9532 33.234C22.9151 33.2615 22.862 33.2529 22.8345 33.2149C22.8204 33.1954 22.8158 33.1719 22.8197 33.15L22.8201 33.148C22.8548 32.9591 22.9065 32.7929 22.9589 32.6273C23.0136 32.4632 23.0667 32.2999 23.1119 32.1332C23.158 31.9669 23.2028 31.7996 23.2461 31.6297C23.2685 31.5449 23.288 31.459 23.3063 31.3726C23.3147 31.3292 23.3273 31.2863 23.3494 31.244C23.3701 31.2015 23.3976 31.1594 23.444 31.118L23.4477 31.1146C23.4909 31.076 23.5573 31.0797 23.596 31.1229C23.5981 31.1252 23.6001 31.1278 23.602 31.1302Z" fill="white"/>
<path d="M22.5011 33.45C22.419 33.502 22.3578 33.5576 22.2951 33.6197C22.2779 33.6372 22.2719 33.6476 22.2599 33.6606C22.2517 33.6749 22.2423 33.6874 22.2359 33.7015C22.2207 33.7279 22.2109 33.7559 22.2044 33.7847C22.1911 33.8417 22.1999 33.9048 22.2277 33.9535C22.2403 33.9787 22.2585 34 22.2796 34.0179C22.2895 34.0276 22.3016 34.0351 22.3136 34.0427C22.3252 34.0508 22.3491 34.0636 22.3668 34.073C22.4438 34.1125 22.5255 34.1449 22.6119 34.1685C22.655 34.1804 22.6992 34.1901 22.7443 34.198L22.7782 34.2035C22.7954 34.2068 22.8206 34.2116 22.841 34.2174C22.8839 34.2301 22.9261 34.2466 22.9649 34.2698C23.123 34.3578 23.2297 34.5355 23.2297 34.7219C23.2331 34.9056 23.1331 35.0866 22.9761 35.1819C22.9379 35.2058 22.8936 35.2254 22.8531 35.238L22.7783 35.2615L22.628 35.3063L22.4847 35.3488C22.4591 35.3564 22.4352 35.369 22.4136 35.3852C22.3259 35.4491 22.2913 35.5798 22.3384 35.6862C22.3518 35.7129 22.3628 35.7351 22.3876 35.7612C22.4153 35.7906 22.4439 35.8189 22.4761 35.8412C22.5388 35.8884 22.6102 35.9243 22.6925 35.9434C22.8563 35.9879 23.054 35.9677 23.2539 35.9292L23.2556 35.9289C23.2992 35.9205 23.3413 35.949 23.3497 35.9926C23.3562 36.0264 23.3404 36.0594 23.3126 36.0764C23.1259 36.1902 22.9033 36.2757 22.6496 36.2641C22.5246 36.2562 22.3935 36.2234 22.2795 36.1583C22.2215 36.1274 22.1692 36.0885 22.1198 36.0474C22.0663 36.0041 22.0133 35.9417 21.9774 35.8762C21.9034 35.7437 21.876 35.5849 21.904 35.4337C21.9324 35.2825 22.0152 35.1412 22.1348 35.0422C22.1945 34.9926 22.2628 34.9528 22.3361 34.9264L22.4917 34.8736L22.6405 34.8242L22.7153 34.8006C22.7247 34.7975 22.7284 34.7955 22.7346 34.7918C22.7569 34.778 22.7712 34.7525 22.7706 34.7262C22.7697 34.7024 22.7571 34.6768 22.7335 34.6598C22.7279 34.6552 22.7209 34.6527 22.7141 34.6496L22.7006 34.6456L22.6575 34.6367C22.5999 34.6242 22.5425 34.6091 22.4855 34.591C22.3716 34.5545 22.2587 34.5066 22.1546 34.4415C22.1274 34.4241 22.1056 34.4111 22.0752 34.3881C22.0445 34.3654 22.015 34.3413 21.9887 34.3129C21.9352 34.258 21.8909 34.193 21.8615 34.1224C21.7998 33.9824 21.7923 33.8226 21.8378 33.6795C21.8785 33.5356 21.9917 33.4102 22.1128 33.3515C22.2224 33.2963 22.3573 33.2625 22.4842 33.2924C22.5292 33.303 22.557 33.348 22.5464 33.393C22.5412 33.4151 22.5277 33.4331 22.5099 33.4444L22.5011 33.45Z" fill="white"/>
<path d="M17.9279 35.4964C17.9005 35.4964 17.8728 35.4912 17.8464 35.4803C17.5132 35.3435 17.2941 35.0083 17.2882 34.6264C17.2817 34.2123 17.5202 33.8566 17.9259 33.6749C18.0076 33.6385 18.1033 33.6564 18.1663 33.7197C18.682 34.2394 18.6548 34.814 18.0855 35.4277C18.044 35.4725 17.9866 35.4964 17.9279 35.4964ZM17.9673 34.1429C17.7408 34.3029 17.7163 34.5226 17.7178 34.6198C17.7202 34.7738 17.7825 34.9127 17.8844 35.0039C18.1486 34.6727 18.174 34.4141 17.9673 34.1429Z" fill="white"/>
<path d="M22.3563 34.5216C22.3491 34.5216 22.3419 34.5212 22.3345 34.5205L17.9932 34.0848C17.8752 34.0729 17.789 33.9676 17.8009 33.8495C17.8127 33.7315 17.9175 33.6464 18.0362 33.6572L22.3775 34.0929C22.4956 34.1048 22.5817 34.2101 22.5698 34.3282C22.5587 34.439 22.4652 34.5216 22.3563 34.5216Z" fill="white"/>
<path d="M17.9286 35.4962C17.8132 35.4962 17.7179 35.4046 17.714 35.2884C17.7101 35.1699 17.803 35.0706 17.9216 35.0666L22.4181 34.918C22.5388 34.9168 22.636 35.007 22.64 35.1256C22.6439 35.2442 22.5509 35.3435 22.4324 35.3475L17.9359 35.4961C17.9334 35.4962 17.931 35.4962 17.9286 35.4962Z" fill="white"/>
<path d="M20.2831 30.9463C20.2176 30.9463 20.153 30.9164 20.1108 30.86C19.1526 29.576 18.6637 27.4543 19.4436 26.5365C19.6442 26.3006 20.1006 25.9673 20.905 26.3851C21.0103 26.4398 21.0514 26.5695 20.9966 26.6747C20.9419 26.78 20.8123 26.821 20.707 26.7664C20.2951 26.5524 19.9802 26.5687 19.7711 26.8148C19.2434 27.4357 19.4273 29.2257 20.4551 30.6029C20.5261 30.698 20.5065 30.8327 20.4114 30.9036C20.3728 30.9324 20.3278 30.9463 20.2831 30.9463Z" fill="white"/>
<path d="M19.9592 28.5744C19.8694 28.4885 19.8382 28.3943 19.8251 28.2983C19.8125 28.2021 19.801 28.1052 19.7948 28.0055C19.7867 27.8058 19.7828 27.6007 19.8814 27.3633C19.9101 27.3034 19.9447 27.2411 20.0021 27.1828C20.0591 27.1249 20.1381 27.0747 20.2221 27.0531C20.3945 27.0109 20.5295 27.0574 20.6328 27.1061C20.8389 27.2123 20.9751 27.3614 21.0782 27.5375C21.1018 27.5777 21.0882 27.6294 21.048 27.6529C21.0268 27.6653 21.0024 27.6674 20.9806 27.6607L20.9772 27.6597C20.791 27.6014 20.6248 27.522 20.4837 27.4867C20.4151 27.4686 20.3575 27.4685 20.3477 27.4792C20.3421 27.4844 20.3402 27.4859 20.3324 27.4953C20.3253 27.5051 20.3139 27.5255 20.3026 27.5497C20.2579 27.6598 20.2345 27.8368 20.2199 28.0085C20.2117 28.0957 20.2082 28.1856 20.2058 28.2759C20.2031 28.3664 20.1889 28.4584 20.1169 28.5585L20.1158 28.5599C20.0822 28.6067 20.0171 28.6173 19.9704 28.5837C19.9666 28.5809 19.9625 28.5775 19.9592 28.5744Z" fill="white"/>
<path d="M25.9726 18.8438C25.8181 18.9289 25.6672 19.0197 25.537 19.1301C25.4087 19.2402 25.3041 19.3795 25.2904 19.529C25.2827 19.6784 25.356 19.8253 25.461 19.9504C25.5647 20.0776 25.6935 20.1892 25.8276 20.2937C25.8717 20.3281 25.8796 20.3916 25.8452 20.4357C25.8249 20.4618 25.7942 20.4753 25.7635 20.4747L25.7608 20.4746L24.0129 20.432C23.7229 20.4297 23.431 20.4243 23.147 20.45C23.0761 20.4562 23.0064 20.4684 22.9431 20.4863C22.9105 20.4943 22.884 20.5101 22.8702 20.5227C22.865 20.5285 22.8637 20.5326 22.8633 20.5406C22.8668 20.5501 22.8696 20.5618 22.8807 20.5741C22.9186 20.6236 22.9804 20.667 23.0398 20.7063C23.101 20.7451 23.164 20.7825 23.2283 20.8178C23.0894 20.7689 22.9489 20.729 22.8254 20.6202C22.8099 20.6065 22.7968 20.5854 22.7869 20.5607C22.7828 20.548 22.7832 20.531 22.7833 20.5161C22.7846 20.5014 22.7927 20.4882 22.7989 20.4746C22.8304 20.4307 22.8707 20.409 22.9065 20.3934C22.9803 20.3607 23.0545 20.3429 23.1281 20.3281C23.2755 20.2978 23.4227 20.281 23.5699 20.2692C23.7171 20.2571 23.8641 20.2478 24.011 20.2438C24.3047 20.2335 24.598 20.2341 24.8909 20.2399C25.1838 20.2444 25.4761 20.2582 25.7683 20.2718L25.7015 20.4527C25.5638 20.3351 25.4293 20.2105 25.318 20.0592C25.2108 19.9099 25.1204 19.7161 25.1514 19.5105C25.1921 19.3067 25.3375 19.1613 25.4869 19.064C25.6386 18.9639 25.8052 18.8984 25.9726 18.8438Z" fill="white"/>
<path d="M25.0914 21.2622C24.9001 21.3479 24.6995 21.403 24.4974 21.4456C24.2951 21.488 24.0902 21.5178 23.8841 21.5321C23.6782 21.5475 23.4711 21.5488 23.2647 21.5352C23.0583 21.5235 22.8523 21.4936 22.6504 21.4401C22.857 21.4043 23.0599 21.3873 23.2625 21.3675C23.465 21.3501 23.6666 21.3319 23.8685 21.3179C24.273 21.2915 24.6749 21.2612 25.0914 21.2622Z" fill="white"/>
<path opacity="0.4" d="M35.4206 48.5995C41.9972 48.5995 47.3286 43.2682 47.3286 36.6916C47.3286 30.1151 41.9972 24.7837 35.4206 24.7837C28.8441 24.7837 23.5127 30.1151 23.5127 36.6916C23.5127 43.2682 28.8441 48.5995 35.4206 48.5995Z" fill="#46A83E"/>
<path d="M27.4938 50.5441C18.1711 50.5441 13.6544 48.3223 13.4667 48.2278C13.3217 48.1547 13.2304 48.0063 13.2304 47.844V22.0489C13.2304 20.924 12.9546 19.8028 12.4329 18.8064C12.3228 18.5962 12.404 18.3365 12.6143 18.2265C12.8241 18.1165 13.0841 18.1975 13.1943 18.4078C13.7801 19.5267 14.0897 20.7857 14.0897 22.0489V47.5722C15.8452 48.3621 20.5572 49.6847 27.4938 49.6847C35.4426 49.6847 39.8689 48.0197 40.9043 47.5772V22.0454C40.9043 20.7822 41.214 19.5231 41.7998 18.4043C41.9099 18.194 42.1695 18.1129 42.3798 18.223C42.59 18.333 42.6712 18.5927 42.5611 18.8029C42.0395 19.7993 41.7637 20.9205 41.7637 22.0454V47.8547C41.7637 48.0174 41.6718 48.1661 41.5264 48.2389C41.3384 48.333 36.8159 50.5441 27.4938 50.5441Z" fill="white"/>
<path d="M10.048 26.2348C10.042 26.2348 10.036 26.2347 10.0301 26.2344C9.907 26.2293 9.79202 26.1715 9.71439 26.0759L2.63126 17.3492C2.4951 17.1816 2.50464 16.9389 2.6534 16.7824L10.255 8.78565C11.9129 7.04157 14.0302 5.84891 16.378 5.33656C18.0218 4.97795 19.6441 4.68348 21.2001 4.46135C21.301 4.44708 21.4037 4.46885 21.4897 4.52303C22.9807 5.46103 25.1701 5.99898 27.4966 5.99898C29.8236 5.99898 32.0134 5.46087 33.5042 4.52261C33.5904 4.46832 33.6928 4.44645 33.7937 4.46087C35.3458 4.68164 36.9642 4.97401 38.6037 5.32985C40.9558 5.84031 43.0772 7.03386 44.7383 8.78146L52.3398 16.778C52.4885 16.9345 52.4981 17.1771 52.3619 17.3448L45.2747 26.075C45.1971 26.1707 45.0821 26.2284 44.959 26.2335C44.8366 26.2389 44.7165 26.1907 44.6312 26.1019L41.0765 22.4015C40.9122 22.2303 40.9176 21.9584 41.0887 21.7939C41.2599 21.6295 41.5318 21.6348 41.6963 21.8062L44.914 25.1558L51.4567 17.0964L44.1154 9.37354C42.5734 7.75135 40.6045 6.64346 38.4214 6.16971C36.856 5.82993 35.3107 5.54883 33.8257 5.33362C32.2074 6.30399 29.9124 6.85835 27.4966 6.85835C25.0813 6.85835 22.7867 6.30425 21.1685 5.3342C19.6799 5.55067 18.1306 5.83375 16.5612 6.17621C14.3821 6.65169 12.4168 7.7588 10.8779 9.37773L3.53648 17.1008L10.0751 25.1566L13.2912 21.8088C13.4556 21.6375 13.7275 21.6322 13.8988 21.7966C14.0699 21.961 14.0754 22.233 13.911 22.4041L10.3579 26.1028C10.2767 26.1873 10.1646 26.2348 10.048 26.2348Z" fill="white"/>
<path d="M27.4954 11.0316C24.2114 11.0316 21.3764 8.64083 20.6015 5.21765C20.5492 4.98618 20.6942 4.75607 20.9258 4.70367C21.1562 4.65096 21.3872 4.79635 21.4397 5.02788C22.1253 8.05683 24.6156 10.1723 27.4954 10.1723C30.3752 10.1723 32.8654 8.05683 33.5512 5.02788C33.6036 4.79641 33.8343 4.65122 34.0651 4.70367C34.2966 4.75607 34.4417 4.98618 34.3894 5.21765C33.6143 8.64083 30.7794 11.0316 27.4954 11.0316Z" fill="white"/>
<path d="M19.1172 6.72168C19.9113 8.39994 21.0747 9.85978 22.538 10.8863C23.2669 11.3995 24.064 11.8064 24.9032 12.0766C25.7415 12.348 26.6189 12.4876 27.4979 12.4866L28.1563 12.4612L28.8104 12.3826L29.4571 12.255L30.0923 12.0757C30.9316 11.8059 31.728 11.398 32.4571 10.8854C33.9199 9.85862 35.0836 8.39962 35.8786 6.72168C35.4233 8.52629 34.3562 10.2093 32.8657 11.4236C32.1216 12.0308 31.2703 12.518 30.357 12.8466C30.1262 12.9208 29.8945 12.9938 29.6617 13.0629C29.4247 13.1155 29.1879 13.1709 28.9499 13.2199C28.7089 13.2517 28.4679 13.2845 28.2265 13.3129L27.4979 13.3457L26.7694 13.3126C26.528 13.2841 26.2868 13.2519 26.0461 13.2192C25.808 13.1702 25.5712 13.1148 25.3343 13.0623C25.1014 12.9936 24.8699 12.9198 24.6392 12.8457C23.7258 12.5175 22.8751 12.0293 22.1308 11.4226C20.6409 10.2082 19.5735 8.52597 19.1172 6.72168Z" fill="#A0A0A0"/>
<path d="M15.6621 46.2271C15.899 46.314 16.1395 46.3873 16.3803 46.4578C16.6218 46.5265 16.8624 46.595 17.1064 46.653C17.3486 46.7152 17.5933 46.7692 17.8363 46.8261C18.0799 46.8815 18.3263 46.9263 18.5704 46.9768C19.5496 47.172 20.5388 47.3058 21.5277 47.4217C23.508 47.6416 25.4989 47.7393 27.4923 47.7388C29.4857 47.7379 31.4766 47.6409 33.4571 47.4221C34.446 47.3066 35.4354 47.1741 36.4149 46.98C36.6591 46.9299 36.9056 46.8856 37.1492 46.8305C37.3925 46.7742 37.6371 46.7204 37.8795 46.6587C38.1235 46.6012 38.3644 46.5334 38.606 46.4651C38.847 46.3952 39.0877 46.3225 39.3248 46.2362C38.8887 46.4922 38.4231 46.6974 37.9529 46.8854C37.4828 47.0769 37.0005 47.2336 36.517 47.3894C35.5448 47.6815 34.5542 47.9127 33.5543 48.0908C31.553 48.44 29.5204 48.5985 27.4923 48.5979C25.4642 48.5976 23.4315 48.4385 21.4304 48.088C20.4307 47.9089 19.4401 47.6772 18.4684 47.3839C17.985 47.2275 17.5028 47.0705 17.033 46.8782C16.563 46.6897 16.0978 46.4838 15.6621 46.2271Z" fill="#A0A0A0"/>
<path d="M24.5721 38.5627C24.0231 38.5628 23.4756 38.4981 22.9303 38.3684C22.8941 38.3598 22.8608 38.3419 22.8336 38.3165L22.7991 38.2845C19.1268 34.8621 17.8647 33.6863 20.3844 30.2115C19.9204 29.2809 20.1741 28.8241 20.4659 28.2986C20.6158 28.0286 20.7845 27.7247 20.8959 27.2936C20.7495 27.0268 20.6135 26.7044 20.4911 26.3335C20.1883 25.4156 20.3103 24.4209 20.8259 23.6046L21.3142 22.8316C21.3562 22.7651 21.4294 22.7267 21.5098 22.7319C22.5127 22.7971 23.4635 23.1378 24.3382 23.7449C27.134 22.1223 29.9026 22.7163 32.5681 25.5126C32.6456 25.5939 32.6474 25.7211 32.5723 25.8046C31.4017 27.1041 30.8704 28.7729 30.9478 30.9064C30.9515 31.009 30.8821 31.0998 30.7822 31.1233C30.4895 31.192 30.1552 31.518 29.8566 31.8501C30.245 33.4094 30.02 34.8066 29.7776 35.8562C29.6315 36.4897 29.2227 37.0427 28.6561 37.3735C27.3003 38.1651 25.9323 38.5627 24.5721 38.5627ZM23.0846 37.9632C24.8525 38.3684 26.6536 38.0451 28.4394 37.0025C28.9042 36.7312 29.2394 36.2781 29.3589 35.7595C29.5959 34.7333 29.8162 33.3613 29.4123 31.8483C29.3939 31.7789 29.4113 31.7048 29.4587 31.6509C29.7885 31.2766 30.1421 30.916 30.5136 30.7608C30.4662 28.6669 30.9929 26.9974 32.1209 25.6681C29.5848 23.0821 27.0701 22.5974 24.4385 24.1848C24.3643 24.2294 24.2711 24.2253 24.2012 24.1747C23.3984 23.5913 22.5267 23.2538 21.6083 23.1705L21.1893 23.834C20.7424 24.5414 20.6367 25.4033 20.8992 26.1989C21.0242 26.5777 21.1627 26.8992 21.3107 27.1544C21.3381 27.2017 21.3465 27.2577 21.3341 27.3109C21.21 27.8436 21.0057 28.2115 20.8416 28.5071C20.5497 29.0328 20.3889 29.3223 20.8255 30.1283C20.8652 30.2015 20.8589 30.2911 20.8095 30.3581C18.4139 33.6066 19.4023 34.5315 23.0846 37.9632Z" fill="white"/>
<path d="M33.6828 26.6818C34.5507 26.2486 35.4268 25.9579 36.3153 25.8815C35.8845 24.8763 35.2793 23.8982 34.5065 22.9459C35.0007 23.0826 35.4989 23.2373 36.0044 23.4259C36.1476 23.4793 36.2699 23.3096 36.1735 23.1911C33.1823 19.5153 30.5987 17.2512 29.0535 18.5835C27.905 16.667 24.387 17.8429 18.8265 22.1338C18.7325 22.2063 18.7821 22.3561 18.9008 22.3589C19.3189 22.3684 19.7033 22.4268 20.0367 22.5591C19.2107 23.9286 19.4965 24.754 20.5448 25.2064L20.5458 25.208C20.5659 24.6857 20.7208 24.1712 21.0065 23.7189L21.4947 22.9459C22.5076 23.0118 23.4512 23.3645 24.3264 24.0005C27.1389 22.3041 29.829 22.9514 32.4114 25.6604C31.1108 27.1044 30.6589 28.9002 30.7319 30.9137C30.3653 30.9998 29.9927 31.3682 29.6188 31.7925C29.9982 33.2143 29.8626 34.5277 29.5672 35.8074C29.4473 36.3266 29.1376 36.7795 28.7056 37.0846C29.5877 37.0225 30.4578 36.6766 31.2831 35.2814C31.5122 35.2989 31.6234 35.5184 31.6742 35.8413C31.7091 36.0635 31.9917 36.1352 32.128 35.9563C32.5876 35.3525 32.9941 34.7014 33.3067 33.9666C33.4776 34.1597 33.5692 34.6866 33.6344 35.3244C33.6571 35.5464 33.9383 35.6353 34.0797 35.4627C34.6505 34.7659 35.0415 33.6876 35.1691 32.0505C33.8972 31.2644 33.1268 29.8302 33.6828 26.6818Z" fill="white"/>
<path d="M29.8814 28.9189C29.7978 28.8357 29.7319 28.7464 29.6726 28.6546C29.611 28.5641 29.5535 28.4726 29.5036 28.3772C29.4502 28.2839 29.3936 28.1927 29.3389 28.1006C29.2817 28.0101 29.2206 27.9225 29.1618 27.8336C28.9194 27.4833 28.6451 27.1601 28.3356 26.8782C28.2549 26.8118 28.1775 26.7413 28.0964 26.6754C28.0122 26.6138 27.9319 26.5461 27.8445 26.4888C27.6706 26.3728 27.4899 26.2667 27.3022 26.1718C26.9269 25.9803 26.5261 25.8346 26.1076 25.6954L26.1067 25.6951C26.0646 25.6811 26.0419 25.6357 26.0559 25.5936C26.067 25.5603 26.098 25.5391 26.1313 25.5387C26.5847 25.5347 27.0419 25.6271 27.4706 25.8001C27.579 25.8404 27.6807 25.8966 27.786 25.9452C27.8902 25.9963 27.9865 26.0615 28.0872 26.1194C28.1864 26.1798 28.2783 26.251 28.3742 26.3167C28.4677 26.3854 28.554 26.4634 28.6431 26.5378C28.9909 26.8458 29.2788 27.2128 29.518 27.6013C29.5746 27.7004 29.6334 27.7981 29.6877 27.898C29.7391 27.9992 29.7924 28.0994 29.8419 28.2012C29.8897 28.3036 29.9321 28.4089 29.9662 28.5171C29.9969 28.6267 30.0211 28.7389 30.0273 28.8571C30.0298 28.9035 29.9942 28.9432 29.9477 28.9457C29.923 28.947 29.9003 28.9376 29.884 28.9215L29.8814 28.9189Z" fill="white"/>
<path d="M25.1988 27.7772C25.3406 27.6599 25.5055 27.6037 25.6722 27.5742C25.8393 27.5452 26.0079 27.5232 26.1769 27.5114C26.515 27.4895 26.8543 27.5003 27.1869 27.5463C27.2702 27.5568 27.3532 27.569 27.4352 27.5858C27.5176 27.6006 27.5997 27.6166 27.681 27.6352C27.8446 27.6687 28.0059 27.7104 28.1649 27.7589C28.4824 27.8572 28.7909 27.9821 29.0782 28.1549C29.1166 28.178 29.129 28.2279 29.1059 28.2663C29.0893 28.2941 29.0581 28.3082 29.028 28.3052C28.6978 28.2726 28.3818 28.2123 28.0673 28.155C27.9892 28.1383 27.9105 28.1258 27.8322 28.1116C27.7543 28.0953 27.676 28.0821 27.5978 28.0693C27.4415 28.0421 27.2845 28.0223 27.1283 28.0032C26.8155 27.9663 26.5032 27.9374 26.1907 27.9363C26.0344 27.9332 25.8784 27.9396 25.7229 27.9522C25.6448 27.9574 25.5678 27.9667 25.487 27.9611C25.407 27.9595 25.3259 27.9551 25.2376 27.9309L25.2314 27.9292C25.1847 27.9163 25.1573 27.8681 25.1701 27.8215C25.1751 27.8034 25.1854 27.7883 25.1988 27.7772Z" fill="white"/>
<path d="M26.2873 29.0285C26.3574 29.0071 26.4197 29.0029 26.4795 29.0053C26.54 29.0053 26.5971 29.0134 26.653 29.026C26.7654 29.0481 26.878 29.0665 26.9906 29.079C27.2158 29.105 27.4394 29.1166 27.6623 29.1133C27.7736 29.1103 27.8851 29.1071 27.9963 29.0961C28.1073 29.0837 28.2179 29.0673 28.3292 29.0499C28.5524 29.0147 28.7752 28.9674 29.0178 28.9317L29.0188 28.9316C29.064 28.9249 29.1061 28.9562 29.1127 29.0014C29.1168 29.0294 29.106 29.0565 29.0867 29.0744C28.8982 29.247 28.6694 29.3659 28.4277 29.4458C28.3665 29.463 28.3056 29.4822 28.2436 29.4976C28.1811 29.5097 28.1186 29.5239 28.0556 29.5341C27.9294 29.5538 27.8022 29.5705 27.6742 29.5738C27.4185 29.5829 27.1627 29.5551 26.9165 29.4977C26.7934 29.4685 26.6726 29.4333 26.5536 29.3942C26.4351 29.3542 26.322 29.294 26.234 29.1778C26.2025 29.1361 26.2107 29.0767 26.2523 29.0452C26.2614 29.0384 26.2713 29.0334 26.2815 29.0302L26.2873 29.0285Z" fill="white"/>
<path d="M26.4346 27.7217C26.4354 28.2983 26.8127 28.7654 27.2783 28.7654C27.6795 28.7654 28.0147 28.4181 28.1003 27.953C27.5238 27.8118 26.9667 27.7292 26.4346 27.7217Z" fill="white"/>
<path d="M25.5289 25.1325C25.7436 25.0453 25.9701 25.024 26.1909 25.0374C26.3017 25.0426 26.4123 25.0503 26.522 25.0637C26.6325 25.0736 26.7416 25.0895 26.8507 25.1066C27.2867 25.1768 27.7133 25.2884 28.1259 25.4324C28.3333 25.5016 28.5356 25.5837 28.7364 25.6674C28.9375 25.7505 29.136 25.8392 29.33 25.9364C29.718 26.1307 30.093 26.3493 30.4412 26.612C30.4766 26.6387 30.4836 26.6891 30.4569 26.7245C30.4358 26.7525 30.3997 26.7626 30.3681 26.7526C29.9549 26.6213 29.5592 26.4637 29.1641 26.3092C29.0659 26.2692 28.9675 26.2302 28.8685 26.193C28.7702 26.1541 28.6724 26.1138 28.5731 26.0781C28.376 26.0025 28.1761 25.9361 27.9779 25.8666C27.5794 25.7341 27.1786 25.6131 26.772 25.5244C26.6705 25.5014 26.5688 25.4793 26.4664 25.4632C26.3642 25.4434 26.2617 25.4293 26.1588 25.4174C26.0559 25.403 25.9535 25.3925 25.8503 25.3715C25.7469 25.3504 25.6435 25.3329 25.5362 25.2908L25.5298 25.2883C25.4867 25.2714 25.4654 25.2227 25.4824 25.1796C25.4911 25.1574 25.5085 25.1409 25.5289 25.1325Z" fill="white"/>
<path d="M36.3136 25.8028C36.416 25.7801 36.5184 25.7661 36.6207 25.7519C36.6742 25.7466 36.7163 25.7378 36.7857 25.7363C36.8496 25.7367 36.914 25.7452 36.9769 25.7619C37.1024 25.7962 37.2211 25.8662 37.313 25.9649C37.3349 25.9885 37.3588 26.0189 37.3745 26.0409L37.4205 26.1054C37.451 26.1485 37.4825 26.1911 37.5105 26.2358C37.742 26.5895 37.9373 26.9661 38.0975 27.3561C38.2583 27.746 38.3796 28.1502 38.4768 28.5581C38.5252 28.7622 38.5656 28.968 38.5978 29.1747C38.6152 29.278 38.6283 29.3811 38.6433 29.4853L38.6594 29.6534L38.6642 29.8223C38.664 30.2738 38.5293 30.7219 38.2924 31.1032C38.1738 31.2941 38.0294 31.4685 37.8646 31.6202C37.7834 31.6956 37.6908 31.766 37.6046 31.8275C37.5188 31.8882 37.4317 31.9467 37.3442 32.0042C36.6389 32.4586 35.8743 32.7967 35.0892 33.0493C35.0474 33.0628 35.0026 33.0398 34.9892 32.998C34.9772 32.9606 34.9944 32.9208 35.028 32.9031C35.7513 32.5213 36.4627 32.1303 37.1152 31.6665C37.1967 31.6085 37.2775 31.5498 37.3566 31.4892C37.4348 31.4289 37.5029 31.3719 37.5703 31.3063C37.7042 31.1782 37.8204 31.0321 37.9148 30.8734C38.1051 30.556 38.2023 30.1877 38.2054 29.8199L38.2015 29.6819L38.1882 29.5444C38.1739 29.446 38.1612 29.3459 38.1444 29.2474C38.1125 29.0497 38.0749 28.8533 38.0344 28.6578C37.9511 28.2672 37.8398 27.8837 37.7016 27.5113C37.5638 27.1385 37.3932 26.7788 37.188 26.4394L37.1099 26.3129L37.071 26.2495C37.0582 26.229 37.0511 26.2186 37.0394 26.2035C36.9973 26.1472 36.9393 26.1006 36.8713 26.0685C36.8022 26.0339 36.7335 26.0242 36.6207 26.0122C36.5184 25.9979 36.416 25.9839 36.3136 25.9613C36.2699 25.9516 36.2422 25.9083 36.2519 25.8645C36.2589 25.8327 36.2838 25.8094 36.3136 25.8028Z" fill="white"/>
<path d="M36.4792 26.6096C36.3278 26.7148 36.1694 26.7632 36.0091 26.7991C35.849 26.835 35.69 26.8733 35.533 26.915C35.2187 26.9957 34.9106 27.0893 34.6246 27.2056C34.3409 27.321 34.0761 27.4755 33.9352 27.6901C33.7864 27.8977 33.773 28.1949 33.8265 28.5196C33.8339 28.5638 33.8041 28.6056 33.7599 28.613C33.7276 28.6184 33.6964 28.6036 33.6792 28.5782C33.5811 28.432 33.5077 28.2622 33.4812 28.071C33.4566 27.8818 33.4835 27.6673 33.5814 27.4869C33.6272 27.3949 33.6893 27.3158 33.7537 27.2406C33.8219 27.1705 33.8938 27.1052 33.9699 27.0502C34.1216 26.9387 34.2816 26.8506 34.4453 26.7813C34.7722 26.6412 35.1084 26.5624 35.4418 26.4997C35.609 26.4707 35.776 26.4458 35.9427 26.4235C36.1095 26.4021 36.2788 26.3977 36.4555 26.4529C36.502 26.4674 36.5279 26.5168 36.5134 26.5633C36.5073 26.5827 36.4948 26.5988 36.4792 26.6096Z" fill="white"/>
<path d="M34.3738 28.7176C34.5331 28.377 34.7613 28.0742 35.0432 27.8137C35.0794 27.781 35.1126 27.7502 35.1535 27.7176C35.198 27.686 35.2386 27.6484 35.2877 27.623C35.335 27.5948 35.383 27.5676 35.4347 27.5479C35.4849 27.5243 35.538 27.5091 35.5914 27.4942C35.8054 27.435 36.0352 27.4484 36.2466 27.5149C36.4591 27.5814 36.6493 27.7185 36.79 27.8942C36.8255 27.9379 36.8544 27.9866 36.8851 28.0337C36.9093 28.0821 36.9389 28.1374 36.9567 28.1812C36.993 28.2685 37.0287 28.3562 37.0609 28.4457C37.1927 28.802 37.2822 29.1809 37.3054 29.5732C37.3168 29.7691 37.3099 29.9685 37.2774 30.1656C37.2603 30.264 37.2395 30.3619 37.2115 30.4581C37.195 30.5084 37.187 30.548 37.1611 30.6099C37.1389 30.6671 37.1091 30.7218 37.0742 30.7725C36.9355 30.9775 36.706 31.1135 36.4611 31.1366C36.339 31.1486 36.214 31.1317 36.0999 31.0898C35.9921 31.0482 35.9052 31.0019 35.8166 30.9442C35.4704 30.7133 35.2217 30.3793 35.093 29.9955C35.0621 29.8986 35.0396 29.7975 35.034 29.6889C35.0307 29.5819 35.0367 29.4576 35.1223 29.3381C35.1659 29.2783 35.2379 29.2368 35.3051 29.2218C35.3734 29.2075 35.4351 29.215 35.4887 29.2283C35.597 29.2552 35.6824 29.3069 35.7637 29.3593C35.8006 29.383 35.8112 29.4322 35.7875 29.469C35.7666 29.5015 35.7261 29.5136 35.6915 29.4999L35.6876 29.4983C35.6078 29.4667 35.5256 29.4411 35.454 29.4361C35.4184 29.433 35.3868 29.4385 35.3668 29.4473C35.3476 29.4579 35.3377 29.4665 35.3303 29.4836C35.3146 29.5182 35.3103 29.5879 35.3233 29.6599C35.336 29.7327 35.3629 29.8088 35.396 29.8821C35.5287 30.1778 35.7621 30.4401 36.0322 30.5978C36.0974 30.6376 36.1748 30.6727 36.2379 30.6937C36.2956 30.712 36.3558 30.7164 36.4147 30.7088C36.5331 30.6954 36.6448 30.625 36.7076 30.5256C36.7406 30.4756 36.7561 30.4269 36.7799 30.3385C36.8011 30.2593 36.8164 30.1785 36.8289 30.0971C36.8508 29.9337 36.8569 29.7671 36.8474 29.5993C36.83 29.2629 36.7435 28.9269 36.6332 28.5969C36.6057 28.5142 36.5745 28.4324 36.5428 28.3507C36.5271 28.3099 36.5123 28.2853 36.4979 28.2511C36.4786 28.2224 36.4626 28.1911 36.4411 28.1638C36.3567 28.0542 36.2416 27.9657 36.1079 27.9169C35.9749 27.8696 35.8262 27.8525 35.6867 27.8861C35.6519 27.8946 35.6167 27.9021 35.5839 27.9168C35.5494 27.9275 35.5177 27.9446 35.4859 27.9617C35.4524 27.9758 35.4256 28.0016 35.3943 28.0204C35.3629 28.043 35.3278 28.0727 35.2954 28.0998C35.0308 28.3226 34.7844 28.5775 34.4996 28.814L34.4992 28.8144C34.4647 28.843 34.4135 28.8383 34.3849 28.8038C34.3642 28.7789 34.361 28.7451 34.3738 28.7176Z" fill="white"/>
<path d="M34.0336 28.9627C34.1602 29.0177 34.2367 29.1049 34.298 29.2002C34.3589 29.296 34.4188 29.3926 34.4765 29.4909C34.5913 29.6878 34.693 29.8933 34.7767 30.1069C34.8593 30.3209 34.9303 30.5407 34.9772 30.7668C35.0215 30.9931 35.0399 31.2274 35.0008 31.4619C34.9933 31.5073 34.9504 31.5379 34.905 31.5303C34.8781 31.5258 34.8564 31.5089 34.8447 31.4864L34.844 31.4849C34.7398 31.2799 34.6616 31.0795 34.5841 30.8787C34.5092 30.6775 34.4332 30.4774 34.3495 30.2794L34.0971 29.6829C34.0549 29.5828 34.0101 29.4835 33.9641 29.3845C33.9405 29.3353 33.9204 29.2841 33.9088 29.2278C33.8958 29.1722 33.8887 29.113 33.8974 29.0437L33.8979 29.04C33.9046 28.9865 33.9534 28.9486 34.0069 28.9554C34.0162 28.9565 34.0254 28.9592 34.0336 28.9627Z" fill="white"/>
<path d="M30.4024 19.8311C31.0283 20.1163 31.6436 20.4235 32.2521 20.7467C32.554 20.9134 32.8545 21.0805 33.14 21.2856C33.211 21.3402 33.281 21.3892 33.3458 21.4756C33.3596 21.5002 33.3832 21.5263 33.3773 21.5867C33.3748 21.6162 33.3504 21.6474 33.3313 21.6596C33.3115 21.6737 33.2932 21.6799 33.2784 21.6837C33.2175 21.6985 33.1725 21.6948 33.1257 21.6927C32.9435 21.6783 32.7756 21.6391 32.6059 21.6008C31.9315 21.4426 31.2786 21.2245 30.6187 21.042C30.4542 20.9966 30.2888 20.9516 30.1259 20.9181C30.0853 20.9098 30.045 20.9028 30.0069 20.8982C29.9878 20.8957 29.9697 20.8946 29.9546 20.8944C29.9488 20.8946 29.9396 20.8948 29.9402 20.8953C29.9395 20.8952 29.9381 20.8957 29.9456 20.8934C29.9491 20.8919 29.9483 20.8918 29.9547 20.8882C29.9621 20.884 29.9689 20.8777 29.9737 20.8707C30.0061 20.8222 29.9843 20.7965 29.9881 20.7994C29.9874 20.7974 29.9895 20.8023 29.9939 20.8077C30.0013 20.8183 30.0143 20.8326 30.0267 20.846C30.0529 20.8735 30.0832 20.9014 30.1138 20.9288C30.366 21.1477 30.646 21.3511 30.9198 21.5564C31.1936 21.7634 31.4687 21.97 31.7411 22.1817C31.8772 22.2877 32.0126 22.3949 32.146 22.5062C32.2791 22.619 32.4112 22.7296 32.5346 22.8681C32.5651 22.9056 32.5957 22.9385 32.6234 22.999C32.6301 23.0135 32.6367 23.0336 32.6399 23.0579C32.642 23.0848 32.6412 23.1213 32.6127 23.158C32.6056 23.1669 32.5973 23.1754 32.5892 23.182C32.5826 23.1864 32.5756 23.1905 32.5684 23.1942C32.5523 23.2028 32.5409 23.2056 32.5312 23.2076C32.5077 23.2134 32.4943 23.2125 32.4772 23.2135C32.3639 23.2088 32.2852 23.1814 32.1978 23.1572C32.0287 23.1058 31.8668 23.0453 31.7052 22.984C31.3822 22.8616 31.0651 22.7292 30.7476 22.5983C30.43 22.468 30.1121 22.3393 29.7912 22.2204C29.4706 22.1044 29.1456 21.9873 28.8156 21.9311C28.734 21.9184 28.6499 21.9099 28.5761 21.9227C28.5399 21.9296 28.5085 21.9433 28.4948 21.9651C28.4869 21.973 28.4815 21.996 28.4744 22.0115C28.4711 22.029 28.4653 22.0467 28.4659 22.0647C28.462 22.1372 28.4995 22.2102 28.5526 22.2711C28.6054 22.3329 28.6713 22.3859 28.7408 22.4333C28.8808 22.5279 29.0356 22.6026 29.193 22.6694C29.3504 22.7366 29.5119 22.7957 29.6764 22.8455C29.3431 22.7638 29.0109 22.66 28.7099 22.4812C28.6355 22.4352 28.5633 22.3833 28.5011 22.3171C28.4396 22.2525 28.3852 22.1659 28.3848 22.0636C28.3856 22.0121 28.3941 21.9678 28.4218 21.9174C28.4545 21.8647 28.5099 21.8431 28.5561 21.8317C28.6515 21.8109 28.7415 21.8177 28.8296 21.8267C29.1801 21.8747 29.5084 21.9851 29.8364 22.0925C30.1634 22.2031 30.4863 22.3232 30.8082 22.4446L31.7706 22.8101C31.9307 22.8692 32.0917 22.9274 32.2518 22.9744C32.3292 22.9966 32.4171 23.0196 32.4761 23.0205C32.4804 23.0199 32.4887 23.0199 32.486 23.0196C32.487 23.0198 32.4859 23.0198 32.479 23.0225C32.4766 23.0238 32.4744 23.0255 32.4725 23.0274C32.4681 23.0302 32.4632 23.0345 32.4596 23.0393C32.446 23.0599 32.4462 23.0728 32.447 23.0788C32.4468 23.082 32.4477 23.0812 32.4451 23.0763C32.4377 23.0581 32.4117 23.0244 32.3871 22.9965C32.2809 22.879 32.1483 22.7682 32.0183 22.6606C31.8867 22.553 31.7517 22.4482 31.6157 22.3443C31.3436 22.1366 31.0667 21.9336 30.791 21.728C30.5172 21.5184 30.2418 21.3153 29.9768 21.0812C29.9438 21.051 29.911 21.0204 29.8783 20.9854C29.8618 20.9672 29.8456 20.9497 29.8283 20.9251C29.8199 20.9133 29.8107 20.8997 29.8013 20.8781C29.7964 20.8621 29.7691 20.8125 29.8143 20.7459C29.8232 20.7354 29.834 20.7256 29.8454 20.7178C29.856 20.7109 29.8608 20.7098 29.8691 20.7061C29.8863 20.699 29.8956 20.6979 29.9055 20.6961C29.9272 20.6923 29.9397 20.693 29.9553 20.6926C29.9832 20.693 30.0079 20.6953 30.0314 20.6985C30.0785 20.7047 30.1228 20.7129 30.1663 20.7222C30.3397 20.7597 30.5056 20.8067 30.6719 20.8543C31.334 21.0475 31.9875 21.2605 32.6456 21.4412C32.8095 21.4834 32.9769 21.5263 33.1372 21.5433C33.1757 21.5473 33.218 21.5479 33.2409 21.5425C33.247 21.5417 33.2492 21.5395 33.2468 21.5415C33.2447 21.5418 33.236 21.5548 33.235 21.5625C33.2354 21.5796 33.2356 21.5652 33.2271 21.5543C33.1906 21.5012 33.1223 21.4436 33.0582 21.3932C32.7913 21.1888 32.4939 21.0131 32.2004 20.8378C31.6119 20.4851 31.0064 20.1595 30.4024 19.8311Z" fill="white"/>
<path d="M30.7275 32.7505C30.7808 32.5087 30.8714 32.2798 30.9948 32.0612C31.0267 32.0067 31.0598 31.9526 31.1001 31.8993C31.1198 31.8726 31.1422 31.8461 31.168 31.8198C31.1949 31.794 31.2232 31.7661 31.277 31.7449C31.3049 31.7354 31.3414 31.7277 31.3816 31.739C31.401 31.7441 31.4172 31.7523 31.4344 31.764C31.4508 31.777 31.4715 31.7987 31.4762 31.8105C31.5081 31.8695 31.5076 31.9053 31.5124 31.9419C31.5182 32.0136 31.5146 32.0767 31.5106 32.1399C31.4915 32.3896 31.4508 32.6282 31.429 32.8642C31.4233 32.9228 31.4196 32.981 31.4183 33.0366C31.4174 33.0644 31.4176 33.0916 31.4194 33.116C31.4205 33.14 31.4253 33.1645 31.428 33.1695C31.4284 33.1711 31.4289 33.1729 31.4264 33.1675C31.4253 33.1659 31.4238 33.1645 31.4222 33.1635C31.4202 33.1614 31.4159 33.1562 31.4117 33.1538C31.3944 33.1427 31.3681 33.1401 31.3603 33.1445C31.3444 33.1514 31.3627 33.1418 31.3741 33.1269C31.4018 33.0932 31.4304 33.0441 31.4562 32.9943C31.5588 32.7892 31.6446 32.5612 31.7379 32.3364C31.7853 32.2232 31.8317 32.1103 31.8956 31.9945C31.9127 31.9651 31.9295 31.9365 31.9551 31.9048C31.9668 31.8896 31.9823 31.8725 32.0043 31.8548C32.0192 31.8451 32.0247 31.8374 32.0496 31.8283C32.0714 31.8195 32.0936 31.8152 32.1163 31.8174C32.162 31.8205 32.1886 31.8377 32.2102 31.8512C32.23 31.8652 32.2464 31.8794 32.2593 31.8927C32.2866 31.9197 32.307 31.9453 32.3271 31.9706C32.4767 32.1707 32.6038 32.3618 32.7865 32.4961C32.8765 32.5627 32.9781 32.6083 33.0867 32.6341C33.1958 32.6578 33.3115 32.6554 33.4269 32.6359C33.4486 32.632 33.4692 32.6464 33.4731 32.668C33.4766 32.6874 33.4649 32.7062 33.447 32.7126C33.3281 32.7538 33.1978 32.7708 33.0671 32.7588C32.936 32.7463 32.8096 32.6965 32.6982 32.6285C32.4732 32.4927 32.3149 32.279 32.1686 32.0991C32.1505 32.0775 32.132 32.0564 32.1156 32.0415C32.1019 32.0248 32.0775 32.0194 32.1055 32.0268C32.1128 32.0265 32.1205 32.0262 32.1282 32.0235C32.1379 32.0175 32.1331 32.0225 32.1351 32.0206C32.1341 32.0222 32.1281 32.027 32.1221 32.0362C32.1099 32.0518 32.0965 32.0761 32.0836 32.0992C32.0318 32.1963 31.9868 32.3084 31.9427 32.4192C31.853 32.6426 31.7754 32.8719 31.66 33.0997C31.6296 33.1571 31.5987 33.2142 31.5498 33.2746C31.521 33.3039 31.4959 33.3408 31.4215 33.3657C31.3992 33.3696 31.3826 33.3757 31.355 33.371C31.3288 33.3674 31.3042 33.3598 31.2838 33.3445C31.2602 33.3291 31.2481 33.3136 31.238 33.2986C31.2254 33.2815 31.2207 33.2692 31.2156 33.2566C31.1958 33.2053 31.1935 33.1687 31.1903 33.1325C31.1878 33.0966 31.1878 33.0631 31.1888 33.0304C31.1911 32.965 31.1973 32.9023 31.2046 32.8406C31.2336 32.5949 31.2799 32.3561 31.3032 32.1231C31.3085 32.0657 31.3123 32.0075 31.3094 31.9583C31.3093 31.9352 31.3016 31.9088 31.3038 31.9146C31.3034 31.9116 31.3098 31.9252 31.3166 31.9267C31.3214 31.9304 31.324 31.9306 31.3288 31.9323C31.3397 31.9342 31.345 31.933 31.3444 31.9324C31.3411 31.9323 31.3218 31.9445 31.3056 31.9608C31.2887 31.9773 31.2712 31.9965 31.2544 32.0181C31.2205 32.0607 31.1889 32.1092 31.1585 32.1585C31.0372 32.3581 30.9283 32.5723 30.8012 32.7796L30.8009 32.7801C30.7893 32.799 30.7646 32.805 30.7457 32.7934C30.7307 32.7842 30.7239 32.7668 30.7275 32.7505Z" fill="#B0F3CC"/>
</svg>
