<svg width="580" height="512" viewBox="0 0 580 512" fill="none" xmlns="http://www.w3.org/2000/svg">
<path opacity="0.4" d="M253.64 287.484C314.861 287.484 364.492 237.854 364.492 176.632C364.492 115.41 314.861 65.7798 253.64 65.7798C192.418 65.7798 142.788 115.41 142.788 176.632C142.788 237.854 192.418 287.484 253.64 287.484Z" fill="#46A83E"/>
<path d="M457.913 395.745C445.274 408.721 426.261 422.572 401.216 440.861C368.448 444.614 336.663 435.455 305.949 412.208C301.8 409.08 298.335 405.136 295.765 400.62C293.196 396.104 291.576 391.11 291.007 385.945C288.528 362.96 288.914 339.721 298.526 315.67C292.882 307.47 287.141 300.25 280.915 297.977C286.415 262.941 282.284 230.608 262.581 202.644C313.395 160.716 361.767 155.044 407.362 190.59C423.992 181.311 441.226 177.147 459.063 178.099L465.974 192.633C469.326 199.687 471.075 207.394 471.095 215.203C471.116 223.012 469.408 230.729 466.094 237.799C463.464 243.614 460.248 249.144 456.496 254.305C459.308 279.917 475.062 284.231 458.802 307.207C476.348 338.139 480.563 357.916 472.343 375.858" stroke="white" stroke-width="6.44279" stroke-linecap="round" stroke-linejoin="round"/>
<path d="M238.22 217.828C223.961 208.437 209.259 201.519 193.891 198.32C203.527 181.656 216.116 165.819 231.659 150.809C222.736 152.161 213.705 153.821 204.474 156.056C203.912 156.193 203.319 156.141 202.789 155.909C202.258 155.676 201.819 155.275 201.539 154.768C201.259 154.261 201.154 153.676 201.239 153.103C201.324 152.53 201.596 152.001 202.012 151.598C261.998 93.6304 311.9 59.48 336.11 86.0058C360.201 54.9194 419.217 82.8504 507.397 169.503C507.724 169.824 507.943 170.238 508.024 170.689C508.105 171.139 508.044 171.604 507.85 172.019C507.656 172.433 507.337 172.777 506.939 173.003C506.541 173.229 506.082 173.326 505.627 173.28C498.3 172.57 491.459 172.785 485.354 174.398C496.919 200.064 490.193 213.891 470.923 219.598L470.902 219.623C471.664 210.349 469.964 201.039 465.975 192.633L459.063 178.099C441.223 177.127 423.989 181.291 407.362 190.59C361.767 155.044 313.395 160.716 262.581 202.644C282.284 230.608 286.415 262.941 280.915 297.977C287.141 300.25 292.882 307.47 298.526 315.67C288.914 339.721 288.528 362.96 291.007 385.945C292.03 395.235 296.436 403.824 303.385 410.073C288.1 407.137 273.62 399.267 262.122 373.152C258.081 372.978 255.678 376.582 254.113 382.118C253.878 382.965 253.398 383.724 252.733 384.299C252.069 384.875 251.25 385.242 250.378 385.355C249.506 385.468 248.62 385.322 247.831 384.934C247.042 384.546 246.385 383.935 245.941 383.176C238.931 371.496 233.412 358.984 229.514 345.931C226.122 348.948 223.416 357.963 220.939 368.973C220.749 369.828 220.312 370.608 219.682 371.216C219.051 371.823 218.256 372.232 217.394 372.39C216.533 372.548 215.645 372.449 214.839 372.105C214.034 371.762 213.348 371.188 212.867 370.457C204.352 357.081 199.78 337.416 200.983 308.537C224.861 297.466 241.333 274.017 238.22 217.828Z" fill="white"/>
<path d="M372.179 231.689C371.636 231.575 371.124 231.345 370.679 231.016C370.367 230.792 370.117 230.494 369.95 230.149L368.924 228.319C368.234 227.117 367.571 225.936 366.964 224.728C366.368 223.512 365.732 222.324 365.153 221.066C364.515 219.66 364.118 218.157 363.978 216.619L363.973 216.57C363.939 216.185 364.06 215.802 364.308 215.506C364.556 215.21 364.912 215.024 365.297 214.991C365.443 214.978 365.59 214.988 365.734 215.018C367.419 215.408 368.955 216.279 370.155 217.526C371.275 218.712 372.246 220.031 373.045 221.453C373.84 222.869 374.448 224.382 374.854 225.955C375.061 226.736 375.225 227.527 375.37 228.316C375.461 228.81 375.426 229.318 375.268 229.795C375.109 230.271 374.833 230.7 374.465 231.041C374.197 231.339 373.853 231.559 373.471 231.678C373.088 231.797 372.68 231.81 372.29 231.716L372.179 231.689Z" fill="white"/>
<path d="M371.874 269.572C371.436 268.96 371.131 268.263 370.979 267.526C370.843 266.907 370.806 266.271 370.868 265.64L371.093 261.966C371.236 259.524 371.403 257.105 371.629 254.702L372.302 247.503C372.55 245.01 373.049 242.548 373.79 240.154L373.797 240.132C373.875 239.893 374.02 239.682 374.216 239.525C374.411 239.367 374.648 239.27 374.898 239.245C375.148 239.22 375.399 239.268 375.622 239.384C375.845 239.5 376.029 239.677 376.153 239.896C377.416 242.247 378.19 244.828 378.43 247.486C378.662 250.063 378.69 252.655 378.515 255.237C378.342 257.799 377.975 260.343 377.416 262.848C377.147 264.099 376.835 265.338 376.513 266.572C376.209 267.968 375.386 269.197 374.21 270.01C374.033 270.135 373.832 270.224 373.621 270.272C373.409 270.32 373.19 270.326 372.976 270.29C372.761 270.253 372.557 270.175 372.373 270.059C372.189 269.943 372.03 269.792 371.905 269.615L371.874 269.572Z" fill="white"/>
<path d="M297.696 263.614C298.168 261.658 298.824 259.751 299.653 257.919C300.516 256.131 301.481 254.394 302.544 252.717C303.627 251.055 304.771 249.427 305.885 247.778C307.045 246.159 308.279 244.588 309.477 242.989C314.459 236.636 320.331 231.035 326.911 226.358C328.617 225.26 330.28 224.095 332.041 223.088L334.717 221.637C335.616 221.168 336.482 220.637 337.423 220.251L340.199 219.006C341.114 218.57 342.051 218.182 343.006 217.843L345.877 216.851C346.825 216.499 347.791 216.2 348.772 215.956C356.507 213.787 364.58 213.089 372.573 213.895C372.86 213.925 373.127 214.058 373.324 214.269C373.521 214.48 373.635 214.755 373.646 215.044C373.656 215.333 373.562 215.615 373.381 215.84C373.2 216.065 372.944 216.217 372.66 216.268L372.645 216.271C365.16 217.489 357.791 219.335 350.615 221.789C347.114 223.04 343.694 224.508 340.376 226.184C339.525 226.557 338.749 227.075 337.94 227.528L335.535 228.925C333.962 229.905 332.452 230.99 330.896 231.999C324.818 236.367 319.27 241.429 314.365 247.083C313.153 248.528 311.902 249.944 310.715 251.417C309.569 252.926 308.391 254.413 307.266 255.943C306.182 257.518 305.021 259.037 303.785 260.496C302.579 262.05 301.231 263.49 299.758 264.796L299.721 264.828C299.523 264.999 299.276 265.103 299.016 265.126C298.755 265.149 298.494 265.088 298.269 264.954C298.045 264.819 297.869 264.617 297.766 264.377C297.663 264.136 297.638 263.869 297.696 263.614L297.696 263.614Z" fill="white"/>
<path d="M383.261 257.179C381.801 257.272 380.336 257.204 378.892 256.978C377.511 256.807 376.14 256.563 374.786 256.246C372.082 255.666 369.35 255.223 366.602 254.92C361.084 254.315 355.537 254.031 349.987 254.069C348.594 254.062 347.2 254.083 345.802 254.12C344.405 254.139 343.007 254.178 341.608 254.266C340.208 254.332 338.808 254.404 337.408 254.531L333.198 254.831C327.57 255.215 321.922 255.699 316.116 255.762H316.111C315.83 255.766 315.557 255.671 315.338 255.494C315.119 255.317 314.969 255.07 314.913 254.794C314.857 254.519 314.898 254.232 315.03 253.984C315.163 253.736 315.377 253.542 315.637 253.435C321.056 251.269 326.694 249.697 332.452 248.749C335.324 248.243 338.227 247.902 341.144 247.654C342.599 247.505 344.061 247.403 345.527 247.323L347.725 247.197L349.931 247.162C358.823 246.978 367.689 248.175 376.215 250.708C377.646 251.123 379.036 251.669 380.368 252.337C381.729 253.039 382.988 253.921 384.113 254.96C384.293 255.129 384.421 255.347 384.481 255.586C384.54 255.826 384.529 256.079 384.449 256.312C384.368 256.546 384.222 256.752 384.027 256.904C383.832 257.056 383.598 257.149 383.351 257.171L383.261 257.179Z" fill="white"/>
<path d="M363.098 276.863C361.376 278.347 359.277 279.324 357.033 279.685C354.883 280.097 352.71 280.439 350.514 280.671C346.091 281.137 341.627 281.036 337.23 280.371C332.819 279.7 328.515 278.451 324.43 276.656C320.366 274.869 316.692 272.303 313.616 269.102C313.431 268.904 313.317 268.65 313.291 268.379C313.266 268.109 313.331 267.838 313.476 267.609C313.621 267.38 313.838 267.205 314.093 267.112C314.348 267.019 314.626 267.014 314.885 267.096L314.897 267.1C318.968 268.405 322.765 269.784 326.607 270.927C330.402 272.121 334.29 272.994 338.231 273.537C342.184 274.073 346.17 274.33 350.159 274.305C352.17 274.303 354.189 274.198 356.211 274.026C357.233 273.905 358.265 273.879 359.292 273.947C360.409 273.978 361.515 274.18 362.571 274.546L362.645 274.572C362.813 274.632 362.968 274.725 363.1 274.844C363.233 274.964 363.34 275.109 363.417 275.27C363.493 275.432 363.537 275.607 363.546 275.785C363.555 275.964 363.529 276.142 363.468 276.31C363.392 276.522 363.265 276.712 363.098 276.863V276.863Z" fill="white"/>
<path d="M362.701 251.205C361.478 261.281 353.903 268.653 345.767 267.677C338.754 266.835 333.625 260.062 333.105 251.755C342.918 250.46 352.846 250.275 362.701 251.205Z" fill="white"/>
<path d="M383.563 210.394C381.695 210.711 379.806 210.891 377.912 210.932C376.057 211.059 374.239 210.964 372.4 211.007L369.653 211.01C368.736 211.033 367.818 211.093 366.901 211.133C365.984 211.185 365.069 211.204 364.153 211.282L361.405 211.535C354.053 212.266 346.749 213.412 339.527 214.967C335.901 215.742 332.265 216.516 328.655 217.43C326.843 217.852 325.047 218.357 323.245 218.837C321.436 219.288 319.633 219.774 317.833 220.278C310.607 222.202 303.378 224.209 295.945 225.818C295.663 225.88 295.368 225.838 295.114 225.7C294.86 225.563 294.665 225.338 294.563 225.068C294.461 224.797 294.461 224.499 294.561 224.229C294.661 223.958 294.856 223.732 295.109 223.593C301.819 219.971 308.816 216.907 316.03 214.432C319.624 213.164 323.276 212.046 326.958 211.024C330.637 209.989 334.342 209.011 338.094 208.211C345.623 206.553 353.279 205.537 360.98 205.174L363.88 205.077C364.846 205.052 365.819 205.085 366.787 205.087C367.757 205.101 368.724 205.095 369.693 205.127L372.602 205.292C376.534 205.433 380.396 206.372 383.955 208.05C384.186 208.164 384.376 208.347 384.498 208.573C384.621 208.8 384.669 209.059 384.637 209.315C384.605 209.571 384.495 209.81 384.32 210C384.146 210.189 383.917 210.32 383.665 210.373L383.563 210.394Z" fill="white"/>
<path d="M464.23 216.884C463.195 217.335 462.1 217.633 460.98 217.769C459.944 217.92 458.898 217.982 457.852 217.954C455.782 217.946 453.713 217.992 451.643 218.114C447.504 218.333 443.371 218.684 439.223 219.076C435.073 219.453 430.922 219.974 426.742 220.457C422.498 220.976 418.224 221.214 413.948 221.169C413.676 221.163 413.413 221.067 413.201 220.895C412.99 220.723 412.842 220.485 412.78 220.22C412.719 219.954 412.748 219.676 412.862 219.429C412.976 219.181 413.17 218.979 413.412 218.854C417.311 216.9 421.426 215.413 425.673 214.422C429.906 213.431 434.193 212.691 438.513 212.206C442.864 211.714 447.247 211.557 451.623 211.739C453.816 211.835 456.01 212.011 458.196 212.246C460.483 212.412 462.679 213.201 464.548 214.529C464.737 214.669 464.886 214.857 464.98 215.072C465.075 215.288 465.112 215.524 465.087 215.758C465.063 215.992 464.978 216.216 464.841 216.407C464.704 216.599 464.52 216.751 464.306 216.85L464.23 216.884Z" fill="white"/>
<path d="M452.728 227.494C451.687 228.345 450.544 229.062 449.324 229.627C448.204 230.216 447.042 230.723 445.849 231.145C444.695 231.636 443.524 232.077 442.391 232.604C441.271 233.16 440.123 233.647 439.031 234.252C434.625 236.567 430.425 239.254 426.477 242.286C425.493 243.051 424.496 243.797 423.546 244.611C422.585 245.408 421.611 246.194 420.703 247.06C419.779 247.907 418.839 248.739 417.97 249.649C417.077 250.535 416.155 251.395 415.291 252.318C411.73 255.912 408.308 259.692 404.579 263.434L404.571 263.442C404.374 263.639 404.116 263.763 403.839 263.792C403.562 263.821 403.284 263.755 403.05 263.603C402.817 263.451 402.643 263.223 402.557 262.958C402.472 262.693 402.48 262.407 402.581 262.147C404.578 257.141 407.313 252.461 410.695 248.264C412.379 246.142 414.2 244.133 416.146 242.248C417.087 241.269 418.105 240.366 419.114 239.451C420.099 238.509 421.179 237.673 422.248 236.825C426.551 233.438 431.282 230.633 436.318 228.482C437.565 227.925 438.865 227.491 440.133 226.994C441.412 226.527 442.725 226.15 444.015 225.728C445.325 225.347 446.666 225.081 448.022 224.935C449.425 224.82 450.837 224.9 452.217 225.173C452.456 225.223 452.675 225.34 452.851 225.509C453.027 225.678 453.152 225.893 453.211 226.13C453.271 226.366 453.262 226.615 453.188 226.847C453.113 227.079 452.975 227.285 452.788 227.443L452.728 227.494Z" fill="white"/>
<path d="M444.286 272.787C443.602 270.878 443.432 268.823 443.794 266.828C444.06 264.936 444.32 263.048 444.546 261.167C445.019 257.408 445.525 253.687 445.906 250.025C446.329 246.456 446.47 242.859 446.326 239.268C446.243 235.823 445.484 232.427 444.092 229.274L444.025 229.129C443.914 228.89 443.885 228.62 443.942 228.362C443.999 228.104 444.139 227.871 444.34 227.7C444.542 227.529 444.794 227.429 445.058 227.415C445.322 227.401 445.583 227.474 445.802 227.623C446.241 227.922 446.678 228.247 447.106 228.593L447.753 229.12L448.292 229.731C448.656 230.142 449.016 230.567 449.359 231.009L450.213 232.409C450.743 233.361 451.193 234.356 451.558 235.383C451.892 236.396 452.174 237.427 452.402 238.469C453.068 242.505 453.196 246.612 452.781 250.682C452.413 254.6 451.757 258.485 450.818 262.307C450.367 264.202 449.886 266.079 449.402 267.948C448.968 269.939 448.004 271.776 446.614 273.266C446.354 273.534 445.999 273.688 445.625 273.694C445.252 273.7 444.891 273.558 444.623 273.298C444.475 273.154 444.36 272.979 444.286 272.787V272.787Z" fill="white"/>
<path d="M454.363 264.259C453.04 264.389 451.705 264.349 450.392 264.14C449.145 263.986 447.911 263.741 446.701 263.406C444.281 262.812 441.849 262.292 439.398 261.877C434.501 261.031 429.572 260.455 424.615 260.076C422.136 259.902 419.65 259.722 417.155 259.663C414.66 259.589 412.16 259.618 409.651 259.602C404.629 259.581 399.584 259.646 394.387 259.359L394.381 259.359C394.103 259.343 393.839 259.233 393.633 259.047C393.427 258.86 393.291 258.608 393.248 258.334C393.205 258.059 393.257 257.778 393.397 257.537C393.536 257.297 393.754 257.111 394.013 257.012C398.943 255.187 404.087 254 409.319 253.483C411.928 253.192 414.555 253.076 417.187 253.036C419.817 252.997 422.458 252.999 425.092 253.186C430.375 253.512 435.615 254.335 440.743 255.645C443.305 256.308 445.836 257.079 448.336 257.926C450.928 258.728 453.29 260.14 455.224 262.044C455.393 262.219 455.51 262.439 455.561 262.677C455.613 262.915 455.596 263.164 455.514 263.393C455.432 263.623 455.287 263.825 455.096 263.977C454.905 264.128 454.675 264.223 454.433 264.251L454.363 264.259Z" fill="white"/>
<path d="M439.199 258.582C437.531 267.64 432.334 274.217 427.052 273.583C422.171 272.998 419.041 264.617 418.973 256.367C425.769 256.481 432.54 257.223 439.199 258.582V258.582Z" fill="white"/>
<path d="M434.609 283.725C433.307 284.826 431.658 285.433 429.952 285.439L427.568 285.488L425.172 285.438C421.952 285.296 418.763 284.743 415.682 283.793C412.598 282.84 409.645 281.507 406.891 279.824C404.132 278.139 401.765 275.883 399.949 273.208C399.808 272.992 399.736 272.738 399.744 272.48C399.752 272.222 399.839 271.972 399.994 271.765C400.148 271.558 400.363 271.404 400.608 271.322C400.853 271.241 401.117 271.237 401.365 271.311L401.39 271.319C404.4 272.231 407.053 273.339 409.703 274.379C412.298 275.464 414.954 276.397 417.657 277.174C420.35 277.941 423.079 278.587 425.874 279.101L427.982 279.455L430.115 279.722C430.85 279.77 431.575 279.92 432.27 280.166C433.08 280.418 433.836 280.82 434.499 281.351L434.567 281.405C434.879 281.656 435.079 282.02 435.122 282.418C435.166 282.816 435.05 283.216 434.799 283.528C434.741 283.599 434.678 283.664 434.609 283.725V283.725Z" fill="white"/>
<path d="M432.616 313.282C432.829 313.07 433.031 312.847 433.22 312.614C433.403 312.417 433.567 312.203 433.709 311.975C434.006 311.56 434.251 311.111 434.437 310.636C434.804 309.764 434.971 308.821 434.925 307.876C434.892 306.585 434.413 305.345 433.571 304.367L433.369 304.131C433.299 304.047 433.164 303.916 433.064 303.811L432.425 303.137C429.064 299.568 425.247 296.456 421.074 293.882C419.012 292.633 416.864 291.532 414.645 290.588C413.539 290.121 412.416 289.692 411.273 289.326L410.428 289.049C410.212 288.992 409.997 288.928 409.777 288.889C409.342 288.796 408.898 288.745 408.453 288.737C407.569 288.713 406.687 288.849 405.851 289.136C405.437 289.278 405.035 289.452 404.649 289.658C404.213 289.908 403.794 290.186 403.394 290.489L397.094 294.981C396.601 295.332 396.024 295.548 395.421 295.606C394.819 295.664 394.211 295.564 393.66 295.314C388.863 293.136 384.099 290.884 379.325 288.657C378.994 288.498 378.81 288.428 378.576 288.323C378.35 288.228 378.116 288.151 377.885 288.067C377.416 287.916 376.936 287.801 376.45 287.722C375.472 287.558 374.475 287.546 373.493 287.687C372.503 287.819 371.538 288.095 370.628 288.507C370.394 288.598 370.18 288.732 369.953 288.84L369.164 289.291C368.633 289.6 368.11 289.929 367.589 290.261C365.488 291.616 363.471 293.098 361.55 294.7L360.836 295.305C360.667 295.456 360.498 295.607 360.34 295.772C359.344 296.778 358.724 298.098 358.587 299.508C358.531 299.989 358.526 300.474 358.573 300.956C358.609 301.372 358.769 302.077 358.9 302.719C359.173 304.009 359.432 305.304 359.676 306.603C360.186 309.194 360.651 311.798 361.07 314.415C361.116 314.705 361.054 315.003 360.894 315.251C360.735 315.498 360.489 315.678 360.205 315.756C359.921 315.834 359.618 315.804 359.355 315.673C359.092 315.541 358.886 315.317 358.778 315.043C357.803 312.579 356.875 310.102 355.993 307.612C355.542 306.37 355.105 305.125 354.68 303.875C354.471 303.245 354.246 302.688 354.026 301.812C353.827 300.999 353.725 300.165 353.723 299.328C353.719 297.627 354.096 295.947 354.825 294.41C355.198 293.635 355.654 292.903 356.186 292.227C356.454 291.888 356.743 291.565 357.049 291.261L357.792 290.532C359.772 288.591 361.896 286.804 364.148 285.186C364.72 284.784 365.297 284.386 365.888 284.006L366.79 283.436C367.145 283.236 367.489 283.016 367.859 282.842C369.317 282.09 370.884 281.57 372.502 281.302C374.127 281.032 375.785 281.012 377.416 281.243C378.233 281.357 379.04 281.532 379.831 281.766C380.224 281.892 380.618 282.018 381.002 282.167C381.375 282.318 381.803 282.491 382.069 282.613C386.888 284.741 391.719 286.843 396.517 289.021L393.083 289.354L399.384 284.864C400.019 284.398 400.682 283.972 401.371 283.589C403.63 282.374 406.182 281.808 408.743 281.954C409.587 281.996 410.425 282.114 411.248 282.309C411.66 282.399 412.063 282.523 412.465 282.647L413.45 282.995C414.752 283.449 416.031 283.971 417.286 284.538C419.797 285.661 422.209 286.992 424.496 288.519C428.997 291.558 433.078 295.175 436.636 299.278L437.295 300.038C437.408 300.174 437.501 300.273 437.632 300.441L438.028 300.965C438.545 301.674 438.966 302.448 439.278 303.268C439.893 304.888 440.058 306.645 439.756 308.351C439.48 309.997 438.759 311.535 437.672 312.8C437.148 313.406 436.542 313.935 435.87 314.371C435.24 314.785 434.554 315.106 433.833 315.324C433.578 315.402 433.304 315.394 433.053 315.302C432.802 315.209 432.589 315.037 432.445 314.812C432.302 314.587 432.236 314.321 432.257 314.055C432.279 313.789 432.387 313.537 432.566 313.338L432.616 313.282Z" fill="white"/>
<path d="M393.827 310.607C386.441 298.472 374.264 295.346 368.879 303.276C373.323 307.759 378.197 307.738 383.365 304.629C385.935 304.28 389.743 307.093 393.827 310.607Z" fill="white"/>
<path d="M407.546 307.917C415.073 296.107 421.8 296.194 428.066 303.152C425.739 307.69 421.738 308.09 415.845 303.81L412.028 307.514C411.515 308.012 410.863 308.341 410.157 308.458C409.452 308.576 408.727 308.475 408.081 308.169L407.546 307.917Z" fill="white"/>
<path d="M407.67 316.821C408.206 317.542 408.605 318.356 408.846 319.222C409.076 319.985 409.213 320.773 409.252 321.569C409.371 323.126 409.513 324.677 409.709 326.216C410.074 329.297 410.491 332.347 410.959 335.368C411.412 338.398 412.018 341.389 412.679 344.383C413.305 347.394 413.951 350.405 414.337 353.707L414.339 353.727C414.37 353.986 414.318 354.248 414.192 354.477C414.066 354.706 413.871 354.889 413.635 355.002C413.4 355.115 413.135 355.151 412.878 355.106C412.62 355.06 412.384 354.936 412.201 354.749C409.868 352.276 408.042 349.37 406.825 346.196C405.621 343.06 404.724 339.815 404.147 336.506C403.571 333.219 403.301 329.886 403.342 326.549C403.359 324.888 403.434 323.233 403.534 321.586C403.575 319.815 404.194 318.107 405.296 316.721C405.438 316.547 405.617 316.407 405.82 316.313C406.024 316.218 406.246 316.171 406.47 316.175C406.695 316.178 406.915 316.233 407.115 316.334C407.315 316.436 407.49 316.581 407.625 316.76L407.67 316.821Z" fill="white"/>
<path d="M420.049 357.055C422.252 356.998 424.411 357.676 426.186 358.981C427.208 359.682 428.08 360.581 428.75 361.624C429.42 362.667 429.875 363.833 430.089 365.054C430.483 367.268 430.174 369.551 429.206 371.581C428.238 373.612 426.659 375.289 424.69 376.377C424.138 376.698 423.727 376.88 423.228 377.117C421.32 377.981 419.313 378.607 417.252 378.979C416.236 379.171 415.218 379.31 414.204 379.403L413.443 379.465C413.282 379.489 413.239 379.491 413.134 379.511C412.96 379.548 412.791 379.608 412.631 379.688C412.332 379.835 412.072 380.053 411.876 380.323C411.679 380.592 411.551 380.905 411.502 381.236C411.454 381.652 411.539 382.072 411.746 382.437C411.952 382.801 412.268 383.091 412.65 383.264L413.905 383.839L416.404 385.011L418.999 386.244C420.452 386.963 421.73 387.99 422.746 389.253C423.761 390.516 424.489 391.985 424.879 393.558C425.269 395.131 425.311 396.77 425.003 398.362C424.695 399.953 424.044 401.457 423.095 402.771C422.359 403.793 421.439 404.669 420.383 405.354C419.464 405.977 418.483 406.505 417.456 406.928C415.403 407.775 413.184 408.148 410.966 408.02C406.915 407.666 403.057 406.126 399.877 403.59C399.647 403.418 399.487 403.17 399.424 402.89C399.362 402.611 399.402 402.318 399.536 402.065C399.671 401.812 399.892 401.615 400.159 401.511C400.426 401.406 400.721 401.401 400.992 401.495L401.014 401.504C404.397 402.691 407.833 403.547 410.901 403.169C412.377 403.034 413.807 402.586 415.096 401.856C415.741 401.506 416.348 401.091 416.907 400.615C417.362 400.243 417.752 399.797 418.06 399.297C418.642 398.344 418.889 397.224 418.761 396.115C418.633 395.006 418.138 393.972 417.354 393.177C416.97 392.798 416.522 392.49 416.031 392.268L413.602 391.21L411.071 390.108L409.81 389.546C409.128 389.24 408.486 388.851 407.9 388.387C406.567 387.325 405.571 385.898 405.036 384.279C404.5 382.661 404.448 380.922 404.884 379.275C405.321 377.627 406.228 376.142 407.494 375.001C408.761 373.861 410.332 373.113 412.016 372.851C412.364 372.795 412.782 372.766 413.078 372.745L413.695 372.716C414.515 372.669 415.325 372.585 416.124 372.464C417.698 372.224 419.241 371.818 420.728 371.252C421.07 371.116 421.511 370.943 421.758 370.808C422.012 370.694 422.254 370.554 422.479 370.39C422.94 370.081 423.335 369.684 423.64 369.221C423.969 368.758 424.204 368.234 424.33 367.68C424.479 367.121 424.517 366.538 424.443 365.964C424.382 365.384 424.228 364.818 423.986 364.287C423.867 364.008 423.731 363.738 423.578 363.476C423.377 363.212 423.272 362.981 422.989 362.654C421.984 361.409 420.816 360.304 419.516 359.371L419.424 359.306C419.214 359.159 419.056 358.951 418.97 358.71C418.884 358.469 418.874 358.207 418.943 357.96C419.011 357.714 419.154 357.494 419.352 357.332C419.55 357.17 419.794 357.073 420.049 357.055V357.055Z" fill="white"/>
<path d="M497.006 376.335C487.327 383.999 489.2 392.433 495.547 401.166C505.334 398.454 508.817 383.419 497.006 376.335Z" stroke="white" stroke-width="6.44279" stroke-linecap="round" stroke-linejoin="round"/>
<path d="M497.006 376.335L420.22 374.845" stroke="white" stroke-width="6.44279" stroke-linecap="round" stroke-linejoin="round"/>
<path d="M495.546 401.166L417.274 389.137" stroke="white" stroke-width="6.44279" stroke-linecap="round" stroke-linejoin="round"/>
<path d="M463.523 242.985C496.716 230.505 495.42 283.635 463.949 316.71" stroke="white" stroke-width="6.44279" stroke-linecap="round" stroke-linejoin="round"/>
<path d="M471.574 279.131C470.873 277.535 470.64 275.773 470.9 274.049C471.069 272.461 471.217 270.876 471.276 269.32C471.345 267.766 471.376 266.236 471.325 264.785C471.294 263.473 471.124 262.168 470.817 260.891C470.692 260.477 470.523 260.078 470.312 259.7C470.186 259.506 470.023 259.339 469.831 259.208C468.948 258.884 467.987 258.835 467.076 259.069C464.441 259.472 461.399 260.607 458.112 261.4L458.07 261.41C457.816 261.471 457.548 261.451 457.306 261.351C457.064 261.252 456.859 261.078 456.721 260.856C456.583 260.633 456.519 260.373 456.538 260.112C456.556 259.851 456.657 259.602 456.825 259.401C459.102 256.557 462.115 254.391 465.537 253.137C466.022 252.963 466.52 252.827 467.026 252.73C467.567 252.611 468.117 252.535 468.671 252.504C469.963 252.418 471.257 252.618 472.463 253.089C473.776 253.632 474.923 254.511 475.787 255.639C476.511 256.614 477.064 257.706 477.421 258.868C477.724 259.854 477.927 260.868 478.027 261.895C478.136 262.836 478.176 263.783 478.146 264.729C478.105 266.509 477.926 268.284 477.612 270.036C477.314 271.751 476.93 273.413 476.529 275.063C476.165 276.835 475.241 278.443 473.894 279.65C473.721 279.801 473.516 279.909 473.295 279.967C473.073 280.025 472.841 280.03 472.617 279.983C472.393 279.935 472.184 279.836 472.005 279.693C471.826 279.55 471.683 279.367 471.587 279.16L471.574 279.131Z" fill="white"/>
<path d="M193.749 199.499C191.92 199.622 190.106 199.616 188.292 199.613C186.739 199.458 185.171 199.588 183.665 199.996C182.362 200.39 181.177 201.101 180.215 202.065C179.969 202.308 179.738 202.565 179.523 202.836L178.701 203.864C178.162 204.556 177.589 205.219 177.055 205.914C174.886 208.669 172.876 211.547 170.968 214.489C169.112 217.467 167.325 220.489 165.728 223.62C162.496 229.877 159.725 236.362 157.439 243.024C156.878 244.697 156.307 246.366 155.798 248.058C155.246 249.735 154.753 251.433 154.26 253.131C153.76 254.824 153.327 256.55 152.868 258.247L152.339 260.661L151.975 263.105C151.217 269.695 152.231 276.367 154.914 282.433C156.263 285.459 158.015 288.288 160.123 290.843C161.184 292.138 162.322 293.368 163.529 294.527C164.794 295.753 166.091 296.949 167.4 298.134C177.894 307.617 189.604 315.847 201.533 323.902C201.782 324.07 201.959 324.325 202.028 324.618C202.097 324.911 202.053 325.219 201.905 325.48C201.756 325.741 201.514 325.937 201.228 326.028C200.941 326.118 200.631 326.097 200.359 325.969C187.108 319.817 174.686 312.016 163.389 302.753C161.988 301.564 160.596 300.36 159.233 299.121C157.797 297.83 156.443 296.451 155.18 294.991C152.648 292.02 150.53 288.72 148.883 285.18C145.549 278.052 144.254 270.14 145.141 262.321L145.572 259.419L146.198 256.554C146.677 254.771 147.121 253.002 147.641 251.238C148.636 247.705 149.765 244.209 151.03 240.75C152.304 237.299 153.652 233.87 155.177 230.511C156.666 227.139 158.311 223.836 160.112 220.603C161.891 217.364 163.869 214.233 165.921 211.158C168.027 208.115 170.24 205.145 172.617 202.306C173.197 201.586 173.832 200.909 174.448 200.219L175.378 199.189C175.751 198.777 176.149 198.388 176.568 198.024C178.299 196.557 180.399 195.595 182.64 195.243C183.729 195.079 184.834 195.055 185.93 195.17C187.094 195.322 187.838 195.55 188.757 195.738C190.52 196.164 192.284 196.588 194.032 197.14C194.301 197.225 194.532 197.401 194.685 197.637C194.837 197.874 194.903 198.157 194.869 198.437C194.836 198.717 194.705 198.976 194.501 199.17C194.296 199.364 194.03 199.481 193.749 199.499L193.749 199.499Z" fill="white"/>
<path d="M190.206 208.206C193.21 207.906 196.244 208.191 199.14 209.045C201.996 209.8 204.85 210.602 207.697 211.475C213.506 213.194 219.109 215.545 224.407 218.484C227.166 220.049 229.734 221.929 232.06 224.086C233.272 225.219 234.383 226.456 235.381 227.781C236.394 229.177 237.22 230.701 237.838 232.312C239.062 235.556 239.269 239.097 238.431 242.461C237.638 245.547 236.173 248.42 234.142 250.875C233.966 251.093 233.72 251.242 233.446 251.298C233.171 251.355 232.886 251.314 232.638 251.183C232.391 251.052 232.196 250.839 232.088 250.581C231.98 250.323 231.965 250.035 232.046 249.767L232.055 249.739C232.938 247.152 233.47 244.457 233.636 241.728C233.67 241.101 233.66 240.473 233.604 239.847C233.571 239.541 233.561 239.234 233.517 238.933C233.45 238.636 233.407 238.34 233.356 238.045C233.241 237.464 233.091 236.89 232.906 236.328C232.654 235.787 232.5 235.227 232.198 234.71C231.063 232.514 229.499 230.568 227.599 228.987C225.545 227.273 223.327 225.763 220.978 224.48C216.015 221.807 210.876 219.473 205.597 217.495C202.924 216.451 200.219 215.458 197.481 214.518C194.633 213.641 191.958 212.281 189.573 210.497C189.304 210.286 189.129 209.978 189.088 209.639C189.046 209.3 189.141 208.959 189.351 208.69C189.562 208.423 189.869 208.25 190.206 208.206Z" fill="white"/>
<path d="M219.675 253.273C215.374 248.427 211.632 243.396 207.459 238.895C206.945 238.347 206.397 237.752 205.884 237.277L205.137 236.617L204.768 236.284L204.357 236.005L203.545 235.441C203.276 235.252 202.965 235.13 202.68 234.968C202.106 234.652 201.504 234.387 200.882 234.179C198.416 233.316 195.756 233.174 193.212 233.77C190.669 234.365 188.348 235.673 186.521 237.54C186.067 237.99 185.702 238.523 185.287 239.008L184.778 239.828C184.586 240.112 184.41 240.407 184.251 240.712C183.518 242.08 182.796 243.451 182.134 244.846C180.804 247.611 179.613 250.441 178.567 253.326C177.552 256.174 176.771 259.099 176.229 262.073C175.705 264.997 175.462 267.965 175.506 270.935C175.546 271.669 175.57 272.406 175.623 273.139C175.71 273.867 175.752 274.603 175.87 275.326L176.043 276.413C176.073 276.586 176.097 276.792 176.131 276.939L176.232 277.348C176.29 277.623 176.372 277.892 176.477 278.152C176.566 278.417 176.676 278.675 176.807 278.923C177.572 280.45 178.815 281.685 180.347 282.442C181.878 283.199 183.615 283.436 185.293 283.117C185.611 283.065 185.924 282.987 186.231 282.886C186.564 282.786 186.903 282.704 187.234 282.592C187.888 282.34 188.559 282.133 189.196 281.82C191.835 280.644 194.269 279.054 196.406 277.111C197.485 276.116 198.504 275.058 199.457 273.942C200.387 272.817 201.227 271.618 201.966 270.358C202.702 269.155 203.283 267.864 203.698 266.516C204.069 265.443 204.128 264.287 203.868 263.182C203.731 262.822 203.468 262.524 203.129 262.344C203.017 262.301 202.909 262.25 202.804 262.194C202.675 262.147 202.543 262.112 202.408 262.09C202.112 262.012 201.807 261.973 201.5 261.974C200.049 261.991 198.608 262.219 197.224 262.654L197.167 262.67C196.88 262.75 196.572 262.72 196.306 262.585C196.04 262.45 195.835 262.219 195.731 261.94C195.626 261.66 195.631 261.352 195.744 261.075C195.856 260.799 196.069 260.575 196.339 260.448C197.908 259.629 199.604 259.078 201.355 258.819C201.848 258.75 202.348 258.739 202.844 258.784C203.392 258.81 203.933 258.915 204.45 259.098C205.613 259.514 206.594 260.324 207.224 261.387C207.764 262.36 208.074 263.443 208.131 264.554C208.185 265.527 208.125 266.504 207.953 267.464C207.618 269.238 207.053 270.96 206.274 272.588C204.76 275.743 202.741 278.628 200.296 281.131C197.834 283.675 194.956 285.782 191.788 287.361C190.995 287.779 190.145 288.092 189.312 288.437C188.889 288.597 188.453 288.726 188.023 288.87C187.571 289.03 187.109 289.16 186.639 289.26C184.613 289.737 182.505 289.753 180.471 289.308C178.437 288.853 176.526 287.958 174.874 286.685C173.221 285.413 171.868 283.795 170.908 281.944C170.66 281.484 170.445 281.008 170.263 280.519C170.066 280.037 169.903 279.541 169.778 279.035L169.585 278.278C169.527 278.034 169.502 277.842 169.46 277.621L169.232 276.336C169.079 275.479 169.006 274.612 168.892 273.75C168.812 272.886 168.765 272.019 168.707 271.153C168.581 267.707 168.832 264.258 169.457 260.867C170.705 254.233 172.923 247.819 176.038 241.831C176.781 240.343 177.582 238.892 178.392 237.448C178.567 237.105 178.859 236.677 179.116 236.28L179.911 235.079C180.505 234.321 181.139 233.595 181.808 232.902C184.543 230.174 188.021 228.313 191.807 227.551C195.554 226.792 199.439 227.126 203.001 228.515C203.887 228.851 204.743 229.263 205.559 229.744C205.965 229.988 206.393 230.196 206.774 230.475L207.912 231.318L208.477 231.744L208.991 232.226L210.01 233.199C210.646 233.84 211.165 234.447 211.725 235.087C213.89 237.605 215.826 240.311 217.512 243.173C219.195 245.995 220.604 248.971 221.72 252.061C221.815 252.326 221.814 252.615 221.719 252.88C221.624 253.144 221.439 253.367 221.197 253.51C220.956 253.654 220.671 253.708 220.394 253.665C220.116 253.621 219.862 253.483 219.675 253.272L219.675 253.273Z" fill="white"/>
<path d="M229.333 258.521C229.249 259.578 228.993 260.615 228.575 261.59C228.21 262.495 227.753 263.36 227.213 264.173C226.182 265.8 225.172 267.436 224.204 269.092C222.251 272.392 220.342 275.696 218.477 279.004C216.598 282.31 214.854 285.675 213.155 289.07C211.418 292.456 209.704 295.846 207.634 299.271L207.626 299.283C207.487 299.513 207.277 299.692 207.027 299.791C206.777 299.89 206.502 299.905 206.243 299.833C205.984 299.761 205.755 299.607 205.592 299.393C205.429 299.179 205.341 298.918 205.34 298.649C205.402 294.575 206.132 290.539 207.503 286.701C208.856 282.904 210.502 279.217 212.426 275.674C214.337 272.15 216.5 268.768 218.899 265.556C220.094 263.954 221.324 262.385 222.571 260.833C223.821 259.155 225.509 257.854 227.45 257.072C227.668 256.989 227.903 256.962 228.135 256.993C228.366 257.025 228.585 257.114 228.773 257.253C228.961 257.391 229.111 257.575 229.21 257.786C229.308 257.998 229.352 258.231 229.337 258.464L229.333 258.521Z" fill="white"/>
<path d="M389.445 97.019C392.314 98.29 394.994 99.9508 397.409 101.954C398.654 102.997 399.738 104.218 400.625 105.578C401.591 107.021 402.142 108.701 402.22 110.436C402.297 112.17 401.897 113.893 401.064 115.416C400.295 116.898 399.324 118.266 398.178 119.48C395.928 121.778 393.406 123.793 390.669 125.482L389.998 122.669C395.132 123.052 400.27 123.432 405.398 123.963L413.089 124.799C415.65 125.111 418.208 125.469 420.765 125.846C423.324 126.215 425.874 126.669 428.419 127.178C430.985 127.662 433.52 128.297 436.011 129.08C437.301 129.466 438.547 129.988 439.727 130.638C440.425 131.001 441.005 131.554 441.402 132.233C441.511 132.457 441.57 132.703 441.573 132.953C441.577 133.202 441.526 133.449 441.424 133.677C441.245 134.044 440.984 134.366 440.662 134.617C439.557 135.388 438.328 135.964 437.029 136.32C435.789 136.718 434.525 137.001 433.265 137.275C434.47 136.815 435.659 136.315 436.813 135.771C437.95 135.289 439.003 134.63 439.933 133.819C440.106 133.656 440.24 133.456 440.325 133.234C440.348 133.165 440.354 133.091 440.341 133.019C440.329 132.947 440.299 132.879 440.254 132.821C439.922 132.438 439.5 132.143 439.026 131.961C437.891 131.489 436.715 131.12 435.513 130.86C430.517 129.866 425.473 129.126 420.401 128.644C417.857 128.358 415.305 128.117 412.753 127.871L405.092 127.133L389.747 125.702L389.709 125.698C389.391 125.669 389.09 125.539 388.85 125.328C388.61 125.117 388.442 124.835 388.372 124.524C388.302 124.212 388.332 123.886 388.458 123.592C388.585 123.298 388.801 123.052 389.075 122.889C391.667 121.417 394.074 119.642 396.247 117.602C398.339 115.603 400.027 113.136 400.114 110.423C400.222 107.697 398.586 105.029 396.547 102.851C394.395 100.658 392.014 98.7026 389.445 97.019V97.019Z" fill="white" fill-opacity="0.5"/>
<path d="M399.772 141.138C403.39 141.66 406.921 142.293 410.444 142.952C413.97 143.587 417.469 144.284 420.974 144.95L431.486 147.031C434.995 147.761 438.517 148.423 442.06 149.366C438.437 149.75 434.786 149.802 431.154 149.522C427.528 149.291 423.922 148.82 420.359 148.111C416.792 147.428 413.272 146.515 409.823 145.378C406.343 144.293 402.977 142.873 399.772 141.138V141.138Z" fill="white" fill-opacity="0.5"/>
<path d="M309.896 104.971C298.63 109.385 287.356 113.781 276.31 118.668C270.767 120.985 265.36 123.617 260.117 126.55C259.485 126.931 258.864 127.325 258.284 127.743C257.733 128.118 257.227 128.554 256.775 129.043C256.595 129.233 256.535 129.496 256.573 129.3C256.563 129.242 256.549 129.185 256.531 129.129C256.478 129.064 256.49 129.053 256.471 129.039C256.431 129.024 256.496 129.044 256.508 129.054C256.545 129.078 256.586 129.095 256.63 129.105C257.239 129.277 257.87 129.362 258.503 129.356C261.463 129.322 264.418 129.076 267.343 128.619C279.243 126.886 291.101 124.478 303.072 122.483C306.074 121.991 309.073 121.529 312.172 121.247C312.949 121.179 313.736 121.129 314.563 121.122C315.002 121.115 315.442 121.135 315.879 121.18C315.988 121.186 316.137 121.217 316.264 121.237C316.413 121.26 316.56 121.294 316.704 121.34C316.904 121.392 317.096 121.471 317.276 121.573C317.403 121.638 317.522 121.716 317.632 121.806C317.8 121.953 317.946 122.122 318.069 122.307C318.208 122.542 318.295 122.803 318.327 123.074C318.358 123.281 318.347 123.492 318.297 123.695C318.246 123.952 318.151 124.198 318.015 124.422C317.862 124.683 317.679 124.926 317.472 125.147C317.166 125.477 316.838 125.786 316.491 126.073C315.853 126.607 315.218 127.069 314.579 127.523C309.467 131.033 304.218 133.994 298.988 137.068C293.743 140.092 288.488 143.076 283.302 146.149C280.71 147.687 278.133 149.244 275.609 150.857C273.107 152.403 270.712 154.116 268.44 155.985C267.978 156.37 267.568 156.813 267.219 157.302C267.157 157.392 267.16 157.426 267.156 157.398C267.191 157.201 267.15 156.998 267.042 156.829C266.999 156.755 266.942 156.689 266.874 156.637C266.854 156.606 266.827 156.579 266.797 156.559C266.77 156.541 266.74 156.527 266.709 156.517C266.714 156.516 266.72 156.515 266.725 156.515C266.702 156.524 266.855 156.541 266.94 156.563C267.582 156.616 268.227 156.602 268.866 156.523C269.57 156.454 270.293 156.353 271.019 156.234C273.927 155.751 276.865 155.075 279.791 154.383L297.379 150.004C303.254 148.545 309.144 147.112 315.084 145.853C318.055 145.229 321.039 144.647 324.049 144.17C327.073 143.649 330.132 143.354 333.2 143.285C334.8 143.24 336.397 143.455 337.929 143.923C338.83 144.193 339.587 144.81 340.034 145.639C340.14 145.848 340.213 146.071 340.251 146.302L340.377 146.926C340.423 147.353 340.421 147.783 340.371 148.21C340.259 149.051 339.956 149.856 339.484 150.563C339.024 151.227 338.475 151.825 337.851 152.339C336.642 153.32 335.309 154.137 333.886 154.769C328.26 157.097 322.322 158.582 316.262 159.177C319.24 158.664 322.187 157.989 325.091 157.154C327.992 156.375 330.812 155.32 333.511 154.002C334.831 153.353 336.06 152.533 337.167 151.563C337.693 151.093 338.154 150.553 338.534 149.959C338.884 149.389 339.098 148.747 339.161 148.081C339.186 147.756 339.175 147.429 339.128 147.106C339.073 146.8 338.984 146.503 338.862 146.217C338.542 145.723 338.042 145.373 337.468 145.242C336.082 144.892 334.649 144.765 333.223 144.864C330.244 145.019 327.281 145.384 324.353 145.957C321.401 146.5 318.461 147.147 315.528 147.839C309.665 149.232 303.834 150.802 298.006 152.401C292.177 154.006 286.355 155.647 280.463 157.125C277.512 157.86 274.561 158.582 271.507 159.129C270.742 159.265 269.968 159.384 269.168 159.472C268.306 159.588 267.434 159.608 266.568 159.533C266.265 159.498 265.968 159.429 265.681 159.328L265.429 159.233C265.316 159.176 265.207 159.111 265.103 159.039C264.995 158.966 264.89 158.887 264.791 158.803C264.667 158.672 264.557 158.529 264.463 158.376C264.291 158.101 264.188 157.788 264.165 157.464C264.147 157.214 264.165 156.963 264.22 156.718C264.302 156.387 264.434 156.071 264.609 155.779C265.101 155.011 265.703 154.318 266.395 153.722C268.766 151.712 271.284 149.88 273.927 148.242C276.492 146.586 279.087 145.005 281.691 143.445C286.9 140.331 292.149 137.315 297.376 134.281C302.585 131.252 307.894 128.272 312.77 124.951C313.366 124.533 313.956 124.104 314.478 123.67C314.715 123.476 314.94 123.267 315.152 123.046C315.204 122.992 315.253 122.934 315.297 122.874C315.269 122.941 315.246 123.01 315.231 123.081C315.217 123.196 315.214 123.311 315.221 123.426C315.242 123.604 315.301 123.775 315.396 123.927C315.455 124.041 315.54 124.14 315.643 124.217C315.68 124.248 315.719 124.277 315.759 124.304C315.859 124.347 315.827 124.335 315.806 124.332C315.77 124.317 315.732 124.309 315.694 124.307C315.636 124.295 315.577 124.286 315.518 124.28C315.203 124.248 314.887 124.234 314.57 124.238C313.885 124.241 313.161 124.281 312.432 124.343C309.505 124.596 306.52 125.048 303.547 125.487C297.592 126.396 291.633 127.433 285.662 128.424C279.69 129.424 273.704 130.376 267.649 131.066C264.585 131.469 261.496 131.647 258.406 131.6C257.525 131.584 256.652 131.429 255.819 131.141C255.518 131.029 255.241 130.861 255.002 130.646C254.825 130.49 254.682 130.299 254.58 130.086C254.479 129.873 254.422 129.642 254.412 129.406C254.4 129.024 254.495 128.646 254.686 128.315C254.814 128.08 254.969 127.86 255.148 127.66C255.728 127.043 256.381 126.498 257.092 126.037C257.751 125.587 258.418 125.186 259.091 124.803C261.781 123.278 264.541 122.001 267.316 120.756C270.094 119.523 272.89 118.344 275.704 117.22C281.342 114.992 287.02 112.889 292.718 110.847C298.412 108.793 304.138 106.835 309.896 104.971Z" fill="white" fill-opacity="0.5"/>
<path d="M275.899 330.419C274.213 326.496 272.788 322.506 271.083 318.741C270.67 317.821 270.204 316.926 269.685 316.061C269.447 315.664 269.181 315.284 268.89 314.924C268.701 314.666 268.464 314.448 268.192 314.282C268.147 314.276 268.189 314.293 268.32 314.291C268.371 314.286 268.42 314.271 268.464 314.246C268.513 314.232 268.558 314.206 268.593 314.169C268.609 314.152 268.622 314.134 268.635 314.115L268.641 314.125C268.527 314.398 268.448 314.684 268.405 314.977C268.255 315.947 268.175 316.927 268.166 317.909C268.087 322.048 268.359 326.318 268.336 330.66C268.329 331.75 268.3 332.851 268.202 333.986C268.153 334.574 268.073 335.159 267.964 335.739C267.85 336.445 267.624 337.13 267.295 337.766C267.179 337.997 267.031 338.211 266.854 338.4C266.752 338.514 266.645 338.623 266.535 338.727C266.382 338.846 266.218 338.95 266.044 339.037C265.687 339.23 265.286 339.327 264.88 339.318C264.695 339.332 264.509 339.312 264.331 339.259C264.165 339.218 264.003 339.168 263.843 339.109C263.379 338.908 262.963 338.611 262.622 338.238C262.365 337.967 262.133 337.673 261.928 337.361C261.31 336.34 260.797 335.258 260.399 334.133C258.873 329.94 257.986 325.771 256.883 321.676C256.387 319.672 255.784 317.696 255.074 315.756C254.915 315.337 254.726 314.93 254.509 314.538C254.472 314.461 254.427 314.388 254.373 314.321C254.339 314.282 254.276 314.162 254.274 314.187C254.272 314.185 254.269 314.183 254.268 314.18C254.266 314.177 254.265 314.174 254.265 314.17C254.265 314.17 254.262 314.157 254.268 314.16C254.285 314.178 254.304 314.193 254.325 314.206C254.414 314.241 254.507 314.266 254.602 314.279C254.792 314.266 254.742 314.253 254.646 314.296C254.494 314.376 254.349 314.468 254.212 314.573C253.838 314.857 253.481 315.164 253.143 315.492C250.202 318.355 247.031 321.733 242.869 323.64C240.8 324.637 238.533 325.158 236.236 325.163C233.986 325.114 231.772 324.59 229.738 323.628C229.602 323.563 229.495 323.45 229.439 323.31C229.383 323.17 229.383 323.014 229.437 322.874C229.492 322.733 229.597 322.619 229.733 322.553C229.868 322.488 230.024 322.476 230.168 322.52L230.173 322.522C232.105 323.153 234.14 323.408 236.168 323.273C237.151 323.166 238.122 322.97 239.07 322.687C240.012 322.38 240.923 321.986 241.792 321.511C243.54 320.495 245.154 319.265 246.597 317.849C248.108 316.447 249.45 314.875 251.014 313.296C251.431 312.87 251.874 312.471 252.34 312.1C252.622 311.875 252.925 311.676 253.243 311.506C253.724 311.243 254.268 311.117 254.815 311.142C255.177 311.156 255.531 311.258 255.845 311.441L256.081 311.575C256.141 311.617 256.182 311.655 256.233 311.697L256.517 311.952C256.669 312.098 256.806 312.259 256.927 312.431C257.04 312.572 257.142 312.722 257.231 312.879C257.552 313.408 257.829 313.961 258.06 314.534C258.849 316.587 259.523 318.681 260.081 320.809C261.234 324.931 262.245 329.096 263.621 332.928C263.933 333.814 264.33 334.667 264.807 335.476C264.996 335.782 265.3 336.024 265.149 335.925C265.101 335.895 265.044 335.885 264.988 335.896C264.955 335.886 264.92 335.879 264.885 335.876C264.746 335.885 264.609 335.916 264.481 335.971C264.426 336 264.377 336.037 264.333 336.081C264.313 336.085 264.296 336.096 264.283 336.111C264.25 336.174 264.271 336.13 264.288 336.089C264.433 335.77 264.533 335.431 264.584 335.084C264.671 334.616 264.734 334.144 264.773 333.669C264.866 332.681 264.916 331.651 264.936 330.609C265.034 326.426 264.787 322.171 264.981 317.786C265.022 316.636 265.149 315.491 265.362 314.36C265.485 313.597 265.78 312.872 266.224 312.24C266.421 311.978 266.668 311.758 266.952 311.593C267.235 311.428 267.548 311.322 267.873 311.28C268.448 311.205 269.032 311.309 269.546 311.578C270.202 311.943 270.77 312.446 271.213 313.053C271.581 313.53 271.915 314.033 272.213 314.557C272.767 315.535 273.263 316.545 273.697 317.582C274.542 319.589 275.247 321.652 275.806 323.757C276.38 325.843 276.795 327.969 277.049 330.117C277.064 330.26 277.028 330.404 276.947 330.523C276.865 330.642 276.744 330.728 276.604 330.764C276.465 330.801 276.317 330.786 276.187 330.723C276.058 330.659 275.956 330.551 275.899 330.419H275.899Z" fill="white" fill-opacity="0.5"/>
<path d="M218.25 83.7538C221.087 82.9054 224.03 82.4687 226.991 82.457L235.732 82.2021C241.56 82.0651 247.387 81.9704 253.215 82.0069C256.129 81.9879 259.042 82.0687 261.956 82.1044C264.87 82.1382 267.784 82.1979 270.697 82.3022C276.546 82.4755 282.382 82.96 288.18 83.7538C288.401 83.7862 288.604 83.8972 288.75 84.0665C288.896 84.2359 288.977 84.4522 288.977 84.676C288.977 84.8998 288.896 85.1161 288.75 85.2855C288.604 85.4548 288.401 85.5658 288.18 85.5982C282.382 86.392 276.546 86.8765 270.697 87.0498C267.784 87.1541 264.87 87.2138 261.956 87.2476C259.042 87.2833 256.129 87.3641 253.215 87.3451C247.387 87.3816 241.56 87.2869 235.732 87.1499L226.991 86.895C224.03 86.8833 221.087 86.4466 218.25 85.5982C218.055 85.535 217.885 85.4117 217.765 85.2461C217.644 85.0804 217.58 84.8808 217.58 84.676C217.58 84.4712 217.644 84.2716 217.765 84.1059C217.885 83.9403 218.055 83.817 218.25 83.7538V83.7538Z" fill="#DDDDDD"/>
<path d="M122.213 166.263C127.282 165.408 132.413 164.975 137.554 164.966L152.896 164.711C163.124 164.574 173.351 164.48 183.579 164.516C188.693 164.497 193.807 164.578 198.921 164.614C204.034 164.647 209.148 164.713 214.262 164.812C224.49 165.04 234.718 165.41 244.945 166.263C245.177 166.282 245.392 166.388 245.549 166.559C245.706 166.73 245.794 166.953 245.794 167.185C245.794 167.417 245.706 167.641 245.549 167.812C245.392 167.983 245.177 168.088 244.945 168.107C234.718 168.96 224.49 169.331 214.262 169.559C209.148 169.663 204.034 169.729 198.921 169.757C193.807 169.793 188.693 169.873 183.579 169.854C173.351 169.891 163.124 169.796 152.896 169.659L137.554 169.404C132.413 169.396 127.282 168.962 122.213 168.107C121.997 168.067 121.803 167.953 121.663 167.785C121.523 167.616 121.446 167.404 121.446 167.185C121.446 166.966 121.523 166.754 121.663 166.586C121.803 166.417 121.997 166.303 122.213 166.263V166.263Z" fill="#DDDDDD"/>
<path d="M115.685 273.349C117.304 272.517 119.095 272.073 120.915 272.052L126.145 271.797C129.632 271.639 133.119 271.562 136.606 271.591C138.349 271.59 140.093 271.661 141.836 271.699C143.58 271.744 145.323 271.776 147.067 271.893C150.589 272.074 154.089 272.561 157.527 273.349C157.734 273.399 157.917 273.518 158.048 273.685C158.18 273.852 158.251 274.058 158.251 274.271C158.251 274.483 158.18 274.69 158.048 274.857C157.917 275.024 157.734 275.142 157.527 275.193C154.089 275.981 150.589 276.468 147.067 276.649C145.323 276.765 143.58 276.798 141.836 276.842C140.093 276.881 138.349 276.952 136.606 276.951C133.119 276.979 129.632 276.903 126.145 276.745L120.915 276.49C119.095 276.468 117.304 276.024 115.685 275.193C115.519 275.103 115.38 274.97 115.283 274.807C115.187 274.645 115.136 274.46 115.136 274.271C115.136 274.082 115.187 273.897 115.283 273.734C115.38 273.572 115.519 273.439 115.685 273.349V273.349Z" fill="#DDDDDD"/>
<path d="M192.149 390.593C193.769 389.761 195.559 389.317 197.38 389.296L202.61 389.041C206.097 388.883 209.584 388.807 213.071 388.835C214.814 388.834 216.558 388.905 218.301 388.943C220.044 388.988 221.788 389.02 223.531 389.137C227.054 389.318 230.554 389.805 233.992 390.593C234.198 390.643 234.382 390.762 234.513 390.929C234.644 391.096 234.715 391.302 234.715 391.515C234.715 391.727 234.644 391.934 234.513 392.101C234.382 392.268 234.198 392.386 233.992 392.437C230.554 393.225 227.054 393.712 223.531 393.893C221.788 394.01 220.044 394.042 218.301 394.087C216.558 394.125 214.814 394.196 213.071 394.195C209.584 394.223 206.097 394.147 202.61 393.989L197.38 393.734C195.559 393.713 193.769 393.269 192.149 392.437C191.983 392.347 191.845 392.214 191.748 392.051C191.652 391.889 191.601 391.704 191.601 391.515C191.601 391.326 191.652 391.141 191.748 390.978C191.845 390.816 191.983 390.683 192.149 390.593V390.593Z" fill="#DDDDDD"/>
<path d="M46.8421 390.593C51.8964 389.738 57.0129 389.304 62.1389 389.296L77.4356 389.041C87.6335 388.904 97.8313 388.809 108.029 388.846C113.128 388.827 118.227 388.908 123.326 388.943C128.425 388.977 133.524 389.043 138.623 389.141C148.821 389.369 159.018 389.74 169.216 390.593C169.447 390.612 169.663 390.718 169.82 390.888C169.977 391.059 170.064 391.283 170.064 391.515C170.064 391.747 169.977 391.971 169.82 392.141C169.663 392.312 169.447 392.418 169.216 392.437C159.018 393.29 148.821 393.66 138.623 393.889C133.524 393.993 128.425 394.059 123.326 394.086C118.227 394.122 113.128 394.203 108.029 394.184C97.8313 394.22 87.6335 394.126 77.4356 393.989L62.1389 393.734C57.0129 393.726 51.8964 393.292 46.8421 392.437C46.6268 392.397 46.4323 392.283 46.2923 392.114C46.1523 391.946 46.0757 391.734 46.0757 391.515C46.0757 391.296 46.1523 391.084 46.2923 390.915C46.4323 390.747 46.6268 390.633 46.8421 390.593H46.8421Z" fill="#DDDDDD"/>
<path d="M154.548 105.063C156.168 104.232 157.958 103.788 159.778 103.767L165.009 103.512C168.496 103.353 171.983 103.277 175.47 103.306C177.213 103.305 178.956 103.376 180.7 103.414C182.443 103.459 184.187 103.491 185.93 103.608C189.453 103.789 192.953 104.276 196.391 105.063C196.597 105.114 196.781 105.232 196.912 105.4C197.043 105.567 197.114 105.773 197.114 105.986C197.114 106.198 197.043 106.404 196.912 106.572C196.781 106.739 196.597 106.857 196.391 106.908C192.953 107.695 189.453 108.183 185.93 108.364C184.187 108.48 182.443 108.513 180.7 108.557C178.956 108.596 177.213 108.666 175.47 108.666C171.983 108.694 168.496 108.618 165.009 108.46L159.778 108.205C157.958 108.183 156.168 107.739 154.548 106.908C154.382 106.818 154.244 106.684 154.147 106.522C154.05 106.36 154 106.174 154 105.986C154 105.797 154.05 105.611 154.147 105.449C154.244 105.287 154.382 105.154 154.548 105.063V105.063Z" fill="#DDDDDD"/>
<path d="M82.6255 214.726C86.7779 213.873 91.0055 213.439 95.2446 213.429L107.864 213.174C116.277 213.037 124.689 212.943 133.102 212.979C137.309 212.96 141.515 213.041 145.721 213.077C149.928 213.11 154.134 213.176 158.341 213.274C166.753 213.503 175.166 213.873 183.579 214.726C183.807 214.749 184.019 214.856 184.173 215.027C184.327 215.197 184.412 215.419 184.412 215.648C184.412 215.878 184.327 216.099 184.173 216.27C184.019 216.44 183.807 216.547 183.579 216.57C175.166 217.423 166.753 217.794 158.341 218.022C154.134 218.126 149.928 218.192 145.721 218.22C141.515 218.256 137.309 218.336 133.102 218.317C124.689 218.354 116.277 218.259 107.864 218.122L95.2446 217.867C91.0055 217.858 86.7779 217.423 82.6255 216.57C82.4162 216.523 82.2292 216.406 82.0952 216.239C81.9612 216.071 81.8882 215.863 81.8882 215.648C81.8882 215.434 81.9612 215.225 82.0952 215.058C82.2292 214.89 82.4162 214.773 82.6255 214.726V214.726Z" fill="#DDDDDD"/>
<path d="M41.8341 214.726C42.782 213.93 43.9688 213.474 45.2058 213.429L48.5775 213.174C50.8253 213.016 53.0731 212.94 55.3209 212.968C57.5687 213.009 59.8165 213.074 62.0643 213.27C64.3664 213.456 66.6338 213.946 68.8076 214.726C68.9949 214.797 69.1562 214.923 69.2701 215.088C69.384 215.252 69.445 215.448 69.445 215.648C69.445 215.848 69.384 216.044 69.2701 216.209C69.1562 216.373 68.9949 216.5 68.8076 216.57C66.6338 217.351 64.3664 217.84 62.0643 218.026C59.8165 218.222 57.5687 218.287 55.3209 218.328C53.0731 218.357 50.8253 218.28 48.5775 218.122L45.2058 217.867C43.9688 217.823 42.782 217.366 41.8341 216.57C41.713 216.468 41.6132 216.343 41.5403 216.203C41.4675 216.062 41.4231 215.909 41.4096 215.751C41.3962 215.593 41.4139 215.434 41.4619 215.283C41.5098 215.132 41.587 214.992 41.6891 214.871C41.7335 214.819 41.782 214.77 41.8341 214.726V214.726Z" fill="#DDDDDD"/>
<path d="M82.6255 318.804C89.112 317.947 95.6474 317.514 102.19 317.507L121.755 317.252C134.798 317.115 147.841 317.02 160.884 317.057C167.406 317.038 173.927 317.118 180.449 317.154C186.97 317.188 193.492 317.254 200.013 317.352C213.056 317.568 226.1 317.97 239.143 318.804C239.377 318.819 239.597 318.922 239.758 319.094C239.918 319.265 240.008 319.491 240.008 319.726C240.008 319.961 239.918 320.187 239.758 320.358C239.597 320.529 239.377 320.633 239.143 320.648C226.1 321.481 213.056 321.883 200.013 322.1C193.492 322.204 186.97 322.27 180.449 322.297C173.927 322.333 167.406 322.414 160.884 322.395C147.841 322.431 134.798 322.337 121.755 322.2L102.19 321.945C95.6474 321.937 89.112 321.504 82.6255 320.648C82.404 320.616 82.2014 320.505 82.055 320.335C81.9085 320.166 81.8279 319.95 81.8279 319.726C81.8279 319.502 81.9085 319.285 82.055 319.116C82.2014 318.947 82.404 318.836 82.6255 318.804V318.804Z" fill="#DDDDDD"/>
<path d="M193.796 431.883C198.838 431.029 203.942 430.595 209.056 430.586L224.316 430.331C234.489 430.194 244.663 430.1 254.836 430.136C259.923 430.117 265.01 430.198 270.096 430.234C275.183 430.268 280.27 430.334 285.357 430.432C295.53 430.66 305.703 431.03 315.877 431.883C316.108 431.903 316.324 432.008 316.481 432.179C316.638 432.35 316.725 432.573 316.725 432.805C316.725 433.037 316.638 433.261 316.481 433.432C316.324 433.603 316.108 433.708 315.877 433.728C305.703 434.581 295.53 434.951 285.357 435.179C280.27 435.283 275.183 435.349 270.096 435.377C265.01 435.413 259.923 435.493 254.836 435.475C244.663 435.511 234.489 435.416 224.316 435.279L209.056 435.024C203.942 435.016 198.838 434.582 193.796 433.728C193.58 433.687 193.386 433.573 193.246 433.405C193.106 433.236 193.03 433.024 193.03 432.805C193.03 432.586 193.106 432.374 193.246 432.206C193.386 432.038 193.58 431.923 193.796 431.883V431.883Z" fill="#DDDDDD"/>
</svg>
