<svg width="512" height="512" viewBox="0 0 512 512" fill="none" xmlns="http://www.w3.org/2000/svg">
<path opacity="0.4" d="M148.058 273.431C209.279 273.431 258.91 223.801 258.91 162.58C258.91 101.358 209.279 51.7275 148.058 51.7275C86.8357 51.7275 37.2056 101.358 37.2056 162.58C37.2056 223.801 86.8357 273.431 148.058 273.431Z" fill="#46A83E"/>
<path d="M420.667 227.671C424.95 227.31 428.974 227.741 432.933 228.372C436.879 229.041 440.728 230.009 444.494 231.231C448.261 232.452 451.941 233.939 455.524 235.724C459.095 237.544 462.599 239.57 465.843 242.395C461.558 242.766 457.533 242.338 453.574 241.704C449.628 241.035 445.779 240.068 442.016 238.835C438.253 237.604 434.573 236.117 430.99 234.332C427.42 232.509 423.914 230.487 420.667 227.671Z" fill="#DDDDDD"/>
<path d="M404.996 264.303C409.278 263.941 413.302 264.373 417.261 265.004C421.208 265.673 425.057 266.64 428.823 267.863C432.59 269.083 436.269 270.571 439.852 272.355C443.424 274.175 446.928 276.201 450.172 279.026C445.886 279.397 441.861 278.969 437.903 278.336C433.957 277.666 430.107 276.699 426.345 275.466C422.582 274.235 418.901 272.749 415.319 270.964C411.748 269.141 408.243 267.118 404.996 264.303Z" fill="#DDDDDD"/>
<path d="M379.202 297.635C383.484 297.273 387.508 297.705 391.467 298.336C395.413 299.005 399.262 299.972 403.029 301.195C406.795 302.415 410.475 303.903 414.058 305.687C417.629 307.507 421.134 309.533 424.377 312.358C420.092 312.729 416.067 312.301 412.109 311.668C408.163 310.998 404.313 310.032 400.55 308.798C396.787 307.567 393.107 306.081 389.524 304.296C385.954 302.473 382.448 300.451 379.202 297.635Z" fill="#DDDDDD"/>
<path d="M337.456 325.768C341.738 325.406 345.762 325.838 349.721 326.469C353.667 327.138 357.517 328.105 361.283 329.328C365.05 330.549 368.729 332.036 372.312 333.82C375.884 335.641 379.388 337.667 382.632 340.491C378.346 340.863 374.321 340.435 370.363 339.801C366.417 339.131 362.567 338.165 358.805 336.932C355.042 335.7 351.361 334.214 347.779 332.429C344.208 330.606 340.703 328.584 337.456 325.768Z" fill="#DDDDDD"/>
<path d="M291.334 340.259C295.616 339.898 299.64 340.329 303.599 340.96C307.545 341.629 311.395 342.596 315.161 343.819C318.927 345.04 322.607 346.527 326.19 348.311C329.761 350.132 333.266 352.158 336.51 354.983C332.224 355.354 328.199 354.926 324.241 354.292C320.295 353.623 316.445 352.656 312.682 351.423C308.919 350.192 305.239 348.705 301.656 346.92C298.086 345.097 294.581 343.075 291.334 340.259Z" fill="#DDDDDD"/>
<path d="M420.696 227.584C424.979 227.222 429.002 227.654 432.961 228.285C436.908 228.954 440.757 229.921 444.523 231.144C448.29 232.365 451.969 233.852 455.552 235.636C459.124 237.457 462.628 239.482 465.872 242.307C461.586 242.678 457.561 242.25 453.603 241.617C449.657 240.947 445.807 239.981 442.045 238.748C438.281 237.516 434.602 236.03 431.019 234.245C427.448 232.422 423.943 230.4 420.696 227.584Z" fill="#DDDDDD"/>
<path d="M429.619 188.753C433.901 188.391 437.925 188.823 441.884 189.454C445.83 190.123 449.68 191.09 453.446 192.313C457.212 193.534 460.892 195.021 464.475 196.805C468.046 198.626 471.551 200.651 474.794 203.476C470.509 203.847 466.484 203.419 462.526 202.786C458.58 202.116 454.73 201.15 450.968 199.917C447.204 198.685 443.524 197.199 439.941 195.414C436.371 193.591 432.865 191.569 429.619 188.753Z" fill="#DDDDDD"/>
<path d="M428.418 146.623C432.701 146.261 436.725 146.693 440.684 147.324C444.63 147.993 448.479 148.96 452.245 150.183C456.012 151.404 459.692 152.891 463.275 154.675C466.846 156.496 470.35 158.522 473.594 161.346C469.309 161.717 465.284 161.29 461.326 160.656C457.379 159.986 453.53 159.02 449.767 157.787C446.004 156.555 442.324 155.069 438.741 153.284C435.171 151.461 431.665 149.439 428.418 146.623Z" fill="#DDDDDD"/>
<path d="M411.267 99.294C415.549 98.9322 419.573 99.3638 423.532 99.9947C427.479 100.664 431.328 101.631 435.094 102.854C438.86 104.075 442.54 105.562 446.123 107.346C449.695 109.167 453.199 111.192 456.443 114.017C452.157 114.388 448.132 113.96 444.174 113.327C440.228 112.657 436.378 111.691 432.615 110.458C428.852 109.226 425.172 107.74 421.59 105.955C418.019 104.132 414.514 102.11 411.267 99.294Z" fill="#DDDDDD"/>
<path d="M382.54 60.4092C386.823 60.0474 390.847 60.479 394.806 61.11C398.752 61.7791 402.601 62.7463 406.367 63.9689C410.134 65.1898 413.814 66.6772 417.397 68.4614C420.968 70.2818 424.472 72.3077 427.716 75.1326C423.431 75.5036 419.406 75.0756 415.448 74.4422C411.501 73.7725 407.652 72.8059 403.889 71.5729C400.126 70.3416 396.446 68.855 392.863 67.0702C389.293 65.2472 385.787 63.225 382.54 60.4092Z" fill="#DDDDDD"/>
<path d="M271.19 339.555C360.002 339.555 431.999 267.558 431.999 178.746C431.999 89.934 360.002 17.9375 271.19 17.9375C182.378 17.9375 110.381 89.934 110.381 178.746C110.381 267.558 182.378 339.555 271.19 339.555Z" stroke="white" stroke-width="8" stroke-miterlimit="10" stroke-linecap="round" stroke-linejoin="round"/>
<path d="M221.36 331.639L257.87 343.538C342.31 371.059 433.073 324.916 460.593 240.475C488.113 156.034 441.97 65.2718 357.53 37.7515L321.02 25.8525" stroke="white" stroke-width="8" stroke-miterlimit="10" stroke-linecap="round" stroke-linejoin="round"/>
<path d="M271.19 300.031C338.174 300.031 392.475 245.73 392.475 178.746C392.475 111.762 338.174 57.4609 271.19 57.4609C204.206 57.4609 149.905 111.762 149.905 178.746C149.905 245.73 204.206 300.031 271.19 300.031Z" stroke="white" stroke-width="8" stroke-miterlimit="10" stroke-linecap="round" stroke-linejoin="round"/>
<path d="M311.82 54.0803C310.781 51.9221 310.5 50.011 310.448 48.1746C310.409 46.3423 310.707 44.6198 311.234 42.972C311.771 41.3274 312.544 39.76 313.655 38.3022C314.776 36.8482 316.132 35.4705 318.253 34.3423C319.302 36.5037 319.586 38.4157 319.635 40.2514C319.673 42.0833 319.375 43.8056 318.839 45.4506C318.294 47.0925 317.52 48.6597 316.408 50.1171C315.285 51.5703 313.932 52.9489 311.82 54.0803Z" fill="white"/>
<path d="M224.127 323.15C223.088 320.992 222.807 319.081 222.755 317.244C222.716 315.412 223.014 313.69 223.541 312.042C224.077 310.397 224.851 308.83 225.961 307.372C227.083 305.918 228.439 304.54 230.56 303.412C231.609 305.574 231.892 307.486 231.942 309.321C231.98 311.153 231.681 312.875 231.146 314.52C230.601 316.162 229.827 317.73 228.715 319.187C227.591 320.64 226.238 322.019 224.127 323.15Z" fill="white"/>
<path d="M395.856 219.376C398.014 218.337 399.925 218.056 401.762 218.004C403.594 217.965 405.316 218.263 406.964 218.79C408.609 219.327 410.176 220.101 411.634 221.211C413.088 222.332 414.466 223.688 415.594 225.809C413.433 226.858 411.521 227.142 409.685 227.191C407.853 227.229 406.131 226.931 404.486 226.395C402.844 225.85 401.277 225.076 399.819 223.965C398.366 222.841 396.987 221.488 395.856 219.376Z" fill="white"/>
<path d="M126.786 131.683C128.944 130.644 130.855 130.363 132.692 130.311C134.524 130.272 136.247 130.57 137.894 131.097C139.539 131.633 141.106 132.407 142.564 133.517C144.018 134.639 145.396 135.995 146.524 138.116C144.363 139.165 142.451 139.448 140.615 139.498C138.783 139.536 137.061 139.237 135.416 138.702C133.774 138.157 132.207 137.383 130.749 136.271C129.296 135.147 127.917 133.794 126.786 131.683Z" fill="white"/>
<path d="M388.072 119.324C388.863 117.063 390.016 115.513 391.278 114.178C392.546 112.855 393.975 111.848 395.512 111.055C397.055 110.271 398.71 109.71 400.526 109.464C402.347 109.229 404.28 109.214 406.578 109.916C405.791 112.186 404.64 113.739 403.377 115.072C402.108 116.394 400.679 117.401 399.137 118.185C397.591 118.961 395.935 119.521 394.119 119.766C392.297 119.999 390.365 120.017 388.072 119.324Z" fill="white"/>
<path d="M135.802 247.577C136.594 245.316 137.746 243.766 139.008 242.43C140.276 241.107 141.705 240.1 143.243 239.307C144.785 238.524 146.441 237.963 148.256 237.717C150.078 237.482 152.01 237.466 154.308 238.168C153.521 240.438 152.37 241.991 151.107 243.324C149.838 244.646 148.41 245.653 146.868 246.438C145.321 247.213 143.666 247.774 141.849 248.019C140.027 248.251 138.095 248.27 135.802 247.577Z" fill="white"/>
<path d="M330.612 295.628C332.873 296.419 334.423 297.572 335.758 298.834C337.081 300.102 338.089 301.53 338.881 303.068C339.665 304.611 340.226 306.266 340.472 308.082C340.707 309.903 340.722 311.836 340.02 314.134C337.75 313.347 336.198 312.196 334.865 310.933C333.543 309.664 332.535 308.235 331.751 306.693C330.976 305.147 330.415 303.491 330.17 301.675C329.937 299.852 329.919 297.921 330.612 295.628Z" fill="white"/>
<path d="M202.36 43.3584C204.621 44.1496 206.17 45.3024 207.506 46.5643C208.829 47.8323 209.836 49.261 210.629 50.7987C211.412 52.3411 211.973 53.9966 212.219 55.8123C212.454 57.6336 212.47 59.5664 211.768 61.8641C209.498 61.0774 207.945 59.926 206.612 58.663C205.29 57.3944 204.283 55.9656 203.499 54.4237C202.723 52.8772 202.162 51.2216 201.918 49.4053C201.685 47.5829 201.667 45.6514 202.36 43.3584Z" fill="white"/>
<path d="M237.737 114.242L231.573 119.354C225.518 124.376 222.03 131.848 222.059 139.714C222.072 143.272 222.351 146.445 222.934 149.174C216.3 160.144 208.286 158.792 210.812 172.568C180.57 194.173 187.182 205.882 208.809 244.952C222.812 253.509 239.076 256.033 257.808 251.974C262.912 250.868 267.359 247.724 270.052 243.25C275.986 233.395 280.679 222.826 281.378 209.957C285.643 207.439 289.747 205.382 293.033 205.661C297.889 188.696 306.526 174.968 321.275 166.473C307.123 136.907 286.479 124.215 258.455 130.708C252.893 123.037 245.992 117.539 237.737 114.242Z" stroke="white" stroke-width="3" stroke-miterlimit="10" stroke-linecap="round" stroke-linejoin="round"/>
<path d="M185.251 198.48L201.145 205.485L198.316 214.165L185.862 210.966" fill="#B0F3CC"/>
<path d="M329.09 178.429C337.493 177.177 345.577 177.134 353.183 178.909C352.325 169.37 349.939 159.582 346.089 149.555C349.833 152.034 353.561 154.675 357.259 157.617C358.307 158.45 359.786 157.37 359.304 156.121C344.372 117.394 329.002 91.5282 312.519 98.4295C308.157 79.3531 275.671 79.5981 217.722 100.238C216.743 100.587 216.749 101.969 217.73 102.314C221.186 103.528 224.228 105.058 226.646 107.064C216.051 116.226 216.19 123.875 223.692 130.488L223.696 130.503C225.281 126.208 227.967 122.345 231.573 119.354L237.737 114.242C245.992 117.539 252.893 123.037 258.455 130.708C286.479 124.215 307.123 136.907 321.275 166.473C306.526 174.968 297.889 188.696 293.033 205.66C289.747 205.382 285.643 207.439 281.378 209.957C280.679 222.826 275.986 233.395 270.052 243.25C267.645 247.248 263.837 250.179 259.412 251.547C266.926 253.424 275.11 252.905 285.769 243.526C287.629 244.294 287.959 246.424 287.506 249.25C287.194 251.195 289.352 252.56 290.973 251.439C296.438 247.659 301.59 243.34 306.188 238.07C307.087 240.142 306.42 244.778 305.232 250.266C304.818 252.176 306.919 253.68 308.564 252.626C315.209 248.373 321.391 240.455 326.897 227.169C318.439 217.171 315.916 203.137 329.09 178.429Z" fill="white"/>
<path d="M264.859 155.88C264.678 155.223 264.829 154.821 265.059 154.499C265.295 154.18 265.538 153.865 265.791 153.554C266.304 152.939 266.891 152.382 267.545 151.914C268.204 151.452 268.902 151.039 269.655 150.743C270.415 150.465 271.239 150.313 272.142 150.487C272.502 150.557 272.738 150.906 272.668 151.266C272.653 151.347 272.623 151.422 272.582 151.488L272.569 151.508C272.106 152.255 271.599 152.761 271.074 153.219C270.541 153.66 270 154.063 269.472 154.489C268.94 154.908 268.394 155.31 267.83 155.712C267.546 155.912 267.266 156.12 266.988 156.335C266.71 156.551 266.364 156.699 265.698 156.602L265.671 156.598C265.27 156.539 264.96 156.247 264.859 155.88Z" fill="white"/>
<path d="M256.641 173.461C256.064 172.668 256.025 171.999 256.124 171.368C256.223 170.738 256.33 170.106 256.46 169.479C256.716 168.223 257.062 166.981 257.535 165.779C258.017 164.582 258.561 163.399 259.254 162.287C259.967 161.189 260.849 160.163 262.088 159.423C262.484 159.186 262.998 159.316 263.234 159.712C263.319 159.855 263.357 160.012 263.352 160.166L263.351 160.186C263.31 161.573 263.038 162.748 262.701 163.899C262.342 165.036 261.939 166.149 261.553 167.277C261.16 168.402 260.719 169.516 260.251 170.634L259.546 172.319C259.313 172.885 258.958 173.416 258.071 173.825L258.059 173.83C257.55 174.065 256.959 173.898 256.641 173.461Z" fill="white"/>
<path d="M291.516 186.734C291.12 185.806 290.856 184.876 290.64 183.944C290.397 183.016 290.196 182.088 290.034 181.155L289.43 178.384C289.204 177.469 288.937 176.566 288.694 175.657C287.639 172.052 286.233 168.575 284.395 165.355C283.899 164.574 283.44 163.768 282.934 162.993C282.391 162.245 281.897 161.458 281.316 160.737C280.166 159.286 278.928 157.904 277.598 156.603C274.939 153.997 271.944 151.709 268.762 149.536L268.758 149.533C268.503 149.359 268.438 149.012 268.612 148.758C268.758 148.544 269.026 148.464 269.259 148.547C272.97 149.865 276.473 151.889 279.52 154.5C282.565 157.113 285.149 160.286 287.173 163.76C289.208 167.236 290.61 171.034 291.561 174.886C291.768 175.857 291.997 176.822 292.183 177.794C292.342 178.77 292.519 179.742 292.661 180.718C292.775 181.697 292.872 182.679 292.887 183.666C292.874 184.654 292.812 185.646 292.619 186.64C292.558 186.951 292.256 187.155 291.944 187.094C291.751 187.057 291.599 186.926 291.526 186.759L291.516 186.734Z" fill="white"/>
<path d="M255.463 164.668C256.947 164.22 258.45 164.238 259.904 164.456C261.361 164.679 262.809 164.962 264.234 165.331C267.082 166.075 269.846 167.105 272.477 168.376C275.105 169.651 277.634 171.104 280.03 172.733C282.416 174.378 284.67 176.202 286.668 178.315C286.882 178.54 286.872 178.896 286.646 179.109C286.471 179.275 286.214 179.304 286.01 179.204C283.423 177.93 280.98 176.517 278.525 175.151C276.081 173.771 273.626 172.439 271.105 171.27C268.586 170.101 266.031 169.032 263.406 168.182C262.098 167.741 260.767 167.381 259.423 167.074C258.751 166.919 258.078 166.778 257.41 166.556C256.739 166.354 256.066 166.139 255.388 165.772L255.353 165.753C255.066 165.598 254.959 165.239 255.115 164.952C255.192 164.81 255.32 164.712 255.463 164.668Z" fill="white"/>
<path d="M261.063 178.012C261.66 178.085 262.168 178.255 262.645 178.464C263.126 178.666 263.588 178.885 264.016 179.156C264.893 179.661 265.782 180.136 266.691 180.563C268.498 181.434 270.357 182.151 272.25 182.737C274.144 183.327 276.089 183.72 278.069 183.982C280.05 184.262 282.059 184.414 284.168 184.645C284.481 184.676 284.708 184.956 284.676 185.268C284.654 185.487 284.507 185.665 284.316 185.741C282.271 186.536 280.067 186.846 277.866 186.823C275.663 186.784 273.46 186.415 271.337 185.807C269.21 185.197 267.184 184.285 265.293 183.182C264.352 182.622 263.443 182.017 262.559 181.385C261.681 180.747 260.888 179.977 260.386 178.888C260.242 178.575 260.379 178.204 260.692 178.06C260.8 178.01 260.915 177.994 261.026 178.007L261.063 178.012Z" fill="white"/>
<path d="M265.916 167.42C264.358 172.224 266.233 177.138 270.109 178.402C273.451 179.491 277.184 177.508 279.159 173.867C274.741 171.127 270.327 168.927 265.916 167.42Z" fill="white"/>
<path d="M265.352 143.528C267.332 143.519 269.242 143.994 271.029 144.709C271.929 145.056 272.82 145.424 273.689 145.837C274.574 146.222 275.432 146.654 276.286 147.095C279.696 148.87 282.921 150.958 285.957 153.263C287.488 154.4 288.953 155.619 290.397 156.853C291.845 158.083 293.259 159.351 294.618 160.672C297.344 163.306 299.894 166.111 302.179 169.142C302.365 169.388 302.316 169.738 302.07 169.924C301.864 170.079 301.584 170.068 301.39 169.918C298.405 167.602 295.559 165.183 292.71 162.787C289.869 160.385 287.006 158.025 284.036 155.826C281.068 153.627 278.034 151.532 274.859 149.698C274.068 149.234 273.273 148.777 272.456 148.368C271.651 147.93 270.826 147.537 269.994 147.162C268.337 146.378 266.677 145.669 265.058 144.595L265.038 144.581C264.773 144.406 264.701 144.049 264.876 143.785C264.986 143.62 265.169 143.53 265.352 143.528Z" fill="white"/>
<path d="M227.619 129.571C228.813 129.357 229.91 129.57 230.942 129.92C231.975 130.274 232.999 130.657 234.006 131.075C236.014 131.925 237.958 132.912 239.808 134.04C241.656 135.171 243.446 136.383 245.141 137.712C246.826 139.055 248.415 140.516 249.781 142.228C249.977 142.473 249.937 142.831 249.691 143.027C249.519 143.165 249.289 143.185 249.101 143.1C247.119 142.206 245.304 141.133 243.51 140.047C241.727 138.946 239.965 137.834 238.168 136.791C236.374 135.747 234.582 134.714 232.748 133.764C231.836 133.278 230.908 132.826 229.969 132.398C229.498 132.187 229.035 131.958 228.589 131.67C228.141 131.388 227.701 131.077 227.292 130.628L227.269 130.603C227.038 130.348 227.056 129.955 227.31 129.723C227.4 129.642 227.509 129.591 227.619 129.571Z" fill="white"/>
<path d="M230.944 136.952C232.33 137.312 233.475 138.069 234.489 138.956C235.494 139.857 236.463 140.803 237.372 141.811C239.173 143.836 240.726 146.095 241.949 148.511C243.171 150.927 244.127 153.468 244.775 156.069C245.405 158.674 245.728 161.343 245.588 164.011C245.571 164.322 245.306 164.561 244.995 164.544C244.76 164.532 244.565 164.372 244.491 164.163C243.625 161.687 242.891 159.255 242.044 156.879C241.215 154.5 240.269 152.182 239.104 149.983C237.944 147.785 236.626 145.676 235.095 143.716C234.337 142.729 233.515 141.791 232.653 140.885C232.211 140.444 231.783 139.985 231.391 139.477C230.981 138.989 230.591 138.47 230.273 137.832L230.257 137.799C230.109 137.503 230.23 137.143 230.526 136.995C230.661 136.928 230.809 136.917 230.944 136.952Z" fill="white"/>
<path d="M223.459 159.81C223.127 158.751 223.193 157.784 223.366 156.839L223.919 154C224.333 152.112 224.79 150.214 225.473 148.353C226.172 146.505 226.976 144.641 228.183 142.938C228.818 142.103 229.523 141.301 230.409 140.664C231.252 139.998 232.327 139.579 233.363 139.407C233.669 139.356 233.96 139.563 234.011 139.87C234.045 140.076 233.962 140.275 233.811 140.398L233.761 140.439C232.35 141.587 231.422 142.925 230.588 144.464C229.77 146.001 229.085 147.679 228.506 149.423C227.913 151.162 227.342 152.944 226.792 154.748L225.955 157.465C225.679 158.374 225.307 159.266 224.536 160.064C224.29 160.32 223.883 160.327 223.627 160.081C223.547 160.004 223.491 159.908 223.459 159.81Z" fill="white"/>
<path d="M221.885 152.971C223.21 152.498 224.542 152.474 225.845 152.607C227.148 152.752 228.449 152.937 229.741 153.177C232.32 153.676 234.859 154.397 237.3 155.355C239.74 156.315 242.108 157.445 244.352 158.773C246.587 160.115 248.699 161.657 250.546 163.514C250.766 163.735 250.765 164.092 250.544 164.312C250.378 164.477 250.132 164.516 249.929 164.432C247.54 163.445 245.284 162.339 243.014 161.287C240.754 160.22 238.482 159.21 236.156 158.347C233.833 157.481 231.484 156.699 229.087 156.073C227.891 155.75 226.681 155.478 225.462 155.242C224.851 155.136 224.243 155.003 223.637 154.812C223.03 154.636 222.423 154.425 221.814 154.075L221.787 154.06C221.499 153.894 221.399 153.526 221.565 153.238C221.639 153.109 221.755 153.017 221.885 152.971Z" fill="white"/>
<path d="M229.845 154.727C228.7 159.165 229.669 163.222 232.185 164.042C234.511 164.8 237.679 161.673 239.438 157.963C236.261 156.563 233.064 155.483 229.845 154.727Z" fill="white"/>
<path d="M227.18 166.021C227.646 165.923 228.043 165.936 228.417 165.992C228.799 166.028 229.145 166.13 229.481 166.255C230.16 166.487 230.842 166.693 231.528 166.876C232.896 167.255 234.276 167.516 235.657 167.74C237.039 167.978 238.437 168.074 239.853 168.135C241.272 168.212 242.706 168.246 244.25 168.432L244.259 168.433C244.578 168.471 244.806 168.762 244.768 169.082C244.746 169.267 244.636 169.423 244.488 169.512C243.102 170.341 241.551 170.778 239.973 170.981C238.392 171.17 236.781 171.115 235.194 170.922C233.606 170.715 232.058 170.267 230.583 169.69C229.85 169.384 229.132 169.055 228.429 168.701C227.733 168.339 227.086 167.855 226.668 167.002C226.501 166.662 226.641 166.251 226.982 166.085C227.033 166.06 227.085 166.042 227.138 166.03L227.18 166.021Z" fill="white"/>
<path d="M220.413 181.439C219.331 180.488 218.764 178.688 219.244 177.099C219.461 176.302 219.895 175.542 220.509 174.944C221.115 174.342 221.978 173.939 222.513 173.715C224.95 172.647 227.537 171.826 230.224 171.419C231.566 171.21 232.931 171.119 234.296 171.137C234.978 171.144 235.662 171.177 236.342 171.245L236.857 171.294C237.061 171.322 237.266 171.35 237.468 171.395C237.872 171.48 238.271 171.597 238.654 171.755C239.424 172.063 240.137 172.514 240.754 173.075C241.059 173.359 241.34 173.67 241.59 174.004C241.832 174.326 242.076 174.743 242.209 174.985L244.111 178.333L242.733 177.523C245.354 177.534 247.975 177.599 250.596 177.645C252.142 177.636 253.818 178.125 255.132 179.037C255.803 179.485 256.387 180.054 256.884 180.682C257.013 180.836 257.121 181.006 257.238 181.168L257.525 181.611C257.712 181.905 257.888 182.204 258.062 182.504C258.757 183.705 259.315 184.965 259.812 186.233L259.995 186.716C260.066 186.916 260.134 187.116 260.18 187.323C260.278 187.734 260.332 188.154 260.338 188.574C260.342 189.412 260.17 190.244 259.817 190.991C259.498 191.735 258.863 192.416 258.451 192.827C258.001 193.305 257.543 193.776 257.079 194.241C256.152 195.174 255.242 196.121 254.287 197.03C254.064 197.242 253.712 197.233 253.5 197.01C253.317 196.817 253.299 196.527 253.442 196.315C254.18 195.223 254.963 194.168 255.729 193.1C256.111 192.564 256.499 192.034 256.895 191.511C257.341 190.937 257.567 190.6 257.728 190.113C257.893 189.654 257.938 189.161 257.89 188.691C257.863 188.456 257.807 188.226 257.731 188.006C257.694 187.895 257.649 187.788 257.603 187.682L257.408 187.257C256.879 186.113 256.266 185.022 255.614 183.973L255.105 183.202C254.921 182.933 254.763 182.715 254.604 182.532C254.273 182.146 253.886 181.811 253.461 181.54C252.599 180.987 251.645 180.71 250.57 180.736C247.948 180.738 245.327 180.759 242.706 180.726L242.7 180.726C242.111 180.719 241.6 180.392 241.327 179.916L239.423 176.57C239.244 176.252 239.16 176.117 239.02 175.922C238.886 175.742 238.732 175.578 238.572 175.421C238.246 175.112 237.865 174.855 237.447 174.677C237.239 174.584 237.021 174.515 236.799 174.463C236.688 174.434 236.575 174.418 236.462 174.398L236.02 174.346C235.425 174.272 234.825 174.23 234.226 174.21C233.025 174.168 231.82 174.224 230.618 174.355C228.213 174.622 225.833 175.269 223.535 176.171C222.886 176.429 222.547 176.54 222.206 176.82C221.858 177.075 221.584 177.435 221.374 177.844C220.956 178.683 220.89 179.697 221.327 180.815C221.441 181.107 221.297 181.437 221.005 181.551C220.801 181.63 220.579 181.584 220.424 181.449L220.413 181.439Z" fill="white"/>
<path d="M239.426 187.711C245.301 183.781 251.452 184.92 252.221 189.628C249.277 190.72 247.082 189.69 245.4 187.204C244.313 186.508 242.005 186.98 239.426 187.711Z" fill="white"/>
<path d="M233.798 183.623C232.874 176.717 229.82 175.347 225.534 177.175C225.634 179.71 227.356 180.729 230.912 180.031L231.859 182.503C232.12 183.183 232.775 183.63 233.503 183.625L233.798 183.623Z" fill="white"/>
<path d="M232.934 188.054C233.144 189.013 232.962 189.832 232.663 190.595C232.361 191.356 232.045 192.116 231.703 192.866C231.001 194.356 230.21 195.818 229.253 197.177C228.285 198.525 227.237 199.83 226.031 200.984C224.817 202.126 223.448 203.126 221.864 203.756C221.566 203.875 221.229 203.729 221.111 203.432C221.039 203.253 221.064 203.059 221.159 202.907L221.166 202.897C222.054 201.513 222.995 200.3 223.917 199.074C224.85 197.861 225.766 196.645 226.599 195.361C227.442 194.087 228.288 192.806 229.079 191.477C229.487 190.821 229.874 190.147 230.251 189.467C230.63 188.786 231.08 188.14 231.912 187.631L231.924 187.623C232.241 187.429 232.656 187.529 232.85 187.846C232.89 187.911 232.918 187.983 232.934 188.054Z" fill="white"/>
<path d="M217.626 204.302C216.786 204.431 216.069 204.689 215.34 205.017C214.994 205.185 214.753 205.334 214.519 205.549C214.276 205.735 214.097 205.982 213.937 206.232C213.621 206.735 213.495 207.365 213.598 207.932C213.636 208.219 213.74 208.491 213.884 208.737C213.949 208.865 214.04 208.979 214.13 209.093C214.217 209.21 214.38 209.38 214.507 209.516C215.057 210.083 215.671 210.597 216.346 211.046C216.683 211.271 217.035 211.48 217.398 211.675L217.672 211.819C217.799 211.89 217.976 211.987 218.119 212.083C218.413 212.287 218.694 212.517 218.931 212.791C219.915 213.856 220.284 215.471 219.823 216.886C219.393 218.291 218.185 219.419 216.755 219.755C216.405 219.842 216.022 219.882 215.679 219.877L214.993 219.87L213.619 219.839L212.298 219.809C212.018 219.806 211.74 219.857 211.475 219.951C210.401 220.313 209.664 221.504 209.816 222.681C209.864 222.978 209.919 223.239 210.074 223.546C210.24 223.881 210.419 224.211 210.646 224.498C211.078 225.09 211.627 225.597 212.299 225.981C213.627 226.794 215.368 227.114 217.146 227.268L217.155 227.269C217.463 227.296 217.69 227.567 217.663 227.874C217.641 228.126 217.454 228.325 217.217 228.373C215.363 228.746 213.317 228.805 211.32 228.017C210.34 227.615 209.389 227 208.655 226.177C208.275 225.777 207.962 225.326 207.677 224.866C207.369 224.383 207.121 223.765 207.008 223.161C206.773 221.938 206.968 220.631 207.574 219.527C208.181 218.422 209.184 217.535 210.367 217.071C210.956 216.837 211.588 216.702 212.225 216.684L213.651 216.672L215.024 216.669L215.711 216.675C215.827 216.675 215.902 216.665 215.996 216.643C216.355 216.557 216.659 216.276 216.766 215.921C216.869 215.584 216.796 215.182 216.551 214.88C216.494 214.801 216.417 214.74 216.341 214.677L216.2 214.585L215.872 214.4C215.436 214.147 215.008 213.874 214.593 213.577C213.764 212.983 212.975 212.299 212.301 211.503C212.127 211.294 211.979 211.126 211.801 210.87C211.618 210.615 211.448 210.353 211.315 210.066C211.035 209.503 210.853 208.886 210.801 208.262C210.671 207.015 211.015 205.745 211.731 204.741C212.421 203.725 213.598 203.016 214.711 202.843C215.735 202.662 216.895 202.708 217.855 203.22C218.135 203.369 218.241 203.717 218.091 203.997C218.003 204.163 217.846 204.268 217.674 204.295L217.626 204.302Z" fill="white"/>
<path d="M179.091 195.765C181.854 201.252 179.242 204.666 174.548 207.278C170.699 204.004 172.276 196.488 179.091 195.765Z" stroke="white" stroke-width="3" stroke-miterlimit="10" stroke-linecap="round" stroke-linejoin="round"/>
<path d="M179.091 195.765L214.059 211.176" stroke="white" stroke-width="3" stroke-miterlimit="10" stroke-linecap="round" stroke-linejoin="round"/>
<path d="M174.549 207.278L212.395 218.244" stroke="white" stroke-width="4" stroke-miterlimit="10" stroke-linecap="round" stroke-linejoin="round"/>
<path d="M222.133 142.593C209.766 130.008 199.223 154.258 206.499 175.779" stroke="white" stroke-width="3" stroke-miterlimit="10" stroke-linecap="round" stroke-linejoin="round"/>
<path d="M209.63 156.938C209.072 155.969 209.056 155.096 209.204 154.258C209.356 153.419 209.52 152.578 209.736 151.727C210.207 150.032 210.727 148.305 212.217 146.566C212.627 146.137 213.093 145.704 213.747 145.366C214.396 145.03 215.214 144.82 215.993 144.87C217.589 144.992 218.603 145.765 219.338 146.461C220.777 147.929 221.493 149.556 221.842 151.327C221.926 151.755 221.647 152.171 221.218 152.256C221.004 152.298 220.792 152.249 220.623 152.135L220.595 152.116C219.171 151.149 217.989 150.052 216.921 149.4C216.404 149.074 215.942 148.936 215.877 149.004C215.838 149.034 215.842 149.035 215.769 149.084C215.7 149.138 215.56 149.268 215.407 149.431C214.761 150.198 214.081 151.599 213.491 152.979C213.182 153.679 212.906 154.415 212.638 155.157C212.366 155.901 211.987 156.624 211.072 157.252L211.057 157.262C210.603 157.573 209.983 157.458 209.672 157.004C209.657 156.983 209.643 156.96 209.63 156.938Z" fill="white"/>
<path d="M353.355 178.383C354.256 178.51 355.139 178.695 356.022 178.878C356.474 178.988 356.861 179.046 357.409 179.22C357.916 179.395 358.405 179.637 358.859 179.939C359.763 180.547 360.517 181.416 360.984 182.438C361.096 182.683 361.203 182.98 361.272 183.204L361.474 183.863C361.607 184.303 361.751 184.741 361.861 185.187C362.811 188.741 363.399 192.385 363.66 196.047C363.927 199.709 363.837 203.385 363.533 207.027C363.378 208.848 363.156 210.662 362.865 212.463C362.731 213.367 362.56 214.258 362.404 215.161L362.087 216.578L361.676 217.972C360.47 221.659 358.186 224.968 355.235 227.459C353.759 228.706 352.115 229.75 350.363 230.555C349.496 230.958 348.559 231.288 347.681 231.568C346.808 231.842 345.929 232.095 345.049 232.338C341.521 233.289 337.935 233.949 334.337 234.39C330.743 234.858 327.13 235.08 323.524 235.129C323.218 235.133 322.967 234.888 322.962 234.582C322.959 234.302 323.165 234.068 323.434 234.026C326.974 233.476 330.494 232.894 333.977 232.197C337.454 231.47 340.896 230.638 344.26 229.601C345.101 229.341 345.938 229.074 346.767 228.786C347.589 228.497 348.335 228.202 349.088 227.834C350.584 227.12 351.98 226.203 353.226 225.117C355.729 222.949 357.592 220.089 358.636 216.963L358.986 215.777L359.254 214.569C359.403 213.706 359.569 212.835 359.698 211.965C359.971 210.224 360.191 208.478 360.38 206.731C360.74 203.234 360.851 199.718 360.697 196.221C360.547 192.722 360.086 189.242 359.28 185.84L358.964 184.569L358.807 183.932C358.754 183.724 358.714 183.597 358.651 183.43C358.423 182.797 358.022 182.215 357.494 181.745C356.967 181.251 356.354 180.985 355.459 180.606C354.637 180.234 353.815 179.863 353.012 179.435C352.738 179.289 352.634 178.949 352.78 178.675C352.894 178.461 353.128 178.351 353.355 178.383Z" fill="white"/>
<path d="M352.588 185.272C351.065 185.595 349.617 185.527 348.183 185.377C346.751 185.229 345.32 185.102 343.894 185.01C341.046 184.814 338.208 184.725 335.469 184.926C332.758 185.146 330.05 185.712 328.205 187.235C326.313 188.689 325.454 191.275 325.151 194.125C325.118 194.434 324.841 194.657 324.533 194.624C324.291 194.598 324.1 194.42 324.046 194.196C323.694 192.719 323.587 191.134 323.91 189.524C324.24 187.933 325.032 186.3 326.296 185.121C326.906 184.507 327.617 184.039 328.335 183.607C329.071 183.223 329.826 182.886 330.591 182.645C332.121 182.146 333.666 181.855 335.197 181.735C338.258 181.465 341.252 181.688 344.187 182.056C345.653 182.255 347.108 182.487 348.555 182.741C350 183.001 351.425 183.383 352.77 184.18C353.052 184.347 353.145 184.711 352.978 184.993C352.89 185.141 352.744 185.238 352.588 185.272Z" fill="white"/>
<path d="M329.388 197.367C331.716 195.086 334.441 193.229 337.469 191.852C337.855 191.681 338.216 191.517 338.635 191.362C339.076 191.227 339.502 191.03 339.963 190.957C340.418 190.856 340.874 190.764 341.342 190.743C341.806 190.685 342.273 190.704 342.74 190.725C344.613 190.814 346.421 191.53 347.94 192.62C349.467 193.714 350.628 195.31 351.294 197.084C351.464 197.526 351.566 197.992 351.69 198.449C351.755 198.902 351.847 199.413 351.876 199.824C351.939 200.643 351.996 201.464 352.019 202.29C352.139 205.586 351.865 208.947 351.004 212.229C350.573 213.866 349.984 215.48 349.198 217.008C348.796 217.767 348.367 218.513 347.883 219.226C347.446 219.885 346.799 220.773 345.976 221.382C344.358 222.644 342.196 223.131 340.203 222.685C339.209 222.467 338.264 222.016 337.469 221.393C336.716 220.784 336.124 220.175 335.557 219.475C333.345 216.696 332.174 213.304 332.116 209.832C332.114 208.96 332.19 208.078 332.422 207.186C332.666 206.313 333.04 205.34 333.996 204.634C334.479 204.283 335.128 204.146 335.684 204.195C336.247 204.253 336.719 204.459 337.117 204.7C337.924 205.184 338.499 205.825 339.038 206.463C339.235 206.697 339.206 207.046 338.972 207.244C338.761 207.422 338.455 207.415 338.252 207.239L338.232 207.221C337.658 206.723 337.046 206.266 336.442 205.996C336.142 205.858 335.842 205.794 335.607 205.805C335.374 205.833 335.206 205.891 335.055 206.041C334.75 206.344 334.512 206.958 334.405 207.619C334.297 208.289 334.304 209.015 334.373 209.735C334.648 212.63 335.873 215.513 337.738 217.642C338.188 218.172 338.742 218.686 339.242 219.062C339.714 219.406 340.255 219.635 340.821 219.745C341.953 219.982 343.191 219.675 344.077 218.95C344.534 218.591 344.838 218.169 345.277 217.499C345.679 216.884 346.035 216.239 346.368 215.583C347.012 214.256 347.525 212.858 347.908 211.411C348.686 208.513 348.887 205.443 348.853 202.368C348.846 201.598 348.807 200.826 348.762 200.053C348.741 199.668 348.68 199.393 348.649 199.055C348.562 198.744 348.507 198.422 348.394 198.119C347.96 196.906 347.192 195.794 346.149 194.988C341.63 191.102 335.717 195.933 330.014 198.279L329.995 198.287C329.708 198.405 329.38 198.269 329.262 197.982C329.172 197.764 329.23 197.522 329.388 197.367Z" fill="white"/>
<path d="M325.695 198.406C326.458 199.237 326.818 200.174 327.056 201.134C327.29 202.095 327.513 203.061 327.713 204.033C328.091 205.98 328.391 207.954 328.506 209.948C328.605 211.94 328.624 213.948 328.428 215.944C328.217 217.937 327.8 219.926 326.965 221.787C326.835 222.075 326.497 222.204 326.209 222.075C326.015 221.987 325.893 221.805 325.874 221.607L325.874 221.601C325.689 219.625 325.647 217.733 325.581 215.837C325.53 213.945 325.465 212.057 325.297 210.168C325.145 208.28 324.995 206.385 324.779 204.487C324.686 203.536 324.569 202.585 324.441 201.635C324.314 200.683 324.269 199.717 324.615 198.649L324.617 198.64C324.726 198.305 325.086 198.121 325.421 198.23C325.529 198.265 325.623 198.328 325.695 198.406Z" fill="white"/>
<path d="M286.141 92.229C284.624 92.5282 283.123 92.8827 281.744 93.453C280.381 94.0266 279.143 94.9045 278.636 96.1005C278.177 97.3112 278.388 98.7196 278.925 100.04C279.443 101.373 280.212 102.649 281.045 103.879C281.337 104.309 281.224 104.895 280.794 105.186C280.538 105.359 280.228 105.39 279.957 105.296L279.932 105.287L265.496 100.186C263.09 99.3761 260.676 98.5337 258.247 97.9694C257.642 97.8268 257.029 97.7384 256.458 97.7128C256.166 97.6893 255.907 97.7485 255.765 97.8088C255.711 97.8391 255.692 97.8623 255.666 97.9222C255.669 98.0061 255.659 98.1074 255.717 98.2395C255.893 98.7497 256.287 99.2824 256.672 99.7724C257.074 100.263 257.494 100.748 257.931 101.22C256.902 100.44 255.837 99.735 255.094 98.4884C255.001 98.3314 254.948 98.117 254.932 97.8792C254.932 97.7601 254.981 97.6159 255.024 97.489C255.077 97.3667 255.182 97.2765 255.272 97.178C255.661 96.8909 256.06 96.8188 256.402 96.7849C257.109 96.7097 257.778 96.7617 258.431 96.8366C259.744 96.9798 261.018 97.2367 262.277 97.5357C263.536 97.8313 264.787 98.1503 266.022 98.5148C268.499 99.2217 270.94 100.022 273.364 100.864C275.791 101.695 278.188 102.607 280.583 103.514L279.47 104.922C278.643 103.566 277.861 102.159 277.345 100.59C276.859 99.0491 276.632 97.1769 277.458 95.5355C278.363 93.9378 279.979 93.1234 281.491 92.7237C283.031 92.3059 284.598 92.221 286.141 92.229Z" fill="white" fill-opacity="0.2"/>
<path d="M272.239 109.978C270.411 110.197 268.587 110.124 266.786 109.939C264.984 109.751 263.195 109.447 261.439 109.006C259.681 108.576 257.953 108.02 256.273 107.337C254.588 106.672 252.957 105.851 251.429 104.834C253.256 105.074 254.995 105.471 256.737 105.847C258.472 106.243 260.2 106.634 261.918 107.065C265.356 107.945 268.779 108.793 272.239 109.978Z" fill="white" fill-opacity="0.2"/>
<path d="M320.378 112.48C324.825 116.545 329.119 120.768 333.317 125.105C335.385 127.308 337.443 129.505 339.277 131.988C339.722 132.637 340.179 133.23 340.489 134.145C340.536 134.394 340.67 134.684 340.443 135.204C340.336 135.458 340.028 135.666 339.824 135.718C339.609 135.784 339.432 135.786 339.295 135.777C338.731 135.733 338.366 135.578 337.979 135.432C336.493 134.811 335.203 134.027 333.894 133.245C328.716 130.079 323.848 126.525 318.842 123.225C317.593 122.408 316.341 121.58 315.081 120.859C314.768 120.679 314.453 120.512 314.152 120.371C314.001 120.299 313.856 120.241 313.736 120.2C313.691 120.186 313.616 120.164 313.629 120.171C313.629 120.171 313.618 120.169 313.697 120.17C313.735 120.167 313.73 120.163 313.802 120.149C313.884 120.131 313.966 120.094 314.033 120.043C314.48 119.691 314.358 119.382 314.383 119.413C314.381 119.383 314.383 119.426 314.405 119.48C314.435 119.581 314.503 119.734 314.569 119.877C314.71 120.174 314.884 120.488 315.064 120.799C316.561 123.302 318.336 125.762 320.052 128.217C321.775 130.681 323.511 133.144 325.21 135.643C326.059 136.894 326.899 138.153 327.711 139.441C328.515 140.743 329.325 142.017 329.974 143.521C330.127 143.922 330.294 144.279 330.361 144.88C330.378 145.023 330.379 145.217 330.337 145.44C330.277 145.684 330.165 146.007 329.802 146.253C329.713 146.312 329.614 146.364 329.521 146.399C329.45 146.419 329.376 146.436 329.301 146.448C329.132 146.477 329.025 146.469 328.934 146.459C328.711 146.442 328.601 146.396 328.45 146.357C327.498 146 326.923 145.555 326.258 145.113C324.989 144.22 323.808 143.273 322.63 142.319C320.281 140.412 317.999 138.45 315.706 136.504C313.415 134.557 311.108 132.635 308.766 130.766C306.419 128.922 304.039 127.056 301.452 125.687C300.809 125.359 300.134 125.061 299.491 124.967C299.174 124.926 298.882 124.955 298.716 125.092C298.633 125.132 298.525 125.309 298.425 125.417C298.351 125.552 298.255 125.682 298.211 125.832C297.984 126.416 298.095 127.121 298.37 127.771C298.639 128.427 299.043 129.047 299.491 129.63C300.398 130.798 301.482 131.841 302.609 132.826C303.736 133.815 304.919 134.748 306.151 135.612C303.594 134.031 301.106 132.27 299.08 129.964C298.584 129.38 298.122 128.751 297.781 128.029C297.442 127.323 297.221 126.448 297.496 125.588C297.645 125.157 297.835 124.81 298.207 124.459C298.631 124.102 299.158 124.074 299.576 124.103C300.434 124.189 301.166 124.49 301.878 124.804C304.674 126.149 307.117 127.949 309.565 129.727C311.996 131.527 314.349 133.416 316.7 135.3L323.725 140.951C324.901 141.873 326.086 142.791 327.29 143.611C327.872 144.002 328.548 144.43 329.016 144.587C329.047 144.592 329.115 144.613 329.082 144.602C329.085 144.605 329.071 144.602 328.995 144.608C328.967 144.613 328.939 144.622 328.914 144.634C328.862 144.648 328.803 144.673 328.754 144.708C328.558 144.861 328.518 144.989 328.505 145.056C328.492 145.094 328.502 145.099 328.494 145.055C328.483 144.904 328.359 144.555 328.231 144.261C327.662 143.009 326.869 141.722 326.08 140.474C325.28 139.221 324.444 137.98 323.596 136.745C321.899 134.274 320.151 131.828 318.416 129.365C316.7 126.879 314.954 124.446 313.373 121.774C313.178 121.433 312.987 121.088 312.807 120.705C312.717 120.505 312.629 120.315 312.549 120.057C312.51 119.933 312.469 119.79 312.448 119.575C312.452 119.423 312.349 118.9 312.951 118.433C313.061 118.363 313.187 118.307 313.312 118.271C313.427 118.241 313.471 118.244 313.556 118.235C313.729 118.222 313.813 118.239 313.905 118.251C314.105 118.28 314.209 118.32 314.343 118.36C314.579 118.441 314.782 118.528 314.971 118.618C315.35 118.798 315.698 118.988 316.037 119.183C317.385 119.965 318.643 120.803 319.895 121.657C324.879 125.075 329.719 128.656 334.718 131.927C335.968 132.721 337.247 133.531 338.528 134.102C338.835 134.238 339.185 134.356 339.373 134.37C339.422 134.38 339.439 134.367 339.402 134.381C339.373 134.379 339.244 134.478 339.208 134.555C339.152 134.73 339.2 134.621 339.159 134.513C339.004 133.992 338.598 133.322 338.204 132.73C336.548 130.303 334.558 128.024 332.597 125.762C328.661 121.222 324.507 116.863 320.378 112.48Z" fill="white" fill-opacity="0.2"/>
<path d="M287.99 220.93C289.074 219.045 290.446 217.38 292.069 215.889C292.483 215.521 292.907 215.159 293.389 214.822C293.627 214.653 293.887 214.491 294.177 214.34C294.474 214.197 294.789 214.038 295.31 214.006C295.576 214.003 295.913 214.039 296.229 214.25C296.382 214.349 296.499 214.465 296.615 214.615C296.721 214.773 296.839 215.022 296.846 215.136C296.955 215.733 296.851 216.032 296.791 216.354C296.644 216.972 296.443 217.489 296.237 218.007C295.4 220.038 294.416 221.915 293.596 223.819C293.391 224.292 293.203 224.765 293.042 225.222C292.96 225.45 292.888 225.675 292.837 225.88C292.783 226.08 292.758 226.294 292.766 226.329C292.764 226.34 292.764 226.354 292.755 226.295C292.75 226.275 292.74 226.257 292.727 226.241C292.715 226.215 292.691 226.155 292.659 226.12C292.533 225.965 292.3 225.863 292.21 225.879C292.032 225.894 292.207 225.87 292.336 225.779C292.65 225.579 293.021 225.249 293.369 224.907C294.774 223.482 296.11 221.817 297.497 220.198C298.201 219.384 298.893 218.57 299.745 217.775C299.969 217.575 300.187 217.382 300.491 217.184C300.632 217.088 300.811 216.985 301.05 216.895C301.205 216.854 301.272 216.804 301.515 216.795C301.729 216.78 301.933 216.806 302.125 216.888C302.512 217.045 302.692 217.268 302.839 217.443C302.969 217.617 303.069 217.784 303.14 217.931C303.296 218.234 303.397 218.504 303.496 218.77C304.198 220.848 304.731 222.776 305.877 224.386C306.44 225.183 307.157 225.835 307.983 226.346C308.821 226.841 309.787 227.137 310.798 227.294C311 227.323 311.141 227.51 311.112 227.713C311.086 227.893 310.93 228.024 310.754 228.03C309.649 228.056 308.513 227.847 307.451 227.393C306.385 226.935 305.462 226.174 304.714 225.303C303.197 223.558 302.453 221.34 301.722 219.45C301.63 219.223 301.534 218.998 301.44 218.834C301.374 218.661 301.182 218.558 301.425 218.711C301.494 218.731 301.568 218.751 301.648 218.749C301.755 218.724 301.702 218.752 301.729 218.74C301.724 218.748 301.664 218.77 301.591 218.83C301.451 218.923 301.275 219.088 301.107 219.244C300.417 219.908 299.739 220.719 299.072 221.522C297.719 223.139 296.453 224.839 294.868 226.427C294.458 226.825 294.044 227.218 293.465 227.593C293.14 227.762 292.827 228.007 292.113 228.013C291.908 227.985 291.749 227.99 291.522 227.871C291.304 227.766 291.112 227.63 290.977 227.438C290.816 227.237 290.754 227.07 290.709 226.912C290.649 226.728 290.643 226.609 290.634 226.487C290.609 225.993 290.69 225.679 290.762 225.366C290.84 225.056 290.931 224.776 291.028 224.505C291.226 223.964 291.449 223.458 291.678 222.964C292.589 220.994 293.624 219.132 294.45 217.26C294.65 216.798 294.84 216.325 294.948 215.913C295.01 215.724 295.014 215.486 295.02 215.559C295.025 215.536 295.046 215.678 295.103 215.715C295.138 215.765 295.163 215.777 295.204 215.808C295.301 215.862 295.361 215.867 295.365 215.86C295.353 215.85 295.163 215.895 294.988 215.985C294.806 216.075 294.609 216.186 294.412 216.32C294.017 216.58 293.623 216.896 293.237 217.223C291.687 218.551 290.195 220.034 288.558 221.4L288.554 221.404C288.395 221.536 288.159 221.515 288.027 221.356C287.923 221.233 287.914 221.062 287.99 220.93Z" fill="white" fill-opacity="0.2"/>
<path fill-rule="evenodd" clip-rule="evenodd" d="M304.648 494.106C360.689 476.636 410.824 406.177 357.034 316.547C353.44 340.839 322.601 361.434 308.922 332.793C291.759 296.857 360.033 253.686 260.125 206.899C293.265 245.888 236.092 305.382 231.342 253.607C231.342 253.607 199.205 277.672 210.14 307.344C224.276 340.757 187.958 369.76 171.241 330.658C119.258 412.77 148.886 465.809 199.466 488.289" fill="white" fill-opacity="0.2"/>
<path d="M304.416 493.361C320.919 486.51 335.666 476.309 347.287 463.356C353.091 456.897 358.201 449.854 362.341 442.295C362.903 441.375 363.333 440.383 363.826 439.427L365.286 436.548C366.188 434.596 367.011 432.608 367.878 430.642C368.6 428.618 369.372 426.612 370.06 424.579C370.649 422.514 371.326 420.475 371.85 418.395C376.124 401.758 376.198 384.147 372.551 367.233C370.797 358.753 368.14 350.452 364.989 342.313C361.737 334.202 357.805 326.351 353.604 318.606L360.991 317.133L360.989 317.144C360.58 319.728 359.927 322.25 359.07 324.689C358.179 327.114 357.074 329.442 355.804 331.671C353.208 336.093 349.91 340.098 345.892 343.393C341.901 346.682 337.104 349.299 331.631 350.339C328.904 350.853 325.991 350.86 323.168 350.279C320.342 349.705 317.647 348.512 315.322 346.917C314.759 346.499 314.15 346.119 313.635 345.657L312.084 344.274C311.154 343.283 310.172 342.308 309.406 341.224C307.724 339.121 306.496 336.829 305.324 334.54C303.022 329.75 301.979 324.374 302.006 319.242C302.01 314.088 302.905 309.171 304.018 304.477C305.142 299.778 306.503 295.264 307.758 290.812C309.005 286.364 310.203 281.973 310.959 277.6C311.722 273.231 312.083 268.878 311.812 264.62C311.392 256.077 307.891 248.065 302.433 241.284C297.031 234.443 289.989 228.701 282.424 223.735C274.835 218.763 266.707 214.499 258.428 210.522L263.173 204.309C264.722 206.177 266.187 208.127 267.479 210.204C268.757 212.289 269.897 214.465 270.859 216.725C272.734 221.261 273.923 226.099 274.262 230.981C274.633 235.861 274.236 240.766 273.174 245.491C272.117 250.22 270.439 254.791 268.153 259.065C265.855 263.33 263.012 267.346 259.36 270.799C257.527 272.517 255.492 274.099 253.152 275.392C250.797 276.649 248.101 277.67 245.023 277.799C243.494 277.85 241.898 277.685 240.362 277.208C238.832 276.72 237.409 275.958 236.163 275.033C233.733 273.126 232.055 270.724 230.916 268.344C228.619 263.536 227.847 258.699 227.359 253.973L233.739 256.809C233.29 257.155 232.696 257.637 232.175 258.085C231.638 258.541 231.103 259.012 230.577 259.493C229.524 260.457 228.485 261.445 227.49 262.476C225.481 264.521 223.606 266.692 221.876 268.953C218.423 273.473 215.574 278.409 213.806 283.617C212.009 288.815 211.427 294.288 212.259 299.584C212.429 300.914 212.782 302.216 213.098 303.521L213.702 305.378L213.85 305.843L214.059 306.401L214.486 307.529C215.095 308.998 215.532 310.617 215.992 312.209C216.217 313.007 216.349 313.835 216.529 314.647L216.779 315.871L216.941 317.114C217.431 320.419 217.441 323.814 217.032 327.165C216.624 330.516 215.78 333.84 214.431 336.993C213.062 340.136 211.21 343.112 208.823 345.707C206.44 348.293 203.499 350.51 200.063 351.917C196.632 353.309 192.69 353.774 188.968 353.082C185.235 352.414 181.854 350.665 179.09 348.469C178.428 347.895 177.677 347.379 177.099 346.743L175.284 344.888C174.223 343.569 173.098 342.273 172.225 340.865C170.311 338.115 168.909 335.177 167.567 332.238L167.563 332.23L174.621 332.798L171.824 337.822L170.403 340.316L169.071 342.854L166.379 347.908C165.554 349.626 164.713 351.333 163.863 353.036C160.617 359.908 157.502 366.842 155.127 374.001C152.671 381.127 150.756 388.407 149.516 395.774C148.33 403.145 147.838 410.616 148.387 418.025C148.95 425.426 150.482 432.756 153.08 439.749C155.724 446.72 159.438 453.32 164.007 459.346L164.856 460.485L165.766 461.575L167.587 463.763C168.834 465.193 170.149 466.573 171.46 467.958C174.178 470.632 176.999 473.233 180.016 475.618C186.023 480.425 192.577 484.621 199.466 488.289C192.141 485.6 185.053 482.126 178.417 477.838C171.779 473.562 165.584 468.45 160.261 462.447C154.941 456.459 150.349 449.688 147.029 442.265C145.415 438.542 143.945 434.731 142.891 430.795L142.101 427.84C141.868 426.849 141.697 425.845 141.493 424.846C141.305 423.845 141.083 422.847 140.925 421.841L140.529 418.812C139.52 410.725 139.623 402.52 140.696 394.492C141.713 386.448 143.691 378.59 146.208 370.965C151.379 355.743 158.932 341.565 167.861 328.518L167.958 328.377C169.201 326.561 171.68 326.097 173.496 327.34C174.155 327.79 174.633 328.4 174.92 329.085L174.923 329.093C176.093 331.638 177.302 334.179 178.855 336.388C179.569 337.557 180.45 338.531 181.266 339.576L182.622 340.956C183.053 341.451 183.583 341.77 184.051 342.193C186.003 343.741 188.162 344.809 190.383 345.208C192.602 345.615 194.889 345.367 197.06 344.502C201.423 342.718 205.027 338.6 207.084 333.827C208.112 331.421 208.77 328.835 209.091 326.198C209.412 323.56 209.417 320.857 209.013 318.187L208.888 317.184L208.679 316.19C208.529 315.53 208.433 314.859 208.245 314.205C207.857 312.899 207.525 311.594 206.97 310.269L206.595 309.279L206.407 308.776L206.204 308.165L205.404 305.715C204.997 304.088 204.574 302.468 204.352 300.798C203.843 297.479 203.754 294.089 204.083 290.758C204.406 287.424 205.176 284.169 206.228 281.052C208.351 274.81 211.653 269.162 215.521 264.093C217.462 261.558 219.544 259.151 221.767 256.886C222.87 255.745 224.02 254.65 225.194 253.574C225.783 253.037 226.381 252.51 226.995 251.989C227.621 251.455 228.196 250.98 228.944 250.406C230.685 249.07 233.179 249.397 234.515 251.138C234.982 251.746 235.245 252.445 235.317 253.155L235.325 253.242C235.731 257.393 236.498 261.536 238.103 264.831C238.881 266.488 239.918 267.792 241.006 268.665C241.566 269.065 242.135 269.367 242.738 269.569C243.345 269.755 244.002 269.822 244.707 269.806C246.122 269.76 247.744 269.215 249.323 268.368C250.903 267.493 252.441 266.322 253.871 264.979C256.738 262.279 259.158 258.905 261.097 255.295C264.947 248.042 266.911 239.679 266.284 231.578C266.006 227.524 265.02 223.558 263.483 219.821C262.688 217.961 261.746 216.164 260.686 214.43C259.612 212.704 258.382 211.07 257.077 209.49L257.016 209.416C255.612 207.717 255.852 205.201 257.551 203.798C258.789 202.775 260.463 202.627 261.821 203.277C270.365 207.381 278.802 211.799 286.837 217.062C294.839 222.33 302.51 228.497 308.709 236.323C311.886 240.146 314.437 244.594 316.415 249.27C318.423 253.958 319.481 259.065 319.796 264.108C320.118 269.165 319.679 274.175 318.836 278.994C317.997 283.824 316.726 288.452 315.456 292.987C314.178 297.517 312.848 301.946 311.801 306.326C310.759 310.7 310.004 315.04 310.006 319.236C309.995 323.43 310.802 327.438 312.541 331.087C313.501 332.941 314.484 334.792 315.736 336.332C316.309 337.165 317.015 337.822 317.665 338.542L318.727 339.487C319.075 339.811 319.477 340.033 319.844 340.317C322.872 342.407 326.483 343.169 330.215 342.465C333.933 341.761 337.638 339.849 340.819 337.207C347.214 331.938 351.853 324.086 353.076 315.97L353.077 315.962L353.079 315.948C353.419 313.762 355.466 312.265 357.652 312.605C358.863 312.793 359.871 313.52 360.464 314.489L364.025 320.372C364.61 321.359 365.233 322.324 365.774 323.337L367.39 326.383L369.005 329.431C369.548 330.445 370.092 331.46 370.55 332.519L373.433 338.807C377.064 347.299 379.959 356.144 381.989 365.228C386.038 383.383 385.894 402.723 380.844 420.815C375.867 438.921 365.894 455.541 352.55 468.447C349.266 471.729 345.675 474.678 341.997 477.473C340.134 478.841 338.226 480.145 336.325 481.445L333.371 483.246C332.387 483.844 331.414 484.456 330.387 484.981C322.349 489.451 313.743 492.846 304.881 494.851C304.459 494.947 304.039 494.682 303.944 494.26C303.859 493.883 304.062 493.508 304.407 493.364L304.416 493.361Z" fill="white"/>
<path fill-rule="evenodd" clip-rule="evenodd" d="M191.048 442.459C190.974 430.372 193.643 419.287 198.85 411.765C201.282 408.252 206.498 408.414 208.729 412.057C212.032 417.449 217.953 423.073 226.782 417.055C241.388 407.085 213.498 380.525 230.762 357.279C237.353 348.408 243.241 342.369 248.002 338.293C252.027 334.846 258.236 337.832 258.08 343.129C257.674 356.899 263.097 379.568 295.843 400.452C308.788 408.702 316.162 419.595 319.071 431.344C325.993 459.301 306.194 486.836 277.603 490.314C260.798 492.358 244.925 492.177 230.159 489.353C207.656 485.051 191.189 465.369 191.048 442.459Z" fill="white"/>
</svg>
