<svg width="48" height="48" viewBox="0 0 48 48" fill="none" xmlns="http://www.w3.org/2000/svg">
<path opacity="0.4" d="M15.8015 45.0391C21.5411 45.0391 26.1939 40.3863 26.1939 34.6468C26.1939 28.9072 21.5411 24.2544 15.8015 24.2544C10.062 24.2544 5.40918 28.9072 5.40918 34.6468C5.40918 40.3863 10.062 45.0391 15.8015 45.0391Z" fill="#46A83E"/>
<path d="M12.2721 39.7555C10.9245 39.7555 9.7269 38.7874 9.48493 37.4154L5.4388 14.4686C5.16771 12.931 6.19809 11.4595 7.73568 11.1884L23.3518 8.43483C24.0966 8.30359 24.8481 8.47012 25.4677 8.9039C26.0872 9.33772 26.5007 9.98683 26.6321 10.7317L30.6782 33.6784C30.8095 34.4233 30.643 35.1747 30.2091 35.7942C29.7754 36.4138 29.1262 36.8273 28.3814 36.9586H28.3814L12.7651 39.7122C12.5996 39.7414 12.4347 39.7555 12.2721 39.7555ZM23.848 9.14129C23.7265 9.14129 23.6042 9.15191 23.4821 9.17348L7.86591 11.9271C6.7356 12.1263 5.97814 13.208 6.17745 14.3384L10.2235 37.2851C10.4229 38.4155 11.5049 39.1727 12.6349 38.9736L28.2511 36.22C28.2512 36.22 28.2512 36.22 28.2512 36.22C28.7987 36.1235 29.2759 35.8195 29.5948 35.3641C29.9137 34.9086 30.0361 34.3562 29.9396 33.8087L25.8934 10.8619C25.7969 10.3144 25.4929 9.83719 25.0375 9.51826C24.6836 9.27048 24.2712 9.14129 23.848 9.14129Z" fill="white"/>
<path d="M21.5566 22.2996L17.5178 19.4525C17.3379 19.3265 17.0757 19.3727 16.9498 19.5526L14.0885 23.639C13.3326 24.7184 13.6023 26.2478 14.6817 27.0036C15.2214 27.3815 15.8755 27.5139 16.4873 27.4061C16.9243 27.329 17.3599 27.117 17.7108 26.8074L17.1836 28.9278C17.1271 29.118 17.2928 29.2915 17.4894 29.2568L20.3297 28.756C20.5263 28.7213 20.6227 28.5016 20.5045 28.3422L19.2839 26.53C19.7234 26.7228 20.2053 26.773 20.6423 26.696C21.2759 26.5843 21.8452 26.2361 22.2373 25.6488C22.9635 24.5295 22.636 23.0554 21.5566 22.2996Z" fill="white"/>
<path d="M35.7293 39.7552C35.5666 39.7552 35.4019 39.7411 35.2363 39.7119L24.1117 37.7504C23.914 37.7155 23.7788 37.5312 23.805 37.3321C23.8312 37.1331 24.0086 36.9897 24.2095 37.0075L32.6325 37.7444C33.1858 37.7925 33.726 37.6227 34.1519 37.2653C34.5778 36.908 34.8391 36.4061 34.8875 35.8522L36.9183 12.6401C36.9641 12.1172 36.8122 11.6005 36.4906 11.1851C36.3958 11.0626 36.3861 10.8943 36.4662 10.7617C36.5463 10.629 36.6997 10.5594 36.8523 10.5863L40.2658 11.1881H40.2657C41.8033 11.4592 42.8337 12.9307 42.5626 14.4683L38.5165 37.4151C38.2745 38.787 37.0768 39.7552 35.7293 39.7552ZM32.6765 38.499L35.3665 38.9733C36.4972 39.1726 37.5786 38.4152 37.7779 37.2848L41.824 14.3381C42.0233 13.2077 41.2658 12.1261 40.1355 11.9268H40.1355L37.4951 11.4611C37.6433 11.8542 37.7028 12.2783 37.6655 12.7055L35.6347 35.9176C35.5018 37.4364 34.187 38.5736 32.6765 38.499Z" fill="white"/>
<path d="M32.8154 38.5024C32.733 38.5024 32.6501 38.4988 32.5665 38.4915L23.8833 37.7318C23.6897 37.7148 23.541 37.5527 23.541 37.3582C23.541 37.1637 23.6897 37.0015 23.8833 36.9846L30.9969 36.3623C31.5508 36.3139 32.0526 36.0526 32.41 35.6267C32.7674 35.2008 32.9375 34.6611 32.8891 34.1073L30.8583 10.8952C30.8254 10.5197 30.6916 10.1606 30.4714 9.85685C30.3853 9.73797 30.3764 9.57967 30.4488 9.45191C30.5212 9.3241 30.6613 9.25026 30.8077 9.26317L35.0909 9.6379C36.6462 9.77399 37.8009 11.1501 37.6649 12.7054L35.634 35.9175C35.5053 37.3893 34.2661 38.5024 32.8154 38.5024ZM28.2187 37.3582L32.6319 37.7443C33.1852 37.7924 33.7253 37.6226 34.1513 37.2653C34.5772 36.9079 34.8384 36.406 34.8869 35.8521L36.9177 12.6401C37.0177 11.4967 36.1689 10.4851 35.0255 10.3851L31.4317 10.0706C31.5238 10.3132 31.5826 10.5686 31.6054 10.8298L33.6362 34.0419C33.7021 34.7954 33.4707 35.5294 32.9845 36.1088C32.4984 36.6881 31.8157 37.0435 31.0623 37.1094L28.2187 37.3582Z" fill="white"/>
<path d="M23.9909 37.727C23.8046 37.7271 23.6442 37.5889 23.6195 37.4009C23.5933 37.2019 23.7284 37.0176 23.9261 36.9827L28.2518 36.22C28.7993 36.1235 29.2765 35.8195 29.5954 35.364C29.9143 34.9086 30.0367 34.3562 29.9402 33.8087L25.894 10.8619C25.771 10.1638 25.3066 9.58191 24.6518 9.30533C24.4931 9.23831 24.4005 9.07173 24.4274 8.90158C24.4541 8.73139 24.5935 8.60133 24.7651 8.58632L28.5387 8.25614C29.2918 8.19022 30.0262 8.42166 30.6056 8.90785C31.1849 9.394 31.5403 10.0767 31.6062 10.8301L33.637 34.0422C33.7029 34.7957 33.4715 35.5297 32.9853 36.1091C32.4992 36.6884 31.8165 37.0438 31.0631 37.1098L24.0239 37.7256C24.0129 37.7265 24.0018 37.727 23.9909 37.727ZM25.8687 9.24262C26.262 9.64385 26.5317 10.159 26.6327 10.7317L30.6788 33.6785C30.8101 34.4232 30.6436 35.1747 30.2097 35.7942C30.0166 36.07 29.7807 36.3051 29.5127 36.4925L30.9977 36.3626C31.5516 36.3142 32.0534 36.0529 32.4108 35.627C32.7682 35.2011 32.9383 34.6615 32.8899 34.1076L30.8591 10.8955C30.8106 10.3416 30.5494 9.83977 30.1235 9.48235C29.6976 9.12502 29.1583 8.95528 28.6041 9.0033L25.8687 9.24262Z" fill="white"/>
<path d="M24.1768 12.3018C24.4978 13.1977 24.7452 14.1071 24.9704 15.0204C25.1927 15.9344 25.3861 16.8535 25.5547 17.7772C25.7235 18.7009 25.8664 19.6293 25.9806 20.5629C26.0919 21.497 26.1806 22.4353 26.195 23.387C25.8731 22.4912 25.6254 21.582 25.4004 20.6685C25.1781 19.7546 24.9847 18.8354 24.8171 17.9115C24.6493 16.9877 24.5063 16.0593 24.3922 15.1257C24.2811 14.1916 24.1921 13.2534 24.1768 12.3018Z" fill="#A0A0A0"/>
<path d="M35.2215 17.1562C35.3436 17.8806 35.3911 18.6016 35.4159 19.3215C35.4378 20.0412 35.4304 20.7596 35.3977 21.4769C35.3653 22.1941 35.3066 22.9102 35.2187 23.6249C35.128 24.3395 35.0142 25.053 34.825 25.763C34.7019 25.0386 34.6542 24.3176 34.6296 23.5977C34.6077 22.878 34.6151 22.1596 34.6488 21.4424C34.6823 20.7252 34.7409 20.0091 34.8289 19.2944C34.9198 18.5799 35.0333 17.8663 35.2215 17.1562Z" fill="#A0A0A0"/>
</svg>
