<svg width="50" height="50" viewBox="0 0 50 50" fill="none" xmlns="http://www.w3.org/2000/svg">
<path opacity="0.4" d="M15.5402 26.0702C21.5189 26.0702 26.3656 21.2235 26.3656 15.2448C26.3656 9.26612 21.5189 4.41943 15.5402 4.41943C9.56153 4.41943 4.71484 9.26612 4.71484 15.2448C4.71484 21.2235 9.56153 26.0702 15.5402 26.0702Z" fill="#46A83E"/>
<path d="M15.8484 24.4786H7.87497C7.73497 24.4786 7.60575 24.4037 7.53613 24.2822C7.46651 24.1608 7.46718 24.0114 7.53784 23.8906L11.4972 17.1269C11.5673 17.0071 11.6956 16.9336 11.8343 16.9336H17.8281C17.9511 16.9336 18.067 16.9916 18.1407 17.09C18.2144 17.1884 18.2375 17.3159 18.203 17.434L16.2232 24.1977C16.1745 24.3641 16.0218 24.4786 15.8484 24.4786ZM8.55627 23.6973H15.5557L17.3067 17.7148H12.0583L8.55627 23.6973Z" fill="white"/>
<path d="M23.821 24.4786H15.8476C15.7246 24.4786 15.6088 24.4206 15.535 24.3222C15.4613 24.2238 15.4382 24.0963 15.4727 23.9782L17.4525 17.2145C17.5012 17.048 17.6539 16.9336 17.8274 16.9336H23.821C24.0367 16.9336 24.2116 17.1085 24.2116 17.3242V24.088C24.2116 24.3037 24.0367 24.4786 23.821 24.4786ZM16.369 23.6973H23.4304V17.7148H18.12L16.369 23.6973Z" fill="white"/>
<path d="M31.7957 24.4786H23.8223C23.6065 24.4786 23.4316 24.3037 23.4316 24.088V17.3242C23.4316 17.1085 23.6065 16.9336 23.8223 16.9336H29.816C29.9895 16.9336 30.1422 17.048 30.1909 17.2145L32.1706 23.9782C32.2051 24.0963 32.1821 24.2238 32.1084 24.3222C32.0346 24.4206 31.9188 24.4786 31.7957 24.4786ZM24.2129 23.6973H31.2744L29.5233 17.7148H24.2129V23.6973Z" fill="white"/>
<path d="M39.7695 24.4786H31.7961C31.6226 24.4786 31.47 24.3641 31.4212 24.1977L29.4415 17.434C29.407 17.3159 29.43 17.1884 29.5038 17.09C29.5775 16.9916 29.6934 16.9336 29.8164 16.9336H35.8101C35.9489 16.9336 36.0772 17.0071 36.1473 17.1269L40.1066 23.8906C40.1773 24.0114 40.178 24.1608 40.1083 24.2822C40.0387 24.4037 39.9095 24.4786 39.7695 24.4786ZM32.0888 23.6973H39.0882L35.5862 17.7148H30.3378L32.0888 23.6973Z" fill="white"/>
<path d="M11.8616 31.6364C9.44799 31.6364 7.48438 29.6728 7.48438 27.2591V24.0879C7.48438 23.8722 7.65928 23.6973 7.875 23.6973H15.8484C16.0641 23.6973 16.239 23.8722 16.239 24.0879V27.2591C16.239 29.6728 14.2753 31.6364 11.8616 31.6364ZM8.26562 24.4785V27.2591C8.26562 29.242 9.87877 30.8552 11.8616 30.8552C13.8445 30.8552 15.4578 29.242 15.4578 27.2591V24.4785H8.26562Z" fill="white"/>
<path d="M19.8344 31.6364C17.4207 31.6364 15.457 29.6728 15.457 27.2591V24.0879C15.457 23.8722 15.6319 23.6973 15.8477 23.6973H23.821C24.0368 23.6973 24.2117 23.8722 24.2117 24.0879V27.2591C24.2117 29.6728 22.2481 31.6364 19.8344 31.6364ZM16.2383 24.4785V27.2591C16.2383 29.242 17.8515 30.8552 19.8344 30.8552C21.8173 30.8552 23.4304 29.242 23.4304 27.2591V24.4785H16.2383Z" fill="white"/>
<path d="M27.809 31.6364C25.3954 31.6364 23.4316 29.6728 23.4316 27.2591V24.0879C23.4316 23.8722 23.6065 23.6973 23.8223 23.6973H31.7957C32.0115 23.6973 32.1864 23.8722 32.1864 24.0879V27.2591C32.1864 29.6728 30.2227 31.6364 27.809 31.6364ZM24.2129 24.4785V27.2591C24.2129 29.242 25.8261 30.8552 27.809 30.8552C29.7919 30.8552 31.4051 29.242 31.4051 27.2591V24.4785H24.2129Z" fill="white"/>
<path d="M35.7816 31.6364C33.3679 31.6364 31.4043 29.6728 31.4043 27.2591V24.0879C31.4043 23.8722 31.5792 23.6973 31.7949 23.6973H39.7683C39.984 23.6973 40.1589 23.8722 40.1589 24.0879V27.2591C40.1589 29.6728 38.1952 31.6364 35.7816 31.6364ZM32.1855 24.4785V27.2591C32.1855 29.242 33.7987 30.8552 35.7816 30.8552C37.7644 30.8552 39.3777 29.242 39.3777 27.2591V24.4785H32.1855Z" fill="white"/>
<path d="M35.7816 17.715C35.5659 17.715 35.391 17.5401 35.391 17.3243V13.1426H28.7363C28.5206 13.1426 28.3457 12.9677 28.3457 12.752C28.3457 12.5362 28.5206 12.3613 28.7363 12.3613H35.7816C35.9973 12.3613 36.1722 12.5362 36.1722 12.752V17.3243C36.1722 17.5401 35.9973 17.715 35.7816 17.715Z" fill="white"/>
<path d="M11.834 17.715C11.6183 17.715 11.4434 17.5401 11.4434 17.3243V12.752C11.4434 12.5362 11.6183 12.3613 11.834 12.3613H18.8793C19.095 12.3613 19.2699 12.5362 19.2699 12.752C19.2699 12.9677 19.095 13.1426 18.8793 13.1426H12.2246V17.3243C12.2246 17.5401 12.0497 17.715 11.834 17.715Z" fill="white"/>
<path d="M38.284 47.9937H9.36133C9.14561 47.9937 8.9707 47.8188 8.9707 47.603V30.4604C8.9707 30.2447 9.14561 30.0698 9.36133 30.0698C9.57705 30.0698 9.75195 30.2447 9.75195 30.4604V47.2124H37.8934V30.4604C37.8934 30.2447 38.0683 30.0698 38.284 30.0698C38.4997 30.0698 38.6746 30.2447 38.6746 30.4604V47.603C38.6746 47.8188 38.4997 47.9937 38.284 47.9937Z" fill="white"/>
<path d="M20.0117 47.6027H12.3574V35.8683C12.3574 35.3243 12.7984 34.8833 13.3424 34.8833H19.0267C19.5707 34.8833 20.0117 35.3243 20.0117 35.8683V47.6027Z" fill="white"/>
<path d="M34.3021 43.2676H23.6412C23.0972 43.2676 22.6562 42.8266 22.6562 42.2826V35.8683C22.6562 35.3243 23.0972 34.8833 23.6412 34.8833H34.3021C34.8461 34.8833 35.2871 35.3243 35.2871 35.8683V42.2826C35.2871 42.8266 34.8461 43.2676 34.3021 43.2676Z" fill="white"/>
<path d="M24.168 41.7981C24.7138 41.2058 25.3052 40.6766 25.9103 40.1666C26.5172 39.659 27.142 39.1764 27.7821 38.7149C28.4221 38.2534 29.0781 37.8141 29.7519 37.3995C30.4275 36.9872 31.117 36.5945 31.8525 36.2656C31.3073 36.8588 30.7161 37.3881 30.1108 37.898C29.5039 38.4055 28.8791 38.8883 28.2384 39.3488C27.5978 39.8095 26.9418 40.2489 26.268 40.6634C25.5923 41.0754 24.9029 41.4684 24.168 41.7981Z" fill="white"/>
<path d="M28.6113 41.6092C28.8984 41.2015 29.233 40.8599 29.5796 40.5349C29.9285 40.2131 30.2953 39.9162 30.6775 39.6405C31.0595 39.3647 31.4575 39.1111 31.8733 38.8823C32.2913 38.6564 32.7217 38.4478 33.2 38.3057C32.9135 38.7142 32.579 39.0561 32.2323 39.3808C31.8833 39.7026 31.5166 39.9996 31.1338 40.2744C30.7512 40.5493 30.3532 40.803 29.9373 41.0317C29.5192 41.2574 29.0891 41.4664 28.6113 41.6092Z" fill="white"/>
<path d="M13.25 42.2713C13.5371 41.8636 13.8717 41.522 14.2183 41.197C14.5672 40.8752 14.934 40.5783 15.3162 40.3026C15.6982 40.0268 16.0962 39.7732 16.512 39.5444C16.93 39.3186 17.3603 39.1099 17.8386 38.9678C17.5521 39.3763 17.2177 39.7182 16.8709 40.0429C16.522 40.3647 16.1552 40.6617 15.7725 40.9365C15.3898 41.2114 14.9919 41.4651 14.576 41.6939C14.1579 41.9195 13.7277 42.1285 13.25 42.2713Z" fill="white"/>
<path d="M14.9824 43.5188C15.1759 43.1784 15.4169 42.9042 15.6699 42.6467C15.9253 42.3924 16.1982 42.1624 16.4869 41.9544C16.7753 41.7459 17.0798 41.5599 17.4019 41.3984C17.7263 41.2399 18.0631 41.0986 18.4477 41.0239C18.2549 41.365 18.014 41.6395 17.7609 41.8969C17.5055 42.1512 17.2324 42.3809 16.9433 42.5883C16.6544 42.7961 16.3497 42.9819 16.0276 43.1435C15.703 43.3017 15.3665 43.4433 14.9824 43.5188Z" fill="white"/>
<path d="M27.2028 15.0246C26.93 15.0246 26.6556 15.0012 26.3818 14.9543C25.3676 14.7805 24.4537 14.2984 23.7389 13.5599C23.6523 13.4705 23.6135 13.345 23.6345 13.2222C23.6555 13.0995 23.7339 12.9941 23.8454 12.9386C24.7651 12.4804 25.7874 12.33 26.8018 12.5038C27.8158 12.6776 28.7297 13.1598 29.4446 13.8982C29.5312 13.9876 29.57 14.1132 29.5489 14.2359C29.528 14.3586 29.4497 14.464 29.3382 14.5195C28.6666 14.8541 27.9405 15.0246 27.2028 15.0246ZM24.7435 13.4123C25.2591 13.8086 25.8617 14.0725 26.5138 14.1843C27.166 14.2962 27.8221 14.248 28.44 14.0458C27.9245 13.6495 27.3218 13.3856 26.6698 13.2738C26.0176 13.1622 25.3615 13.2102 24.7435 13.4123Z" fill="white"/>
<path d="M20.4285 15.0473C19.7174 15.0473 19.016 14.8887 18.3628 14.5766C18.2504 14.5228 18.1704 14.4188 18.1474 14.2964C18.1243 14.174 18.161 14.0479 18.2462 13.957C18.949 13.207 19.8548 12.7101 20.8661 12.5198C21.8771 12.3294 22.9017 12.4632 23.8291 12.9063C23.9415 12.9601 24.0216 13.0642 24.0445 13.1865C24.0676 13.309 24.0309 13.4351 23.9457 13.5259C23.243 14.2759 22.3371 14.7729 21.3258 14.9631C21.0269 15.0194 20.7268 15.0473 20.4285 15.0473ZM19.2531 14.0882C19.8745 14.2803 20.531 14.3178 21.1814 14.1954C21.8315 14.0731 22.4298 13.7994 22.9388 13.3946C22.3174 13.2027 21.6609 13.1653 21.0105 13.2875C20.3604 13.4099 19.7622 13.6836 19.2531 14.0882Z" fill="white"/>
<path d="M22.3267 8.87014C22.1309 8.87014 21.962 8.72328 21.9391 8.52415C21.902 8.20181 21.8819 7.87441 21.8792 7.55112C21.8634 5.60658 22.4547 3.74557 23.589 2.16925C23.6617 2.06816 23.7784 2.00788 23.9029 2.00684C24.0273 2.01065 24.145 2.06425 24.2193 2.16419C25.3793 3.72192 26.0007 5.57301 26.0165 7.51745C26.0191 7.84075 26.0042 8.16843 25.9725 8.49125C25.9514 8.70592 25.761 8.86375 25.5455 8.84172C25.3308 8.82065 25.1739 8.62944 25.195 8.41476C25.224 8.11932 25.2377 7.81948 25.2353 7.52365C25.2223 5.93388 24.7666 4.41238 23.9117 3.09002C23.0786 4.42602 22.6475 5.95476 22.6605 7.54482C22.6628 7.84046 22.6813 8.13992 22.7152 8.43489C22.7399 8.64918 22.5861 8.84296 22.3718 8.86757C22.3566 8.86929 22.3416 8.87014 22.3267 8.87014Z" fill="white"/>
<path d="M24.0038 13.7644C23.9286 13.7644 23.854 13.7427 23.7895 13.7004C23.6853 13.6321 23.62 13.5181 23.6136 13.3936C23.5302 11.7505 23.9641 10.1542 24.8684 8.77738C25.7728 7.40047 27.0654 6.36821 28.6064 5.79219C28.7229 5.7488 28.8535 5.7633 28.9576 5.83158C29.0617 5.89996 29.1269 6.01392 29.1333 6.13828C29.2168 7.78137 28.7828 9.37763 27.8786 10.7545C27.7818 10.9019 27.6756 11.0515 27.5632 11.1992C27.4326 11.3709 27.1874 11.4043 27.0159 11.2735C26.8441 11.143 26.8109 10.8979 26.9416 10.7262C27.043 10.5928 27.1386 10.458 27.2255 10.3257C27.9341 9.24688 28.3212 8.01835 28.359 6.74291C27.2036 7.28422 26.2299 8.12755 25.5215 9.20635C24.7764 10.3406 24.3867 11.6406 24.3848 12.9866C24.4841 13.0536 24.5494 13.1643 24.5564 13.2885C24.5658 13.4557 24.4677 13.6102 24.3123 13.6728C24.2555 13.6958 24.1983 13.7181 24.1408 13.7395C24.0965 13.7562 24.05 13.7644 24.0038 13.7644Z" fill="white"/>
<path d="M23.8554 17.4446C23.7084 17.4446 23.5697 17.3878 23.4645 17.2844C23.3582 17.1798 23.299 17.0401 23.2978 16.8911L23.2689 13.3311C23.2613 13.2986 23.2579 13.2647 23.259 13.2303C23.2645 13.066 23.3718 12.9223 23.5282 12.8715C23.53 12.8708 23.5376 12.8685 23.5395 12.8679C23.5556 12.8629 23.5719 12.859 23.5882 12.8562L23.5645 12.4077C23.4477 11.2758 23.0459 10.1777 22.4023 9.23172C21.6763 8.16475 20.6892 7.33744 19.525 6.81482C19.5836 8.0895 19.9906 9.31154 20.7165 10.3786C20.8255 10.5386 20.9438 10.6976 21.0685 10.8512C21.2044 11.0187 21.1787 11.2648 21.0111 11.4007C20.8439 11.5367 20.5978 11.5109 20.4617 11.3433C20.3234 11.1728 20.1918 10.9961 20.0707 10.8181C19.144 9.45612 18.6843 7.86711 18.741 6.22288C18.7454 6.09833 18.8087 5.98341 18.9117 5.91331C19.0148 5.84331 19.1452 5.82653 19.2623 5.8683C20.8125 6.41924 22.1216 7.43032 23.0482 8.79227C23.7664 9.84779 24.214 11.0739 24.3427 12.3379C24.3434 12.3442 24.3438 12.3505 24.3441 12.3568L24.3828 13.0862C24.383 13.092 24.3832 13.0979 24.3833 13.1037L24.414 16.882C24.4153 17.0311 24.3582 17.1718 24.2536 17.2781C24.149 17.3844 24.0092 17.4435 23.8601 17.4446C23.8585 17.4446 23.857 17.4446 23.8554 17.4446Z" fill="white"/>
<path d="M23.6416 13.6358C23.4765 13.6358 23.3216 13.5317 23.268 13.367C23.2671 13.3646 23.2665 13.3622 23.2657 13.3599C22.5935 12.465 21.6777 11.8081 20.6096 11.4563C19.6834 11.1513 18.7129 11.0987 17.7718 11.299C18.3954 12.003 19.1864 12.5303 20.0875 12.8385C20.2916 12.9084 20.4005 13.1304 20.3307 13.3346C20.2609 13.5387 20.0395 13.6477 19.8346 13.5778C18.5956 13.154 17.5387 12.3676 16.7779 11.3035C16.7055 11.2023 16.6857 11.0725 16.7247 10.9542C16.7636 10.8359 16.8567 10.7433 16.9752 10.7048C18.2441 10.2931 19.5855 10.2964 20.854 10.7144C22.1227 11.1322 23.2034 11.9267 23.9791 13.0119C24.0514 13.1129 24.0713 13.2423 24.0326 13.3604C23.9941 13.4785 23.9016 13.5712 23.7836 13.61L23.7637 13.6164C23.7233 13.6296 23.6822 13.6358 23.6416 13.6358Z" fill="white"/>
<path d="M24.0456 13.6666C24.0084 13.6666 23.9706 13.6613 23.9331 13.65L23.9061 13.6424C23.7867 13.6061 23.6918 13.5151 23.6507 13.3973C23.6096 13.2795 23.6272 13.1492 23.6981 13.0465C24.4562 11.9489 25.5238 11.1369 26.7855 10.6985C28.047 10.2601 29.388 10.2349 30.6636 10.6259C30.7826 10.6624 30.8771 10.7535 30.918 10.8712C30.9589 10.9888 30.9412 11.1189 30.8704 11.2214C30.1274 12.2971 29.0832 13.1005 27.8503 13.5446C27.6476 13.6176 27.4237 13.5125 27.3504 13.3095C27.2774 13.1065 27.3827 12.8827 27.5856 12.8095C28.4822 12.4866 29.2647 11.9466 29.8766 11.2329C28.9327 11.048 27.9633 11.1163 27.0419 11.4364C25.983 11.8044 25.0805 12.473 24.4234 13.3743C24.4222 13.379 24.4209 13.3836 24.4195 13.3881C24.3688 13.5573 24.2135 13.6666 24.0456 13.6666Z" fill="white"/>
</svg>
