<svg width="512" height="512" viewBox="0 0 512 512" fill="none" xmlns="http://www.w3.org/2000/svg">
<path opacity="0.4" d="M148.079 261.143C209.301 261.143 258.931 211.513 258.931 150.291C258.931 89.0691 209.301 39.439 148.079 39.439C86.8569 39.439 37.2268 89.0691 37.2268 150.291C37.2268 211.513 86.8569 261.143 148.079 261.143Z" fill="#46A83E"/>
<path d="M419.188 284.672C423.82 283.001 428.453 282.165 433.085 281.538C437.717 280.951 442.349 280.678 446.981 280.673C451.613 280.667 456.245 280.941 460.877 281.527C465.509 282.151 470.141 282.992 474.773 284.672C470.141 286.353 465.509 287.193 460.877 287.817C456.245 288.404 451.613 288.677 446.981 288.671C442.349 288.666 437.717 288.393 433.085 287.807C428.453 287.18 423.82 286.343 419.188 284.672Z" fill="#DDDDDD"/>
<path d="M415.037 331.097C419.669 329.426 424.301 328.589 428.933 327.962C433.565 327.375 438.197 327.102 442.829 327.098C447.461 327.091 452.093 327.365 456.725 327.951C461.357 328.576 465.989 329.416 470.621 331.097C465.989 332.777 461.357 333.618 456.725 334.242C452.093 334.828 447.461 335.102 442.829 335.095C438.197 335.091 433.565 334.818 428.933 334.231C424.301 333.604 419.669 332.768 415.037 331.097Z" fill="#DDDDDD"/>
<path d="M398.429 377.521C403.062 375.85 407.694 375.014 412.326 374.387C416.958 373.8 421.59 373.527 426.222 373.523C430.854 373.516 435.486 373.79 440.118 374.376C444.75 375 449.382 375.841 454.014 377.521C449.382 379.202 444.75 380.042 440.118 380.667C435.486 381.253 430.854 381.527 426.222 381.52C421.59 381.516 416.958 381.242 412.326 380.656C407.694 380.029 403.062 379.192 398.429 377.521Z" fill="#DDDDDD"/>
<path d="M362.196 423.946C366.828 422.275 371.46 421.438 376.092 420.811C380.724 420.225 385.356 419.951 389.988 419.947C394.62 419.94 399.252 420.214 403.884 420.8C408.516 421.425 413.148 422.265 417.78 423.946C413.148 425.626 408.516 426.467 403.884 427.091C399.252 427.677 394.62 427.951 389.988 427.944C385.356 427.94 380.724 427.667 376.092 427.08C371.46 426.453 366.828 425.617 362.196 423.946Z" fill="#DDDDDD"/>
<path d="M316.149 456.783C320.781 455.112 325.413 454.275 330.045 453.648C334.677 453.061 339.309 452.788 343.941 452.784C348.573 452.777 353.205 453.051 357.837 453.637C362.469 454.262 367.101 455.102 371.733 456.783C367.101 458.463 362.469 459.304 357.837 459.928C353.205 460.514 348.573 460.788 343.941 460.781C339.309 460.777 334.677 460.504 330.045 459.917C325.413 459.29 320.781 458.454 316.149 456.783Z" fill="#DDDDDD"/>
<path d="M419.188 284.564C423.82 282.893 428.453 282.057 433.085 281.43C437.717 280.843 442.349 280.57 446.981 280.566C451.613 280.559 456.245 280.833 460.877 281.419C465.509 282.043 470.141 282.884 474.773 284.564C470.141 286.245 465.509 287.085 460.877 287.71C456.245 288.296 451.613 288.57 446.981 288.563C442.349 288.559 437.717 288.285 433.085 287.699C428.453 287.072 423.82 286.235 419.188 284.564Z" fill="#DDDDDD"/>
<path d="M415.037 238.14C419.669 236.469 424.301 235.632 428.933 235.006C433.565 234.419 438.197 234.146 442.829 234.141C447.461 234.135 452.093 234.409 456.725 234.995C461.357 235.619 465.989 236.459 470.621 238.14C465.989 239.821 461.357 240.661 456.725 241.285C452.093 241.871 447.461 242.145 442.829 242.139C438.197 242.134 433.565 241.861 428.933 241.274C424.301 240.648 419.669 239.811 415.037 238.14Z" fill="#DDDDDD"/>
<path d="M398.429 191.715C403.062 190.044 407.694 189.208 412.326 188.581C416.958 187.994 421.59 187.721 426.222 187.716C430.854 187.71 435.486 187.984 440.118 188.57C444.75 189.194 449.382 190.035 454.014 191.715C449.382 193.396 444.75 194.236 440.118 194.86C435.486 195.447 430.854 195.72 426.222 195.714C421.59 195.709 416.958 195.436 412.326 194.85C407.694 194.223 403.062 193.386 398.429 191.715Z" fill="#DDDDDD"/>
<path d="M362.196 145.291C366.828 143.62 371.46 142.783 376.092 142.156C380.724 141.57 385.356 141.297 389.988 141.292C394.62 141.286 399.252 141.56 403.884 142.146C408.516 142.77 413.148 143.61 417.78 145.291C413.148 146.972 408.516 147.812 403.884 148.436C399.252 149.022 394.62 149.296 389.988 149.29C385.356 149.285 380.724 149.012 376.092 148.425C371.46 147.798 366.828 146.962 362.196 145.291Z" fill="#DDDDDD"/>
<path d="M316.149 112.454C320.781 110.783 325.413 109.946 330.045 109.32C334.677 108.733 339.309 108.46 343.941 108.455C348.573 108.449 353.205 108.723 357.837 109.309C362.469 109.933 367.101 110.773 371.733 112.454C367.101 114.135 362.469 114.975 357.837 115.599C353.205 116.185 348.573 116.459 343.941 116.453C339.309 116.448 334.677 116.175 330.045 115.588C325.413 114.962 320.781 114.125 316.149 112.454Z" fill="#DDDDDD"/>
<path d="M235.195 472.561C339.091 472.561 423.316 388.336 423.316 284.44C423.316 180.544 339.091 96.3193 235.195 96.3193C131.299 96.3193 47.0745 180.544 47.0745 284.44C47.0745 388.336 131.299 472.561 235.195 472.561Z" stroke="white" stroke-width="8" stroke-miterlimit="10" stroke-linecap="round" stroke-linejoin="round"/>
<path d="M235.195 472.561H280.117C384.013 472.561 468.238 388.336 468.238 284.44C468.238 180.544 384.013 96.3193 280.117 96.3193H235.195" stroke="white" stroke-width="8" stroke-miterlimit="10" stroke-linecap="round" stroke-linejoin="round"/>
<path d="M235.195 426.324C313.556 426.324 377.08 362.801 377.08 284.44C377.08 206.079 313.556 142.556 235.195 142.556C156.835 142.556 93.3108 206.079 93.3108 284.44C93.3108 362.801 156.835 426.324 235.195 426.324Z" stroke="white" stroke-width="8" stroke-miterlimit="10" stroke-linecap="round" stroke-linejoin="round"/>
<path d="M318.607 214.991H182.6C180.127 214.991 177.748 215.941 175.954 217.644L148.712 243.524C145.792 246.298 147.755 251.216 151.783 251.216H287.79C290.264 251.216 292.643 250.266 294.436 248.562L321.678 222.682C324.599 219.908 322.635 214.991 318.607 214.991Z" fill="white"/>
<path d="M318.607 302.553H182.6C180.127 302.553 177.748 301.603 175.954 299.899L148.712 274.019C145.792 271.245 147.755 266.328 151.783 266.328H287.79C290.264 266.328 292.643 267.278 294.436 268.981L321.678 294.861C324.599 297.635 322.635 302.553 318.607 302.553Z" fill="white"/>
<path d="M318.607 317.665H182.6C180.127 317.665 177.748 318.615 175.954 320.319L148.712 346.199C145.792 348.973 147.755 353.89 151.783 353.89H287.79C290.264 353.89 292.643 352.94 294.436 351.237L321.678 325.357C324.599 322.583 322.635 317.665 318.607 317.665Z" fill="white"/>
<path d="M235.195 131.05C233.538 129.027 232.679 127.003 232.061 124.979C231.456 122.955 231.205 120.931 231.196 118.908C231.196 116.884 231.446 114.86 232.05 112.836C232.666 110.812 233.528 108.788 235.195 106.765C236.862 108.788 237.724 110.812 238.34 112.836C238.944 114.86 239.194 116.884 239.195 118.908C239.185 120.931 238.935 122.955 238.33 124.979C237.711 127.003 236.852 129.027 235.195 131.05Z" fill="white"/>
<path d="M235.195 462.115C233.538 460.092 232.679 458.068 232.061 456.044C231.456 454.02 231.205 451.996 231.196 449.973C231.196 447.949 231.446 445.925 232.05 443.901C232.666 441.877 233.528 439.853 235.195 437.83C236.862 439.853 237.724 441.877 238.34 443.901C238.944 445.925 239.194 447.949 239.195 449.973C239.185 451.996 238.935 454.02 238.33 456.044C237.711 458.068 236.852 460.092 235.195 462.115Z" fill="white"/>
<path d="M388.585 284.44C390.609 282.783 392.632 281.924 394.656 281.305C396.68 280.7 398.704 280.45 400.728 280.44C402.751 280.441 404.775 280.691 406.799 281.295C408.823 281.911 410.847 282.773 412.87 284.44C410.847 286.107 408.823 286.969 406.799 287.585C404.775 288.189 402.751 288.439 400.728 288.439C398.704 288.43 396.68 288.179 394.656 287.574C392.632 286.956 390.609 286.097 388.585 284.44Z" fill="white"/>
<path d="M57.52 284.44C59.5438 282.783 61.5676 281.924 63.5914 281.305C65.6153 280.7 67.6391 280.45 69.6629 280.44C71.6867 280.441 73.7106 280.691 75.7344 281.295C77.7582 281.911 79.782 282.773 81.8058 284.44C79.782 286.107 77.7582 286.969 75.7344 287.585C73.7106 288.189 71.6867 288.439 69.6629 288.439C67.6391 288.43 65.6153 288.179 63.5914 287.574C61.5676 286.956 59.5438 286.097 57.52 284.44Z" fill="white"/>
<path d="M343.658 175.977C343.917 173.375 344.741 171.336 345.735 169.468C346.738 167.609 347.992 166.001 349.416 164.563C350.848 163.132 352.456 161.878 354.313 160.874C356.18 159.878 358.221 159.057 360.831 158.805C360.578 161.415 359.757 163.455 358.761 165.322C357.757 167.18 356.503 168.788 355.072 170.219C353.634 171.643 352.026 172.897 350.167 173.901C348.299 174.894 346.261 175.718 343.658 175.977Z" fill="white"/>
<path d="M109.56 410.076C109.819 407.473 110.643 405.434 111.637 403.566C112.64 401.707 113.894 400.099 115.318 398.661C116.75 397.23 118.357 395.976 120.215 394.972C122.082 393.977 124.123 393.155 126.732 392.903C126.48 395.513 125.659 397.553 124.663 399.42C123.659 401.278 122.405 402.886 120.974 404.317C119.536 405.741 117.928 406.995 116.069 407.999C114.201 408.992 112.162 409.816 109.56 410.076Z" fill="white"/>
<path d="M343.658 392.903C346.261 393.162 348.299 393.986 350.167 394.98C352.026 395.983 353.634 397.237 355.072 398.661C356.503 400.093 357.757 401.701 358.761 403.558C359.757 405.425 360.578 407.466 360.831 410.076C358.221 409.823 356.18 409.002 354.313 408.006C352.456 407.002 350.848 405.748 349.416 404.317C347.992 402.879 346.738 401.271 345.735 399.412C344.741 397.544 343.917 395.505 343.658 392.903Z" fill="white"/>
<path d="M109.56 158.805C112.162 159.064 114.201 159.888 116.069 160.882C117.928 161.885 119.536 163.139 120.974 164.563C122.405 165.994 123.659 167.602 124.663 169.46C125.659 171.327 126.48 173.367 126.732 175.977C124.123 175.725 122.082 174.904 120.215 173.908C118.357 172.904 116.75 171.65 115.318 170.219C113.894 168.781 112.64 167.173 111.637 165.314C110.643 163.446 109.819 161.407 109.56 158.805Z" fill="white"/>
</svg>
