<svg width="54" height="54" viewBox="0 0 54 54" fill="none" xmlns="http://www.w3.org/2000/svg">
<path opacity="0.4" d="M33.9541 43.6553C40.4111 43.6553 45.6455 38.4209 45.6455 31.9639C45.6455 25.5069 40.4111 20.2725 33.9541 20.2725C27.4971 20.2725 22.2627 25.5069 22.2627 31.9639C22.2627 38.4209 27.4971 43.6553 33.9541 43.6553Z" fill="#46A83E"/>
<path d="M26.9992 35.7622C22.1679 35.7622 18.2373 31.8316 18.2373 27.0002C18.2373 22.1688 22.1679 18.2383 26.9992 18.2383C31.8306 18.2383 35.7612 22.1688 35.7612 27.0002C35.7612 31.8316 31.8306 35.7622 26.9992 35.7622ZM26.9992 19.082C22.6332 19.082 19.0811 22.6341 19.0811 27.0002C19.0811 31.3663 22.6332 34.9184 26.9992 34.9184C31.3654 34.9184 34.9174 31.3663 34.9174 27.0002C34.9174 22.6341 31.3654 19.082 26.9992 19.082Z" fill="white"/>
<path d="M26.9991 30.1652C28.7471 30.1652 30.1642 28.7481 30.1642 27.0001C30.1642 25.252 28.7471 23.835 26.9991 23.835C25.251 23.835 23.834 25.252 23.834 27.0001C23.834 28.7481 25.251 30.1652 26.9991 30.1652Z" fill="white"/>
<path d="M27 16.1501C26.767 16.1501 26.5781 15.9612 26.5781 15.7282V5.34424C26.5781 5.11126 26.767 4.92236 27 4.92236C27.233 4.92236 27.4219 5.11126 27.4219 5.34424V15.7282C27.4219 15.9612 27.233 16.1501 27 16.1501Z" fill="white"/>
<path d="M29.2504 7.46884C29.1424 7.46884 29.0345 7.42765 28.9521 7.3453L27.0002 5.39346L25.0483 7.3453C24.8836 7.51009 24.6165 7.50999 24.4517 7.3453C24.2869 7.1805 24.2869 6.91338 24.4517 6.74864L26.7019 4.49852C26.8666 4.33383 27.1337 4.33383 27.2985 4.49852L29.5486 6.74864C29.7134 6.91338 29.7134 7.1805 29.5486 7.3453C29.4663 7.42765 29.3583 7.46884 29.2504 7.46884Z" fill="white"/>
<path d="M27 49.0768C26.767 49.0768 26.5781 48.888 26.5781 48.655V38.271C26.5781 38.038 26.767 37.8491 27 37.8491C27.233 37.8491 27.4219 38.038 27.4219 38.271V48.655C27.4219 48.888 27.233 49.0768 27 49.0768Z" fill="white"/>
<path d="M27.0002 49.6241C26.8922 49.6241 26.7843 49.5829 26.7019 49.5006L24.4517 47.2505C24.2869 47.0857 24.2869 46.8186 24.4517 46.6538C24.6165 46.4891 24.8835 46.4891 25.0483 46.6538L27.0002 48.6056L28.9521 46.6538C29.1167 46.4891 29.3838 46.4891 29.5486 46.6538C29.7134 46.8186 29.7134 47.0857 29.5486 47.2505L27.2985 49.5006C27.2161 49.5829 27.1081 49.6241 27.0002 49.6241Z" fill="white"/>
<path d="M48.6545 27.4219H38.2705C38.0375 27.4219 37.8486 27.233 37.8486 27C37.8486 26.767 38.0375 26.5781 38.2705 26.5781H48.6545C48.8875 26.5781 49.0764 26.767 49.0764 27C49.0764 27.233 48.8875 27.4219 48.6545 27.4219Z" fill="white"/>
<path d="M46.9521 29.6722C46.8442 29.6722 46.7362 29.631 46.6539 29.5486C46.4891 29.3839 46.4891 29.1168 46.6539 28.952L48.6057 27.0001L46.6539 25.0483C46.4891 24.8835 46.4891 24.6164 46.6539 24.4516C46.8185 24.287 47.0858 24.287 47.2504 24.4516L49.5006 26.7018C49.6654 26.8666 49.6654 27.1337 49.5006 27.2985L47.2504 29.5486C47.1681 29.631 47.0601 29.6722 46.9521 29.6722Z" fill="white"/>
<path d="M15.7277 27.4219H5.34375C5.11077 27.4219 4.92188 27.233 4.92188 27C4.92188 26.767 5.11077 26.5781 5.34375 26.5781H15.7277C15.9607 26.5781 16.1496 26.767 16.1496 27C16.1496 27.233 15.9607 27.4219 15.7277 27.4219Z" fill="white"/>
<path d="M7.04701 29.6722C6.93901 29.6722 6.83107 29.631 6.74868 29.5486L4.49856 27.2985C4.33381 27.1337 4.33381 26.8666 4.49856 26.7018L6.74868 24.4516C6.91347 24.287 7.18054 24.287 7.34534 24.4516C7.51008 24.6164 7.51008 24.8835 7.34534 25.0483L5.3935 27.0001L7.34534 28.952C7.51008 29.1168 7.51008 29.3839 7.34534 29.5486C7.26294 29.631 7.15495 29.6722 7.04701 29.6722Z" fill="white"/>
<path d="M38.1338 15.8665C38.3574 15.3937 38.6432 14.9831 38.9447 14.5881C39.2491 14.1962 39.577 13.8276 39.9248 13.479C40.2726 13.1303 40.6412 12.8026 41.0331 12.4981C41.4279 12.1964 41.8388 11.9109 42.3123 11.688C42.0894 12.1615 41.8039 12.5724 41.5023 12.9672C41.1978 13.3591 40.87 13.7277 40.5213 14.0755C40.1727 14.4233 39.8041 14.7512 39.4122 15.0556C39.0172 15.3571 38.6066 15.6429 38.1338 15.8665Z" fill="#A0A0A0"/>
<path d="M39.5176 11.3007C39.7828 11.2092 40.0479 11.1484 40.3131 11.0944C40.5783 11.0418 40.8435 11.0023 41.1087 10.9701C41.3738 10.9382 41.639 10.9167 41.9042 10.9015C42.1694 10.8863 42.4346 10.8807 42.6998 10.8789L42.7024 10.8789C42.9324 10.8774 43.12 11.0627 43.1215 11.2927C43.1216 11.2946 43.1215 11.2987 43.1215 11.3007L43.1164 11.6985C43.1108 11.8311 43.1078 11.9636 43.0999 12.0962C43.0843 12.3614 43.0639 12.6266 43.0315 12.8918C42.9994 13.157 42.9599 13.4221 42.9071 13.6873C42.8529 13.9525 42.7918 14.2177 42.6998 14.4829C42.6077 14.2177 42.5467 13.9525 42.4924 13.6873C42.4397 13.4221 42.4001 13.157 42.368 12.8918C42.3356 12.6266 42.3153 12.3614 42.2996 12.0962C42.2917 11.9636 42.2888 11.8311 42.2831 11.6985L42.278 11.3007L42.6998 11.7224C42.4346 11.7207 42.1694 11.7151 41.9042 11.6999C41.639 11.6846 41.3738 11.6631 41.1087 11.6313C40.8435 11.599 40.5783 11.5595 40.3131 11.507C40.0479 11.453 39.7828 11.3922 39.5176 11.3007Z" fill="#A0A0A0"/>
<path d="M15.866 38.1348C15.6424 38.6076 15.3566 39.0182 15.0551 39.4131C14.7507 39.8051 14.4228 40.1737 14.075 40.5222C13.7272 40.8709 13.3586 41.1987 12.9667 41.5032C12.5719 41.8049 12.1611 42.0904 11.6875 42.3133C11.9104 41.8397 12.1959 41.4289 12.4976 41.0341C12.8021 40.6422 13.1299 40.2735 13.4785 39.9258C13.8271 39.5779 14.1957 39.2501 14.5876 38.9456C14.9826 38.6442 15.3932 38.3584 15.866 38.1348Z" fill="#A0A0A0"/>
<path d="M14.4829 42.7002C14.2177 42.7917 13.9525 42.8525 13.6873 42.9065C13.4222 42.9591 13.157 42.9986 12.8918 43.0308C12.6266 43.0627 12.3614 43.0842 12.0962 43.0994C11.8311 43.1146 11.5659 43.1203 11.3007 43.122L11.2981 43.122C11.0681 43.1235 10.8804 42.9383 10.8789 42.7083C10.8789 42.7063 10.8789 42.7022 10.8789 42.7002L10.884 42.3025C10.8897 42.1699 10.8926 42.0373 10.9005 41.9047C10.9162 41.6395 10.9365 41.3743 10.969 41.1092C11.0011 40.844 11.0406 40.5788 11.0934 40.3136C11.1476 40.0484 11.2086 39.7833 11.3007 39.5181C11.3928 39.7833 11.4538 40.0484 11.508 40.3136C11.5608 40.5788 11.6003 40.844 11.6324 41.1092C11.6648 41.3743 11.6852 41.6395 11.7008 41.9047C11.7087 42.0373 11.7117 42.1699 11.7174 42.3025L11.7224 42.7002L11.3007 42.2785C11.5659 42.2802 11.8311 42.2859 12.0962 42.3011C12.3614 42.3163 12.6266 42.3378 12.8918 42.3697C13.157 42.4019 13.4222 42.4414 13.6873 42.494C13.9525 42.548 14.2177 42.6088 14.4829 42.7002Z" fill="#A0A0A0"/>
<path d="M38.1338 38.1348C38.6066 38.3584 39.0172 38.6442 39.4122 38.9456C39.8041 39.2501 40.1727 39.5779 40.5213 39.9258C40.87 40.2735 41.1978 40.6422 41.5023 41.0341C41.8039 41.4289 42.0895 41.8397 42.3123 42.3133C41.8388 42.0904 41.4279 41.8049 41.0331 41.5032C40.6412 41.1987 40.2726 40.8709 39.9248 40.5222C39.577 40.1737 39.2491 39.8051 38.9447 39.4131C38.6432 39.0182 38.3574 38.6076 38.1338 38.1348Z" fill="#A0A0A0"/>
<path d="M42.6998 39.5181C42.7912 39.7833 42.852 40.0484 42.906 40.3136C42.9586 40.5788 42.9981 40.844 43.0303 41.1092C43.0622 41.3743 43.0837 41.6395 43.0989 41.9047C43.1141 42.1699 43.1198 42.4351 43.1215 42.7003L43.1215 42.7029C43.123 42.9329 42.9378 43.1205 42.7078 43.122C42.7058 43.1221 42.7017 43.122 42.6998 43.122L42.302 43.1169C42.1694 43.1113 42.0368 43.1083 41.9042 43.1004C41.639 43.0848 41.3738 43.0644 41.1087 43.032C40.8435 42.9999 40.5783 42.9604 40.3131 42.9076C40.0479 42.8533 39.7828 42.7923 39.5176 42.7003C39.7828 42.6082 40.0479 42.5472 40.3131 42.4929C40.5783 42.4401 40.8435 42.4006 41.1087 42.3685C41.3738 42.3361 41.639 42.3158 41.9042 42.3001C42.0368 42.2922 42.1694 42.2893 42.302 42.2836L42.6998 42.2785L42.278 42.7003C42.2798 42.4351 42.2854 42.1699 42.3006 41.9047C42.3158 41.6395 42.3373 41.3743 42.3692 41.1092C42.4014 40.844 42.4409 40.5788 42.4935 40.3136C42.5475 40.0484 42.6083 39.7833 42.6998 39.5181Z" fill="#A0A0A0"/>
<path d="M15.866 15.8665C15.3932 15.6429 14.9826 15.3571 14.5876 15.0556C14.1957 14.7512 13.8271 14.4233 13.4785 14.0755C13.1299 13.7277 12.8021 13.3591 12.4976 12.9672C12.1959 12.5724 11.9104 12.1615 11.6875 11.688C12.1611 11.9109 12.5719 12.1964 12.9667 12.4981C13.3586 12.8026 13.7272 13.1303 14.075 13.479C14.4228 13.8276 14.7507 14.1962 15.0551 14.5881C15.3566 14.9831 15.6424 15.3937 15.866 15.8665Z" fill="#A0A0A0"/>
<path d="M11.3007 14.4829C11.2092 14.2177 11.1484 13.9525 11.0944 13.6873C11.0418 13.4221 11.0023 13.157 10.9701 12.8918C10.9382 12.6266 10.9167 12.3614 10.9015 12.0962C10.8863 11.8311 10.8807 11.5659 10.8789 11.3007L10.8789 11.2981C10.8774 11.0681 11.0627 10.8804 11.2927 10.8789C11.2946 10.8789 11.2987 10.8789 11.3007 10.8789L11.6985 10.884C11.8311 10.8897 11.9637 10.8926 12.0962 10.9005C12.3614 10.9162 12.6266 10.9365 12.8918 10.969C13.157 11.001 13.4222 11.0406 13.6873 11.0933C13.9525 11.1476 14.2177 11.2086 14.4829 11.3007C14.2177 11.3928 13.9525 11.4538 13.6873 11.508C13.4222 11.5608 13.157 11.6003 12.8918 11.6324C12.6266 11.6648 12.3614 11.6852 12.0962 11.7008C11.9637 11.7087 11.8311 11.7117 11.6985 11.7174L11.3007 11.7224L11.7224 11.3007C11.7207 11.5659 11.7151 11.8311 11.6999 12.0962C11.6846 12.3614 11.6631 12.6266 11.6313 12.8918C11.599 13.157 11.5595 13.4221 11.507 13.6873C11.453 13.9525 11.3921 14.2177 11.3007 14.4829Z" fill="#A0A0A0"/>
</svg>
