<svg width="44" height="44" viewBox="0 0 44 44" fill="none" xmlns="http://www.w3.org/2000/svg">
<path opacity="0.4" d="M19.6875 39.977C25.4148 39.977 30.0576 35.2074 30.0576 29.3239C30.0576 23.4404 25.4148 18.6709 19.6875 18.6709C13.9602 18.6709 9.31738 23.4404 9.31738 29.3239C9.31738 35.2074 13.9602 39.977 19.6875 39.977Z" fill="#46A83E"/>
<path d="M7.11909 30.7168C6.54656 30.7168 5.97088 30.6677 5.39638 30.5689C5.27871 30.5486 5.17749 30.472 5.12391 30.3625C5.07028 30.253 5.07069 30.1238 5.12505 30.0147C6.13235 27.992 7.71049 26.3826 9.68887 25.3604C11.6673 24.3383 13.8661 23.9963 16.0472 24.3715C16.1649 24.3918 16.2661 24.4684 16.3197 24.5779C16.3733 24.6874 16.3729 24.8166 16.3185 24.9257C15.3111 26.9484 13.733 28.5579 11.7547 29.58C10.2974 30.3329 8.72053 30.7168 7.11909 30.7168ZM6.04588 29.8861C7.89503 30.0989 9.74208 29.7593 11.4184 28.8931C13.0948 28.027 14.4614 26.7064 15.3977 25.0543C13.5485 24.8413 11.7016 25.1811 10.0252 26.0473C10.0252 26.0473 10.0252 26.0473 10.0252 26.0473C8.34871 26.9134 6.98211 28.234 6.04588 29.8861ZM9.85701 25.7039H9.85792H9.85701Z" fill="white"/>
<path d="M7.9214 27.394C7.91515 27.394 7.90884 27.3939 7.90254 27.3936C5.05637 27.2484 2.37272 26.2117 0.141786 24.3957C0.0482828 24.3195 -0.00429294 24.2022 0.000274895 24.0797C0.00484273 23.9572 0.0659604 23.8443 0.164854 23.7758C2.57119 22.1073 5.3784 21.2849 8.2834 21.3997C11.1883 21.5138 13.9263 22.5531 16.2017 24.4054C16.295 24.4814 16.3476 24.5985 16.3432 24.7208C16.3388 24.8431 16.2781 24.9559 16.1795 25.0247L16.1269 25.0604C15.9551 25.1783 15.7227 25.1308 15.608 24.9541C15.591 24.9281 15.5776 24.9006 15.5675 24.8725C13.4518 23.2072 10.928 22.273 8.25481 22.168C5.68636 22.0674 3.19739 22.7408 1.02507 24.1199C3.04647 25.6334 5.42586 26.4975 7.93963 26.6257C8.14605 26.6362 8.30506 26.8166 8.29482 27.0287C8.28487 27.2342 8.11951 27.394 7.9214 27.394Z" fill="white"/>
<path d="M18.6663 33.4838C18.5426 33.4838 18.4201 33.4521 18.3084 33.3898C18.1318 33.2913 18.003 33.1281 17.9459 32.9301L15.64 24.9375C15.6148 24.8999 15.596 24.8574 15.5854 24.8115C15.5489 24.6541 15.6079 24.4895 15.7396 24.4007L15.7576 24.3885C15.9285 24.2693 16.1613 24.3149 16.2774 24.4906C16.3105 24.5407 16.3305 24.596 16.3383 24.6522L18.6635 32.7117L16.2495 24.3157L15.7165 22.7318C14.7258 20.1986 13.1165 17.9331 11.062 16.1791C8.54278 14.0284 5.51271 12.7366 2.26964 12.4252C3.16119 15.6436 4.95187 18.4674 7.47103 20.618C7.81801 20.9142 8.18549 21.2017 8.56329 21.4725C8.73276 21.594 8.77428 21.8336 8.65602 22.0078C8.53785 22.1819 8.30453 22.2245 8.13501 22.103C7.74008 21.82 7.35574 21.5193 6.99269 21.2093C4.21604 18.8388 2.28512 15.6866 1.40869 12.0935C1.37969 11.9747 1.4076 11.8487 1.48388 11.7544C1.56012 11.6602 1.67605 11.6091 1.79463 11.6164C5.39358 11.8439 8.76355 13.2172 11.5403 15.5879C13.6924 17.4251 15.3779 19.7994 16.4144 22.4541C16.4167 22.4599 16.4188 22.4658 16.4208 22.4716L16.9596 24.0728C16.9614 24.0782 16.9632 24.0836 16.9647 24.0891L19.3887 32.4908C19.4458 32.6888 19.4244 32.8977 19.3285 33.0792C19.2327 33.2606 19.0737 33.3929 18.881 33.4515C18.8103 33.4731 18.7381 33.4838 18.6663 33.4838Z" fill="white"/>
<path d="M16.7914 25.1724C16.7542 25.1724 16.7168 25.1667 16.6805 25.1551C16.5665 25.1187 16.4763 25.0287 16.4375 24.9128C15.2665 21.4095 15.2136 17.6856 16.2846 14.1435C17.3555 10.6015 19.4529 7.56357 22.3499 5.35825C22.4458 5.28543 22.5697 5.26361 22.6837 5.30002C22.7976 5.33634 22.8879 5.42634 22.9266 5.54229C24.0976 9.04568 24.1505 12.7697 23.0795 16.3116C22.964 16.6939 22.831 17.084 22.6843 17.4713C22.6095 17.6691 22.3927 17.767 22.1999 17.6901C22.0073 17.6131 21.912 17.3903 21.9869 17.1924C22.1272 16.8219 22.2544 16.4488 22.3649 16.0836C23.3364 12.8701 23.3401 9.5 22.3806 6.30237C19.8265 8.37879 17.9709 11.158 16.9993 14.3716C16.0336 17.5653 16.024 20.9135 16.9658 24.0934L17.1812 24.0233C17.353 23.9673 17.5391 24.0451 17.6242 24.2083C17.7092 24.3715 17.6689 24.5738 17.5284 24.6896C17.36 24.8283 17.187 24.9653 17.0142 25.0968C16.949 25.1465 16.8707 25.1724 16.7914 25.1724Z" fill="white"/>
<path d="M16.3282 23.6146C16.2473 23.6146 16.1674 23.5876 16.1014 23.5359L16.0364 23.4841C15.9785 23.4383 15.9349 23.376 15.9111 23.3051L15.7182 22.7321C14.7275 20.1992 13.1181 17.9333 11.0637 16.1795C10.6926 15.8626 10.2989 15.5564 9.89353 15.2695C9.83429 15.2275 9.78806 15.1689 9.76043 15.1006C9.48544 14.4218 9.24358 13.7226 9.04159 13.0225C7.82494 8.80532 7.94361 4.39037 9.38481 0.254868C9.42506 0.13948 9.51641 0.0506991 9.63079 0.015881C9.74531 -0.0190308 9.86891 0.00438453 9.96383 0.0785722C13.3659 2.73966 15.8072 6.37519 17.0238 10.5922C17.2259 11.2927 17.394 12.0143 17.5234 12.7371C17.5364 12.8099 17.5287 12.8849 17.5013 12.9532C17.3138 13.4204 17.146 13.8975 17.0027 14.3713C16.1462 17.2044 16.0441 20.2214 16.7076 23.0963C16.7242 23.1682 16.7203 23.2434 16.6964 23.313L16.6807 23.3592C16.6406 23.4748 16.5493 23.5638 16.4348 23.5987C16.3998 23.6094 16.3639 23.6146 16.3282 23.6146ZM10.4097 14.7017C10.8013 14.9827 11.1818 15.2806 11.5421 15.5882C13.1867 16.9922 14.5588 18.7099 15.5771 20.6267C15.4134 18.4499 15.6517 16.2479 16.288 14.1432C16.4271 13.6833 16.5882 13.2205 16.7673 12.766C16.6455 12.1068 16.4906 11.4496 16.3063 10.8106C15.1846 6.92275 12.9816 3.54836 9.92044 1.01983C8.6948 4.85343 8.63742 8.91596 9.7591 12.804C9.94337 13.4426 10.1621 14.0804 10.4097 14.7017Z" fill="white"/>
<path d="M16.7773 24.9275C16.7715 24.9275 16.7657 24.9274 16.7599 24.9273C16.6405 24.9254 16.5292 24.865 16.4602 24.7648C16.3913 24.6647 16.3731 24.5367 16.4111 24.4204C17.3365 21.5937 19.0812 19.1894 21.4564 17.4678C23.8316 15.7462 26.6197 14.8644 29.5241 14.9157C29.6435 14.9178 29.7546 14.9783 29.8234 15.0784C29.8921 15.1786 29.9103 15.3064 29.8723 15.4226C29.4768 16.6305 28.9211 17.7781 28.2206 18.8333C28.146 18.9457 28.0189 19.0086 27.887 19.0003C25.5144 18.8409 23.2946 20.0498 22.0952 22.1552C21.9908 22.3384 21.7617 22.4 21.5832 22.2928C21.4049 22.1856 21.3449 21.9501 21.4493 21.7669C22.756 19.4732 25.1434 18.1293 27.7185 18.2219C28.2293 17.425 28.6539 16.5747 28.9851 15.6858C26.4319 15.7453 23.9887 16.5733 21.8879 18.096C19.7024 19.68 18.082 21.8756 17.1911 24.4556C17.1977 24.485 17.201 24.5156 17.2007 24.5471C17.1984 24.758 17.0313 24.9272 16.8266 24.9272C16.8251 24.9272 16.8237 24.9272 16.8223 24.9272L16.8014 24.9273C16.7934 24.9274 16.7854 24.9275 16.7773 24.9275Z" fill="white"/>
<path d="M20.8847 26.2944C20.8741 26.2944 20.8634 26.2939 20.8528 26.293C19.3417 26.1601 17.9069 25.6979 16.5881 24.9193C16.4847 24.8582 16.4158 24.7502 16.4027 24.6283C16.3895 24.5065 16.4337 24.3856 16.5217 24.3027C17.9579 22.9497 19.7302 22.0443 21.6468 21.6844C21.7892 21.6579 21.934 21.7178 22.0183 21.8388C22.1026 21.9597 22.1115 22.1198 22.041 22.2497C21.514 23.2209 21.2509 24.4517 21.2589 25.9078C21.2595 26.0159 21.2158 26.1191 21.1385 26.1924C21.0691 26.2583 20.9784 26.2944 20.8847 26.2944ZM17.4287 24.5118C18.4012 25.0161 19.436 25.3418 20.5157 25.4832C20.5481 24.4068 20.727 23.4444 21.0497 22.6086C19.724 22.9691 18.4907 23.6169 17.4287 24.5118Z" fill="white"/>
<path d="M26.1725 40.4307C25.7733 40.4307 25.5445 40.4239 25.5358 40.4236C25.4081 40.4194 25.2913 40.3487 25.2259 40.236C25.208 40.205 23.4185 37.0998 22.0632 33.3195C20.2192 28.1758 20.0127 24.2892 21.4494 21.7675C22.3915 20.114 23.904 18.9363 25.7082 18.4514C27.5126 17.9665 29.3926 18.2324 31.0022 19.2002C32.9006 20.3212 34.1498 22.2663 34.4164 24.476C36.4207 23.6453 38.6814 23.8109 40.5639 24.949C40.5642 24.9492 40.5645 24.9494 40.5647 24.9495C43.861 26.9536 44.9818 31.3547 43.0632 34.7604C41.605 37.3198 38.1986 39.0491 32.9377 39.9018C30.0453 40.3706 27.3577 40.4307 26.1725 40.4307ZM25.7656 39.659C27.4862 39.6812 39.4163 39.6394 42.4164 34.3737C44.1293 31.3332 43.1283 27.4019 40.1841 25.6115C38.3638 24.5111 36.147 24.4292 34.2546 25.3927C34.1414 25.4503 34.0074 25.4454 33.8985 25.3795C33.7896 25.3136 33.7205 25.1957 33.7146 25.066C33.6166 22.8934 32.4623 20.9492 30.6267 19.8652C29.1871 18.9997 27.5084 18.7622 25.8976 19.1952C24.2868 19.6281 22.9364 20.6796 22.0953 22.1558C19.1395 27.3439 24.91 38.1189 25.7656 39.659Z" fill="white"/>
<path d="M39.0205 26.8223C39.419 26.9215 39.7964 27.1312 40.1259 27.4029C40.4557 27.676 40.7362 28.0138 40.9646 28.3834C41.42 29.1264 41.6709 29.9906 41.731 30.8626C41.7882 31.7344 41.6539 32.6299 41.2881 33.4276C41.1045 33.8244 40.8617 34.1947 40.5606 34.5025C40.2596 34.809 39.9026 35.0548 39.515 35.1922C40.1279 34.6339 40.5176 33.9419 40.7411 33.2046C40.9654 32.4666 41.0331 31.6859 40.9846 30.9151C40.9315 30.1443 40.7607 29.379 40.4497 28.6718C40.1386 27.9652 39.6818 27.3177 39.0205 26.8223Z" fill="#A0A0A0"/>
<path d="M31.2159 5.66748C31.1167 6.09234 30.9537 6.47114 30.7745 6.83837C30.5923 7.20338 30.3861 7.55109 30.1593 7.88398C29.9327 8.21697 29.6846 8.53449 29.4125 8.83478C29.1376 9.13297 28.8461 9.41923 28.4902 9.65911C28.5887 9.23372 28.7514 8.85471 28.9308 8.48763C29.113 8.12264 29.3192 7.77489 29.5468 7.44261C29.7743 7.11023 30.0224 6.79266 30.2944 6.49241C30.5696 6.19437 30.8608 5.9079 31.2159 5.66748Z" fill="#A0A0A0"/>
<path d="M19.0737 39.7417C19.0177 40.1748 18.8934 40.5688 18.7521 40.9531C18.6074 41.3354 18.4372 41.7031 18.245 42.0582C18.0529 42.4134 17.8379 42.7555 17.5975 43.0829C17.3539 43.4086 17.0926 43.7242 16.7627 44.0004C16.8179 43.5669 16.9419 43.1727 17.0835 42.7886C17.2282 42.4063 17.3984 42.0386 17.5915 41.684C17.7844 41.3293 17.9993 40.9872 18.2399 40.6597C18.4837 40.3342 18.7446 40.0184 19.0737 39.7417Z" fill="#A0A0A0"/>
<path d="M40.5043 19.2066C40.172 19.4793 39.8169 19.6754 39.4559 19.8521C39.0939 20.0252 38.7233 20.1695 38.3453 20.2891C37.9673 20.4088 37.5817 20.5029 37.1875 20.5682C36.7922 20.63 36.391 20.672 35.9668 20.6368C36.2988 20.3632 36.6539 20.1668 37.0149 19.9903C37.3769 19.8172 37.7475 19.6729 38.1258 19.5543C38.5041 19.4355 38.8897 19.3415 39.2839 19.2762C39.6793 19.2146 40.0803 19.1723 40.5043 19.2066Z" fill="#A0A0A0"/>
<path d="M8.82561 32.7935C8.49334 33.0662 8.13817 33.2623 7.77724 33.439C7.41521 33.6121 7.04458 33.7564 6.66658 33.876C6.28863 33.9958 5.90298 34.0898 5.50877 34.1551C5.11352 34.2169 4.71234 34.2589 4.28809 34.2237C4.6201 33.9501 4.97517 33.7537 5.33616 33.5772C5.69821 33.4041 6.06882 33.2598 6.44712 33.1412C6.82538 33.0225 7.211 32.9284 7.60523 32.8631C8.00055 32.8015 8.40163 32.7592 8.82561 32.7935Z" fill="#A0A0A0"/>
</svg>
