<svg width="45" height="45" viewBox="0 0 45 45" fill="none" xmlns="http://www.w3.org/2000/svg">
<path opacity="0.4" d="M27.8659 26.6991C33.2467 26.6991 37.6087 22.3371 37.6087 16.9562C37.6087 11.5754 33.2467 7.21338 27.8659 7.21338C22.4851 7.21338 18.123 11.5754 18.123 16.9562C18.123 22.3371 22.4851 26.6991 27.8659 26.6991Z" fill="#46A83E"/>
<path d="M14.4044 40.1309C12.4693 40.1311 10.8033 38.6638 10.5991 36.6976L7.86273 10.3505C7.75707 9.33327 8.05387 8.33583 8.69842 7.54181C9.34301 6.74788 10.2582 6.25247 11.2754 6.14681L23.3777 4.88982C25.4778 4.67181 27.3632 6.20268 27.5813 8.30245L28.4636 16.7968C28.4837 16.99 28.3433 17.1627 28.1502 17.1828C27.9575 17.2035 27.7843 17.0627 27.7642 16.8695L26.882 8.37506C26.7039 6.66085 25.1642 5.4109 23.4503 5.58917L11.348 6.84616C10.5176 6.93242 9.77048 7.33685 9.2443 7.98496C8.71811 8.63315 8.47581 9.44743 8.56207 10.2778L11.2985 36.625C11.4765 38.3391 13.0162 39.5886 14.7302 39.4109L26.8325 38.1539C27.6628 38.0677 28.41 37.6632 28.9362 37.0151C29.4624 36.3669 29.7047 35.5527 29.6184 34.7222L29.3804 32.4306C29.3603 32.2374 29.5006 32.0647 29.6938 32.0446C29.8863 32.0251 30.0597 32.1648 30.0797 32.358L30.3178 34.6496C30.4234 35.6668 30.1266 36.6642 29.4821 37.4583C28.8375 38.2522 27.9223 38.7476 26.9051 38.8533L14.8028 40.1103C14.6691 40.1242 14.536 40.1309 14.4044 40.1309Z" fill="white"/>
<path d="M21.0966 8.22754L14.1929 8.94455C13.499 9.01662 12.838 8.63256 12.5569 7.99408L11.8721 6.43831L22.8528 5.29785L22.5023 6.96115C22.3585 7.64377 21.7904 8.15548 21.0966 8.22754Z" fill="white"/>
<path d="M33.1995 6.64209C33.1063 7.03067 32.9531 7.3771 32.7848 7.71296C32.6136 8.04677 32.4199 8.36478 32.2068 8.66922C31.9939 8.97377 31.7607 9.26415 31.5052 9.53879C31.2469 9.8115 30.973 10.0733 30.6387 10.2927C30.7311 9.90364 30.8841 9.55701 31.0526 9.2213C31.2238 8.88751 31.4175 8.56946 31.6313 8.26556C31.8451 7.96159 32.0781 7.67116 32.3337 7.39654C32.5922 7.12396 32.8658 6.86197 33.1995 6.64209Z" fill="#666666"/>
<path d="M32.0098 35.8438C32.3324 36.0794 32.5931 36.3543 32.8382 36.639C33.0803 36.9255 33.2991 37.2268 33.498 37.5408C33.697 37.8546 33.8751 38.1816 34.0301 38.5232C34.1823 38.8667 34.3183 39.2202 34.392 39.6133C34.0686 39.3781 33.8077 39.1034 33.5628 38.8186C33.3207 38.532 33.1018 38.2307 32.9038 37.9163C32.7056 37.6019 32.5274 37.275 32.3724 36.9333C32.2205 36.5897 32.0841 36.2363 32.0098 35.8438Z" fill="#666666"/>
<path d="M40.8959 16.3023C40.5837 16.5517 40.25 16.7309 39.9109 16.8926C39.5708 17.0509 39.2226 17.1828 38.8674 17.2922C38.5123 17.4018 38.15 17.4877 37.7797 17.5475C37.4083 17.604 37.0314 17.6424 36.6328 17.6102C36.9447 17.36 37.2783 17.1804 37.6175 17.0189C37.9576 16.8607 38.3058 16.7287 38.6613 16.6202C39.0166 16.5116 39.3789 16.4256 39.7493 16.3659C40.1207 16.3095 40.4975 16.2708 40.8959 16.3023Z" fill="#666666"/>
<path d="M8.36755 28.2158C8.05537 28.4652 7.72168 28.6445 7.38259 28.8062C7.04246 28.9645 6.69425 29.0964 6.33911 29.2058C5.98402 29.3153 5.6217 29.4013 5.25134 29.4611C4.87999 29.5176 4.50307 29.556 4.10449 29.5238C4.41642 29.2736 4.75001 29.094 5.08917 28.9325C5.42932 28.7743 5.77751 28.6423 6.13293 28.5338C6.4883 28.4252 6.8506 28.3391 7.22098 28.2794C7.5924 28.2231 7.96921 28.1844 8.36755 28.2158Z" fill="#666666"/>
<path d="M33.5377 33.8422C32.448 33.8422 31.3705 33.6054 30.3613 33.1383C28.8884 32.4567 27.695 31.3469 26.9101 29.9287C26.8559 29.8307 26.8517 29.7126 26.8987 29.6109C26.9458 29.5091 27.0386 29.4359 27.1484 29.4138C28.7375 29.0942 30.3558 29.2855 31.8288 29.9671C33.3017 30.6487 34.495 31.7586 35.2799 33.1768C35.3341 33.2748 35.3384 33.3929 35.2913 33.4946C35.2443 33.5963 35.1515 33.6695 35.0416 33.6917C34.5414 33.7923 34.0383 33.8422 33.5377 33.8422ZM27.7859 30.0214C28.4901 31.1016 29.474 31.953 30.6566 32.5003C31.8389 33.0474 33.1248 33.2461 34.4042 33.0841C33.6999 32.0039 32.716 31.1525 31.5335 30.6052C30.3509 30.0579 29.0648 29.8589 27.7859 30.0214Z" fill="white"/>
<path d="M22.8695 30.9926C22.6701 30.9926 22.4701 30.9849 22.2693 30.9692C20.6514 30.8433 19.1462 30.2187 17.9165 29.1626C17.8314 29.0896 17.7863 28.9804 17.795 28.8686C17.8037 28.7569 17.8651 28.656 17.9604 28.597C19.3385 27.7439 20.9223 27.3592 22.5405 27.4854H22.5405C24.1586 27.6114 25.6638 28.2361 26.8934 29.2921C26.9784 29.3651 27.0235 29.4743 27.0148 29.5861C27.0061 29.6978 26.9446 29.7988 26.8493 29.8577C25.6421 30.605 24.2769 30.9926 22.8695 30.9926ZM18.7696 28.9445C19.8061 29.7118 21.0249 30.1672 22.3239 30.2682C23.6233 30.3692 24.8975 30.108 26.0402 29.5102C25.0039 28.743 23.785 28.2875 22.4859 28.1864C21.1874 28.0854 19.9121 28.3468 18.7696 28.9445Z" fill="white"/>
<path d="M31.7521 23.1353C31.7107 23.1353 31.6686 23.1279 31.6276 23.1125C31.4461 23.0437 31.3546 22.8408 31.4233 22.6592C31.5992 22.1945 31.7516 21.7168 31.8764 21.2391C32.5859 18.5236 32.465 15.7156 31.5302 13.0869C29.4292 14.9224 27.9503 17.3124 27.2409 20.028C27.1162 20.5053 27.0154 20.9966 26.9415 21.4884C26.9126 21.6803 26.7333 21.8121 26.5415 21.7836C26.3495 21.7548 26.2173 21.5757 26.2461 21.3836C26.3238 20.8675 26.4296 20.3516 26.5606 19.8504C27.3497 16.8299 29.0447 14.1929 31.4624 12.2245C31.5492 12.1536 31.6648 12.1286 31.7732 12.1569C31.8817 12.1853 31.9701 12.2636 32.0113 12.3679C33.1571 15.2674 33.3458 18.3966 32.5567 21.4169C32.4257 21.9185 32.2655 22.4202 32.0809 22.9081C32.0277 23.0487 31.894 23.1353 31.7521 23.1353Z" fill="white"/>
<path d="M27.1543 30.2376C27.0543 30.2376 26.9584 30.1949 26.8914 30.1194C26.817 30.0355 26.787 29.9213 26.8107 29.8118C27.3668 27.2394 28.7023 24.9551 30.6731 23.2057C32.6438 21.4562 35.0704 20.4009 37.6905 20.1538C37.8017 20.1436 37.912 20.1867 37.9864 20.2705C38.0608 20.3543 38.0908 20.4686 38.0671 20.5782C37.5109 23.1505 36.1753 25.4348 34.2047 27.184C33.9915 27.3733 33.7651 27.5603 33.5317 27.74C33.3778 27.8584 33.1571 27.8296 33.0387 27.6758C32.9203 27.522 32.949 27.3012 33.1028 27.1828C33.3233 27.0131 33.537 26.8366 33.7379 26.6582C35.4724 25.1187 36.685 23.1397 37.2653 20.9105C34.9832 21.2223 32.8744 22.1918 31.1398 23.7315C29.3895 25.2854 28.1705 27.2865 27.5967 29.5406L27.6174 29.5528C27.747 29.6296 27.8134 29.7805 27.7822 29.928C27.7511 30.0754 27.6294 30.1867 27.4797 30.2044C27.3823 30.216 27.2849 30.2268 27.1873 30.236C27.1762 30.237 27.1652 30.2376 27.1543 30.2376Z" fill="white"/>
<path d="M25.4259 36.0011C25.3728 36.0011 25.3194 35.9942 25.2666 35.9805C25.1049 35.9383 24.9693 35.8355 24.8848 35.6913C24.8003 35.547 24.7771 35.3785 24.8194 35.2167L26.3039 29.5345C26.3032 29.4968 26.3086 29.4585 26.3207 29.4214C26.3663 29.2814 26.4915 29.1826 26.6386 29.1769C26.7527 29.1707 26.8579 29.2193 26.9285 29.299L27.1583 28.2254C27.4658 26.3373 27.2954 24.3793 26.6655 22.5623C25.9058 20.371 24.5407 18.494 22.7026 17.1057C22.1184 19.3338 22.2082 21.653 22.9679 23.8443C23.0744 24.1516 23.1967 24.4609 23.3312 24.7638C23.41 24.9413 23.3301 25.149 23.1527 25.2278C22.9752 25.3065 22.7675 25.2267 22.6886 25.0493C22.5461 24.7284 22.4166 24.4005 22.3036 24.0747C21.4404 21.5849 21.3928 18.9392 22.1658 16.4236C22.1988 16.3164 22.2809 16.2315 22.3867 16.1947C22.4927 16.1579 22.6098 16.174 22.7019 16.2377C24.8663 17.735 26.4666 19.8423 27.3298 22.332C27.9988 24.2616 28.179 26.3416 27.8508 28.3472C27.8499 28.3529 27.8488 28.3585 27.8477 28.3641L27.5974 29.5333C27.5963 29.5385 27.5951 29.5435 27.5938 29.5486L26.0303 35.5332C25.9881 35.6949 25.8854 35.8306 25.7411 35.915C25.6439 35.9719 25.5356 36.0011 25.4259 36.0011Z" fill="white"/>
<path d="M26.6282 29.8809C26.4416 29.8809 26.2862 29.7342 26.2773 29.546C26.2763 29.5257 26.2771 29.5056 26.2795 29.486C25.5794 27.7108 24.368 26.2202 22.7675 25.1673C21.2573 24.1739 19.5264 23.6529 17.7337 23.6475C18.4338 25.2572 19.5668 26.6196 21.0332 27.6085C21.1942 27.717 21.2367 27.9355 21.1282 28.0965C21.0196 28.2575 20.8012 28.3001 20.6401 28.1914C18.913 27.0268 17.6156 25.3807 16.8884 23.4311C16.8492 23.326 16.8625 23.2086 16.924 23.115C16.9856 23.0213 17.0882 22.9626 17.2002 22.957C19.3203 22.8509 21.3785 23.4121 23.1539 24.5799C24.9292 25.7478 26.2596 27.4162 27.0013 29.4047C27.0405 29.5095 27.0274 29.6267 26.966 29.7203C26.9047 29.8139 26.8024 29.8727 26.6907 29.8786L26.6451 29.8805C26.6394 29.8808 26.6338 29.8809 26.6282 29.8809Z" fill="white"/>
<path d="M33.1087 31.512C32.9276 31.512 32.7738 31.373 32.7587 31.1893C32.7428 30.9958 32.8867 30.826 33.0802 30.8101C34.8443 30.6649 36.4994 30.0311 37.8968 28.9702C36.3305 28.098 34.5656 27.7057 32.7628 27.8338C30.8521 27.9692 29.0668 28.6765 27.588 29.8821C27.5806 29.9002 27.5716 29.9179 27.561 29.9351C27.4586 30.1001 27.242 30.151 27.0769 30.0484L27.0661 30.0419C27.0564 30.0363 27.0468 30.0305 27.0373 30.0245C26.9425 29.9648 26.8818 29.8635 26.8739 29.7517C26.8661 29.64 26.9119 29.5312 26.9974 29.4587C28.6169 28.0871 30.5933 27.2826 32.7131 27.1324C34.833 26.9822 36.9031 27.4996 38.6998 28.6289C38.7948 28.6886 38.8555 28.7899 38.8634 28.9017C38.8714 29.0135 38.8255 29.1224 38.74 29.1949C37.1528 30.539 35.2156 31.3399 33.1379 31.5108C33.1281 31.5117 33.1183 31.512 33.1087 31.512Z" fill="white"/>
</svg>
