<svg width="512" height="512" viewBox="0 0 512 512" fill="none" xmlns="http://www.w3.org/2000/svg">
<path opacity="0.4" d="M260.47 434.373C326.474 434.373 379.981 380.866 379.981 314.862C379.981 248.858 326.474 195.351 260.47 195.351C194.466 195.351 140.959 248.858 140.959 314.862C140.959 380.866 194.466 434.373 260.47 434.373Z" fill="#46A83E"/>
<path d="M291.58 75.8857L284.218 84.9771C276.986 93.9079 274.133 105.612 276.432 116.871C277.471 121.964 278.78 126.429 280.399 130.171C274.045 147.789 262.177 148.151 269.748 167.158C232.627 206.784 245.459 221.659 287.648 271.418C310.162 279.658 334.184 278.606 359.85 267.417C366.844 264.368 372.311 258.59 374.886 251.408C380.558 235.589 384.248 219.103 381.557 200.469C386.943 195.637 392.231 191.514 397.018 190.97C399.106 165.275 407.539 143.133 426.229 126.733C397.473 88.4421 364.261 76.1861 325.981 93.5281C315.813 84.1355 304.351 78.2407 291.58 75.8857Z" stroke="white" stroke-width="4" stroke-miterlimit="10" stroke-linecap="round" stroke-linejoin="round"/>
<path d="M240.569 211.611L265.345 217.084L263.783 230.328L245.026 229.319" fill="#B0F3CC"/>
<path d="M440.853 141.617C452.53 137.413 464.098 135.031 475.503 135.391C471.535 121.973 465.311 108.637 456.918 95.3793C462.992 97.8566 469.09 100.569 475.232 103.722C476.971 104.615 478.78 102.643 477.732 100.992C445.23 49.8034 415.792 17.1633 394.162 31.7783C382.441 5.70452 335.976 15.3772 258.892 61.5696C257.589 62.3505 257.995 64.3283 259.499 64.5406C264.797 65.2882 269.594 66.6065 273.633 68.7872C261.085 84.9509 263.48 95.8679 276.122 103.187L276.133 103.208C277.171 96.6013 279.91 90.2962 284.217 84.9772L291.579 75.8858C304.351 78.2408 315.813 84.1356 325.981 93.5282C364.261 76.1862 397.473 88.4422 426.229 126.733C407.539 143.133 399.106 165.275 397.018 190.97C392.231 191.514 386.943 195.637 381.556 200.469C384.247 219.103 380.558 235.589 374.886 251.408C372.585 257.825 367.971 263.116 362.025 266.346C373.327 266.878 384.9 263.786 397.478 247.294C400.363 247.86 401.447 250.816 401.608 254.994C401.72 257.87 405.203 259.205 407.202 257.135C413.947 250.152 420.088 242.488 425.161 233.62C427.043 236.329 427.418 243.161 427.291 251.363C427.246 254.218 430.687 255.769 432.742 253.788C441.039 245.789 447.623 232.673 451.697 212.062C436.713 200.167 429.072 180.789 440.853 141.617Z" fill="white"/>
<path d="M342.439 127.782C342.053 126.929 342.17 126.325 342.411 125.802C342.655 125.28 342.914 124.762 343.198 124.256C343.766 123.244 344.443 122.286 345.24 121.432C346.043 120.585 346.915 119.796 347.893 119.15C348.884 118.524 349.997 118.053 351.302 117.992C351.778 117.969 352.183 118.338 352.205 118.814C352.211 118.947 352.187 119.074 352.139 119.188L352.128 119.214C351.64 120.366 351.035 121.217 350.396 122.015L348.433 124.294C347.786 125.052 347.115 125.792 346.432 126.546L345.415 127.698C345.251 127.897 345.063 128.081 344.785 128.215C344.535 128.366 344.18 128.459 343.724 128.506L343.702 128.509C343.155 128.565 342.654 128.257 342.439 127.782Z" fill="white"/>
<path d="M335.99 155.306C335.285 154.356 335.13 153.422 335.126 152.5C335.127 151.577 335.136 150.652 335.159 149.726C335.215 147.874 335.385 146.021 335.703 144.185C336.03 142.352 336.442 140.523 337.038 138.741C337.658 136.969 338.482 135.24 339.745 133.732C340.023 133.4 340.519 133.356 340.852 133.635C341.032 133.786 341.127 134 341.133 134.218L341.133 134.232C341.172 136.139 340.975 137.894 340.734 139.644L339.937 144.865C339.679 146.609 339.399 148.356 339.099 150.114C338.943 150.992 338.802 151.874 338.667 152.759C338.53 153.645 338.267 154.521 337.463 155.382L337.457 155.388C337.096 155.775 336.491 155.795 336.105 155.435C336.063 155.396 336.023 155.35 335.99 155.306Z" fill="white"/>
<path d="M389.482 164.275C388.685 163.047 388.059 161.784 387.496 160.503C386.895 159.238 386.346 157.962 385.849 156.668C385.319 155.388 384.743 154.13 384.195 152.861C383.61 151.611 382.97 150.389 382.363 149.154C379.82 144.275 376.805 139.678 373.233 135.579C372.295 134.599 371.403 133.572 370.451 132.606C369.453 131.688 368.515 130.699 367.471 129.832C365.397 128.079 363.217 126.451 360.926 124.972C356.348 121.997 351.365 119.627 346.166 117.472L346.16 117.469C345.781 117.312 345.601 116.878 345.758 116.499C345.892 116.177 346.226 115.999 346.556 116.049C352.234 116.918 357.796 118.857 362.888 121.72C363.541 122.049 364.154 122.447 364.766 122.847L366.61 124.038C367.837 124.836 368.944 125.803 370.117 126.681C371.266 127.589 372.309 128.623 373.409 129.592C374.474 130.599 375.44 131.703 376.447 132.767C380.345 137.149 383.439 142.166 385.909 147.395C386.485 148.721 387.093 150.034 387.639 151.369C388.149 152.717 388.683 154.055 389.169 155.409C389.616 156.774 390.042 158.149 390.36 159.551C390.639 160.965 390.855 162.396 390.899 163.862C390.911 164.283 390.581 164.634 390.16 164.647C389.885 164.655 389.639 164.516 389.499 164.301L389.482 164.275Z" fill="white"/>
<path d="M331.449 143.102C333.452 142.106 335.603 141.721 337.744 141.622C339.887 141.531 342.037 141.528 344.177 141.654C348.459 141.91 352.7 142.598 356.825 143.659C357.861 143.909 358.89 144.18 359.901 144.507C360.921 144.81 361.934 145.127 362.935 145.477C364.952 146.133 366.933 146.883 368.881 147.704C372.771 149.358 376.53 151.296 380.025 153.689C380.365 153.923 380.452 154.388 380.219 154.728C380.033 155 379.696 155.109 379.396 155.024C375.352 153.881 371.454 152.531 367.547 151.26C366.579 150.917 365.596 150.624 364.62 150.314C363.651 149.982 362.672 149.688 361.692 149.399C360.716 149.095 359.732 148.825 358.745 148.569C357.761 148.301 356.777 148.042 355.789 147.802C351.838 146.845 347.859 146.052 343.842 145.598C341.835 145.347 339.819 145.219 337.8 145.172C336.79 145.144 335.783 145.145 334.76 145.033C333.739 144.952 332.713 144.858 331.64 144.565L331.59 144.551C331.175 144.437 330.931 144.009 331.044 143.594C331.105 143.372 331.259 143.197 331.449 143.102Z" fill="white"/>
<path d="M343.259 160.602C344.118 160.57 344.888 160.688 345.627 160.863C346.377 161.014 347.09 161.229 347.785 161.488C349.188 161.968 350.602 162.401 352.029 162.759C354.875 163.51 357.759 163.996 360.652 164.292C362.101 164.423 363.552 164.529 365.01 164.544C366.466 164.542 367.922 164.479 369.385 164.391C372.314 164.205 375.242 163.814 378.312 163.477C378.727 163.428 379.102 163.725 379.15 164.14C379.185 164.44 379.034 164.722 378.794 164.871C376.075 166.533 373.013 167.579 369.864 168.158C369.072 168.271 368.281 168.408 367.483 168.498C366.683 168.551 365.883 168.63 365.08 168.658C363.475 168.707 361.863 168.709 360.261 168.562C357.054 168.298 353.905 167.566 350.888 166.55C349.382 166.026 347.91 165.427 346.465 164.784C345.026 164.13 343.666 163.275 342.603 161.924C342.325 161.57 342.386 161.056 342.74 160.778C342.881 160.667 343.048 160.61 343.214 160.604L343.259 160.602Z" fill="white"/>
<path d="M347.203 143.975C346.349 151.302 350.445 157.804 356.36 158.501C361.459 159.102 366.238 155.19 368.022 149.41C360.908 146.752 353.953 144.867 347.203 143.975Z" fill="white"/>
<path d="M339.535 109.983C342.359 109.474 345.218 109.625 347.975 110.141L350.049 110.527L352.099 111.001C353.472 111.301 354.822 111.677 356.168 112.065C361.548 113.636 366.754 115.704 371.76 118.129C374.275 119.318 376.722 120.637 379.144 121.987C381.569 123.33 383.959 124.734 386.286 126.228C390.946 129.211 395.432 132.449 399.602 136.094C399.911 136.364 399.942 136.834 399.672 137.143C399.443 137.405 399.069 137.466 398.773 137.315C393.859 134.813 389.115 132.116 384.346 129.494C383.162 128.825 381.973 128.167 380.771 127.534C379.58 126.884 378.396 126.217 377.187 125.606C374.79 124.335 372.349 123.164 369.919 121.983C365.031 119.679 360.073 117.552 354.985 115.842C353.715 115.407 352.442 114.982 351.149 114.633L349.216 114.083L347.265 113.62C345.968 113.277 344.658 113.038 343.359 112.666C342.058 112.299 340.747 112.003 339.43 111.455L339.377 111.433C338.99 111.271 338.806 110.826 338.968 110.439C339.07 110.193 339.291 110.028 339.535 109.983Z" fill="white"/>
<path d="M281.479 100.817C283.118 100.24 284.741 100.249 286.316 100.46C287.892 100.677 289.463 100.937 291.02 101.253C294.129 101.909 297.193 102.754 300.162 103.836C301.653 104.358 303.109 104.971 304.559 105.583C306.013 106.187 307.443 106.842 308.847 107.546C311.649 108.97 314.354 110.579 316.831 112.581C317.155 112.843 317.205 113.318 316.943 113.643C316.753 113.879 316.446 113.969 316.17 113.9C313.103 113.129 310.204 112.085 307.326 111.027L303.037 109.406C301.609 108.868 300.166 108.382 298.733 107.879C295.859 106.894 292.991 105.917 290.079 105.098C288.629 104.668 287.165 104.292 285.692 103.956C284.956 103.781 284.221 103.62 283.497 103.332C282.77 103.072 282.046 102.773 281.327 102.285L281.291 102.26C280.919 102.007 280.822 101.5 281.075 101.128C281.177 100.978 281.32 100.873 281.479 100.817Z" fill="white"/>
<path d="M288.334 110.429C289.36 110.519 290.332 110.766 291.268 111.09C292.18 111.458 293.083 111.862 293.929 112.362C294.761 112.883 295.616 113.374 296.432 113.924C297.234 114.493 298.071 115.022 298.848 115.628C301.992 118.013 304.848 120.795 307.287 123.893C307.898 124.666 308.52 125.432 309.053 126.26C309.609 127.072 310.174 127.877 310.672 128.723C311.726 130.379 312.667 132.1 313.502 133.865C315.163 137.399 316.414 141.11 317.039 144.947C317.106 145.355 316.828 145.74 316.42 145.807C316.103 145.858 315.8 145.703 315.649 145.44L315.646 145.433C313.754 142.11 312.028 138.817 310.144 135.639C309.705 134.827 309.192 134.06 308.711 133.277C308.252 132.48 307.729 131.726 307.22 130.963C306.206 129.437 305.085 127.99 303.953 126.562C301.653 123.733 299.144 121.085 296.37 118.715C295.694 118.102 294.957 117.563 294.252 116.98C293.533 116.416 292.773 115.907 292.033 115.364C291.269 114.86 290.518 114.332 289.801 113.728C289.064 113.158 288.344 112.544 287.688 111.755L287.658 111.719C287.38 111.384 287.426 110.886 287.761 110.608C287.927 110.47 288.135 110.412 288.334 110.429Z" fill="white"/>
<path d="M284.274 145.258C283.566 143.838 283.404 142.436 283.388 141.033C283.376 139.631 283.367 138.225 283.383 136.812C283.42 133.99 283.571 131.149 284.004 128.296C284.213 126.868 284.519 125.446 284.874 124.023C285.046 123.312 285.283 122.601 285.486 121.893C285.723 121.188 286.028 120.492 286.298 119.797C286.634 119.11 286.983 118.436 287.381 117.779C287.826 117.136 288.225 116.49 288.782 115.919L289.591 115.076C289.898 114.822 290.212 114.581 290.527 114.35L290.994 114.004L291.522 113.735C291.87 113.555 292.227 113.4 292.573 113.247C292.948 113.081 293.386 113.251 293.552 113.626C293.672 113.898 293.616 114.203 293.433 114.414L293.364 114.492C291.615 116.498 290.616 118.706 289.842 121.162C289.481 122.399 289.152 123.654 288.883 124.948C288.62 126.244 288.446 127.57 288.249 128.9C287.887 131.569 287.62 134.294 287.335 137.038C287.185 138.409 287.059 139.789 286.935 141.173C286.808 142.556 286.552 143.941 285.749 145.308C285.514 145.707 285 145.842 284.601 145.607C284.455 145.522 284.344 145.399 284.274 145.258Z" fill="white"/>
<path d="M279.995 135.981C281.765 134.996 283.662 134.599 285.563 134.424C287.467 134.264 289.379 134.162 291.293 134.142C295.12 134.134 298.955 134.428 302.718 135.096C304.603 135.412 306.464 135.85 308.31 136.319C310.16 136.781 311.985 137.325 313.78 137.949C317.365 139.213 320.837 140.786 324.039 142.855C324.387 143.079 324.487 143.543 324.262 143.891C324.089 144.16 323.767 144.279 323.472 144.217C319.791 143.427 316.245 142.462 312.69 141.587C310.916 141.144 309.143 140.713 307.365 140.324C305.586 139.933 303.793 139.625 302.003 139.324C298.42 138.748 294.821 138.291 291.197 138.099C289.386 137.986 287.57 137.95 285.752 137.969C284.843 137.984 283.935 138.004 283.011 137.901C282.089 137.84 281.16 137.732 280.191 137.443L280.154 137.432C279.734 137.307 279.496 136.866 279.621 136.447C279.683 136.241 279.822 136.078 279.995 135.981Z" fill="white"/>
<path d="M291.891 136.143C291.525 142.828 294.076 148.361 297.916 148.814C301.465 149.233 305.106 143.844 306.561 138.026C301.609 136.932 296.719 136.303 291.891 136.143Z" fill="white"/>
<path d="M291.295 153.153C291.925 152.915 292.494 152.841 293.043 152.828C293.599 152.787 294.124 152.84 294.643 152.926L296.204 153.12L297.765 153.249C299.844 153.386 301.906 153.406 303.962 153.319C304.989 153.257 306.018 153.212 307.044 153.095C308.067 152.966 309.089 152.815 310.118 152.653C312.179 152.336 314.244 151.943 316.486 151.705L316.496 151.704C316.92 151.659 317.3 151.965 317.345 152.389C317.372 152.649 317.264 152.895 317.081 153.055C315.31 154.578 313.216 155.619 311.02 156.343C310.469 156.516 309.909 156.663 309.35 156.817C308.786 156.949 308.215 157.049 307.646 157.166C306.503 157.362 305.351 157.533 304.19 157.601C301.869 157.748 299.534 157.593 297.266 157.176L295.576 156.821L293.909 156.4C292.81 156.087 291.744 155.601 290.882 154.57C290.568 154.194 290.618 153.634 290.994 153.32C291.072 153.255 291.157 153.206 291.246 153.172L291.295 153.153Z" fill="white"/>
<path d="M286.095 177.061C285.242 176.536 284.42 175.657 283.919 174.642C283.403 173.618 283.18 172.433 283.269 171.251C283.355 170.071 283.753 168.884 284.448 167.877C284.806 167.383 285.213 166.916 285.683 166.526C286.192 166.086 286.516 165.889 286.932 165.587C290.11 163.368 293.569 161.465 297.285 160.122C299.139 159.445 301.059 158.927 303.01 158.564C303.985 158.381 304.968 158.233 305.956 158.137L306.703 158.061C306.998 158.043 307.294 158.025 307.59 158.032C308.181 158.038 308.774 158.09 309.357 158.204C310.524 158.42 311.652 158.853 312.675 159.468C313.184 159.781 313.665 160.139 314.11 160.538C314.541 160.922 314.996 161.435 315.261 161.747L318.946 165.996L316.931 165.299C320.69 164.564 324.461 163.899 328.228 163.21C330.411 162.758 332.904 162.974 335.015 163.887C336.087 164.328 337.072 164.963 337.951 165.707C338.176 165.887 338.376 166.096 338.587 166.291L339.123 166.84C339.474 167.205 339.812 167.58 340.146 167.957C341.482 169.468 342.644 171.103 343.72 172.768L344.121 173.403C344.276 173.664 344.429 173.926 344.553 174.203C344.807 174.752 345.003 175.327 345.13 175.914C345.375 177.089 345.371 178.309 345.088 179.458C344.85 180.598 344.158 181.73 343.686 182.447C343.182 183.263 342.667 184.071 342.141 184.875C341.092 186.483 340.071 188.106 338.979 189.691C338.747 190.028 338.285 190.113 337.948 189.881C337.652 189.677 337.551 189.296 337.687 188.978C338.446 187.21 339.275 185.48 340.077 183.736C340.476 182.863 340.886 181.995 341.308 181.134C341.781 180.195 342.029 179.621 342.126 178.859C342.239 178.133 342.166 177.392 341.961 176.708C341.853 176.367 341.705 176.042 341.53 175.737C341.443 175.583 341.345 175.438 341.246 175.293L340.845 174.736C339.759 173.241 338.569 171.843 337.33 170.519C337.016 170.191 336.701 169.866 336.376 169.553L335.891 169.092C335.744 168.97 335.61 168.833 335.454 168.723C334.856 168.251 334.191 167.871 333.487 167.596C332.06 167.035 330.566 166.908 329.004 167.258C325.249 168.011 321.499 168.787 317.735 169.493L317.728 169.495C316.956 169.639 316.202 169.347 315.72 168.796L312.033 164.549C311.689 164.149 311.517 163.963 311.252 163.718C310.999 163.491 310.722 163.292 310.437 163.108C309.861 162.745 309.218 162.479 308.544 162.34C308.208 162.264 307.864 162.228 307.519 162.217C307.346 162.207 307.173 162.217 307 162.221L306.348 162.275C305.468 162.341 304.593 162.455 303.723 162.601C301.981 162.888 300.262 163.319 298.569 163.857C295.185 164.943 291.951 166.565 288.911 168.529C288.063 169.081 287.579 169.362 287.159 169.885C286.721 170.375 286.427 170.996 286.248 171.666C285.896 173.036 286.142 174.549 287.127 176.006C287.36 176.351 287.269 176.819 286.925 177.052C286.672 177.223 286.353 177.22 286.109 177.07L286.095 177.061Z" fill="white"/>
<path d="M315.08 180.64C322.368 173.325 331.506 173.192 333.958 179.715C330.054 182.124 326.614 181.278 323.492 178.2C321.736 177.516 318.565 178.854 315.08 180.64Z" fill="white"/>
<path d="M305.845 176.4C302.54 166.772 297.772 165.686 292.158 169.534C293.029 173.137 295.787 174.102 300.681 172.083L302.746 175.351C303.315 176.25 304.382 176.703 305.424 176.487L305.845 176.4Z" fill="white"/>
<path d="M305.81 182.98C306.314 184.279 306.27 185.497 306.054 186.671C305.834 187.844 305.595 189.018 305.314 190.186C304.752 192.52 304.003 194.821 303.035 197.038C302.567 198.152 302.005 199.228 301.429 200.294C300.865 201.365 300.236 202.405 299.545 203.403C298.153 205.388 296.508 207.222 294.472 208.618C294.123 208.857 293.645 208.768 293.406 208.419C293.253 208.197 293.234 207.923 293.329 207.691L293.335 207.677C294.263 205.477 295.292 203.479 296.282 201.46C296.535 200.959 296.79 200.461 297.023 199.951C297.275 199.452 297.528 198.953 297.755 198.441C298.235 197.43 298.655 196.391 299.089 195.358C299.946 193.287 300.754 191.19 301.52 189.058C301.911 187.995 302.266 186.915 302.605 185.828C302.767 185.281 302.968 184.745 303.253 184.223C303.522 183.697 303.856 183.183 304.362 182.695L304.39 182.668C304.737 182.333 305.29 182.343 305.624 182.691C305.706 182.775 305.769 182.877 305.81 182.98Z" fill="white"/>
<path d="M288.614 210.591C287.432 210.977 286.448 211.54 285.479 212.213C285.219 212.396 285.078 212.54 284.876 212.695C284.715 212.878 284.539 213.035 284.406 213.229C284.108 213.586 283.888 213.992 283.727 214.418C283.399 215.266 283.395 216.247 283.715 217.073C283.857 217.494 284.092 217.873 284.383 218.203C284.518 218.376 284.688 218.522 284.858 218.666C285.023 218.817 285.304 219.014 285.529 219.176C286.49 219.844 287.53 220.411 288.638 220.868C289.191 221.097 289.76 221.299 290.341 221.477L290.779 221.606C290.978 221.67 291.249 221.756 291.473 221.85C291.938 222.051 292.392 222.293 292.797 222.606C293.622 223.213 294.275 224.046 294.701 224.987C295.113 225.933 295.281 226.999 295.169 228.034C294.963 230.101 293.602 231.999 291.715 232.86C291.253 233.079 290.734 233.24 290.256 233.329L289.271 233.516L287.295 233.868L285.388 234.208C284.965 234.29 284.559 234.452 284.188 234.676C282.675 235.553 281.936 237.575 282.531 239.293C282.692 239.724 282.862 240.101 283.185 240.506C283.528 240.945 283.888 241.371 284.307 241.722C285.118 242.457 286.075 243.028 287.168 243.383C289.346 244.155 291.945 244.087 294.534 243.764L294.546 243.763C294.953 243.712 295.325 244.001 295.376 244.408C295.418 244.75 295.221 245.066 294.917 245.189C292.366 246.222 289.467 246.867 286.422 246.301C284.922 246.003 283.409 245.397 282.143 244.44C281.496 243.98 280.928 243.431 280.397 242.86C279.829 242.265 279.313 241.47 278.986 240.657C278.316 239.01 278.226 237.127 278.765 235.414C279.306 233.7 280.462 232.18 281.985 231.201C282.744 230.709 283.589 230.344 284.474 230.141L286.507 229.719L288.474 229.322L289.46 229.135C289.639 229.099 289.763 229.057 289.907 228.991C290.46 228.736 290.86 228.181 290.92 227.573C290.978 226.989 290.725 226.361 290.232 225.96C290.115 225.854 289.971 225.781 289.829 225.706L289.58 225.608L289.06 225.439C288.369 225.205 287.683 224.939 287.008 224.636C285.661 224.03 284.349 223.285 283.166 222.351C282.861 222.106 282.6 221.908 282.277 221.6C281.951 221.295 281.639 220.977 281.372 220.612C280.822 219.905 280.394 219.094 280.145 218.236C279.611 216.529 279.733 214.654 280.453 213.046C281.123 211.422 282.577 210.108 284.086 209.535C285.481 208.976 287.124 208.696 288.63 209.115C289.036 209.228 289.273 209.649 289.16 210.054C289.09 210.308 288.899 210.496 288.667 210.573L288.614 210.591Z" fill="white"/>
<path d="M230.965 209.49C236.498 216.556 233.736 222.196 227.762 227.284C221.309 223.699 221.412 212.481 230.965 209.49Z" stroke="white" stroke-width="4" stroke-miterlimit="10" stroke-linecap="round" stroke-linejoin="round"/>
<path d="M230.965 209.49L285.477 221.531" stroke="white" stroke-width="4" stroke-miterlimit="10" stroke-linecap="round" stroke-linejoin="round"/>
<path d="M227.763 227.284L285.121 232.132" stroke="white" stroke-width="4" stroke-miterlimit="10" stroke-linecap="round" stroke-linejoin="round"/>
<path d="M277.364 120.974C256.038 106.495 247.893 144.258 264.491 172.996" stroke="white" stroke-width="4" stroke-miterlimit="10" stroke-linecap="round" stroke-linejoin="round"/>
<path d="M263.909 145.115C263.18 143.898 263.003 142.668 263.006 141.44C263.015 140.212 263.039 138.979 263.131 137.728C263.226 136.478 263.382 135.215 263.674 133.932C263.968 132.651 264.375 131.336 265.15 130.013C265.567 129.353 266.051 128.681 266.775 128.104C267.492 127.529 268.428 127.089 269.384 126.947C271.349 126.674 272.867 127.388 274.055 128.094C276.415 129.616 277.993 131.595 279.206 133.803C279.409 134.172 279.274 134.636 278.904 134.839C278.663 134.971 278.383 134.96 278.16 134.834L278.138 134.821C276.026 133.617 274.104 132.239 272.265 131.444C271.368 131.044 270.508 130.876 270.078 131.003C269.857 131.066 269.688 131.163 269.482 131.346C269.282 131.538 269.059 131.847 268.841 132.196C267.988 133.737 267.468 136.006 267.059 138.218C266.846 139.339 266.691 140.491 266.551 141.648C266.407 142.807 266.167 143.968 265.385 145.14L265.377 145.151C265.111 145.55 264.572 145.658 264.173 145.391C264.063 145.318 263.973 145.221 263.909 145.115Z" fill="white"/>
<path d="M475.589 134.658C476.915 134.602 478.231 134.626 479.547 134.648C480.224 134.68 480.801 134.658 481.62 134.754C482.385 134.861 483.141 135.067 483.865 135.368C485.309 135.976 486.613 136.991 487.555 138.299C487.782 138.614 488.015 138.998 488.177 139.298L488.653 140.183C488.967 140.775 489.297 141.36 489.582 141.966C490.768 144.37 491.816 146.839 492.776 149.341C493.692 151.856 494.548 154.398 495.244 156.982C496.669 162.142 497.592 167.423 498.195 172.719C498.492 175.368 498.694 178.026 498.795 180.685C498.861 182.016 498.873 183.34 498.908 184.676L498.862 186.783L498.674 188.883C498.008 194.474 495.705 199.836 492.218 204.225C490.474 206.422 488.432 208.378 486.168 210.025C485.05 210.847 483.813 211.585 482.64 212.237C481.47 212.881 480.287 213.495 479.098 214.097C469.545 218.841 459.405 222.094 449.131 224.364C448.733 224.452 448.338 224.2 448.25 223.802C448.169 223.434 448.378 223.07 448.724 222.946C458.568 219.413 468.274 215.613 477.35 210.725C478.482 210.112 479.608 209.489 480.716 208.839C481.814 208.19 482.81 207.548 483.79 206.802C485.741 205.34 487.492 203.615 488.978 201.689C491.965 197.839 493.833 193.175 494.436 188.361L494.597 186.547L494.636 184.727C494.601 183.445 494.59 182.149 494.525 180.863C494.416 178.288 494.23 175.719 493.996 173.157C493.502 168.037 492.65 162.959 491.416 157.985C490.813 155.492 490.058 153.044 489.245 150.616C488.389 148.204 487.451 145.821 486.378 143.497C486.117 142.913 485.823 142.345 485.556 141.763L485.144 140.896C485.008 140.613 484.908 140.432 484.766 140.206C484.238 139.344 483.47 138.612 482.555 138.087C481.633 137.526 480.645 137.326 479.263 137.054C477.978 136.769 476.693 136.486 475.417 136.123C475.02 136.011 474.789 135.597 474.902 135.2C474.993 134.883 475.277 134.672 475.589 134.658Z" fill="white"/>
<path d="M476.474 144.606C474.381 145.433 472.285 145.732 470.187 145.922C468.09 146.113 466.002 146.337 463.929 146.608C459.786 147.134 455.682 147.814 451.797 148.897C447.961 149.999 444.206 151.6 441.966 154.376C440.806 155.725 440.114 157.404 439.761 159.264C439.389 161.131 439.467 163.167 439.646 165.249L439.648 165.264C439.683 165.675 439.379 166.036 438.968 166.072C438.642 166.1 438.347 165.913 438.221 165.63C437.327 163.614 436.744 161.383 436.76 159.009C436.791 156.658 437.459 154.132 438.917 152.112C439.607 151.073 440.483 150.213 441.378 149.399C442.313 148.648 443.288 147.957 444.308 147.397C446.341 146.256 448.459 145.405 450.607 144.796C454.895 143.54 459.236 142.994 463.538 142.669C465.692 142.526 467.84 142.435 469.983 142.377C472.125 142.329 474.273 142.448 476.425 143.131C476.837 143.262 477.065 143.702 476.934 144.114C476.861 144.346 476.683 144.522 476.474 144.606Z" fill="white"/>
<path d="M446.765 168.708C449.494 164.825 452.87 161.405 456.804 158.579C457.306 158.227 457.777 157.888 458.327 157.55C458.914 157.235 459.461 156.836 460.093 156.603C460.707 156.332 461.327 156.072 461.983 155.911C462.624 155.698 463.289 155.594 463.956 155.492C466.63 155.089 469.389 155.594 471.843 156.706C474.311 157.824 476.402 159.751 477.843 162.068C478.208 162.645 478.483 163.275 478.787 163.885C479.007 164.509 479.281 165.2 479.44 165.778C479.763 166.931 480.078 168.088 480.347 169.261C481.456 173.935 482.03 178.81 481.738 183.732C481.591 186.189 481.213 188.655 480.531 191.054C480.177 192.25 479.778 193.435 479.294 194.588C479.022 195.18 478.852 195.688 478.466 196.369C478.125 197.015 477.698 197.619 477.217 198.17C475.301 200.4 472.398 201.695 469.473 201.63C468.013 201.605 466.559 201.238 465.265 200.587C464.031 199.942 463.01 199.245 462.008 198.414C458.071 195.104 455.424 190.614 454.339 185.697C454.082 184.459 453.935 183.184 454.007 181.855C454.1 180.55 454.352 179.072 455.483 177.82C456.056 177.195 456.917 176.824 457.708 176.734C458.105 176.706 458.496 176.698 458.846 176.776C459.218 176.815 459.541 176.926 459.864 177.035C461.143 177.485 462.15 178.226 463.106 178.977C463.427 179.228 463.483 179.692 463.231 180.013C463.001 180.306 462.594 180.378 462.281 180.197L462.251 180.179C461.286 179.621 460.279 179.129 459.32 178.905C459.082 178.855 458.845 178.8 458.631 178.812C458.402 178.783 458.213 178.829 458.028 178.859C457.682 178.965 457.427 179.107 457.237 179.383C456.85 179.938 456.682 180.91 456.713 181.903C456.746 182.908 456.961 183.957 457.263 184.978C458.481 189.086 461.066 192.896 464.379 195.447C465.185 196.086 466.129 196.669 466.973 197.075C467.772 197.447 468.64 197.627 469.51 197.624C471.256 197.641 472.997 196.824 474.097 195.488C474.668 194.822 474.999 194.097 475.435 193.012C475.838 192.009 476.166 190.976 476.459 189.933C477.007 187.834 477.342 185.668 477.475 183.473C477.759 179.075 477.168 174.6 476.228 170.192C475.995 169.088 475.716 167.991 475.428 166.894C475.286 166.346 475.115 165.955 474.97 165.473C474.752 165.045 474.576 164.59 474.323 164.181C473.331 162.536 471.881 161.139 470.123 160.271C468.372 159.422 466.367 158.972 464.409 159.219C463.922 159.282 463.431 159.334 462.959 159.484C462.474 159.58 462.015 159.765 461.556 159.95C461.08 160.095 460.674 160.401 460.223 160.612C459.771 160.867 459.284 161.195 458.824 161.499C455.091 163.996 451.599 166.953 447.822 169.737C447.492 169.983 447.024 169.915 446.777 169.584C446.58 169.32 446.587 168.964 446.765 168.708Z" fill="white"/>
<path d="M441.657 171.234C442.922 172.235 443.688 173.48 444.297 174.787C444.901 176.097 445.491 177.417 446.049 178.752C447.162 181.424 448.118 184.172 448.862 186.986C449.249 188.388 449.544 189.817 449.824 191.248C450.114 192.676 450.34 194.12 450.489 195.573C450.775 198.479 450.776 201.436 450.179 204.336C450.094 204.746 449.694 205.01 449.284 204.925C448.995 204.866 448.779 204.65 448.706 204.385L448.704 204.377C447.938 201.594 447.362 198.884 446.74 196.179C446.591 195.502 446.447 194.825 446.276 194.153C446.127 193.477 445.981 192.801 445.805 192.13C445.481 190.784 445.094 189.452 444.725 188.114C443.973 185.444 443.173 182.78 442.333 180.114C441.919 178.779 441.472 177.451 441.009 176.127C440.77 175.467 440.568 174.793 440.445 174.082C440.308 173.376 440.23 172.643 440.309 171.835L440.312 171.806C440.356 171.349 440.763 171.014 441.221 171.059C441.387 171.075 441.535 171.138 441.657 171.234Z" fill="white"/>
<path d="M354.598 30.4653C352.496 31.2718 350.405 32.1159 348.556 33.3181C346.732 34.5098 345.122 36.122 344.667 38.0901C344.293 40.07 345.024 42.1308 346.17 43.9204C347.306 45.7348 348.782 47.37 350.333 48.9219C350.701 49.2907 350.701 49.8884 350.332 50.2569C350.115 50.4744 349.817 50.5635 349.534 50.5241L349.518 50.5217L338.43 48.9088C334.736 48.3769 331.042 47.8573 327.347 47.3842C323.655 46.9379 319.946 46.4764 316.272 46.4239C315.358 46.4206 314.441 46.4673 313.585 46.6207C313.17 46.7028 312.743 46.8435 312.532 47.0487C312.327 47.2118 312.362 47.5243 312.588 47.8991C313.041 48.615 313.781 49.2283 314.5 49.7982C315.232 50.3682 315.991 50.9172 316.77 51.4382C315.932 51.0197 315.092 50.5972 314.293 50.0938C313.501 49.578 312.7 49.068 312.056 48.2586C311.907 48.0431 311.749 47.8147 311.691 47.4936C311.621 47.1802 311.724 46.7828 311.939 46.5383C312.368 46.0483 312.882 45.8876 313.356 45.726C314.319 45.4382 315.279 45.3516 316.23 45.2769C318.135 45.1432 320.025 45.1726 321.907 45.2578C323.789 45.3398 325.666 45.4631 327.535 45.6424C331.276 45.9735 334.996 46.4381 338.707 46.9508C342.419 47.4541 346.115 48.0544 349.809 48.6548L348.994 50.2545C347.424 48.5774 345.909 46.816 344.73 44.7696C344.164 43.736 343.656 42.6421 343.395 41.4462L343.208 40.5493C343.188 40.2401 343.184 39.9274 343.174 39.6176C343.101 38.9985 343.309 38.3769 343.401 37.7674C343.505 37.4738 343.633 37.1877 343.749 36.9006L343.93 36.4729L344.184 36.0897L344.699 35.3334C344.898 35.1082 345.115 34.9004 345.322 34.6851C346.151 33.8217 347.165 33.2122 348.175 32.6701C350.223 31.6195 352.4 30.9539 354.598 30.4653Z" fill="white" fill-opacity="0.5"/>
<path d="M339.777 59.8791C337.205 60.5266 334.577 60.8447 331.95 61.0286C329.32 61.2227 326.682 61.2299 324.049 61.1251C322.733 61.0613 321.419 60.956 320.106 60.8423C318.798 60.6758 317.485 60.5639 316.187 60.3198C313.582 59.9177 311.005 59.3108 308.493 58.4819C311.146 58.4899 313.745 58.66 316.349 58.7677L324.138 59.1283C326.731 59.2712 329.327 59.3486 331.929 59.474C334.533 59.5843 337.137 59.7016 339.777 59.8791Z" fill="white" fill-opacity="0.5"/>
<path d="M409.451 49.6489C416.929 54.2816 424.267 59.1363 431.474 64.2018C435.044 66.7857 438.605 69.3733 441.894 72.4027C442.703 73.1932 443.515 73.9362 444.167 75.0676C444.298 75.3761 444.52 75.7179 444.38 76.3437C444.318 76.6505 444.028 76.941 443.806 77.0503C443.574 77.1759 443.361 77.2239 443.184 77.2466C442.456 77.3349 441.893 77.2268 441.316 77.1282C439.06 76.6718 436.988 75.9158 434.9 75.1696C426.6 72.1134 418.629 68.3731 410.515 65.0463C408.491 64.2186 406.455 63.3957 404.418 62.7169C403.91 62.5485 403.402 62.3962 402.909 62.2757C402.663 62.2133 402.423 62.1685 402.21 62.1404C402.118 62.1322 401.996 62.119 401.963 62.1273C401.939 62.127 401.907 62.1299 401.96 62.1232C401.985 62.1164 401.968 62.1151 402.023 62.0935C402.088 62.068 402.15 62.023 402.195 61.9686C402.522 61.5839 402.353 61.3649 402.396 61.4314C402.403 61.4471 402.433 61.5295 402.486 61.6163C402.578 61.7883 402.727 61.9956 402.871 62.1937C403.172 62.5969 403.519 63.0022 403.871 63.4016C406.767 66.5891 410.012 69.5919 413.182 72.6184C416.355 75.6567 419.545 78.6882 422.689 81.7789C424.259 83.3264 425.82 84.8872 427.346 86.4941C428.863 88.1174 430.377 89.7211 431.712 91.6265C432.036 92.1306 432.367 92.5949 432.602 93.3283C432.659 93.505 432.705 93.735 432.71 94.0003C432.697 94.2878 432.644 94.6648 432.311 94.9983C432.229 95.0787 432.137 95.1547 432.047 95.213C431.972 95.2498 431.894 95.2836 431.815 95.3133C431.64 95.3835 431.513 95.3998 431.402 95.4084C431.141 95.4431 430.981 95.4134 430.784 95.4031C430.09 95.3111 429.548 95.1231 428.997 94.9305C428.452 94.7354 427.928 94.5217 427.412 94.2981C425.354 93.4003 423.39 92.3932 421.43 91.3766C417.514 89.3418 413.675 87.197 409.827 85.0751C405.977 82.958 402.12 80.8603 398.209 78.8822C394.294 76.9407 390.333 74.9772 386.186 73.7786C385.157 73.4995 384.091 73.2682 383.095 73.3294C382.606 73.369 382.143 73.5046 381.897 73.81C381.764 73.9298 381.668 74.2118 381.549 74.4119C381.478 74.6418 381.376 74.8701 381.357 75.1119C381.2 76.0794 381.594 77.09 382.192 77.9523C382.785 78.826 383.555 79.5972 384.375 80.3027C386.03 81.7099 387.895 82.8802 389.804 83.9532C391.715 85.0277 393.687 86.0034 395.709 86.8654C391.612 85.2911 387.563 83.4419 384.037 80.7109C383.17 80.0139 382.341 79.2455 381.665 78.321C380.994 77.4161 380.459 76.2605 380.608 75.0132C380.692 74.3903 380.874 73.8454 381.274 73.2899C381.73 72.7183 382.423 72.5366 383.008 72.4659C384.214 72.3544 385.336 72.5772 386.43 72.829C388.614 73.3699 390.682 74.181 392.728 75.0217C394.77 75.8752 396.776 76.7977 398.766 77.7486C402.743 79.6568 406.656 81.6804 410.555 83.7196L422.224 89.8406C424.172 90.8346 426.131 91.8198 428.11 92.6662C429.077 93.07 430.143 93.4999 430.985 93.6169C431.062 93.6175 431.177 93.6332 431.189 93.6206C431.217 93.6226 431.225 93.6189 431.176 93.6286C431.161 93.6344 431.147 93.6443 431.137 93.6571C431.1 93.672 431.056 93.6992 431.025 93.7338C430.906 93.8847 430.9 93.9634 430.904 93.9837C430.897 93.9756 430.9 93.9319 430.869 93.848C430.775 93.5279 430.488 93.0621 430.209 92.6528C429.009 90.9604 427.492 89.3547 425.996 87.7827C424.484 86.2115 422.925 84.6731 421.353 83.1458C418.206 80.0923 414.997 77.0923 411.804 74.0648C408.638 70.9983 405.436 68.0035 402.438 64.6605C402.067 64.2332 401.7 63.8004 401.346 63.3209C401.17 63.0732 400.996 62.8335 400.827 62.5212C400.743 62.3709 400.658 62.2003 400.583 61.9551C400.544 61.7673 400.341 61.2366 400.857 60.6413C400.958 60.548 401.077 60.464 401.199 60.3997C401.313 60.3427 401.367 60.3367 401.457 60.3083C401.642 60.2554 401.748 60.2551 401.86 60.2484C402.102 60.2333 402.255 60.2587 402.436 60.2751C402.767 60.32 403.067 60.3825 403.353 60.4558C403.928 60.6005 404.471 60.769 405.005 60.9497C407.135 61.6765 409.173 62.5191 411.211 63.3684C419.334 66.7968 427.316 70.4914 435.441 73.7368C437.471 74.5137 439.535 75.3032 441.585 75.7596C442.083 75.8657 442.624 75.9436 442.991 75.8998C443.085 75.8956 443.144 75.8677 443.153 75.8664C443.166 75.8494 443.101 75.9321 443.091 75.9645C443.096 76.0488 443.081 75.8421 442.983 75.6657C442.557 74.8726 441.771 74.0529 441.02 73.3078C437.903 70.3058 434.38 67.6424 430.897 64.9873C423.907 59.6717 416.68 54.6567 409.451 49.6489Z" fill="white" fill-opacity="0.5"/>
<path d="M394.325 214.369C395.485 211.451 397.008 208.708 398.896 206.147C399.379 205.51 399.878 204.882 400.455 204.283C400.74 203.981 401.054 203.69 401.404 203.409C401.764 203.136 402.147 202.849 402.77 202.686C403.09 202.62 403.491 202.584 403.899 202.755C404.098 202.831 404.261 202.942 404.427 203.085C404.578 203.245 404.769 203.485 404.805 203.626C405.077 204.304 405.033 204.743 405.033 205.192C404.999 206.072 404.86 206.859 404.712 207.647C404.092 210.761 403.208 213.731 402.563 216.712C402.399 217.454 402.26 218.195 402.156 218.916C402.101 219.276 402.06 219.633 402.043 219.966C402.022 220.294 402.038 220.633 402.084 220.786C402.092 220.828 402.101 220.871 402.099 220.842C402.099 220.842 402.091 220.835 402.083 220.836C402.075 220.826 402.053 220.781 402.026 220.764C401.917 220.684 401.74 220.638 401.716 220.664C401.671 220.691 401.937 220.551 402.14 220.357C402.587 219.929 403.033 219.334 403.447 218.73C405.101 216.247 406.5 213.463 408.011 210.746C408.773 209.38 409.525 208.015 410.483 206.667C410.734 206.328 410.986 205.999 411.333 205.66C411.494 205.494 411.698 205.32 411.964 205.152C412.136 205.069 412.216 204.985 412.482 204.926C412.718 204.861 412.952 204.842 413.186 204.894C413.655 204.98 413.926 205.201 414.15 205.381C414.356 205.567 414.529 205.755 414.665 205.933C414.953 206.295 415.17 206.642 415.384 206.988C416.983 209.718 418.381 212.372 420.567 214.367C421.648 215.355 422.913 216.098 424.295 216.571C425.686 217.02 427.189 217.139 428.695 217.029C428.898 217.012 429.077 217.163 429.093 217.366C429.109 217.555 428.977 217.722 428.797 217.759C427.235 218.068 425.582 218.066 423.979 217.702C422.373 217.328 420.884 216.518 419.607 215.495C417.017 213.447 415.395 210.529 413.804 207.987C413.602 207.679 413.395 207.376 413.191 207.139C413.015 206.891 412.719 206.726 412.86 206.804C412.9 206.802 412.946 206.812 412.993 206.804C413.061 206.762 412.991 206.823 412.987 206.819C412.933 206.862 412.831 206.935 412.73 207.053C412.524 207.259 412.314 207.556 412.105 207.839C411.274 209.023 410.528 210.379 409.792 211.723C408.307 214.428 406.944 217.21 405.18 219.902C404.72 220.574 404.249 221.241 403.583 221.893C403.208 222.201 402.853 222.585 402.037 222.754C401.803 222.764 401.616 222.815 401.343 222.729C401.081 222.66 400.837 222.558 400.648 222.373C400.553 222.289 400.447 222.19 400.383 222.102C400.329 222.017 400.277 221.93 400.228 221.841C400.117 221.648 400.08 221.503 400.04 221.356C399.885 220.76 399.901 220.312 399.916 219.869C399.935 219.429 399.982 219.015 400.041 218.609C400.164 217.797 400.333 217.018 400.514 216.25C401.236 213.186 402.173 210.221 402.814 207.265C402.966 206.534 403.102 205.791 403.139 205.122C403.167 204.803 403.125 204.442 403.097 204.4C403.091 204.346 403.113 204.461 403.16 204.46C403.181 204.484 403.182 204.471 403.201 204.484C403.25 204.491 403.245 204.491 403.189 204.493C403.056 204.515 402.773 204.666 402.523 204.863C402.266 205.062 402.004 205.292 401.753 205.55C401.245 206.057 400.766 206.635 400.303 207.225C398.455 209.611 396.779 212.2 394.974 214.719C394.857 214.887 394.626 214.928 394.457 214.811C394.314 214.712 394.265 214.525 394.325 214.369Z" fill="#B0F3CC"/>
<path d="M213.998 292.188L221.868 300.843C229.598 309.346 233.115 320.868 231.464 332.241C230.717 337.385 229.665 341.916 228.263 345.745C235.614 362.971 247.483 362.654 241.01 382.064C280.335 419.503 268.374 435.088 229.097 487.176C207.091 496.689 183.048 497.011 156.784 487.307C149.628 484.662 143.839 479.206 140.858 472.183C134.292 456.714 129.666 440.466 131.288 421.709C125.634 417.192 120.119 413.378 115.309 413.108C111.756 387.576 102.072 365.951 82.4749 350.646C108.995 310.774 141.453 296.641 180.661 311.767C190.276 301.809 201.382 295.268 213.998 292.188Z" stroke="white" stroke-width="4" stroke-miterlimit="10" stroke-linecap="round" stroke-linejoin="round"/>
<path d="M272.682 424.776L248.259 431.655L250.575 444.789L269.243 442.71" fill="white" fill-opacity="0.5"/>
<path d="M68.7245 366.341C56.8265 362.811 45.1412 361.094 33.7758 362.105C36.9701 348.483 42.4227 334.813 50.0443 321.097C44.1213 323.917 38.1884 326.974 32.2369 330.473C30.5514 331.464 28.6331 329.598 29.585 327.89C59.1087 274.928 86.6327 240.659 109.063 254.014C119.275 227.313 166.216 234.314 245.814 276.027C247.16 276.732 246.868 278.73 245.378 279.027C240.131 280.077 235.417 281.667 231.51 284.075C244.961 299.495 243.194 310.531 230.99 318.561L230.981 318.582C229.567 312.045 226.472 305.907 221.868 300.843L213.998 292.187C201.382 295.268 190.276 301.808 180.661 311.767C141.453 296.64 108.995 310.774 82.4748 350.646C102.072 365.951 111.756 387.575 115.309 413.108C120.119 413.378 125.634 417.192 131.288 421.708C129.666 440.465 134.292 456.714 140.858 472.183C143.522 478.459 148.431 483.476 154.551 486.362C143.298 487.538 131.567 485.113 118.068 469.367C115.22 470.096 114.307 473.11 114.384 477.291C114.437 480.168 111.036 481.7 108.922 479.748C101.789 473.161 95.2203 465.86 89.6486 457.297C87.9243 460.11 87.9409 466.952 88.5365 475.133C88.7438 477.98 85.3977 479.726 83.2328 477.865C74.4921 470.353 67.1695 457.635 61.9238 437.29C76.2041 424.559 82.7251 404.776 68.7245 366.341Z" fill="white"/>
<path d="M164.946 347.701C164.488 347.68 164.129 347.608 163.87 347.471C163.584 347.353 163.386 347.181 163.212 346.991L162.13 345.9C161.405 345.186 160.694 344.485 160.004 343.765L157.914 341.602C157.231 340.842 156.578 340.027 156.025 338.904L156.014 338.883C155.803 338.455 155.979 337.937 156.407 337.726C156.526 337.668 156.656 337.639 156.78 337.637C158.085 337.623 159.224 338.031 160.249 338.599C161.262 339.188 162.178 339.926 163.028 340.725C163.873 341.532 164.604 342.45 165.229 343.428C165.541 343.917 165.829 344.42 166.103 344.927C166.372 345.435 166.524 346.032 166.188 346.905C165.991 347.418 165.491 347.726 164.97 347.703L164.946 347.701Z" fill="white"/>
<path d="M172.732 374.175C171.88 373.362 171.568 372.502 171.381 371.626C171.195 370.75 171.004 369.877 170.798 369.009C170.398 367.272 170.018 365.544 169.662 363.817L168.567 358.65C168.227 356.917 167.93 355.175 167.86 353.27L167.859 353.259C167.843 352.825 168.182 352.46 168.616 352.444C168.851 352.436 169.067 352.533 169.217 352.691C170.564 354.124 171.486 355.804 172.206 357.538C172.903 359.282 173.418 361.084 173.85 362.896C174.272 364.711 174.548 366.551 174.709 368.397C174.785 369.32 174.847 370.243 174.901 371.164C174.949 372.085 174.849 373.027 174.199 374.015C173.909 374.457 173.315 374.579 172.874 374.289C172.826 374.258 172.782 374.223 172.742 374.185L172.732 374.175Z" fill="white"/>
<path d="M119.869 385.696C119.829 384.229 119.962 382.788 120.16 381.361C120.398 379.942 120.744 378.546 121.112 377.157C121.52 375.778 121.977 374.411 122.409 373.036C122.878 371.672 123.409 370.327 123.909 368.969C126.077 363.608 128.879 358.422 132.52 353.825C133.465 352.706 134.366 351.548 135.371 350.482C136.415 349.452 137.396 348.36 138.492 347.388C139.613 346.444 140.662 345.415 141.842 344.548L143.615 343.254C144.203 342.82 144.792 342.388 145.425 342.021C150.345 338.873 155.788 336.618 161.406 335.426C161.807 335.341 162.202 335.598 162.287 335.999C162.359 336.34 162.185 336.676 161.884 336.822L161.877 336.825C156.81 339.273 151.97 341.925 147.569 345.156C145.367 346.764 143.284 348.514 141.314 350.382C140.321 351.307 139.44 352.348 138.497 353.322C137.602 354.34 136.77 355.417 135.889 356.449C132.557 360.745 129.81 365.507 127.55 370.523C127.014 371.791 126.445 373.047 125.933 374.33C125.458 375.627 124.955 376.916 124.499 378.224C124.076 379.545 123.602 380.85 123.074 382.147C122.585 383.458 122.032 384.756 121.306 386.027L121.292 386.053C121.083 386.418 120.618 386.545 120.252 386.336C120.013 386.2 119.876 385.952 119.869 385.696Z" fill="white"/>
<path d="M177.927 363.043C176.873 363.397 175.854 363.549 174.84 363.688C173.825 363.859 172.82 363.916 171.813 364.002C169.8 364.163 167.794 364.406 165.805 364.771C161.821 365.455 157.893 366.473 154.003 367.655C153.03 367.951 152.063 368.266 151.096 368.59C150.125 368.901 149.158 369.227 148.201 369.587C147.24 369.931 146.279 370.281 145.33 370.667C144.373 371.033 143.409 371.382 142.462 371.779C138.634 373.271 134.819 374.842 130.847 376.214C130.458 376.351 130.031 376.145 129.895 375.756C129.786 375.445 129.898 375.109 130.144 374.918C133.496 372.329 137.138 370.179 140.927 368.305C142.825 367.375 144.76 366.512 146.736 365.742C147.716 365.335 148.709 364.961 149.709 364.6C150.7 364.216 151.712 363.886 152.732 363.578C156.789 362.283 160.985 361.354 165.244 360.853C167.374 360.605 169.521 360.485 171.666 360.454C173.809 360.43 175.978 360.692 178.035 361.571C178.43 361.741 178.614 362.199 178.445 362.594C178.354 362.806 178.181 362.957 177.979 363.026L177.927 363.043Z" fill="white"/>
<path d="M167.974 381.001C166.991 382.41 165.682 383.341 164.283 384.076C162.877 384.802 161.441 385.483 159.968 386.092C157.014 387.279 153.911 388.19 150.725 388.637C149.134 388.875 147.525 388.965 145.919 389.008C145.116 389.026 144.313 388.992 143.511 388.986C142.71 388.941 141.911 388.85 141.115 388.783C137.937 388.384 134.821 387.515 132.012 386.011C131.644 385.814 131.505 385.357 131.702 384.989C131.845 384.723 132.13 384.577 132.412 384.591C135.497 384.753 138.442 384.975 141.377 384.994C142.843 384.999 144.3 384.978 145.755 384.897C147.209 384.798 148.652 384.61 150.09 384.396C152.962 383.935 155.813 383.285 158.612 382.373C160.016 381.934 161.403 381.421 162.777 380.861C163.456 380.563 164.155 380.308 164.895 380.115C165.623 379.897 166.385 379.735 167.245 379.718L167.289 379.717C167.74 379.709 168.112 380.067 168.121 380.518C168.125 380.697 168.07 380.864 167.974 381.001Z" fill="white"/>
<path d="M162.356 363.343C163.628 370.61 159.91 377.335 154.044 378.369C148.989 379.261 143.994 375.629 141.882 369.959C148.833 366.899 155.668 364.62 162.356 363.343Z" fill="white"/>
<path d="M168.259 330.432C166.976 331.055 165.684 331.426 164.406 331.866C163.129 332.312 161.836 332.625 160.56 333.041L158.639 333.616L156.74 334.275C155.47 334.697 154.223 335.194 152.98 335.702C147.998 337.699 143.169 340.106 138.421 342.685C136.063 344.004 133.692 345.312 131.372 346.718C130.2 347.397 129.056 348.13 127.904 348.848C126.741 349.548 125.591 350.273 124.446 351.008C119.835 353.899 115.254 356.863 110.49 359.641C110.136 359.849 109.681 359.731 109.473 359.377C109.297 359.077 109.357 358.703 109.593 358.47C113.548 354.592 117.841 351.103 122.323 347.859C124.562 346.234 126.867 344.696 129.212 343.216C131.552 341.731 133.92 340.274 136.363 338.943C141.222 336.236 146.302 333.874 151.583 331.998C152.905 331.533 154.231 331.081 155.585 330.703L157.605 330.113L159.652 329.609C162.376 328.936 165.221 328.622 168.07 328.968C168.487 329.019 168.784 329.398 168.733 329.815C168.701 330.079 168.537 330.295 168.315 330.405L168.259 330.432Z" fill="white"/>
<path d="M225.742 317.957C225.053 318.486 224.347 318.825 223.636 319.126C222.93 319.455 222.205 319.658 221.48 319.874C220.029 320.295 218.589 320.754 217.165 321.265C214.305 322.249 211.498 323.389 208.685 324.536C207.283 325.12 205.87 325.689 204.475 326.307L200.285 328.17C197.473 329.391 194.638 330.599 191.62 331.544C191.223 331.67 190.798 331.449 190.673 331.052C190.581 330.762 190.675 330.457 190.885 330.265C193.243 328.125 195.852 326.364 198.568 324.783C199.93 323.999 201.32 323.264 202.737 322.577C204.15 321.883 205.568 321.188 207.027 320.582C209.929 319.332 212.94 318.314 216.006 317.481C217.543 317.076 219.096 316.727 220.658 316.42C222.218 316.119 223.838 316.018 225.507 316.5C225.94 316.625 226.189 317.077 226.064 317.51C226.014 317.684 225.911 317.828 225.777 317.93L225.742 317.957Z" fill="white"/>
<path d="M219.933 327.776C219.324 328.601 218.64 329.255 217.936 329.866C217.255 330.51 216.535 331.08 215.801 331.627C215.094 332.211 214.365 332.763 213.679 333.368C213.008 333.99 212.303 334.57 211.663 335.221C209.029 337.745 206.675 340.532 204.541 343.488C203.493 344.978 202.456 346.487 201.53 348.069C201.066 348.859 200.587 349.642 200.175 350.464C199.739 351.273 199.271 352.068 198.879 352.904C197.179 356.184 195.644 359.57 193.946 362.996L193.943 363.001C193.759 363.372 193.31 363.523 192.939 363.34C192.651 363.197 192.496 362.893 192.527 362.591C192.931 358.724 193.968 354.948 195.425 351.325C196.158 349.515 196.999 347.743 197.957 346.029C198.406 345.156 198.923 344.32 199.432 343.478C199.917 342.621 200.494 341.82 201.06 341.014C203.318 337.782 206.01 334.84 209.013 332.28C209.754 331.63 210.559 331.054 211.327 330.441C212.111 329.845 212.936 329.306 213.738 328.738C214.553 328.191 215.431 327.736 216.321 327.316C217.237 326.94 218.193 326.637 219.212 326.488C219.643 326.425 220.044 326.724 220.107 327.155C220.138 327.369 220.081 327.575 219.962 327.736L219.933 327.776Z" fill="white"/>
<path d="M223.787 361.163C222.907 359.844 222.572 358.476 222.366 357.103C222.164 355.728 221.958 354.358 221.73 352.997C221.289 350.274 220.867 347.569 220.353 344.925C220.08 343.608 219.83 342.295 219.494 341.015C219.151 339.739 218.751 338.505 218.32 337.29C217.408 334.883 216.283 332.735 214.423 330.833L214.35 330.759C214.064 330.466 214.069 329.996 214.362 329.709C214.574 329.501 214.881 329.447 215.142 329.545C215.496 329.677 215.861 329.812 216.218 329.971L216.761 330.21L217.247 330.529C217.575 330.741 217.902 330.964 218.223 331.2L219.079 331.995C219.667 332.534 220.103 333.156 220.584 333.773C221.019 334.406 221.406 335.058 221.781 335.725C222.09 336.404 222.434 337.081 222.711 337.771C222.954 338.467 223.231 339.163 223.444 339.863C223.879 341.263 224.266 342.665 224.557 344.079C225.152 346.902 225.465 349.731 225.663 352.546C225.759 353.955 225.832 355.359 225.9 356.76C225.964 358.162 225.882 359.571 225.256 361.029C225.074 361.455 224.58 361.652 224.154 361.469C223.999 361.402 223.874 361.294 223.787 361.163Z" fill="white"/>
<path d="M228.885 352.993C227.935 353.337 227.013 353.497 226.097 353.612C225.18 353.767 224.272 353.799 223.364 353.836C221.547 353.92 219.737 354.06 217.935 354.276C214.328 354.675 210.761 355.337 207.217 356.117C205.447 356.52 203.675 356.93 201.921 357.422C200.168 357.912 198.422 358.444 196.676 358.987C193.177 360.063 189.693 361.23 186.063 362.228C185.664 362.34 185.25 362.107 185.139 361.709C185.052 361.401 185.176 361.081 185.419 360.901C188.497 358.653 191.873 356.884 195.38 355.417C197.137 354.692 198.928 354.044 200.748 353.478C202.565 352.903 204.397 352.36 206.261 351.937C209.981 351.055 213.792 350.542 217.613 350.331C219.526 350.242 221.44 350.234 223.35 350.285C225.258 350.352 227.174 350.64 228.998 351.522C229.392 351.712 229.557 352.186 229.366 352.58C229.273 352.773 229.111 352.911 228.925 352.979L228.885 352.993Z" fill="white"/>
<path d="M217.13 352.364C217.878 359.017 215.647 364.687 211.839 365.358C208.32 365.979 204.377 360.808 202.592 355.082C207.474 353.707 212.32 352.799 217.13 352.364Z" fill="white"/>
<path d="M219.191 370.703C218.39 371.782 217.353 372.329 216.274 372.703L214.634 373.219L212.966 373.67C210.726 374.216 208.403 374.504 206.078 374.49C204.915 374.488 203.755 374.384 202.603 374.253C202.028 374.169 201.452 374.101 200.882 374.002C200.315 373.88 199.747 373.765 199.187 373.624C196.953 373.027 194.803 372.107 192.948 370.688C192.61 370.429 192.546 369.945 192.805 369.607C192.964 369.399 193.207 369.295 193.45 369.305L193.465 369.306C195.717 369.416 197.801 369.69 199.877 369.889C200.913 369.992 201.942 370.084 202.971 370.155C204.002 370.213 205.032 370.199 206.061 370.202C208.119 370.172 210.176 370.034 212.244 369.778L213.795 369.56L215.342 369.277C215.855 369.161 216.377 369.078 216.934 369.088C217.483 369.069 218.055 369.111 218.698 369.313L218.744 369.327C219.212 369.474 219.472 369.973 219.325 370.44C219.295 370.536 219.247 370.627 219.191 370.703Z" fill="white"/>
<path d="M224.165 391.89C225.065 390.378 225.224 388.854 224.795 387.507C224.578 386.847 224.248 386.245 223.783 385.78C223.334 385.282 222.835 385.029 221.956 384.527C218.809 382.74 215.488 381.305 212.047 380.415C210.327 379.974 208.586 379.642 206.83 379.454C205.953 379.359 205.072 379.295 204.191 379.279L203.536 379.263C203.363 379.269 203.19 379.269 203.018 379.288C202.674 379.319 202.333 379.375 202.002 379.469C201.337 379.647 200.71 379.949 200.156 380.344C199.881 380.545 199.616 380.759 199.377 381C199.127 381.26 198.965 381.455 198.645 381.874L195.206 386.325C194.726 386.946 193.972 387.23 193.245 387.138L193.235 387.136C189.437 386.646 185.648 386.086 181.856 385.549C180.277 385.289 178.793 385.5 177.4 386.142C176.713 386.457 176.071 386.875 175.5 387.38C175.351 387.499 175.225 387.643 175.085 387.773L174.627 388.261C174.321 388.592 174.025 388.935 173.731 389.28C172.569 390.673 171.46 392.137 170.462 393.691L170.093 394.27C170.003 394.42 169.914 394.571 169.836 394.73C169.678 395.044 169.549 395.377 169.461 395.724C169.295 396.418 169.264 397.162 169.418 397.88C169.559 398.635 169.839 399.194 170.366 400.106C170.836 400.941 171.294 401.783 171.743 402.632C172.643 404.328 173.569 406.007 174.428 407.729C174.611 408.096 174.462 408.541 174.096 408.723C173.774 408.884 173.392 408.788 173.179 408.515C171.999 406.995 170.886 405.433 169.748 403.887C169.177 403.115 168.616 402.337 168.066 401.552C167.554 400.863 166.798 399.773 166.496 398.648C166.148 397.517 166.074 396.3 166.251 395.112C166.345 394.518 166.507 393.934 166.73 393.371C166.837 393.087 166.975 392.817 167.116 392.548L167.479 391.891C168.458 390.167 169.526 388.468 170.773 386.884C171.085 386.488 171.4 386.094 171.73 385.709L172.233 385.131C172.433 384.924 172.621 384.704 172.836 384.512C173.671 383.719 174.617 383.028 175.663 382.526C177.717 381.495 180.195 381.137 182.399 381.463C186.2 381.935 190.003 382.384 193.797 382.903L191.826 383.714L195.262 379.262C195.508 378.935 195.934 378.397 196.342 377.989C196.764 377.565 197.224 377.18 197.713 376.839C198.699 376.166 199.801 375.67 200.954 375.387C201.529 375.239 202.118 375.153 202.708 375.114C203.004 375.09 203.299 375.091 203.595 375.092L204.345 375.125C205.337 375.165 206.328 375.257 207.311 375.384C209.279 375.635 211.225 376.042 213.116 376.612C216.902 377.74 220.465 379.443 223.764 381.476C224.197 381.754 224.531 381.932 225.065 382.342C225.557 382.705 225.989 383.148 226.374 383.621C227.126 384.586 227.592 385.748 227.745 386.922C227.901 388.097 227.746 389.293 227.29 390.344C226.848 391.386 226.077 392.311 225.255 392.884L225.243 392.893C224.902 393.131 224.432 393.047 224.194 392.706C224.02 392.456 224.019 392.136 224.165 391.89Z" fill="white"/>
<path d="M196.522 398.113C188.828 391.227 179.698 391.616 177.622 398.268C181.658 400.451 185.044 399.409 187.985 396.158C189.699 395.374 192.941 396.529 196.522 398.113Z" fill="white"/>
<path d="M205.5 393.352C208.249 383.551 212.948 382.194 218.773 385.715C218.109 389.362 215.41 390.484 210.409 388.747L208.534 392.128C208.018 393.058 206.978 393.572 205.926 393.415L205.5 393.352Z" fill="white"/>
<path d="M207.34 399.552C207.873 400.01 208.235 400.505 208.535 401.014C208.848 401.52 209.08 402.043 209.273 402.58C209.673 403.646 210.089 404.704 210.541 405.743C211.428 407.827 212.354 409.875 213.328 411.894C213.82 412.9 214.299 413.913 214.835 414.895C215.092 415.394 215.372 415.877 215.653 416.361C215.915 416.857 216.198 417.34 216.479 417.825C217.583 419.784 218.724 421.721 219.776 423.864L219.781 423.873C219.967 424.253 219.81 424.713 219.43 424.9C219.188 425.019 218.91 424.996 218.695 424.868C216.583 423.59 214.836 421.854 213.333 419.951C212.585 418.995 211.898 417.993 211.274 416.955C210.638 415.924 210.015 414.882 209.485 413.796C208.392 411.638 207.512 409.384 206.817 407.086C206.47 405.936 206.164 404.778 205.877 403.618C205.596 402.459 205.481 401.246 205.911 399.92C206.06 399.461 206.552 399.21 207.011 399.359C207.123 399.395 207.223 399.452 207.307 399.524L207.34 399.552Z" fill="white"/>
<path d="M224.556 425.03C226.036 424.526 227.692 424.712 229.117 425.19C230.656 425.676 232.183 426.905 232.945 428.488C233.755 430.052 233.984 431.917 233.549 433.651C233.349 434.522 232.968 435.357 232.459 436.094C232.214 436.473 231.921 436.809 231.612 437.132C231.308 437.457 231.059 437.671 230.768 437.933C229.64 438.933 228.372 439.752 227.062 440.433C226.406 440.774 225.737 441.079 225.06 441.352L224.55 441.551L224.308 441.663C224.169 441.745 224.031 441.827 223.919 441.939C223.451 442.368 223.233 443.009 223.325 443.589C223.419 444.193 223.85 444.724 224.417 444.947C224.565 445.005 224.691 445.039 224.872 445.064L225.867 445.196L227.854 445.479L229.907 445.784C230.802 445.937 231.667 446.253 232.453 446.7C234.029 447.59 235.27 449.042 235.908 450.722C236.544 452.402 236.562 454.287 235.987 455.969C235.707 456.8 235.238 457.623 234.704 458.249C234.207 458.85 233.671 459.431 233.051 459.926C231.842 460.954 230.366 461.646 228.885 462.029C225.878 462.768 222.947 462.29 220.341 461.405C219.952 461.273 219.744 460.851 219.876 460.462C219.987 460.136 220.301 459.937 220.629 459.959L220.641 459.96C223.245 460.135 225.844 460.054 227.974 459.158C229.045 458.742 229.968 458.117 230.736 457.337C231.133 456.962 231.469 456.516 231.786 456.059C232.085 455.636 232.233 455.25 232.37 454.81C232.866 453.061 232.012 451.084 230.452 450.296C230.068 450.093 229.654 449.955 229.227 449.897L227.304 449.667L225.311 449.428L224.316 449.298C223.834 449.236 223.307 449.105 222.834 448.913C220.9 448.16 219.432 446.343 219.109 444.292C218.938 443.265 219.045 442.192 219.402 441.223C219.773 440.26 220.378 439.39 221.167 438.738C221.554 438.401 221.992 438.134 222.445 437.906C222.664 437.8 222.93 437.699 223.124 437.624L223.554 437.47C224.124 437.259 224.681 437.025 225.22 436.765C226.3 436.245 227.305 435.619 228.227 434.898C228.443 434.723 228.712 434.51 228.868 434.35C229.029 434.196 229.19 434.041 229.316 433.861C229.587 433.515 229.8 433.122 229.918 432.694C230.19 431.852 230.13 430.872 229.754 430.044C229.569 429.628 229.326 429.235 229.008 428.896C228.864 428.711 228.68 428.563 228.509 428.39C228.298 428.246 228.149 428.111 227.879 427.943C226.873 427.326 225.858 426.821 224.656 426.503L224.607 426.49C224.2 426.382 223.957 425.964 224.065 425.557C224.133 425.303 224.325 425.111 224.556 425.03Z" fill="white"/>
<path d="M282.148 422.109C277.028 429.48 280.108 434.953 286.363 439.692C292.601 435.744 291.857 424.55 282.148 422.109Z" stroke="white" stroke-width="4" stroke-miterlimit="10" stroke-linecap="round" stroke-linejoin="round"/>
<path d="M282.148 422.109L228.414 437.246" stroke="white" stroke-width="4" stroke-miterlimit="10" stroke-linecap="round" stroke-linejoin="round"/>
<path d="M286.363 439.691L229.375 447.809" stroke="white" stroke-width="4" stroke-miterlimit="10" stroke-linecap="round" stroke-linejoin="round"/>
<path d="M230.768 336.389C251.231 320.716 261.52 357.951 246.592 387.591" stroke="white" stroke-width="4" stroke-miterlimit="10" stroke-linecap="round" stroke-linejoin="round"/>
<path d="M244.108 359.831C243.26 358.706 242.954 357.561 242.744 356.412C242.538 355.265 242.318 354.123 242.041 353.017C241.506 350.831 240.857 348.596 239.917 347.106C239.68 346.77 239.44 346.475 239.229 346.294C239.013 346.124 238.839 346.037 238.614 345.986C238.177 345.884 237.329 346.101 236.456 346.551C234.666 347.45 232.826 348.935 230.785 350.259L230.766 350.271C230.412 350.501 229.939 350.4 229.71 350.046C229.561 349.816 229.552 349.534 229.661 349.303C230.746 347.029 232.208 344.963 234.478 343.309C235.624 342.536 237.097 341.737 239.075 341.897C240.038 341.984 240.998 342.37 241.747 342.903C242.502 343.438 243.024 344.081 243.477 344.716C244.327 345.992 244.809 347.282 245.175 348.545C245.54 349.808 245.768 351.06 245.934 352.303C246.098 353.546 246.192 354.776 246.271 356.002C246.345 357.227 246.237 358.465 245.579 359.722C245.357 360.147 244.832 360.311 244.406 360.089C244.29 360.028 244.193 359.944 244.118 359.846L244.108 359.831Z" fill="white"/>
<path d="M33.9039 362.832C32.6507 363.266 31.3836 363.623 30.1169 363.98C28.7525 364.331 27.778 364.587 26.8898 365.2C26.0057 365.777 25.2813 366.551 24.8029 367.442C24.6746 367.675 24.585 367.862 24.465 368.152L24.1038 369.042C23.8706 369.638 23.6088 370.221 23.3817 370.82C22.4437 373.201 21.6429 375.634 20.9267 378.091C20.2539 380.561 19.6392 383.049 19.1805 385.572C18.2325 390.608 17.6715 395.726 17.4716 400.867C17.3841 403.438 17.3452 406.013 17.3839 408.59C17.3924 409.877 17.4548 411.172 17.4935 412.453L17.6362 414.269L17.901 416.07C18.7777 420.842 20.9093 425.392 24.1117 429.065C25.7055 430.903 27.5513 432.525 29.5835 433.873C30.6043 434.562 31.6348 435.146 32.7686 435.731C33.9121 436.317 35.0714 436.875 36.2365 437.422C45.5773 441.783 55.4843 445.023 65.5146 447.987C65.9063 448.102 66.1309 448.512 66.0163 448.904C65.9105 449.265 65.5511 449.484 65.1889 449.426C54.802 447.746 44.4926 445.078 34.6839 440.888C33.4631 440.355 32.2464 439.81 31.0423 439.233C29.8333 438.649 28.5567 437.984 27.3928 437.227C25.039 435.712 22.8886 433.876 21.0221 431.782C17.2891 427.6 14.684 422.378 13.6992 416.834L13.3916 414.748L13.2254 412.647C13.1837 411.311 13.12 409.989 13.1099 408.656C13.0592 405.996 13.1086 403.331 13.2541 400.669C13.5538 395.347 14.1731 390.022 15.3005 384.789C15.848 382.169 16.557 379.583 17.3286 377.019C18.144 374.467 19.0489 371.942 20.096 369.474C20.346 368.853 20.6416 368.25 20.9216 367.641L21.3458 366.73C21.4903 366.422 21.7009 366.025 21.9093 365.697C22.7751 364.337 24.0191 363.249 25.4257 362.56C26.1317 362.218 26.8753 361.97 27.6326 361.819C28.4445 361.677 29.0223 361.665 29.6961 361.594C31.0089 361.497 32.3214 361.398 33.6477 361.379C34.0603 361.372 34.3999 361.702 34.4061 362.114C34.4111 362.445 34.1997 362.728 33.9039 362.832Z" fill="white"/>
<path d="M33.2975 369.885C35.407 369.08 37.5447 368.839 39.6865 368.765C41.8294 368.7 43.9789 368.669 46.1376 368.688C50.4511 368.766 54.8163 369.063 59.169 370.072C61.3481 370.558 63.5115 371.287 65.6064 372.309C66.6559 372.81 67.669 373.444 68.6453 374.14C69.5854 374.902 70.5095 375.711 71.2574 376.708C72.8287 378.642 73.6395 381.126 73.805 383.471C73.9571 385.84 73.5021 388.1 72.7249 390.165C72.5797 390.551 72.149 390.746 71.763 390.601C71.4571 390.486 71.2711 390.191 71.2795 389.882L71.2801 389.866C71.34 387.777 71.3023 385.74 70.8238 383.897C70.3648 382.06 69.5781 380.423 68.3426 379.143C65.9479 376.499 62.1074 375.116 58.2144 374.235C54.274 373.376 50.1382 372.931 45.9724 372.642C43.8871 372.49 41.7894 372.386 39.685 372.315C37.5793 372.246 35.4699 372.067 33.3333 371.36C32.9224 371.226 32.6983 370.784 32.8327 370.373C32.9084 370.142 33.0873 369.968 33.2975 369.885Z" fill="white"/>
<path d="M63.3737 394.813C59.4443 392.249 55.789 389.497 51.9195 387.218C51.4426 386.94 50.9374 386.641 50.4716 386.412C50.0098 386.227 49.5872 385.945 49.1032 385.827C48.6341 385.668 48.1661 385.51 47.6757 385.442C47.1965 385.319 46.7032 385.295 46.2128 385.26C44.2447 385.125 42.2686 385.69 40.5685 386.637C38.8627 387.604 37.4952 389.081 36.5988 390.78C36.3693 391.204 36.2198 391.667 36.0268 392.108C35.9092 392.597 35.7608 392.997 35.6503 393.553C35.4262 394.664 35.2097 395.775 35.0403 396.891C34.3543 401.345 34.0195 405.847 34.5541 410.221C34.8131 412.405 35.2712 414.548 35.9381 416.612C36.2903 417.637 36.6767 418.65 37.1367 419.628C37.6339 420.686 38.0056 421.392 38.614 422.024C39.7885 423.294 41.5734 424.011 43.3153 423.894C44.184 423.848 45.0404 423.618 45.8168 423.201C46.6361 422.748 47.5456 422.111 48.3133 421.427C51.4748 418.691 53.8378 414.74 54.8193 410.569C55.0632 409.532 55.2176 408.472 55.1927 407.467C55.1672 406.474 54.9435 405.513 54.5257 404.981C54.3199 404.717 54.0579 404.59 53.7058 404.503C53.5201 404.484 53.3279 404.449 53.1019 404.491C52.8875 404.492 52.6539 404.559 52.4186 404.623C51.4742 404.902 50.4974 405.451 49.5657 406.063L49.5366 406.082C49.1959 406.306 48.7382 406.211 48.5143 405.87C48.31 405.559 48.3715 405.15 48.6433 404.911C49.555 404.107 50.518 403.309 51.769 402.787C52.0848 402.66 52.4009 402.531 52.7701 402.47C53.1157 402.373 53.5067 402.359 53.9044 402.364C54.6987 402.408 55.5798 402.73 56.1871 403.321C57.3879 404.506 57.7244 405.967 57.8918 407.265C58.0394 408.587 57.9652 409.869 57.7802 411.12C56.9781 416.09 54.591 420.725 50.85 424.254C49.8967 425.141 48.9178 425.895 47.7222 426.609C46.4675 427.333 45.0369 427.783 43.5811 427.891C40.6646 428.123 37.6924 426.996 35.6523 424.88C35.1402 424.357 34.679 423.779 34.3022 423.153C33.8781 422.494 33.6791 421.997 33.3735 421.422C32.8242 420.298 32.3588 419.139 31.9372 417.965C31.1187 415.609 30.6003 413.168 30.3131 410.723C29.7409 405.826 30.0347 400.927 30.8756 396.196C31.0766 395.01 31.325 393.837 31.582 392.667C31.7069 392.081 31.941 391.376 32.1253 390.74C32.3939 390.114 32.6328 389.469 32.9642 388.873C34.27 386.477 36.2476 384.433 38.6474 383.177C41.0345 381.925 43.7603 381.264 46.4528 381.514C47.1243 381.577 47.7944 381.643 48.4466 381.819C49.1104 381.942 49.7437 382.166 50.3725 382.402C51.0174 382.598 51.5854 382.965 52.1898 383.246C52.7586 383.552 53.2484 383.864 53.7694 384.187C57.858 386.784 61.4238 390.005 64.3708 393.725C64.627 394.049 64.5726 394.519 64.2491 394.775C63.9909 394.979 63.6353 394.983 63.3737 394.813Z" fill="white"/>
<path d="M70.9948 396.478C71.1198 397.281 71.0833 398.017 70.9867 398.729C70.9054 399.447 70.7415 400.131 70.5408 400.803C70.1546 402.152 69.7842 403.503 69.4474 404.859C68.7603 407.569 68.1145 410.275 67.516 412.984C67.2245 414.34 66.914 415.692 66.6675 417.055C66.5304 417.735 66.4231 418.418 66.3123 419.101C66.1807 419.782 66.0755 420.465 65.9653 421.15C65.499 423.887 65.0785 426.625 64.4729 429.447L64.4715 429.454C64.3837 429.863 63.9807 430.124 63.5714 430.036C63.2838 429.974 63.0695 429.756 62.9981 429.49C62.2362 426.629 62.068 423.677 62.1874 420.76C62.2538 419.3 62.3961 417.846 62.6048 416.403C62.8019 414.959 63.0147 413.516 63.3214 412.093C63.9038 409.242 64.7005 406.444 65.659 403.713C66.1403 402.347 66.6537 400.996 67.1817 399.654C67.7151 398.314 68.4085 397.028 69.6149 395.956C69.9585 395.65 70.4848 395.681 70.7902 396.025C70.9006 396.15 70.9671 396.298 70.9906 396.451L70.9948 396.478Z" fill="white"/>
<path d="M148.488 250.442C150.71 250.805 152.921 251.345 155.026 252.276C156.065 252.76 157.112 253.311 157.989 254.125C158.208 254.328 158.437 254.523 158.648 254.737L159.206 255.462L159.481 255.831L159.686 256.247C159.819 256.527 159.963 256.806 160.083 257.093C160.21 257.696 160.453 258.305 160.416 258.927C160.424 259.237 160.438 259.549 160.435 259.859L160.299 260.765C160.108 261.974 159.663 263.095 159.157 264.159C158.096 266.27 156.685 268.115 155.214 269.879L154.309 268.328C157.962 267.518 161.617 266.707 165.294 265.993C168.97 265.269 172.658 264.593 176.374 264.048C178.229 263.762 180.096 263.532 181.97 263.343C183.844 263.15 185.73 263.013 187.639 263.037C188.593 263.058 189.556 263.089 190.534 263.321C191.017 263.456 191.539 263.587 191.996 264.051C192.224 264.283 192.35 264.674 192.297 264.991C192.258 265.315 192.114 265.552 191.977 265.776C191.38 266.62 190.61 267.175 189.849 267.736C189.08 268.284 188.265 268.754 187.453 269.219C188.2 268.655 188.927 268.063 189.625 267.452C190.31 266.842 191.013 266.188 191.425 265.447C191.63 265.06 191.646 264.746 191.432 264.595C191.21 264.402 190.775 264.286 190.357 264.228C189.494 264.124 188.575 264.129 187.663 264.185C183.998 264.447 180.321 265.12 176.661 265.776C172.999 266.46 169.341 267.19 165.683 267.932L154.705 270.176L154.694 270.178C154.183 270.282 153.685 269.953 153.58 269.442C153.519 269.141 153.612 268.84 153.8 268.625C155.26 266.987 156.641 265.27 157.67 263.394C158.712 261.542 159.325 259.442 158.838 257.487C158.271 255.548 156.571 254.031 154.683 252.945C152.768 251.851 150.632 251.127 148.488 250.442Z" fill="white" fill-opacity="0.5"/>
<path d="M164.965 278.961C167.59 278.633 170.184 278.367 172.777 278.108C175.368 277.834 177.955 277.608 180.536 277.318L188.291 276.513C190.885 276.256 193.47 275.938 196.118 275.778C193.657 276.749 191.119 277.503 188.542 278.053C187.26 278.371 185.956 278.557 184.659 278.798C183.355 278.987 182.049 279.167 180.739 279.306C178.116 279.561 175.481 279.705 172.845 279.661C170.211 279.628 167.569 279.46 164.965 278.961Z" fill="white" fill-opacity="0.5"/>
<path d="M94.8202 272.729C87.889 278.142 80.9611 283.561 74.2861 289.268C70.9598 292.118 67.5955 294.978 64.6543 298.153C63.9478 298.94 63.2097 299.803 62.83 300.619C62.742 300.801 62.739 301.008 62.739 300.924C62.7269 300.892 62.6578 300.813 62.6715 300.829C62.6799 300.83 62.741 300.855 62.8353 300.854C63.2044 300.876 63.7394 300.768 64.2308 300.633C66.2511 300.06 68.2667 299.154 70.2496 298.263C78.1749 294.558 85.9331 290.414 93.8466 286.527C95.8335 285.562 97.8193 284.605 99.9045 283.757C100.427 283.546 100.96 283.347 101.525 283.17C101.807 283.08 102.103 283.001 102.431 282.937C102.611 282.91 102.762 282.876 103.004 282.877C103.117 282.878 103.223 282.872 103.41 282.914C103.501 282.937 103.556 282.94 103.673 282.991C103.798 283.048 103.922 283.125 104.028 283.212C104.577 283.777 104.405 284.319 104.377 284.508C104.316 284.757 104.241 284.933 104.166 285.087C104.015 285.409 103.855 285.658 103.693 285.915C103.367 286.414 103.026 286.867 102.679 287.315C99.8776 290.824 96.8516 293.997 93.8665 297.239C90.8519 300.444 87.8187 303.623 84.8519 306.851C83.3699 308.466 81.9013 310.091 80.481 311.746C79.0778 313.401 77.6545 315.091 76.5536 316.849C76.2985 317.273 76.038 317.755 75.9629 318.08C75.9365 318.165 75.9424 318.209 75.9358 318.217C75.9385 318.197 75.9285 318.118 75.8001 317.975C75.7675 317.942 75.7224 317.917 75.6845 317.904C75.6733 317.892 75.6592 317.883 75.6438 317.878C75.594 317.871 75.6028 317.875 75.6301 317.871C75.643 317.883 75.757 317.861 75.8337 317.856C76.6674 317.691 77.7072 317.201 78.6498 316.742C80.5769 315.784 82.4763 314.689 84.3649 313.585L95.6652 306.807C99.441 304.548 103.232 302.305 107.093 300.172C109.026 299.109 110.976 298.073 112.965 297.105C114.96 296.148 116.979 295.221 119.128 294.556C120.206 294.242 121.314 293.955 122.523 293.998C123.112 294.035 123.814 294.177 124.302 294.721C124.733 295.253 124.946 295.787 125.065 296.404C125.286 297.64 124.817 298.825 124.199 299.766C123.577 300.728 122.794 301.543 121.967 302.288C118.604 305.216 114.666 307.294 110.666 309.099C112.636 308.123 114.549 307.036 116.396 305.855C118.24 304.674 120.035 303.399 121.607 301.9C122.386 301.149 123.11 300.335 123.652 299.428C124.2 298.533 124.535 297.502 124.323 296.545C124.291 296.305 124.175 296.083 124.092 295.857C123.961 295.664 123.85 295.388 123.71 295.276C123.446 294.985 122.977 294.876 122.487 294.865C121.489 294.861 120.438 295.152 119.426 295.49C115.354 296.923 111.512 299.11 107.714 301.272C103.922 303.471 100.192 305.785 96.469 308.119C92.7482 310.457 89.0387 312.818 85.2456 315.073C83.3464 316.2 81.443 317.318 79.4395 318.332C78.9375 318.584 78.4264 318.828 77.8934 319.053C77.3549 319.277 76.8241 319.496 76.1364 319.628C75.9401 319.649 75.7824 319.688 75.5198 319.668C75.4087 319.666 75.2813 319.657 75.1024 319.597C75.0214 319.572 74.9417 319.542 74.8649 319.51C74.772 319.457 74.6751 319.386 74.5889 319.311C74.2379 318.997 74.1631 318.623 74.1338 318.337C74.1234 318.072 74.1556 317.84 74.2034 317.66C74.3956 316.914 74.6997 316.432 74.994 315.91C76.2181 313.931 77.6378 312.244 79.0602 310.537C80.4916 308.845 81.9603 307.198 83.4401 305.563C86.4025 302.298 89.4135 299.089 92.408 295.874C95.4 292.671 98.468 289.488 101.177 286.14C101.506 285.721 101.828 285.297 102.106 284.877C102.239 284.671 102.375 284.456 102.457 284.279C102.506 284.189 102.531 284.105 102.537 284.089C102.576 284.02 102.42 284.249 102.768 284.614C102.816 284.666 102.881 284.707 102.947 284.729C103.004 284.747 102.986 284.75 103.012 284.755C103.065 284.759 103.033 284.757 103.009 284.759C102.976 284.753 102.854 284.773 102.764 284.786C102.552 284.827 102.316 284.885 102.073 284.961C101.588 285.11 101.089 285.291 100.591 285.488C98.5967 286.282 96.6116 287.22 94.6378 288.162C86.7275 291.947 78.9827 296.137 70.8715 299.662C68.8292 300.527 66.8035 301.4 64.5772 301.984C64.0071 302.116 63.4517 302.256 62.7199 302.209C62.5415 302.197 62.3258 302.161 62.0874 302.049C61.8594 301.952 61.5536 301.679 61.474 301.376C61.2983 300.759 61.5003 300.405 61.6139 300.09C62.2 298.923 62.968 298.135 63.7302 297.3C66.8407 294.087 70.2483 291.3 73.6652 288.517C80.5706 283.048 87.6188 277.781 94.8202 272.729Z" fill="white" fill-opacity="0.5"/>
<path d="M118.706 436.702C116.76 434.29 114.939 431.802 112.957 429.525C112.461 428.962 111.95 428.412 111.414 427.935C111.149 427.692 110.874 427.478 110.606 427.293C110.345 427.111 110.054 426.976 109.92 426.962C109.864 426.963 109.859 426.964 109.908 426.954C109.926 426.94 109.928 426.952 109.948 426.928C109.994 426.926 110.009 426.809 110.006 426.864C109.981 426.908 109.96 427.271 110.006 427.587C110.081 428.253 110.259 428.987 110.453 429.708C111.262 432.623 112.366 435.53 113.263 438.547C113.487 439.304 113.7 440.072 113.869 440.875C113.951 441.277 114.022 441.688 114.067 442.126C114.106 442.568 114.148 443.014 114.028 443.618C113.996 443.767 113.968 443.913 113.867 444.112C113.824 444.204 113.777 444.294 113.727 444.382C113.669 444.473 113.568 444.578 113.478 444.668C113.3 444.863 113.063 444.979 112.805 445.063C112.537 445.164 112.348 445.125 112.113 445.127C111.289 445.005 110.913 444.642 110.521 444.356C109.819 443.743 109.311 443.104 108.813 442.46C106.898 439.872 105.378 437.173 103.741 434.558C102.929 433.258 102.107 431.946 101.209 430.812C100.985 430.541 100.758 430.257 100.541 430.063C100.434 429.951 100.328 429.884 100.271 429.844C100.268 429.848 100.194 429.792 100.264 429.83C100.312 429.835 100.356 429.822 100.397 429.822C100.534 429.736 100.247 429.918 100.085 430.175C99.895 430.424 99.706 430.738 99.5219 431.057C98.0789 433.685 96.626 436.691 94.1577 438.884C92.9415 439.979 91.5009 440.873 89.919 441.337C88.3395 441.793 86.6891 441.889 85.1122 441.67C84.9101 441.642 84.7689 441.455 84.797 441.253C84.8229 441.066 84.9878 440.931 85.1721 440.935C86.6818 440.959 88.1753 440.754 89.5382 440.226C90.891 439.675 92.112 438.861 93.1345 437.813C95.2031 435.696 96.4469 432.967 97.8881 430.15C98.0816 429.793 98.2785 429.433 98.5457 429.056C98.6712 428.87 98.8324 428.673 99.0272 428.476C99.2414 428.283 99.4992 428.047 99.9625 427.934C100.193 427.869 100.428 427.874 100.667 427.925C100.936 427.969 101.021 428.049 101.197 428.122C101.472 428.274 101.686 428.436 101.856 428.593C102.222 428.911 102.492 429.225 102.762 429.549C103.795 430.841 104.624 432.16 105.463 433.481C107.127 436.107 108.683 438.806 110.476 441.19C110.924 441.77 111.403 442.338 111.874 442.741C112.087 442.922 112.361 443.047 112.315 443.022C112.289 442.998 112.115 443.054 112.011 443.141C111.985 443.159 111.966 443.205 111.958 443.215C111.95 443.215 111.943 443.222 111.943 443.222C111.942 443.252 111.949 443.207 111.954 443.166C111.991 443.01 111.988 442.671 111.948 442.345C111.913 442.012 111.851 441.659 111.775 441.303C111.63 440.589 111.449 439.857 111.244 439.125C110.429 436.186 109.377 433.271 108.579 430.198C108.387 429.42 108.204 428.642 108.119 427.765C108.094 427.317 108.025 426.881 108.257 426.189C108.285 426.046 108.462 425.795 108.604 425.627C108.761 425.475 108.918 425.355 109.111 425.267C109.509 425.073 109.912 425.087 110.235 425.135C110.867 425.262 111.265 425.526 111.64 425.778C112.006 426.038 112.336 426.311 112.637 426.596C113.248 427.162 113.782 427.76 114.3 428.368C116.332 430.817 118.009 433.468 119.334 436.316C119.421 436.502 119.34 436.722 119.155 436.809C118.997 436.882 118.81 436.831 118.706 436.702Z" fill="#B0F3CC"/>
</svg>
