<svg width="33" height="36" viewBox="0 0 33 36" fill="none" xmlns="http://www.w3.org/2000/svg">
<path d="M16.0548 25.7861C16.0537 26.0684 16.0398 26.3477 16.0135 26.6234C15.9585 27.1999 15.5037 27.6548 14.9272 27.7098C14.6518 27.736 14.3728 27.75 14.0908 27.7511C9.06215 27.771 4.9339 23.6432 4.95319 18.6145C4.95428 18.3322 4.96825 18.0529 4.99453 17.7772C5.04947 17.2007 5.50434 16.7458 6.08088 16.6908C6.35656 16.6645 6.63582 16.6506 6.91812 16.6495C11.9465 16.6301 16.0741 20.7576 16.0548 25.7861Z" fill="white"/>
<path opacity="0.4" d="M9.2125 19.091C14.3004 19.091 18.425 14.9664 18.425 9.87851C18.425 4.79059 14.3004 0.666016 9.2125 0.666016C4.12458 0.666016 0 4.79059 0 9.87851C0 14.9664 4.12458 19.091 9.2125 19.091Z" fill="#46A83E"/>
<path d="M16.8736 36C14.8159 36 12.8597 35.1109 11.5065 33.5606L5.00318 26.1101C2.36735 23.0903 0.990538 19.2211 1.12636 15.215C1.26218 11.2089 2.89788 7.44179 5.73218 4.60757C11.8756 -1.5358 21.8716 -1.53588 28.0149 4.60749C30.8493 7.44179 32.485 11.2089 32.6208 15.215C32.7566 19.221 31.3798 23.0903 28.744 26.1101L22.2406 33.5606C20.8875 35.1109 18.9313 36 16.8736 36ZM16.8735 0.664566C13.009 0.664566 9.14441 2.13556 6.20237 5.07756C3.48762 7.79231 1.9209 11.4005 1.7908 15.2375C1.66075 19.0745 2.97945 22.7805 5.50409 25.6729L12.0074 33.1234C13.2343 34.529 15.0079 35.3351 16.8736 35.3351C18.7393 35.3351 20.5129 34.529 21.7397 33.1235L28.2431 25.6729C30.7677 22.7805 32.0864 19.0745 31.9563 15.2375C31.8263 11.4005 30.2595 7.79231 27.5449 5.07764C24.6028 2.13556 20.7381 0.664566 16.8735 0.664566Z" fill="white"/>
<path d="M17.6915 25.7861C17.6926 26.0684 17.7065 26.3477 17.7328 26.6234C17.7878 27.1999 18.2426 27.6548 18.8191 27.7098C19.0945 27.736 19.3735 27.75 19.6554 27.7511C24.6841 27.771 28.8124 23.6432 28.7931 18.6145C28.792 18.3322 28.778 18.0529 28.7518 17.7772C28.6968 17.2007 28.2419 16.7458 27.6654 16.6908C27.3897 16.6645 27.1105 16.6506 26.8282 16.6495C21.7997 16.6301 17.6722 20.7576 17.6915 25.7861Z" fill="white"/>
<path d="M18.1035 31.9295C18.0323 31.9295 17.9604 31.9066 17.8998 31.8595L17.7735 31.7614C17.6274 31.6478 17.445 31.5853 17.26 31.5853H16.4878C16.3028 31.5853 16.1204 31.6478 15.9742 31.7614L15.8479 31.8595C15.7029 31.9722 15.4941 31.9459 15.3815 31.801C15.2688 31.656 15.295 31.4472 15.44 31.3346L15.5663 31.2364C15.8285 31.0327 16.1558 30.9204 16.4878 30.9204H17.26C17.5921 30.9204 17.9193 31.0327 18.1815 31.2364L18.3077 31.3346C18.4527 31.4472 18.4789 31.656 18.3662 31.801C18.3007 31.8853 18.2026 31.9295 18.1035 31.9295Z" fill="white"/>
<path d="M19.4004 2.81104C20.7358 2.92727 22.054 3.31968 23.2741 3.91743C24.494 4.51801 25.6133 5.33394 26.5687 6.30867C27.5259 7.28178 28.3195 8.41785 28.8952 9.64987C29.4679 10.8822 29.8329 12.2086 29.9211 13.5463C29.5551 12.2589 29.0678 11.0294 28.4248 9.89105C27.7854 8.75194 26.9983 7.70599 26.0887 6.77919C25.1798 5.85148 24.1499 5.04366 23.0242 4.38121C21.8998 3.71432 20.6802 3.20246 19.4004 2.81104Z" fill="#666666"/>
</svg>
