<svg width="512" height="512" viewBox="0 0 512 512" fill="none" xmlns="http://www.w3.org/2000/svg">
<path opacity="0.4" d="M326.486 479.706C387.708 479.706 437.338 430.076 437.338 368.854C437.338 307.633 387.708 258.002 326.486 258.002C265.264 258.002 215.634 307.633 215.634 368.854C215.634 430.076 265.264 479.706 326.486 479.706Z" fill="#46A83E"/>
<path d="M133.126 134.094L121.95 148.155C110.972 161.968 106.756 179.977 110.442 197.232C112.109 205.038 114.181 211.873 116.719 217.597C107.209 244.734 88.9931 245.456 100.883 274.533C44.4441 335.89 64.353 358.55 129.823 434.357C164.505 446.693 201.371 444.742 240.621 427.204C251.317 422.425 259.63 413.477 263.483 402.414C271.97 378.048 277.404 352.684 273.012 324.113C281.215 316.619 289.276 310.215 296.617 309.313C299.464 269.834 312.102 235.721 340.568 210.28C295.884 151.892 244.72 133.54 186.191 160.7C170.448 146.422 152.768 137.531 133.126 134.094Z" stroke="white" stroke-width="4" stroke-miterlimit="10" stroke-linecap="round" stroke-linejoin="round"/>
<path d="M56.7051 343.19L94.821 351.247L92.6087 371.604L63.7963 370.317" fill="white" fill-opacity="0.5"/>
<path d="M363.23 232.927C381.1 226.309 398.827 222.491 416.342 222.884C410.063 202.339 400.319 181.95 387.248 161.712C396.609 165.431 406.009 169.51 415.483 174.266C418.166 175.613 420.915 172.559 419.283 170.039C368.666 91.9016 323.014 42.1996 290.009 64.9409C271.648 25.0727 200.445 40.5729 82.7405 112.571C80.7505 113.788 81.4015 116.819 83.714 117.124C91.8592 118.198 99.2423 120.155 105.473 123.446C86.4341 148.439 90.2638 165.166 109.776 176.227L109.794 176.259C111.294 166.101 115.412 156.382 121.95 148.156L133.127 134.094C152.768 137.532 170.448 146.422 186.191 160.7C244.721 133.54 295.884 151.892 340.569 210.28C312.102 235.721 299.465 269.834 296.618 309.313C289.276 310.215 281.215 316.619 273.013 324.113C277.405 352.685 271.97 378.048 263.483 402.414C260.04 412.3 253.03 420.487 243.947 425.529C261.306 426.188 279.032 421.279 298.112 395.782C302.549 396.611 304.254 401.134 304.561 407.548C304.772 411.961 310.139 413.963 313.179 410.757C323.438 399.941 332.758 388.087 340.423 374.401C343.351 378.535 344.021 389.019 343.941 401.614C343.913 405.997 349.217 408.331 352.344 405.26C364.971 392.863 374.896 372.634 380.864 340.931C357.692 322.879 345.69 293.234 363.23 232.927Z" fill="white"/>
<path d="M212.283 213.252C212.032 212.15 212.288 211.294 212.676 210.523C213.075 209.756 213.491 208.996 213.927 208.243C214.812 206.747 215.84 205.328 217.011 204.031C218.189 202.742 219.463 201.533 220.868 200.493C222.287 199.474 223.852 198.633 225.632 198.231C226.06 198.134 226.486 198.403 226.583 198.831C226.631 199.047 226.588 199.262 226.477 199.434L226.47 199.446C225.515 200.931 224.461 202.146 223.397 203.335C222.32 204.505 221.248 205.658 220.23 206.864C219.206 208.063 218.189 209.268 217.178 210.502C216.671 211.118 216.177 211.747 215.696 212.39C215.461 212.716 215.199 213.025 214.848 213.285C214.514 213.558 214.124 213.799 213.576 213.965L213.531 213.978C213.009 214.135 212.458 213.84 212.3 213.318C212.294 213.297 212.288 213.273 212.283 213.252Z" fill="white"/>
<path d="M202.816 255.426C202.124 253.998 201.986 252.581 202.004 251.174C202.029 249.767 202.065 248.358 202.124 246.948C202.249 244.129 202.514 241.31 202.96 238.511C203.169 237.11 203.462 235.72 203.758 234.332C204.047 232.942 204.389 231.561 204.795 230.196C205.62 227.474 206.686 224.8 208.258 222.365C208.485 222.013 208.955 221.912 209.307 222.139C209.552 222.297 209.676 222.573 209.651 222.845L209.65 222.852C209.39 225.676 208.938 228.367 208.492 231.064L207.801 235.099C207.575 236.445 207.403 237.801 207.2 239.153L206.066 247.3C205.876 248.663 205.706 250.031 205.548 251.401C205.474 252.088 205.365 252.771 205.16 253.452C204.972 254.134 204.718 254.813 204.29 255.489L204.277 255.509C204.03 255.9 203.512 256.016 203.122 255.769C202.986 255.683 202.882 255.561 202.816 255.426Z" fill="white"/>
<path d="M285.053 268.319C284.013 266.379 283.144 264.402 282.338 262.407C281.472 260.436 280.645 258.458 279.877 256.458C279.057 254.481 278.166 252.536 277.316 250.575C276.411 248.64 275.42 246.749 274.479 244.836C270.525 237.287 265.809 230.159 260.18 223.842L257.998 221.543C257.255 220.792 256.589 219.962 255.798 219.262L253.472 217.11C252.686 216.404 251.951 215.637 251.1 215.009L248.618 213.037C247.79 212.379 246.979 211.698 246.083 211.134L243.469 209.334C242.602 208.726 241.734 208.118 240.801 207.613C233.589 203.151 225.76 199.673 217.618 196.798L217.612 196.796C217.227 196.66 217.025 196.238 217.161 195.852C217.284 195.504 217.642 195.305 217.995 195.372C226.594 196.986 235.015 199.98 242.733 204.343C243.724 204.842 244.654 205.446 245.583 206.051L248.381 207.853C249.33 208.432 250.195 209.13 251.076 209.805L253.717 211.834C254.622 212.483 255.409 213.27 256.247 213.998L258.729 216.222C260.347 217.741 261.826 219.403 263.368 221C269.326 227.598 274.124 235.145 278.009 243.045C278.92 245.049 279.879 247.032 280.747 249.051C281.559 251.092 282.409 253.118 283.185 255.169C283.904 257.241 284.609 259.318 285.193 261.43C285.716 263.56 286.177 265.708 286.466 267.893C286.52 268.302 286.233 268.678 285.823 268.732C285.507 268.774 285.211 268.611 285.068 268.346L285.053 268.319Z" fill="white"/>
<path d="M195.334 237.126C196.883 236.565 198.474 236.129 200.082 235.84C201.693 235.606 203.318 235.372 204.946 235.326C208.203 235.193 211.469 235.194 214.721 235.391C221.227 235.778 227.679 236.804 233.98 238.348L236.345 238.921L238.683 239.585C240.243 240.023 241.795 240.483 243.33 240.994C246.42 241.954 249.463 243.048 252.465 244.234C258.464 246.616 264.298 249.382 269.842 252.671C270.194 252.88 270.31 253.335 270.101 253.687C269.919 253.993 269.55 254.12 269.225 254.012C263.144 251.977 257.176 249.801 251.163 247.802C249.671 247.269 248.157 246.809 246.651 246.329C245.153 245.82 243.639 245.371 242.123 244.928C240.613 244.462 239.091 244.049 237.564 243.658C236.042 243.245 234.515 242.857 232.982 242.501C226.855 241.058 220.665 239.925 214.421 239.338C211.302 239.014 208.168 238.881 205.035 238.876C204.25 238.857 203.468 238.87 202.684 238.888C201.9 238.889 201.114 238.878 200.324 238.848C198.747 238.823 197.168 238.813 195.538 238.588L195.488 238.581C195.076 238.524 194.788 238.144 194.845 237.732C194.884 237.445 195.08 237.219 195.334 237.126Z" fill="white"/>
<path d="M213.483 263.795C214.715 263.926 215.858 264.208 216.972 264.548C218.092 264.87 219.199 265.203 220.271 265.622C222.444 266.383 224.636 267.072 226.855 267.646C231.282 268.822 235.786 269.61 240.317 270.014C241.449 270.132 242.587 270.135 243.722 270.228C244.857 270.295 245.996 270.264 247.134 270.288C248.272 270.283 249.408 270.201 250.547 270.162C251.684 270.096 252.819 269.984 253.959 269.898C258.511 269.466 263.035 268.65 267.647 267.735C268.05 267.654 268.443 267.915 268.524 268.319C268.591 268.65 268.424 268.975 268.141 269.125C263.892 271.361 259.241 272.834 254.472 273.662C253.273 273.825 252.076 274.023 250.871 274.155C249.662 274.236 248.454 274.358 247.242 274.402C244.818 274.48 242.385 274.484 239.966 274.27C235.124 273.9 230.347 272.901 225.748 271.447C223.45 270.707 221.198 269.854 218.981 268.929C217.881 268.449 216.797 267.927 215.761 267.313C214.738 266.672 213.745 265.973 212.84 265.123C212.529 264.831 212.514 264.342 212.806 264.031C212.977 263.849 213.215 263.768 213.446 263.791L213.483 263.795Z" fill="white"/>
<path d="M219.479 237.855C218.27 249.118 224.649 259.042 233.741 260.03C241.578 260.882 248.86 254.81 251.519 245.909C240.559 241.928 229.855 239.131 219.479 237.855Z" fill="white"/>
<path d="M207.206 186.168C211.488 185.752 215.809 186.044 220.01 186.832L223.166 187.417C224.212 187.636 225.247 187.897 226.289 188.136C227.327 188.388 228.376 188.606 229.406 188.887L232.489 189.753C240.693 192.127 248.65 195.246 256.337 198.867C260.192 200.656 263.966 202.607 267.696 204.624C271.431 206.632 275.118 208.724 278.725 210.942C285.955 215.35 292.941 220.135 299.599 225.353C299.921 225.604 299.979 226.069 299.728 226.391C299.5 226.683 299.095 226.757 298.782 226.581L276.815 214.224C274.991 213.195 273.161 212.18 271.309 211.207C269.468 210.214 267.641 209.195 265.772 208.261C262.068 206.322 258.301 204.519 254.531 202.737C246.963 199.236 239.254 196.056 231.34 193.54L228.371 192.602C227.379 192.296 226.372 192.054 225.373 191.777C224.371 191.513 223.372 191.226 222.366 190.98L219.331 190.317C217.314 189.824 215.272 189.512 213.244 189.039C211.214 188.575 209.166 188.254 207.114 187.641L207.064 187.626C206.669 187.508 206.445 187.092 206.563 186.697C206.652 186.398 206.913 186.197 207.206 186.168Z" fill="white"/>
<path d="M117.93 172.907C120.389 172.4 122.836 172.498 125.23 172.835C127.626 173.179 130.013 173.587 132.38 174.08C137.112 175.082 141.771 176.388 146.319 177.981C148.605 178.743 150.842 179.637 153.071 180.535C155.305 181.424 157.508 182.381 159.682 183.398C164.023 185.446 168.25 187.727 172.235 190.435C172.575 190.666 172.664 191.129 172.433 191.47C172.242 191.75 171.893 191.858 171.586 191.76C167.021 190.288 162.607 188.574 158.193 186.892C157.099 186.448 155.988 186.05 154.888 185.626C153.794 185.186 152.687 184.784 151.584 184.371C149.379 183.544 147.15 182.791 144.932 182.02C140.48 180.522 136.006 179.113 131.474 177.934C129.213 177.325 126.932 176.8 124.638 176.336C123.491 176.103 122.346 175.873 121.208 175.545C120.067 175.238 118.927 174.905 117.792 174.376L117.76 174.361C117.374 174.18 117.207 173.722 117.387 173.336C117.493 173.108 117.701 172.955 117.93 172.907Z" fill="white"/>
<path d="M128.457 187.531C129.936 187.843 131.365 188.308 132.754 188.859C134.111 189.47 135.454 190.127 136.743 190.873C138.003 191.667 139.297 192.414 140.532 193.251C141.746 194.117 143.011 194.921 144.186 195.843C148.947 199.457 153.277 203.654 157.027 208.305C157.963 209.468 158.917 210.62 159.747 211.86C160.609 213.078 161.484 214.286 162.259 215.558C163.893 218.049 165.368 220.637 166.7 223.289C169.359 228.595 171.458 234.162 172.809 239.904C172.903 240.303 172.655 240.703 172.256 240.797C171.915 240.877 171.57 240.703 171.42 240.402C168.807 235.186 166.237 230.041 163.358 225.093C162.683 223.831 161.896 222.637 161.151 221.42C160.436 220.184 159.622 219.013 158.829 217.83C158.058 216.63 157.193 215.5 156.343 214.36C155.513 213.204 154.606 212.112 153.718 211.004C150.11 206.621 146.127 202.555 141.736 198.952C140.662 198.023 139.497 197.208 138.38 196.327C137.242 195.475 136.042 194.709 134.875 193.892C133.68 193.119 132.469 192.368 131.311 191.51C130.119 190.711 128.938 189.878 127.823 188.864L127.79 188.834C127.481 188.552 127.458 188.072 127.74 187.763C127.927 187.557 128.203 187.478 128.457 187.531Z" fill="white"/>
<path d="M123.275 240.716C122.572 238.557 122.416 236.409 122.408 234.26C122.404 232.112 122.412 229.959 122.448 227.801C122.548 223.488 122.765 219.152 123.372 214.816C123.647 212.645 124.07 210.484 124.575 208.328C125.079 206.172 125.719 204.026 126.584 201.939C127.456 199.858 128.585 197.84 130.029 196.04C131.471 194.247 133.319 192.722 135.389 191.774C135.763 191.603 136.206 191.768 136.377 192.142C136.514 192.442 136.436 192.785 136.207 192.998L136.191 193.012C133.166 195.82 131.408 199.424 130.141 203.271C129.513 205.199 129.011 207.191 128.592 209.215C128.175 211.24 127.897 213.307 127.605 215.379C127.081 219.534 126.718 223.751 126.402 227.989C126.232 230.109 126.089 232.236 125.957 234.367C125.821 236.498 125.558 238.63 124.75 240.752C124.596 241.156 124.144 241.359 123.74 241.205C123.512 241.118 123.346 240.931 123.275 240.716Z" fill="white"/>
<path d="M116.237 226.913C117.61 226.348 119.022 225.938 120.447 225.622C121.877 225.35 123.318 225.128 124.767 225.002C127.665 224.768 130.573 224.622 133.485 224.6C139.307 224.581 145.134 225.04 150.873 225.988C153.749 226.428 156.592 227.048 159.415 227.72C162.242 228.383 165.038 229.164 167.797 230.048C173.309 231.834 178.68 234.038 183.75 236.825C184.11 237.023 184.241 237.475 184.043 237.834C183.875 238.141 183.519 238.28 183.195 238.193C177.657 236.689 172.219 235.093 166.74 233.696C164.003 232.992 161.261 232.324 158.506 231.733C155.751 231.135 152.975 230.66 150.2 230.205C144.641 229.345 139.044 228.755 133.425 228.557C130.616 228.445 127.802 228.453 124.988 228.546C123.582 228.597 122.176 228.667 120.755 228.625C119.337 228.627 117.912 228.594 116.446 228.373L116.413 228.368C115.997 228.306 115.711 227.919 115.774 227.503C115.815 227.23 115.998 227.012 116.237 226.913Z" fill="white"/>
<path d="M134.447 226.604C133.979 236.873 137.973 245.333 143.875 245.975C149.329 246.567 154.844 238.244 156.996 229.291C149.378 227.681 141.862 226.782 134.447 226.604Z" fill="white"/>
<path d="M133.663 253.11C134.575 252.94 135.427 252.935 136.259 252.992C137.1 253.009 137.913 253.12 138.719 253.265L141.148 253.602L143.581 253.839C146.824 254.119 150.066 254.125 153.292 253.953L155.709 253.776C156.511 253.685 157.318 253.619 158.12 253.509C159.721 253.277 161.317 252.998 162.913 252.685C166.108 252.06 169.279 251.254 172.589 250.514L172.594 250.512C173 250.422 173.402 250.677 173.493 251.082C173.56 251.386 173.434 251.688 173.196 251.859C170.369 253.879 167.175 255.333 163.849 256.365C163.015 256.617 162.169 256.827 161.325 257.052C160.476 257.249 159.615 257.399 158.759 257.574C157.9 257.729 157.033 257.84 156.169 257.975C155.302 258.091 154.429 258.152 153.558 258.232C150.068 258.482 146.556 258.28 143.118 257.77L140.553 257.309L138.016 256.746C136.34 256.324 134.7 255.709 133.263 254.53C132.92 254.248 132.869 253.741 133.151 253.398C133.276 253.245 133.445 253.151 133.625 253.117L133.663 253.11Z" fill="white"/>
<path d="M126.394 289.224C125.172 288.362 124.036 287.079 123.35 285.596C122.641 284.109 122.355 282.411 122.498 280.732C122.64 279.055 123.208 277.379 124.194 275.962C124.699 275.265 125.269 274.606 125.932 274.055C126.628 273.447 127.165 273.115 127.782 272.663C132.593 269.281 137.818 266.386 143.417 264.342C146.211 263.314 149.098 262.516 152.032 261.953C153.498 261.668 154.977 261.436 156.464 261.283L157.585 261.162C158.005 261.134 158.425 261.105 158.847 261.113C159.689 261.115 160.534 261.183 161.364 261.341C163.026 261.637 164.634 262.243 166.093 263.106C166.818 263.546 167.507 264.046 168.144 264.607C168.766 265.154 169.396 265.848 169.828 266.347L175.546 272.819L173.525 272.139L190.832 268.736C194.011 268.04 197.575 268.315 200.644 269.595C202.198 270.214 203.632 271.107 204.916 272.165C205.246 272.42 205.538 272.718 205.848 272.995L206.664 273.807C207.201 274.349 207.718 274.907 208.231 275.469C210.277 277.72 212.091 280.15 213.769 282.646L214.393 283.594C214.62 283.962 214.843 284.331 215.027 284.721C215.403 285.496 215.698 286.309 215.896 287.143C216.276 288.812 216.307 290.556 215.933 292.212C215.75 293.038 215.481 293.846 215.112 294.603C214.722 295.399 214.345 295.988 213.976 296.627C213.237 297.898 212.485 299.163 211.723 300.422C210.202 302.942 208.708 305.476 207.144 307.973C206.927 308.318 206.471 308.423 206.125 308.206C205.806 308.007 205.692 307.604 205.846 307.271C207.076 304.594 208.376 301.955 209.649 299.302C210.284 297.974 210.929 296.652 211.586 295.337C211.909 294.679 212.268 293.992 212.482 293.448C212.72 292.866 212.863 292.251 212.966 291.639C213.174 290.409 213.071 289.144 212.734 287.966C212.558 287.378 212.313 286.814 212.018 286.283C211.872 286.015 211.704 285.762 211.535 285.51L210.912 284.64C209.226 282.315 207.386 280.121 205.438 278.056C204.947 277.544 204.452 277.035 203.942 276.545L203.177 275.821C202.932 275.617 202.706 275.39 202.447 275.203C201.446 274.416 200.334 273.773 199.15 273.317C196.768 272.383 194.205 272.188 191.645 272.776L174.367 276.327C173.598 276.485 172.84 276.205 172.354 275.657L172.346 275.647L166.625 269.178C166.114 268.592 165.769 268.223 165.315 267.813C164.872 267.422 164.389 267.079 163.888 266.766C162.878 266.151 161.757 265.708 160.588 265.484C160.006 265.363 159.41 265.308 158.814 265.298C158.516 265.287 158.218 265.307 157.919 265.32L156.893 265.417C155.515 265.54 154.143 265.737 152.781 265.982C150.056 266.469 147.368 267.178 144.735 268.066C139.466 269.85 134.464 272.461 129.788 275.587C129.237 275.975 128.541 276.397 128.143 276.728C127.679 277.073 127.286 277.498 126.922 277.945C126.19 278.843 125.72 279.952 125.481 281.12C125.249 282.29 125.268 283.545 125.61 284.741C125.932 285.966 126.55 287.047 127.416 288.16C127.669 288.485 127.611 288.953 127.286 289.206C127.021 289.413 126.655 289.408 126.394 289.224Z" fill="white"/>
<path d="M170.672 294.599C181.76 283.266 195.786 282.934 199.643 292.914C193.682 296.668 188.389 295.417 183.552 290.735C180.847 289.708 175.997 291.808 170.672 294.599Z" fill="white"/>
<path d="M156.434 288.218C151.226 273.482 143.889 271.88 135.323 277.867C136.711 283.387 140.959 284.831 148.446 281.661L151.662 286.65C152.547 288.023 154.191 288.704 155.788 288.358L156.434 288.218Z" fill="white"/>
<path d="M156.084 298.248C156.48 300.154 156.322 301.983 155.974 303.766C155.62 305.549 155.238 307.329 154.794 309.098C153.885 312.628 152.781 316.127 151.348 319.502C151.003 320.351 150.628 321.188 150.225 322.013C149.842 322.846 149.425 323.664 149.001 324.477C148.173 326.115 147.257 327.709 146.261 329.252C144.259 332.327 141.925 335.208 139.117 337.592C138.801 337.861 138.328 337.822 138.059 337.506C137.855 337.265 137.829 336.933 137.968 336.669L137.972 336.663C139.664 333.484 141.381 330.444 142.98 327.338C143.384 326.565 143.793 325.797 144.164 325.007C144.559 324.23 144.954 323.454 145.31 322.658C146.058 321.084 146.726 319.473 147.387 317.859C148.695 314.626 149.921 311.349 150.989 308.005C151.546 306.339 152.044 304.652 152.518 302.955C152.742 302.102 153.011 301.261 153.354 300.431C153.681 299.597 154.071 298.774 154.634 297.975L154.651 297.951C154.905 297.591 155.403 297.505 155.763 297.759C155.934 297.88 156.044 298.058 156.084 298.248Z" fill="white"/>
<path d="M130.457 340.558C128.559 340.953 126.879 341.756 125.286 342.773C124.868 343.039 124.583 343.292 124.231 343.545C123.937 343.846 123.618 344.112 123.368 344.442C122.811 345.05 122.422 345.783 122.127 346.538C121.818 347.291 121.677 348.11 121.673 348.92C121.648 349.732 121.792 350.543 122.072 351.293C122.326 352.054 122.745 352.749 123.266 353.352C123.512 353.667 123.813 353.933 124.119 354.195C124.417 354.466 124.845 354.766 125.214 355.033C126.76 356.115 128.438 357.019 130.209 357.745C131.094 358.107 132.002 358.427 132.927 358.706L133.623 358.909C133.907 359 134.265 359.109 134.573 359.235C135.203 359.504 135.819 359.825 136.368 360.246C137.488 361.056 138.374 362.178 138.959 363.438C139.524 364.708 139.762 366.137 139.625 367.529C139.374 370.314 137.564 372.885 135.034 374.069C134.413 374.369 133.724 374.591 133.072 374.72L131.561 375.021L128.535 375.601L125.578 376.172C124.806 376.337 124.069 376.647 123.399 377.069C120.659 378.722 119.408 382.429 120.572 385.479C120.871 386.24 121.231 386.928 121.798 387.595C122.096 387.941 122.376 388.309 122.708 388.618L123.188 389.104L123.705 389.543C125.084 390.719 126.711 391.59 128.502 392.103C132.086 393.197 136.159 392.924 140.115 392.183C140.517 392.107 140.904 392.372 140.98 392.774C141.047 393.133 140.842 393.481 140.511 393.604C138.544 394.341 136.484 394.868 134.351 395.174C132.22 395.495 129.991 395.459 127.783 395.027C125.585 394.575 123.401 393.673 121.567 392.28L120.88 391.758L120.241 391.185C119.801 390.813 119.426 390.387 119.032 389.974C118.217 389.119 117.507 388.017 117.04 386.875C116.092 384.568 115.959 381.929 116.703 379.528C117.445 377.126 119.046 374.993 121.164 373.614C122.22 372.921 123.395 372.404 124.627 372.113L127.709 371.459L130.726 370.835L132.237 370.533C132.592 370.46 132.887 370.362 133.191 370.217C134.393 369.652 135.254 368.432 135.372 367.107C135.5 365.806 134.91 364.445 133.834 363.623C133.574 363.407 133.27 363.252 132.963 363.107C132.797 363.037 132.662 362.996 132.46 362.922L131.682 362.68C130.647 362.345 129.621 361.962 128.614 361.527C126.602 360.655 124.65 359.576 122.88 358.23C122.43 357.88 122.021 357.579 121.565 357.153C121.101 356.731 120.656 356.293 120.277 355.788C119.494 354.811 118.877 353.686 118.513 352.488C118.122 351.3 117.95 350.043 118.022 348.803C118.074 347.565 118.338 346.331 118.84 345.196C119.769 342.906 121.724 341.017 123.869 340.108C125.888 339.201 128.23 338.675 130.459 339.082C130.867 339.157 131.136 339.547 131.062 339.954C131.006 340.263 130.767 340.493 130.478 340.554L130.457 340.558Z" fill="white"/>
<path d="M41.9312 340.068C50.5242 350.839 46.3626 359.537 37.2624 367.433C27.3043 362.019 27.3047 344.794 41.9312 340.068Z" stroke="white" stroke-width="4" stroke-miterlimit="10" stroke-linecap="round" stroke-linejoin="round"/>
<path d="M41.9312 340.068L125.793 357.793" stroke="white" stroke-width="4" stroke-miterlimit="10" stroke-linecap="round" stroke-linejoin="round"/>
<path d="M37.2622 367.433L125.394 374.074" stroke="white" stroke-width="4" stroke-miterlimit="10" stroke-linecap="round" stroke-linejoin="round"/>
<path d="M111.931 203.519C78.9855 181.587 67.0092 239.679 92.8939 283.57" stroke="white" stroke-width="4" stroke-miterlimit="10" stroke-linecap="round" stroke-linejoin="round"/>
<path d="M92.0065 240.774C91.2748 238.923 91.0966 237.055 91.1231 235.189C91.1546 233.322 91.209 231.449 91.3657 229.562C91.5198 227.674 91.7932 225.783 92.2022 223.872C92.6218 221.963 93.2243 220.032 94.2989 218.142C94.8767 217.207 95.5419 216.266 96.5051 215.475C97.4625 214.688 98.689 214.094 99.9591 213.885C101.243 213.647 102.452 213.847 103.542 214.12C104.079 214.28 104.608 214.457 105.081 214.688C105.581 214.893 106.034 215.142 106.479 215.397C109.983 217.507 112.524 220.362 114.655 223.464C114.889 223.805 114.803 224.271 114.462 224.505C114.199 224.685 113.862 224.675 113.614 224.504L113.597 224.493C110.575 222.402 107.696 220.152 104.72 218.763C103.258 218.081 101.759 217.69 100.69 217.934C100.154 218.057 99.6917 218.302 99.2415 218.692C98.7985 219.094 98.3912 219.669 98.0092 220.292C96.5612 222.972 95.8221 226.534 95.2978 230.016C95.0189 231.774 94.8331 233.567 94.6692 235.364C94.5021 237.164 94.2619 238.966 93.482 240.785L93.4779 240.795C93.3047 241.199 92.8369 241.386 92.433 241.213C92.2308 241.126 92.0821 240.963 92.0065 240.774Z" fill="white"/>
<path d="M416.422 222.15C418.444 222.158 420.454 222.267 422.47 222.331C423.495 222.399 424.423 222.396 425.588 222.546C426.698 222.712 427.792 223.019 428.836 223.463C430.92 224.355 432.792 225.82 434.145 227.697C434.475 228.155 434.802 228.687 435.047 229.141L435.773 230.489C436.251 231.39 436.755 232.28 437.193 233.201C439.011 236.858 440.619 240.613 442.093 244.418C443.501 248.246 444.817 252.112 445.89 256.046C448.083 263.9 449.59 271.931 450.569 280.006C451.056 284.045 451.401 288.1 451.593 292.158C451.713 294.188 451.75 296.213 451.822 298.25L451.782 301.409L451.529 304.559C450.599 312.944 447.254 321.021 442.093 327.663C439.515 330.987 436.484 333.957 433.115 336.466C431.446 337.724 429.622 338.847 427.85 339.863C426.08 340.87 424.287 341.831 422.486 342.775C415.26 346.511 407.772 349.674 400.157 352.414C392.554 355.19 384.8 357.493 376.983 359.478C376.588 359.578 376.186 359.339 376.086 358.944C375.991 358.57 376.205 358.188 376.563 358.063C384.157 355.441 391.691 352.694 399.087 349.651C406.466 346.57 413.719 343.222 420.707 339.42C422.452 338.465 424.187 337.496 425.895 336.483C427.593 335.47 429.176 334.445 430.707 333.265C433.766 330.943 436.507 328.207 438.83 325.156C443.495 319.059 446.413 311.683 447.286 304.075L447.515 301.212L447.55 298.339C447.479 296.357 447.443 294.36 447.325 292.375C447.216 290.388 447.107 288.401 446.928 286.421C446.798 284.436 446.589 282.459 446.396 280.481C445.546 272.579 444.182 264.731 442.152 257.062C441.161 253.22 439.932 249.448 438.616 245.71C437.234 241.996 435.724 238.33 434.008 234.759C433.591 233.861 433.12 232.989 432.69 232.097L432.029 230.766C431.809 230.329 431.617 229.999 431.373 229.63C430.438 228.195 429.105 227.008 427.55 226.194C426.776 225.781 425.942 225.465 425.077 225.258C424.262 225.052 423.179 224.911 422.208 224.74C420.226 224.369 418.238 224.044 416.262 223.617C415.862 223.531 415.607 223.136 415.694 222.735C415.769 222.387 416.079 222.149 416.422 222.15Z" fill="white"/>
<path d="M417.944 236.623C414.724 237.522 411.495 237.89 408.264 238.178C405.034 238.466 401.815 238.803 398.614 239.214C392.218 240.026 385.863 241.092 379.806 242.857C376.796 243.776 373.847 244.841 371.164 246.304C368.476 247.75 366.069 249.594 364.296 251.903C362.455 254.17 361.425 256.984 360.996 259.976C360.546 262.982 360.831 266.158 361.327 269.333L361.328 269.343C361.391 269.748 361.115 270.127 360.71 270.19C360.36 270.245 360.028 270.044 359.905 269.727C358.695 266.624 357.904 263.258 357.993 259.747C358.095 256.269 359.093 252.607 361.226 249.666C362.228 248.15 363.518 246.892 364.829 245.693C366.203 244.582 367.638 243.553 369.153 242.714C372.169 241.001 375.348 239.722 378.578 238.766C385.036 236.825 391.63 235.891 398.187 235.278C401.47 234.995 404.75 234.79 408.027 234.635C411.304 234.499 414.588 234.531 417.882 235.149C418.293 235.226 418.564 235.622 418.487 236.033C418.432 236.325 418.213 236.548 417.944 236.623Z" fill="white"/>
<path d="M372.971 274.711C377.391 269.003 382.556 263.827 388.506 259.526C389.261 258.992 389.985 258.469 390.8 257.967L392.071 257.228L392.708 256.863L393.384 256.57L394.74 255.992C395.193 255.801 395.677 255.698 396.146 255.549C396.621 255.425 397.084 255.243 397.571 255.171L399.027 254.926C402.932 254.321 406.966 255.05 410.551 256.658C414.151 258.281 417.216 261.051 419.341 264.402C419.88 265.235 420.286 266.149 420.739 267.031C421.066 267.947 421.47 268.921 421.718 269.798C422.225 271.547 422.719 273.302 423.141 275.079C424.885 282.165 425.822 289.537 425.449 296.957C425.261 300.661 424.725 304.372 423.746 307.985C423.477 308.881 423.22 309.781 422.93 310.671C422.603 311.549 422.32 312.443 421.953 313.305C421.561 314.185 421.295 314.991 420.762 315.949C420.537 316.421 420.249 316.857 419.956 317.29C419.683 317.737 419.342 318.134 419.009 318.537C416.315 321.745 412.186 323.643 408.01 323.594C405.926 323.582 403.846 323.088 401.984 322.18C401.495 321.964 401.083 321.718 400.676 321.471C400.266 321.222 399.845 320.989 399.445 320.725C398.664 320.172 397.856 319.653 397.131 319.033C391.209 314.211 387.096 307.531 385.356 300.21C384.932 298.374 384.662 296.481 384.721 294.528C384.805 292.607 385.149 290.47 386.672 288.721C387.44 287.848 388.596 287.328 389.689 287.176L390.51 287.128C390.783 287.112 391.033 287.177 391.294 287.201C391.823 287.244 392.298 287.394 392.772 287.541C394.655 288.154 396.211 289.212 397.692 290.299C398.02 290.54 398.091 291.002 397.85 291.331C397.623 291.64 397.2 291.72 396.878 291.528L396.847 291.51C395.36 290.615 393.807 289.807 392.245 289.417C391.856 289.327 391.468 289.232 391.097 289.24C390.713 289.185 390.369 289.249 390.029 289.297C389.38 289.463 388.829 289.747 388.439 290.267C387.657 291.313 387.389 292.942 387.411 294.551C387.442 296.181 387.76 297.853 388.226 299.477C388.696 301.105 389.316 302.698 390.046 304.239C390.801 305.771 391.659 307.247 392.594 308.669C394.506 311.483 396.811 314.022 399.475 316.045C400.121 316.58 400.835 317.01 401.521 317.481C401.872 317.703 402.241 317.894 402.599 318.103C402.961 318.314 403.322 318.519 403.659 318.653C405.024 319.286 406.517 319.599 408.01 319.589C411.006 319.6 413.978 318.19 415.864 315.883C416.842 314.738 417.425 313.432 418.079 311.765C418.406 310.977 418.652 310.158 418.944 309.358C419.2 308.544 419.425 307.719 419.665 306.9C420.512 303.589 421.007 300.179 421.184 296.737C421.358 293.294 421.228 289.821 420.84 286.363C420.441 282.905 419.815 279.463 419.053 276.043C418.674 274.331 418.223 272.634 417.76 270.938C417.532 270.09 417.237 269.41 416.988 268.632C416.625 267.926 416.323 267.182 415.899 266.51C414.234 263.811 411.816 261.526 408.9 260.161C406 258.816 402.706 258.146 399.509 258.604L398.315 258.784C397.914 258.832 397.536 258.985 397.145 259.078C396.761 259.196 396.359 259.266 395.987 259.42L394.867 259.881L394.306 260.108L393.777 260.406L392.716 260.998C392 261.421 391.262 261.935 390.55 262.423C384.803 266.401 379.513 271.11 374.038 275.73C373.726 275.995 373.257 275.957 372.992 275.645C372.761 275.374 372.762 274.982 372.971 274.711Z" fill="white"/>
<path d="M364.518 278.552C366.105 280.236 367.19 282.169 368.105 284.173C369.012 286.18 369.898 288.2 370.735 290.243C372.393 294.335 373.87 298.513 375.047 302.786C375.361 303.848 375.64 304.922 375.89 306.002C376.161 307.077 376.392 308.162 376.623 309.247C377.099 311.414 377.486 313.602 377.777 315.804C378.346 320.207 378.542 324.679 378.03 329.105C377.983 329.515 377.612 329.808 377.203 329.761C376.873 329.723 376.617 329.47 376.556 329.16C375.705 324.864 374.936 320.643 374.033 316.444C373.811 315.394 373.599 314.343 373.342 313.301C373.111 312.253 372.884 311.205 372.612 310.166C372.11 308.08 371.513 306.017 370.938 303.947C369.741 299.821 368.448 295.715 367.031 291.638C366.338 289.594 365.595 287.565 364.829 285.542C364.425 284.539 364.095 283.505 363.798 282.453C363.5 281.401 363.259 280.322 363.176 279.165L363.174 279.143C363.143 278.714 363.466 278.341 363.895 278.31C364.137 278.292 364.363 278.39 364.518 278.552Z" fill="white"/>
<path d="M229.245 63.478C225.993 64.6314 222.764 65.9123 219.892 67.7563C218.458 68.6713 217.134 69.7433 216.026 70.977C214.917 72.2098 214.122 73.6807 213.763 75.2396C213.066 78.4137 214.324 81.698 216.094 84.4886C217.865 87.329 220.167 89.8606 222.6 92.2345C222.973 92.5982 222.981 93.1953 222.617 93.5681C222.401 93.7893 222.103 93.8818 221.819 93.8445L221.8 93.8419L204.75 91.496C199.066 90.7362 193.38 90.0048 187.689 89.3682C182.002 88.7693 176.289 88.1594 170.611 88.2085C169.198 88.2372 167.78 88.3324 166.439 88.6161C165.788 88.7694 165.111 88.9969 164.732 89.3917C164.343 89.7543 164.474 90.3654 164.848 90.9294C165.606 92.0468 166.766 92.9502 167.897 93.8005C169.047 94.6475 170.242 95.4457 171.46 96.2071C170.184 95.5487 168.909 94.8777 167.693 94.098C166.489 93.3024 165.269 92.5027 164.32 91.2936C164.101 90.9755 163.875 90.6382 163.797 90.1923C163.701 89.7559 163.838 89.2265 164.134 88.8868C164.729 88.2053 165.492 87.957 166.202 87.7237C167.649 87.3046 169.11 87.169 170.56 87.062C173.464 86.8694 176.355 86.921 179.237 87.0476C182.119 87.1725 184.994 87.3648 187.861 87.625C193.598 88.1192 199.309 88.7951 205.009 89.5356C210.711 90.2674 216.394 91.1161 222.074 91.9722L221.273 93.5795C218.823 91.0837 216.482 88.4273 214.662 85.3538C213.766 83.8154 213.006 82.1674 212.555 80.3993C212.088 78.6431 212.028 76.725 212.494 74.9285C212.992 73.1403 213.986 71.5294 215.245 70.255C216.498 68.9635 217.979 67.9631 219.506 67.1107C222.58 65.4167 225.895 64.3142 229.245 63.478Z" fill="white" fill-opacity="0.5"/>
<path d="M206.902 108.845C202.943 109.654 198.917 110.063 194.892 110.303C190.864 110.552 186.824 110.578 182.79 110.443C180.774 110.373 178.76 110.233 176.747 110.093C174.739 109.886 172.726 109.742 170.729 109.436C166.726 108.933 162.755 108.155 158.852 107.137C162.888 107.333 166.877 107.674 170.877 107.882C174.873 108.119 178.866 108.318 182.861 108.446C186.855 108.618 190.853 108.678 194.856 108.749L206.902 108.845Z" fill="white" fill-opacity="0.5"/>
<path d="M313.732 92.1646C319.476 95.7131 325.169 99.3454 330.812 103.055C336.458 106.759 342.066 110.524 347.595 114.412C350.354 116.363 353.086 118.355 355.777 120.407C358.462 122.469 361.125 124.564 363.629 126.89C364.254 127.473 364.868 128.073 365.453 128.716C366.036 129.364 366.608 130.025 367.072 130.868C367.269 131.305 367.558 131.791 367.386 132.563C367.314 132.944 366.967 133.294 366.683 133.439C366.389 133.602 366.103 133.672 365.853 133.705C364.834 133.838 363.974 133.687 363.108 133.542C359.694 132.872 356.503 131.732 353.302 130.607C340.563 125.979 328.269 120.36 315.763 115.339C312.64 114.091 309.502 112.85 306.341 111.824C305.551 111.569 304.759 111.338 303.979 111.154C303.589 111.059 303.204 110.989 302.845 110.944C302.68 110.931 302.484 110.909 302.378 110.925C302.317 110.927 302.248 110.931 302.266 110.937C302.274 110.936 302.237 110.936 302.277 110.923C302.327 110.908 302.373 110.873 302.403 110.829C302.676 110.498 302.515 110.364 302.581 110.498C302.611 110.583 302.672 110.733 302.764 110.882C302.929 111.182 303.167 111.507 303.399 111.822C303.882 112.458 304.425 113.082 304.977 113.698C309.495 118.593 314.507 123.156 319.416 127.769C324.336 132.386 329.28 136.988 334.151 141.679C336.585 144.027 339.002 146.396 341.363 148.832C343.71 151.29 346.057 153.731 348.097 156.581C348.589 157.325 349.092 158.034 349.424 159.047C349.508 159.292 349.567 159.595 349.578 159.934C349.564 160.293 349.502 160.75 349.116 161.136C349.022 161.23 348.917 161.32 348.814 161.39C348.722 161.434 348.627 161.476 348.531 161.513C348.323 161.601 348.16 161.624 348.012 161.636C347.679 161.686 347.445 161.646 347.175 161.636C346.187 161.516 345.36 161.244 344.53 160.961C343.705 160.675 342.905 160.359 342.116 160.026C338.965 158.69 335.936 157.177 332.915 155.65C326.882 152.586 320.948 149.365 314.996 146.186C309.043 143.01 303.077 139.863 297.027 136.9C294 135.423 290.952 133.992 287.861 132.67C284.768 131.365 281.634 130.125 278.413 129.282C276.811 128.875 275.157 128.538 273.572 128.659C272.797 128.736 272.027 128.963 271.597 129.507C271.364 129.738 271.231 130.168 271.044 130.498C270.935 130.868 270.779 131.238 270.754 131.627C270.609 132.401 270.786 133.193 270.998 133.955C271.288 134.702 271.641 135.44 272.136 136.101C273.081 137.447 274.289 138.62 275.571 139.689C278.156 141.82 281.05 143.576 284.009 145.179C286.973 146.78 290.027 148.226 293.154 149.496C289.99 148.32 286.891 146.964 283.868 145.447C280.861 143.907 277.914 142.207 275.237 140.1C273.908 139.04 272.641 137.871 271.613 136.474C271.079 135.791 270.674 135.005 270.339 134.188C270.079 133.346 269.862 132.444 270.004 131.535C270.028 131.082 270.19 130.647 270.313 130.215C270.53 129.807 270.624 129.393 270.969 128.993C271.606 128.181 272.606 127.905 273.478 127.797C275.271 127.623 276.982 127.951 278.649 128.33C281.979 129.139 285.155 130.361 288.296 131.632C291.43 132.922 294.514 134.32 297.574 135.761C303.689 138.654 309.71 141.726 315.711 144.824C321.717 147.912 327.687 151.065 333.696 154.107C336.704 155.612 339.727 157.103 342.798 158.388C343.566 158.708 344.337 159.008 345.108 159.271C345.872 159.533 346.668 159.771 347.359 159.848C347.681 159.91 348.017 159.767 347.819 159.883C347.757 159.986 347.765 159.985 347.772 159.933C347.761 159.852 347.752 159.735 347.696 159.582C347.509 158.982 347.049 158.271 346.603 157.621C344.701 154.983 342.35 152.539 340.026 150.133C337.678 147.732 335.262 145.386 332.828 143.058C327.955 138.404 322.99 133.834 318.051 129.228C313.147 124.574 308.177 120.019 303.556 114.97C302.985 114.326 302.421 113.674 301.885 112.963C301.62 112.599 301.356 112.242 301.113 111.802C300.991 111.589 300.872 111.352 300.773 111.038C300.73 110.865 300.672 110.726 300.683 110.43C300.647 110.237 300.81 109.748 301.053 109.514C301.168 109.409 301.301 109.313 301.437 109.237C301.566 109.17 301.64 109.162 301.747 109.127C301.966 109.059 302.109 109.057 302.258 109.047C302.573 109.023 302.8 109.056 303.054 109.077C303.532 109.137 303.977 109.224 304.407 109.33C305.268 109.538 306.096 109.785 306.911 110.052C310.167 111.125 313.306 112.385 316.444 113.655C328.961 118.778 341.265 124.351 353.83 129.169C356.974 130.325 360.156 131.499 363.365 132.171C364.152 132.325 364.989 132.445 365.648 132.36C365.815 132.347 365.947 132.297 366.02 132.261C366.046 132.242 366.095 132.23 366.079 132.221C366.092 132.225 366.096 132.214 366.094 132.196C366.137 132.135 366.056 131.782 365.893 131.477C365.167 130.176 363.942 128.949 362.764 127.803C357.889 123.231 352.434 119.211 347.025 115.203C336.161 107.207 324.967 99.6511 313.732 92.1646Z" fill="white" fill-opacity="0.5"/>
<path d="M292.985 345.368C293.925 343.163 295.025 341.037 296.194 338.943C297.374 336.857 298.654 334.822 300.094 332.872C300.821 331.901 301.573 330.943 302.433 330.039C302.857 329.584 303.321 329.149 303.831 328.735C304.351 328.332 304.907 327.922 305.733 327.704C306.552 327.458 307.876 327.769 308.308 328.854C308.656 329.715 308.617 330.367 308.621 331.025C308.577 332.318 308.375 333.517 308.158 334.713C307.241 339.46 305.911 344.031 304.94 348.64C304.698 349.788 304.483 350.938 304.328 352.072C304.177 353.173 304.065 354.4 304.26 355.194C304.305 355.374 304.384 355.473 304.359 355.445C304.31 355.408 304.26 355.397 304.337 355.396C304.496 355.385 304.926 355.102 305.28 354.772C306.018 354.047 306.701 353.109 307.341 352.157C309.875 348.265 311.975 343.972 314.25 339.783C315.395 337.681 316.528 335.577 317.946 333.537C318.316 333.028 318.687 332.528 319.177 332.039C319.405 331.795 319.69 331.552 320.039 331.324C320.257 331.218 320.373 331.093 320.692 331.027C320.977 330.944 321.263 330.913 321.548 330.977C322.123 331.07 322.485 331.352 322.792 331.593C323.078 331.846 323.325 332.106 323.528 332.364C323.953 332.882 324.288 333.401 324.618 333.918C325.902 335.987 327.022 338.041 328.353 339.962C329.666 341.883 331.117 343.7 332.846 345.209C333.712 345.959 334.647 346.619 335.633 347.193C336.63 347.747 337.684 348.19 338.774 348.541C340.972 349.188 343.321 349.319 345.646 349.074C345.849 349.052 346.031 349.197 346.054 349.4C346.076 349.592 345.941 349.767 345.755 349.804C343.375 350.246 340.877 350.235 338.467 349.675C337.27 349.37 336.098 348.945 334.995 348.377C333.901 347.797 332.86 347.118 331.896 346.346C329.981 344.786 328.34 342.932 326.935 340.954C325.516 338.987 324.312 336.88 323.048 334.932C322.73 334.452 322.405 333.978 322.066 333.583C321.755 333.184 321.309 332.853 321.244 332.891C321.233 332.874 321.228 332.893 321.225 332.899C321.239 332.861 321.128 332.964 321.079 332.98C320.939 333.082 320.756 333.222 320.587 333.419C320.237 333.774 319.907 334.241 319.58 334.694C318.286 336.568 317.159 338.664 316.04 340.744C313.791 344.921 311.727 349.211 309.084 353.314C308.399 354.334 307.693 355.345 306.736 356.295C306.21 356.741 305.692 357.272 304.668 357.484C304.385 357.5 304.138 357.556 303.823 357.471C303.522 357.411 303.213 357.247 302.97 357.044C302.496 356.615 302.33 356.143 302.214 355.756C302.013 354.972 302.02 354.311 302.037 353.661C302.061 353.015 302.128 352.394 302.21 351.781C302.384 350.559 302.627 349.372 302.887 348.196C303.934 343.504 305.317 338.937 306.256 334.347C306.48 333.207 306.678 332.052 306.726 330.966C306.75 330.444 306.709 329.87 306.598 329.624C306.576 329.56 306.554 329.551 306.571 329.562C306.557 329.566 306.512 329.513 306.483 329.51C306.435 329.476 306.323 329.484 306.166 329.507C305.832 329.58 305.373 329.853 304.963 330.179C304.546 330.51 304.133 330.883 303.742 331.295C302.952 332.105 302.219 333.013 301.511 333.938C298.696 337.675 296.197 341.712 293.638 345.712C293.528 345.884 293.299 345.935 293.127 345.826C292.972 345.727 292.916 345.532 292.985 345.368Z" fill="#B0F3CC"/>
</svg>
