<svg width="45" height="45" viewBox="0 0 45 45" fill="none" xmlns="http://www.w3.org/2000/svg">
<g clip-path="url(#clip0_1533_6826)">
<path d="M11.5886 27.4369C16.9694 27.4369 21.3314 23.0748 21.3314 17.694C21.3314 12.3132 16.9694 7.95117 11.5886 7.95117C6.20773 7.95117 1.8457 12.3132 1.8457 17.694C1.8457 23.0748 6.20773 27.4369 11.5886 27.4369Z" fill="#46A83E"/>
<path d="M17.9969 40.1976C16.9373 40.1976 15.8777 40.1238 14.8255 39.9761C13.2188 39.7506 12.0071 38.3543 12.0071 36.7281V33.0389C9.81317 31.9541 7.95489 30.2963 6.62297 28.233C5.21367 26.0498 4.46875 23.5162 4.46875 20.906C4.46875 13.4466 10.5375 7.37793 17.9969 7.37793C25.4563 7.37793 31.525 13.4466 31.525 20.906C31.525 23.5162 30.7801 26.0498 29.3708 28.233C27.9984 30.359 26.0671 32.0545 23.7856 33.1362C23.61 33.2193 23.4004 33.1446 23.3173 32.9692C23.2342 32.7937 23.3089 32.584 23.4844 32.5009C25.6475 31.4753 27.4787 29.8676 28.78 27.8517C30.1158 25.7824 30.8219 23.3806 30.8219 20.906C30.8219 13.8343 25.0686 8.08105 17.9969 8.08105C10.9251 8.08105 5.17188 13.8343 5.17188 20.906C5.17188 23.3806 5.87792 25.7824 7.2137 27.8517C8.51507 29.8676 10.3463 31.4753 12.5093 32.5009C12.632 32.5591 12.7103 32.6827 12.7103 32.8185V36.7281C12.7103 38.0057 13.6616 39.1027 14.9232 39.2799C16.9628 39.5662 19.0311 39.5662 21.0706 39.2799C22.3321 39.1028 23.2834 38.0057 23.2834 36.7281V34.4948C23.2834 34.3006 23.4409 34.1432 23.635 34.1432C23.8291 34.1432 23.9866 34.3006 23.9866 34.4948V36.7281C23.9866 38.3543 22.775 39.7506 21.1682 39.9761C20.1161 40.1238 19.0564 40.1976 17.9969 40.1976Z" fill="white"/>
<path d="M29.9863 39.7764V40.0943C29.9863 40.7026 30.4366 41.2161 31.0393 41.2977C31.8445 41.4067 32.6496 41.4067 33.4547 41.2977C34.0575 41.2161 34.5077 40.7026 34.5077 40.0943V39.7764C33.0006 40.0147 31.4935 40.0147 29.9863 39.7764Z" fill="white"/>
<path d="M31.5265 20.9061C31.5622 22.6762 31.2308 24.4614 30.5529 26.1064C29.8792 27.7531 28.8673 29.2609 27.6025 30.5102L27.1173 30.9672C26.9483 31.1114 26.7809 31.2576 26.6105 31.3999C26.4343 31.5351 26.2599 31.6727 26.0815 31.8048C25.8986 31.9308 25.7186 32.0608 25.5335 32.1829C24.7904 32.6683 24.0017 33.0839 23.1781 33.411C21.5306 34.0587 19.7365 34.3447 17.9983 34.1683C17.951 34.1635 17.9165 34.1212 17.9213 34.0739C17.9255 34.0327 17.9581 34.0012 17.9977 33.997L17.9983 33.9969C18.8551 33.9042 19.6958 33.7676 20.5162 33.5617C20.7218 33.513 20.9233 33.4477 21.127 33.3947C21.3301 33.3389 21.5289 33.2678 21.7295 33.2055C21.8304 33.1757 21.9276 33.1345 22.0262 33.0984L22.322 32.9898C22.4214 32.9562 22.5167 32.9113 22.6138 32.8715L22.9045 32.7511C23.6743 32.4179 24.4135 32.0153 25.104 31.5415C25.2763 31.4226 25.4433 31.2963 25.6132 31.1744C25.7788 31.0466 25.9399 30.9129 26.1039 30.7832L26.5766 30.371L27.0287 29.9364C27.6168 29.3419 28.1441 28.689 28.6099 27.9957C29.0747 27.3015 29.4685 26.5609 29.7938 25.7916C29.8692 25.597 29.9533 25.4054 30.0222 25.2082C30.088 25.01 30.1625 24.8145 30.2216 24.6142C30.2785 24.4132 30.3442 24.2144 30.3945 24.0116C30.4415 23.808 30.4967 23.606 30.5375 23.4009C30.7086 22.5819 30.8039 21.7461 30.8233 20.9061L30.8234 20.905C30.8279 20.7109 30.9889 20.5571 31.183 20.5616C31.3718 20.566 31.5224 20.7192 31.5265 20.9061Z" fill="white"/>
<path d="M19.8656 33.1496C19.8329 33.1496 19.7996 33.145 19.7666 33.1354C19.5803 33.0808 19.4734 32.8856 19.528 32.6992L21.4125 26.2611C21.7161 25.2239 21.5423 24.1288 20.9642 23.2707C20.5618 23.4919 20.1044 23.6225 19.6202 23.634C19.0362 23.6475 18.4751 23.4947 17.9908 23.196C17.5584 23.4622 17.0548 23.6213 16.5184 23.634C15.9882 23.6454 15.4789 23.5219 15.0275 23.2763C14.4524 24.1335 14.28 25.2261 14.5829 26.2611L16.4674 32.6992C16.522 32.8856 16.4151 33.0808 16.2288 33.1354C16.0425 33.19 15.8472 33.0831 15.7926 32.8967L13.9081 26.4586C13.5442 25.215 13.7557 23.8999 14.454 22.8692C14.4247 22.8427 14.3959 22.8156 14.3675 22.7879C13.7892 22.223 13.4707 21.4669 13.4707 20.6586C13.4707 19.7143 13.9258 18.8167 14.688 18.2576C14.8117 18.1668 14.9802 18.1668 15.1039 18.2576C15.8662 18.8168 16.3212 19.7144 16.3212 20.6586C16.3212 21.4343 16.0264 22.1647 15.4899 22.7219C15.8021 22.867 16.146 22.9388 16.5019 22.931C16.8213 22.9235 17.1255 22.848 17.4006 22.7186C16.8658 22.162 16.5725 21.4342 16.5725 20.6586C16.5725 19.7143 17.0276 18.8167 17.7899 18.2576C17.9136 18.1668 18.082 18.1668 18.2058 18.2576C18.9741 18.8213 19.4292 19.7263 19.423 20.6783C19.4178 21.4641 19.0979 22.185 18.5839 22.7182C18.8982 22.8658 19.2452 22.9396 19.6037 22.931C19.9231 22.9235 20.2274 22.8479 20.5025 22.7186C19.9679 22.1619 19.6744 21.4329 19.6744 20.6586C19.6744 19.7143 20.1294 18.8167 20.8916 18.2576C21.0154 18.1668 21.1838 18.1668 21.3076 18.2576C22.0759 18.8213 22.531 19.7263 22.5248 20.6783C22.5192 21.5374 22.1374 22.3189 21.5369 22.8624C22.239 23.8942 22.4521 25.2123 22.0873 26.4586L20.2028 32.8967C20.1579 33.0501 20.0177 33.1496 19.8656 33.1496ZM14.896 18.9972C14.4397 19.4243 14.1738 20.0278 14.1738 20.6586C14.1738 21.2759 14.4171 21.8534 14.8588 22.2849C14.8715 22.2973 14.8844 22.3096 14.8974 22.3218C14.9155 22.303 14.9338 22.2843 14.9523 22.2659C15.3816 21.8366 15.6181 21.2658 15.6181 20.6586C15.6181 20.0279 15.3522 19.4244 14.896 18.9972ZM21.0997 18.9972C20.6434 19.4243 20.3775 20.0278 20.3775 20.6586C20.3775 21.2658 20.614 21.8366 21.0432 22.2659C21.0603 22.2829 21.0771 22.3001 21.0938 22.3174C21.537 21.9035 21.8175 21.3171 21.8217 20.6737C21.8258 20.037 21.5599 19.4279 21.0997 18.9972ZM17.9978 18.9972C17.5416 19.4243 17.2756 20.0279 17.2756 20.6586C17.2756 21.2759 17.5189 21.8534 17.9606 22.2848C17.9714 22.2954 17.9823 22.3058 17.9933 22.3162C18.4358 21.9024 18.7156 21.3165 18.7199 20.6737C18.724 20.037 18.4581 19.4279 17.9978 18.9972Z" fill="white"/>
<path d="M28.3877 20.068C28.2402 18.794 27.9197 17.5696 27.3928 16.4454C26.871 15.3206 26.1555 14.298 25.2861 13.4284C24.4158 12.5598 23.3934 11.8443 22.2688 11.3226C21.1445 10.7961 19.9205 10.4752 18.6465 10.3268C19.9231 10.1793 21.2492 10.3596 22.4805 10.8119C23.7126 11.2656 24.8496 11.9966 25.7831 12.9314C26.7171 13.8655 27.4481 15.0024 27.9017 16.2343C28.3536 17.4657 28.5343 18.7914 28.3877 20.068Z" fill="#666666"/>
<path d="M35.2246 20.9062C35.407 20.7606 35.5894 20.6851 35.7718 20.6307C35.9543 20.5775 36.1367 20.5555 36.3191 20.5547C36.5015 20.5547 36.6839 20.5767 36.8663 20.6298C37.0487 20.6839 37.2312 20.7597 37.4136 20.9062C37.2312 21.0527 37.0487 21.1285 36.8663 21.1826C36.6839 21.2357 36.5015 21.2577 36.3191 21.2577C36.1367 21.2569 35.9543 21.2349 35.7718 21.1817C35.5894 21.1273 35.407 21.0518 35.2246 20.9062Z" fill="#666666"/>
<path d="M-1.41797 20.9062C-1.23556 20.7606 -1.05313 20.6851 -0.870723 20.6307C-0.688311 20.5775 -0.5059 20.5555 -0.323488 20.5547C-0.141076 20.5547 0.0413355 20.5767 0.223747 20.6298C0.406159 20.6839 0.588571 20.7597 0.770982 20.9062C0.588571 21.0527 0.406159 21.1285 0.223747 21.1826C0.0413355 21.2357 -0.141076 21.2577 -0.323488 21.2577C-0.5059 21.2569 -0.688311 21.2349 -0.870723 21.1817C-1.05313 21.1273 -1.23556 21.0518 -1.41797 20.9062Z" fill="#666666"/>
<path d="M44.4287 33.0879C44.6607 33.1139 44.843 33.1895 45.0105 33.28C45.177 33.3714 45.3216 33.4849 45.4512 33.6132C45.5801 33.7423 45.6936 33.8868 45.7851 34.0533C45.8758 34.2206 45.9512 34.4031 45.9765 34.6357C45.7439 34.6103 45.5614 34.5349 45.3941 34.4442C45.2276 34.3528 45.0831 34.2393 44.9541 34.1104C44.8257 33.9808 44.7123 33.8362 44.6209 33.6696C44.5303 33.5022 44.4547 33.3198 44.4287 33.0879Z" fill="#666666"/>
<path d="M4.26855 7.17773C4.50051 7.20375 4.68289 7.27934 4.8503 7.36989C5.01689 7.46128 5.16143 7.5747 5.29101 7.70309C5.41996 7.83211 5.53341 7.97664 5.62488 8.14313C5.71558 8.3104 5.791 8.49296 5.81637 8.72556C5.58378 8.70018 5.40122 8.62477 5.23395 8.53407C5.06746 8.44259 4.92293 8.32915 4.7939 8.2002C4.66552 8.07062 4.5521 7.92607 4.46071 7.75949C4.37016 7.59207 4.29456 7.40969 4.26855 7.17773Z" fill="#666666"/>
<path d="M17.998 1.49023C18.1436 1.67265 18.2191 1.85506 18.2735 2.03747C18.3267 2.21988 18.3487 2.4023 18.3495 2.58471C18.3494 2.76712 18.3275 2.94954 18.2744 3.13195C18.2203 3.31436 18.1445 3.49677 17.998 3.67919C17.8515 3.49677 17.7757 3.31436 17.7216 3.13195C17.6685 2.94954 17.6465 2.76712 17.6465 2.58471C17.6473 2.4023 17.6693 2.21988 17.7225 2.03747C17.7769 1.85506 17.8524 1.67265 17.998 1.49023Z" fill="#666666"/>
<path d="M20.0664 33.0879C20.0404 33.3198 19.9648 33.5022 19.8742 33.6696C19.7828 33.8362 19.6694 33.9808 19.541 34.1104C19.412 34.2393 19.2675 34.3528 19.101 34.4442C18.9337 34.5349 18.7511 34.6103 18.5186 34.6357C18.5439 34.4031 18.6193 34.2206 18.71 34.0533C18.8015 33.8868 18.915 33.7423 19.0439 33.6132C19.1735 33.4849 19.318 33.3714 19.4846 33.28C19.652 33.1895 19.8344 33.1139 20.0664 33.0879Z" fill="#666666"/>
<path d="M31.7265 7.17773C31.7005 7.40969 31.6249 7.59207 31.5344 7.75949C31.443 7.92607 31.3296 8.07062 31.2012 8.2002C31.0722 8.32915 30.9276 8.44259 30.7611 8.53407C30.5939 8.62477 30.4113 8.70018 30.1787 8.72556C30.2041 8.49296 30.2795 8.3104 30.3702 8.14313C30.4617 7.97664 30.5751 7.83211 30.7041 7.70309C30.8337 7.5747 30.9782 7.46128 31.1448 7.36989C31.3122 7.27934 31.4946 7.20375 31.7265 7.17773Z" fill="#666666"/>
</g>
<defs>
<clipPath id="clip0_1533_6826">
<rect width="45" height="45" fill="white"/>
</clipPath>
</defs>
</svg>
