<svg width="50" height="50" viewBox="0 0 50 50" fill="none" xmlns="http://www.w3.org/2000/svg">
<g clip-path="url(#clip0_1533_7062)">
<path d="M17.4531 44.9346C17.4066 44.9346 17.3592 44.9262 17.3131 44.9084C17.1117 44.8311 17.0112 44.6051 17.0886 44.4037L19.1591 39.0167C19.2365 38.8154 19.4623 38.7147 19.6639 38.7923C19.8652 38.8697 19.9657 39.0957 19.8884 39.297L17.8179 44.684C17.7582 44.8393 17.6101 44.9346 17.4531 44.9346Z" fill="white"/>
</g>
<path opacity="0.4" d="M33.5363 40.0277C39.515 40.0277 44.3617 35.181 44.3617 29.2023C44.3617 23.2236 39.515 18.377 33.5363 18.377C27.5576 18.377 22.7109 23.2236 22.7109 29.2023C22.7109 35.181 27.5576 40.0277 33.5363 40.0277Z" fill="#46A83E"/>
<path d="M37.4076 44.9346H12.5859C12.3702 44.9346 12.1953 44.7597 12.1953 44.5439C12.1953 44.3282 12.3702 44.1533 12.5859 44.1533H37.4076C37.6233 44.1533 37.7982 44.3282 37.7982 44.5439C37.7982 44.7597 37.6233 44.9346 37.4076 44.9346Z" fill="white"/>
<path d="M24.9975 40.4188C15.0844 40.4188 7.01953 32.354 7.01953 22.4409C7.01953 12.5278 15.0844 4.46289 24.9975 4.46289C34.9105 4.46289 42.9754 12.5278 42.9754 22.4409C42.9754 32.354 34.9105 40.4188 24.9975 40.4188ZM24.9975 5.24414C15.5152 5.24414 7.80078 12.9586 7.80078 22.4409C7.80078 31.9232 15.5152 39.6375 24.9975 39.6375C34.4798 39.6375 42.1942 31.9232 42.1942 22.4409C42.1942 12.9586 34.4798 5.24414 24.9975 5.24414Z" fill="white"/>
<path d="M32.8989 44.9345C32.7418 44.9345 32.5938 44.8392 32.5341 44.6839L30.4636 39.297C30.3862 39.0956 30.4867 38.8696 30.6881 38.7922C30.8895 38.7148 31.1154 38.8153 31.1929 39.0166L33.2634 44.4036C33.3408 44.605 33.2403 44.831 33.0389 44.9083C32.9928 44.9261 32.9454 44.9345 32.8989 44.9345Z" fill="white"/>
<path d="M24.9964 7.61621C25.1599 10.0869 25.2454 12.5577 25.3035 15.0284C25.3664 17.4991 25.3898 19.9699 25.3913 22.4406C25.3909 24.9113 25.3673 27.3821 25.3047 29.8528C25.2468 32.3235 25.1609 34.7943 24.9964 37.265C24.832 34.7943 24.7461 32.3235 24.6882 29.8528C24.6256 27.3821 24.602 24.9113 24.6016 22.4406C24.6031 19.9699 24.6265 17.4991 24.6894 15.0284C24.7475 12.5577 24.833 10.0869 24.9964 7.61621Z" fill="#A0A0A0"/>
<path d="M39.8206 22.4408C37.3499 22.6042 34.8792 22.6897 32.4084 22.7478C29.9377 22.8107 27.467 22.8341 24.9963 22.8356C22.5255 22.8352 20.0548 22.8116 17.5841 22.749C15.1133 22.6911 12.6426 22.6052 10.1719 22.4408C12.6426 22.2763 15.1133 22.1904 17.5841 22.1325C20.0548 22.07 22.5255 22.0463 24.9963 22.0459C27.467 22.0474 29.9377 22.0709 32.4084 22.1337C34.8792 22.1918 37.3499 22.2773 39.8206 22.4408Z" fill="#A0A0A0"/>
<path d="M12.1582 29.8527C14.2162 28.4758 16.3131 27.1664 18.4238 25.8807C20.5321 24.5909 22.6601 23.3352 24.7991 22.0985C26.939 20.8635 29.0905 19.6486 31.2615 18.4675C33.4302 17.2822 35.6128 16.1213 37.8348 15.0283C35.7773 16.4061 33.6805 17.7159 31.5698 19.0014C29.4613 20.2909 27.3334 21.5468 25.1939 22.7825C23.0534 24.0165 20.902 25.2316 18.7309 26.4125C16.5621 27.5976 14.3796 28.7589 12.1582 29.8527Z" fill="#A0A0A0"/>
<path d="M17.584 9.60254C18.9609 11.6605 20.2703 13.7575 21.556 15.8682C22.8458 17.9764 24.1014 20.1045 25.3381 22.2434C26.5731 24.3833 27.788 26.5349 28.9692 28.7059C30.1545 30.8745 31.3154 33.0572 32.4084 35.2791C31.0306 33.2216 29.7208 31.1249 28.4353 29.0141C27.1458 26.9057 25.8899 24.7778 24.6542 22.6383C23.4202 20.4978 22.2051 18.3464 21.0242 16.1752C19.8391 14.0065 18.6778 11.824 17.584 9.60254Z" fill="#A0A0A0"/>
<path d="M37.8348 29.8527C35.6133 28.7589 33.4309 27.5976 31.2621 26.4125C29.091 25.2316 26.9395 24.0165 24.7991 22.7825C22.6595 21.5468 20.5317 20.2909 18.4232 19.0014C16.3124 17.7159 14.2157 16.4061 12.1582 15.0283C14.3801 16.1213 16.5628 17.2822 18.7315 18.4675C20.9025 19.6486 23.054 20.8635 25.1939 22.0985C27.3329 23.3352 29.4609 24.5909 31.5692 25.8807C33.6798 27.1664 35.7768 28.4758 37.8348 29.8527Z" fill="#A0A0A0"/>
<path d="M32.4084 9.60254C31.3145 11.824 30.1532 14.0065 28.9682 16.1752C27.7873 18.3464 26.5722 20.4978 25.3381 22.6383C24.1024 24.7778 22.8466 26.9057 21.557 29.0141C20.2715 31.1249 18.9618 33.2216 17.584 35.2791C18.6769 33.0572 19.8379 30.8745 21.0231 28.7059C22.2043 26.5349 23.4192 24.3833 24.6542 22.2434C25.8909 20.1045 27.1465 17.9764 28.4363 15.8682C29.722 13.7575 31.0314 11.6605 32.4084 9.60254Z" fill="#A0A0A0"/>
<path d="M24.9954 11.9263C24.8043 11.9263 24.6353 11.8021 24.5784 11.6196L22.4315 4.73361C22.2875 4.27178 22.6325 3.80273 23.1163 3.80273H26.8745C27.3583 3.80273 27.7033 4.27178 27.5593 4.73361L25.4124 11.6196C25.3555 11.8021 25.1865 11.9263 24.9954 11.9263Z" fill="white"/>
<defs>
<clipPath id="clip0_1533_7062">
<rect width="50" height="50" fill="white"/>
</clipPath>
</defs>
</svg>
