<svg width="48" height="38" viewBox="0 0 48 38" fill="none" xmlns="http://www.w3.org/2000/svg">
<path d="M47.3349 37.0246H46.0395L45.0998 33.0449C44.988 32.5715 44.7514 32.1528 44.4254 31.8226L44.2092 27.2615C44.1583 26.1904 43.3508 25.3049 42.2889 25.1561L41.2339 25.0082C40.7916 24.9462 40.4085 24.6896 40.1828 24.3041L38.0258 20.6194C37.7098 20.0796 37.1778 19.6949 36.5661 19.564L31.7948 18.5434L31.3891 17.2075C31.2292 16.6811 30.8977 16.2109 30.4558 15.8835L24.9468 11.8013C23.9135 11.0356 22.4792 11.1556 21.5851 12.0498L17.6162 11.4812C16.6799 11.3474 15.7903 11.8702 15.4521 12.753L15.2297 13.3335C15.1349 13.5811 14.9589 13.795 14.7342 13.9359L9.37469 17.2956C8.91197 17.5857 8.58328 18.0587 8.4729 18.5936L6.51805 28.0633L5.97808 28.2033C5.11682 28.4266 4.41945 29.0937 4.15809 29.9442L1.98311 37.0246H0.660156C0.444435 37.0246 0.269531 37.1995 0.269531 37.4152C0.269531 37.6309 0.444435 37.8058 0.660156 37.8058H2.27063C2.27105 37.8058 2.27149 37.8059 2.27191 37.8059C2.27231 37.8059 2.2727 37.8058 2.2731 37.8058H45.7289C45.7293 37.8058 45.7296 37.8059 45.73 37.8059C45.7303 37.8059 45.7305 37.8058 45.7308 37.8058H47.3349C47.5506 37.8058 47.7255 37.6309 47.7255 37.4152C47.7255 37.1995 47.5506 37.0246 47.3349 37.0246ZM45.2367 37.0246H28.6192L31.4876 33.3618C31.7828 32.9849 32.2069 32.7447 32.6818 32.6853L34.5376 32.4534C35.2171 32.3685 35.8244 32.0252 36.2475 31.4867L36.3301 31.3815C36.7617 30.8322 37.4799 30.5809 38.16 30.7417L43.0013 31.886C43.2905 31.9544 43.5504 32.0895 43.7652 32.2749C43.7734 32.2832 43.7822 32.2907 43.7911 32.2982C44.0587 32.5383 44.2528 32.8578 44.3394 33.2244L45.2367 37.0246ZM36.4026 20.328C36.8003 20.4131 37.1462 20.6631 37.3516 21.0141L39.5086 24.6987C39.8557 25.2917 40.445 25.6865 41.1255 25.7819L42.1805 25.9298C42.8707 26.0265 43.3957 26.6022 43.4288 27.2985L43.6171 31.2717C43.4778 31.2115 43.3326 31.1615 43.181 31.1257L40.5834 30.5117L39.7387 28.4071C39.5324 27.8929 39.1745 27.4668 38.7038 27.1748L33.9973 24.255C33.6255 24.0244 33.3508 23.6668 33.2237 23.2483L32.0543 19.3979L36.4026 20.328ZM9.23803 18.7515C9.30555 18.4243 9.50658 18.135 9.78963 17.9576L15.1492 14.5978C15.5165 14.3675 15.8042 14.0177 15.9593 13.613L16.1817 13.0324C16.3885 12.4924 16.9331 12.1725 17.5054 12.2545L20.981 12.7525L18.0003 16.2979C17.7168 16.6351 17.3207 16.8563 16.885 16.9205L15.4434 17.1332C14.6057 17.2568 13.8814 17.7838 13.506 18.543L9.4991 26.6469C9.26712 27.116 8.84354 27.4604 8.33695 27.5917L7.36089 27.8448L9.23803 18.7515ZM4.90491 30.1737C5.08716 29.5805 5.57349 29.1153 6.17416 28.9596L8.53302 28.348C9.25944 28.1597 9.86679 27.6659 10.1994 26.9932L14.2063 18.8892C14.4681 18.3598 14.9732 17.9923 15.5575 17.9061L16.999 17.6934C17.6238 17.6012 18.1918 17.2842 18.5983 16.8007L22.0316 12.7169C22.6427 11.99 23.7189 11.8637 24.4817 12.429L29.9907 16.5112C30.2989 16.7395 30.5301 17.0675 30.6416 17.4346L32.4761 23.4753C32.6584 24.0755 33.0524 24.5882 33.5854 24.9189L38.2919 27.8386C38.6202 28.0423 38.8698 28.3395 39.0137 28.698L39.6533 30.2919L38.3396 29.9814C37.3649 29.7509 36.3348 30.111 35.7158 30.8988L35.6332 31.004C35.3381 31.3795 34.9146 31.6189 34.4407 31.6781L32.5849 31.9101C31.9039 31.9953 31.2958 32.3397 30.8725 32.8801L30.611 33.214L28.4755 29.5476C28.2276 29.1221 27.8437 28.7925 27.3855 28.612L22.5387 26.7018C21.8696 26.4381 21.1138 26.5195 20.5162 26.9197L15.9857 29.9534C15.5805 30.2247 15.2774 30.6234 15.1244 31.0864L13.1618 37.0246H2.8004L4.90491 30.1737Z" fill="white"/>
<path opacity="0.4" d="M33.5715 21.7118C39.5502 21.7118 44.3969 16.8651 44.3969 10.8864C44.3969 4.90773 39.5502 0.0610352 33.5715 0.0610352C27.5928 0.0610352 22.7461 4.90773 22.7461 10.8864C22.7461 16.8651 27.5928 21.7118 33.5715 21.7118Z" fill="#46A83E"/>
</svg>
