<svg width="50" height="50" viewBox="0 0 50 50" fill="none" xmlns="http://www.w3.org/2000/svg">
<path opacity="0.4" d="M22.4641 30.9594C28.4428 30.9594 33.2894 26.1127 33.2894 20.134C33.2894 14.1553 28.4428 9.30859 22.4641 9.30859C16.4854 9.30859 11.6387 14.1553 11.6387 20.134C11.6387 26.1127 16.4854 30.9594 22.4641 30.9594Z" fill="#46A83E"/>
<path d="M32.0124 24.5669C31.0418 24.5669 30.086 24.3845 29.1777 24.0171C24.7118 22.2111 22.8194 16.4371 24.9592 11.1461C25.991 8.59478 27.7968 6.53103 30.0444 5.33493C32.3149 4.12663 34.7633 3.94581 36.9389 4.82567C41.4047 6.63174 43.2971 12.4057 41.1574 17.6967C40.1256 20.248 38.3197 22.3118 36.0723 23.5079C34.7497 24.2117 33.3667 24.5669 32.0124 24.5669ZM34.1053 5.05818C32.8766 5.05818 31.6181 5.38243 30.4113 6.02463C28.3256 7.13461 26.6465 9.05751 25.6834 11.439C23.7052 16.3307 25.4041 21.6484 29.4706 23.2929C31.4282 24.0847 33.6424 23.9159 35.7052 22.8182C37.791 21.7082 39.47 19.7853 40.4331 17.4038C42.4113 12.5121 40.7125 7.19441 36.6459 5.54989C35.8336 5.22135 34.9769 5.05818 34.1053 5.05818Z" fill="white"/>
<path d="M29.3034 23.706C28.8576 23.5257 28.444 23.2903 28.0624 23.0068L27.4278 24.1012C27.2464 24.414 27.2784 24.8054 27.5037 25.0884C28.0522 25.7774 28.763 26.0649 29.6363 25.9508C29.9949 25.904 30.29 25.6449 30.3771 25.2939L30.6815 24.066C30.2102 24.0046 29.7492 23.8863 29.3034 23.706Z" fill="white"/>
<path d="M35.4824 6.76367C36.4773 6.98663 37.4039 7.5652 38.1155 8.33901C38.8308 9.11412 39.3369 10.0772 39.6176 11.0905C39.9004 12.1053 39.962 13.1726 39.8254 14.2015C39.687 15.2301 39.3549 16.2262 38.828 17.0964C39.0482 16.1044 39.1926 15.1278 39.206 14.1548C39.2216 13.1839 39.1112 12.2215 38.8566 11.3017C38.6017 10.3828 38.2007 9.50699 37.6378 8.73271C37.077 7.95606 36.3508 7.29186 35.4824 6.76367Z" fill="#666666"/>
<path d="M22.4646 41.0079C22.3812 41.0079 22.2973 40.9813 22.2262 40.9265C22.0555 40.7946 22.0238 40.5493 22.1556 40.3785C24.1441 37.8024 24.1802 35.8519 24.2183 33.7869C24.2676 31.1201 24.3186 28.3624 28.6464 24.3909C28.8052 24.2451 29.0523 24.2555 29.1983 24.4147C29.3441 24.5736 29.3335 24.8207 29.1745 24.9666C25.0936 28.7117 25.0478 31.184 24.9995 33.8014C24.9605 35.9025 24.9204 38.0751 22.7742 40.8559C22.6972 40.9556 22.5815 41.0079 22.4646 41.0079Z" fill="white"/>
<path d="M31.0353 31.0096C30.7316 30.6367 30.4827 30.2311 30.285 29.7988L29.2014 30.4517C28.8917 30.6384 28.7311 30.9968 28.7921 31.3533C28.9405 32.2213 29.4248 32.8159 30.2449 33.1369C30.5816 33.2687 30.9651 33.184 31.2106 32.9184L32.0692 31.9893C31.6859 31.7083 31.339 31.3825 31.0353 31.0096Z" fill="white"/>
<path d="M44.4595 18.9062C45.2238 19.5812 45.7567 20.5347 46.0072 21.5557C46.2602 22.5796 46.2395 23.6674 45.997 24.6905C45.7556 25.7159 45.2951 26.6808 44.6794 27.5164C44.0623 28.3508 43.2912 29.0635 42.4102 29.572C43.0812 28.809 43.6785 28.0229 44.1592 27.1769C44.6409 26.3337 45.0081 25.4374 45.2284 24.5087C45.448 23.5808 45.5188 22.6201 45.3989 21.6704C45.2819 20.7196 44.9658 19.7876 44.4595 18.9062Z" fill="#666666"/>
<path d="M37.202 34.0998C37.1555 34.0998 37.1093 34.0995 37.0628 34.0988C34.4912 34.063 32.2587 33.0413 30.7766 31.2217C29.1475 29.2215 28.65 26.487 29.4116 23.719C29.4688 23.5112 29.6835 23.3888 29.8919 23.4461C30.0999 23.5033 30.222 23.7183 30.1648 23.9263C29.4712 26.4474 29.915 28.9266 31.3824 30.7282C32.716 32.3655 34.7372 33.2851 37.0737 33.3176C39.4344 33.3502 41.8343 32.4751 43.8259 30.8528C45.8178 29.2305 47.1602 27.0592 47.606 24.7389C48.047 22.4441 47.5554 20.2786 46.2217 18.6414C45.0585 17.2132 43.322 16.3107 41.3321 16.1C41.1175 16.0773 40.962 15.885 40.9847 15.6705C41.0074 15.456 41.1995 15.2996 41.4143 15.3231C43.6107 15.5557 45.5331 16.5589 46.8275 18.1479C48.3096 19.9675 48.8586 22.3606 48.3732 24.8863C47.8929 27.3865 46.4531 29.7206 44.3194 31.4586C42.2245 33.1649 39.7021 34.0998 37.202 34.0998Z" fill="white"/>
<path d="M23.777 45.721C23.712 45.721 23.646 45.7047 23.5852 45.6704C23.3975 45.5643 23.3312 45.326 23.4373 45.1381C24.7191 42.8693 25.3223 40.5625 25.8545 38.5271C26.6546 35.467 27.3457 32.8242 29.9845 31.4369C30.1751 31.3368 30.4116 31.4099 30.5121 31.6009C30.6124 31.7918 30.539 32.0281 30.348 32.1285C28.0143 33.3553 27.3947 35.7248 26.6103 38.7248C26.066 40.8062 25.4492 43.1653 24.1175 45.5225C24.0457 45.6496 23.9133 45.721 23.777 45.721Z" fill="white"/>
<path d="M21.6265 38.2626C19.9509 38.2626 18.3166 37.8272 16.8464 36.9822C16.7384 36.9201 16.6665 36.8103 16.6528 36.6865C16.639 36.5627 16.6852 36.4398 16.7769 36.3556C18.2932 34.965 20.177 34.1102 22.2247 33.8835C24.2727 33.6565 26.2976 34.0789 28.0813 35.1042C28.1893 35.1663 28.2612 35.276 28.2749 35.3998C28.2886 35.5236 28.2425 35.6465 28.1506 35.7308C26.6343 37.1213 24.7505 37.9762 22.703 38.2029C22.3431 38.2427 21.9838 38.2626 21.6265 38.2626ZM17.7273 36.5675C19.2422 37.3176 20.9209 37.6142 22.617 37.4264C24.3128 37.2386 25.8862 36.5821 27.2004 35.5188C25.6857 34.7688 24.0067 34.4724 22.3107 34.66C20.6147 34.8477 19.0413 35.5043 17.7273 36.5675Z" fill="white"/>
<path d="M8.0947 42.2133C7.56208 42.2133 7.02659 42.1689 6.49215 42.0794C6.36932 42.0588 6.26365 41.9809 6.20767 41.8696C6.15169 41.7584 6.15217 41.6271 6.20891 41.5162C7.14599 39.6845 8.61408 38.2271 10.4546 37.3014C12.295 36.3757 14.3405 36.0662 16.3695 36.4058C16.4924 36.4264 16.598 36.5043 16.654 36.6156C16.71 36.7268 16.7095 36.8582 16.6528 36.9691C15.7156 38.8008 14.2475 40.2583 12.4071 41.1838C11.0516 41.8657 9.58453 42.2133 8.0947 42.2133ZM7.17346 41.3839C8.85497 41.5593 10.5319 41.2525 12.0562 40.4859C13.5803 39.7193 14.8266 38.5558 15.6882 37.1013C14.0073 36.926 12.3299 37.2328 10.8055 37.9993C9.28136 38.766 8.035 39.9295 7.17346 41.3839Z" fill="white"/>
<path d="M10.8634 28.3501C10.7104 28.3501 10.5651 28.2596 10.5026 28.1095C10.2475 27.4967 10.023 26.8649 9.83536 26.2318C8.70602 22.4213 8.81617 18.4321 10.154 14.6953C10.1959 14.5781 10.2913 14.4879 10.4107 14.4525C10.5299 14.4173 10.6593 14.4409 10.7583 14.5162C13.9162 16.9207 16.1823 20.2057 17.3116 24.016C17.4992 24.6487 17.6552 25.3008 17.7753 25.9541C17.8144 26.1663 17.674 26.3699 17.4618 26.4089C17.2493 26.4476 17.046 26.3076 17.007 26.0955C16.8918 25.4692 16.7422 24.8442 16.5626 24.238C15.5325 20.7625 13.5154 17.7435 10.7136 15.4743C9.60066 18.9036 9.55431 22.5342 10.5844 26.0098C10.7642 26.6164 10.9794 27.2219 11.2239 27.8093C11.3068 28.0084 11.2125 28.2371 11.0133 28.3201C10.9643 28.3405 10.9134 28.3501 10.8634 28.3501Z" fill="white"/>
<path d="M17.0569 37.2155C17.0181 37.2155 16.979 37.2097 16.941 37.1979C16.8221 37.1609 16.7279 37.0696 16.6874 36.9517C15.5999 33.7849 15.5508 30.4185 16.5453 27.2166C17.5399 24.0145 19.4876 21.2684 22.1778 19.275C22.2781 19.2008 22.4075 19.179 22.5263 19.2157C22.6452 19.2527 22.7394 19.3442 22.7799 19.462C23.8673 22.6288 23.9164 25.9952 22.922 29.1971C22.8145 29.543 22.691 29.8956 22.5549 30.2453C22.4767 30.4463 22.2503 30.5459 22.0493 30.4677C21.8482 30.3895 21.7486 30.1631 21.8269 29.962C21.9564 29.6292 22.0738 29.2939 22.1759 28.9653C23.0665 26.0979 23.0762 23.0917 22.2093 20.2363C19.8774 22.0979 18.1821 24.5808 17.2915 27.4483C16.397 30.328 16.391 33.3478 17.2691 36.2139C17.2767 36.2138 17.2842 36.2138 17.2918 36.2137L17.3438 36.2133C17.3449 36.2133 17.3459 36.2133 17.347 36.2133C17.5131 36.2133 17.6613 36.3185 17.716 36.4755C17.7709 36.6337 17.719 36.8093 17.5869 36.9121C17.4885 36.9887 17.3896 37.0644 17.2895 37.1387C17.2214 37.1892 17.1397 37.2155 17.0569 37.2155Z" fill="white"/>
<path d="M18.7924 44.7075C18.4728 44.7075 18.1771 44.4988 18.0818 44.1771L15.948 36.9773C15.9241 36.941 15.9063 36.9005 15.8959 36.8571C15.8576 36.6975 15.9187 36.5305 16.0555 36.4399L16.0664 36.4327C16.2068 36.3379 16.3888 36.3451 16.5188 36.4388L16.5112 36.413L16.0182 34.987C15.1035 32.7108 13.6177 30.6748 11.7213 29.0987C9.41205 27.1797 6.63771 26.0216 3.66787 25.7311C4.497 28.5977 6.14323 31.1133 8.45236 33.0322C8.7727 33.2985 9.11192 33.5568 9.46078 33.8002C9.63778 33.9236 9.68117 34.1671 9.55767 34.344C9.43436 34.5211 9.1907 34.5644 9.01389 34.4409C8.64701 34.185 8.29014 33.9132 7.95302 33.633C5.37457 31.4903 3.58147 28.6408 2.76761 25.3927C2.73728 25.2719 2.76646 25.1439 2.84609 25.048C2.92563 24.9524 3.04484 24.9009 3.17053 24.9079C6.51249 25.1136 9.64198 26.355 12.2206 28.4979C14.219 30.1588 15.7842 32.3051 16.7469 34.7049C16.7492 34.7108 16.7515 34.7167 16.7535 34.7227L17.2524 36.166C17.2543 36.1715 17.2561 36.177 17.2577 36.1826L19.5024 43.7561C19.5587 43.9459 19.5376 44.1461 19.4432 44.32C19.3488 44.4939 19.1923 44.6207 19.0025 44.6769C18.9326 44.6976 18.8619 44.7075 18.7924 44.7075Z" fill="white"/>
<path d="M8.84037 39.2183C8.83389 39.2183 8.82731 39.2181 8.82073 39.2178C6.17581 39.0865 3.68205 38.1487 1.60895 36.5059C1.51139 36.4286 1.45646 36.3094 1.46122 36.1849C1.46599 36.0604 1.52979 35.9457 1.63308 35.876C3.86925 34.3667 6.47869 33.6237 9.17731 33.7267C11.8768 33.8299 14.4212 34.7701 16.5355 36.4456C16.633 36.5229 16.6879 36.6421 16.6832 36.7664C16.6785 36.8908 16.6149 37.0054 16.5118 37.0752L16.4631 37.1075C16.2835 37.2273 16.0409 37.1785 15.9214 36.9991C15.9063 36.9764 15.8938 36.9528 15.884 36.9286C13.9342 35.4378 11.6097 34.6015 9.14736 34.5074C6.79989 34.4172 4.52452 35.0104 2.53363 36.2258C4.38691 37.5611 6.56233 38.3234 8.85945 38.4375C9.07488 38.4482 9.24092 38.6315 9.23024 38.847C9.21984 39.0558 9.04722 39.2183 8.84037 39.2183Z" fill="white"/>
<path d="M17.042 36.995C17.0351 36.995 17.0282 36.995 17.0213 36.9948C16.897 36.9923 16.7813 36.9307 16.7098 36.829C16.6383 36.7273 16.6194 36.5976 16.6591 36.4797C17.519 33.9227 19.1402 31.7479 21.3474 30.1906C23.5546 28.6333 26.1462 27.8331 28.8445 27.882C28.969 27.8841 29.0851 27.9455 29.1569 28.0474C29.2287 28.1491 29.2477 28.279 29.2079 28.3971C28.365 30.9031 26.7842 33.0482 24.6363 34.6004C24.4616 34.7267 24.2172 34.6875 24.0909 34.5126C23.9645 34.3378 24.0038 34.0936 24.1787 33.9672C26.0441 32.6192 27.4536 30.7945 28.2799 28.666C25.9482 28.7317 23.7179 29.4742 21.7978 30.8289C19.785 32.2491 18.2917 34.2167 17.4688 36.5287C17.4738 36.5544 17.4764 36.5809 17.4761 36.6082C17.4739 36.8225 17.2994 36.9948 17.0856 36.9948C17.0842 36.9948 17.0829 36.9948 17.0814 36.9948L17.0643 36.9949C17.0568 36.995 17.0494 36.995 17.042 36.995Z" fill="white"/>
<path d="M41.5699 40.7169C41.1382 40.6134 40.7532 40.4432 40.3801 40.2561C40.0091 40.066 39.6558 39.8507 39.3175 39.6139C38.9791 39.3773 38.6565 39.1183 38.3513 38.8344C38.0483 38.5474 37.7574 38.2431 37.5137 37.8716C37.9459 37.9743 38.3311 38.1442 38.7041 38.3315C39.075 38.5217 39.4284 38.7369 39.766 38.9745C40.1038 39.212 40.4265 39.471 40.7316 39.755C41.0345 40.0422 41.3256 40.3462 41.5699 40.7169Z" fill="#666666"/>
<path d="M17.7334 11.9303C17.3619 11.6874 17.0568 11.3975 16.7684 11.0957C16.4833 10.7916 16.2231 10.4699 15.9844 10.133C15.7455 9.79624 15.529 9.44367 15.3373 9.07349C15.1488 8.70116 14.9774 8.31666 14.873 7.88477C15.2454 8.12714 15.5508 8.4169 15.839 8.71884C16.1241 9.02293 16.3842 9.34461 16.6221 9.68211C16.8601 10.0195 17.0767 10.372 17.2683 10.7422C17.4567 11.1147 17.6283 11.499 17.7334 11.9303Z" fill="#666666"/>
<path d="M28.295 47.7601C28.2154 47.3233 28.2157 46.9024 28.2361 46.4855C28.2604 46.0694 28.3147 45.6592 28.3947 45.2541C28.4746 44.849 28.5813 44.4493 28.7179 44.0555C28.8581 43.6624 29.0191 43.2734 29.2605 42.9004C29.341 43.3374 29.3411 43.7583 29.3204 44.1752C29.2961 44.5913 29.2418 45.0015 29.1608 45.4063C29.0799 45.8112 28.9732 46.211 28.8366 46.6048C28.6961 46.9978 28.5355 47.3869 28.295 47.7601Z" fill="#666666"/>
</svg>
