<svg width="48" height="48" viewBox="0 0 48 48" fill="none" xmlns="http://www.w3.org/2000/svg">
<path d="M11.5275 31.0862C11.4587 31.0862 11.3899 31.0674 11.329 31.0294L9.15015 29.6695C8.99653 29.5736 8.93335 29.3816 9 29.2133L11.7104 22.3667C12.2349 21.0417 13.3082 20.0153 14.6553 19.5504L17.9888 18.4C18.1845 18.3325 18.3981 18.4364 18.4656 18.6322C18.5332 18.8279 18.4292 19.0414 18.2335 19.109L14.8999 20.2594C13.76 20.6528 12.8516 21.5215 12.4077 22.6427L9.8124 29.1987L11.5132 30.2602L16.6306 26.5954C16.7992 26.4748 17.0334 26.5136 17.1539 26.6819C17.2744 26.8503 17.2357 27.0845 17.0674 27.2051L11.7459 31.0161C11.6808 31.0627 11.6042 31.0862 11.5275 31.0862Z" fill="white"/>
<path d="M16.6405 31.8848C15.7774 31.6995 14.8766 31.7388 14.044 31.9805C13.2105 32.2187 12.4435 32.6604 11.8428 33.2632C11.2389 33.863 10.7977 34.6112 10.538 35.4193C10.4074 35.8235 10.3161 36.2402 10.2498 36.6618C10.1879 37.0848 10.156 37.5127 10.1298 37.9436L9.46922 37.694L9.46978 37.6934C9.56334 37.5854 9.66609 37.488 9.77545 37.4007C9.88578 37.3148 10.0028 37.2399 10.1244 37.1744C10.3691 37.0464 10.633 36.9577 10.9129 36.9213C11.1913 36.8849 11.4919 36.9004 11.7875 37.0152C11.9344 37.0726 12.0781 37.1611 12.1996 37.2769C12.3216 37.3923 12.418 37.5349 12.4828 37.6835C12.5495 37.8325 12.5822 37.9863 12.5965 38.1334C12.6136 38.2823 12.6044 38.4227 12.5925 38.5611C12.5606 38.8524 12.4512 39.1355 12.3034 39.3692C12.1558 39.6049 11.9788 39.7984 11.8027 39.9728C11.6259 40.147 11.4475 40.3032 11.2782 40.4573C10.9384 40.763 10.6357 41.0663 10.4515 41.4118C10.2618 41.7533 10.2042 42.1392 10.252 42.5443C10.2965 42.9488 10.4361 43.3626 10.6204 43.7618C10.8053 44.162 11.0327 44.5506 11.2745 44.9321L10.5888 45.1907C10.5556 44.9339 10.5521 44.6702 10.5918 44.4088C10.6367 44.1485 10.7219 43.8954 10.8432 43.663C10.9635 43.4298 11.1204 43.2189 11.3019 43.0362C11.4831 42.8528 11.6872 42.6948 11.9105 42.566C12.1343 42.4379 12.3764 42.3367 12.6452 42.2817C12.7782 42.2524 12.9231 42.2422 13.0731 42.2467C13.2273 42.2611 13.3912 42.2886 13.5575 42.3827C13.7233 42.4767 13.8665 42.6412 13.9369 42.8233C13.9617 42.9095 13.9926 43.0044 13.9932 43.0846C13.9963 43.1263 13.9987 43.1681 14.0004 43.2097L13.9907 43.3234C13.9568 43.6237 13.8536 43.8616 13.7461 44.0884L13.3794 43.5461C13.3994 43.5441 13.4377 43.5395 13.4686 43.5347L13.5676 43.5182C13.634 43.5059 13.7008 43.4922 13.7669 43.4757C13.8993 43.4438 14.0294 43.4034 14.1552 43.3562C14.4066 43.2615 14.6408 43.1358 14.8346 42.9772C15.0295 42.8194 15.1787 42.6272 15.2717 42.4089C15.2966 42.355 15.3137 42.2973 15.3327 42.2409L15.3529 42.1596L15.3583 42.1394L15.3644 42.1089L15.3768 42.0468C15.4074 41.8816 15.4643 41.7034 15.5378 41.5405C15.6842 41.21 15.9205 40.9107 16.2292 40.6935C16.3849 40.5866 16.5593 40.5006 16.7502 40.4481C16.9406 40.3958 17.1494 40.3767 17.3617 40.4132C17.5732 40.4498 17.7856 40.5495 17.9494 40.6999C18.1147 40.8494 18.2263 41.0396 18.2928 41.227C18.3284 41.3216 18.3475 41.415 18.3669 41.5088C18.3784 41.6006 18.3925 41.694 18.3925 41.7829C18.4012 41.9641 18.3819 42.1351 18.3597 42.3042L17.8266 41.9087L17.8267 41.9087C18.4884 41.5463 19.1428 41.1837 19.7328 40.7367C20.3187 40.2896 20.8379 39.7524 21.1812 39.1127C21.352 38.7937 21.4816 38.4527 21.5575 38.0968C21.6323 37.7408 21.6489 37.3711 21.616 37.0028C21.5513 36.2635 21.2723 35.5399 20.8796 34.8842L20.8793 34.8837C20.8525 34.8389 20.867 34.7808 20.9118 34.754C20.9536 34.729 21.0073 34.7404 21.036 34.7784C21.273 35.094 21.48 35.4352 21.6478 35.7985C21.8159 36.1613 21.9457 36.5474 22.0121 36.9497C22.0803 37.3509 22.0952 37.7664 22.0423 38.1769C21.9888 38.5871 21.8722 38.991 21.6991 39.3681C21.3546 40.1267 20.8079 40.7689 20.1958 41.3036C19.5809 41.8399 18.885 42.2664 18.1518 42.5845L18.1517 42.5846C17.9684 42.6766 17.7451 42.6026 17.653 42.4193C17.6186 42.3507 17.6074 42.2766 17.6164 42.2058L17.6186 42.1891C17.6349 42.0598 17.6498 41.93 17.6429 41.8098C17.6438 41.7477 17.6331 41.692 17.6275 41.6342C17.615 41.5808 17.6052 41.526 17.5866 41.4796C17.5158 41.2866 17.4009 41.1848 17.2321 41.1519C17.0606 41.1213 16.8402 41.182 16.6562 41.3101C16.4724 41.4406 16.3183 41.6283 16.2216 41.8487C16.1721 41.9604 16.1346 42.0708 16.1106 42.2019L16.1009 42.2506L16.0959 42.2755L16.0877 42.3101L16.0535 42.4481C16.0258 42.5349 15.9985 42.6213 15.9608 42.7048C15.8181 43.0416 15.5834 43.3367 15.31 43.5573C15.0366 43.7806 14.7311 43.9403 14.4194 44.0581C14.2632 44.1168 14.105 44.1656 13.9445 44.2044C13.8644 44.2243 13.7835 44.241 13.7019 44.2561L13.578 44.2766C13.5344 44.2831 13.498 44.2881 13.443 44.2934C13.2382 44.3132 13.0561 44.1632 13.0363 43.9585C13.0295 43.8884 13.0426 43.821 13.071 43.7618L13.0763 43.7511C13.1607 43.5764 13.2297 43.3947 13.2443 43.2499L13.2505 43.197C13.2484 43.1829 13.247 43.1691 13.2465 43.1551C13.2495 43.1223 13.2351 43.112 13.2358 43.0896C13.2209 43.0643 13.213 43.0533 13.1857 43.0341C13.1567 43.0159 13.0964 43.0031 13.0294 42.9955C12.9565 42.9954 12.8771 42.9975 12.792 43.0172C12.6232 43.0514 12.4473 43.1222 12.2845 43.2161C11.9592 43.4056 11.6745 43.6831 11.5074 44.0113C11.4225 44.1747 11.3642 44.3489 11.3322 44.5287C11.3055 44.7097 11.308 44.895 11.3307 45.0812L11.3323 45.0943C11.3573 45.2994 11.2113 45.4859 11.0062 45.5109C10.8583 45.5289 10.72 45.4577 10.645 45.3399C10.3884 44.9351 10.1441 44.5189 9.93823 44.0735C9.7341 43.6285 9.56561 43.1498 9.50657 42.6274C9.47161 42.3686 9.48089 42.0952 9.5239 41.8268C9.56583 41.5569 9.66292 41.2932 9.79111 41.0563C9.91936 40.8183 10.0793 40.6066 10.2489 40.4175C10.4189 40.2277 10.599 40.0619 10.7739 39.9022C11.1221 39.5855 11.4661 39.2941 11.6668 38.9726C11.7669 38.8126 11.8271 38.6499 11.8471 38.4773C11.866 38.2899 11.8543 38.1109 11.7955 37.9838C11.7385 37.856 11.6492 37.7678 11.5092 37.7117C11.3698 37.6574 11.1911 37.6399 11.0092 37.6651C10.6442 37.712 10.2733 37.9058 10.0409 38.1796L10.0405 38.18C9.90585 38.3376 9.66894 38.3562 9.51136 38.2215C9.42481 38.1475 9.3802 38.0427 9.37988 37.9371L9.3799 37.9305C9.38074 37.4659 9.41364 36.9986 9.49779 36.537C9.58366 36.0757 9.71024 35.6203 9.88346 35.1814C10.2242 34.3023 10.7681 33.4927 11.4759 32.8693C12.182 32.2424 13.0531 31.8247 13.9567 31.6299C14.8616 31.4325 15.8074 31.4728 16.681 31.7298C16.7235 31.7423 16.7478 31.7868 16.7353 31.8293C16.7234 31.8698 16.6824 31.8937 16.6418 31.8851L16.6405 31.8848Z" fill="#A0A0A0"/>
<path opacity="0.4" d="M20.4861 29.9429C26.2257 29.9429 30.8785 25.2901 30.8785 19.5506C30.8785 13.811 26.2257 9.1582 20.4861 9.1582C14.7466 9.1582 10.0938 13.811 10.0938 19.5506C10.0938 25.2901 14.7466 29.9429 20.4861 29.9429Z" fill="#46A83E"/>
<path d="M24.5887 32.1074C24.5196 32.1074 24.4507 32.0883 24.3902 32.0506L16.6481 27.2184C16.5381 27.1498 16.4714 27.0292 16.4717 26.8995C16.482 22.2939 17.7817 17.786 20.2301 13.8631C23.9796 7.85563 30.1392 3.7326 37.1294 2.55125C37.3165 2.51939 37.4977 2.63269 37.5515 2.81469C39.5613 9.61326 38.5635 16.9579 34.814 22.9654C32.3656 26.8883 28.887 30.0363 24.7543 32.0689C24.7019 32.0946 24.6453 32.1074 24.5887 32.1074ZM17.2231 26.6932L24.6095 31.3033C28.535 29.33 31.8402 26.3135 34.1777 22.5683C37.7547 16.8373 38.7491 9.85116 36.9249 3.34881C30.2822 4.56669 24.4433 8.52919 20.8664 14.2602C18.5289 18.0054 17.2711 22.2998 17.2231 26.6932Z" fill="white"/>
<path d="M29.428 19.5503C31.5472 19.5503 33.2651 17.8323 33.2651 15.7131C33.2651 13.5939 31.5472 11.876 29.428 11.876C27.3088 11.876 25.5908 13.5939 25.5908 15.7131C25.5908 17.8323 27.3088 19.5503 29.428 19.5503Z" fill="white"/>
<path d="M28.8262 29.2621C28.7584 29.2621 28.6898 29.2437 28.628 29.2051L17.3455 22.1633C17.1697 22.0537 17.1162 21.8224 17.2259 21.6467C17.3356 21.4711 17.5669 21.4175 17.7425 21.5271L29.0251 28.5689C29.2008 28.6786 29.2543 28.9099 29.1447 29.0856C29.0736 29.1995 28.9513 29.2621 28.8262 29.2621Z" fill="white"/>
<path d="M25.6602 39.9094C25.5919 39.9094 25.5232 39.8908 25.4618 39.8525L23.2829 38.4926C23.1541 38.4122 23.0865 38.262 23.1117 38.1123L24.1974 31.6576C24.2318 31.4533 24.4257 31.3159 24.6294 31.3499C24.8337 31.3843 24.9714 31.5777 24.937 31.782L23.8929 37.9892L25.5937 39.0507L30.343 33.839C31.1552 32.9477 31.5365 31.75 31.3891 30.5531L30.958 27.0532C30.9327 26.8476 31.0788 26.6604 31.2844 26.6351C31.4891 26.6101 31.6771 26.7559 31.7025 26.9615L32.1335 30.4615C32.3077 31.8757 31.8571 33.291 30.8973 34.3442L25.9375 39.7869C25.8643 39.8673 25.7628 39.9094 25.6602 39.9094Z" fill="white"/>
<path d="M17.5212 34.8146C17.4534 34.8146 17.3848 34.7963 17.323 34.7577C17.1473 34.6481 17.0938 34.4168 17.2034 34.2411L24.74 22.1658C24.8496 21.9901 25.081 21.9365 25.2566 22.0462C25.4324 22.1558 25.4859 22.3871 25.3763 22.5628L17.8397 34.6381C17.7685 34.7521 17.6463 34.8146 17.5212 34.8146Z" fill="white"/>
<path d="M38.191 9.65038C38.1721 9.65038 38.1529 9.64897 38.1336 9.64599C36.8367 9.44682 35.5936 9.01977 34.4388 8.37679C32.9493 7.54756 31.7045 6.42109 30.7388 5.02871C30.6207 4.85851 30.663 4.62487 30.8332 4.50686C31.0034 4.3888 31.237 4.43106 31.355 4.60125C32.2549 5.89869 33.4151 6.94848 34.8036 7.72155C35.8802 8.32099 37.0389 8.71906 38.2475 8.90469C38.4522 8.93614 38.5926 9.12757 38.5612 9.33228C38.5327 9.51768 38.373 9.65038 38.191 9.65038Z" fill="white"/>
</svg>
