<svg width="512" height="512" viewBox="0 0 512 512" fill="none" xmlns="http://www.w3.org/2000/svg">
<path opacity="0.4" d="M374.563 270.477C442.977 270.477 498.437 215.017 498.437 146.603C498.437 78.1893 442.977 22.729 374.563 22.729C306.149 22.729 250.689 78.1893 250.689 146.603C250.689 215.017 306.149 270.477 374.563 270.477Z" fill="#46A83E"/>
<path d="M450.654 322.952C453.791 320.576 457.102 319.016 460.456 317.66C463.82 316.347 467.247 315.332 470.731 314.588C474.215 313.839 477.757 313.367 481.364 313.197C484.979 313.066 488.639 313.146 492.474 314.047C489.339 316.433 486.029 317.997 482.674 319.35C479.311 320.664 475.883 321.676 472.397 322.412C468.912 323.152 465.369 323.621 461.762 323.792C458.146 323.921 454.487 323.845 450.654 322.952Z" fill="#DDDDDD"/>
<path d="M454.968 358.545C458.105 356.169 461.416 354.608 464.77 353.253C468.133 351.939 471.56 350.925 475.045 350.181C478.529 349.432 482.071 348.96 485.678 348.79C489.293 348.658 492.953 348.738 496.788 349.64C493.653 352.026 490.343 353.59 486.988 354.943C483.625 356.257 480.197 357.269 476.711 358.004C473.226 358.745 469.683 359.214 466.076 359.385C462.46 359.514 458.801 359.437 454.968 358.545Z" fill="#DDDDDD"/>
<path d="M449.911 396.134C453.048 393.758 456.359 392.197 459.713 390.842C463.076 389.528 466.503 388.514 469.988 387.77C473.471 387.021 477.014 386.548 480.621 386.379C484.236 386.247 487.896 386.327 491.73 387.229C488.596 389.615 485.286 391.179 481.931 392.531C478.568 393.846 475.14 394.858 471.654 395.593C468.168 396.333 464.625 396.803 461.019 396.973C457.403 397.102 453.744 397.026 449.911 396.134Z" fill="#DDDDDD"/>
<path d="M430.088 436.867C433.225 434.49 436.536 432.93 439.89 431.575C443.253 430.261 446.68 429.247 450.165 428.503C453.648 427.754 457.191 427.281 460.798 427.112C464.413 426.98 468.073 427.06 471.908 427.962C468.773 430.348 465.463 431.912 462.108 433.264C458.745 434.579 455.317 435.591 451.831 436.326C448.346 437.066 444.803 437.536 441.196 437.706C437.58 437.835 433.921 437.759 430.088 436.867Z" fill="#DDDDDD"/>
<path d="M400.705 468.949C403.842 466.573 407.153 465.012 410.507 463.657C413.87 462.343 417.297 461.329 420.782 460.585C424.265 459.836 427.808 459.363 431.415 459.194C435.03 459.062 438.69 459.142 442.525 460.044C439.39 462.43 436.08 463.994 432.725 465.346C429.362 466.661 425.934 467.673 422.448 468.408C418.963 469.148 415.42 469.618 411.813 469.788C408.197 469.917 404.538 469.841 400.705 468.949Z" fill="#DDDDDD"/>
<path d="M450.637 322.871C453.774 320.494 457.084 318.934 460.439 317.579C463.802 316.265 467.229 315.251 470.714 314.507C474.197 313.758 477.74 313.285 481.346 313.116C484.961 312.984 488.621 313.064 492.456 313.966C489.321 316.352 486.011 317.916 482.656 319.268C479.293 320.583 475.866 321.595 472.379 322.33C468.894 323.07 465.351 323.54 461.744 323.71C458.129 323.839 454.47 323.763 450.637 322.871Z" fill="#DDDDDD"/>
<path d="M440.075 288.608C443.212 286.232 446.523 284.671 449.877 283.316C453.24 282.002 456.667 280.988 460.152 280.244C463.635 279.495 467.178 279.023 470.785 278.853C474.4 278.721 478.06 278.801 481.895 279.703C478.76 282.089 475.45 283.653 472.095 285.006C468.732 286.32 465.304 287.332 461.818 288.067C458.333 288.808 454.79 289.277 451.183 289.448C447.567 289.577 443.908 289.5 440.075 288.608Z" fill="#DDDDDD"/>
<path d="M420.143 256.341C423.28 253.965 426.591 252.404 429.945 251.049C433.308 249.735 436.735 248.721 440.22 247.977C443.703 247.228 447.246 246.756 450.853 246.586C454.468 246.454 458.127 246.534 461.962 247.436C458.828 249.822 455.518 251.386 452.163 252.738C448.8 254.053 445.372 255.065 441.886 255.8C438.4 256.54 434.857 257.01 431.251 257.18C427.635 257.309 423.976 257.233 420.143 256.341Z" fill="#DDDDDD"/>
<path d="M385.444 227.218C388.581 224.842 391.892 223.281 395.246 221.926C398.61 220.612 402.037 219.598 405.521 218.854C409.005 218.105 412.547 217.632 416.154 217.463C419.769 217.331 423.429 217.411 427.264 218.313C424.129 220.699 420.819 222.263 417.464 223.615C414.101 224.93 410.673 225.942 407.187 226.677C403.702 227.417 400.159 227.887 396.552 228.057C392.937 228.186 389.277 228.11 385.444 227.218Z" fill="#DDDDDD"/>
<path d="M345.54 209.89C348.677 207.514 351.988 205.954 355.342 204.598C358.705 203.285 362.132 202.27 365.617 201.526C369.1 200.777 372.643 200.305 376.25 200.135C379.865 200.004 383.524 200.083 387.359 200.985C384.224 203.371 380.915 204.935 377.56 206.288C374.197 207.602 370.769 208.614 367.283 209.35C363.797 210.09 360.254 210.559 356.648 210.73C353.032 210.859 349.373 210.783 345.54 209.89Z" fill="#DDDDDD"/>
<path d="M312.188 496.962C392.108 496.962 456.895 432.175 456.895 352.255C456.895 272.335 392.108 207.547 312.188 207.547C232.268 207.547 167.48 272.335 167.48 352.255C167.48 432.175 232.268 496.962 312.188 496.962Z" stroke="white" stroke-width="8" stroke-miterlimit="10" stroke-linecap="round" stroke-linejoin="round"/>
<path d="M342.327 493.789L376.124 486.592C454.291 469.947 504.165 393.086 487.519 314.919C470.874 236.752 394.014 186.879 315.846 203.524L282.049 210.721" stroke="white" stroke-width="8" stroke-miterlimit="10" stroke-linecap="round" stroke-linejoin="round"/>
<path d="M312.188 461.396C372.465 461.396 421.329 412.532 421.329 352.255C421.329 291.978 372.465 243.114 312.188 243.114C251.911 243.114 203.047 291.978 203.047 352.255C203.047 412.532 251.911 461.396 312.188 461.396Z" stroke="white" stroke-width="8" stroke-miterlimit="10" stroke-linecap="round" stroke-linejoin="round"/>
<path d="M287.614 236.851C285.669 235.674 284.504 234.33 283.575 232.936C282.659 231.539 282.09 230.069 281.757 228.548C281.433 227.026 281.353 225.451 281.619 223.803C281.898 222.152 282.417 220.449 283.723 218.58C285.678 219.755 286.845 221.098 287.772 222.492C288.687 223.889 289.255 225.36 289.58 226.882C289.895 228.407 289.974 229.982 289.707 231.63C289.426 233.282 288.91 234.983 287.614 236.851Z" fill="white"/>
<path d="M340.654 485.93C338.709 484.753 337.545 483.409 336.616 482.015C335.7 480.619 335.13 479.148 334.797 477.627C334.473 476.105 334.393 474.53 334.659 472.882C334.938 471.231 335.457 469.529 336.763 467.659C338.718 468.834 339.885 470.177 340.812 471.572C341.726 472.968 342.295 474.439 342.62 475.962C342.935 477.486 343.014 479.061 342.747 480.71C342.466 482.361 341.95 484.063 340.654 485.93Z" fill="white"/>
<path d="M427.592 327.68C428.77 325.735 430.113 324.571 431.507 323.642C432.904 322.726 434.374 322.157 435.895 321.823C437.417 321.499 438.992 321.42 440.641 321.686C442.292 321.964 443.994 322.483 445.864 323.789C444.688 325.744 443.345 326.912 441.951 327.838C440.554 328.753 439.083 329.322 437.561 329.646C436.036 329.961 434.461 330.041 432.812 329.773C431.161 329.493 429.46 328.977 427.592 327.68Z" fill="white"/>
<path d="M178.513 380.72C179.69 378.775 181.034 377.611 182.428 376.682C183.824 375.766 185.295 375.197 186.816 374.863C188.338 374.539 189.913 374.46 191.562 374.726C193.212 375.004 194.915 375.523 196.784 376.829C195.609 378.784 194.266 379.952 192.872 380.878C191.475 381.793 190.004 382.362 188.482 382.686C186.957 383.001 185.382 383.081 183.733 382.813C182.082 382.533 180.381 382.017 178.513 380.72Z" fill="white"/>
<path d="M376.414 253.275C375.871 251.067 375.998 249.294 376.327 247.651C376.667 246.016 377.304 244.574 378.143 243.263C378.991 241.957 380.048 240.787 381.402 239.81C382.766 238.839 384.337 238.002 386.583 237.604C387.134 239.817 387.01 241.593 386.679 243.234C386.338 244.868 385.7 246.31 384.853 247.617C383.998 248.917 382.94 250.087 381.585 251.064C380.219 252.033 378.651 252.871 376.414 253.275Z" fill="white"/>
<path d="M237.793 466.906C237.251 464.698 237.377 462.924 237.706 461.282C238.046 459.646 238.683 458.204 239.523 456.893C240.37 455.587 241.428 454.418 242.781 453.44C244.146 452.47 245.716 451.633 247.962 451.234C248.513 453.448 248.389 455.223 248.058 456.864C247.717 458.499 247.08 459.941 246.233 461.247C245.377 462.548 244.32 463.717 242.965 464.694C241.599 465.663 240.031 466.502 237.793 466.906Z" fill="white"/>
<path d="M411.167 416.481C413.375 415.938 415.149 416.065 416.792 416.394C418.427 416.734 419.869 417.371 421.18 418.21C422.486 419.058 423.656 420.115 424.633 421.469C425.604 422.833 426.44 424.404 426.839 426.65C424.625 427.201 422.85 427.076 421.209 426.746C419.574 426.405 418.132 425.767 416.826 424.92C415.525 424.065 414.356 423.007 413.379 421.652C412.41 420.286 411.572 418.718 411.167 416.481Z" fill="white"/>
<path d="M197.537 277.86C199.745 277.318 201.519 277.444 203.161 277.773C204.796 278.113 206.239 278.75 207.55 279.59C208.855 280.437 210.025 281.495 211.002 282.848C211.973 284.212 212.81 285.783 213.208 288.029C210.995 288.58 209.22 288.456 207.578 288.125C205.944 287.784 204.502 287.146 203.196 286.3C201.895 285.444 200.725 284.387 199.749 283.032C198.779 281.666 197.941 280.098 197.537 277.86Z" fill="white"/>
<path d="M257.05 317.107L254.555 323.868C252.105 330.509 252.758 337.9 256.327 344.013C257.942 346.778 259.589 349.123 261.274 350.985C261.055 362.52 254.204 365.08 262.383 374.669C248.574 405.131 259.004 411.268 293.463 431.941C308.227 432.291 322.03 426.922 334.787 415.314C338.263 412.151 340.308 407.699 340.389 403C340.565 392.65 339.454 382.303 334.196 371.966C336.382 368.081 338.65 364.63 341.334 363.365C337.466 347.964 338.002 333.379 345.657 320.113C321.304 303.469 299.505 302.895 280.609 320.588C272.819 317.122 264.966 315.953 257.05 317.107Z" stroke="white" stroke-width="3" stroke-miterlimit="10" stroke-linecap="round" stroke-linejoin="round"/>
<path d="M254.162 406.374L269.698 404.662L271.408 412.697L260.268 415.822" fill="white" fill-opacity="0.3"/>
<path d="M357.134 325.899C363.113 321.135 369.389 317.456 376.113 315.409C371.143 308.367 364.872 301.821 357.352 295.748C361.385 295.991 365.479 296.366 369.686 296.99C370.877 297.166 371.542 295.658 370.604 294.903C341.512 271.477 317.88 258.265 308.156 271.072C296.157 258.184 270.969 273.023 235.149 315.227C234.543 315.941 235.172 317.014 236.091 316.84C239.33 316.227 242.389 316.047 245.176 316.519C241.056 328.431 244.615 334.325 253.438 336.092L253.448 336.102C252.746 332.043 253.095 327.823 254.555 323.868L257.05 317.107C264.966 315.953 272.818 317.122 280.609 320.588C299.505 302.895 321.304 303.469 345.657 320.113C338.001 333.379 337.466 347.964 341.334 363.365C338.649 364.63 336.381 368.081 334.196 371.966C339.454 382.303 340.565 392.65 340.388 403C340.317 407.199 338.672 411.198 335.844 414.259C342.541 412.332 348.68 408.237 352.752 396.128C354.547 395.887 355.764 397.397 356.686 399.802C357.32 401.457 359.616 401.547 360.372 399.943C362.924 394.535 364.989 388.849 366.193 382.672C367.827 383.88 369.398 387.791 370.948 392.6C371.487 394.274 373.801 394.498 374.607 392.935C377.864 386.627 379.108 377.673 377.404 364.844C366.309 360.872 358.016 351.081 357.134 325.899Z" fill="white"/>
<path d="M296.892 337.293C296.4 336.851 296.321 336.464 296.35 336.106C296.385 335.748 296.429 335.389 296.481 335.028C296.595 334.311 296.799 333.605 297.102 332.939C297.411 332.278 297.775 331.637 298.241 331.068C298.722 330.511 299.319 330.028 300.142 329.786C300.506 329.679 300.888 329.887 300.996 330.251C301.013 330.31 301.022 330.369 301.023 330.427L301.024 330.455C301.042 331.275 300.898 331.904 300.71 332.5C300.507 333.084 300.274 333.638 300.06 334.203C299.839 334.764 299.593 335.315 299.327 335.875C299.192 336.154 299.063 336.439 298.939 336.728C298.815 337.019 298.598 337.284 297.98 337.497L297.95 337.507C297.572 337.637 297.17 337.541 296.892 337.293Z" fill="white"/>
<path d="M298.404 354.719C297.524 354.382 297.171 353.882 296.956 353.348C296.742 352.812 296.532 352.272 296.344 351.725C295.965 350.631 295.667 349.504 295.495 348.35C295.333 347.195 295.228 346.021 295.281 344.836C295.359 343.652 295.613 342.447 296.313 341.31C296.561 340.907 297.088 340.781 297.491 341.029C297.61 341.103 297.705 341.201 297.774 341.313L297.788 341.337C298.45 342.433 298.798 343.462 299.071 344.503C299.32 345.544 299.513 346.586 299.723 347.633C299.925 348.681 300.077 349.743 300.204 350.825L300.394 352.455C300.46 353.002 300.402 353.579 299.823 354.317L299.815 354.329C299.473 354.765 298.895 354.907 298.404 354.719Z" fill="white"/>
<path d="M331.573 349.342C330.822 348.815 330.185 348.221 329.588 347.6C328.971 346.996 328.393 346.369 327.845 345.718L326.124 343.843C325.535 343.235 324.92 342.656 324.321 342.062C321.875 339.743 319.22 337.683 316.352 336.011C315.617 335.628 314.9 335.209 314.161 334.834C313.405 334.497 312.67 334.107 311.896 333.808C310.355 333.198 308.776 332.678 307.163 332.26C303.934 331.414 300.585 330.977 297.129 330.658L297.123 330.657C296.815 330.629 296.589 330.356 296.618 330.049C296.641 329.798 296.828 329.601 297.063 329.553C300.549 328.844 304.205 328.835 307.772 329.478C311.338 330.131 314.8 331.44 317.957 333.239C321.125 335.034 323.936 337.373 326.415 339.958C327.014 340.624 327.628 341.276 328.211 341.952L329.9 344.024C330.429 344.737 330.944 345.464 331.393 346.234C331.82 347.018 332.206 347.829 332.48 348.707C332.575 349.013 332.404 349.339 332.098 349.434C331.92 349.489 331.736 349.455 331.594 349.357L331.573 349.342Z" fill="white"/>
<path d="M293.568 348.333C294.498 347.263 295.677 346.582 296.91 346.089C298.147 345.6 299.407 345.161 300.686 344.8C303.246 344.084 305.871 343.633 308.5 343.439C311.129 343.248 313.76 343.242 316.365 343.443C318.968 343.662 321.549 344.089 324.053 344.884C324.35 344.978 324.514 345.295 324.42 345.592C324.349 345.816 324.148 345.964 323.928 345.984C321.335 346.208 318.798 346.233 316.274 346.29C313.753 346.329 311.247 346.402 308.763 346.631C306.282 346.857 303.818 347.17 301.398 347.682C300.184 347.922 298.988 348.236 297.806 348.597C297.214 348.776 296.627 348.963 296.003 349.079C295.387 349.213 294.762 349.334 294.056 349.326L294.014 349.326C293.683 349.322 293.418 349.051 293.421 348.72C293.422 348.572 293.478 348.437 293.568 348.333Z" fill="white"/>
<path d="M303.978 356.195C304.479 355.953 304.952 355.84 305.417 355.775C305.884 355.692 306.339 355.667 306.793 355.676C307.7 355.669 308.603 355.632 309.498 355.55C311.29 355.411 313.047 355.114 314.774 354.722C316.508 354.346 318.187 353.773 319.843 353.102C321.509 352.443 323.145 351.681 324.92 350.952L324.925 350.95C325.218 350.83 325.552 350.97 325.672 351.263C325.752 351.457 325.717 351.671 325.598 351.827C324.392 353.411 322.819 354.671 321.091 355.663C319.355 356.643 317.46 357.348 315.525 357.849C313.583 358.339 311.579 358.526 309.601 358.517C308.611 358.5 307.626 358.434 306.65 358.335C305.675 358.228 304.708 357.97 303.831 357.292C303.552 357.076 303.501 356.674 303.717 356.395C303.779 356.315 303.856 356.254 303.941 356.212L303.978 356.195Z" fill="white"/>
<path d="M302.974 345.813C303.926 350.256 307.602 353.238 311.191 352.473C314.284 351.815 316.297 348.587 316.193 344.862C311.518 344.72 307.088 344.997 302.974 345.813Z" fill="white"/>
<path d="M291.747 327.407C293.273 326.452 294.98 325.944 296.697 325.689C297.557 325.551 298.42 325.432 299.284 325.359C300.149 325.257 301.014 325.204 301.88 325.16C305.345 324.996 308.806 325.163 312.216 325.592C313.924 325.786 315.616 326.08 317.299 326.392C318.983 326.7 320.657 327.053 322.311 327.476C325.621 328.318 328.874 329.359 332.005 330.748C332.287 330.874 332.415 331.204 332.289 331.487C332.187 331.716 331.947 331.843 331.711 331.815C328.326 331.417 325.021 330.823 321.721 330.262C318.425 329.685 315.136 329.142 311.837 328.772C308.54 328.401 305.241 328.133 301.95 328.128C301.127 328.12 300.304 328.12 299.486 328.167C298.663 328.187 297.846 328.25 297.031 328.33C295.391 328.461 293.784 328.64 292.027 328.478L292.001 328.476C291.683 328.446 291.448 328.164 291.478 327.845C291.495 327.659 291.601 327.5 291.747 327.407Z" fill="white"/>
<path d="M256.071 333.553C256.893 332.792 257.844 332.447 258.808 332.248C259.775 332.053 260.747 331.884 261.722 331.751C263.674 331.504 265.639 331.377 267.592 331.424C269.545 331.487 271.49 331.619 273.411 331.903C275.33 332.204 277.227 332.647 279.056 333.415C279.348 333.537 279.485 333.873 279.363 334.165C279.281 334.36 279.101 334.486 278.905 334.511C276.952 334.759 275.055 334.765 273.17 334.742C271.287 334.703 269.416 334.626 267.552 334.64C265.689 334.639 263.832 334.624 261.98 334.708C261.054 334.735 260.13 334.796 259.208 334.881C258.746 334.92 258.287 334.963 257.806 334.915C257.329 334.887 256.844 334.826 256.317 334.632L256.283 334.619C255.953 334.497 255.784 334.13 255.906 333.8C255.942 333.704 256.001 333.619 256.071 333.553Z" fill="white"/>
<path d="M262.007 337.801C263.259 337.4 264.5 337.459 265.696 337.688C266.891 337.933 268.079 338.229 269.248 338.601C271.577 339.363 273.819 340.422 275.869 341.76C277.918 343.098 279.815 344.655 281.489 346.403C283.151 348.163 284.595 350.116 285.649 352.291C285.786 352.572 285.669 352.91 285.388 353.047C285.182 353.146 284.947 353.111 284.782 352.975L284.777 352.971C282.947 351.467 281.267 349.925 279.532 348.472C277.811 347.008 276.036 345.638 274.145 344.459C272.258 343.278 270.295 342.231 268.232 341.391C267.204 340.961 266.148 340.598 265.074 340.277C264.534 340.132 263.998 339.962 263.467 339.732C262.932 339.525 262.398 339.281 261.868 338.899L261.836 338.876C261.563 338.678 261.502 338.297 261.699 338.024C261.778 337.915 261.888 337.839 262.007 337.801Z" fill="white"/>
<path d="M266.426 359.047C265.635 358.389 265.236 357.611 264.939 356.797L264.074 354.34C263.537 352.682 263.029 350.996 262.723 349.231C262.436 347.469 262.222 345.644 262.407 343.756C262.599 341.905 263.355 339.834 264.948 338.642C265.2 338.453 265.557 338.505 265.745 338.757C265.862 338.912 265.887 339.107 265.83 339.279L265.81 339.336C265.282 340.883 265.196 342.312 265.253 343.871C265.322 345.421 265.546 347.026 265.884 348.638C266.207 350.251 266.558 351.895 266.935 353.547L267.493 356.042C267.683 356.876 267.78 357.742 267.485 358.727C267.381 359.078 267.012 359.278 266.661 359.173C266.574 359.147 266.492 359.102 266.426 359.047Z" fill="white"/>
<path d="M262.144 354.366C262.939 353.349 263.963 352.713 265.04 352.223C266.121 351.742 267.219 351.293 268.335 350.892C270.573 350.107 272.883 349.517 275.223 349.163C277.563 348.811 279.924 348.627 282.276 348.66C284.627 348.712 286.973 348.982 289.247 349.646C289.547 349.734 289.719 350.049 289.632 350.349C289.568 350.566 289.382 350.717 289.172 350.75C286.866 351.11 284.615 351.289 282.379 351.507C280.143 351.706 277.925 351.947 275.732 352.325C273.541 352.7 271.365 353.142 269.221 353.725C268.146 354.007 267.083 354.335 266.028 354.695C265.505 354.885 264.971 355.049 264.41 355.162C263.854 355.288 263.281 355.382 262.636 355.357L262.604 355.356C262.265 355.343 262.001 355.058 262.015 354.72C262.02 354.586 262.068 354.464 262.144 354.366Z" fill="white"/>
<path d="M269.16 352.194C270.269 356.166 272.853 358.889 275.182 358.393C277.335 357.934 278.392 354.07 278.089 350.389C274.984 350.731 272.007 351.332 269.16 352.194Z" fill="white"/>
<path d="M272.175 362.135C272.492 361.819 272.805 361.633 273.119 361.497C273.43 361.34 273.743 361.259 274.059 361.202C274.688 361.072 275.308 360.921 275.919 360.749C277.146 360.422 278.327 359.999 279.494 359.556C280.67 359.126 281.794 358.577 282.923 358.002C284.063 357.438 285.201 356.841 286.52 356.33L286.53 356.326C286.834 356.208 287.175 356.359 287.293 356.662C287.356 356.825 287.341 357.001 287.268 357.145C286.594 358.455 285.591 359.519 284.453 360.404C283.306 361.28 282.018 361.97 280.688 362.543C279.349 363.103 277.931 363.449 276.512 363.658C275.798 363.747 275.085 363.809 274.375 363.847C273.665 363.873 272.937 363.773 272.223 363.241C271.908 363.006 271.843 362.559 272.078 362.243C272.098 362.216 272.12 362.191 272.143 362.168L272.175 362.135Z" fill="white"/>
<path d="M273.836 377.298C272.541 377.069 271.241 375.905 270.882 374.417C270.682 373.682 270.673 372.872 270.885 372.109C271.089 371.346 271.595 370.617 271.906 370.206C273.324 368.264 274.974 366.446 276.891 364.904C277.846 364.129 278.874 363.438 279.952 362.831C280.49 362.526 281.04 362.241 281.603 361.985L282.03 361.789C282.206 361.717 282.382 361.645 282.564 361.587C282.926 361.468 283.298 361.376 283.677 361.325C284.434 361.214 285.212 361.244 285.964 361.406C286.339 361.492 286.707 361.611 287.062 361.762C287.403 361.906 287.795 362.13 288.005 362.256L290.995 364.005L289.396 363.995C291.442 362.821 293.514 361.693 295.577 360.549C296.798 359.834 298.36 359.45 299.823 359.572C300.563 359.62 301.289 359.805 301.972 360.076C302.145 360.139 302.309 360.224 302.477 360.3L302.903 360.518L303.728 360.976C304.817 361.603 305.822 362.342 306.782 363.111L307.143 363.407C307.292 363.535 307.439 363.663 307.571 363.807C307.838 364.092 308.074 364.402 308.271 364.735C308.66 365.403 308.904 366.147 308.965 366.904C309.051 367.643 308.855 368.485 308.717 368.983C308.579 369.557 308.43 370.129 308.273 370.7C307.961 371.843 307.672 372.989 307.324 374.125C307.234 374.419 306.922 374.585 306.628 374.494C306.377 374.418 306.22 374.18 306.235 373.93C306.302 372.744 306.429 371.568 306.533 370.389C306.583 369.799 306.642 369.21 306.712 368.623C306.797 367.967 306.812 367.628 306.717 367.192C306.638 366.776 306.454 366.391 306.212 366.063C306.088 365.901 305.946 365.755 305.793 365.626C305.717 365.56 305.637 365.501 305.557 365.442L305.214 365.202C304.288 364.556 303.321 363.991 302.346 363.474L301.606 363.107C301.341 362.982 301.125 362.886 300.926 362.82C300.507 362.674 300.07 362.593 299.632 362.575C298.74 362.537 297.909 362.743 297.104 363.237C295.065 364.423 293.034 365.625 290.978 366.78L290.972 366.784C290.459 367.072 289.853 367.046 289.379 366.77L286.387 365.024C286.1 364.854 285.988 364.795 285.799 364.709C285.622 364.633 285.438 364.578 285.251 364.531C284.878 364.439 284.484 364.412 284.097 364.458C283.902 364.478 283.711 364.52 283.523 364.577C283.428 364.602 283.336 364.639 283.244 364.672L282.879 364.829C282.386 365.038 281.904 365.273 281.431 365.526C280.483 366.029 279.576 366.611 278.703 367.247C276.96 368.527 275.403 370.091 274.021 371.819C273.629 372.317 273.429 372.53 273.294 372.882C273.141 373.216 273.086 373.598 273.098 373.994C273.135 374.802 273.494 375.603 274.315 376.3C274.555 376.505 274.585 376.866 274.38 377.107C274.244 377.267 274.039 377.334 273.846 377.3L273.836 377.298Z" fill="white"/>
<path d="M291.494 373.56C294.297 367.85 299.601 365.964 302.323 369.283C300.522 371.461 298.348 371.649 295.918 370.471C294.758 370.419 293.173 371.828 291.494 373.56Z" fill="white"/>
<path d="M285.268 372.914C281.434 367.952 278.438 368.262 275.925 371.618C277.146 373.548 278.946 373.565 281.401 371.418L283.253 372.915C283.763 373.327 284.474 373.38 285.04 373.048L285.268 372.914Z" fill="white"/>
<path d="M286.648 376.746C287.301 377.392 287.544 378.113 287.661 378.843C287.774 379.574 287.876 380.31 287.953 381.05C288.086 382.532 288.136 384.034 288.001 385.53C287.851 387.023 287.619 388.519 287.188 389.965C286.742 391.405 286.103 392.803 285.105 393.993C284.897 394.241 284.527 394.274 284.28 394.066C284.14 393.949 284.069 393.781 284.07 393.613L284.071 393.6C284.089 392.106 284.251 390.739 284.402 389.372C284.567 388.011 284.729 386.657 284.794 385.288C284.874 383.923 284.962 382.55 284.986 381.164C285.013 380.47 285.016 379.774 285.008 379.075C285.002 378.375 285.077 377.67 285.552 376.892L285.559 376.879C285.76 376.55 286.19 376.445 286.52 376.646C286.567 376.674 286.611 376.71 286.648 376.746Z" fill="white"/>
<path d="M282.016 396.363C281.441 396.866 281.026 397.393 280.623 397.976C280.439 398.261 280.333 398.474 280.257 398.735C280.16 398.976 280.139 399.235 280.13 399.485C280.114 399.988 280.295 400.502 280.612 400.869C280.762 401.061 280.953 401.212 281.163 401.329C281.264 401.394 281.379 401.437 281.493 401.481C281.606 401.53 281.81 401.589 281.966 401.635C282.64 401.822 283.338 401.942 284.056 401.985C284.414 402.007 284.778 402.011 285.143 401.998L285.419 401.986C285.552 401.983 285.743 401.979 285.903 401.99C286.237 402.016 286.573 402.072 286.894 402.182C288.192 402.582 289.25 403.719 289.541 405.084C289.852 406.426 289.402 407.908 288.4 408.852C288.157 409.087 287.864 409.3 287.585 409.456L287.047 409.76L285.963 410.354L284.924 410.922C284.72 411.036 284.539 411.189 284.386 411.367C283.757 412.076 283.714 413.251 284.314 414.052C284.475 414.251 284.618 414.418 284.866 414.584C285.138 414.768 285.417 414.941 285.714 415.062C286.299 415.326 286.935 415.479 287.617 415.482C288.99 415.533 290.486 415.022 291.95 414.365L291.96 414.361C292.242 414.234 292.573 414.36 292.7 414.642C292.801 414.868 292.739 415.126 292.566 415.285C291.3 416.436 289.729 417.43 287.791 417.734C286.832 417.869 285.794 417.825 284.832 417.513C284.347 417.371 283.891 417.16 283.454 416.927C282.985 416.686 282.495 416.306 282.125 415.875C281.367 415.005 280.914 413.867 280.885 412.7C280.859 411.532 281.251 410.353 281.984 409.43C282.348 408.968 282.792 408.565 283.294 408.254L284.403 407.597L285.471 406.974L286.008 406.669C286.088 406.623 286.13 406.59 286.184 406.54C286.384 406.348 286.476 406.051 286.412 405.781C286.351 405.527 286.156 405.292 285.881 405.182C285.814 405.15 285.739 405.14 285.664 405.126L285.531 405.117L285.189 405.12C284.731 405.12 284.269 405.099 283.807 405.054C282.882 404.963 281.949 404.782 281.054 404.46C280.82 404.374 280.63 404.309 280.368 404.187C280.103 404.067 279.846 403.935 279.605 403.766C279.12 403.444 278.688 403.032 278.357 402.555C277.675 401.614 277.363 400.437 277.473 399.3C277.557 398.167 278.177 397.052 278.989 396.409C279.721 395.805 280.672 395.321 281.672 395.311C281.991 395.308 282.253 395.565 282.256 395.884C282.258 396.059 282.182 396.217 282.06 396.324L282.016 396.363Z" fill="white"/>
<path d="M248.14 407.038C252.766 410.064 252.272 413.901 249.795 418.052C245.321 417.238 243.16 410.674 248.14 407.038Z" stroke="white" stroke-width="3" stroke-miterlimit="10" stroke-linecap="round" stroke-linejoin="round"/>
<path d="M248.141 407.038L282.321 403.271" stroke="white" stroke-width="3" stroke-miterlimit="10" stroke-linecap="round" stroke-linejoin="round"/>
<path d="M249.795 418.052L284.212 409.525" stroke="white" stroke-width="4" stroke-miterlimit="10" stroke-linecap="round" stroke-linejoin="round"/>
<path d="M257.683 346.221C242.377 341.997 245.102 365.637 260.472 379.114" stroke="white" stroke-width="3" stroke-miterlimit="10" stroke-linecap="round" stroke-linejoin="round"/>
<path d="M254.344 363.053C253.4 362.572 252.973 361.903 252.702 361.183C252.436 360.46 252.177 359.729 251.953 358.965C251.543 357.422 251.153 355.832 251.542 353.742C251.672 353.206 251.846 352.637 252.222 352.052C252.593 351.471 253.165 350.909 253.83 350.581C255.198 349.927 256.376 350.085 257.281 350.306C259.1 350.827 260.385 351.805 261.428 353.089C261.708 353.433 261.656 353.938 261.312 354.218C261.156 354.345 260.967 354.403 260.782 354.398L260.745 354.396C259.173 354.347 257.752 354.061 256.662 354.061C256.132 354.05 255.749 354.165 255.8 354.217C255.818 354.243 255.852 354.212 255.835 354.257L255.739 354.624C255.593 355.449 255.681 356.836 255.83 358.167C255.897 358.846 256.007 359.542 256.126 360.24C256.241 360.941 256.251 361.678 255.749 362.602L255.74 362.62C255.468 363.119 254.848 363.309 254.344 363.053Z" fill="white"/>
<path d="M375.998 314.867C376.754 314.545 377.523 314.281 378.291 314.015C378.693 313.893 379.013 313.76 379.531 313.643C380.013 313.546 380.511 313.51 381.011 313.539C382.009 313.601 383.011 313.942 383.855 314.538C384.057 314.681 384.282 314.869 384.438 315.012L384.895 315.434C385.198 315.716 385.509 315.993 385.797 316.291C388.149 318.633 390.26 321.21 392.124 323.948C393.993 326.684 395.585 329.593 396.996 332.572C397.7 334.063 398.346 335.578 398.933 337.115C399.236 337.881 399.506 338.652 399.792 339.429L400.188 340.685L400.498 341.966C401.229 345.41 400.935 349.047 399.749 352.342C399.156 353.992 398.339 355.558 397.329 356.985C396.832 357.694 396.243 358.38 395.683 358.995C395.125 359.603 394.552 360.196 393.974 360.783C389.307 365.442 383.997 369.322 378.399 372.609C378.135 372.764 377.795 372.676 377.64 372.411C377.499 372.172 377.56 371.87 377.768 371.7C382.757 367.62 387.627 363.456 391.92 358.809C392.455 358.228 392.984 357.643 393.498 357.045C394.005 356.451 394.446 355.891 394.863 355.269C395.696 354.049 396.362 352.717 396.837 351.322C397.797 348.53 397.951 345.493 397.362 342.616L397.102 341.545L396.77 340.494C396.497 339.757 396.234 339.005 395.943 338.271C395.371 336.795 394.757 335.339 394.119 333.895C392.828 331.015 391.335 328.233 389.646 325.584C387.961 322.931 386.042 320.433 383.891 318.15L383.076 317.303L382.669 316.878C382.535 316.74 382.454 316.664 382.334 316.565C381.891 316.186 381.338 315.917 380.735 315.786C380.121 315.636 379.546 315.691 378.67 315.793C377.86 315.864 377.05 315.936 376.228 315.949C375.917 315.955 375.66 315.706 375.655 315.395C375.651 315.159 375.794 314.955 375.998 314.867Z" fill="white"/>
<path d="M378.538 320.684C377.517 321.675 376.366 322.29 375.186 322.824C374.007 323.358 372.839 323.909 371.691 324.484C369.394 325.621 367.153 326.833 365.123 328.214C363.121 329.596 361.294 331.238 360.551 333.2C359.739 335.123 360.187 337.486 361.19 339.868C361.311 340.155 361.177 340.485 360.89 340.606C360.672 340.698 360.427 340.641 360.27 340.483C359.305 339.503 358.487 338.315 357.993 336.903C357.515 335.501 357.385 333.842 357.84 332.326C358.04 331.559 358.385 330.863 358.753 330.192C359.158 329.552 359.599 328.941 360.09 328.401C361.066 327.31 362.143 326.376 363.289 325.588C365.563 323.987 368.005 322.813 370.464 321.781C371.701 321.278 372.942 320.807 374.187 320.356C375.432 319.912 376.721 319.581 378.148 319.648C378.48 319.664 378.737 319.946 378.722 320.279C378.714 320.437 378.644 320.581 378.538 320.684Z" fill="white"/>
<path d="M365.856 340.489C366.589 337.636 367.864 334.947 369.605 332.494C369.829 332.185 370.036 331.894 370.294 331.581C370.581 331.271 370.827 330.921 371.159 330.651C371.773 330.064 372.484 329.574 373.247 329.193C374.769 328.403 376.528 328.138 378.23 328.303C379.941 328.467 381.595 329.197 382.937 330.297C383.274 330.569 383.57 330.891 383.877 331.196C384.137 331.524 384.447 331.89 384.655 332.197C385.075 332.809 385.492 333.424 385.884 334.058C387.473 336.579 388.78 339.334 389.595 342.296C390.001 343.776 390.272 345.309 390.347 346.866C390.377 347.644 390.378 348.425 390.322 349.205C390.278 349.915 390.171 350.926 389.796 351.792C389.087 353.546 387.587 354.931 385.792 355.495C384.897 355.78 383.935 355.854 383.014 355.724C382.137 355.585 381.396 355.375 380.63 355.081C377.623 353.895 375.171 351.758 373.556 349.051C373.16 348.364 372.821 347.634 372.599 346.822C372.396 346.019 372.245 345.074 372.69 344.059C372.917 343.551 373.379 343.136 373.851 342.919C374.331 342.705 374.802 342.655 375.228 342.665C376.088 342.682 376.828 342.931 377.538 343.192C377.825 343.297 377.972 343.616 377.867 343.903C377.773 344.159 377.508 344.304 377.248 344.257L377.221 344.252C376.551 344.13 375.871 344.058 375.293 344.125C375.004 344.154 374.753 344.241 374.591 344.35C374.438 344.473 374.351 344.578 374.312 344.746C374.228 345.086 374.317 345.653 374.533 346.203C374.75 346.76 375.083 347.314 375.46 347.835C376.974 349.936 379.218 351.605 381.599 352.402C382.179 352.607 382.838 352.755 383.381 352.818C383.883 352.87 384.384 352.804 384.853 352.641C385.798 352.328 386.589 351.562 386.933 350.639C387.118 350.173 387.161 349.736 387.2 349.016C387.235 348.362 387.221 347.706 387.185 347.05C387.087 345.739 386.857 344.43 386.505 343.14C385.811 340.552 384.588 338.085 383.184 335.712C382.833 335.118 382.456 334.536 382.075 333.956C381.886 333.666 381.721 333.489 381.549 333.244C381.346 333.047 381.164 332.826 380.946 332.645C380.085 331.915 379.014 331.407 377.868 331.25C376.728 331.103 375.518 331.224 374.468 331.73C373.939 331.971 373.441 332.285 373.004 332.675C372.763 332.846 372.594 333.095 372.379 333.298C372.17 333.529 371.95 333.816 371.743 334.081C370.066 336.251 368.597 338.64 366.855 340.965C366.669 341.215 366.316 341.268 366.066 341.082C365.877 340.943 365.802 340.703 365.856 340.489Z" fill="white"/>
<path d="M363.538 342.949C364.55 343.214 365.266 343.773 365.889 344.41C366.509 345.051 367.123 345.7 367.723 346.366C368.904 347.709 370.036 349.111 371.025 350.617C372 352.131 372.921 353.692 373.661 355.346C374.385 357.004 374.94 358.756 375.082 360.603C375.106 360.92 374.869 361.197 374.552 361.221C374.351 361.236 374.165 361.146 374.051 360.997L374.044 360.988C372.963 359.553 372.059 358.114 371.144 356.679C370.243 355.24 369.342 353.805 368.359 352.416C367.389 351.02 366.427 349.611 365.411 348.228C364.915 347.528 364.4 346.839 363.877 346.154C363.354 345.467 362.896 344.726 362.726 343.7L362.724 343.691C362.665 343.334 362.906 342.996 363.264 342.936C363.357 342.921 363.452 342.927 363.538 342.949Z" fill="white"/>
<path d="M284.817 278.139C283.78 279.068 282.78 280.031 281.975 281.1C281.183 282.165 280.633 283.4 280.784 284.533C280.977 285.655 281.765 286.636 282.775 287.412C283.774 288.206 284.944 288.847 286.145 289.424C286.613 289.649 286.81 290.211 286.585 290.679C286.451 290.958 286.197 291.141 285.915 291.195L285.887 291.201L272.348 293.73C270.109 294.177 267.849 294.601 265.705 295.241C265.169 295.398 264.654 295.603 264.201 295.833C263.964 295.942 263.794 296.101 263.716 296.196C263.69 296.234 263.685 296.248 263.686 296.297C263.721 296.355 263.754 296.435 263.856 296.512C264.212 296.827 264.758 297.072 265.276 297.284C265.808 297.489 266.352 297.684 266.904 297.861C265.747 297.729 264.602 297.676 263.442 297.039C263.296 296.959 263.153 296.812 263.029 296.628C262.973 296.532 262.944 296.391 262.919 296.267C262.904 296.143 262.946 296.02 262.974 295.897C263.152 295.482 263.436 295.242 263.688 295.057C264.207 294.673 264.753 294.409 265.296 294.168C266.384 293.679 267.491 293.299 268.607 292.959C269.722 292.617 270.839 292.295 271.966 292.02C274.213 291.446 276.476 290.966 278.743 290.528C281.008 290.078 283.287 289.711 285.562 289.339L285.305 291.116C284.046 290.427 282.799 289.679 281.683 288.679C280.607 287.688 279.573 286.313 279.482 284.634C279.473 282.954 280.383 281.585 281.391 280.595C282.412 279.578 283.603 278.816 284.817 278.139Z" fill="white" fill-opacity="0.3"/>
<path d="M281.995 298.229C280.686 299.262 279.239 300.048 277.757 300.731C276.272 301.412 274.742 301.99 273.174 302.439C271.609 302.897 270.009 303.236 268.388 303.449C266.771 303.676 265.125 303.751 263.47 303.607C264.994 302.929 266.521 302.433 268.043 301.927C269.568 301.439 271.086 300.956 272.616 300.519C274.146 300.077 275.684 299.66 277.237 299.265C278.792 298.869 280.357 298.503 281.995 298.229Z" fill="white" fill-opacity="0.3"/>
<path d="M320.611 278.47C325.913 279.609 331.164 280.952 336.394 282.421C339.002 283.198 341.596 283.976 344.153 285.081C344.796 285.386 345.419 285.638 346.09 286.224C346.243 286.403 346.49 286.572 346.553 287.116C346.586 287.38 346.429 287.705 346.285 287.845C346.139 288.004 345.994 288.088 345.88 288.145C345.404 288.373 345.048 288.416 344.677 288.478C343.229 288.668 341.872 288.641 340.497 288.624C335.032 288.502 329.638 287.932 324.254 287.625C322.914 287.553 321.566 287.473 320.265 287.48C319.942 287.482 319.622 287.494 319.329 287.519C319.181 287.531 319.046 287.551 318.94 287.572C318.903 287.581 318.836 287.597 318.859 287.593C318.859 287.593 318.858 287.594 318.93 287.552C318.964 287.528 318.96 287.527 319.016 287.477C319.08 287.419 319.134 287.343 319.168 287.264C319.382 286.727 319.117 286.51 319.148 286.517C319.127 286.484 319.143 286.513 319.182 286.543C319.245 286.603 319.365 286.691 319.478 286.771C319.718 286.935 319.994 287.1 320.273 287.26C322.559 288.53 325.053 289.645 327.496 290.781C329.948 291.924 332.41 293.06 334.861 294.241C336.086 294.833 337.309 295.436 338.524 296.074C339.739 296.727 340.944 297.353 342.138 298.241C342.442 298.487 342.735 298.69 343.072 299.145C343.152 299.254 343.246 299.413 343.318 299.618C343.387 299.85 343.449 300.175 343.263 300.562C343.217 300.656 343.158 300.748 343.097 300.823C343.047 300.875 342.993 300.924 342.936 300.971C342.808 301.077 342.715 301.122 342.636 301.157C342.443 301.25 342.334 301.264 342.193 301.303C341.265 301.457 340.62 301.367 339.899 301.323C338.502 301.198 337.155 300.991 335.807 300.779C333.117 300.351 330.455 299.848 327.793 299.362C325.132 298.876 322.47 298.417 319.806 298.012C317.149 297.629 314.455 297.245 311.832 297.338C311.186 297.37 310.528 297.441 309.994 297.652C309.733 297.76 309.528 297.909 309.467 298.074C309.423 298.133 309.417 298.321 309.388 298.446C309.391 298.582 309.374 298.723 309.407 298.856C309.488 299.401 309.883 299.895 310.386 300.276C310.887 300.665 311.478 300.966 312.089 301.22C313.317 301.723 314.63 302.05 315.951 302.312C317.273 302.579 318.614 302.777 319.963 302.899C317.257 302.833 314.525 302.592 311.9 301.715C311.248 301.484 310.602 301.204 310.006 300.795C309.42 300.396 308.844 299.811 308.666 299.003C308.585 298.592 308.575 298.236 308.71 297.782C308.884 297.297 309.292 297.031 309.635 296.862C310.351 296.537 311.059 296.44 311.757 296.361C314.55 296.141 317.266 296.437 319.976 296.712C322.683 297.012 325.369 297.419 328.05 297.823L336.069 299.046C337.4 299.233 338.735 299.412 340.039 299.505C340.663 299.548 341.387 299.573 341.796 299.487C341.816 299.478 341.877 299.465 341.833 299.476C341.833 299.476 341.816 299.486 341.749 299.532C341.725 299.552 341.704 299.575 341.687 299.6C341.648 299.639 341.608 299.693 341.582 299.75C341.484 299.988 341.515 300.13 341.541 300.203C341.552 300.251 341.567 300.259 341.544 300.233C341.481 300.138 341.229 299.921 341 299.754C340.003 299.045 338.805 298.399 337.63 297.785C336.444 297.171 335.233 296.583 334.017 296.004L326.655 292.595C324.197 291.432 321.742 290.325 319.298 288.952C318.991 288.772 318.685 288.589 318.368 288.369C318.206 288.253 318.05 288.143 317.865 287.972C317.776 287.891 317.676 287.795 317.555 287.627C317.487 287.501 317.141 287.11 317.424 286.412C317.484 286.299 317.563 286.189 317.651 286.098C317.735 286.015 317.772 285.997 317.839 285.948C317.979 285.853 318.055 285.827 318.136 285.794C318.315 285.722 318.416 285.706 318.543 285.675C318.769 285.631 318.97 285.607 319.16 285.592C319.541 285.561 319.899 285.552 320.252 285.551C321.661 285.553 323.018 285.638 324.38 285.741C329.804 286.16 335.187 286.768 340.55 287.071C341.879 287.128 343.24 287.183 344.485 287.053C344.782 287.022 345.106 286.954 345.243 286.888C345.281 286.876 345.281 286.862 345.249 286.9C345.218 286.92 345.151 287.079 345.16 287.173C345.2 287.372 345.2 287.268 345.123 287.209C344.785 286.886 344.167 286.542 343.596 286.261C341.222 285.116 338.645 284.233 336.1 283.35C330.995 281.575 325.797 280.044 320.611 278.47Z" fill="white" fill-opacity="0.3"/>
<path d="M344.255 377.524C344.213 375.558 344.521 373.638 345.112 371.736C345.268 371.26 345.435 370.785 345.66 370.3C345.77 370.058 345.901 369.811 346.062 369.557C346.233 369.307 346.409 369.032 346.821 368.758C347.039 368.628 347.335 368.496 347.701 368.519C347.877 368.528 348.03 368.568 348.199 368.637C348.365 368.717 348.584 368.871 348.644 368.96C349.021 369.402 349.071 369.687 349.174 369.97C349.341 370.528 349.418 371.024 349.492 371.522C349.76 373.489 349.843 375.393 350.065 377.241C350.119 377.7 350.186 378.151 350.268 378.575C350.305 378.787 350.351 378.991 350.402 379.169C350.447 379.344 350.524 379.516 350.534 379.52C350.534 379.52 350.538 379.532 350.495 379.481C350.478 379.464 350.458 379.451 350.437 379.441C350.41 379.423 350.356 379.383 350.308 379.367C350.11 379.289 349.842 379.321 349.76 379.386C349.591 379.501 349.716 379.417 349.769 379.296C349.916 379.013 350.056 378.592 350.171 378.173C350.619 376.441 350.913 374.542 351.264 372.655C351.446 371.702 351.619 370.755 351.927 369.743C352.013 369.483 352.097 369.232 352.249 368.932C352.318 368.79 352.414 368.623 352.567 368.436C352.676 368.327 352.706 368.256 352.905 368.129C353.077 368.013 353.261 367.936 353.462 367.912C353.862 367.856 354.116 367.955 354.319 368.028C354.507 368.109 354.664 368.197 354.789 368.28C355.053 368.451 355.254 368.617 355.453 368.782C356.94 370.092 358.208 371.346 359.807 372.087C360.595 372.454 361.436 372.639 362.301 372.673C363.168 372.688 364.048 372.491 364.906 372.168L364.911 372.166C365.102 372.094 365.316 372.191 365.388 372.382C365.452 372.55 365.384 372.736 365.237 372.827C364.39 373.356 363.405 373.713 362.364 373.846C361.319 373.978 360.245 373.802 359.26 373.463C357.273 372.791 355.677 371.392 354.259 370.259C354.086 370.125 353.911 369.996 353.769 369.914C353.648 369.811 353.456 369.833 353.769 369.84C353.846 369.822 353.926 369.8 353.999 369.754C354.086 369.676 354.057 369.72 354.079 369.692C354.087 369.691 354.053 369.728 354.026 369.805C353.964 369.932 353.902 370.137 353.842 370.331C353.608 371.15 353.446 372.087 353.29 373.012C352.968 374.88 352.752 376.774 352.23 378.737C352.089 379.236 351.944 379.733 351.655 380.3C351.471 380.586 351.338 380.931 350.746 381.281C350.561 381.358 350.431 381.437 350.182 381.449C349.947 381.467 349.72 381.445 349.513 381.35C349.279 381.259 349.147 381.149 349.034 381.04C348.895 380.915 348.834 380.821 348.769 380.725C348.514 380.332 348.435 380.046 348.348 379.763C348.268 379.483 348.212 379.22 348.165 378.963C348.075 378.448 348.021 377.951 347.976 377.461C347.8 375.512 347.769 373.594 347.572 371.771C347.52 371.324 347.455 370.872 347.357 370.513C347.324 370.343 347.217 370.16 347.276 370.242C347.273 370.225 347.369 370.34 347.442 370.346C347.503 370.375 347.537 370.375 347.595 370.381C347.719 370.38 347.787 370.349 347.798 370.334C347.805 370.317 347.68 370.43 347.588 370.574C347.49 370.721 347.388 370.892 347.296 371.083C347.108 371.458 346.943 371.879 346.79 372.306C346.181 374.029 345.679 375.852 344.983 377.646L344.981 377.651C344.906 377.845 344.688 377.941 344.495 377.866C344.349 377.809 344.259 377.671 344.255 377.524Z" fill="white" fill-opacity="0.3"/>
<path d="M254.409 46.4978L222.81 32.5126C149.729 0.167382 64.2632 33.1909 31.9179 106.273C-0.427306 179.354 32.5961 264.82 105.678 297.165L137.276 311.15C210.358 343.496 295.823 310.472 328.169 237.39C360.514 164.309 327.491 78.843 254.409 46.4978Z" fill="white" fill-opacity="0.3"/>
<path d="M276.222 253.646C279.678 253.349 282.797 253.815 285.831 254.472C288.848 255.168 291.741 256.144 294.522 257.373C297.305 258.597 299.974 260.079 302.518 261.845C305.045 263.647 307.486 265.646 309.586 268.413C306.125 268.719 303.005 268.257 299.972 267.598C296.955 266.902 294.063 265.924 291.285 264.687C288.506 263.455 285.838 261.969 283.294 260.204C280.768 258.401 278.326 256.405 276.222 253.646Z" fill="#DDDDDD"/>
<path d="M250.087 281.132C253.338 280.805 256.236 281.235 259.046 281.855C261.839 282.51 264.501 283.445 267.044 284.634C269.589 285.822 272.027 287.237 274.316 288.971C276.596 290.724 278.785 292.674 280.619 295.384C277.363 295.72 274.464 295.293 271.655 294.671C268.856 294.03 266.206 293.069 263.661 291.882C261.116 290.695 258.69 289.255 256.394 287.535C254.115 285.779 251.925 283.834 250.087 281.132Z" fill="#DDDDDD"/>
<path d="M210.146 302.507C213.298 302.075 216.113 302.405 218.842 302.928C221.555 303.486 224.144 304.327 226.619 305.424C229.094 306.52 231.469 307.844 233.7 309.492C235.923 311.158 238.058 313.023 239.854 315.655C236.698 316.096 233.882 315.769 231.154 315.244C228.434 314.7 225.857 313.833 223.382 312.738C220.906 311.644 218.543 310.293 216.305 308.66C214.083 306.991 211.946 305.131 210.146 302.507Z" fill="#DDDDDD"/>
<path d="M167.534 311.269C170.772 310.875 173.672 311.244 176.488 311.805C179.288 312.401 181.962 313.281 184.524 314.415C187.085 315.55 189.546 316.912 191.864 318.598C194.173 320.303 196.395 322.205 198.276 324.876C195.034 325.279 192.132 324.913 189.318 324.35C186.511 323.768 183.848 322.863 181.286 321.73C178.724 320.597 176.275 319.208 173.951 317.537C171.643 315.83 169.419 313.931 167.534 311.269Z" fill="#DDDDDD"/>
<path d="M293.628 222.207C296.983 221.865 300 222.285 302.932 222.897C305.847 223.548 308.637 224.479 311.317 225.662C313.998 226.841 316.564 228.279 319.006 230C321.431 231.756 323.769 233.709 325.767 236.432C322.409 236.783 319.391 236.366 316.46 235.752C313.545 235.102 310.755 234.168 308.079 232.977C305.402 231.79 302.836 230.35 300.395 228.63C297.97 226.871 295.63 224.921 293.628 222.207Z" fill="#DDDDDD"/>
<path d="M305.161 188.259C309.095 188.173 312.692 188.85 316.204 189.719C319.699 190.627 323.07 191.814 326.329 193.254C329.59 194.69 332.737 196.384 335.758 198.362C338.764 200.375 341.682 202.585 344.26 205.564C340.321 205.659 336.723 204.985 333.212 204.114C329.717 203.207 326.347 202.017 323.092 200.569C319.834 199.125 316.689 197.428 313.667 195.452C310.663 193.436 307.743 191.229 305.161 188.259Z" fill="#DDDDDD"/>
<path d="M307.933 150.434C311.867 150.348 315.464 151.025 318.976 151.894C322.471 152.801 325.842 153.988 329.101 155.429C332.362 156.865 335.508 158.559 338.53 160.536C341.535 162.549 344.453 164.759 347.031 167.738C343.093 167.833 339.495 167.16 335.984 166.288C332.489 165.382 329.119 164.191 325.863 162.743C322.606 161.299 319.46 159.603 316.439 157.626C313.434 155.611 310.515 153.404 307.933 150.434Z" fill="#DDDDDD"/>
<path d="M296.898 106.498C300.833 106.412 304.43 107.089 307.942 107.958C311.437 108.865 314.807 110.052 318.066 111.493C321.327 112.929 324.474 114.623 327.495 116.6C330.501 118.613 333.419 120.823 335.997 123.802C332.059 123.897 328.46 123.224 324.949 122.352C321.454 121.446 318.085 120.255 314.829 118.807C311.572 117.363 308.426 115.667 305.405 113.69C302.4 111.675 299.48 109.468 296.898 106.498Z" fill="#DDDDDD"/>
<path d="M274.731 69.0645C278.666 68.9785 282.262 69.6556 285.774 70.5245C289.269 71.4319 292.64 72.6193 295.899 74.0596C299.16 75.4955 302.307 77.1895 305.328 79.1669C308.333 81.1798 311.252 83.3903 313.83 86.3692C309.891 86.464 306.293 85.7904 302.782 84.9191C299.287 84.0124 295.917 82.8223 292.662 81.3741C289.404 79.9303 286.259 78.2335 283.237 76.2569C280.233 74.2416 277.313 72.0346 274.731 69.0645Z" fill="#DDDDDD"/>
<path d="M164.244 309.546C244.164 309.546 308.952 244.759 308.952 164.839C308.952 84.9191 244.164 20.1313 164.244 20.1313C84.3244 20.1313 19.5366 84.9191 19.5366 164.839C19.5366 244.759 84.3244 309.546 164.244 309.546Z" stroke="white" stroke-width="8" stroke-miterlimit="10" stroke-linecap="round" stroke-linejoin="round"/>
<path d="M105.678 297.165L137.276 311.15C210.358 343.496 295.823 310.472 328.169 237.39C360.514 164.309 327.49 78.8431 254.409 46.4978L222.81 32.5127" stroke="white" stroke-width="8" stroke-miterlimit="10" stroke-linecap="round" stroke-linejoin="round"/>
<path d="M164.244 273.98C224.521 273.98 273.385 225.116 273.385 164.839C273.385 104.562 224.521 55.6978 164.244 55.6978C103.967 55.6978 55.103 104.562 55.103 164.839C55.103 225.116 103.967 273.98 164.244 273.98Z" stroke="white" stroke-width="8" stroke-miterlimit="10" stroke-linecap="round" stroke-linejoin="round"/>
<path d="M211.998 56.9433C211.113 54.8491 210.957 53.0778 211.022 51.404C211.099 49.7355 211.5 48.2106 212.121 46.7832C212.751 45.3598 213.61 44.0374 214.792 42.8581C215.986 41.6839 217.404 40.6092 219.559 39.8604C220.453 41.9586 220.611 43.7311 220.544 45.404C220.466 47.0719 220.065 48.5966 219.435 50.0204C218.796 51.4401 217.938 52.7624 216.754 53.9411C215.559 55.1144 214.143 56.1903 211.998 56.9433Z" fill="white"/>
<path d="M108.93 289.818C108.045 287.724 107.889 285.952 107.954 284.278C108.031 282.61 108.432 281.085 109.053 279.658C109.684 278.234 110.542 276.912 111.724 275.733C112.918 274.558 114.336 273.484 116.49 272.735C117.385 274.833 117.543 276.606 117.477 278.279C117.398 279.946 116.997 281.471 116.367 282.895C115.729 284.315 114.87 285.637 113.686 286.816C112.491 287.989 111.075 289.065 108.93 289.818Z" fill="white"/>
<path d="M272.141 212.592C274.235 211.707 276.006 211.552 277.68 211.616C279.348 211.693 280.873 212.094 282.301 212.716C283.724 213.346 285.046 214.205 286.226 215.387C287.4 216.58 288.475 217.999 289.223 220.153C287.125 221.048 285.353 221.206 283.68 221.139C282.012 221.061 280.487 220.66 279.063 220.03C277.644 219.391 276.322 218.532 275.143 217.349C273.969 216.153 272.894 214.738 272.141 212.592Z" fill="white"/>
<path d="M39.2656 109.525C41.3597 108.64 43.1311 108.484 44.8049 108.549C46.4734 108.625 47.9983 109.026 49.4257 109.648C50.8491 110.278 52.1714 111.137 53.3507 112.319C54.525 113.512 55.5997 114.931 56.3485 117.085C54.2502 117.98 52.4778 118.138 50.8048 118.071C49.137 117.993 47.6123 117.592 46.1885 116.962C44.7688 116.323 43.4465 115.464 42.2678 114.281C41.0945 113.086 40.0186 111.67 39.2656 109.525Z" fill="white"/>
<path d="M274.305 122.312C275.16 120.205 276.303 118.843 277.532 117.705C278.766 116.579 280.128 115.785 281.577 115.215C283.029 114.654 284.571 114.326 286.241 114.328C287.915 114.342 289.678 114.585 291.731 115.579C290.88 117.695 289.738 119.06 288.508 120.196C287.273 121.32 285.911 122.114 284.459 122.676C283.004 123.228 281.462 123.556 279.791 123.552C278.116 123.537 276.354 123.296 274.305 122.312Z" fill="white"/>
<path d="M36.7578 214.099C37.6128 211.992 38.7552 210.63 39.9845 209.492C41.2186 208.367 42.5804 207.572 44.0292 207.002C45.4814 206.441 47.0238 206.113 48.6935 206.115C50.3676 206.129 52.1305 206.372 54.1835 207.366C53.3322 209.482 52.1908 210.847 50.9607 211.983C49.7261 213.107 48.364 213.901 46.9121 214.463C45.4565 215.015 43.9141 215.343 42.2439 215.339C40.569 215.324 38.8071 215.083 36.7578 214.099Z" fill="white"/>
<path d="M206.771 274.9C208.878 275.755 210.24 276.897 211.378 278.127C212.504 279.361 213.298 280.723 213.868 282.171C214.429 283.624 214.757 285.166 214.755 286.836C214.741 288.51 214.498 290.273 213.504 292.326C211.388 291.474 210.023 290.333 208.887 289.103C207.763 287.868 206.969 286.506 206.407 285.054C205.855 283.599 205.528 282.056 205.531 280.386C205.546 278.711 205.787 276.949 206.771 274.9Z" fill="white"/>
<path d="M114.984 37.3525C117.091 38.2075 118.453 39.35 119.591 40.5792C120.716 41.8133 121.511 43.1752 122.081 44.6239C122.642 46.0762 122.97 47.6185 122.968 49.2882C122.954 50.9623 122.711 52.7252 121.717 54.7782C119.601 53.9269 118.236 52.7855 117.1 51.5554C115.976 50.3208 115.182 48.9588 114.62 47.5069C114.068 46.0513 113.74 44.5089 113.744 42.8387C113.759 41.1637 114 39.4019 114.984 37.3525Z" fill="white"/>
<path d="M140.184 104.039L134.2 108.053C128.321 111.996 124.516 118.366 123.824 125.411C123.511 128.598 123.471 131.463 123.743 133.96C116.804 143.175 109.752 141.233 110.756 153.796C81.7099 170.377 86.5607 181.463 102.355 218.414C114.11 227.353 128.44 231.097 145.58 229.173C150.25 228.648 154.518 226.241 157.338 222.481C163.549 214.2 168.715 205.167 170.516 193.71C174.564 191.845 178.425 190.378 181.342 190.927C187.238 176.183 196.223 164.682 210.203 158.424C200.232 130.663 182.91 117.417 157.229 120.671C152.95 113.296 147.274 107.744 140.184 104.039Z" stroke="white" stroke-width="3" stroke-miterlimit="10" stroke-linecap="round" stroke-linejoin="round"/>
<path d="M85.5074 174.66L99.0964 182.382L95.7716 189.894L84.9146 185.893" fill="white" fill-opacity="0.3"/>
<path d="M216.107 169.84C223.744 169.487 230.985 170.186 237.632 172.469C237.734 163.851 236.493 154.871 233.961 145.543C237.086 148.104 240.183 150.808 243.225 153.78C244.086 154.622 245.509 153.789 245.192 152.627C235.359 116.594 223.961 92.0358 208.575 96.7093C206.412 79.2334 177.306 76.4872 123.545 89.6748C122.636 89.8977 122.516 91.1356 123.362 91.5338C126.345 92.9362 128.929 94.5833 130.91 96.6004C120.589 103.835 120.016 110.696 126.127 117.3L126.13 117.314C127.941 113.614 130.698 110.401 134.199 108.052L140.184 104.038C147.274 107.744 152.949 113.296 157.228 120.671C182.909 117.416 200.232 130.663 210.202 158.424C196.223 164.682 187.237 176.183 181.341 190.927C178.425 190.378 174.564 191.844 170.516 193.71C168.715 205.167 163.549 214.2 157.337 222.481C154.818 225.84 151.141 228.116 147.054 228.937C153.61 231.303 160.984 231.585 171.382 224.163C172.978 225.02 173.078 226.957 172.415 229.446C171.958 231.158 173.765 232.577 175.318 231.722C180.557 228.836 185.563 225.441 190.16 221.142C190.776 223.079 189.755 227.168 188.191 231.973C187.646 233.645 189.389 235.183 190.959 234.39C197.295 231.189 203.553 224.665 209.695 213.273C203.035 203.551 202.058 190.757 216.107 169.84Z" fill="white"/>
<path d="M160.625 143.75C160.486 143.104 160.649 142.744 160.882 142.471C161.121 142.202 161.366 141.936 161.62 141.675C162.134 141.161 162.713 140.708 163.348 140.347C163.986 139.992 164.657 139.686 165.368 139.499C166.085 139.329 166.851 139.288 167.66 139.574C168.018 139.701 168.205 140.094 168.078 140.452C168.058 140.509 168.031 140.562 167.998 140.61L167.982 140.633C167.516 141.308 167.03 141.734 166.529 142.106C166.022 142.46 165.508 142.772 165.003 143.104C164.496 143.429 163.973 143.731 163.429 144.029C163.156 144.176 162.885 144.331 162.615 144.493C162.344 144.656 162.013 144.743 161.387 144.553L161.357 144.544C160.975 144.428 160.705 144.115 160.625 143.75Z" fill="white"/>
<path d="M151.633 158.753C151.118 157.964 151.125 157.353 151.265 156.794C151.405 156.234 151.552 155.674 151.721 155.12C152.055 154.012 152.474 152.925 153.012 151.889C153.557 150.858 154.16 149.845 154.898 148.917C155.655 148.003 156.568 147.175 157.801 146.664C158.238 146.484 158.739 146.691 158.92 147.128C158.974 147.258 158.993 147.393 158.983 147.523L158.98 147.551C158.874 148.828 158.552 149.865 158.163 150.869C157.755 151.858 157.3 152.815 156.857 153.787C156.406 154.754 155.906 155.704 155.375 156.655L154.573 158.087C154.306 158.568 153.921 159.002 153.019 159.261L153.005 159.265C152.473 159.417 151.921 159.194 151.633 158.753Z" fill="white"/>
<path d="M181.656 173.845C181.356 172.978 181.188 172.123 181.069 171.269C180.924 170.419 180.823 169.572 180.761 168.724L180.466 166.195C180.345 165.357 180.186 164.528 180.049 163.695C179.427 160.383 178.484 157.157 177.142 154.121C176.77 153.38 176.435 152.62 176.056 151.883C175.641 151.167 175.274 150.42 174.823 149.725C173.932 148.326 172.958 146.98 171.896 145.695C169.776 143.116 167.32 140.799 164.707 138.514L164.703 138.51C164.47 138.307 164.447 137.954 164.65 137.721C164.816 137.531 165.083 137.481 165.302 137.58C168.541 139.05 171.509 141.186 174.021 143.798C176.527 146.418 178.564 149.508 180.066 152.816C181.58 156.128 182.487 159.671 182.98 163.219C183.074 164.109 183.189 164.998 183.264 165.887L183.418 168.555C183.429 169.444 183.42 170.334 183.332 171.221C183.218 172.106 183.056 172.99 182.762 173.862C182.66 174.166 182.331 174.329 182.027 174.227C181.851 174.168 181.722 174.032 181.664 173.869L181.656 173.845Z" fill="white"/>
<path d="M151.46 150.745C152.841 150.424 154.195 150.563 155.483 150.887C156.772 151.216 158.049 151.599 159.297 152.056C161.791 152.978 164.182 154.151 166.426 155.535C168.668 156.922 170.802 158.46 172.794 160.149C174.775 161.853 176.615 163.712 178.178 165.824C178.363 166.075 178.31 166.428 178.06 166.613C177.871 166.753 177.622 166.756 177.432 166.642C175.2 165.304 173.13 163.836 171.052 162.403C168.987 160.956 166.913 159.546 164.767 158.275C162.625 157.004 160.445 155.813 158.184 154.809C157.06 154.291 155.907 153.844 154.738 153.443C154.154 153.242 153.568 153.048 152.995 152.778C152.417 152.525 151.84 152.256 151.273 151.836L151.239 151.811C150.973 151.614 150.917 151.239 151.114 150.973C151.201 150.854 151.326 150.777 151.46 150.745Z" fill="white"/>
<path d="M155.283 163.217C155.83 163.315 156.28 163.5 156.695 163.721C157.122 163.927 157.505 164.174 157.868 164.447C158.607 164.973 159.36 165.473 160.133 165.931C161.667 166.869 163.264 167.658 164.892 168.354C166.518 169.065 168.214 169.586 169.949 170.013C171.685 170.457 173.457 170.798 175.322 171.249L175.328 171.25C175.635 171.324 175.824 171.634 175.75 171.941C175.7 172.145 175.546 172.297 175.359 172.355C173.453 172.931 171.439 173.029 169.459 172.819C167.477 172.596 165.529 172.055 163.668 171.328C161.807 170.586 160.074 169.562 158.477 168.395C157.684 167.801 156.926 167.17 156.193 166.517C155.466 165.859 154.833 165.083 154.521 164.019C154.422 163.681 154.616 163.326 154.954 163.226C155.052 163.198 155.15 163.193 155.244 163.21L155.283 163.217Z" fill="white"/>
<path d="M160.557 154.218C158.723 158.376 159.953 162.946 163.308 164.431C166.2 165.711 169.723 164.277 171.823 161.198C168.119 158.342 164.368 155.969 160.557 154.218Z" fill="white"/>
<path d="M162.253 132.726C164.05 132.846 165.729 133.436 167.271 134.236C168.049 134.628 168.817 135.038 169.56 135.485C170.32 135.91 171.052 136.374 171.779 136.846C174.682 138.745 177.388 140.909 179.899 143.256C181.169 144.414 182.367 145.645 183.548 146.884C184.731 148.121 185.881 149.389 186.973 150.701C189.16 153.323 191.185 156.074 192.907 159.035C193.062 159.302 192.972 159.645 192.704 159.8C192.487 159.926 192.219 159.888 192.043 159.727C189.535 157.42 187.205 155.001 184.861 152.612C182.53 150.212 180.183 147.844 177.727 145.61C175.274 143.376 172.759 141.225 170.096 139.292C169.434 138.803 168.767 138.32 168.076 137.878C167.399 137.412 166.7 136.984 165.992 136.571C164.587 135.716 163.18 134.919 161.852 133.757L161.833 133.74C161.592 133.529 161.567 133.163 161.778 132.922C161.901 132.782 162.08 132.715 162.253 132.726Z" fill="white"/>
<path d="M129.749 116.787C130.861 116.653 131.834 116.931 132.732 117.335C133.629 117.744 134.515 118.176 135.384 118.64C137.11 119.584 138.776 120.634 140.331 121.818C141.876 123.014 143.375 124.26 144.764 125.617C146.142 126.986 147.419 128.457 148.45 130.152C148.615 130.422 148.529 130.774 148.259 130.938C148.079 131.048 147.859 131.045 147.685 130.951C145.958 130.007 144.418 128.899 142.904 127.775C141.401 126.64 139.931 125.481 138.412 124.399C136.904 123.306 135.409 122.205 133.859 121.187C133.093 120.666 132.308 120.173 131.512 119.702C131.115 119.463 130.718 119.228 130.356 118.908C129.986 118.605 129.629 118.272 129.316 117.805L129.296 117.775C129.1 117.482 129.178 117.086 129.471 116.89C129.556 116.833 129.654 116.799 129.749 116.787Z" fill="white"/>
<path d="M132.068 123.709C133.316 124.118 134.287 124.893 135.122 125.78C135.947 126.679 136.735 127.616 137.464 128.602C138.904 130.585 140.099 132.757 140.976 135.043C141.851 137.329 142.474 139.702 142.807 142.099C143.121 144.5 143.145 146.928 142.725 149.308C142.67 149.616 142.377 149.821 142.069 149.767C141.845 149.727 141.675 149.561 141.62 149.354L141.619 149.348C141.018 147.057 140.561 144.822 140.008 142.628C139.472 140.433 138.837 138.283 137.996 136.219C137.16 134.156 136.184 132.157 135.005 130.267C134.424 129.316 133.782 128.402 133.1 127.513C132.747 127.078 132.413 126.626 132.118 126.129C131.805 125.648 131.516 125.137 131.311 124.516L131.299 124.479C131.193 124.159 131.367 123.815 131.687 123.709C131.815 123.667 131.948 123.669 132.068 123.709Z" fill="white"/>
<path d="M123.191 143.511C122.936 142.514 123.069 141.65 123.306 140.817L124.045 138.318C124.582 136.661 125.16 134.997 125.946 133.388C126.746 131.793 127.643 130.189 128.9 128.768C130.141 127.381 131.968 126.146 133.957 126.114C134.272 126.109 134.531 126.36 134.536 126.675C134.539 126.869 134.444 127.042 134.298 127.147L134.249 127.182C132.913 128.126 132.006 129.233 131.138 130.53C130.285 131.825 129.526 133.257 128.855 134.76C128.171 136.257 127.491 137.794 126.828 139.354L125.817 141.702C125.482 142.489 125.053 143.248 124.236 143.873C123.946 144.096 123.53 144.042 123.307 143.751C123.252 143.679 123.213 143.595 123.191 143.511Z" fill="white"/>
<path d="M122.467 137.208C123.707 136.851 124.909 136.936 126.068 137.17C127.226 137.414 128.379 137.695 129.519 138.024C131.792 138.7 134.009 139.576 136.112 140.662C138.214 141.749 140.235 142.984 142.12 144.389C143.995 145.81 145.736 147.404 147.189 149.275C147.381 149.523 147.336 149.878 147.089 150.07C146.91 150.209 146.671 150.222 146.481 150.126C144.402 149.065 142.474 147.89 140.535 146.756C138.607 145.607 136.669 144.501 134.671 143.522C132.676 142.54 130.654 141.624 128.575 140.838C127.539 140.436 126.485 140.079 125.42 139.753C124.885 139.6 124.356 139.419 123.835 139.182C123.311 138.958 122.791 138.698 122.284 138.3L122.258 138.279C121.992 138.071 121.945 137.685 122.154 137.419C122.237 137.314 122.347 137.243 122.467 137.208Z" fill="white"/>
<path d="M129.423 139.562C127.993 143.43 128.49 147.15 130.668 148.114C132.681 149.005 135.802 146.495 137.716 143.335C135 141.792 132.236 140.533 129.423 139.562Z" fill="white"/>
<path d="M126.037 149.383C126.479 149.313 126.841 149.346 127.176 149.419C127.519 149.475 127.821 149.593 128.11 149.732C128.696 149.995 129.287 150.236 129.883 150.456C131.068 150.91 132.273 151.26 133.478 151.585C134.683 151.927 135.915 152.141 137.167 152.336C138.421 152.548 139.693 152.732 141.062 153.091L141.072 153.093C141.387 153.176 141.575 153.498 141.493 153.813C141.449 153.982 141.333 154.116 141.189 154.19C139.875 154.856 138.439 155.129 136.998 155.18C135.556 155.216 134.108 155.021 132.694 154.704C131.281 154.374 129.929 153.822 128.657 153.16C128.027 152.813 127.413 152.446 126.816 152.059C126.225 151.665 125.694 151.157 125.428 150.307C125.31 149.932 125.519 149.531 125.895 149.414C125.927 149.404 125.959 149.396 125.992 149.39L126.037 149.383Z" fill="white"/>
<path d="M118.493 162.641C117.578 161.696 117.207 159.99 117.789 158.575C118.058 157.862 118.526 157.201 119.145 156.707C119.758 156.208 120.594 155.915 121.088 155.764C123.375 155.022 125.777 154.517 128.234 154.392C129.462 154.324 130.7 154.366 131.929 154.506C132.544 154.575 133.157 154.666 133.764 154.789L134.224 154.881C134.409 154.926 134.594 154.97 134.775 155.031C135.138 155.146 135.493 155.29 135.83 155.471C136.508 155.825 137.121 156.305 137.635 156.878C137.889 157.167 138.117 157.479 138.316 157.809C138.508 158.126 138.695 158.537 138.79 158.762L140.187 161.932L138.898 160.987C141.243 161.235 143.583 161.536 145.925 161.819C147.333 161.955 148.824 162.561 149.938 163.517C150.509 163.99 150.988 164.565 151.383 165.186C151.486 165.338 151.569 165.503 151.661 165.663L151.878 166.09L152.278 166.944C152.792 168.09 153.173 169.278 153.5 170.464L153.619 170.916C153.665 171.106 153.708 171.296 153.731 171.491C153.78 171.877 153.79 172.268 153.754 172.653C153.678 173.421 153.439 174.168 153.045 174.817C152.682 175.466 152.029 176.033 151.625 176.355C151.176 176.739 150.72 177.116 150.258 177.486C149.336 178.229 148.43 178.988 147.482 179.704C147.236 179.89 146.887 179.841 146.701 179.595C146.543 179.386 146.555 179.102 146.714 178.907C147.464 177.986 148.256 177.108 149.031 176.213C149.418 175.765 149.811 175.323 150.211 174.888C150.665 174.407 150.876 174.141 151.055 173.732C151.234 173.349 151.311 172.928 151.307 172.521C151.302 172.317 151.273 172.116 151.225 171.921C151.201 171.824 151.172 171.729 151.141 171.634L151.005 171.239C150.633 170.172 150.18 169.148 149.693 168.157L149.309 167.426C149.168 167.17 149.049 166.965 148.927 166.795C148.673 166.432 148.366 166.109 148.022 165.838C147.321 165.284 146.527 164.964 145.586 164.892C143.239 164.657 140.889 164.44 138.546 164.171L138.539 164.17C137.955 164.103 137.479 163.726 137.256 163.225L135.857 160.056C135.724 159.751 135.668 159.637 135.565 159.456C135.466 159.291 135.349 159.139 135.226 158.991C134.977 158.698 134.674 158.445 134.333 158.255C134.164 158.157 133.984 158.079 133.799 158.014C133.707 157.979 133.611 157.956 133.517 157.928L133.129 157.842C132.607 157.721 132.079 157.63 131.548 157.557C130.485 157.409 129.409 157.348 128.329 157.352C126.166 157.367 123.988 157.721 121.856 158.311C121.246 158.484 120.959 158.54 120.643 158.745C120.323 158.926 120.055 159.204 119.832 159.532C119.388 160.208 119.209 161.067 119.466 162.113C119.541 162.42 119.353 162.73 119.046 162.805C118.842 162.855 118.636 162.788 118.499 162.648L118.493 162.641Z" fill="white"/>
<path d="M134.99 169.965C140.608 166.983 146.011 168.564 146.269 172.849C143.534 173.558 141.663 172.435 140.384 170.057C139.475 169.334 137.365 169.546 134.99 169.965Z" fill="white"/>
<path d="M130.325 165.792C130.128 159.525 127.519 158.019 123.515 159.264C123.373 161.543 124.822 162.613 128.069 162.313L128.691 164.611C128.862 165.244 129.408 165.705 130.061 165.767L130.325 165.792Z" fill="white"/>
<path d="M129.195 169.705C129.345 170.611 129.12 171.337 128.786 171.997C128.45 172.656 128.101 173.311 127.729 173.956C126.968 175.235 126.128 176.481 125.141 177.614C124.145 178.735 123.08 179.811 121.882 180.73C120.677 181.635 119.34 182.393 117.833 182.772C117.519 182.85 117.201 182.66 117.122 182.346C117.078 182.17 117.119 181.992 117.218 181.857L117.226 181.846C118.117 180.647 119.049 179.634 119.973 178.615C120.905 177.61 121.83 176.608 122.685 175.538C123.551 174.478 124.427 173.418 125.259 172.309C125.688 171.763 126.098 171.2 126.501 170.63C126.907 170.059 127.381 169.532 128.221 169.18L128.235 169.174C128.591 169.025 129.001 169.193 129.15 169.549C129.171 169.599 129.187 169.654 129.195 169.705Z" fill="white"/>
<path d="M113.942 182.88C113.181 182.951 112.536 183.135 111.868 183.371C111.552 183.494 111.341 183.604 111.126 183.771C110.906 183.909 110.738 184.106 110.583 184.304C110.276 184.702 110.12 185.224 110.162 185.708C110.172 185.951 110.237 186.186 110.339 186.404C110.383 186.515 110.451 186.618 110.517 186.72C110.58 186.826 110.711 186.993 110.811 187.123C111.246 187.669 111.741 188.175 112.298 188.631C112.576 188.859 112.868 189.075 113.171 189.279L113.401 189.431C113.511 189.507 113.668 189.615 113.791 189.718C114.047 189.935 114.286 190.177 114.482 190.454C115.298 191.54 115.489 193.081 114.925 194.357C114.39 195.627 113.156 196.564 111.791 196.741C111.456 196.789 111.094 196.789 110.777 196.753L110.162 196.683L108.936 196.529L107.761 196.38C107.529 196.352 107.293 196.37 107.065 196.425C106.139 196.631 105.416 197.557 105.432 198.558C105.446 198.813 105.464 199.033 105.568 199.312C105.68 199.621 105.805 199.925 105.974 200.197C106.294 200.753 106.719 201.25 107.27 201.653C108.352 202.499 109.863 202.962 111.435 203.289L111.445 203.291C111.748 203.354 111.942 203.65 111.879 203.952C111.829 204.195 111.627 204.368 111.394 204.394C109.693 204.585 107.839 204.469 106.09 203.579C105.234 203.127 104.419 202.482 103.823 201.665C103.513 201.266 103.268 200.827 103.049 200.383C102.811 199.912 102.637 199.317 102.59 198.751C102.486 197.602 102.787 196.415 103.447 195.453C104.11 194.49 105.12 193.765 106.254 193.447C106.82 193.286 107.416 193.221 108.006 193.263L109.289 193.381L110.519 193.502L111.133 193.57C111.225 193.579 111.278 193.577 111.351 193.568C111.626 193.531 111.874 193.344 111.981 193.087C112.081 192.847 112.06 192.542 111.902 192.291C111.867 192.226 111.812 192.174 111.76 192.118L111.657 192.034L111.377 191.835C111.007 191.566 110.645 191.278 110.297 190.971C109.602 190.355 108.951 189.662 108.415 188.876C108.276 188.669 108.16 188.505 108.019 188.252C107.876 188 107.744 187.742 107.649 187.464C107.444 186.919 107.336 186.332 107.347 185.752C107.346 184.59 107.784 183.453 108.539 182.597C109.271 181.727 110.428 181.188 111.462 181.143C112.41 181.084 113.464 181.248 114.279 181.827C114.54 182.012 114.602 182.373 114.417 182.634C114.316 182.776 114.162 182.859 114.001 182.875L113.942 182.88Z" fill="white"/>
<path d="M80.2405 171.667C82.2135 176.831 79.5634 179.649 75.1232 181.559C71.9759 178.277 74.0738 171.693 80.2405 171.667Z" stroke="white" stroke-width="3" stroke-miterlimit="10" stroke-linecap="round" stroke-linejoin="round"/>
<path d="M80.2402 171.667L110.138 188.656" stroke="white" stroke-width="3" stroke-miterlimit="10" stroke-linecap="round" stroke-linejoin="round"/>
<path d="M75.123 181.56L108.003 194.831" stroke="white" stroke-width="4" stroke-miterlimit="10" stroke-linecap="round" stroke-linejoin="round"/>
<path d="M123.628 127.995C113.705 115.599 102.053 136.347 106.602 156.277" stroke="white" stroke-width="3" stroke-miterlimit="10" stroke-linecap="round" stroke-linejoin="round"/>
<path d="M111.054 139.672C110.571 138.729 110.617 137.937 110.821 137.195C111.029 136.453 111.248 135.709 111.514 134.959C112.086 133.468 112.703 131.952 114.243 130.487C114.663 130.129 115.138 129.77 115.785 129.516C116.426 129.263 117.219 129.144 117.95 129.268C119.442 129.54 120.304 130.359 120.907 131.069C122.076 132.556 122.542 134.102 122.635 135.754C122.66 136.197 122.321 136.576 121.878 136.6C121.678 136.612 121.491 136.549 121.344 136.435L121.315 136.413C120.07 135.451 119.086 134.386 118.204 133.747C117.781 133.428 117.404 133.296 117.414 133.368C117.413 133.399 117.459 133.395 117.419 133.42L117.126 133.662C116.524 134.245 115.782 135.42 115.123 136.585C114.779 137.175 114.459 137.803 114.146 138.438C113.829 139.074 113.405 139.677 112.457 140.131L112.439 140.14C111.926 140.385 111.312 140.175 111.054 139.672Z" fill="white"/>
<path d="M237.857 171.963C238.658 172.145 239.436 172.382 240.213 172.618C240.612 172.754 240.948 172.834 241.436 173.042C241.883 173.247 242.308 173.51 242.697 173.826C243.468 174.462 244.08 175.325 244.415 176.303C244.495 176.537 244.567 176.821 244.608 177.029L244.732 177.638C244.812 178.045 244.901 178.451 244.96 178.862C245.492 182.138 245.691 185.464 245.596 188.774C245.505 192.086 245.09 195.376 244.487 198.616C244.183 200.237 243.818 201.844 243.392 203.433C243.189 204.231 242.955 205.014 242.732 205.81L242.316 207.06L241.816 208.28C240.389 211.498 238.018 214.272 235.126 216.247C233.678 217.235 232.098 218.025 230.443 218.589C229.625 218.872 228.745 219.083 227.931 219.252C227.122 219.417 226.311 219.562 225.499 219.698C218.986 220.737 212.41 220.766 205.948 220.147C205.643 220.118 205.419 219.847 205.448 219.542C205.475 219.266 205.701 219.056 205.97 219.041C212.403 218.66 218.789 218.143 224.991 216.895C225.766 216.738 226.538 216.574 227.304 216.391C228.064 216.207 228.749 216.012 229.451 215.753C230.842 215.253 232.162 214.564 233.365 213.713C235.779 212.014 237.684 209.644 238.894 206.968L239.311 205.948L239.659 204.902C239.87 204.145 240.098 203.381 240.292 202.616C240.694 201.085 241.05 199.546 241.38 198.002C242.023 194.912 242.444 191.783 242.63 188.647C242.82 185.51 242.73 182.361 242.326 179.25L242.162 178.086L242.082 177.503C242.054 177.313 242.033 177.204 241.994 177.053C241.857 176.486 241.567 175.945 241.156 175.485C240.746 175.003 240.248 174.711 239.478 174.279C238.781 173.862 238.083 173.446 237.409 172.975C237.153 172.797 237.091 172.445 237.27 172.19C237.405 171.996 237.64 171.914 237.857 171.963Z" fill="white"/>
<path d="M236.504 178.164C235.096 178.369 233.804 178.192 232.534 177.933C231.265 177.674 229.997 177.436 228.73 177.229C226.202 176.802 223.676 176.471 221.222 176.399C218.79 176.345 216.347 176.604 214.595 177.758C212.809 178.84 211.787 181.016 211.203 183.535C211.133 183.838 210.831 184.027 210.527 183.957C210.296 183.903 210.132 183.713 210.098 183.492C209.89 182.133 209.924 180.692 210.352 179.258C210.786 177.842 211.653 176.422 212.911 175.461C213.522 174.956 214.211 174.595 214.902 174.267C215.605 173.986 216.321 173.749 217.035 173.6C218.465 173.288 219.886 173.163 221.275 173.197C224.057 173.233 226.723 173.713 229.321 174.32C230.617 174.637 231.899 174.983 233.171 175.347C234.441 175.718 235.679 176.206 236.796 177.097C237.056 177.304 237.098 177.684 236.891 177.944C236.792 178.068 236.65 178.143 236.504 178.164Z" fill="white"/>
<path d="M214.619 186.773C216.885 184.892 219.495 183.461 222.343 182.495C222.706 182.376 223.044 182.261 223.438 182.159C223.851 182.076 224.256 181.937 224.682 181.912C225.524 181.797 226.387 181.817 227.23 181.956C228.926 182.208 230.505 183.025 231.788 184.156C233.078 185.292 233.989 186.853 234.432 188.531C234.546 188.949 234.596 189.383 234.666 189.811C234.685 190.229 234.721 190.706 234.71 191.078C234.692 191.82 234.668 192.562 234.614 193.306C234.424 196.28 233.867 199.278 232.79 202.156C232.252 203.592 231.572 204.993 230.72 206.298C230.288 206.946 229.831 207.579 229.328 208.178C228.877 208.727 228.197 209.484 227.385 209.966C225.783 210.971 223.755 211.214 221.971 210.618C221.079 210.324 220.256 209.821 219.587 209.175C218.957 208.548 218.48 207.944 218.032 207.256C216.291 204.532 215.558 201.363 215.837 198.223C215.918 197.435 216.072 196.645 216.369 195.857C216.675 195.088 217.107 194.233 218.061 193.672C218.543 193.393 219.161 193.329 219.671 193.429C220.185 193.538 220.597 193.773 220.936 194.031C221.623 194.549 222.076 195.184 222.498 195.812C222.669 196.066 222.601 196.41 222.348 196.581C222.121 196.733 221.821 196.696 221.638 196.505L221.619 196.484C221.148 195.993 220.64 195.536 220.132 195.251C219.881 195.106 219.626 195.029 219.431 195.022C219.236 195.032 219.103 195.067 218.973 195.18C218.706 195.406 218.446 195.917 218.298 196.489C218.147 197.068 218.092 197.711 218.092 198.355C218.087 200.945 218.926 203.612 220.388 205.654C220.737 206.16 221.184 206.667 221.587 207.036C221.964 207.372 222.408 207.612 222.883 207.755C223.833 208.056 224.923 207.899 225.743 207.353C226.165 207.084 226.457 206.755 226.911 206.195C227.322 205.686 227.695 205.146 228.05 204.594C228.74 203.474 229.321 202.279 229.793 201.028C230.748 198.524 231.203 195.808 231.457 193.063C231.521 192.376 231.557 191.684 231.588 190.991C231.604 190.644 231.575 190.405 231.58 190.105C231.531 189.826 231.513 189.54 231.442 189.266C231.173 188.17 230.603 187.131 229.767 186.331C228.93 185.544 227.879 184.933 226.731 184.727C226.162 184.612 225.574 184.574 224.991 184.634C224.696 184.631 224.412 184.734 224.119 184.772C223.815 184.837 223.468 184.941 223.145 185.034C220.514 185.808 217.923 186.882 215.149 187.744C214.852 187.838 214.536 187.674 214.442 187.377C214.371 187.153 214.45 186.915 214.619 186.773Z" fill="white"/>
<path d="M211.299 187.407C211.963 188.215 212.216 189.087 212.347 189.969C212.473 190.851 212.59 191.737 212.686 192.628C212.854 194.409 212.95 196.208 212.868 198.008C212.771 199.806 212.601 201.611 212.231 203.384C211.846 205.152 211.268 206.897 210.3 208.476C210.134 208.747 209.779 208.832 209.509 208.666C209.336 208.561 209.239 208.379 209.234 208.191L209.234 208.18C209.199 206.383 209.31 204.688 209.41 202.989C209.524 201.294 209.635 199.604 209.654 197.902C209.687 196.203 209.733 194.497 209.721 192.782C209.729 191.923 209.717 191.063 209.694 190.202C209.673 189.339 209.737 188.47 210.2 187.539L210.204 187.531C210.366 187.207 210.76 187.074 211.084 187.236C211.169 187.278 211.242 187.339 211.299 187.407Z" fill="white"/>
<path d="M185.526 88.7504C184.141 88.8952 182.766 89.0893 181.487 89.4824C180.222 89.8809 179.052 90.5589 178.51 91.5653C178.009 92.5876 178.071 93.8446 178.434 95.0649C178.778 96.294 179.35 97.4994 179.985 98.6705C180.232 99.1273 180.063 99.6982 179.606 99.9457C179.334 100.093 179.021 100.093 178.76 99.9713L178.734 99.9589L166.284 94.0694C164.208 93.1196 162.128 92.1374 160.016 91.3986C159.49 91.2125 158.952 91.076 158.451 90.9966C158.194 90.9463 157.964 90.9757 157.845 91.0066C157.802 91.0227 157.789 91.03 157.761 91.0711C157.756 91.1387 157.735 91.2226 157.774 91.3447C157.877 91.8091 158.175 92.3267 158.471 92.8022C158.781 93.2806 159.107 93.7577 159.452 94.2241C158.591 93.4392 157.695 92.7245 157.128 91.529C157.058 91.3787 157.027 91.1759 157.035 90.9538C157.046 90.8431 157.105 90.7117 157.158 90.5972C157.219 90.4878 157.324 90.4125 157.419 90.3291C157.807 90.0975 158.177 90.0695 158.49 90.0678C159.136 90.0606 159.733 90.1667 160.314 90.2902C161.482 90.5324 162.602 90.8733 163.705 91.2525C164.809 91.6282 165.902 92.0232 166.976 92.4606C169.133 93.3134 171.248 94.2505 173.342 95.225C175.441 96.1889 177.501 97.2272 179.563 98.2606L178.312 99.549C177.696 98.2527 177.125 96.9155 176.807 95.4517C176.516 94.0173 176.485 92.2974 177.396 90.8838C178.373 89.518 179.913 88.9416 181.31 88.7312C182.734 88.5062 184.146 88.5869 185.526 88.7504Z" fill="white" fill-opacity="0.3"/>
<path d="M171.461 103.371C169.795 103.44 168.162 103.229 166.561 102.913C164.959 102.594 163.381 102.165 161.847 101.609C160.311 101.064 158.815 100.4 157.378 99.6214C155.935 98.8577 154.557 97.9535 153.301 96.8667C154.933 97.2105 156.461 97.7039 157.991 98.1862C159.512 98.685 161.025 99.1842 162.521 99.7271C164.019 100.267 165.509 100.83 166.999 101.421C168.49 102.011 169.973 102.632 171.461 103.371Z" fill="white" fill-opacity="0.3"/>
<path d="M214.328 110.005C217.956 114.035 221.422 118.202 224.798 122.459C226.454 124.617 228.1 126.769 229.523 129.163C229.865 129.787 230.223 130.356 230.423 131.224C230.442 131.459 230.543 131.741 230.275 132.218C230.147 132.451 229.829 132.623 229.63 132.652C229.418 132.695 229.252 132.678 229.126 132.658C228.606 132.563 228.293 132.389 227.956 132.222C226.672 131.527 225.589 130.709 224.484 129.89C220.129 126.587 216.093 122.962 211.912 119.557C210.868 118.713 209.823 117.858 208.766 117.101C208.502 116.913 208.237 116.735 207.984 116.584C207.858 116.506 207.736 116.443 207.638 116.398C207.603 116.384 207.539 116.358 207.56 116.368C207.56 116.368 207.559 116.368 207.642 116.376C207.683 116.377 207.681 116.374 207.756 116.366C207.841 116.356 207.929 116.326 208.003 116.282C208.492 115.973 208.404 115.642 208.425 115.666C208.427 115.627 208.424 115.66 208.437 115.706C208.453 115.792 208.499 115.933 208.544 116.065C208.642 116.339 208.769 116.634 208.901 116.927C210.009 119.296 211.374 121.661 212.687 124.015C214.004 126.378 215.332 128.741 216.625 131.135C217.271 132.334 217.908 133.538 218.518 134.767C219.12 136.009 219.729 137.223 220.176 138.642C220.277 139.02 220.395 139.356 220.402 139.922C220.403 140.057 220.386 140.241 220.324 140.45C220.243 140.678 220.103 140.978 219.726 141.182C219.634 141.231 219.532 141.271 219.438 141.296C219.367 141.308 219.294 141.317 219.221 141.321C219.055 141.333 218.953 141.315 218.869 141.296C218.658 141.258 218.562 141.206 218.424 141.155C217.582 140.736 217.113 140.285 216.554 139.826C215.496 138.906 214.526 137.949 213.559 136.986C211.63 135.062 209.769 133.094 207.897 131.14C206.027 129.186 204.139 127.253 202.219 125.363C200.291 123.495 198.334 121.605 196.154 120.142C195.612 119.79 195.037 119.462 194.481 119.319C194.206 119.254 193.954 119.254 193.807 119.352C193.737 119.374 193.621 119.523 193.525 119.607C193.447 119.719 193.351 119.823 193.299 119.95C193.046 120.439 193.076 121.071 193.26 121.675C193.438 122.283 193.74 122.874 194.086 123.437C194.786 124.565 195.659 125.6 196.574 126.587C197.489 127.578 198.459 128.525 199.48 129.414C197.328 127.774 195.255 125.978 193.643 123.728C193.25 123.159 192.891 122.553 192.649 121.872C192.407 121.206 192.284 120.394 192.613 119.635C192.789 119.255 192.989 118.96 193.365 118.671C193.79 118.381 194.276 118.404 194.653 118.469C195.424 118.625 196.054 118.961 196.667 119.307C199.058 120.766 201.084 122.598 203.118 124.41C205.135 126.24 207.072 128.145 209.008 130.044L214.787 135.736C215.755 136.667 216.733 137.596 217.734 138.435C218.215 138.836 218.786 139.281 219.167 139.451C219.189 139.456 219.246 139.48 219.204 139.464C219.204 139.464 219.184 139.461 219.103 139.46C219.072 139.462 219.042 139.468 219.013 139.479C218.958 139.488 218.894 139.508 218.84 139.539C218.622 139.675 218.564 139.808 218.541 139.881C218.522 139.927 218.53 139.942 218.526 139.907C218.531 139.794 218.454 139.47 218.366 139.201C217.975 138.042 217.383 136.816 216.791 135.63C216.19 134.437 215.554 133.251 214.908 132.068L210.943 124.991C209.633 122.607 208.294 120.271 207.119 117.726C206.976 117.401 206.835 117.073 206.707 116.709C206.645 116.52 206.582 116.339 206.532 116.092C206.508 115.974 206.483 115.838 206.484 115.63C206.503 115.489 206.452 114.969 207.09 114.57C207.204 114.513 207.333 114.471 207.459 114.449C207.574 114.43 207.615 114.438 207.698 114.437C207.867 114.442 207.944 114.466 208.03 114.487C208.216 114.533 208.307 114.58 208.428 114.629C208.638 114.726 208.814 114.824 208.977 114.923C209.304 115.122 209.599 115.324 209.886 115.531C211.026 116.358 212.075 117.223 213.118 118.104C217.267 121.624 221.271 125.273 225.438 128.662C226.481 129.487 227.552 130.33 228.637 130.955C228.895 131.104 229.197 131.239 229.346 131.266C229.385 131.279 229.393 131.267 229.345 131.279C229.308 131.277 229.16 131.366 229.112 131.447C229.028 131.633 229.09 131.549 229.062 131.456C228.977 130.996 228.678 130.355 228.381 129.792C227.129 127.472 225.559 125.246 224.015 123.04C220.92 118.608 217.607 114.32 214.328 110.005Z" fill="white" fill-opacity="0.3"/>
<path d="M175.407 204.11C176.525 202.493 177.9 201.118 179.494 199.924C179.899 199.63 180.314 199.343 180.781 199.081C181.011 198.95 181.262 198.827 181.541 198.716C181.827 198.613 182.13 198.494 182.625 198.513C182.877 198.536 183.195 198.603 183.478 198.836C183.615 198.946 183.716 199.068 183.812 199.223C183.9 199.385 183.987 199.638 183.984 199.746C184.029 200.324 183.903 200.585 183.82 200.874C183.628 201.425 183.4 201.871 183.168 202.318C182.232 204.069 181.182 205.66 180.279 207.287C180.054 207.69 179.844 208.095 179.661 208.486C179.568 208.68 179.484 208.873 179.421 209.047C179.356 209.214 179.317 209.399 179.323 209.409C179.323 209.409 179.319 209.42 179.315 209.354C179.31 209.33 179.302 209.308 179.29 209.287C179.28 209.257 179.259 209.193 179.23 209.152C179.114 208.972 178.878 208.842 178.775 208.846C178.57 208.839 178.72 208.845 178.835 208.778C179.119 208.635 179.479 208.377 179.818 208.104C181.197 206.964 182.548 205.598 183.94 204.275C184.646 203.61 185.341 202.944 186.184 202.305C186.406 202.145 186.621 201.99 186.92 201.837C187.059 201.762 187.235 201.683 187.469 201.621C187.621 201.596 187.686 201.557 187.922 201.571C188.129 201.578 188.324 201.624 188.5 201.721C188.857 201.91 189.005 202.14 189.127 202.318C189.231 202.493 189.307 202.657 189.359 202.798C189.473 203.091 189.539 203.344 189.603 203.593C190.04 205.527 190.332 207.286 191.193 208.823C191.616 209.583 192.188 210.226 192.869 210.761C193.563 211.281 194.391 211.638 195.276 211.879L195.281 211.88C195.479 211.934 195.595 212.138 195.541 212.335C195.494 212.509 195.331 212.619 195.158 212.607C194.161 212.538 193.154 212.25 192.233 211.748C191.309 211.242 190.543 210.47 189.943 209.618C188.727 207.908 188.254 205.839 187.77 204.09C187.709 203.88 187.643 203.673 187.576 203.524C187.538 203.369 187.369 203.274 187.619 203.463C187.692 203.494 187.769 203.522 187.856 203.529C187.971 203.516 187.922 203.535 187.957 203.525C187.963 203.529 187.915 203.54 187.847 203.585C187.723 203.652 187.552 203.782 187.39 203.904C186.721 204.43 186.04 205.095 185.371 205.752C184.015 207.076 182.729 208.484 181.156 209.769C180.749 210.089 180.34 210.407 179.773 210.697C179.457 210.821 179.146 211.023 178.462 210.96C178.267 210.913 178.116 210.901 177.907 210.764C177.706 210.641 177.535 210.49 177.423 210.293C177.287 210.082 177.244 209.915 177.216 209.76C177.177 209.578 177.183 209.465 177.186 209.35C177.21 208.882 177.314 208.604 177.41 208.324C177.509 208.049 177.617 207.804 177.73 207.568C177.959 207.098 178.207 206.664 178.458 206.241C179.459 204.558 180.558 202.987 181.467 201.394C181.687 201.002 181.899 200.597 182.03 200.249C182.103 200.092 182.123 199.881 182.124 199.982C182.131 199.966 182.141 200.116 182.196 200.164C182.229 200.223 182.257 200.243 182.3 200.282C182.401 200.354 182.474 200.369 182.492 200.363C182.508 200.353 182.34 200.371 182.181 200.434C182.016 200.496 181.833 200.575 181.647 200.675C181.274 200.868 180.894 201.113 180.52 201.369C179.016 202.408 177.54 203.59 175.925 204.635L175.92 204.639C175.746 204.751 175.513 204.701 175.4 204.527C175.315 204.396 175.323 204.231 175.407 204.11Z" fill="white" fill-opacity="0.3"/>
</svg>
