<svg width="44" height="44" viewBox="0 0 44 44" fill="none" xmlns="http://www.w3.org/2000/svg">
<path d="M12.8646 13.8354H4.76462C4.64142 13.8354 4.5277 13.7695 4.46644 13.6627C4.40518 13.5558 4.40576 13.4243 4.46795 13.318L8.49015 6.44693C8.55183 6.3416 8.66471 6.27686 8.78681 6.27686H14.8757C14.984 6.27686 15.0858 6.32784 15.1508 6.41449C15.2157 6.50114 15.236 6.61326 15.2056 6.71716L13.1945 13.5882C13.1516 13.7347 13.0172 13.8354 12.8646 13.8354ZM5.36417 13.1479H12.607L14.4169 6.96436H8.98387L5.36417 13.1479Z" fill="white"/>
<path d="M20.9652 13.8354H12.8652C12.757 13.8354 12.655 13.7844 12.5901 13.6978C12.5252 13.6111 12.5049 13.499 12.5353 13.3951L14.5464 6.52405C14.5893 6.37752 14.7237 6.27686 14.8764 6.27686H20.9652C21.155 6.27686 21.3089 6.43077 21.3089 6.62061V13.4917C21.3089 13.6815 21.155 13.8354 20.9652 13.8354ZM13.324 13.1479H20.6214V6.96436H15.1339L13.324 13.1479Z" fill="white"/>
<path d="M8.81462 21.107C6.39192 21.107 4.4209 19.136 4.4209 16.7133V13.4917C4.4209 13.3019 4.57481 13.1479 4.76465 13.1479H12.8646C13.0544 13.1479 13.2083 13.3019 13.2083 13.4917V16.7133C13.2083 19.136 11.2373 21.107 8.81462 21.107ZM5.1084 13.8354V16.7133C5.1084 18.7569 6.771 20.4195 8.81462 20.4195C10.8582 20.4195 12.5208 18.7569 12.5208 16.7133V13.8354H5.1084Z" fill="white"/>
<path d="M16.9152 21.107C14.4925 21.107 12.5215 19.136 12.5215 16.7133V13.4917C12.5215 13.3019 12.6754 13.1479 12.8652 13.1479H20.9652C21.155 13.1479 21.3089 13.3019 21.3089 13.4917V16.7133C21.3089 19.136 19.3379 21.107 16.9152 21.107ZM13.209 13.8354V16.7133C13.209 18.7569 14.8716 20.4195 16.9152 20.4195C18.9588 20.4195 20.6214 18.7569 20.6214 16.7133V13.8354H13.209Z" fill="white"/>
<path d="M17.0932 37.3798H9.31738V25.4591C9.31738 24.9065 9.76537 24.4585 10.318 24.4585H16.0925C16.6452 24.4585 17.0932 24.9065 17.0932 25.4591V37.3798Z" fill="white"/>
<path d="M10.2256 31.9634C10.5301 31.5672 10.8766 31.2292 11.2336 30.9058C11.5926 30.5852 11.9673 30.2865 12.3555 30.0065C12.7437 29.7264 13.1459 29.4659 13.5637 29.2271C13.9835 28.9909 14.4142 28.7699 14.887 28.6074C14.583 29.0043 14.2367 29.3426 13.8796 29.6658C13.5206 29.9863 13.1459 30.2851 12.7571 30.5643C12.3684 30.8437 11.9662 31.1043 11.5483 31.343C11.1284 31.579 10.6979 31.8003 10.2256 31.9634Z" fill="white"/>
<path d="M11.9854 33.2307C12.1948 32.903 12.4462 32.6334 12.708 32.3785C12.9719 32.1264 13.2516 31.8961 13.5447 31.6846C13.8377 31.473 14.1449 31.2809 14.4677 31.1105C14.7924 30.9429 15.1279 30.7903 15.5057 30.6963C15.2967 31.0247 15.0455 31.2945 14.7835 31.5492C14.5196 31.8013 14.24 32.0316 13.9463 32.2424C13.6527 32.4533 13.3456 32.6454 13.0228 32.8157C12.698 32.9832 12.3626 33.1361 11.9854 33.2307Z" fill="white"/>
<path opacity="0.4" d="M32.1074 23.3393C37.3687 23.3393 41.6337 19.0742 41.6337 13.813C41.6337 8.55171 37.3687 4.28662 32.1074 4.28662C26.8461 4.28662 22.5811 8.55171 22.5811 13.813C22.5811 19.0742 26.8461 23.3393 32.1074 23.3393Z" fill="#46A83E"/>
<path d="M29.0619 13.8354H20.9619C20.7721 13.8354 20.6182 13.6815 20.6182 13.4917V6.62061C20.6182 6.43077 20.7721 6.27686 20.9619 6.27686H27.0508C27.2035 6.27686 27.3378 6.37752 27.3807 6.52405L29.3918 13.3951C29.4222 13.499 29.4019 13.6111 29.337 13.6978C29.2722 13.7844 29.1702 13.8354 29.0619 13.8354ZM21.3057 13.1479H28.6031L26.7932 6.96436H21.3057V13.1479Z" fill="white"/>
<path d="M37.1638 13.8354H29.0639C28.9112 13.8354 28.7768 13.7347 28.7339 13.5882L26.7228 6.71716C26.6924 6.61326 26.7127 6.50114 26.7776 6.41449C26.8426 6.32784 26.9445 6.27686 27.0527 6.27686H33.1416C33.2637 6.27686 33.3766 6.3416 33.4383 6.44697L37.4605 13.318C37.5226 13.4243 37.5232 13.5558 37.462 13.6627C37.4007 13.7695 37.287 13.8354 37.1638 13.8354ZM29.3214 13.1479H36.5642L32.9445 6.96436H27.5115L29.3214 13.1479Z" fill="white"/>
<path d="M25.0119 21.107C22.5892 21.107 20.6182 19.136 20.6182 16.7133V13.4917C20.6182 13.3019 20.7721 13.1479 20.9619 13.1479H29.0619C29.2518 13.1479 29.4057 13.3019 29.4057 13.4917V16.7133C29.4057 19.136 27.4347 21.107 25.0119 21.107ZM21.3057 13.8354V16.7133C21.3057 18.7569 22.9683 20.4195 25.0119 20.4195C27.0556 20.4195 28.7182 18.7569 28.7182 16.7133V13.8354H21.3057Z" fill="white"/>
<path d="M33.1105 21.107C30.6878 21.107 28.7168 19.136 28.7168 16.7133V13.4917C28.7168 13.3019 28.8707 13.1479 29.0605 13.1479H37.1605C37.3503 13.1479 37.5042 13.3019 37.5042 13.4917V16.7133C37.5042 19.136 35.5332 21.107 33.1105 21.107ZM29.4043 13.8354V16.7133C29.4043 18.7569 31.0669 20.4195 33.1105 20.4195C35.1541 20.4195 36.8167 18.7569 36.8167 16.7133V13.8354H29.4043Z" fill="white"/>
<path d="M35.6513 37.7232H6.26953C6.0797 37.7232 5.92578 37.5693 5.92578 37.3795V19.9648C5.92578 19.775 6.0797 19.6211 6.26953 19.6211C6.45937 19.6211 6.61328 19.775 6.61328 19.9648V37.0357H35.3075V19.9648C35.3075 19.775 35.4614 19.6211 35.6513 19.6211C35.8411 19.6211 35.995 19.775 35.995 19.9648V37.3795C35.995 37.5693 35.8411 37.7232 35.6513 37.7232Z" fill="white"/>
<path d="M31.61 32.9759H20.7799C20.2273 32.9759 19.7793 32.5279 19.7793 31.9753V25.4591C19.7793 24.9065 20.2273 24.4585 20.7799 24.4585H31.61C32.1626 24.4585 32.6106 24.9065 32.6106 25.4591V31.9753C32.6106 32.5279 32.1626 32.9759 31.61 32.9759Z" fill="white"/>
<path d="M21.3125 31.4821C21.8798 30.8982 22.4872 30.3699 23.1067 29.8584C23.7278 29.3492 24.3647 28.8618 25.015 28.3931C25.6652 27.9243 26.3295 27.475 27.0095 27.0475C27.6909 26.6221 28.3848 26.2139 29.119 25.8618C28.5522 26.4464 27.9449 26.9749 27.3253 27.4862C26.7042 27.9955 26.0674 28.4829 25.4165 28.9509C24.7658 29.4189 24.1015 29.8682 23.4215 30.2956C22.7399 30.7209 22.0462 31.1293 21.3125 31.4821Z" fill="white"/>
<path d="M25.8291 31.2906C26.1337 30.8944 26.4801 30.5564 26.8371 30.233C27.1961 29.9124 27.5708 29.6137 27.959 29.3337C28.3472 29.0536 28.7494 28.793 29.1673 28.5542C29.5871 28.3181 30.0177 28.097 30.4905 27.9346C30.1865 28.3314 29.8402 28.6697 29.4831 28.9929C29.1241 29.3135 28.7494 29.6122 28.3606 29.8915C27.9719 30.1708 27.5698 30.4314 27.1518 30.6702C26.7319 30.9061 26.3015 31.1274 25.8291 31.2906Z" fill="white"/>
</svg>
