<svg width="43" height="43" viewBox="0 0 43 43" fill="none" xmlns="http://www.w3.org/2000/svg">
<path d="M9.80469 27.54L11.9931 27.7597V28.9157L10.3681 29.0192" fill="white"/>
<path d="M17.7246 19.2906C17.6846 19.2219 17.6891 19.169 17.7046 19.1217C17.7205 19.0745 17.7376 19.0274 17.757 18.9811C17.7958 18.8885 17.8444 18.7995 17.9042 18.7181C17.9645 18.6372 18.0313 18.5605 18.1085 18.4948C18.187 18.4307 18.2773 18.3784 18.3877 18.3586C18.4268 18.3515 18.4642 18.3776 18.4712 18.4167C18.4733 18.4283 18.4725 18.4397 18.4693 18.4503L18.4686 18.4524C18.437 18.5552 18.3928 18.6341 18.3455 18.7092L18.1987 18.9254C18.1504 18.9974 18.1002 19.0682 18.0493 19.1404L17.9738 19.2503C17.9618 19.2692 17.9476 19.287 17.9254 19.3016C17.9057 19.3173 17.8767 19.3293 17.8389 19.3383L17.8372 19.3388C17.7921 19.3496 17.7468 19.3287 17.7246 19.2906Z" fill="white"/>
<path d="M17.4499 21.7243C17.3816 21.6495 17.3594 21.5707 17.3498 21.4914C17.3407 21.4119 17.3323 21.3323 17.3251 21.2524C17.3114 21.0925 17.3074 20.9314 17.3161 20.7702C17.3256 20.6092 17.3423 20.4477 17.3751 20.2884C17.41 20.1297 17.4625 19.9725 17.5541 19.8296C17.5737 19.799 17.6144 19.7901 17.645 19.8097C17.6619 19.8206 17.6722 19.8379 17.6747 19.8565L17.6748 19.8576C17.6957 20.021 17.6957 20.1742 17.6923 20.3274L17.6759 20.7853C17.6714 20.9382 17.6652 21.0916 17.6575 21.246C17.6532 21.3232 17.6502 21.4006 17.6477 21.4782C17.6451 21.5559 17.632 21.634 17.5735 21.7161L17.5731 21.7167C17.5477 21.7524 17.4982 21.7608 17.4624 21.7354C17.4579 21.7321 17.4535 21.7282 17.4499 21.7243Z" fill="white"/>
<path d="M16.9334 20.7223C17.0961 20.6183 17.2772 20.5639 17.4604 20.5339C17.6439 20.5045 17.8288 20.4826 18.0141 20.4719C18.3849 20.4508 18.7567 20.4671 19.1223 20.5166C19.214 20.5275 19.3052 20.5404 19.3956 20.5582C19.4863 20.5739 19.5767 20.5908 19.6664 20.6107C19.8466 20.6467 20.0247 20.691 20.2007 20.7417C20.5523 20.844 20.8957 20.9719 21.2213 21.1407C21.2521 21.1566 21.2641 21.1945 21.2482 21.2252C21.2354 21.2499 21.2081 21.2625 21.1821 21.2582C20.8229 21.1991 20.4737 21.1216 20.1244 21.0514C20.0376 21.0316 19.95 21.0162 19.8628 20.9993C19.776 20.9805 19.6886 20.9651 19.6013 20.9501C19.5142 20.9338 19.4267 20.9204 19.3391 20.9084C19.2516 20.8952 19.1642 20.8829 19.0767 20.8723C18.7265 20.8298 18.3756 20.8022 18.0249 20.8041C17.8495 20.8031 17.6744 20.8127 17.5 20.8294C17.4127 20.8374 17.3259 20.8479 17.2367 20.849C17.1481 20.8528 17.0588 20.8558 16.9638 20.8425L16.9595 20.8419C16.9238 20.8369 16.899 20.8039 16.904 20.7682C16.9067 20.7487 16.918 20.7322 16.9334 20.7223Z" fill="white"/>
<path d="M18.1266 22.1088C18.1999 22.0982 18.2673 22.1012 18.3326 22.1092C18.3986 22.115 18.4621 22.1265 18.5246 22.1418C18.6504 22.1692 18.7766 22.1923 18.9032 22.2089C19.1561 22.2449 19.4097 22.2577 19.6622 22.2538C19.7884 22.2504 19.9146 22.2446 20.0404 22.231C20.166 22.2159 20.2909 22.1956 20.4161 22.1728C20.6665 22.1265 20.9147 22.0623 21.1749 22.0004C21.2089 21.9921 21.2432 22.0129 21.2515 22.0469C21.2576 22.0718 21.2477 22.0971 21.2287 22.112C21.0109 22.2809 20.758 22.4011 20.493 22.4824C20.4261 22.5 20.3594 22.5197 20.2917 22.5354C20.2235 22.548 20.1555 22.5629 20.0868 22.5734C19.9493 22.5938 19.8107 22.6102 19.6716 22.6138C19.3932 22.6235 19.1151 22.5927 18.8453 22.5362C18.7105 22.5066 18.5778 22.4702 18.4469 22.4297C18.3165 22.3882 18.1907 22.3291 18.0849 22.2255C18.058 22.1991 18.0576 22.156 18.0839 22.1291C18.0948 22.1179 18.1086 22.1113 18.1229 22.1093L18.1266 22.1088Z" fill="white"/>
<path d="M18.2969 20.6357C18.2977 21.2752 18.7163 21.7933 19.2326 21.7933C19.6776 21.7933 20.0493 21.4081 20.1442 20.8923C19.5048 20.7357 18.887 20.6441 18.2969 20.6357Z" fill="white"/>
<path d="M12.202 17.5895C12.3372 17.5252 12.4768 17.51 12.6144 17.5124C12.7522 17.5153 12.8899 17.5219 13.0271 17.5334C13.3011 17.5587 13.5732 17.6005 13.8396 17.6633C13.9733 17.6932 14.1047 17.7309 14.2357 17.7688C14.367 17.806 14.4967 17.8477 14.6248 17.8939C14.8804 17.9875 15.1298 18.0978 15.3639 18.2432C15.3936 18.2617 15.4028 18.3007 15.3843 18.3304C15.3707 18.3523 15.3457 18.363 15.3218 18.3597C15.0505 18.3227 14.7906 18.2615 14.5321 18.1991L14.1464 18.1026C14.018 18.0708 13.8887 18.0434 13.7602 18.0146C13.5026 17.9589 13.2456 17.9041 12.9864 17.8634C12.8571 17.8413 12.7271 17.824 12.5968 17.8101C12.5316 17.8026 12.4666 17.7964 12.4013 17.7794C12.3361 17.7648 12.2706 17.7471 12.2038 17.7134L12.2005 17.7118C12.167 17.6948 12.1535 17.6539 12.1704 17.6203C12.1775 17.6063 12.1888 17.5957 12.202 17.5895Z" fill="white"/>
<path d="M12.889 18.3473C12.9779 18.3457 13.0637 18.3576 13.1474 18.3764C13.2294 18.3991 13.3111 18.4249 13.3888 18.4594C13.4656 18.4958 13.544 18.5295 13.6198 18.5686C13.6945 18.6094 13.7717 18.6465 13.8447 18.6909C14.139 18.8643 14.4126 19.0747 14.6538 19.3163C14.7142 19.3765 14.7754 19.4361 14.8297 19.5018C14.8858 19.566 14.9425 19.6295 14.994 19.6971C15.1014 19.8288 15.2 19.9672 15.2898 20.1104C15.4689 20.3973 15.6149 20.7034 15.7092 21.0265C15.719 21.0598 15.6998 21.0947 15.6665 21.1044C15.6404 21.1121 15.6133 21.102 15.5982 21.0812L15.5978 21.0807C15.4029 20.8129 15.2214 20.5463 15.0272 20.2914C14.9812 20.2258 14.9293 20.1649 14.8799 20.1023C14.8323 20.0382 14.7797 19.9785 14.7281 19.9179C14.6252 19.7966 14.5141 19.6832 14.4019 19.5717C14.1751 19.3512 13.9317 19.1485 13.6684 18.9727C13.6038 18.9268 13.5347 18.8879 13.468 18.8449C13.4002 18.8037 13.3295 18.7676 13.2602 18.7285C13.1893 18.6928 13.119 18.6552 13.0509 18.6108C12.9815 18.5696 12.913 18.5246 12.8482 18.4643L12.8453 18.4616C12.8186 18.4368 12.8171 18.3951 12.8419 18.3684C12.8545 18.3548 12.8718 18.3477 12.889 18.3473Z" fill="white"/>
<path d="M12.896 21.3841C12.8227 21.269 12.795 21.1498 12.7796 21.0292C12.7645 20.9086 12.7497 20.7877 12.7369 20.666C12.7118 20.4228 12.6961 20.1767 12.7044 19.927C12.7079 19.8021 12.7196 19.6768 12.7357 19.5508C12.7432 19.4879 12.7563 19.4245 12.7665 19.3616C12.7797 19.2986 12.7988 19.2357 12.8148 19.1732C12.8366 19.1108 12.8596 19.0494 12.887 18.9889C12.9185 18.9292 12.946 18.8696 12.9878 18.8149L13.0485 18.7341C13.0721 18.7092 13.0965 18.6852 13.1211 18.6621L13.1575 18.6276L13.1999 18.5989C13.2279 18.5799 13.2568 18.5628 13.2848 18.546C13.3143 18.5283 13.3525 18.5379 13.3702 18.5674C13.3832 18.5891 13.3815 18.6155 13.368 18.635L13.363 18.6421C13.2311 18.8314 13.166 19.0326 13.1238 19.2522C13.105 19.3626 13.0893 19.4742 13.0792 19.5885C13.0696 19.703 13.0678 19.819 13.0644 19.9357C13.0603 20.1694 13.0652 20.4068 13.0688 20.646C13.07 20.7656 13.0733 20.8857 13.0769 21.0061C13.0802 21.1264 13.0727 21.2481 13.0195 21.3738C13.0044 21.4094 12.9634 21.4261 12.9278 21.411C12.9142 21.4053 12.9034 21.3957 12.896 21.3841Z" fill="white"/>
<path d="M12.4324 20.6315C12.5752 20.5307 12.7344 20.4779 12.8962 20.4437C13.0584 20.4108 13.2218 20.3829 13.3863 20.3619C13.7154 20.322 14.0482 20.3101 14.3787 20.3293C14.5441 20.3361 14.7086 20.3554 14.8722 20.3768C15.036 20.3977 15.1985 20.4259 15.3594 20.4611C15.6807 20.533 15.9955 20.6324 16.2926 20.7762C16.3239 20.7913 16.337 20.8289 16.3218 20.8602C16.31 20.8846 16.2842 20.8978 16.2587 20.8953C15.9342 20.863 15.6192 20.815 15.3042 20.7753C15.1469 20.7549 14.9899 20.7356 14.8327 20.7201C14.6755 20.7043 14.5179 20.6964 14.3607 20.6875C14.0461 20.6741 13.7313 20.6729 13.4172 20.6929C13.26 20.7017 13.1032 20.7173 12.9468 20.7376C12.8689 20.749 12.7904 20.7579 12.7101 20.7603C12.6302 20.7647 12.5492 20.7655 12.4631 20.7515L12.4599 20.751C12.4238 20.7451 12.3993 20.7111 12.4052 20.675C12.4081 20.6568 12.4184 20.6414 12.4324 20.6315Z" fill="white"/>
<path d="M13.457 20.5225C13.4933 21.1016 13.7691 21.5521 14.1043 21.5521C14.414 21.5521 14.6728 21.0513 14.739 20.5357C14.3016 20.4918 13.8742 20.4872 13.457 20.5225Z" fill="white"/>
<path d="M13.5785 21.9949C13.6302 21.969 13.6784 21.9574 13.7256 21.9512C13.7729 21.9424 13.8188 21.9419 13.8643 21.9441L14.0009 21.9453L14.1368 21.9408C14.3174 21.9319 14.4955 21.9128 14.672 21.8843C14.7599 21.8685 14.8482 21.8541 14.9355 21.8334C15.0224 21.8118 15.109 21.7882 15.1959 21.7636C15.3703 21.7149 15.544 21.6592 15.7338 21.6142L15.7346 21.6141C15.7693 21.6058 15.8041 21.6273 15.8123 21.662C15.8174 21.6837 15.8107 21.7058 15.7966 21.721C15.6589 21.8684 15.4891 21.9784 15.3075 22.0625C15.2619 22.0828 15.2152 22.1011 15.1687 22.1199C15.1215 22.1369 15.0734 22.1513 15.0257 22.167C14.9295 22.1954 14.8322 22.2216 14.7331 22.2392C14.5352 22.2753 14.333 22.2858 14.1338 22.2732L13.9849 22.2601L13.8373 22.2411C13.7396 22.2256 13.643 22.1951 13.5581 22.1171C13.528 22.0895 13.5261 22.0428 13.5536 22.0127C13.5598 22.006 13.567 22.0007 13.5747 21.9968L13.5785 21.9949Z" fill="white"/>
<path d="M13.3742 24.1024C13.2959 24.0654 13.2169 23.9983 13.164 23.9163C13.1097 23.8338 13.0789 23.7346 13.0748 23.6326C13.0704 23.5308 13.0925 23.4254 13.1419 23.3323C13.1676 23.2865 13.1976 23.2426 13.2339 23.2045C13.2729 23.1619 13.299 23.1415 13.3317 23.1113C13.5826 22.8885 13.8608 22.6899 14.1666 22.537C14.3192 22.4601 14.4789 22.3962 14.6429 22.3453C14.7248 22.3197 14.8078 22.297 14.8918 22.2788L14.9552 22.2647C14.9803 22.2602 15.0054 22.2557 15.0307 22.2533C15.0814 22.2478 15.1326 22.2463 15.1836 22.2502C15.2856 22.257 15.3865 22.2827 15.4801 22.325C15.5267 22.3466 15.5715 22.3723 15.6136 22.402C15.6543 22.4305 15.6983 22.4696 15.7244 22.4939L16.0847 22.8223L15.9099 22.7839C16.2259 22.6826 16.5438 22.5869 16.8611 22.4893C17.0435 22.4285 17.2591 22.4218 17.449 22.4786C17.5453 22.5055 17.636 22.5499 17.7188 22.6047C17.74 22.6178 17.7592 22.6337 17.7793 22.6482L17.8309 22.6899C17.8647 22.7177 17.8976 22.7465 17.9301 22.7756C18.0603 22.8918 18.1769 23.0204 18.2865 23.1526L18.3274 23.2031C18.3433 23.2239 18.3591 23.2447 18.3725 23.2671C18.3998 23.3116 18.4224 23.3587 18.4392 23.4076C18.4721 23.5057 18.4841 23.61 18.4716 23.7113C18.4629 23.8113 18.4152 23.9149 18.3819 23.9817C18.347 24.0571 18.3109 24.132 18.274 24.2066C18.2004 24.3558 18.1292 24.506 18.0518 24.6537C18.0358 24.6841 17.9982 24.6959 17.9678 24.6799C17.9409 24.6659 17.9286 24.6349 17.9371 24.6069C17.9849 24.4472 18.039 24.29 18.0907 24.1319C18.1164 24.0527 18.143 23.974 18.1706 23.8956C18.2019 23.8102 18.2179 23.7575 18.2187 23.6904C18.2212 23.6261 18.2074 23.5624 18.1827 23.505C18.1699 23.4764 18.1537 23.4496 18.1354 23.4248C18.1263 23.4123 18.1163 23.4006 18.1062 23.389L18.066 23.3451C17.9574 23.2272 17.8407 23.1186 17.7204 23.0169C17.6901 22.9918 17.6596 22.967 17.6284 22.9432L17.5819 22.9084C17.5679 22.8993 17.5549 22.8888 17.5402 22.8808C17.4835 22.846 17.422 22.8196 17.358 22.803C17.2286 22.7688 17.0973 22.7731 16.9656 22.8193C16.65 22.9221 16.3349 23.0268 16.0181 23.1259L16.0176 23.1261C15.9546 23.1457 15.8888 23.1288 15.8432 23.0875L15.4827 22.7594C15.4492 22.7285 15.432 22.7139 15.4065 22.6953C15.3821 22.6781 15.356 22.6636 15.3292 22.6505C15.2753 22.6249 15.2166 22.6084 15.1565 22.6032C15.1265 22.6001 15.0961 22.6005 15.066 22.6031C15.0509 22.604 15.0359 22.6066 15.0209 22.6088L14.9651 22.6201C14.89 22.6348 14.8156 22.6536 14.7421 22.675C14.5948 22.7175 14.4509 22.7722 14.3105 22.8359C14.0298 22.9641 13.7676 23.137 13.5257 23.3373C13.4584 23.3933 13.4189 23.4232 13.3877 23.4732C13.3548 23.5206 13.3357 23.5777 13.3273 23.6379C13.3112 23.7608 13.3493 23.8894 13.4499 24.0043C13.4728 24.0305 13.4702 24.0704 13.444 24.0934C13.4245 24.1104 13.3975 24.1134 13.3755 24.103L13.3742 24.1024Z" fill="white"/>
<path d="M15.9053 24.1177C16.4584 23.4141 17.2437 23.3099 17.521 23.8464C17.2094 24.0935 16.9046 24.0556 16.6046 23.8223C16.4465 23.7812 16.1871 23.9286 15.9053 24.1177Z" fill="white"/>
<path d="M15.0673 23.8466C14.6851 23.0513 14.2636 23.0062 13.8193 23.3944C13.9309 23.6958 14.1781 23.7509 14.579 23.5274L14.7899 23.7877C14.848 23.8594 14.9444 23.8876 15.0319 23.8584L15.0673 23.8466Z" fill="white"/>
<path d="M15.1291 24.4131C15.1837 24.5196 15.1916 24.6247 15.1849 24.7278C15.1776 24.831 15.1688 24.9344 15.1563 25.0376C15.1313 25.244 15.09 25.4494 15.0293 25.6499C15.0004 25.7505 14.9631 25.8487 14.9245 25.9462C14.8869 26.0441 14.8435 26.1399 14.7944 26.2328C14.6952 26.4178 14.5731 26.5924 14.4137 26.7342C14.3871 26.7578 14.3465 26.7554 14.3229 26.7288C14.3075 26.7116 14.3032 26.6884 14.3093 26.6678L14.3096 26.667C14.3687 26.469 14.4379 26.2867 14.5031 26.1028C14.5199 26.0571 14.5369 26.0117 14.552 25.9654C14.5687 25.9198 14.5854 25.8742 14.5999 25.8278C14.631 25.7358 14.6568 25.642 14.6837 25.5486C14.7366 25.3614 14.7847 25.1724 14.8288 24.9809C14.8515 24.8852 14.8709 24.7886 14.8889 24.6914C14.8971 24.6427 14.9089 24.5944 14.9276 24.5465C14.9451 24.4985 14.968 24.4507 15.0055 24.4035L15.0075 24.401C15.0325 24.3696 15.0782 24.3643 15.1096 24.3893C15.1179 24.3959 15.1245 24.4043 15.1291 24.4131Z" fill="white"/>
<path d="M13.9299 26.9627C13.8315 27.0069 13.7515 27.0651 13.6743 27.1328C13.6537 27.1511 13.6427 27.1651 13.6266 27.1806C13.6144 27.198 13.6008 27.2137 13.5908 27.2316C13.5672 27.2651 13.5537 27.3038 13.5436 27.3424C13.5236 27.4198 13.5332 27.5055 13.5695 27.5745C13.5862 27.6099 13.6106 27.6407 13.6394 27.6666C13.653 27.6804 13.6693 27.6914 13.6857 27.7023C13.7017 27.7138 13.7278 27.7279 13.7489 27.7397C13.8388 27.7877 13.9345 27.8262 14.0348 27.8545C14.0849 27.8686 14.1361 27.8803 14.1881 27.8898L14.2273 27.8965C14.2449 27.9 14.2688 27.9045 14.2889 27.9103C14.3305 27.9228 14.3715 27.9388 14.4092 27.9615C14.4855 28.0048 14.5495 28.0693 14.5952 28.1451C14.6398 28.2215 14.6647 28.3106 14.6656 28.3998C14.6689 28.5778 14.572 28.7531 14.4199 28.8454C14.3828 28.8686 14.3403 28.8875 14.3005 28.8999L14.2175 28.926L14.051 28.9765L13.8902 29.0252C13.8539 29.0368 13.8201 29.0552 13.79 29.0787C13.6667 29.1711 13.6232 29.3558 13.6932 29.4996C13.7117 29.5356 13.7307 29.5668 13.763 29.5986C13.7972 29.6331 13.8328 29.6662 13.8727 29.6923C13.9507 29.7476 14.0397 29.787 14.1378 29.8063C14.3343 29.8503 14.5576 29.8172 14.7771 29.7622L14.7781 29.7619C14.8115 29.7535 14.8454 29.7738 14.8538 29.8073C14.8608 29.8355 14.8474 29.864 14.823 29.8773C14.6138 29.9911 14.371 30.0752 14.1043 30.057C13.9727 30.0464 13.8371 30.0096 13.7191 29.9402C13.6589 29.9074 13.6048 29.866 13.5536 29.8223C13.4989 29.7771 13.447 29.7145 13.4109 29.6482C13.3371 29.5143 13.3106 29.3543 13.3394 29.2026C13.3684 29.0508 13.4518 28.9094 13.5721 28.8105C13.6319 28.7609 13.7004 28.7212 13.7739 28.695L13.9445 28.6382L14.1098 28.5841L14.1928 28.5579C14.2083 28.5529 14.219 28.5479 14.2311 28.5405C14.2779 28.5118 14.3077 28.4581 14.3066 28.4031C14.3058 28.3502 14.2764 28.2969 14.2282 28.2664C14.2166 28.2583 14.2031 28.2532 14.1896 28.2482L14.1666 28.2421L14.1202 28.2328C14.0585 28.2198 13.9969 28.2039 13.936 28.1848C13.8142 28.1465 13.6941 28.0958 13.5831 28.0278C13.5544 28.0099 13.5299 27.9954 13.4993 27.9724C13.4683 27.9496 13.4385 27.9256 13.412 27.8972C13.3579 27.8424 13.3131 27.7774 13.2832 27.7066C13.2203 27.5663 13.2118 27.4048 13.257 27.2602C13.2988 27.1152 13.4082 26.9875 13.5318 26.9231C13.6456 26.8608 13.7833 26.8197 13.9166 26.8395C13.9516 26.8447 13.9757 26.8772 13.9705 26.9121C13.9673 26.9343 13.9529 26.9522 13.9339 26.9609L13.9299 26.9627Z" fill="white"/>
<path d="M8.86104 29.1874C8.83964 29.1874 8.81798 29.1833 8.79732 29.1748C8.45383 29.0337 8.22796 28.6871 8.22181 28.2917C8.21517 27.8614 8.46408 27.4913 8.88762 27.3017C8.95151 27.2733 9.02631 27.2872 9.07551 27.3367C9.62355 27.8889 9.59369 28.4767 8.98423 29.1337C8.95183 29.1686 8.90689 29.1874 8.86104 29.1874ZM8.91952 27.6629C8.58973 27.86 8.55578 28.1589 8.55775 28.2865C8.56111 28.5045 8.66232 28.6986 8.82332 28.809C9.19665 28.368 9.22585 28.0237 8.91952 27.6629Z" fill="white"/>
<path d="M13.771 28.1062C13.7654 28.1062 13.7598 28.106 13.754 28.1054L8.93927 27.6221C8.84701 27.6128 8.77967 27.5305 8.78894 27.4382C8.79821 27.3459 8.87899 27.2796 8.9729 27.2878L13.7877 27.7711C13.8799 27.7804 13.9473 27.8627 13.938 27.955C13.9293 28.0417 13.8562 28.1062 13.771 28.1062Z" fill="white"/>
<path d="M8.86126 29.1873C8.77104 29.1873 8.69649 29.1157 8.69345 29.0248C8.69042 28.9321 8.76308 28.8545 8.85576 28.8514L13.8427 28.6866C13.9337 28.6849 14.013 28.7562 14.0161 28.8489C14.0192 28.9416 13.9465 29.0192 13.8538 29.0223L8.86691 29.1872C8.86503 29.1872 8.86314 29.1873 8.86126 29.1873Z" fill="white"/>
<path d="M11.4728 24.1411C11.4216 24.1411 11.371 24.1178 11.3381 24.0736C10.1775 22.5184 9.82347 20.2747 10.5954 19.3663C10.8043 19.1205 11.2813 18.7742 12.1303 19.2151C12.2126 19.2579 12.2447 19.3593 12.2019 19.4416C12.1591 19.5239 12.0577 19.5558 11.9754 19.5132C11.4857 19.2587 11.1073 19.2825 10.8515 19.5838C10.2495 20.2921 10.4485 22.3199 11.6072 23.8727C11.6628 23.947 11.6474 24.0523 11.5731 24.1078C11.5429 24.1303 11.5078 24.1411 11.4728 24.1411Z" fill="white"/>
<path d="M11.1411 21.579C11.068 21.4814 11.0407 21.3773 11.0288 21.2717C11.0173 21.166 11.007 21.0597 11.0024 20.9512C10.9981 20.8428 10.9988 20.7327 11.011 20.6196C11.0233 20.5067 11.045 20.3898 11.0979 20.2689C11.1269 20.2083 11.1614 20.146 11.2172 20.0897C11.2725 20.0334 11.3477 19.9867 11.4276 19.965C11.5919 19.922 11.7288 19.9674 11.8378 20.0157C12.0557 20.1219 12.212 20.2753 12.3398 20.4516C12.3605 20.4802 12.3541 20.5202 12.3255 20.541C12.3066 20.5547 12.2827 20.5566 12.2626 20.5479L12.2608 20.5471C12.0677 20.4634 11.8887 20.3634 11.7215 20.3127C11.6398 20.2871 11.5631 20.2807 11.5253 20.2964C11.5059 20.3043 11.4914 20.315 11.4749 20.3334C11.459 20.3526 11.4426 20.3819 11.4272 20.4147C11.3687 20.5576 11.3473 20.7585 11.3349 20.9535C11.3281 21.0523 11.3267 21.1531 11.3265 21.2542C11.3261 21.3555 11.3178 21.4579 11.2644 21.5665L11.2639 21.5675C11.2463 21.6034 11.2029 21.6182 11.1671 21.6005C11.1566 21.5954 11.1477 21.5877 11.1411 21.579Z" fill="white"/>
<path d="M17.7832 10.7891C17.6103 10.8794 17.4387 10.9731 17.2914 11.0952C17.1463 11.2161 17.0235 11.3713 17.0039 11.546C16.9915 11.7209 17.0757 11.8915 17.1925 12.0342C17.3087 12.1792 17.4525 12.3051 17.6018 12.4232C17.6362 12.4503 17.642 12.5002 17.6148 12.5346C17.5988 12.5548 17.5749 12.5652 17.5509 12.5647L17.5496 12.5646L16.5787 12.5382C16.2552 12.5299 15.9319 12.5228 15.6091 12.5197C15.2867 12.519 14.9626 12.5171 14.6457 12.5503C14.5669 12.5594 14.4884 12.5728 14.4161 12.5949C14.3812 12.6063 14.3458 12.6228 14.3294 12.643C14.3131 12.6597 14.3197 12.6869 14.3431 12.7168C14.3897 12.7739 14.4596 12.819 14.5274 12.8607C14.5963 12.9023 14.6673 12.9416 14.7396 12.9784C14.6634 12.9508 14.5868 12.9227 14.513 12.8874C14.4397 12.851 14.3657 12.815 14.3022 12.752C14.2873 12.735 14.2715 12.717 14.2634 12.6902C14.2542 12.6641 14.2591 12.6293 14.2749 12.6062C14.3066 12.5601 14.3491 12.5411 14.3882 12.5225C14.4681 12.4882 14.5498 12.471 14.6309 12.455C14.7935 12.4244 14.9564 12.4079 15.1193 12.3963C15.2821 12.3844 15.4449 12.3761 15.6076 12.3726C15.933 12.3633 16.2579 12.3656 16.5825 12.3721C16.9072 12.3779 17.2314 12.3919 17.5555 12.406L17.5032 12.5475C17.3511 12.4192 17.2029 12.2831 17.0807 12.1192C17.0215 12.0362 16.9667 11.9473 16.9322 11.8473L16.907 11.7722C16.9021 11.7459 16.8986 11.7191 16.8946 11.6926C16.882 11.6402 16.8935 11.5848 16.8952 11.5315C16.9011 11.5053 16.9092 11.4794 16.9163 11.4536L16.9274 11.415L16.9453 11.3796L16.9818 11.3094C16.9966 11.288 17.0131 11.2679 17.0287 11.2473C17.0911 11.1647 17.172 11.1018 17.2533 11.0448C17.4187 10.9335 17.5992 10.8538 17.7832 10.7891Z" fill="white"/>
<path d="M16.8049 13.4717C16.5899 13.5524 16.3668 13.6059 16.1425 13.648C15.9181 13.691 15.6911 13.7182 15.4634 13.7359C15.3495 13.7438 15.2353 13.7481 15.1212 13.7517C15.0069 13.7508 14.8928 13.7545 14.7786 13.7469C14.5503 13.7392 14.3224 13.7137 14.0977 13.6689C14.326 13.6438 14.5516 13.6327 14.7769 13.6159L15.4511 13.5685C15.6759 13.5544 15.9002 13.5346 16.1254 13.5185C16.3507 13.5012 16.5761 13.4843 16.8049 13.4717Z" fill="white"/>
<path opacity="0.4" d="M26.6487 41.1475C31.7904 41.1475 35.9585 36.9793 35.9585 31.8377C35.9585 26.696 31.7904 22.5278 26.6487 22.5278C21.507 22.5278 17.3389 26.696 17.3389 31.8377C17.3389 36.9793 21.507 41.1475 26.6487 41.1475Z" fill="#46A83E"/>
<path d="M34.7891 21.5194C35.1781 21.3791 35.5671 21.3088 35.9561 21.2562C36.3451 21.2069 36.7342 21.184 37.1232 21.1836C37.5122 21.1831 37.9012 21.2061 38.2902 21.2553C38.6793 21.3077 39.0683 21.3783 39.4573 21.5194C39.0683 21.6606 38.6793 21.7312 38.2902 21.7836C37.9012 21.8328 37.5122 21.8558 37.1232 21.8553C36.7342 21.8549 36.3451 21.832 35.9561 21.7827C35.5671 21.73 35.1781 21.6598 34.7891 21.5194Z" fill="#A0A0A0"/>
<path d="M34.4365 25.4184C34.8255 25.278 35.2146 25.2078 35.6036 25.1551C35.9926 25.1058 36.3816 25.0829 36.7706 25.0825C37.1597 25.082 37.5487 25.105 37.9377 25.1542C38.3267 25.2066 38.7157 25.2772 39.1047 25.4184C38.7157 25.5595 38.3267 25.6301 37.9377 25.6825C37.5487 25.7317 37.1597 25.7547 36.7706 25.7542C36.3816 25.7538 35.9926 25.7309 35.6036 25.6816C35.2146 25.629 34.8255 25.5587 34.4365 25.4184Z" fill="#A0A0A0"/>
<path d="M33.043 29.3173C33.432 29.177 33.821 29.1067 34.21 29.0541C34.599 29.0048 34.9881 28.9818 35.3771 28.9815C35.7661 28.9809 36.1551 29.0039 36.5441 29.0531C36.9332 29.1056 37.3222 29.1761 37.7112 29.3173C37.3222 29.4584 36.9332 29.529 36.5441 29.5814C36.1551 29.6307 35.7661 29.6537 35.3771 29.6531C34.9881 29.6527 34.599 29.6298 34.21 29.5805C33.821 29.5279 33.432 29.4576 33.043 29.3173Z" fill="#A0A0A0"/>
<path d="M30.002 33.2162C30.391 33.0759 30.78 33.0056 31.169 32.953C31.558 32.9037 31.947 32.8808 32.3361 32.8804C32.7251 32.8798 33.1141 32.9028 33.5031 32.9521C33.8921 33.0045 34.2812 33.0751 34.6702 33.2162C34.2812 33.3574 33.8921 33.4279 33.5031 33.4804C33.1141 33.5296 32.7251 33.5526 32.3361 33.5521C31.947 33.5517 31.558 33.5287 31.169 33.4795C30.78 33.4268 30.391 33.3566 30.002 33.2162Z" fill="#A0A0A0"/>
<path d="M26.1348 35.9735C26.5238 35.8332 26.9128 35.7629 27.3018 35.7103C27.6908 35.661 28.0799 35.6381 28.4689 35.6377C28.8579 35.6372 29.2469 35.6602 29.6359 35.7094C30.0249 35.7618 30.414 35.8324 30.803 35.9735C30.414 36.1147 30.0249 36.1853 29.6359 36.2377C29.2469 36.2869 28.8579 36.3099 28.4689 36.3094C28.0799 36.309 27.6908 36.2861 27.3018 36.2368C26.9128 36.1841 26.5238 36.1139 26.1348 35.9735Z" fill="#A0A0A0"/>
<path d="M34.7891 21.5107C35.1781 21.3703 35.5671 21.3001 35.9561 21.2474C36.3451 21.1981 36.7342 21.1752 37.1232 21.1748C37.5122 21.1743 37.9012 21.1973 38.2902 21.2465C38.6793 21.2989 39.0683 21.3695 39.4573 21.5107C39.0683 21.6518 38.6793 21.7224 38.2902 21.7748C37.9012 21.824 37.5122 21.847 37.1232 21.8465C36.7342 21.8461 36.3451 21.8232 35.9561 21.7739C35.5671 21.7213 35.1781 21.651 34.7891 21.5107Z" fill="#A0A0A0"/>
<path d="M34.4365 17.6117C34.8255 17.4714 35.2146 17.4011 35.6036 17.3485C35.9926 17.2992 36.3816 17.2763 36.7706 17.2759C37.1597 17.2753 37.5487 17.2984 37.9377 17.3476C38.3267 17.4 38.7157 17.4706 39.1047 17.6117C38.7157 17.7529 38.3267 17.8235 37.9377 17.8759C37.5487 17.9251 37.1597 17.9481 36.7706 17.9476C36.3816 17.9472 35.9926 17.9242 35.6036 17.875C35.2146 17.8223 34.8255 17.7521 34.4365 17.6117Z" fill="#A0A0A0"/>
<path d="M33.043 13.7128C33.432 13.5725 33.821 13.5022 34.21 13.4496C34.599 13.4003 34.9881 13.3773 35.3771 13.377C35.7661 13.3764 36.1551 13.3994 36.5441 13.4486C36.9332 13.5011 37.3222 13.5716 37.7112 13.7128C37.3222 13.854 36.9332 13.9245 36.5441 13.9769C36.1551 14.0262 35.7661 14.0492 35.3771 14.0486C34.9881 14.0483 34.599 14.0253 34.21 13.976C33.821 13.9234 33.432 13.8531 33.043 13.7128Z" fill="#A0A0A0"/>
<path d="M30.002 9.81387C30.391 9.67353 30.78 9.60328 31.169 9.55063C31.558 9.50136 31.947 9.47842 32.3361 9.47804C32.7251 9.4775 33.1141 9.5005 33.5031 9.54972C33.8921 9.60215 34.2812 9.67272 34.6702 9.81387C34.2812 9.95502 33.8921 10.0256 33.5031 10.078C33.1141 10.1272 32.7251 10.1502 32.3361 10.1497C31.947 10.1493 31.558 10.1264 31.169 10.0771C30.78 10.0245 30.391 9.95421 30.002 9.81387Z" fill="#A0A0A0"/>
<path d="M26.1348 7.05606C26.5238 6.91572 26.9128 6.84547 27.3018 6.79282C27.6908 6.74354 28.0799 6.72061 28.4689 6.72022C28.8579 6.71969 29.2469 6.74269 29.6359 6.79191C30.0249 6.84433 30.414 6.91491 30.803 7.05606C30.414 7.19721 30.0249 7.26779 29.6359 7.32021C29.2469 7.36943 28.8579 7.39243 28.4689 7.3919C28.0799 7.39151 27.6908 7.36857 27.3018 7.3193C26.9128 7.26665 26.5238 7.1964 26.1348 7.05606Z" fill="#A0A0A0"/>
<path d="M19.3393 37.635C10.4423 37.635 3.2041 30.3968 3.2041 21.4999C3.2041 12.6029 10.4423 5.36475 19.3393 5.36475C28.2362 5.36475 35.4744 12.6029 35.4744 21.4999C35.4744 30.3968 28.2362 37.635 19.3393 37.635ZM19.3393 6.03662C10.8128 6.03662 3.87598 12.9734 3.87598 21.4999C3.87598 30.0263 10.8128 36.9631 19.3393 36.9631C27.8657 36.9631 34.8026 30.0263 34.8026 21.4999C34.8026 12.9734 27.8657 6.03662 19.3393 6.03662Z" fill="white"/>
<path d="M23.1106 37.635H19.3379C19.1524 37.635 19.002 37.4846 19.002 37.2991C19.002 37.1135 19.1524 36.9631 19.3379 36.9631H23.1106C31.6371 36.9631 38.5738 30.0263 38.5738 21.4999C38.5738 12.9734 31.6371 6.03662 23.1106 6.03662H19.3379C19.1524 6.03662 19.002 5.8862 19.002 5.70068C19.002 5.51516 19.1524 5.36475 19.3379 5.36475H23.1106C32.0076 5.36475 39.2457 12.6029 39.2457 21.4999C39.2457 30.3968 32.0076 37.635 23.1106 37.635Z" fill="white"/>
<path d="M16.2311 32.588C15.6278 32.5881 15.0261 32.517 14.4271 32.3745C14.3988 32.3678 14.3727 32.3538 14.3514 32.334L14.3131 32.2983C10.2626 28.5235 8.87852 27.2334 11.6694 23.403C11.1448 22.3792 11.4081 21.9049 11.739 21.3091C11.9105 21.0002 12.104 20.6518 12.2294 20.1506C12.0641 19.854 11.9105 19.4921 11.7723 19.0735C11.4431 18.0755 11.5758 16.9941 12.1364 16.1065L12.6778 15.2492C12.7107 15.1972 12.7682 15.1673 12.8308 15.1713C13.9442 15.2437 14.9995 15.626 15.9689 16.308C19.0514 14.4988 22.1059 15.1462 25.0487 18.2336C25.1093 18.2971 25.1107 18.3966 25.052 18.4619C23.741 19.9174 23.1458 21.7844 23.2324 24.1696C23.2353 24.2498 23.181 24.3208 23.1029 24.3392C22.7517 24.4217 22.36 24.8087 22.0151 25.1947C22.4547 26.924 22.2052 28.4765 21.9364 29.6408C21.7785 30.3248 21.3372 30.9218 20.7256 31.2789C19.2329 32.1504 17.7276 32.588 16.2311 32.588ZM14.5478 32.0578C16.532 32.5178 18.5535 32.1582 20.5561 30.9888C21.0882 30.6782 21.4719 30.1593 21.609 29.5653C21.8736 28.4192 22.1194 26.8865 21.6677 25.1936C21.6532 25.1393 21.6669 25.0814 21.7039 25.0392C22.0775 24.6153 22.4779 24.2077 22.8926 24.0528C22.8303 21.7001 23.422 19.8332 24.6988 18.3545C23.3156 16.9332 21.9051 16.061 20.5044 15.761C19.0454 15.4486 17.5457 15.7484 16.0472 16.6523C15.9895 16.6872 15.9163 16.684 15.8617 16.6443C14.9485 15.9807 13.9553 15.6006 12.908 15.5138L12.4205 16.2859C11.9136 17.0883 11.7937 18.0659 12.0913 18.9682C12.2316 19.393 12.3871 19.754 12.5537 20.0412C12.5751 20.0782 12.5816 20.1219 12.5719 20.1636C12.4365 20.7448 12.2126 21.1481 12.0327 21.4721C11.708 22.0569 11.5121 22.4099 12.0146 23.3376C12.0456 23.3949 12.0408 23.4649 12.0021 23.5173C9.30623 27.173 10.4154 28.2067 14.5422 32.0526L14.5478 32.0578Z" fill="white"/>
<path d="M26.3357 19.4819C27.2983 19.0015 28.2699 18.6791 29.2553 18.5943C28.7776 17.4795 28.1064 16.3947 27.2493 15.3386C27.7974 15.4902 28.3499 15.6618 28.9106 15.8709C29.0694 15.9301 29.205 15.742 29.0981 15.6105C25.7806 11.5338 22.9152 9.02276 21.2016 10.5004C19.9278 8.37484 16.0262 9.67909 9.85922 14.4379C9.75495 14.5184 9.80998 14.6845 9.94163 14.6875C10.4053 14.6981 10.8316 14.7629 11.2014 14.9096C10.2853 16.4284 10.6023 17.3439 11.7649 17.8456L11.766 17.8473C11.7883 17.2681 11.9601 16.6975 12.2769 16.1959L12.8184 15.3386C13.9417 15.4117 14.9883 15.8028 15.9589 16.5081C19.0782 14.6267 22.0617 15.3447 24.9257 18.3491C23.4832 19.9506 22.982 21.9423 23.063 24.1754C22.6565 24.2708 22.2432 24.6794 21.8285 25.15C22.2493 26.7268 22.0989 28.1834 21.7713 29.6028C21.6383 30.1786 21.2948 30.6808 20.8158 31.0193C21.7941 30.9503 22.759 30.5667 23.6743 29.0193C23.9284 29.0388 24.0517 29.2823 24.1081 29.6403C24.1468 29.8868 24.4602 29.9663 24.6113 29.7679C25.1211 29.0982 25.5719 28.3761 25.9186 27.5613C26.1082 27.7754 26.2097 28.3597 26.282 29.0671C26.3072 29.3132 26.6191 29.4119 26.7759 29.2205C27.409 28.4477 27.8426 27.2518 27.9842 25.4361C26.5735 24.5643 25.7191 22.9737 26.3357 19.4819Z" fill="white"/>
<path d="M22.1442 21.9534C22.064 21.8554 21.9978 21.7526 21.9368 21.6479C21.8725 21.5448 21.8125 21.4404 21.7566 21.3339C21.698 21.2291 21.6358 21.1265 21.5757 21.0227C21.5127 20.9209 21.4453 20.8221 21.3805 20.7218C21.1121 20.3271 20.8057 19.9614 20.4562 19.6446C20.3653 19.5695 20.278 19.4901 20.1861 19.4166C20.0907 19.3476 19.9998 19.272 19.9009 19.2079C19.7044 19.078 19.4998 18.9599 19.2873 18.8559C18.8623 18.6466 18.4086 18.4937 17.9388 18.3628L17.9382 18.3626C17.905 18.3534 17.8856 18.319 17.8949 18.2858C17.9028 18.2575 17.9291 18.2392 17.9573 18.2403C18.4544 18.2592 18.9522 18.3704 19.419 18.5654C19.4784 18.5871 19.5351 18.6152 19.5918 18.6434L19.7624 18.7272C19.8199 18.7541 19.8734 18.7881 19.9278 18.8207L20.0906 18.9191C20.1987 18.9856 20.2988 19.064 20.4032 19.1361C20.5049 19.2119 20.5991 19.2971 20.6965 19.3784C21.0761 19.7157 21.3932 20.1156 21.6589 20.5402C21.7221 20.6484 21.7877 20.7551 21.8483 20.8644C21.9059 20.9751 21.9655 21.0848 22.0211 21.1963C22.0735 21.3092 22.1243 21.423 22.1663 21.5403C22.205 21.659 22.2386 21.7797 22.2582 21.905C22.2637 21.9399 22.2399 21.9725 22.2051 21.978C22.1819 21.9816 22.1597 21.9723 22.1458 21.9554L22.1442 21.9534Z" fill="white"/>
<path d="M17.2917 17.7887C17.5297 17.7184 17.777 17.7028 18.0195 17.7195L18.2017 17.7318L18.3829 17.7519C18.504 17.7639 18.6239 17.7826 18.7437 17.8025C19.2224 17.8833 19.6912 18.0086 20.1466 18.1664C20.3751 18.2433 20.5991 18.3318 20.8212 18.4232C21.0435 18.5142 21.2635 18.6106 21.479 18.7154C21.9106 18.9244 22.3299 19.1568 22.7266 19.4267C22.7551 19.446 22.7625 19.4849 22.7431 19.5134C22.7266 19.5376 22.6958 19.5465 22.6695 19.5366C22.2218 19.3695 21.7864 19.1847 21.3494 19.0069C21.2406 18.9612 21.1316 18.9165 21.0217 18.8742C20.9125 18.8302 20.8039 18.7848 20.6935 18.7444C20.4743 18.6592 20.2522 18.583 20.0309 18.5059C19.5866 18.3571 19.1378 18.2244 18.6821 18.1291C18.5683 18.1046 18.4543 18.081 18.3394 18.0642L18.1672 18.0366L17.9944 18.0166C17.8792 18.0004 17.7639 17.9933 17.6482 17.9749C17.5323 17.9569 17.4164 17.9453 17.2975 17.9125L17.2929 17.9113C17.259 17.9019 17.239 17.8668 17.2484 17.8329C17.2544 17.8109 17.2714 17.7948 17.2917 17.7887Z" fill="white"/>
<path d="M29.2533 18.5322C29.3668 18.5145 29.4803 18.5035 29.5938 18.4924C29.6524 18.4885 29.7021 18.4809 29.7731 18.481C29.8397 18.4825 29.9065 18.4926 29.9716 18.5112C30.1013 18.5488 30.2231 18.6226 30.3169 18.7252C30.3395 18.7499 30.3632 18.7804 30.3802 18.8045L30.43 18.8759C30.463 18.9236 30.4973 18.9706 30.5279 19.0199C30.6543 19.2147 30.7694 19.4165 30.8772 19.622C30.9815 19.8292 31.0808 20.0391 31.1669 20.2544C31.3416 20.684 31.4745 21.1289 31.58 21.5785C31.6324 21.8034 31.6767 22.0301 31.7124 22.2578C31.7316 22.3717 31.7461 22.4855 31.7626 22.6001L31.78 22.7815L31.7851 22.9638C31.7845 23.4508 31.6411 23.9348 31.386 24.3472C31.2585 24.5536 31.1029 24.7424 30.9252 24.9068C30.8374 24.9889 30.7388 25.0647 30.6444 25.1328C30.5504 25.2001 30.4548 25.2649 30.3587 25.3288C29.5851 25.8343 28.7459 26.2179 27.8853 26.5192C27.853 26.5306 27.8176 26.5135 27.8062 26.4812C27.7957 26.4513 27.8097 26.4187 27.8374 26.405C28.6498 26.0026 29.4474 25.5776 30.1798 25.0648C30.2711 25.0005 30.3617 24.9355 30.4506 24.8683C30.5387 24.8012 30.6182 24.7357 30.6951 24.6614C30.8487 24.5155 30.9822 24.3489 31.0909 24.1675C31.3095 23.805 31.4235 23.3835 31.4265 22.9619L31.422 22.8038L31.4068 22.6463C31.3908 22.5362 31.3766 22.4247 31.3579 22.3147C31.3224 22.094 31.2803 21.8746 31.2341 21.6564C31.1394 21.2203 31.0144 20.7916 30.8574 20.3757C30.7801 20.1672 30.69 19.964 30.5953 19.7631C30.497 19.5641 30.3919 19.3683 30.2758 19.1791C30.2473 19.1314 30.2162 19.0855 30.1872 19.0381L30.1429 18.9676C30.1283 18.9446 30.1176 18.9298 30.103 18.9117C30.0481 18.8423 29.9739 18.7868 29.889 18.7508C29.8033 18.7119 29.7153 18.705 29.5938 18.6959C29.4803 18.6848 29.3668 18.6738 29.2533 18.6561C29.2191 18.6508 29.1957 18.6187 29.201 18.5845C29.2053 18.5569 29.2271 18.5363 29.2533 18.5322Z" fill="white"/>
<path d="M29.4313 19.3756C29.2593 19.466 29.0818 19.5125 28.903 19.5499C28.7243 19.5875 28.5467 19.6278 28.3709 19.672C28.0194 19.7591 27.6727 19.8592 27.3487 19.9921C27.0292 20.1262 26.7212 20.3027 26.5558 20.5664C26.4693 20.6951 26.427 20.8479 26.416 21.0122C26.4034 21.1773 26.4316 21.352 26.4691 21.5292L26.4693 21.5303C26.4765 21.5642 26.4548 21.5974 26.421 21.6046C26.3939 21.6103 26.3672 21.5976 26.3539 21.575C26.2574 21.4102 26.1853 21.2243 26.1632 21.0204C26.1425 20.8183 26.1745 20.5952 26.2792 20.4075C26.3279 20.3115 26.3944 20.229 26.463 20.1502C26.5356 20.0763 26.6123 20.0072 26.6942 19.9488C26.8572 19.8304 27.0307 19.736 27.2091 19.6618C27.5649 19.5104 27.9328 19.4192 28.2995 19.3473C28.4834 19.3131 28.6673 19.2832 28.8511 19.2563C29.0349 19.2302 29.2209 19.2181 29.4128 19.2531C29.4484 19.2596 29.472 19.2937 29.4655 19.3293C29.4618 19.3497 29.4484 19.3665 29.4313 19.3756Z" fill="white"/>
<path d="M27.1179 21.7555C27.315 21.3948 27.5712 21.0668 27.8809 20.7841C27.9205 20.7487 27.9576 20.7148 28.0015 20.6802C28.0486 20.6473 28.0914 20.6075 28.1433 20.5812C28.1932 20.5518 28.2437 20.5233 28.2984 20.5029C28.3512 20.4781 28.4071 20.4625 28.4633 20.4471C28.6884 20.3856 28.93 20.401 29.1517 20.4717C29.3744 20.5426 29.5731 20.6867 29.7199 20.8707C29.757 20.9164 29.7869 20.9676 29.8192 21.0169C29.8443 21.0682 29.8747 21.1245 29.8942 21.1726C29.9337 21.2685 29.9725 21.3648 30.0074 21.463C30.1502 21.8538 30.2489 22.267 30.2737 22.693C30.286 22.9056 30.2785 23.1214 30.2442 23.3344C30.226 23.4408 30.2038 23.5466 30.1739 23.6505C30.1565 23.7041 30.147 23.7496 30.1209 23.8117C30.0983 23.8704 30.0678 23.9264 30.0322 23.9784C29.8909 24.1884 29.6556 24.3286 29.4047 24.3525C29.2796 24.3651 29.1515 24.3485 29.0342 24.3058C28.922 24.2631 28.8272 24.2136 28.7328 24.1525C28.3612 23.9085 28.0879 23.5497 27.9446 23.1385C27.9099 23.0349 27.8842 22.9269 27.8768 22.8122C27.8715 22.6993 27.8782 22.5703 27.962 22.4521C28.0044 22.393 28.074 22.3527 28.1406 22.337C28.1742 22.3306 28.2075 22.3259 28.2383 22.329C28.2705 22.3285 28.2993 22.3347 28.328 22.3408C28.4422 22.3662 28.5364 22.4195 28.6263 22.4742C28.6556 22.492 28.6649 22.5301 28.6471 22.5593C28.6308 22.5861 28.5975 22.5962 28.5695 22.584L28.5668 22.5829C28.478 22.5444 28.3864 22.5119 28.3011 22.5021C28.2799 22.5001 28.2588 22.4978 28.2403 22.501C28.2202 22.5007 28.2041 22.5066 28.1882 22.511C28.1589 22.5238 28.1376 22.539 28.1236 22.5651C28.095 22.6179 28.0904 22.704 28.103 22.7896C28.1159 22.8762 28.145 22.9646 28.1814 23.0498C28.3279 23.3922 28.5893 23.6948 28.9013 23.8817C28.9774 23.9287 29.0648 23.9695 29.1421 23.9962C29.2154 24.0203 29.2927 24.0272 29.3684 24.0181C29.5204 24.0017 29.6635 23.9128 29.7456 23.7854C29.7885 23.7216 29.8099 23.6548 29.8365 23.557C29.8611 23.4664 29.8789 23.3739 29.8936 23.2809C29.9196 23.0942 29.9264 22.904 29.9156 22.7134C29.8954 22.3312 29.799 21.9514 29.6731 21.5811C29.6418 21.4884 29.6065 21.3967 29.5706 21.3051C29.5528 21.2593 29.5339 21.2271 29.5164 21.1869C29.4931 21.1519 29.4733 21.1144 29.4471 21.0815C29.3443 20.9491 29.2044 20.843 29.0432 20.7859C28.8829 20.7304 28.7047 20.712 28.5378 20.7534C28.4962 20.7639 28.4542 20.7735 28.4149 20.7912C28.3739 20.8046 28.3361 20.8252 28.2982 20.846C28.2585 20.8635 28.2265 20.8941 28.1897 20.917C28.1533 20.9437 28.1147 20.9768 28.0781 21.0078C27.7819 21.2611 27.5115 21.5516 27.2162 21.8309C27.1912 21.8548 27.1515 21.8539 27.1276 21.8289C27.1083 21.8088 27.1054 21.7788 27.1179 21.7555Z" fill="white"/>
<path d="M26.7004 22.0245C26.8177 22.0988 26.8958 22.1984 26.9613 22.3048C27.0264 22.4115 27.0903 22.5191 27.1518 22.6285C27.2725 22.8481 27.3848 23.0737 27.4769 23.3085C27.5244 23.4252 27.5644 23.545 27.603 23.6652C27.6426 23.7851 27.6767 23.907 27.7046 24.0304C27.7591 24.2773 27.7899 24.5314 27.7697 24.7868C27.7669 24.8217 27.7363 24.8479 27.7014 24.8451C27.6764 24.8431 27.656 24.8271 27.6473 24.8053L27.6471 24.8047C27.5547 24.5726 27.4784 24.3447 27.3978 24.1178C27.3782 24.0609 27.359 24.0041 27.3375 23.9479C27.3178 23.8911 27.2984 23.8344 27.2765 23.7783C27.235 23.6656 27.1882 23.5547 27.1429 23.4433C27.0505 23.2211 26.9568 22.9986 26.8552 22.7786C26.8058 22.6678 26.7537 22.5581 26.7002 22.4489C26.6729 22.3945 26.6484 22.3386 26.6302 22.2788C26.6109 22.2197 26.5962 22.1577 26.5939 22.0878L26.5938 22.0854C26.5925 22.0471 26.6226 22.015 26.6609 22.0137C26.6754 22.0132 26.689 22.0172 26.7004 22.0245Z" fill="white"/>
<path d="M22.7002 11.8838C23.3908 12.2072 24.0716 12.5509 24.7431 12.9142C25.0766 13.1005 25.4094 13.2872 25.723 13.5146C25.8006 13.5744 25.878 13.6302 25.9452 13.7206C25.9596 13.7456 25.9818 13.7727 25.9762 13.827C25.974 13.8536 25.9524 13.881 25.9347 13.8925C25.9163 13.9054 25.8986 13.9117 25.8837 13.9154C25.8224 13.9303 25.7729 13.9267 25.7224 13.924C25.5238 13.9076 25.3378 13.8635 25.1505 13.8204C24.4052 13.6413 23.681 13.4003 22.9488 13.1961C22.7661 13.1454 22.5825 13.0952 22.4001 13.0574C22.3547 13.048 22.3093 13.04 22.2655 13.0346C22.2436 13.0318 22.2225 13.0303 22.2036 13.0301C22.1956 13.0303 22.1849 13.0304 22.1819 13.0315C22.1796 13.0317 22.1768 13.0323 22.181 13.0313C22.183 13.0305 22.1814 13.0306 22.1858 13.0283C22.1909 13.0256 22.1955 13.0213 22.1987 13.0164C22.2219 12.9814 22.2058 12.9652 22.2102 12.9707C22.2111 12.9722 22.2145 12.9792 22.2201 12.9862C22.2299 13.0002 22.2448 13.0166 22.2592 13.0322C22.2894 13.064 22.3233 13.0954 22.3577 13.1262C22.6396 13.3714 22.9493 13.597 23.2529 13.8254C23.5569 14.0547 23.8623 14.2833 24.1643 14.5174C24.3152 14.6346 24.4654 14.7531 24.613 14.8759C24.7601 15.0002 24.9067 15.1229 25.0408 15.2731C25.0737 15.3131 25.1068 15.3497 25.1342 15.4099C25.141 15.4244 25.1471 15.4435 25.1502 15.466C25.1519 15.4904 25.1512 15.5228 25.1265 15.5542C25.1204 15.5617 25.1134 15.5691 25.1064 15.5749C25.1004 15.5787 25.0942 15.5824 25.0878 15.5857C25.0737 15.5933 25.0631 15.596 25.0538 15.5978C25.032 15.6034 25.018 15.6025 25.0011 15.6036C24.9408 15.6027 24.8922 15.5921 24.843 15.5811C24.7942 15.5699 24.7469 15.5568 24.7003 15.5428C24.5141 15.4865 24.3348 15.4197 24.1557 15.3521C23.798 15.2167 23.4458 15.0712 23.0929 14.9277C22.74 14.7846 22.3866 14.6433 22.0297 14.5128C21.6729 14.3855 21.3119 14.2568 20.9426 14.1958C20.851 14.1823 20.7569 14.1732 20.6714 14.1887C20.6297 14.1971 20.5909 14.2136 20.5726 14.2427C20.5622 14.2547 20.5568 14.2799 20.5486 14.2984C20.5448 14.319 20.5384 14.3398 20.5392 14.3609C20.5356 14.4461 20.5799 14.5293 20.6402 14.5975C20.7003 14.6668 20.7745 14.7253 20.8523 14.7777C21.0092 14.882 21.1817 14.9637 21.3569 15.0367C21.5324 15.1096 21.7121 15.1735 21.895 15.227C21.5264 15.1328 21.1591 15.0145 20.8281 14.8151C20.7465 14.7639 20.6674 14.7061 20.6 14.6334C20.5653 14.5981 20.537 14.5559 20.5125 14.5111C20.492 14.4645 20.4736 14.4137 20.4758 14.36C20.4767 14.3058 20.4869 14.257 20.5155 14.2055C20.5487 14.152 20.6062 14.1295 20.6558 14.1175C20.7581 14.0958 20.8569 14.1036 20.9536 14.1142C21.1469 14.1387 21.3331 14.1875 21.5178 14.2392C21.7021 14.292 21.8841 14.3511 22.0651 14.4128C22.4267 14.5368 22.784 14.6714 23.1403 14.8075L24.2069 15.2162C24.3847 15.282 24.5634 15.347 24.7424 15.3998C24.8299 15.4248 24.9259 15.451 25.0003 15.4526C25.007 15.4519 25.0172 15.4521 25.0184 15.4508C25.0209 15.4507 25.0218 15.4502 25.0179 15.4514C25.0168 15.452 25.0158 15.4529 25.0152 15.4541C25.0123 15.4556 25.009 15.4582 25.0068 15.4613C24.9986 15.4748 24.9989 15.481 24.9994 15.4823C24.9987 15.4814 24.9984 15.4773 24.9948 15.4703C24.9833 15.4432 24.9537 15.406 24.9255 15.3735C24.8048 15.2397 24.6579 15.1169 24.5132 14.9967C24.367 14.8767 24.2172 14.7601 24.0663 14.6445C23.7645 14.4135 23.4577 14.1878 23.1522 13.9596C22.8486 13.7278 22.5424 13.5025 22.2506 13.2453C22.2144 13.2123 22.1784 13.1788 22.1432 13.1412C22.1255 13.1218 22.1081 13.1029 22.0906 13.078C22.0819 13.0659 22.0729 13.0522 22.0641 13.0322C22.0588 13.0166 22.0366 12.9739 22.074 12.9188C22.0816 12.91 22.0907 12.9018 22.1003 12.8952C22.1093 12.8892 22.1139 12.8882 22.1212 12.8849C22.1363 12.8786 22.1453 12.8775 22.1548 12.8758C22.1752 12.8721 22.1885 12.8727 22.2042 12.8723C22.233 12.8728 22.2594 12.8751 22.2847 12.8785C22.3355 12.8851 22.3839 12.8941 22.4317 12.9042C22.6223 12.9451 22.8062 12.9969 22.9904 13.0493C23.7244 13.2619 24.449 13.499 25.1815 13.6956C25.3643 13.7418 25.55 13.7888 25.7313 13.8073C25.7754 13.8113 25.8228 13.8126 25.8544 13.8049C25.8626 13.8036 25.8676 13.8005 25.8686 13.8001C25.8698 13.7984 25.8655 13.8056 25.865 13.808C25.8663 13.8143 25.8627 13.7965 25.8523 13.7821C25.8073 13.7178 25.7313 13.6553 25.659 13.5987C25.3599 13.3719 25.0296 13.1785 24.7027 12.9854C24.0468 12.5991 23.3737 12.241 22.7002 11.8838Z" fill="white"/>
<path d="M23.0674 26.2178C23.1389 25.9553 23.2421 25.7038 23.3786 25.4644C23.4137 25.4048 23.4502 25.3458 23.4938 25.2884C23.5152 25.2596 23.5392 25.2314 23.5664 25.2038C23.5945 25.1768 23.6244 25.1484 23.6758 25.1284C23.7023 25.1196 23.7359 25.1124 23.7722 25.1228C23.7897 25.1273 23.8046 25.1351 23.8201 25.1455C23.8345 25.1576 23.853 25.1759 23.8575 25.1875C23.8873 25.2423 23.8881 25.2805 23.8926 25.3189C23.8986 25.3947 23.8946 25.4639 23.8899 25.5331C23.868 25.8072 23.822 26.0719 23.7966 26.3352C23.7901 26.4008 23.7856 26.466 23.7839 26.5293C23.7828 26.5609 23.7829 26.5921 23.7849 26.6211C23.7864 26.6497 23.7912 26.6789 23.7969 26.6922C23.7981 26.6958 23.7994 26.6996 23.7991 26.6974C23.7991 26.6974 23.7985 26.6971 23.7979 26.6973C23.7972 26.6967 23.7951 26.6932 23.7928 26.6922C23.7833 26.6869 23.7687 26.6848 23.7674 26.687C23.765 26.6894 23.7865 26.6743 23.8022 26.6554C23.8366 26.6136 23.869 26.5579 23.8985 26.5015C24.0158 26.2707 24.1079 26.0169 24.2104 25.7676C24.2622 25.6424 24.313 25.5172 24.3816 25.3917C24.3998 25.36 24.4181 25.3292 24.4444 25.2967C24.4564 25.2809 24.4721 25.264 24.4931 25.247C24.5068 25.2383 24.5128 25.2302 24.5347 25.2226C24.554 25.2148 24.5736 25.2109 24.5938 25.2129C24.6343 25.2155 24.6596 25.2315 24.6805 25.2447C24.7 25.2584 24.7166 25.2727 24.73 25.2866C24.7584 25.3147 24.7806 25.3423 24.8025 25.3699C24.9678 25.5884 25.1154 25.803 25.3244 25.9525C25.4278 26.0266 25.5446 26.0778 25.6686 26.1043C25.7932 26.1287 25.9239 26.1236 26.0525 26.0985C26.0693 26.095 26.0857 26.1059 26.0891 26.1227C26.0923 26.1383 26.0829 26.1536 26.0682 26.1584C25.9369 26.2005 25.7947 26.217 25.6533 26.2018C25.5116 26.1858 25.3755 26.1312 25.2554 26.056C25.0123 25.906 24.8433 25.6716 24.6805 25.4687C24.66 25.4442 24.6391 25.4202 24.619 25.4017C24.6011 25.382 24.574 25.3704 24.5854 25.3755C24.5885 25.3748 24.5921 25.3753 24.5958 25.3743C24.6008 25.3702 24.5953 25.3761 24.5948 25.376C24.5903 25.3805 24.5821 25.3879 24.5746 25.3992C24.5588 25.4192 24.5436 25.4469 24.5285 25.4735C24.4688 25.5841 24.4184 25.7084 24.3686 25.8316C24.2682 26.0795 24.179 26.3328 24.0546 26.5822C24.0219 26.6446 23.9882 26.7067 23.9376 26.7693C23.9087 26.7994 23.8822 26.8358 23.8148 26.8582C23.795 26.8614 23.7797 26.8676 23.7559 26.863C23.733 26.8598 23.7115 26.8536 23.6937 26.8399C23.6848 26.8337 23.6749 26.8264 23.6686 26.8196C23.6632 26.813 23.6579 26.8061 23.6529 26.799C23.6415 26.7839 23.6369 26.7719 23.632 26.7598C23.6129 26.7106 23.6097 26.6721 23.6065 26.6339C23.6037 26.596 23.6035 26.5599 23.6045 26.5244C23.6068 26.4535 23.6134 26.3847 23.6212 26.3168C23.6522 26.0458 23.7026 25.7811 23.7278 25.5199C23.7335 25.4553 23.7376 25.39 23.7339 25.3317C23.7331 25.3038 23.7259 25.2731 23.7227 25.2689C23.7215 25.2641 23.7242 25.2734 23.7279 25.2727C23.7297 25.2743 23.7295 25.2731 23.7309 25.2739C23.7345 25.2739 23.7337 25.274 23.7285 25.2749C23.7166 25.2784 23.6937 25.2944 23.674 25.3141C23.6538 25.334 23.6335 25.3565 23.6145 25.3813C23.5759 25.4303 23.5405 25.4849 23.5066 25.5405C23.3716 25.7649 23.2536 26.0048 23.125 26.2405C23.117 26.2558 23.0981 26.2616 23.0829 26.2535C23.0699 26.2467 23.0639 26.2314 23.0674 26.2178Z" fill="#B0F3CC"/>
</svg>
