<svg width="32" height="38" viewBox="0 0 32 38" fill="none" xmlns="http://www.w3.org/2000/svg">
<path opacity="0.4" d="M22.2381 34.5255C27.6287 34.5255 31.9987 30.1556 31.9987 24.765C31.9987 19.3744 27.6287 15.0044 22.2381 15.0044C16.8475 15.0044 12.4775 19.3744 12.4775 24.765C12.4775 30.1556 16.8475 34.5255 22.2381 34.5255Z" fill="#46A83E"/>
<path d="M15.1556 37.6185C15.1099 37.6185 15.064 37.6096 15.021 37.5918L13.2006 36.8387C9.44273 35.284 6.26173 32.6752 4.00166 29.2942C1.74149 25.9132 0.546875 21.9766 0.546875 17.9097V4.69125C0.546875 4.53621 0.648254 4.39945 0.796495 4.35431L15.053 0.0152842C15.1199 -0.00509472 15.1913 -0.00509472 15.2582 0.0152842L29.5147 4.35431C29.663 4.39945 29.7644 4.53621 29.7644 4.69125V17.9097C29.7644 21.9766 28.5697 25.9132 26.3096 29.2942C24.0495 32.6752 20.8685 35.284 17.1106 36.8387L15.2903 37.5918C15.2472 37.6096 15.2014 37.6185 15.1556 37.6185ZM1.25128 4.95222V17.9097C1.25128 21.8367 2.40488 25.638 4.58723 28.9027C6.76966 32.1674 9.8412 34.6866 13.4699 36.1878L15.1556 36.8852L16.8413 36.1878C20.47 34.6866 23.5416 32.1674 25.724 28.9027C27.9063 25.638 29.0599 21.8367 29.0599 17.9097V4.95222L15.1556 0.720376L1.25128 4.95222Z" fill="white"/>
<path d="M15.1571 34.7279C15.1144 34.7279 15.0718 34.7201 15.0313 34.7046L13.8168 34.2401C10.6138 33.0151 7.89324 30.8743 5.94916 28.0494C4.00508 25.2244 2.97754 21.9186 2.97754 18.4894V6.4597C2.97754 6.30467 3.07892 6.16791 3.22716 6.12276L15.0545 2.5231C15.1214 2.50272 15.1927 2.50272 15.2596 2.5231L27.087 6.12276C27.2352 6.16791 27.3366 6.30467 27.3366 6.4597V18.4894C27.3366 21.9186 26.309 25.2244 24.365 28.0494C22.4209 30.8743 19.7003 33.0151 16.4973 34.2401L15.2829 34.7046C15.2424 34.7201 15.1997 34.7279 15.1571 34.7279ZM3.68194 6.72067V18.4894C3.68194 21.7754 4.66658 24.9431 6.52948 27.65C8.3923 30.357 10.9993 32.4083 14.0684 33.5822L15.1571 33.9986L16.2457 33.5822C19.3149 32.4083 21.9218 30.357 23.7846 27.65C25.6475 24.9431 26.6322 21.7754 26.6322 18.4894V6.72067L15.1571 3.22819L3.68194 6.72067ZM16.3715 33.9112H16.3724H16.3715Z" fill="white"/>
<path d="M12.9722 24.235L8.75941 20.0223C8.48775 19.7506 8.48775 19.3102 8.7594 19.0385L10.4648 17.333C10.7365 17.0613 11.1769 17.0613 11.4486 17.333L13.4641 19.3485L18.8651 13.9474C19.1368 13.6757 19.5773 13.6757 19.8489 13.9474L21.5543 15.6529C21.826 15.9246 21.826 16.365 21.5543 16.6367L13.956 24.235C13.6843 24.5067 13.2439 24.5067 12.9722 24.235Z" fill="white"/>
<path d="M24.9785 7.9766C24.1503 7.87703 23.3426 7.71026 22.541 7.52321C21.7402 7.33349 20.9475 7.11736 20.1616 6.8786C19.3757 6.64001 18.597 6.3778 17.8263 6.08929C17.0564 5.79826 16.2928 5.4865 15.5498 5.10693C16.3783 5.20564 17.1861 5.37216 17.9876 5.55941C18.7884 5.74918 19.5811 5.96525 20.3667 6.20492C21.1523 6.44445 21.931 6.70659 22.7017 6.99515C23.4716 7.28638 24.2353 7.59789 24.9785 7.9766Z" fill="#A0A0A0"/>
</svg>
