<svg width="40" height="39" viewBox="0 0 40 39" fill="none" xmlns="http://www.w3.org/2000/svg">
<path d="M31.291 26.8628H7.67152C3.56424 26.8628 0.222656 23.5212 0.222656 19.414C0.222656 15.3067 3.56424 11.9651 7.67152 11.9651C7.71367 11.9651 7.7563 11.9656 7.79979 11.9664C8.00588 5.55984 13.2818 0.411621 19.7376 0.411621C25.4112 0.411621 30.2753 4.38043 31.4278 9.89563C36.0431 9.96896 39.7752 13.7463 39.7752 18.3787C39.7752 23.0569 35.9691 26.8628 31.291 26.8628ZM7.67152 12.7463C3.99501 12.7463 1.00391 15.7375 1.00391 19.414C1.00391 23.0905 3.99501 26.0816 7.67152 26.0816H31.291C35.5384 26.0816 38.9939 22.6261 38.9939 18.3787C38.9939 14.1314 35.5384 10.6758 31.291 10.6758C31.2568 10.6758 31.2229 10.6771 31.189 10.6782L31.1151 10.6804C30.9229 10.6856 30.7564 10.5484 30.7222 10.3593C29.7634 5.04791 25.1437 1.19287 19.7376 1.19287C13.5824 1.19287 8.57475 6.20052 8.57475 12.3557L8.57503 12.3762C8.57503 12.4847 8.52992 12.5883 8.45048 12.6621C8.37114 12.736 8.26404 12.7745 8.15637 12.7658C7.97164 12.7525 7.81753 12.7463 7.67152 12.7463Z" fill="white"/>
<path d="M30.9601 15.502C30.9294 15.502 30.8981 15.4984 30.8669 15.4907C30.6574 15.4394 30.5291 15.228 30.5803 15.0184C30.7924 14.1521 30.8999 13.2562 30.8999 12.3557C30.8999 6.20052 25.8923 1.19287 19.7371 1.19287C13.5819 1.19287 8.57422 6.20052 8.57422 12.3557C8.57422 12.5714 8.39931 12.7463 8.18359 12.7463C7.96787 12.7463 7.79297 12.5714 7.79297 12.3557C7.79297 5.76974 13.1511 0.411621 19.7371 0.411621C26.3231 0.411621 31.6812 5.76974 31.6812 12.3557C31.6812 13.3187 31.5662 14.2771 31.3393 15.2042C31.2956 15.3825 31.1359 15.502 30.9601 15.502Z" fill="white"/>
<path d="M11.2222 12.3555C11.0582 11.2396 11.196 10.0673 11.5835 8.9781C11.9716 7.88785 12.6124 6.87987 13.4369 6.0553C14.2608 5.22997 15.269 4.58902 16.3593 4.20088C17.4486 3.81308 18.6212 3.67559 19.7372 3.84055C18.6236 4.00632 17.5671 4.30687 16.5973 4.77468C15.6276 5.23921 14.7482 5.86266 13.9954 6.61374C13.2435 7.36582 12.62 8.24544 12.1553 9.21521C11.6873 10.1851 11.3869 11.2419 11.2222 12.3555Z" fill="#666666"/>
<path opacity="0.4" d="M27.257 33.6508C33.2357 33.6508 38.0824 28.8041 38.0824 22.8254C38.0824 16.8467 33.2357 12 27.257 12C21.2783 12 16.4316 16.8467 16.4316 22.8254C16.4316 28.8041 21.2783 33.6508 27.257 33.6508Z" fill="#46A83E"/>
<path d="M19.3241 38.8112C20.4426 38.8112 21.3493 37.9045 21.3493 36.786C21.3493 35.6675 20.4426 34.7607 19.3241 34.7607C18.2056 34.7607 17.2988 35.6675 17.2988 36.786C17.2988 37.9045 18.2056 38.8112 19.3241 38.8112Z" fill="white"/>
<path d="M28.617 32.3146C29.7356 32.3146 30.6423 31.4079 30.6423 30.2894C30.6423 29.1709 29.7356 28.2642 28.617 28.2642C27.4985 28.2642 26.5918 29.1709 26.5918 30.2894C26.5918 31.4079 27.4985 32.3146 28.617 32.3146Z" fill="white"/>
<path d="M28.6184 30.6801H24.6074C24.3917 30.6801 24.2168 30.5052 24.2168 30.2894V22.0859C24.2168 21.8702 24.3917 21.6953 24.6074 21.6953C24.8231 21.6953 24.998 21.8702 24.998 22.0859V29.8988H28.6184C28.8341 29.8988 29.009 30.0737 29.009 30.2894C29.009 30.5052 28.8341 30.6801 28.6184 30.6801Z" fill="white"/>
<path d="M19.3223 37.1766C19.1065 37.1766 18.9316 37.0017 18.9316 36.786V22.0859C18.9316 21.8702 19.1065 21.6953 19.3223 21.6953C19.538 21.6953 19.7129 21.8702 19.7129 22.0859V36.786C19.7129 37.0017 19.538 37.1766 19.3223 37.1766Z" fill="white"/>
<path d="M10.0252 32.3146C11.1438 32.3146 12.0505 31.4079 12.0505 30.2894C12.0505 29.1709 11.1438 28.2642 10.0252 28.2642C8.90673 28.2642 8 29.1709 8 30.2894C8 31.4079 8.90673 32.3146 10.0252 32.3146Z" fill="white"/>
<path d="M14.0364 30.6801H10.0254C9.80967 30.6801 9.63477 30.5052 9.63477 30.2894C9.63477 30.0737 9.80967 29.8988 10.0254 29.8988H13.6457V22.0859C13.6457 21.8702 13.8206 21.6953 14.0364 21.6953C14.2521 21.6953 14.427 21.8702 14.427 22.0859V30.2894C14.427 30.5052 14.2521 30.6801 14.0364 30.6801Z" fill="white"/>
</svg>
