<svg width="50" height="50" viewBox="0 0 50 50" fill="none" xmlns="http://www.w3.org/2000/svg">
<path opacity="0.4" d="M17.6301 29.6654C23.6088 29.6654 28.4555 24.8187 28.4555 18.84C28.4555 12.8613 23.6088 8.01465 17.6301 8.01465C11.6514 8.01465 6.80469 12.8613 6.80469 18.84C6.80469 24.8187 11.6514 29.6654 17.6301 29.6654Z" fill="#46A83E"/>
<path d="M39.0387 7.37988C38.9352 7.81164 38.7649 8.19656 38.5779 8.56973C38.3877 8.94064 38.1725 9.29398 37.9357 9.63225C37.6991 9.97063 37.4401 10.2933 37.1561 10.5984C36.8691 10.9014 36.5648 11.1923 36.1934 11.4361C36.2961 11.0038 36.466 10.6187 36.6532 10.2457C36.8435 9.87479 37.0587 9.52141 37.2963 9.18373C37.5338 8.84599 37.7927 8.52329 38.0768 8.21816C38.364 7.9153 38.668 7.62419 39.0387 7.37988Z" fill="#666666"/>
<path d="M46.9166 23.8315C46.5589 24.0944 46.1803 24.2784 45.7966 24.4427C45.4119 24.6031 45.0194 24.7339 44.6202 24.8394C44.221 24.945 43.8149 25.0242 43.4011 25.0739C42.9862 25.12 42.5661 25.1456 42.125 25.0919C42.4825 24.8282 42.861 24.6438 43.2448 24.4798C43.6295 24.3194 44.022 24.1885 44.4215 24.0841C44.8209 23.9795 45.227 23.9002 45.6409 23.8506C46.0557 23.8048 46.4758 23.7788 46.9166 23.8315Z" fill="#666666"/>
<path d="M9.79705 16.6448C9.38551 16.4782 9.03017 16.2527 8.68896 16.0123C8.35044 15.769 8.03304 15.5036 7.73373 15.2192C7.43428 14.9349 7.15372 14.6308 6.89419 14.3047C6.63722 13.9758 6.39481 13.6316 6.20898 13.228C6.62117 13.3939 6.97678 13.6192 7.31782 13.8598C7.65629 14.1031 7.97374 14.3684 8.27232 14.6536C8.57102 14.9387 8.85163 15.2427 9.11112 15.5689C9.36791 15.898 9.61059 16.2419 9.79705 16.6448Z" fill="#666666"/>
<path d="M19.4742 40.916C19.3247 41.334 19.1138 41.6983 18.8876 42.0491C18.6584 42.3972 18.4061 42.7252 18.1342 43.0359C17.8624 43.3467 17.57 43.6395 17.2547 43.9121C16.9366 44.1823 16.6027 44.4386 16.207 44.6408C16.3559 44.2222 16.5665 43.8576 16.7929 43.5071C17.0222 43.1589 17.2743 42.8309 17.5471 42.5209C17.8197 42.2108 18.112 41.918 18.4273 41.6454C18.7456 41.3753 19.0793 41.1188 19.4742 40.916Z" fill="#666666"/>
<path d="M35.2978 40.8357C34.1154 40.8357 32.9309 40.6628 31.7716 40.3166C29.2515 39.5636 27.0805 38.0591 25.4934 35.9654C25.4182 35.8663 25.3947 35.737 25.4304 35.6177C25.466 35.4983 25.5564 35.4031 25.6738 35.3615C28.149 34.4813 30.7895 34.4142 33.31 35.167C35.8303 35.9199 38.0013 37.4246 39.5882 39.5181C39.6635 39.6172 39.6869 39.7465 39.6512 39.8658C39.6156 39.9852 39.5252 40.0803 39.4078 40.122C38.0711 40.5973 36.686 40.8357 35.2978 40.8357ZM26.4593 35.925C27.9088 37.6613 29.812 38.9158 31.9953 39.5679C34.1785 40.2202 36.4581 40.2152 38.6224 39.5585C37.173 37.8222 35.2697 36.5679 33.0863 35.9157C30.9029 35.2633 28.6235 35.2683 26.4593 35.925Z" fill="white"/>
<path d="M17.1963 38.7029C14.8608 38.7029 12.6016 38.0464 10.6165 36.784C10.5114 36.7173 10.4445 36.6043 10.4364 36.48C10.4282 36.3557 10.4798 36.235 10.5753 36.155C12.5889 34.4679 15.0407 33.4852 17.6656 33.3131C20.2904 33.1409 22.8496 33.7952 25.0662 35.205C25.1713 35.2719 25.2382 35.3848 25.2463 35.5091C25.2545 35.6333 25.2029 35.7541 25.1074 35.8341C23.0936 37.5211 20.6418 38.5039 18.0171 38.6759C17.7429 38.6939 17.4688 38.7029 17.1963 38.7029ZM11.5079 36.4097C13.4712 37.5324 15.6925 38.0452 17.966 37.8964C20.2397 37.7473 22.3748 36.9487 24.1748 35.5792C22.2116 34.4566 19.9903 33.9433 17.7167 34.0927C15.4427 34.2417 13.3077 35.0403 11.5079 36.4097Z" fill="white"/>
<path d="M31.5541 23.6961C31.526 23.6961 31.4975 23.693 31.469 23.6866C31.2584 23.6399 31.1256 23.4312 31.1724 23.2206C31.3513 22.4158 31.4885 21.5951 31.5803 20.7817C32.113 16.0631 31.2053 11.3916 28.9534 7.23487C25.8316 10.7847 23.9053 15.1364 23.3726 19.855C23.2808 20.6683 23.2317 21.4989 23.2266 22.3236C23.2252 22.5386 23.0506 22.7119 22.836 22.7119C22.8352 22.7119 22.8344 22.7119 22.8335 22.7119C22.6178 22.7105 22.444 22.5346 22.4453 22.3189C22.4506 21.4665 22.5014 20.6081 22.5963 19.7674C23.1681 14.7027 25.293 10.0466 28.7415 6.30256C28.8259 6.21091 28.9491 6.16571 29.0726 6.17906C29.1964 6.19298 29.3061 6.26518 29.3679 6.37332C31.8949 10.7921 32.9283 15.8047 32.3566 20.8693C32.2617 21.7102 32.1199 22.5583 31.935 23.3901C31.8946 23.5722 31.7332 23.6961 31.5541 23.6961Z" fill="white"/>
<path d="M25.7324 36.3433C25.6411 36.3433 25.5515 36.3113 25.4802 36.251C25.3851 36.1706 25.3341 36.0497 25.3427 35.9254C25.6419 31.6455 27.2658 27.6488 30.039 24.3676C32.8124 21.0864 36.4825 18.8192 40.6527 17.8112C40.7739 17.782 40.9017 17.8121 40.9967 17.8926C41.0918 17.973 41.1429 18.0939 41.1342 18.2181C40.8349 22.4982 39.211 26.4948 36.4379 29.7759C36.1383 30.1304 35.8163 30.4849 35.481 30.8294C35.3306 30.9842 35.0832 30.9874 34.9286 30.8371C34.774 30.6866 34.7707 30.4393 34.9211 30.2846C35.2437 29.9531 35.5533 29.6123 35.8412 29.2716C38.389 26.2571 39.9276 22.6141 40.3095 18.7057C36.5194 19.7332 33.1837 21.8574 30.6357 24.8719C28.0946 27.8785 26.5575 31.5101 26.1706 35.4065C26.2055 35.421 26.2404 35.4354 26.2753 35.4498L26.337 35.4753C26.4917 35.5393 26.5884 35.6948 26.5774 35.8619C26.5665 36.029 26.4502 36.1704 26.2885 36.2136C26.134 36.2549 25.9793 36.2949 25.824 36.3324C25.7937 36.3397 25.763 36.3433 25.7324 36.3433Z" fill="white"/>
<path d="M24.2051 46.1406C24.1732 46.1406 24.1412 46.1388 24.109 46.1352C23.8856 46.11 23.6853 45.9993 23.5451 45.8234C23.4049 45.6476 23.3417 45.4276 23.3669 45.2042L24.4525 35.5873C24.4389 35.5359 24.4358 35.4814 24.4444 35.4266C24.4701 35.2646 24.5941 35.136 24.7549 35.1044L24.7867 35.0984C24.9986 35.0577 25.2038 35.1943 25.2455 35.4061C25.2577 35.4677 25.2546 35.5288 25.2389 35.5854L24.1432 45.2918C24.1409 45.3125 24.1489 45.3275 24.156 45.3364C24.1632 45.3453 24.176 45.3565 24.1966 45.3589C24.2172 45.3609 24.2323 45.3532 24.2413 45.346C24.2502 45.3389 24.2614 45.3261 24.2637 45.3055L25.4045 35.2L25.5364 33.255C25.5955 30.075 24.8512 26.8932 23.3837 24.0528C21.5719 20.5459 18.7937 17.7316 15.3281 15.885C14.829 19.7801 15.5167 23.6745 17.3284 27.1812C17.5762 27.6609 17.8505 28.1407 18.1438 28.6074C18.2586 28.79 18.2035 29.0311 18.0209 29.1459C17.8383 29.2609 17.5971 29.2057 17.4823 29.023C17.1774 28.5379 16.8921 28.0388 16.6343 27.5398C14.6624 23.723 13.9703 19.4649 14.6328 15.2259C14.6521 15.1028 14.7288 14.9963 14.8395 14.9392C14.95 14.8818 15.0813 14.881 15.1928 14.9365C19.0334 16.8489 22.1058 19.8772 24.0777 23.6942C25.6061 26.6523 26.3805 29.9669 26.3174 33.2794C26.3172 33.2857 26.3169 33.292 26.3165 33.2983L26.1834 35.2615C26.183 35.2673 26.1825 35.2731 26.1818 35.2788L25.04 45.393C25.0148 45.6166 24.9041 45.8167 24.7282 45.9569C24.5777 46.077 24.3948 46.1406 24.2051 46.1406Z" fill="white"/>
<path d="M24.7912 35.8858C24.6068 35.8858 24.4428 35.7547 24.4077 35.5669C24.4009 35.5306 24.3993 35.4945 24.4025 35.4595C22.8262 32.6769 20.4644 30.4902 17.5591 29.1269C14.7467 27.8072 11.6665 27.3725 8.61722 27.8591C10.1597 30.4613 12.4071 32.5256 15.1459 33.8491C15.3401 33.9429 15.4215 34.1765 15.3277 34.3707C15.2337 34.5651 15.0002 34.6465 14.806 34.5525C11.755 33.0781 9.28431 30.7289 7.66111 27.7587C7.60141 27.6494 7.59736 27.5182 7.65029 27.4055C7.70317 27.2928 7.80669 27.212 7.92891 27.188C11.3171 26.5256 14.7618 26.9512 17.891 28.4196C21.0203 29.8881 23.5494 32.2654 25.2049 35.2947C25.2646 35.404 25.2686 35.5353 25.2157 35.648C25.1628 35.7607 25.0592 35.8415 24.937 35.8654L24.8634 35.8791C24.8392 35.8836 24.815 35.8858 24.7912 35.8858Z" fill="white"/>
<path d="M35.7308 37.0216C35.5527 37.0216 35.3918 36.899 35.3504 36.7181C35.3022 36.5078 35.4336 36.2983 35.6439 36.25C38.611 35.5703 41.2629 34.0594 43.3459 31.8678C40.4819 30.7134 37.3825 30.4507 34.3465 31.1102C31.2107 31.7914 28.4215 33.396 26.2646 35.7567C26.2599 35.792 26.2502 35.8273 26.2353 35.8616C26.149 36.0593 25.9188 36.1497 25.721 36.0634L25.697 36.0534C25.6821 36.0473 25.6673 36.0412 25.6528 36.0347C25.5387 35.9844 25.4555 35.8825 25.4289 35.7607C25.4023 35.6389 25.4355 35.5117 25.5181 35.4183C27.8072 32.8343 30.8027 31.0806 34.1806 30.3467C37.5587 29.613 41.0117 29.9657 44.1665 31.367C44.2803 31.4176 44.3633 31.5193 44.3897 31.641C44.4162 31.7628 44.383 31.8898 44.3004 31.983C42.0568 34.5154 39.1238 36.2543 35.8183 37.0117C35.789 37.0183 35.7596 37.0216 35.7308 37.0216Z" fill="white"/>
<path d="M24.8621 35.482C24.8514 35.4841 24.8407 35.4859 24.83 35.4879C24.8384 35.4926 24.8467 35.4975 24.8551 35.5022L23.7548 45.2483C23.7269 45.4959 23.905 45.7194 24.1526 45.7473C24.4003 45.7753 24.6237 45.5972 24.6517 45.3495L25.7934 35.2354" fill="white"/>
<path d="M24.205 46.141C24.1731 46.141 24.1411 46.1392 24.1089 46.1356C23.8854 46.1104 23.6852 45.9997 23.545 45.8238C23.4048 45.648 23.3415 45.4281 23.3668 45.2046L24.4524 35.5878C24.4388 35.5364 24.4356 35.4817 24.4443 35.427C24.4699 35.265 24.5939 35.1364 24.7548 35.1048L24.7865 35.0988C24.9985 35.0581 25.2036 35.1948 25.2454 35.4065C25.2575 35.4681 25.2545 35.5292 25.2388 35.5859L24.1431 45.2923C24.1407 45.313 24.1487 45.3279 24.1559 45.3368C24.163 45.3458 24.1759 45.3569 24.1965 45.3593C24.217 45.3613 24.2321 45.3536 24.2411 45.3464C24.2501 45.3393 24.2612 45.3265 24.2636 45.3059L25.4053 35.1917C25.4295 34.9773 25.6232 34.8225 25.8373 34.8473C26.0517 34.8716 26.2059 35.065 26.1816 35.2793L25.0398 45.3934C25.0147 45.617 24.9039 45.8172 24.728 45.9574C24.5775 46.0773 24.3946 46.141 24.205 46.141Z" fill="white"/>
</svg>
