<svg width="50" height="50" viewBox="0 0 50 50" fill="none" xmlns="http://www.w3.org/2000/svg">
<path opacity="0.4" d="M32.2258 30.4662C38.2045 30.4662 43.0512 25.6195 43.0512 19.6408C43.0512 13.6621 38.2045 8.81543 32.2258 8.81543C26.2471 8.81543 21.4004 13.6621 21.4004 19.6408C21.4004 25.6195 26.2471 30.4662 32.2258 30.4662Z" fill="#46A83E"/>
<path d="M23.6807 40.6029C15.0774 40.6029 8.07812 33.6037 8.07812 25.0004C8.07812 16.3972 15.0774 9.39795 23.6807 9.39795C32.2839 9.39795 39.2832 16.3972 39.2832 25.0004C39.2832 33.6037 32.2839 40.6029 23.6807 40.6029ZM23.6807 10.1792C15.5082 10.1792 8.85938 16.828 8.85938 25.0004C8.85938 33.1729 15.5082 39.8217 23.6807 39.8217C31.8531 39.8217 38.502 33.1729 38.502 25.0004C38.502 16.828 31.8531 10.1792 23.6807 10.1792Z" fill="white"/>
<path d="M20.9667 40.2023C20.932 40.2023 20.8968 40.1977 20.8617 40.1879C20.6539 40.13 20.5323 39.9146 20.5902 39.7068L21.0352 38.1087C21.1789 37.5927 21.5298 37.1473 21.998 36.8868L24.7572 35.3517C25.1492 35.1336 25.3927 34.7196 25.3927 34.2711V32.0799C25.3927 31.4819 24.9657 30.9704 24.3774 30.8634L24.0986 30.8126C23.3728 30.6807 22.7773 30.1638 22.5447 29.4635L21.6188 26.6756C21.4418 26.1427 20.927 25.7955 20.3663 25.8314L16.2677 26.0939C15.7039 26.1294 15.1483 25.9264 14.7412 25.5357L13.1163 23.9755C12.7222 23.5969 12.4961 23.0663 12.4961 22.52V22.0179C12.4961 21.3761 12.7907 20.7875 13.3043 20.4028C13.8179 20.0182 14.4658 19.9012 15.0814 20.0815C15.4926 20.2023 15.914 20.1104 16.2379 19.8303C16.5619 19.5502 16.7134 19.1463 16.6536 18.7222L16.333 16.449C16.2004 15.5085 16.7281 14.6166 17.6164 14.2802L19.0695 13.7299C19.5471 13.5489 19.868 13.0843 19.868 12.5735V10.1724C19.868 9.95664 20.0429 9.78174 20.2587 9.78174C20.4744 9.78174 20.6493 9.95664 20.6493 10.1724V12.5735C20.6493 13.4069 20.1256 14.1653 19.3462 14.4605L17.8931 15.0108C17.3487 15.2169 17.0253 15.7635 17.1066 16.3399L17.4272 18.6131C17.5233 19.295 17.2698 19.9709 16.7489 20.4213C16.2281 20.8717 15.5225 21.0247 14.8617 20.8313C14.4844 20.7205 14.0873 20.7924 13.7726 21.0281C13.4579 21.2639 13.2773 21.6247 13.2773 22.0179V22.52C13.2773 22.8548 13.4159 23.1799 13.6575 23.4119L15.2823 24.9721C15.5318 25.2116 15.8733 25.3373 16.2178 25.3141L20.3164 25.0517C21.2301 24.9935 22.0713 25.5597 22.3602 26.4294L23.2861 29.2172C23.4287 29.6463 23.7936 29.9631 24.2384 30.044L24.5172 30.0947C25.4771 30.2692 26.1739 31.1042 26.1739 32.0799V34.2711C26.1739 35.0029 25.7766 35.6786 25.1371 36.0344L22.3779 37.5694C22.091 37.7291 21.8759 38.0021 21.7878 38.3183L21.3428 39.9164C21.2947 40.0891 21.1377 40.2023 20.9667 40.2023Z" fill="white"/>
<path d="M14.3889 37.2265C14.2089 37.2265 14.0469 37.1013 14.0074 36.9182L13.2753 33.5254C13.2472 33.3953 13.2316 33.2617 13.229 33.1283L13.1667 29.9587C13.1579 29.5087 13.2988 29.0604 13.5634 28.6966C13.9546 28.1586 13.8768 27.4174 13.3826 26.9724L10.5161 24.3915C10.1581 24.0691 9.92204 23.6292 9.85147 23.1526L9.27965 19.2907C9.24808 19.0773 9.39547 18.8787 9.60886 18.8471C9.82267 18.8154 10.0209 18.9629 10.0525 19.1763L10.6243 23.0382C10.6683 23.3354 10.8155 23.6098 11.0389 23.8109L13.9053 26.3918C14.6978 27.1053 14.8224 28.2937 14.1952 29.1561C14.0301 29.3831 13.9423 29.6627 13.9477 29.9433L14.0101 33.1129C14.0117 33.1961 14.0215 33.2794 14.039 33.3605L14.7711 36.7534C14.8166 36.9643 14.6825 37.1722 14.4716 37.2177C14.4439 37.2237 14.4161 37.2265 14.3889 37.2265Z" fill="white"/>
<path d="M34.3499 21.7054H30.0989C29.3326 21.7054 28.6599 21.1881 28.4632 20.4475L28.2338 19.5839C28.085 19.0234 28.23 18.4336 28.622 18.0059C28.9429 17.6558 28.9391 17.1108 28.6133 16.7652L27.3752 15.4522C26.95 15.0012 26.8054 14.3551 26.9978 13.7659L28.0855 10.4336C28.1525 10.2285 28.3736 10.1166 28.5781 10.1834C28.7832 10.2504 28.8952 10.4709 28.8283 10.676L27.7405 14.0084C27.6369 14.3256 27.7148 14.6734 27.9436 14.9162L29.1817 16.2292C29.787 16.8712 29.7941 17.8836 29.1978 18.5339C28.9869 18.764 28.9088 19.0816 28.989 19.3833L29.2183 20.247C29.3242 20.6457 29.6864 20.9242 30.0989 20.9242H34.3499C34.666 20.9242 34.9643 20.7564 35.1285 20.4863L36.812 17.7172C36.924 17.5329 37.1642 17.4742 37.3487 17.5864C37.533 17.6985 37.5916 17.9388 37.4795 18.1231L35.7961 20.8922C35.4911 21.3939 34.9369 21.7054 34.3499 21.7054Z" fill="white"/>
<path d="M33.82 36.7306C33.8045 36.7306 33.789 36.7298 33.7732 36.7279C33.559 36.7023 33.4061 36.5079 33.4316 36.2937L33.983 31.6737C34.011 31.4387 33.9399 31.2118 33.7828 31.0349C33.6257 30.858 33.4089 30.7605 33.1723 30.7605C32.3795 30.7605 31.7156 30.1919 31.5937 29.4085L31.0482 25.9005C30.9447 25.2355 31.2725 24.5728 31.8639 24.2513L34.9154 22.5927C35.2353 22.4188 35.6088 22.3593 35.9669 22.4249L38.8738 22.9587C39.086 22.9977 39.2264 23.2013 39.1874 23.4135C39.1484 23.6258 38.9442 23.766 38.7326 23.7272L35.8257 23.1934C35.6429 23.1597 35.4521 23.1903 35.2884 23.2791L32.237 24.9378C31.9348 25.102 31.7673 25.4406 31.8201 25.7804L32.3656 29.2884C32.4279 29.6887 32.7672 29.9793 33.1723 29.9793C33.6286 29.9793 34.064 30.175 34.367 30.5162C34.67 30.8574 34.8128 31.313 34.7587 31.7662L34.2074 36.3862C34.1837 36.5848 34.015 36.7306 33.82 36.7306Z" fill="white"/>
<path d="M2.46536 40.2129C1.38699 40.2129 1.02669 39.8961 0.871243 39.571C0.52382 38.8444 1.19549 37.8428 3.04915 36.3235C4.6116 35.0429 6.99455 33.4382 9.94035 31.6832C10.1257 31.5729 10.3655 31.6335 10.4759 31.8189C10.5863 32.0042 10.5256 32.2439 10.3402 32.3544C7.42723 34.0899 5.07728 35.6712 3.54439 36.9277C1.36324 38.7155 1.57372 39.229 1.5761 39.234C1.58078 39.2437 2.12308 40.1826 9.11423 37.8944C13.8693 36.3381 19.9774 33.8125 26.3133 30.7832C32.6492 27.7537 38.4499 24.5852 42.6467 21.8613C48.817 17.8564 48.4269 16.8449 48.4222 16.8351C48.4178 16.826 47.9083 15.9394 41.4539 17.991C41.248 18.0564 41.0288 17.9426 40.9633 17.737C40.8979 17.5314 41.0116 17.3118 41.2172 17.2464C47.6501 15.2019 48.8126 15.8402 49.127 16.4981C49.4542 17.1824 49.1824 18.5507 43.072 22.5166C38.8477 25.2583 33.0157 28.4444 26.6503 31.488C20.2849 34.5315 14.1434 37.0704 9.35723 38.6369C5.72363 39.8261 3.6565 40.2128 2.46536 40.2129Z" fill="white"/>
<path d="M42.9548 15.558L43.7837 18.1064C43.9568 18.6385 43.4969 19.1617 42.947 19.0584L40.201 18.5426C39.6284 18.435 39.4013 17.7368 39.8011 17.3129L41.7182 15.2804C42.1021 14.8734 42.7817 15.0259 42.9548 15.558Z" fill="white"/>
<path d="M42.1147 25C42.2754 26.0185 42.2776 27.0601 42.1666 28.0902C42.0558 29.1211 41.8215 30.1404 41.4858 31.1242C41.146 32.1066 40.7037 33.0544 40.1568 33.9353C39.6124 34.8167 38.9675 35.6354 38.2148 36.3398C38.7099 35.4358 39.1937 34.5519 39.617 33.6419C40.0469 32.7363 40.4202 31.811 40.7472 30.8702C41.0695 29.9276 41.3443 28.9685 41.5627 27.99C41.7871 27.0119 41.9515 26.0173 42.1147 25Z" fill="#666666"/>
<path d="M5.2496 25.0002C5.16804 23.7933 5.23293 22.5728 5.41366 21.3664C5.61304 20.1637 5.92031 18.9712 6.36975 17.8292C6.80892 16.6832 7.37978 15.5868 8.05044 14.5554C8.38089 14.0359 8.75362 13.5448 9.13673 13.063C9.33379 12.8264 9.52943 12.5885 9.73919 12.3629C9.94236 12.1313 10.1586 11.912 10.3737 11.6916C11.2452 10.821 12.2067 10.0407 13.2356 9.36552C14.2692 8.69847 15.3623 8.12028 16.5113 7.68751C18.7961 6.79444 21.2684 6.404 23.6822 6.56768C21.2705 6.73078 18.9142 7.28377 16.7448 8.25065C15.6596 8.7313 14.6248 9.31555 13.6479 9.98128C13.1636 10.3201 12.6855 10.6684 12.2355 11.0515C12.0049 11.2362 11.7868 11.4355 11.5657 11.6312C11.4542 11.728 11.3509 11.8339 11.2431 11.9347C11.1373 12.0376 11.0273 12.1364 10.926 12.2438C10.0917 13.0797 9.33051 13.9893 8.6634 14.9657C8.32293 15.4494 8.01623 15.9561 7.72516 16.4717C7.58484 16.7323 7.44178 16.9918 7.31319 17.2587C7.24783 17.3917 7.17679 17.5221 7.1159 17.6573L6.93075 18.0618C6.86663 18.1958 6.81296 18.3341 6.75577 18.4711C6.70012 18.6087 6.64026 18.7449 6.5879 18.8838C6.48745 19.1632 6.37668 19.4396 6.28557 19.7228L6.14373 20.1464L6.01728 20.5751L5.95404 20.7897L5.89907 21.0065L5.78794 21.4404C5.50733 22.6025 5.3406 23.7943 5.2496 25.0002Z" fill="#666666"/>
<path d="M35.7223 38.9561C35.1842 39.5248 34.5924 40.0446 33.9674 40.5253C33.3323 40.9902 32.6739 41.4327 31.9743 41.805L31.8444 41.8773L31.7116 41.9438L31.4458 42.0768C31.2682 42.1649 31.0911 42.2545 30.908 42.3308L30.3617 42.5678L29.8045 42.7783C29.7112 42.8122 29.6192 42.8503 29.5247 42.8808L29.2407 42.9709C29.0508 43.0292 28.863 43.0952 28.6711 43.1469L28.0941 43.2977L27.9498 43.3351L27.804 43.3661L27.5123 43.4281C27.1242 43.5156 26.7297 43.5681 26.3373 43.6311C26.1403 43.657 25.9421 43.6735 25.7446 43.695L25.4483 43.7254C25.3493 43.7339 25.2499 43.7371 25.1508 43.7424L24.556 43.7716L23.9608 43.7708C23.5643 43.7755 23.1681 43.7489 22.7736 43.7175C21.1962 43.5825 19.639 43.2221 18.1992 42.604C19.7343 42.9083 21.2688 43.094 22.8028 43.1039C22.9943 43.1073 23.1859 43.1046 23.3772 43.102L23.6641 43.0962L23.9507 43.082L24.5231 43.0545L25.0936 43.0036L25.3786 42.978L25.6624 42.9418C25.8514 42.9165 26.041 42.8964 26.2293 42.8671C26.605 42.8024 26.9827 42.7498 27.354 42.6632C28.102 42.5166 28.8377 42.3126 29.5638 42.0793C30.2931 41.8528 31.0005 41.5618 31.7029 41.2563L32.2253 41.0156C32.399 40.9338 32.5672 40.8417 32.7405 40.758L32.9989 40.6293L33.2514 40.4896C33.4193 40.3955 33.5896 40.3044 33.7564 40.2075C34.4275 39.8241 35.0719 39.3938 35.7223 38.9561Z" fill="#666666"/>
</svg>
