<svg width="19" height="24" viewBox="0 0 19 24" fill="none" xmlns="http://www.w3.org/2000/svg">
<path d="M14.2512 16.795C14.943 16.4159 15.1187 15.3869 15.6803 14.8549C16.242 14.3228 17.3281 14.1574 17.7285 13.5016C18.1233 12.8552 17.7367 11.8826 17.9449 11.1443C18.1456 10.4295 18.9571 9.77325 18.9571 8.99982C18.9571 8.2264 18.1026 7.56923 17.9012 6.85627C17.693 6.11801 18.0799 5.14537 17.6852 4.49897C17.285 3.84368 16.1992 3.67774 15.6375 3.14572C15.0759 2.6137 14.9007 1.58481 14.2089 1.2056C13.5266 0.831593 12.4998 1.19793 11.7204 1.00053C11.0101 0.809515 10.3173 0 9.50082 0C8.68434 0 7.99157 0.809515 7.23942 1.00029C6.45758 1.19716 5.43326 0.831078 4.7494 1.20466C4.05762 1.58388 3.88245 2.61276 3.32081 3.14431C2.75966 3.67633 1.673 3.84227 1.27268 4.49757C0.8778 5.14209 1.26476 6.11707 1.05644 6.85299C0.854543 7.57016 0 8.2264 0 8.99982C0 9.77325 0.854582 10.4304 1.05598 11.1434C1.26416 11.8816 0.877097 12.8543 1.27178 13.5007C1.67251 14.156 2.75818 14.32 3.31932 14.8544C3.88096 15.3864 4.05613 16.4153 4.74841 16.795C5.43079 17.169 6.45708 16.8024 7.23645 16.9998C7.99157 17.1887 8.68434 17.9996 9.50082 17.9996C10.3173 17.9996 11.0111 17.1901 11.7642 16.9994C12.5441 16.8044 13.5684 17.17 14.2512 16.795ZM5.54213 8.99982C5.54213 6.92471 7.31414 5.2499 9.50082 5.2499C11.6875 5.2499 13.4595 6.92471 13.4595 8.99982C13.4595 11.0703 11.6875 12.7498 9.50082 12.7498C7.31414 12.7498 5.54213 11.0717 5.54213 8.99982ZM0.0850228 20.3059C-0.075799 20.6897 -0.00310759 21.1252 0.276772 21.4426C0.556651 21.7589 0.995769 21.9065 1.42083 21.8245L3.657 21.401L4.71743 23.3823C4.9216 23.7652 5.3244 23.9995 5.7747 23.9995C5.79171 23.9995 5.80756 23.999 5.82458 23.9983C6.29467 23.9807 6.69797 23.7132 6.87561 23.3008L8.53727 19.4533C5.87951 19.2359 3.48994 18.1352 1.69863 16.4557L0.0850228 20.3059ZM17.2994 16.4575C15.5106 18.137 13.1205 19.2376 10.4608 19.4551L12.1225 23.3025C12.3003 23.7149 12.7034 23.9822 13.1735 24C13.1923 23.9573 13.1676 23.9995 13.2269 23.9995C13.6769 23.9995 14.0795 23.7664 14.2834 23.3836L15.3438 21.4018L17.58 21.8253C18.0053 21.9073 18.4445 21.7597 18.7241 21.4433C19.004 21.1262 19.0766 20.6905 18.9158 20.3067L17.2994 16.4575Z" fill="black"/>
<path d="M14.2512 16.795C14.943 16.4159 15.1187 15.3869 15.6803 14.8549C16.242 14.3228 17.3281 14.1574 17.7285 13.5016C18.1233 12.8552 17.7367 11.8826 17.9449 11.1443C18.1456 10.4295 18.9571 9.77325 18.9571 8.99982C18.9571 8.2264 18.1026 7.56923 17.9012 6.85627C17.693 6.11801 18.0799 5.14537 17.6852 4.49897C17.285 3.84368 16.1992 3.67774 15.6375 3.14572C15.0759 2.6137 14.9007 1.58481 14.2089 1.2056C13.5266 0.831593 12.4998 1.19793 11.7204 1.00053C11.0101 0.809515 10.3173 0 9.50082 0C8.68434 0 7.99157 0.809515 7.23942 1.00029C6.45758 1.19716 5.43326 0.831078 4.7494 1.20466C4.05762 1.58388 3.88245 2.61276 3.32081 3.14431C2.75966 3.67633 1.673 3.84227 1.27268 4.49757C0.8778 5.14209 1.26476 6.11707 1.05644 6.85299C0.854543 7.57016 0 8.2264 0 8.99982C0 9.77325 0.854582 10.4304 1.05598 11.1434C1.26416 11.8816 0.877097 12.8543 1.27178 13.5007C1.67251 14.156 2.75818 14.32 3.31932 14.8544C3.88096 15.3864 4.05613 16.4153 4.74841 16.795C5.43079 17.169 6.45708 16.8024 7.23645 16.9998C7.99157 17.1887 8.68434 17.9996 9.50082 17.9996C10.3173 17.9996 11.0111 17.1901 11.7642 16.9994C12.5441 16.8044 13.5684 17.17 14.2512 16.795ZM5.54213 8.99982C5.54213 6.92471 7.31414 5.2499 9.50082 5.2499C11.6875 5.2499 13.4595 6.92471 13.4595 8.99982C13.4595 11.0703 11.6875 12.7498 9.50082 12.7498C7.31414 12.7498 5.54213 11.0717 5.54213 8.99982ZM0.0850228 20.3059C-0.075799 20.6897 -0.00310759 21.1252 0.276772 21.4426C0.556651 21.7589 0.995769 21.9065 1.42083 21.8245L3.657 21.401L4.71743 23.3823C4.9216 23.7652 5.3244 23.9995 5.7747 23.9995C5.79171 23.9995 5.80756 23.999 5.82458 23.9983C6.29467 23.9807 6.69797 23.7132 6.87561 23.3008L8.53727 19.4533C5.87951 19.2359 3.48994 18.1352 1.69863 16.4557L0.0850228 20.3059ZM17.2994 16.4575C15.5106 18.137 13.1205 19.2376 10.4608 19.4551L12.1225 23.3025C12.3003 23.7149 12.7034 23.9822 13.1735 24C13.1923 23.9573 13.1676 23.9995 13.2269 23.9995C13.6769 23.9995 14.0795 23.7664 14.2834 23.3836L15.3438 21.4018L17.58 21.8253C18.0053 21.9073 18.4445 21.7597 18.7241 21.4433C19.004 21.1262 19.0766 20.6905 18.9158 20.3067L17.2994 16.4575Z" fill="url(#paint0_linear_717_2001)"/>
<defs>
<linearGradient id="paint0_linear_717_2001" x1="1.69529" y1="2.67682e-05" x2="19.7624" y2="0.387577" gradientUnits="userSpaceOnUse">
<stop stop-color="#ECBF4D"/>
<stop offset="1" stop-color="#ED5647"/>
</linearGradient>
</defs>
</svg>
