<svg width="49" height="58" viewBox="0 0 49 58" fill="none" xmlns="http://www.w3.org/2000/svg">
<mask id="path-1-inside-1_30_50570" fill="white">
<path d="M46.3848 33.2673L49 29.6979L44.8826 31.3223L44.4795 30.0339L42.2536 32.7596L42.3208 31.3699L40.3163 33.6324L40.2842 32.37L37.5851 35.358L37.5225 34.0297L35.9882 36.7892L35.7256 35.7154L34.205 38.5884L34.0631 37.1772L32.4433 40.7758L32.4707 39.0455L30.5288 42.6349L30.5273 41.4384L26.877 45.9404L28.5212 43.7991L31.7914 39.3615L30.828 39.4459L33.2463 37.2846L32.5013 36.9395L34.3684 35.4946L33.4845 35.3151L35.9256 33.4084L35.2493 33.2627L37.7744 31.1444L36.7378 30.9787L38.9499 28.7853L37.9866 28.8696L40.2552 26.1577L39.1911 26.2497L41.6674 23.57L40.1972 23.6973L42.1162 21.0666L40.9499 21.1679L42.9529 18.3256L42.0231 18.2013L43.5803 16.1152L42.6918 15.8851L44.3971 10.1943L40.8125 14.9479L40.0919 14.3773L39.3805 16.8852L38.7194 16.2164L37.6782 19.5389L37.0538 18.5449L36.1302 21.671L35.3424 20.4178L34.718 24.0194L34.147 23.1113L33.3699 26.5672L32.8539 25.7466L32.4539 28.8435L31.6952 28.1149L31.5441 31.4159L31.0189 30.9634L30.9853 34.0696L30.3074 33.4713L30.2922 35.8397L29.567 35.4531L29.3182 38.6958L28.8022 37.8752L26.0541 46.488L27.4556 40.3079L26.7335 40.3708L28.0755 37.7141L27.0648 37.9948L28.5533 34.8242L27.3824 35.2338L28.6128 32.8394L27.8297 33.0771L28.9212 30.6336L27.306 31.0048L28.7457 27.2606L27.5518 27.6333L28.8617 24.1697L27.7594 24.2664L28.7777 21.4056L27.5808 21.7416L28.2006 18.2627L27.3839 18.5648L27.5655 15.7777L26.5335 16.2533L26.9228 13.2177L25.7259 13.5536L26.1305 11.1315L24.9366 11.5043L25.1931 8.71104L24.1199 9.15128L24.1061 6.47154L23.3672 6.79213L23.1565 4.34709L22.671 4.6462L21.755 0L21.6528 4.73056L21.1245 4.52042L21.3352 6.96546L20.552 6.77679L20.9978 9.41971L19.865 9.17122L20.5963 11.8786L19.3566 11.7175L20.1688 14.0337L18.9322 13.911L19.836 16.8346L18.7383 16.5447L19.3933 19.2597L18.5368 19.1032L19.7429 22.4242L18.5063 22.3014L19.9978 24.9428L18.8956 25.0395L20.7795 28.2238L19.5398 28.0628L21.5993 31.5018L19.9444 31.4144L21.439 33.6324L20.6253 33.5327L22.2466 35.6786L21.0222 35.4777L23.0313 38.343L21.9886 38.2418L23.7657 40.627L23.0436 40.6899L25.1977 45.7871L21.3001 38.5271L20.9322 39.426L20.1322 36.2753L19.4849 36.7815L19.0635 34.4515L18.4987 35.1586L17.9338 32.1046L17.4941 32.6415L16.7796 29.4157L16.1567 30.2639L15.2316 27.282L14.8637 28.1809L13.5064 24.9106L13.1004 25.903L11.8668 22.461L11.305 23.8323L9.85923 20.9117L9.41345 21.9993L7.81808 18.9069L7.28069 19.68L6.15095 17.3331L5.53876 18.0203L1.19844 13.9539L3.85331 19.2658L3.01823 19.6463L4.90824 21.4317L4.01362 21.7155L6.47308 24.1697L5.3067 24.271L7.64709 26.5304L6.17691 26.6577L9.07453 28.8681L8.01044 28.9601L10.7096 31.2395L9.74626 31.3239L12.3004 33.1032L11.308 33.4468L14.1583 35.0973L13.5171 35.358L16.2483 36.8137L15.4087 37.1435L17.4956 38.2448L16.8208 38.7142L19.5734 40.4245L18.6101 40.5089L21.9856 42.9355L25.3809 46.5433L20.2101 42.3373L20.4131 43.5169L17.8865 40.3156L18.2101 42.0152L15.998 38.751L16.1003 40.1653L14.1095 37.5975L14.0347 38.7004L12.05 36.2492L12.2149 37.5684L9.04399 35.0911L9.22719 36.3397L6.86543 34.4576L7.16924 35.8151L4.50978 33.5143L4.33422 34.8518L0 33.9637L3.18769 37.0285L2.19382 37.9365L5.59066 38.8216L4.30826 39.3431L7.19367 40.2205L6.06699 40.7804L9.90045 41.986L8.72797 42.6011L11.8653 42.842L11.0058 43.5322L14.2393 43.7132L13.024 44.4342L16.9537 44.4004L15.3781 45.1029L19.436 45.3652L18.3552 45.8699L24.9 46.8347L21.7917 46.827L22.21 47.4421L20.3246 46.9912L20.8848 47.6661L18.317 47.2274L18.9292 48.1017L16.3293 47.89L17.233 48.6662L15.1003 48.8901L15.6163 49.3104L12.8225 50.4931L15.8606 50.4333L15.5659 51.0315L17.5979 50.3428L17.1002 51.4272L19.375 50.1464L19.1826 51.1971L21.3337 49.7231L21.1062 50.5713L22.6314 49.3733L22.5062 50.1081L25.5305 47.4467C25.732 48.1508 26.5976 51.9319 23.8603 57.48C23.8603 57.48 24.2756 57.7484 24.9091 58C24.9091 58 27.0098 53.8216 26.1717 47.66L26.0999 47.4023L29.593 49.4914L29.3441 48.7904L31.0525 49.7077L30.683 48.9116L33.0539 49.9915L32.6845 48.9898L35.1439 49.8596L34.4676 48.8779L36.5866 49.2046L36.1943 48.6662L39.2919 48.2214L36.2416 47.5173L36.6782 47.0142L34.5394 47.1614L35.2966 46.2396L32.7715 46.8976L33.2249 45.9312L30.77 46.8071L31.2067 46.0448L29.4266 46.8148L29.7334 46.1368L26.6816 46.7718L32.9547 44.5998L31.8036 44.29L35.7561 43.3297L34.086 42.911L37.9637 42.2652L36.6431 41.7636L39.7972 41.0273L38.8324 40.4951L41.8811 39.7159L40.6201 39.3124L44.1895 37.4626L42.9834 37.1052L45.6749 35.7415L44.3223 35.4485L47.5161 33.9898L46.3848 33.2673Z"/>
</mask>
<path d="M46.3848 33.2673L49 29.6979L44.8826 31.3223L44.4795 30.0339L42.2536 32.7596L42.3208 31.3699L40.3163 33.6324L40.2842 32.37L37.5851 35.358L37.5225 34.0297L35.9882 36.7892L35.7256 35.7154L34.205 38.5884L34.0631 37.1772L32.4433 40.7758L32.4707 39.0455L30.5288 42.6349L30.5273 41.4384L26.877 45.9404L28.5212 43.7991L31.7914 39.3615L30.828 39.4459L33.2463 37.2846L32.5013 36.9395L34.3684 35.4946L33.4845 35.3151L35.9256 33.4084L35.2493 33.2627L37.7744 31.1444L36.7378 30.9787L38.9499 28.7853L37.9866 28.8696L40.2552 26.1577L39.1911 26.2497L41.6674 23.57L40.1972 23.6973L42.1162 21.0666L40.9499 21.1679L42.9529 18.3256L42.0231 18.2013L43.5803 16.1152L42.6918 15.8851L44.3971 10.1943L40.8125 14.9479L40.0919 14.3773L39.3805 16.8852L38.7194 16.2164L37.6782 19.5389L37.0538 18.5449L36.1302 21.671L35.3424 20.4178L34.718 24.0194L34.147 23.1113L33.3699 26.5672L32.8539 25.7466L32.4539 28.8435L31.6952 28.1149L31.5441 31.4159L31.0189 30.9634L30.9853 34.0696L30.3074 33.4713L30.2922 35.8397L29.567 35.4531L29.3182 38.6958L28.8022 37.8752L26.0541 46.488L27.4556 40.3079L26.7335 40.3708L28.0755 37.7141L27.0648 37.9948L28.5533 34.8242L27.3824 35.2338L28.6128 32.8394L27.8297 33.0771L28.9212 30.6336L27.306 31.0048L28.7457 27.2606L27.5518 27.6333L28.8617 24.1697L27.7594 24.2664L28.7777 21.4056L27.5808 21.7416L28.2006 18.2627L27.3839 18.5648L27.5655 15.7777L26.5335 16.2533L26.9228 13.2177L25.7259 13.5536L26.1305 11.1315L24.9366 11.5043L25.1931 8.71104L24.1199 9.15128L24.1061 6.47154L23.3672 6.79213L23.1565 4.34709L22.671 4.6462L21.755 0L21.6528 4.73056L21.1245 4.52042L21.3352 6.96546L20.552 6.77679L20.9978 9.41971L19.865 9.17122L20.5963 11.8786L19.3566 11.7175L20.1688 14.0337L18.9322 13.911L19.836 16.8346L18.7383 16.5447L19.3933 19.2597L18.5368 19.1032L19.7429 22.4242L18.5063 22.3014L19.9978 24.9428L18.8956 25.0395L20.7795 28.2238L19.5398 28.0628L21.5993 31.5018L19.9444 31.4144L21.439 33.6324L20.6253 33.5327L22.2466 35.6786L21.0222 35.4777L23.0313 38.343L21.9886 38.2418L23.7657 40.627L23.0436 40.6899L25.1977 45.7871L21.3001 38.5271L20.9322 39.426L20.1322 36.2753L19.4849 36.7815L19.0635 34.4515L18.4987 35.1586L17.9338 32.1046L17.4941 32.6415L16.7796 29.4157L16.1567 30.2639L15.2316 27.282L14.8637 28.1809L13.5064 24.9106L13.1004 25.903L11.8668 22.461L11.305 23.8323L9.85923 20.9117L9.41345 21.9993L7.81808 18.9069L7.28069 19.68L6.15095 17.3331L5.53876 18.0203L1.19844 13.9539L3.85331 19.2658L3.01823 19.6463L4.90824 21.4317L4.01362 21.7155L6.47308 24.1697L5.3067 24.271L7.64709 26.5304L6.17691 26.6577L9.07453 28.8681L8.01044 28.9601L10.7096 31.2395L9.74626 31.3239L12.3004 33.1032L11.308 33.4468L14.1583 35.0973L13.5171 35.358L16.2483 36.8137L15.4087 37.1435L17.4956 38.2448L16.8208 38.7142L19.5734 40.4245L18.6101 40.5089L21.9856 42.9355L25.3809 46.5433L20.2101 42.3373L20.4131 43.5169L17.8865 40.3156L18.2101 42.0152L15.998 38.751L16.1003 40.1653L14.1095 37.5975L14.0347 38.7004L12.05 36.2492L12.2149 37.5684L9.04399 35.0911L9.22719 36.3397L6.86543 34.4576L7.16924 35.8151L4.50978 33.5143L4.33422 34.8518L0 33.9637L3.18769 37.0285L2.19382 37.9365L5.59066 38.8216L4.30826 39.3431L7.19367 40.2205L6.06699 40.7804L9.90045 41.986L8.72797 42.6011L11.8653 42.842L11.0058 43.5322L14.2393 43.7132L13.024 44.4342L16.9537 44.4004L15.3781 45.1029L19.436 45.3652L18.3552 45.8699L24.9 46.8347L21.7917 46.827L22.21 47.4421L20.3246 46.9912L20.8848 47.6661L18.317 47.2274L18.9292 48.1017L16.3293 47.89L17.233 48.6662L15.1003 48.8901L15.6163 49.3104L12.8225 50.4931L15.8606 50.4333L15.5659 51.0315L17.5979 50.3428L17.1002 51.4272L19.375 50.1464L19.1826 51.1971L21.3337 49.7231L21.1062 50.5713L22.6314 49.3733L22.5062 50.1081L25.5305 47.4467C25.732 48.1508 26.5976 51.9319 23.8603 57.48C23.8603 57.48 24.2756 57.7484 24.9091 58C24.9091 58 27.0098 53.8216 26.1717 47.66L26.0999 47.4023L29.593 49.4914L29.3441 48.7904L31.0525 49.7077L30.683 48.9116L33.0539 49.9915L32.6845 48.9898L35.1439 49.8596L34.4676 48.8779L36.5866 49.2046L36.1943 48.6662L39.2919 48.2214L36.2416 47.5173L36.6782 47.0142L34.5394 47.1614L35.2966 46.2396L32.7715 46.8976L33.2249 45.9312L30.77 46.8071L31.2067 46.0448L29.4266 46.8148L29.7334 46.1368L26.6816 46.7718L32.9547 44.5998L31.8036 44.29L35.7561 43.3297L34.086 42.911L37.9637 42.2652L36.6431 41.7636L39.7972 41.0273L38.8324 40.4951L41.8811 39.7159L40.6201 39.3124L44.1895 37.4626L42.9834 37.1052L45.6749 35.7415L44.3223 35.4485L47.5161 33.9898L46.3848 33.2673Z" stroke="#006838" stroke-width="2" mask="url(#path-1-inside-1_30_50570)"/>
</svg>
