<svg width="12" height="15" viewBox="0 0 12 15" fill="none" xmlns="http://www.w3.org/2000/svg">
<mask id="path-1-inside-1_1533_6286" fill="white">
<path d="M11.3595 8.60362L12 7.6805L10.9916 8.1006L10.8929 7.76738L10.3478 8.47231L10.3643 8.1129L9.87338 8.69803L9.86553 8.37155L9.20451 9.14432L9.18918 8.80078L8.81343 9.51444L8.74913 9.23675L8.37674 9.97977L8.34197 9.6148L7.94529 10.5455L7.95202 10.098L7.47645 11.0263L7.47607 10.7168L6.58213 11.8811L6.98479 11.3274L7.78564 10.1797L7.54973 10.2015L8.14195 9.64257L7.9595 9.55332L8.41675 9.17963L8.20027 9.13321L8.7981 8.64011L8.63248 8.60243L9.25087 8.05459L8.99701 8.01174L9.53876 7.44446L9.30284 7.46628L9.85843 6.76492L9.59783 6.78872L10.2043 6.09568L9.84422 6.12861L10.3142 5.44827L10.0285 5.47445L10.5191 4.73937L10.2914 4.70724L10.6727 4.16772L10.4551 4.10822L10.8728 2.63646L9.99489 3.86584L9.81842 3.71826L9.64419 4.36687L9.4823 4.19391L9.22732 5.05316L9.0744 4.7961L8.8482 5.60457L8.65528 5.28047L8.50237 6.21192L8.36254 5.97707L8.17223 6.87083L8.04586 6.6586L7.94791 7.45954L7.76209 7.2711L7.72507 8.1248L7.59646 8.00778L7.58823 8.81109L7.42223 8.65638L7.41849 9.26888L7.2409 9.16891L7.17996 10.0075L7.05359 9.7953L6.38061 12.0228L6.72383 10.4245L6.54698 10.4407L6.87562 9.75365L6.62812 9.82625L6.99265 9.00627L6.70588 9.11219L7.00723 8.49294L6.81543 8.55443L7.08275 7.92249L6.68719 8.01849L7.03975 7.05014L6.74738 7.14654L7.06817 6.25079L6.79823 6.27579L7.04761 5.53594L6.75449 5.62282L6.90628 4.7231L6.70626 4.80125L6.75075 4.08045L6.49801 4.20343L6.59334 3.41836L6.30022 3.50524L6.3993 2.87885L6.10693 2.97525L6.16974 2.25286L5.9069 2.36671L5.90354 1.67367L5.72258 1.75659L5.67099 1.12425L5.55209 1.2016L5.32777 0L5.30272 1.22342L5.17335 1.16907L5.22495 1.80141L5.03315 1.75262L5.14232 2.43613L4.8649 2.37187L5.04399 3.07204L4.7404 3.03039L4.93931 3.6294L4.63647 3.59767L4.8578 4.35378L4.58898 4.2788L4.74938 4.98096L4.53963 4.9405L4.83499 5.79935L4.53215 5.76761L4.89743 6.45073L4.62749 6.47572L5.08886 7.29927L4.78527 7.25762L5.28963 8.14702L4.88435 8.1244L5.25037 8.69803L5.0511 8.67225L5.44815 9.22723L5.1483 9.17526L5.64033 9.9163L5.38497 9.89011L5.82016 10.507L5.64332 10.5232L6.17086 11.8415L5.21635 9.9639L5.12625 10.1964L4.93033 9.38155L4.77181 9.51246L4.66862 8.90987L4.53028 9.09275L4.39195 8.30292L4.28427 8.44176L4.1093 7.60751L3.95675 7.82688L3.73018 7.0557L3.64008 7.28816L3.3077 6.4424L3.20825 6.69906L2.90616 5.80887L2.76857 6.16352L2.41451 5.4082L2.30533 5.68946L1.91463 4.88972L1.78303 5.08965L1.50636 4.4827L1.35643 4.66043L0.293494 3.60878L0.943669 4.98254L0.739157 5.08093L1.20202 5.54269L0.982926 5.61607L1.58524 6.25079L1.2996 6.27698L1.87276 6.86131L1.51271 6.89424L2.22233 7.46588L1.96174 7.48969L2.62276 8.07918L2.38684 8.101L3.01234 8.56117L2.76932 8.65003L3.46735 9.07688L3.31032 9.14432L3.97919 9.52079L3.77355 9.60608L4.28465 9.89091L4.11939 10.0123L4.79349 10.4546L4.55758 10.4764L5.38422 11.104L6.21573 12.0371L4.9494 10.9493L4.99913 11.2544L4.38036 10.4265L4.45962 10.866L3.91787 10.0218L3.94292 10.3876L3.45538 9.7235L3.43706 10.0087L2.95102 9.3748L2.9914 9.71596L2.21486 9.07529L2.25972 9.39821L1.68133 8.91146L1.75573 9.26254L1.10444 8.66749L1.06144 9.01341L0 8.78372L0.780658 9.57632L0.537263 9.81117L1.36914 10.0401L1.05508 10.1749L1.76171 10.4019L1.48579 10.5467L2.4246 10.8585L2.13746 11.0175L2.90578 11.0798L2.69529 11.2583L3.48716 11.3051L3.18956 11.4916L4.15192 11.4829L3.76608 11.6646L4.75985 11.7324L4.49514 11.8629L6.09796 12.1124L5.33674 12.1104L5.43918 12.2695L4.97744 12.1529L5.11466 12.3274L4.48579 12.214L4.63572 12.4401L3.999 12.3854L4.22034 12.5861L3.69803 12.644L3.8244 12.7527L3.1402 13.0586L3.88422 13.0431L3.81206 13.1978L4.3097 13.0197L4.18781 13.3001L4.74489 12.9689L4.69778 13.2406L5.22458 12.8594L5.16887 13.0788L5.54237 12.769L5.51171 12.959L6.25237 12.2707C6.30172 12.4528 6.51371 13.4307 5.84334 14.8655C5.84334 14.8655 5.94504 14.9349 6.1002 15C6.1002 15 6.61466 13.9194 6.4094 12.3258L6.39182 12.2592L7.24726 12.7995L7.18632 12.6182L7.60468 12.8554L7.51421 12.6496L8.09484 12.9288L8.00436 12.6698L8.60668 12.8947L8.44105 12.6408L8.95999 12.7253L8.86391 12.5861L9.62251 12.471L8.8755 12.289L8.98243 12.1588L8.45862 12.1969L8.64407 11.9585L8.02567 12.1287L8.13671 11.8788L7.53552 12.1053L7.64245 11.9081L7.2065 12.1073L7.28165 11.9319L6.53427 12.0962L8.07054 11.5344L7.78863 11.4543L8.7566 11.206L8.34758 11.0977L9.29723 10.9307L8.97383 10.8009L9.74626 10.6105L9.50997 10.4729L10.2566 10.2713L9.94778 10.167L10.8219 9.68859L10.5265 9.59616L11.1857 9.24349L10.8544 9.16772L11.6366 8.79046L11.3595 8.60362Z"/>
</mask>
<path d="M11.3595 8.60362L12 7.6805L10.9916 8.1006L10.8929 7.76738L10.3478 8.47231L10.3643 8.1129L9.87338 8.69803L9.86553 8.37155L9.20451 9.14432L9.18918 8.80078L8.81343 9.51444L8.74913 9.23675L8.37674 9.97977L8.34197 9.6148L7.94529 10.5455L7.95202 10.098L7.47645 11.0263L7.47607 10.7168L6.58213 11.8811L6.98479 11.3274L7.78564 10.1797L7.54973 10.2015L8.14195 9.64257L7.9595 9.55332L8.41675 9.17963L8.20027 9.13321L8.7981 8.64011L8.63248 8.60243L9.25087 8.05459L8.99701 8.01174L9.53876 7.44446L9.30284 7.46628L9.85843 6.76492L9.59783 6.78872L10.2043 6.09568L9.84422 6.12861L10.3142 5.44827L10.0285 5.47445L10.5191 4.73937L10.2914 4.70724L10.6727 4.16772L10.4551 4.10822L10.8728 2.63646L9.99489 3.86584L9.81842 3.71826L9.64419 4.36687L9.4823 4.19391L9.22732 5.05316L9.0744 4.7961L8.8482 5.60457L8.65528 5.28047L8.50237 6.21192L8.36254 5.97707L8.17223 6.87083L8.04586 6.6586L7.94791 7.45954L7.76209 7.2711L7.72507 8.1248L7.59646 8.00778L7.58823 8.81109L7.42223 8.65638L7.41849 9.26888L7.2409 9.16891L7.17996 10.0075L7.05359 9.7953L6.38061 12.0228L6.72383 10.4245L6.54698 10.4407L6.87562 9.75365L6.62812 9.82625L6.99265 9.00627L6.70588 9.11219L7.00723 8.49294L6.81543 8.55443L7.08275 7.92249L6.68719 8.01849L7.03975 7.05014L6.74738 7.14654L7.06817 6.25079L6.79823 6.27579L7.04761 5.53594L6.75449 5.62282L6.90628 4.7231L6.70626 4.80125L6.75075 4.08045L6.49801 4.20343L6.59334 3.41836L6.30022 3.50524L6.3993 2.87885L6.10693 2.97525L6.16974 2.25286L5.9069 2.36671L5.90354 1.67367L5.72258 1.75659L5.67099 1.12425L5.55209 1.2016L5.32777 0L5.30272 1.22342L5.17335 1.16907L5.22495 1.80141L5.03315 1.75262L5.14232 2.43613L4.8649 2.37187L5.04399 3.07204L4.7404 3.03039L4.93931 3.6294L4.63647 3.59767L4.8578 4.35378L4.58898 4.2788L4.74938 4.98096L4.53963 4.9405L4.83499 5.79935L4.53215 5.76761L4.89743 6.45073L4.62749 6.47572L5.08886 7.29927L4.78527 7.25762L5.28963 8.14702L4.88435 8.1244L5.25037 8.69803L5.0511 8.67225L5.44815 9.22723L5.1483 9.17526L5.64033 9.9163L5.38497 9.89011L5.82016 10.507L5.64332 10.5232L6.17086 11.8415L5.21635 9.9639L5.12625 10.1964L4.93033 9.38155L4.77181 9.51246L4.66862 8.90987L4.53028 9.09275L4.39195 8.30292L4.28427 8.44176L4.1093 7.60751L3.95675 7.82688L3.73018 7.0557L3.64008 7.28816L3.3077 6.4424L3.20825 6.69906L2.90616 5.80887L2.76857 6.16352L2.41451 5.4082L2.30533 5.68946L1.91463 4.88972L1.78303 5.08965L1.50636 4.4827L1.35643 4.66043L0.293494 3.60878L0.943669 4.98254L0.739157 5.08093L1.20202 5.54269L0.982926 5.61607L1.58524 6.25079L1.2996 6.27698L1.87276 6.86131L1.51271 6.89424L2.22233 7.46588L1.96174 7.48969L2.62276 8.07918L2.38684 8.101L3.01234 8.56117L2.76932 8.65003L3.46735 9.07688L3.31032 9.14432L3.97919 9.52079L3.77355 9.60608L4.28465 9.89091L4.11939 10.0123L4.79349 10.4546L4.55758 10.4764L5.38422 11.104L6.21573 12.0371L4.9494 10.9493L4.99913 11.2544L4.38036 10.4265L4.45962 10.866L3.91787 10.0218L3.94292 10.3876L3.45538 9.7235L3.43706 10.0087L2.95102 9.3748L2.9914 9.71596L2.21486 9.07529L2.25972 9.39821L1.68133 8.91146L1.75573 9.26254L1.10444 8.66749L1.06144 9.01341L0 8.78372L0.780658 9.57632L0.537263 9.81117L1.36914 10.0401L1.05508 10.1749L1.76171 10.4019L1.48579 10.5467L2.4246 10.8585L2.13746 11.0175L2.90578 11.0798L2.69529 11.2583L3.48716 11.3051L3.18956 11.4916L4.15192 11.4829L3.76608 11.6646L4.75985 11.7324L4.49514 11.8629L6.09796 12.1124L5.33674 12.1104L5.43918 12.2695L4.97744 12.1529L5.11466 12.3274L4.48579 12.214L4.63572 12.4401L3.999 12.3854L4.22034 12.5861L3.69803 12.644L3.8244 12.7527L3.1402 13.0586L3.88422 13.0431L3.81206 13.1978L4.3097 13.0197L4.18781 13.3001L4.74489 12.9689L4.69778 13.2406L5.22458 12.8594L5.16887 13.0788L5.54237 12.769L5.51171 12.959L6.25237 12.2707C6.30172 12.4528 6.51371 13.4307 5.84334 14.8655C5.84334 14.8655 5.94504 14.9349 6.1002 15C6.1002 15 6.61466 13.9194 6.4094 12.3258L6.39182 12.2592L7.24726 12.7995L7.18632 12.6182L7.60468 12.8554L7.51421 12.6496L8.09484 12.9288L8.00436 12.6698L8.60668 12.8947L8.44105 12.6408L8.95999 12.7253L8.86391 12.5861L9.62251 12.471L8.8755 12.289L8.98243 12.1588L8.45862 12.1969L8.64407 11.9585L8.02567 12.1287L8.13671 11.8788L7.53552 12.1053L7.64245 11.9081L7.2065 12.1073L7.28165 11.9319L6.53427 12.0962L8.07054 11.5344L7.78863 11.4543L8.7566 11.206L8.34758 11.0977L9.29723 10.9307L8.97383 10.8009L9.74626 10.6105L9.50997 10.4729L10.2566 10.2713L9.94778 10.167L10.8219 9.68859L10.5265 9.59616L11.1857 9.24349L10.8544 9.16772L11.6366 8.79046L11.3595 8.60362Z" fill="#46A83E" stroke="#46A83E" stroke-width="2" mask="url(#path-1-inside-1_1533_6286)"/>
</svg>
