<svg width="368" height="368" viewBox="0 0 368 368" fill="none" xmlns="http://www.w3.org/2000/svg">
<path fill-rule="evenodd" clip-rule="evenodd" d="M0 184.002C0 82.3806 82.3782 0.000488281 184 0.000488281C285.622 0.000488281 368 82.3806 368 184.002C368 285.62 285.622 368.001 184 368.001C82.3782 368.001 0 285.62 0 184.002Z" fill="url(#paint0_linear_2974_9358)"/>
<path fill-rule="evenodd" clip-rule="evenodd" d="M298.08 141.388V141.616C298.08 145.569 297.548 149.447 296.584 153.147C296.154 154.744 295.621 156.29 295.038 157.836C294.303 156.695 293.518 155.555 292.656 154.465V154.44C287.688 148.104 280.946 143.187 273.191 139.817C265.41 136.471 256.615 134.672 247.389 134.672L189.5 134.647H189.449L141.141 134.596C139.544 130.997 138.48 127.322 137.998 123.749L137.973 123.369L137.694 119.593V119.567L137.644 118.706C137.644 118.376 137.618 118.047 137.618 117.717C137.618 115.335 138.024 112.953 138.809 110.672C139.139 109.734 139.519 108.796 139.975 107.909C141.572 104.767 143.904 102.081 146.717 100.078C150.316 97.4934 154.701 96.0488 159.339 96.0488H187.016L252.585 96.0742C256.311 96.0995 259.91 96.5303 263.205 97.3413H263.255C266.626 98.127 269.845 99.2928 272.912 100.839L272.937 100.864C278.817 103.804 284.115 108.112 288.22 113.308L288.246 113.358C289.513 114.93 290.78 116.78 291.946 118.807C293.011 120.657 293.949 122.558 294.734 124.459V124.484C296.965 129.907 298.055 135.559 298.08 141.388Z" fill="white"/>
<path fill-rule="evenodd" clip-rule="evenodd" d="M165.118 241.392C162.786 244.585 160.15 247.348 157.286 249.552L156.982 249.755H156.957L153.839 251.909L153.788 251.935L153.104 252.366C150.823 253.835 148.288 254.875 145.576 255.381C144.588 255.584 143.599 255.711 142.611 255.762H142.586C142.205 255.787 141.825 255.787 141.42 255.787C138.302 255.787 135.235 255.103 132.422 253.861C128.392 252.011 124.945 248.944 122.639 244.94L108.775 220.965L76.0287 164.146C74.2038 160.902 72.7844 157.582 71.8213 154.338L71.796 154.287C70.7822 150.993 70.1992 147.597 69.9964 144.175V144.15C69.9458 143.263 69.9204 142.351 69.9204 141.464C69.9204 135.762 71.0103 130.009 73.1393 124.712L73.1646 124.636C73.8996 122.76 74.8628 120.758 76.0287 118.706C77.1185 116.856 78.2844 115.107 79.5517 113.485V113.46C83.2014 108.771 87.5862 104.944 92.7059 102.03L92.7313 102.004C96.1529 100.028 99.7773 98.5324 103.452 97.544H103.478C105.049 97.0878 106.671 96.7837 108.319 96.5303C107.685 97.7214 107.077 98.9886 106.545 100.281H106.57C104.314 105.831 103.25 111.838 103.25 118.021C103.25 128.463 106.266 139.335 112.044 149.371L140.964 199.5L140.986 199.55L165.118 241.392Z" fill="white"/>
<path fill-rule="evenodd" clip-rule="evenodd" d="M275.344 188.298C275.344 192.048 274.381 195.799 272.429 199.221L258.565 223.198L225.743 279.939C223.868 283.157 221.713 286.046 219.381 288.505L219.331 288.53C216.974 291.064 214.338 293.294 211.474 295.145L211.448 295.17C205.974 298.794 199.587 301.252 193.022 302.19H192.971C190.969 302.519 188.739 302.671 186.407 302.671C184.253 302.671 182.149 302.519 180.121 302.241H180.096C174.216 301.455 168.691 299.554 163.596 296.564C160.175 294.587 157.057 292.205 154.345 289.518V289.493C153.179 288.353 152.089 287.111 151.05 285.818C152.393 285.742 153.787 285.641 155.156 285.463C163.14 284.323 170.769 280.952 177.561 275.909C184.354 270.866 190.31 264.124 194.948 256.144L223.918 206.038L223.944 205.987L223.969 205.936L248.123 164.171C252.052 164.602 255.752 165.514 259.098 166.883L259.427 167.06L262.849 168.71L262.899 168.733L263.634 169.087C266.017 170.329 268.197 172.027 270.021 174.131C270.655 174.866 271.263 175.679 271.821 176.488V176.513C273.747 179.481 274.888 182.823 275.243 186.27C275.319 186.954 275.344 187.613 275.344 188.298Z" fill="white"/>
<defs>
<linearGradient id="paint0_linear_2974_9358" x1="65.8387" y1="36.2118" x2="284.204" y2="344.556" gradientUnits="userSpaceOnUse">
<stop stop-color="#323444"/>
<stop offset="1" stop-color="#0B0B22"/>
</linearGradient>
</defs>
</svg>
