<svg width="50" height="50" viewBox="0 0 50 50" fill="none"
    xmlns="http://www.w3.org/2000/svg">
    <circle cx="25" cy="25" r="25" fill="#C4C4C4"/>
    <circle cx="25" cy="25" r="25" fill="url(#paint0_linear_2296_10010)"/>
    <path fill-rule="evenodd" clip-rule="evenodd" d="M39.8113 18.9246V18.9544C39.8113 19.471 39.7417 19.9777 39.6158 20.4612C39.5595 20.6699 39.49 20.8719 39.4138 21.0739C39.3178 20.9249 39.2151 20.7758 39.1025 20.6334V20.6301C38.4534 19.8022 37.5724 19.1597 36.559 18.7193C35.5422 18.2821 34.393 18.047 33.1875 18.047L25.6232 18.0437H25.6165L19.3041 18.0371C19.0955 17.5668 18.9564 17.0866 18.8934 16.6197L18.8901 16.57L18.8537 16.0766V16.0732L18.8471 15.9606C18.8471 15.9176 18.8438 15.8745 18.8438 15.8315C18.8438 15.5202 18.8967 15.2089 18.9994 14.9108C19.0425 14.7883 19.0921 14.6658 19.1518 14.5499C19.3604 14.1392 19.6651 13.7882 20.0327 13.5266C20.503 13.1888 21.076 13 21.682 13H25.2986L33.8664 13.0033C34.3533 13.0066 34.8236 13.0629 35.2541 13.1689H35.2607C35.7012 13.2716 36.1218 13.4239 36.5226 13.6259L36.5259 13.6292C37.2942 14.0134 37.9864 14.5764 38.5229 15.2553L38.5262 15.2619C38.6918 15.4672 38.8574 15.709 39.0098 15.9739C39.1489 16.2156 39.2714 16.464 39.3741 16.7124V16.7157C39.6655 17.4244 39.8079 18.1629 39.8113 18.9246Z" fill="#393E46"/>
    <path fill-rule="evenodd" clip-rule="evenodd" d="M39.8113 18.9246V18.9544C39.8113 19.471 39.7417 19.9777 39.6158 20.4612C39.5595 20.6699 39.49 20.8719 39.4138 21.0739C39.3178 20.9249 39.2151 20.7758 39.1025 20.6334V20.6301C38.4534 19.8022 37.5724 19.1597 36.559 18.7193C35.5422 18.2821 34.393 18.047 33.1875 18.047L25.6232 18.0437H25.6165L19.3041 18.0371C19.0955 17.5668 18.9564 17.0866 18.8934 16.6197L18.8901 16.57L18.8537 16.0766V16.0732L18.8471 15.9606C18.8471 15.9176 18.8438 15.8745 18.8438 15.8315C18.8438 15.5202 18.8967 15.2089 18.9994 14.9108C19.0425 14.7883 19.0921 14.6658 19.1518 14.5499C19.3604 14.1392 19.6651 13.7882 20.0327 13.5266C20.503 13.1888 21.076 13 21.682 13H25.2986L33.8664 13.0033C34.3533 13.0066 34.8236 13.0629 35.2541 13.1689H35.2607C35.7012 13.2716 36.1218 13.4239 36.5226 13.6259L36.5259 13.6292C37.2942 14.0134 37.9864 14.5764 38.5229 15.2553L38.5262 15.2619C38.6918 15.4672 38.8574 15.709 39.0098 15.9739C39.1489 16.2156 39.2714 16.464 39.3741 16.7124V16.7157C39.6655 17.4244 39.8079 18.1629 39.8113 18.9246Z" fill="white"/>
    <path fill-rule="evenodd" clip-rule="evenodd" d="M22.4394 31.9921C22.1347 32.4093 21.7903 32.7703 21.416 33.0584L21.3763 33.0849H21.373L20.9656 33.3664L20.959 33.3697L20.8696 33.426C20.5715 33.6181 20.2403 33.7539 19.886 33.8201C19.7568 33.8466 19.6276 33.8632 19.4985 33.8698H19.4952C19.4455 33.8731 19.3958 33.8731 19.3428 33.8731C18.9355 33.8731 18.5347 33.7837 18.1671 33.6214C17.6405 33.3797 17.1901 32.979 16.8887 32.4557L15.0771 29.3229L10.7982 21.8981C10.5597 21.4742 10.3742 21.0403 10.2484 20.6164L10.2451 20.6098C10.1126 20.1793 10.0364 19.7355 10.0099 19.2885V19.2852C10.0033 19.1692 10 19.05 10 18.9341C10 18.189 10.1424 17.4372 10.4206 16.7451L10.4239 16.7352C10.52 16.4901 10.6458 16.2285 10.7982 15.9602C10.9406 15.7185 11.0929 15.49 11.2585 15.278V15.2747C11.7354 14.662 12.3084 14.162 12.9774 13.7811L12.9807 13.7778C13.4278 13.5195 13.9014 13.3241 14.3816 13.195H14.3849C14.5903 13.1354 14.8022 13.0956 15.0175 13.0625C14.9347 13.2181 14.8552 13.3837 14.7857 13.5526H14.789C14.4942 14.2779 14.3551 15.0628 14.3551 15.8708C14.3551 17.2352 14.7492 18.6559 15.5043 19.9674L19.2832 26.5179L19.2862 26.5245L22.4394 31.9921Z" fill="#393E46"/>
    <path fill-rule="evenodd" clip-rule="evenodd" d="M22.4394 31.9921C22.1347 32.4093 21.7903 32.7703 21.416 33.0584L21.3763 33.0849H21.373L20.9656 33.3664L20.959 33.3697L20.8696 33.426C20.5715 33.6181 20.2403 33.7539 19.886 33.8201C19.7568 33.8466 19.6276 33.8632 19.4985 33.8698H19.4952C19.4455 33.8731 19.3958 33.8731 19.3428 33.8731C18.9355 33.8731 18.5347 33.7837 18.1671 33.6214C17.6405 33.3797 17.1901 32.979 16.8887 32.4557L15.0771 29.3229L10.7982 21.8981C10.5597 21.4742 10.3742 21.0403 10.2484 20.6164L10.2451 20.6098C10.1126 20.1793 10.0364 19.7355 10.0099 19.2885V19.2852C10.0033 19.1692 10 19.05 10 18.9341C10 18.189 10.1424 17.4372 10.4206 16.7451L10.4239 16.7352C10.52 16.4901 10.6458 16.2285 10.7982 15.9602C10.9406 15.7185 11.0929 15.49 11.2585 15.278V15.2747C11.7354 14.662 12.3084 14.162 12.9774 13.7811L12.9807 13.7778C13.4278 13.5195 13.9014 13.3241 14.3816 13.195H14.3849C14.5903 13.1354 14.8022 13.0956 15.0175 13.0625C14.9347 13.2181 14.8552 13.3837 14.7857 13.5526H14.789C14.4942 14.2779 14.3551 15.0628 14.3551 15.8708C14.3551 17.2352 14.7492 18.6559 15.5043 19.9674L19.2832 26.5179L19.2862 26.5245L22.4394 31.9921Z" fill="white"/>
    <path fill-rule="evenodd" clip-rule="evenodd" d="M36.8508 25.0551C36.8508 25.5452 36.725 26.0353 36.47 26.4824L34.6584 29.6156L30.3695 37.0301C30.1244 37.4507 29.8429 37.8282 29.5382 38.1495L29.5316 38.1528C29.2236 38.4839 28.8791 38.7754 28.5049 39.0171L28.5016 39.0204C27.7862 39.494 26.9516 39.8152 26.0939 39.9378H26.0872C25.8256 39.9808 25.5341 40.0007 25.2294 40.0007C24.9479 40.0007 24.6731 39.9808 24.4081 39.9444H24.4048C23.6364 39.8417 22.9144 39.5933 22.2488 39.2026C21.8017 38.9443 21.3943 38.633 21.0399 38.2819V38.2786C20.8876 38.1296 20.7452 37.9673 20.6094 37.7984C20.7849 37.7885 20.9671 37.7752 21.1459 37.7521C22.1891 37.603 23.186 37.1626 24.0736 36.5036C24.9612 35.8445 25.7395 34.9636 26.3456 33.9208L30.131 27.3732L30.1343 27.3666L30.1377 27.36L33.2939 21.9023C33.8072 21.9586 34.2908 22.0779 34.7279 22.2567L34.771 22.2799L35.2181 22.4955L35.2247 22.4984L35.3208 22.5448C35.6321 22.7071 35.9169 22.929 36.1553 23.2038C36.2381 23.2999 36.3176 23.4062 36.3905 23.5118V23.5151C36.6422 23.9029 36.7912 24.3397 36.8376 24.7901C36.8475 24.8795 36.8508 24.9656 36.8508 25.0551Z" fill="#393E46"/>
    <path fill-rule="evenodd" clip-rule="evenodd" d="M36.8508 25.0551C36.8508 25.5452 36.725 26.0353 36.47 26.4824L34.6584 29.6156L30.3695 37.0301C30.1244 37.4507 29.8429 37.8282 29.5382 38.1495L29.5316 38.1528C29.2236 38.4839 28.8791 38.7754 28.5049 39.0171L28.5016 39.0204C27.7862 39.494 26.9516 39.8152 26.0939 39.9378H26.0872C25.8256 39.9808 25.5341 40.0007 25.2294 40.0007C24.9479 40.0007 24.6731 39.9808 24.4081 39.9444H24.4048C23.6364 39.8417 22.9144 39.5933 22.2488 39.2026C21.8017 38.9443 21.3943 38.633 21.0399 38.2819V38.2786C20.8876 38.1296 20.7452 37.9673 20.6094 37.7984C20.7849 37.7885 20.9671 37.7752 21.1459 37.7521C22.1891 37.603 23.186 37.1626 24.0736 36.5036C24.9612 35.8445 25.7395 34.9636 26.3456 33.9208L30.131 27.3732L30.1343 27.3666L30.1377 27.36L33.2939 21.9023C33.8072 21.9586 34.2908 22.0779 34.7279 22.2567L34.771 22.2799L35.2181 22.4955L35.2247 22.4984L35.3208 22.5448C35.6321 22.7071 35.9169 22.929 36.1553 23.2038C36.2381 23.2999 36.3176 23.4062 36.3905 23.5118V23.5151C36.6422 23.9029 36.7912 24.3397 36.8376 24.7901C36.8475 24.8795 36.8508 24.9656 36.8508 25.0551Z" fill="white"/>
    <defs>
        <linearGradient id="paint0_linear_2296_10010" x1="25" y1="0" x2="25" y2="50" gradientUnits="userSpaceOnUse">
            <stop stop-color="#ECBF4D"/>
            <stop offset="1" stop-color="#ED5647"/>
        </linearGradient>
    </defs>
</svg>
