<svg width="16" height="16" viewBox="0 0 16 16" fill="none"
    xmlns="http://www.w3.org/2000/svg">
    <path d="M14.6654 7.99935V11.3327C14.6654 13.3327 13.332 14.666 11.332 14.666H4.66536C2.66536 14.666 1.33203 13.3327 1.33203 11.3327V7.99935C1.33203 6.18602 2.42536 4.91935 4.12536 4.70601C4.2987 4.67935 4.4787 4.66602 4.66536 4.66602H11.332C11.5054 4.66602 11.672 4.67267 11.832 4.69934C13.552 4.89934 14.6654 6.17268 14.6654 7.99935Z" stroke="#888888" stroke-width="1.5" stroke-linecap="round" stroke-linejoin="round"/>
    <path d="M11.8356 4.70065C11.6756 4.67398 11.5089 4.66732 11.3356 4.66732H4.66891C4.48224 4.66732 4.30224 4.68066 4.12891 4.70732C4.22224 4.52066 4.35557 4.34732 4.51557 4.18732L6.68224 2.01398C7.59557 1.10732 9.07557 1.10732 9.98891 2.01398L11.1556 3.194C11.5822 3.614 11.8089 4.14732 11.8356 4.70065Z" stroke="#888888" stroke-width="1.5" stroke-linecap="round" stroke-linejoin="round"/>
    <path d="M14.6654 8.33398H12.6654C11.932 8.33398 11.332 8.93398 11.332 9.66732C11.332 10.4007 11.932 11.0007 12.6654 11.0007H14.6654" stroke="#888888" stroke-width="1.5" stroke-linecap="round" stroke-linejoin="round"/>
</svg>
