<svg width="119" height="27" viewBox="0 0 119 27" fill="none" xmlns="http://www.w3.org/2000/svg">
<path fill-rule="evenodd" clip-rule="evenodd" d="M29.8152 5.9246V5.9544C29.8152 6.47103 29.7456 6.97772 29.6198 7.46122C29.5635 7.66986 29.4939 7.87187 29.4177 8.07388C29.3217 7.92486 29.219 7.77583 29.1064 7.63343V7.63012C28.4573 6.8022 27.5763 6.15973 26.5629 5.71928C25.5461 5.28213 24.3969 5.047 23.1914 5.047L15.6271 5.04369H15.6204L9.30801 5.03707C9.09936 4.56681 8.96026 4.08662 8.89733 3.61967L8.89402 3.56999L8.85759 3.07655V3.07324L8.85097 2.96064C8.85097 2.91759 8.84766 2.87454 8.84766 2.83149C8.84766 2.52019 8.90065 2.20889 9.00331 1.91084C9.04637 1.78831 9.09605 1.66578 9.15566 1.54987C9.36431 1.13922 9.669 0.78818 10.0366 0.526558C10.5069 0.188766 11.0799 0 11.6859 0H15.3025L23.8703 0.00331168C24.3572 0.00662336 24.8275 0.062922 25.258 0.168896H25.2646C25.7051 0.271558 26.1257 0.423895 26.5265 0.625908L26.5298 0.62922C27.2981 1.01337 27.9903 1.57636 28.5268 2.25526L28.5301 2.26188C28.6957 2.4672 28.8613 2.70896 29.0137 2.97389C29.1528 3.21564 29.2753 3.46402 29.378 3.7124V3.71571C29.6694 4.42441 29.8118 5.16291 29.8152 5.9246Z" fill="black"/>
<path fill-rule="evenodd" clip-rule="evenodd" d="M12.4394 18.9921C12.1347 19.4093 11.7903 19.7703 11.416 20.0584L11.3763 20.0849H11.373L10.9656 20.3664L10.959 20.3697L10.8696 20.426C10.5715 20.6181 10.2403 20.7539 9.88596 20.8201C9.7568 20.8466 9.62763 20.8632 9.49847 20.8698H9.49516C9.44548 20.8731 9.3958 20.8731 9.34281 20.8731C8.93545 20.8731 8.53471 20.7837 8.1671 20.6214C7.64051 20.3797 7.19009 19.979 6.88871 19.4557L5.07711 16.3229L0.798163 8.89807C0.559708 8.47417 0.374242 8.04034 0.248391 7.61645L0.245079 7.60982C0.112604 7.17931 0.0364307 6.73554 0.00993564 6.28846V6.28515C0.00331188 6.16924 0 6.05002 0 5.93411C0 5.18898 0.142411 4.43723 0.420609 3.74509L0.423921 3.73516C0.519965 3.49009 0.645817 3.22847 0.798163 2.96022C0.940574 2.71847 1.09292 2.48996 1.25851 2.27802V2.2747C1.73542 1.66204 2.30838 1.16198 2.97738 0.781135L2.98069 0.777823C3.4278 0.519512 3.90139 0.324123 4.38162 0.194967H4.38493C4.59027 0.135357 4.80223 0.0956168 5.0175 0.0625C4.9347 0.218149 4.85522 0.383733 4.78567 0.552629H4.78898C4.49422 1.27789 4.35512 2.06276 4.35512 2.87081C4.35512 4.23522 4.74924 5.65593 5.50434 6.96736L9.2832 13.5179L9.28618 13.5245L12.4394 18.9921Z" fill="black"/>
<path fill-rule="evenodd" clip-rule="evenodd" d="M26.8469 12.0551C26.8469 12.5452 26.7211 13.0353 26.4661 13.4824L24.6545 16.6156L20.3656 24.0301C20.1205 24.4507 19.839 24.8282 19.5343 25.1495L19.5277 25.1528C19.2197 25.4839 18.8752 25.7754 18.501 26.0171L18.4977 26.0204C17.7823 26.494 16.9477 26.8152 16.0899 26.9378H16.0833C15.8217 26.9808 15.5302 27.0007 15.2255 27.0007C14.944 27.0007 14.6691 26.9808 14.4042 26.9444H14.4009C13.6325 26.8417 12.9105 26.5933 12.2449 26.2026C11.7977 25.9443 11.3904 25.633 11.036 25.2819V25.2786C10.8837 25.1296 10.7413 24.9673 10.6055 24.7984C10.781 24.7885 10.9632 24.7752 11.142 24.7521C12.1852 24.603 13.1821 24.1626 14.0697 23.5036C14.9573 22.8445 15.7356 21.9636 16.3416 20.9208L20.1271 14.3732L20.1304 14.3666L20.1337 14.36L23.29 8.90234C23.8033 8.95864 24.2868 9.07786 24.724 9.25669L24.7671 9.27988L25.2142 9.49547L25.2208 9.49845L25.3168 9.54481C25.6282 9.70708 25.913 9.92896 26.1514 10.2038C26.2342 10.2999 26.3137 10.4062 26.3866 10.5118V10.5151C26.6383 10.9029 26.7873 11.3397 26.8337 11.7901C26.8436 11.8795 26.8469 11.9656 26.8469 12.0551Z" fill="black"/>
<path d="M37.1764 20.0859V7.48594H39.5164V18.1059H46.1044V20.0859H37.1764ZM46.1873 20.0859L51.8573 7.48594H54.1613L59.8493 20.0859H57.4013L52.5233 8.72794H53.4593L48.5993 20.0859H46.1873ZM48.7973 17.1699L49.4273 15.3339H56.2313L56.8613 17.1699H48.7973ZM66.6061 20.2659C64.8781 20.2659 63.5221 19.7799 62.5381 18.8079C61.5661 17.8359 61.0801 16.4319 61.0801 14.5959V7.48594H63.4201V14.5059C63.4201 15.8019 63.6961 16.7439 64.2481 17.3319C64.8121 17.9199 65.6041 18.2139 66.6241 18.2139C67.6441 18.2139 68.4301 17.9199 68.9821 17.3319C69.5341 16.7439 69.8101 15.8019 69.8101 14.5059V7.48594H72.1141V14.5959C72.1141 16.4319 71.6221 17.8359 70.6381 18.8079C69.6661 19.7799 68.3221 20.2659 66.6061 20.2659ZM75.3912 20.0859V7.48594H77.3172L85.2192 17.1879H84.2652V7.48594H86.5872V20.0859H84.6612L76.7592 10.3839H77.7132V20.0859H75.3912ZM95.7955 20.2659C94.8355 20.2659 93.9415 20.1099 93.1135 19.7979C92.2975 19.4739 91.5835 19.0239 90.9715 18.4479C90.3715 17.8599 89.9035 17.1699 89.5675 16.3779C89.2315 15.5859 89.0635 14.7219 89.0635 13.7859C89.0635 12.8499 89.2315 11.9859 89.5675 11.1939C89.9035 10.4019 90.3775 9.71794 90.9895 9.14194C91.6015 8.55394 92.3155 8.10394 93.1315 7.79194C93.9475 7.46794 94.8415 7.30594 95.8135 7.30594C96.8455 7.30594 97.7875 7.48594 98.6395 7.84594C99.4915 8.19394 100.211 8.71594 100.799 9.41194L99.2875 10.8339C98.8315 10.3419 98.3215 9.97594 97.7575 9.73594C97.1935 9.48394 96.5815 9.35794 95.9215 9.35794C95.2615 9.35794 94.6555 9.46594 94.1035 9.68194C93.5635 9.89794 93.0895 10.2039 92.6815 10.5999C92.2855 10.9959 91.9735 11.4639 91.7455 12.0039C91.5295 12.5439 91.4215 13.1379 91.4215 13.7859C91.4215 14.4339 91.5295 15.0279 91.7455 15.5679C91.9735 16.1079 92.2855 16.5759 92.6815 16.9719C93.0895 17.3679 93.5635 17.6739 94.1035 17.8899C94.6555 18.1059 95.2615 18.2139 95.9215 18.2139C96.5815 18.2139 97.1935 18.0939 97.7575 17.8539C98.3215 17.6019 98.8315 17.2239 99.2875 16.7199L100.799 18.1599C100.211 18.8439 99.4915 19.3659 98.6395 19.7259C97.7875 20.0859 96.8395 20.2659 95.7955 20.2659ZM111.898 7.48594H114.238V20.0859H111.898V7.48594ZM105.382 20.0859H103.042V7.48594H105.382V20.0859ZM112.078 14.6859H105.184V12.6879H112.078V14.6859Z" fill="black"/>
</svg>
