<svg width="141" height="32" viewBox="0 0 141 32" fill="none" xmlns="http://www.w3.org/2000/svg">
<path fill-rule="evenodd" clip-rule="evenodd" d="M29.8152 10.9246V10.9544C29.8152 11.471 29.7456 11.9777 29.6198 12.4612C29.5635 12.6699 29.4939 12.8719 29.4177 13.0739C29.3217 12.9249 29.219 12.7758 29.1064 12.6334V12.6301C28.4573 11.8022 27.5763 11.1597 26.5629 10.7193C25.5461 10.2821 24.3969 10.047 23.1914 10.047L15.6271 10.0437H15.6204L9.30801 10.0371C9.09936 9.56681 8.96026 9.08662 8.89733 8.61967L8.89402 8.56999L8.85759 8.07655V8.07324L8.85097 7.96064C8.85097 7.91759 8.84766 7.87454 8.84766 7.83149C8.84766 7.52019 8.90065 7.20889 9.00331 6.91084C9.04637 6.78831 9.09605 6.66578 9.15566 6.54987C9.36431 6.13922 9.669 5.78818 10.0366 5.52656C10.5069 5.18877 11.0799 5 11.6859 5H15.3025L23.8703 5.00331C24.3572 5.00662 24.8275 5.06292 25.258 5.1689H25.2646C25.7051 5.27156 26.1257 5.4239 26.5265 5.62591L26.5298 5.62922C27.2981 6.01337 27.9903 6.57636 28.5268 7.25526L28.5301 7.26188C28.6957 7.4672 28.8613 7.70896 29.0137 7.97389C29.1528 8.21564 29.2753 8.46402 29.378 8.7124V8.71571C29.6694 9.42441 29.8118 10.1629 29.8152 10.9246Z" fill="black"/>
<path fill-rule="evenodd" clip-rule="evenodd" d="M12.4394 23.9921C12.1347 24.4093 11.7903 24.7703 11.416 25.0584L11.3763 25.0849H11.373L10.9656 25.3664L10.959 25.3697L10.8696 25.426C10.5715 25.6181 10.2403 25.7539 9.88596 25.8201C9.7568 25.8466 9.62763 25.8632 9.49847 25.8698H9.49516C9.44548 25.8731 9.3958 25.8731 9.34281 25.8731C8.93545 25.8731 8.53471 25.7837 8.1671 25.6214C7.64051 25.3797 7.19009 24.979 6.88871 24.4557L5.07711 21.3229L0.798163 13.8981C0.559708 13.4742 0.374242 13.0403 0.248391 12.6164L0.245079 12.6098C0.112604 12.1793 0.0364307 11.7355 0.00993564 11.2885V11.2852C0.00331188 11.1692 0 11.05 0 10.9341C0 10.189 0.142411 9.43723 0.420609 8.74509L0.423921 8.73516C0.519965 8.49009 0.645817 8.22847 0.798163 7.96022C0.940574 7.71847 1.09292 7.48996 1.25851 7.27802V7.2747C1.73543 6.66204 2.30838 6.16198 2.97738 5.78114L2.98069 5.77782C3.4278 5.51951 3.90139 5.32412 4.38162 5.19497H4.38493C4.59027 5.13536 4.80223 5.09562 5.0175 5.0625C4.9347 5.21815 4.85522 5.38373 4.78567 5.55263H4.78898C4.49422 6.27789 4.35512 7.06276 4.35512 7.87081C4.35512 9.23522 4.74924 10.6559 5.50434 11.9674L9.2832 18.5179L9.28618 18.5245L12.4394 23.9921Z" fill="black"/>
<path fill-rule="evenodd" clip-rule="evenodd" d="M26.8469 17.0551C26.8469 17.5452 26.7211 18.0353 26.4661 18.4824L24.6545 21.6156L20.3656 29.0301C20.1205 29.4507 19.839 29.8282 19.5343 30.1495L19.5277 30.1528C19.2197 30.4839 18.8752 30.7754 18.501 31.0171L18.4977 31.0204C17.7823 31.494 16.9477 31.8152 16.0899 31.9378H16.0833C15.8217 31.9808 15.5302 32.0007 15.2255 32.0007C14.944 32.0007 14.6691 31.9808 14.4042 31.9444H14.4009C13.6325 31.8417 12.9105 31.5933 12.2449 31.2026C11.7977 30.9443 11.3904 30.633 11.036 30.2819V30.2786C10.8837 30.1296 10.7413 29.9673 10.6055 29.7984C10.781 29.7885 10.9632 29.7752 11.142 29.7521C12.1852 29.603 13.1821 29.1626 14.0697 28.5036C14.9573 27.8445 15.7356 26.9636 16.3416 25.9208L20.1271 19.3732L20.1304 19.3666L20.1338 19.36L23.29 13.9023C23.8033 13.9586 24.2868 14.0779 24.724 14.2567L24.7671 14.2799L25.2142 14.4955L25.2208 14.4984L25.3168 14.5448C25.6282 14.7071 25.913 14.929 26.1514 15.2038C26.2342 15.2999 26.3137 15.4062 26.3866 15.5118V15.5151C26.6383 15.9029 26.7873 16.3397 26.8337 16.7901C26.8436 16.8795 26.8469 16.9656 26.8469 17.0551Z" fill="black"/>
<path d="M37.1764 25.0859V12.4859H39.5164V23.1059H46.1044V25.0859H37.1764ZM46.1873 25.0859L51.8573 12.4859H54.1613L59.8493 25.0859H57.4013L52.5233 13.7279H53.4593L48.5993 25.0859H46.1873ZM48.7973 22.1699L49.4273 20.3339H56.2313L56.8613 22.1699H48.7973ZM66.6061 25.2659C64.8781 25.2659 63.5221 24.7799 62.5381 23.8079C61.5661 22.8359 61.0801 21.4319 61.0801 19.5959V12.4859H63.4201V19.5059C63.4201 20.8019 63.6961 21.7439 64.2481 22.3319C64.8121 22.9199 65.6041 23.2139 66.6241 23.2139C67.6441 23.2139 68.4301 22.9199 68.9821 22.3319C69.5341 21.7439 69.8101 20.8019 69.8101 19.5059V12.4859H72.1141V19.5959C72.1141 21.4319 71.6221 22.8359 70.6381 23.8079C69.6661 24.7799 68.3221 25.2659 66.6061 25.2659ZM75.3912 25.0859V12.4859H77.3172L85.2192 22.1879H84.2652V12.4859H86.5872V25.0859H84.6612L76.7592 15.3839H77.7132V25.0859H75.3912ZM95.7955 25.2659C94.8355 25.2659 93.9415 25.1099 93.1135 24.7979C92.2975 24.4739 91.5835 24.0239 90.9715 23.4479C90.3715 22.8599 89.9035 22.1699 89.5675 21.3779C89.2315 20.5859 89.0635 19.7219 89.0635 18.7859C89.0635 17.8499 89.2315 16.9859 89.5675 16.1939C89.9035 15.4019 90.3775 14.7179 90.9895 14.1419C91.6015 13.5539 92.3155 13.1039 93.1315 12.7919C93.9475 12.4679 94.8415 12.3059 95.8135 12.3059C96.8455 12.3059 97.7875 12.4859 98.6395 12.8459C99.4915 13.1939 100.211 13.7159 100.799 14.4119L99.2875 15.8339C98.8315 15.3419 98.3215 14.9759 97.7575 14.7359C97.1935 14.4839 96.5815 14.3579 95.9215 14.3579C95.2615 14.3579 94.6555 14.4659 94.1035 14.6819C93.5635 14.8979 93.0895 15.2039 92.6815 15.5999C92.2855 15.9959 91.9735 16.4639 91.7455 17.0039C91.5295 17.5439 91.4215 18.1379 91.4215 18.7859C91.4215 19.4339 91.5295 20.0279 91.7455 20.5679C91.9735 21.1079 92.2855 21.5759 92.6815 21.9719C93.0895 22.3679 93.5635 22.6739 94.1035 22.8899C94.6555 23.1059 95.2615 23.2139 95.9215 23.2139C96.5815 23.2139 97.1935 23.0939 97.7575 22.8539C98.3215 22.6019 98.8315 22.2239 99.2875 21.7199L100.799 23.1599C100.211 23.8439 99.4915 24.3659 98.6395 24.7259C97.7875 25.0859 96.8395 25.2659 95.7955 25.2659ZM111.898 12.4859H114.238V25.0859H111.898V12.4859ZM105.382 25.0859H103.042V12.4859H105.382V25.0859ZM112.078 19.6859H105.184V17.6879H112.078V19.6859Z" fill="black"/>
<rect x="119" width="22" height="13" rx="6.5" fill="#F39200"/>
<path d="M125.682 6.858C125.906 6.898 126.096 7.016 126.252 7.212C126.408 7.408 126.486 7.63 126.486 7.878C126.486 8.09 126.43 8.282 126.318 8.454C126.21 8.622 126.052 8.756 125.844 8.856C125.636 8.952 125.394 9 125.118 9H123.45V4.83H125.04C125.324 4.83 125.568 4.878 125.772 4.974C125.976 5.07 126.13 5.2 126.234 5.364C126.338 5.524 126.39 5.704 126.39 5.904C126.39 6.144 126.326 6.344 126.198 6.504C126.07 6.664 125.898 6.782 125.682 6.858ZM124.134 6.582H124.98C125.204 6.582 125.378 6.532 125.502 6.432C125.63 6.328 125.694 6.18 125.694 5.988C125.694 5.8 125.63 5.654 125.502 5.55C125.378 5.442 125.204 5.388 124.98 5.388H124.134V6.582ZM125.058 8.442C125.29 8.442 125.472 8.386 125.604 8.274C125.736 8.162 125.802 8.006 125.802 7.806C125.802 7.602 125.732 7.44 125.592 7.32C125.452 7.2 125.266 7.14 125.034 7.14H124.134V8.442H125.058ZM130.259 7.266C130.259 7.39 130.251 7.502 130.235 7.602H127.709C127.729 7.866 127.827 8.078 128.003 8.238C128.179 8.398 128.395 8.478 128.651 8.478C129.019 8.478 129.279 8.324 129.431 8.016H130.169C130.069 8.32 129.887 8.57 129.623 8.766C129.363 8.958 129.039 9.054 128.651 9.054C128.335 9.054 128.051 8.984 127.799 8.844C127.551 8.7 127.355 8.5 127.211 8.244C127.071 7.984 127.001 7.684 127.001 7.344C127.001 7.004 127.069 6.706 127.205 6.45C127.345 6.19 127.539 5.99 127.787 5.85C128.039 5.71 128.327 5.64 128.651 5.64C128.963 5.64 129.241 5.708 129.485 5.844C129.729 5.98 129.919 6.172 130.055 6.42C130.191 6.664 130.259 6.946 130.259 7.266ZM129.545 7.05C129.541 6.798 129.451 6.596 129.275 6.444C129.099 6.292 128.881 6.216 128.621 6.216C128.385 6.216 128.183 6.292 128.015 6.444C127.847 6.592 127.747 6.794 127.715 7.05H129.545ZM131.73 6.252V8.082C131.73 8.206 131.758 8.296 131.814 8.352C131.874 8.404 131.974 8.43 132.114 8.43H132.534V9H131.994C131.686 9 131.45 8.928 131.286 8.784C131.122 8.64 131.04 8.406 131.04 8.082V6.252H130.65V5.694H131.04V4.872H131.73V5.694H132.534V6.252H131.73ZM132.937 7.332C132.937 7 133.005 6.706 133.141 6.45C133.281 6.194 133.469 5.996 133.705 5.856C133.945 5.712 134.209 5.64 134.497 5.64C134.757 5.64 134.983 5.692 135.175 5.796C135.371 5.896 135.527 6.022 135.643 6.174V5.694H136.333V9H135.643V8.508C135.527 8.664 135.369 8.794 135.169 8.898C134.969 9.002 134.741 9.054 134.485 9.054C134.201 9.054 133.941 8.982 133.705 8.838C133.469 8.69 133.281 8.486 133.141 8.226C133.005 7.962 132.937 7.664 132.937 7.332ZM135.643 7.344C135.643 7.116 135.595 6.918 135.499 6.75C135.407 6.582 135.285 6.454 135.133 6.366C134.981 6.278 134.817 6.234 134.641 6.234C134.465 6.234 134.301 6.278 134.149 6.366C133.997 6.45 133.873 6.576 133.777 6.744C133.685 6.908 133.639 7.104 133.639 7.332C133.639 7.56 133.685 7.76 133.777 7.932C133.873 8.104 133.997 8.236 134.149 8.328C134.305 8.416 134.469 8.46 134.641 8.46C134.817 8.46 134.981 8.416 135.133 8.328C135.285 8.24 135.407 8.112 135.499 7.944C135.595 7.772 135.643 7.572 135.643 7.344Z" fill="white"/>
</svg>
