<?xml version="1.0" standalone="no"?>
<!DOCTYPE svg PUBLIC "-//W3C//DTD SVG 20010904//EN"
 "http://www.w3.org/TR/2001/REC-SVG-20010904/DTD/svg10.dtd">
<svg version="1.0" xmlns="http://www.w3.org/2000/svg"
 width="354.000000pt" height="253.000000pt" viewBox="0 0 354.000000 253.000000"
 preserveAspectRatio="xMidYMid meet">

<g transform="translate(0.000000,253.000000) scale(0.100000,-0.100000)"
fill="#000000" stroke="none">
<path d="M2471 2485 c-46 -13 -111 -36 -145 -50 -108 -48 -121 -53 -146 -60
-44 -12 -131 -76 -142 -103 -5 -15 -15 -74 -20 -131 -10 -89 -9 -108 5 -135 8
-17 18 -47 21 -66 4 -19 16 -44 28 -57 28 -30 17 -29 -32 3 -55 37 -99 35
-154 -4 -24 -18 -48 -32 -53 -32 -5 0 -21 -13 -36 -28 -20 -20 -31 -47 -38
-90 -14 -78 -5 -140 27 -187 13 -20 24 -46 24 -58 0 -12 12 -44 25 -72 14 -27
25 -57 25 -66 0 -8 7 -24 15 -35 8 -10 15 -28 15 -39 0 -11 9 -35 20 -53 12
-19 29 -55 39 -80 11 -26 40 -96 65 -157 51 -122 50 -119 36 -110 -6 3 -7 -1
-3 -10 4 -13 8 -14 14 -4 5 8 13 0 23 -26 9 -20 16 -39 16 -42 0 -11 -22 11
-30 31 -7 16 -9 17 -9 4 -1 -9 10 -25 24 -36 13 -11 21 -22 18 -26 -3 -3 -1
-6 5 -6 6 0 9 -6 7 -12 -5 -15 31 -66 39 -57 4 3 -1 22 -9 42 -8 20 -14 44
-13 54 2 18 -24 82 -62 153 -10 19 -30 66 -44 104 -15 38 -30 74 -35 80 -4 6
-16 34 -27 61 -10 28 -26 64 -36 80 -10 17 -18 39 -18 50 0 11 -9 34 -20 50
-11 17 -20 42 -20 56 0 15 -6 32 -14 38 -21 18 -25 45 -10 72 7 13 13 18 14
12 0 -7 3 -12 8 -12 32 5 43 -4 53 -46 6 -24 17 -50 25 -56 8 -6 14 -21 14
-33 0 -11 11 -43 24 -71 33 -66 106 -234 106 -241 0 -5 32 -74 49 -104 37 -68
61 -129 55 -143 -3 -10 3 -33 15 -52 25 -42 26 -61 7 -81 -8 -7 -16 -18 -18
-24 -4 -12 -92 -21 -105 -11 -17 13 -63 88 -63 103 0 9 -11 25 -25 36 -15 12
-25 30 -25 45 0 13 -9 36 -20 50 -11 14 -20 32 -20 40 0 8 -7 20 -15 27 -8 7
-13 16 -10 20 3 5 -6 22 -20 38 -14 16 -25 37 -25 45 0 9 -4 19 -10 22 -5 3
-10 15 -10 27 0 23 -59 138 -71 138 -4 0 -11 17 -14 38 -4 20 -15 48 -24 62
-17 23 -31 64 -30 84 1 5 -4 12 -9 15 -6 3 -3 12 6 21 14 13 15 12 9 -3 -3 -9
-2 -17 3 -17 6 0 10 5 10 11 0 19 40 -37 52 -73 6 -17 22 -48 36 -68 30 -44
29 -38 -32 85 -133 275 -115 247 -178 279 -57 28 -59 28 -135 17 -42 -6 -83
-16 -90 -23 -7 -6 -15 -9 -17 -7 -7 8 -36 103 -36 117 0 29 -99 218 -130 247
-17 17 -40 46 -50 65 -25 49 -46 65 -124 94 -45 17 -88 26 -128 26 -34 0 -72
7 -90 16 -55 29 -238 5 -337 -45 -35 -17 -70 -31 -80 -31 -23 0 -123 -39 -141
-55 -8 -7 -40 -24 -71 -38 -61 -27 -86 -53 -124 -131 -53 -108 -38 -219 54
-396 10 -19 22 -50 25 -67 4 -18 27 -62 52 -99 24 -36 44 -74 44 -83 0 -10 13
-45 30 -77 16 -32 36 -75 45 -94 8 -19 28 -55 44 -80 16 -25 30 -56 30 -68 1
-13 20 -65 44 -115 45 -98 64 -143 77 -192 4 -16 22 -57 39 -91 17 -34 37 -82
45 -108 8 -27 26 -64 40 -84 14 -21 36 -70 50 -110 43 -129 136 -242 200 -242
9 0 36 -5 60 -12 54 -14 104 -2 164 41 70 51 127 202 103 276 -9 29 -9 29 -10
-12 -1 -48 -41 -146 -74 -182 -26 -28 -113 -71 -145 -71 -13 0 -36 7 -51 15
-16 8 -31 12 -34 9 -3 -3 -22 -1 -41 6 -60 19 -131 131 -176 275 -7 22 -21 49
-32 61 -10 12 -30 52 -44 90 -13 38 -37 96 -53 129 -15 33 -34 80 -41 105 -7
25 -32 86 -56 135 -23 50 -46 103 -50 119 -6 25 -5 28 11 22 15 -5 16 -4 5 9
-16 20 -6 19 14 -1 15 -14 16 -13 16 7 0 14 21 -19 50 -78 27 -56 50 -108 50
-116 0 -8 8 -25 19 -38 10 -13 16 -30 13 -37 -2 -7 10 -41 26 -75 36 -74 54
-115 59 -140 6 -31 23 -57 38 -57 8 0 15 -8 15 -17 0 -10 7 -31 15 -47 8 -15
15 -36 15 -46 0 -29 30 -91 73 -153 37 -53 43 -57 69 -51 21 4 35 1 48 -11 43
-39 115 14 154 110 14 36 26 74 26 84 0 20 -43 71 -60 71 -7 0 -9 12 -4 35 4
25 1 45 -15 75 -12 22 -21 47 -21 54 0 7 -7 19 -14 26 -22 17 -59 98 -51 110
4 6 0 22 -9 35 -9 13 -16 31 -16 39 0 8 -7 22 -16 31 -25 25 -21 104 7 148 13
20 32 37 41 37 9 0 19 4 22 8 3 5 18 7 35 4 22 -3 33 1 43 17 7 12 19 21 26
21 30 0 185 191 185 227 0 9 4 10 13 2 13 -11 29 4 20 19 -2 4 4 8 14 8 10 0
17 -3 15 -6 -2 -3 7 -6 20 -6 13 0 21 4 19 8 -3 5 -9 6 -13 4 -4 -3 -8 1 -8 8
0 8 6 12 14 9 7 -3 13 1 13 8 1 10 4 8 11 -3 8 -14 15 -15 35 -7 22 8 25 7 20
-6 -3 -8 -2 -15 2 -15 9 0 34 -50 57 -113 9 -26 27 -60 39 -75 12 -15 28 -46
34 -69 14 -46 58 -142 98 -213 14 -25 28 -56 31 -70 2 -14 13 -34 24 -46 10
-11 19 -29 19 -40 0 -36 56 -138 83 -153 18 -9 27 -23 27 -38 0 -27 41 -73 64
-73 9 0 20 -8 25 -19 7 -13 27 -21 63 -25 29 -4 58 -12 65 -18 8 -6 27 -7 50
-2 21 4 46 9 56 10 10 1 23 6 30 13 6 6 25 11 42 11 30 0 75 30 75 50 0 6 6
10 14 10 8 0 21 6 28 13 7 8 23 19 35 25 12 7 27 28 34 47 7 19 16 35 21 35
20 0 39 63 33 110 -4 26 -2 66 5 88 8 33 8 48 -5 78 -8 20 -15 47 -15 60 0 14
-12 43 -27 67 -15 23 -26 46 -25 51 2 4 -13 41 -33 81 -19 40 -35 75 -35 78 0
3 -11 23 -25 43 -14 20 -25 44 -25 52 0 9 -8 25 -18 36 -10 12 -25 41 -32 66
-21 67 -59 140 -74 140 -9 0 -12 9 -8 25 4 23 13 30 35 26 6 -1 11 23 8 42 -1
5 3 6 8 3 5 -4 12 0 14 6 4 10 6 10 6 0 1 -7 5 -11 11 -7 5 3 16 -8 25 -25 8
-16 20 -30 26 -30 12 0 30 -45 34 -85 1 -17 16 -60 32 -95 17 -36 38 -94 48
-129 9 -36 24 -75 32 -88 8 -12 26 -57 39 -99 22 -74 46 -114 67 -114 6 0 18
-6 26 -14 9 -8 35 -17 58 -21 35 -5 44 -3 60 15 10 11 30 33 44 48 41 42 43
63 12 123 -15 30 -26 64 -24 77 3 23 -30 104 -54 132 -7 8 -15 29 -18 45 -6
37 -24 89 -46 135 -16 34 -16 37 1 65 10 17 18 26 18 22 0 -5 12 -2 28 6 112
58 106 53 119 104 7 26 17 56 22 65 7 11 7 18 0 20 -6 2 -7 11 -4 21 4 9 12
14 17 11 6 -4 5 -10 -3 -16 -11 -8 -10 -9 2 -5 9 3 20 2 25 -1 5 -4 6 -3 2 2
-15 19 -8 26 12 14 11 -7 22 -25 25 -40 4 -15 11 -30 16 -33 5 -4 9 -22 9 -41
0 -35 15 -73 32 -85 5 -3 13 -35 18 -70 5 -35 18 -89 29 -119 10 -30 22 -77
26 -105 3 -27 15 -70 25 -95 9 -25 23 -76 30 -115 11 -61 18 -75 53 -107 67
-63 145 -72 162 -19 3 12 11 21 16 21 5 0 18 9 29 20 21 21 26 59 11 88 -18
32 -24 57 -25 102 -1 26 -12 68 -28 100 -24 51 -38 105 -39 154 0 11 -7 35
-15 53 -15 30 -15 34 4 57 10 14 22 23 25 19 4 -3 12 -1 19 5 7 5 32 16 55 23
46 13 70 34 76 65 2 10 9 31 15 47 17 40 2 99 -28 114 l-25 13 25 0 c30 0 85
-32 98 -57 23 -43 23 -100 2 -167 -19 -58 -27 -69 -63 -90 -23 -13 -59 -29
-80 -36 l-39 -12 7 -52 c4 -28 11 -60 16 -71 6 -13 7 -3 3 27 -5 41 -4 49 12
53 45 14 126 59 135 77 30 56 46 134 39 189 -17 119 -58 153 -185 152 -44 0
-91 -2 -104 -4 -22 -4 -26 2 -42 61 -25 85 -24 90 10 90 15 0 45 11 65 25 20
14 41 25 47 25 28 0 69 34 105 87 36 54 39 63 39 128 0 88 -16 120 -80 163
-44 30 -56 33 -95 28 -102 -12 -217 -34 -236 -44 -10 -5 -59 -21 -109 -35 -49
-14 -108 -34 -130 -45 l-40 -20 -15 41 c-20 55 -85 99 -149 103 -27 2 -81 -7
-130 -21z m154 -14 c48 -28 54 -62 22 -126 -21 -43 -34 -57 -69 -73 -24 -10
-49 -26 -57 -35 -7 -10 -26 -17 -42 -17 -16 0 -29 -4 -29 -8 0 -4 -17 -19 -38
-32 l-38 -24 17 -45 c9 -25 21 -59 27 -74 7 -16 12 -34 12 -41 0 -7 7 -21 15
-32 8 -10 15 -29 15 -41 0 -13 9 -32 20 -43 11 -11 20 -27 20 -34 0 -12 14
-10 68 11 99 37 212 36 212 -2 0 -7 -10 -20 -22 -29 -16 -12 -19 -18 -10 -22
6 -3 12 -10 12 -15 0 -6 -4 -8 -9 -4 -14 8 -24 -34 -12 -49 13 -15 4 -26 -21
-26 -10 0 -18 -4 -18 -8 0 -9 -60 -35 -78 -33 -6 1 -17 -10 -24 -24 -11 -25
-28 -34 -28 -15 0 6 -4 10 -9 10 -14 0 0 -93 17 -113 9 -10 17 -28 17 -40 1
-12 9 -36 18 -54 9 -18 17 -42 17 -53 0 -12 12 -37 26 -56 19 -24 24 -41 20
-59 -5 -19 -3 -23 9 -19 12 5 15 -1 14 -27 -2 -40 22 -107 42 -120 11 -8 9
-13 -10 -30 -14 -11 -30 -30 -36 -42 -15 -32 -48 -32 -110 -1 -41 20 -57 33
-61 53 -10 46 -46 145 -59 167 -18 28 -46 135 -38 146 3 5 -4 19 -15 31 -31
34 -51 91 -40 111 7 13 5 22 -6 35 -9 10 -16 28 -16 42 0 34 -14 51 -33 43
-10 -3 -17 -1 -17 5 0 6 -6 11 -12 11 -8 0 -14 14 -14 32 -1 18 -5 34 -10 35
-32 11 -39 23 -26 43 15 25 15 30 -2 30 -19 0 -46 44 -46 75 0 14 -9 43 -20
65 -11 22 -20 46 -20 54 0 9 -9 20 -19 25 -13 8 -19 21 -18 45 1 20 -6 43 -16
54 -21 23 -22 51 -1 80 9 14 11 22 4 22 -20 0 -7 72 15 84 11 6 31 19 44 29
13 9 33 17 43 17 11 0 32 6 46 14 93 49 166 76 255 95 21 5 41 11 44 15 11 11
47 5 78 -13z m699 -3 c50 -32 52 -74 9 -137 -17 -25 -41 -45 -63 -52 -19 -7
-47 -21 -62 -32 -18 -13 -34 -18 -52 -13 -14 3 -26 3 -26 -2 0 -7 -65 -47 -77
-47 -1 0 5 -27 13 -60 9 -33 20 -79 24 -103 5 -23 15 -52 22 -65 7 -12 11 -25
10 -29 -1 -5 2 -8 8 -8 5 0 10 5 10 10 0 6 5 10 11 10 5 0 7 -5 3 -12 -4 -7
-3 -8 5 -4 6 4 9 12 6 17 -4 5 -2 9 4 9 6 0 14 -15 19 -32 8 -30 12 -33 43
-31 44 2 19 -12 -38 -22 -36 -6 -44 -4 -49 12 -4 10 -13 25 -20 33 -7 8 -13
18 -13 23 -1 4 -3 7 -6 7 -3 0 -9 0 -15 0 -17 0 -11 -39 10 -60 11 -11 20 -29
20 -40 0 -23 31 -41 38 -22 6 20 22 13 23 -10 1 -21 2 -21 12 5 6 15 18 27 26
27 8 0 29 5 47 12 29 10 36 9 54 -7 11 -10 20 -13 20 -7 0 7 10 12 23 12 20 0
23 -5 23 -35 0 -19 -3 -30 -7 -24 -4 7 -10 -2 -14 -19 -3 -18 -4 -36 -1 -41 7
-11 -48 -41 -75 -41 -10 0 -21 -5 -24 -10 -4 -6 -11 -7 -17 -4 -6 4 -19 -4
-30 -17 -13 -16 -21 -20 -25 -11 -11 27 -19 9 -17 -38 2 -27 10 -60 18 -72 9
-12 13 -31 10 -44 -3 -12 -1 -25 5 -28 6 -4 11 -23 11 -42 0 -19 12 -57 26
-85 20 -38 24 -53 15 -62 -16 -16 -14 -27 4 -21 11 5 15 -2 14 -32 -1 -50 11
-104 22 -104 18 0 9 -39 -10 -45 -11 -3 -27 -17 -36 -31 -13 -21 -23 -25 -44
-21 -41 8 -111 58 -115 81 -19 98 -30 145 -41 171 -19 44 -35 132 -29 150 4 9
0 23 -9 33 -8 9 -21 36 -28 59 -10 34 -9 45 1 58 11 13 10 19 -5 35 -9 10 -14
23 -11 28 3 6 3 24 0 41 -5 26 -9 29 -25 21 -17 -9 -18 -6 -17 35 0 31 -5 52
-17 65 -16 18 -17 20 -2 20 10 0 17 6 17 13 0 20 -35 48 -52 42 -19 -7 -43 37
-35 65 3 12 -3 41 -13 65 -10 24 -16 46 -12 49 3 4 -5 16 -17 27 -14 13 -19
25 -13 31 12 12 4 54 -14 69 -18 15 -18 27 1 63 8 15 12 32 9 37 -3 5 -3 23 1
39 8 37 80 74 185 94 15 3 23 6 87 32 17 7 62 15 100 19 37 4 75 11 83 16 25
14 47 10 84 -13z m-2622 -239 c3 -9 9 -8 24 1 17 10 26 9 55 -6 24 -12 52 -17
97 -15 39 1 73 -4 90 -13 15 -8 41 -20 59 -26 24 -9 36 -23 48 -54 10 -24 29
-49 48 -61 22 -14 40 -41 62 -91 17 -39 36 -79 44 -88 7 -8 11 -23 7 -31 -3
-9 3 -34 14 -55 23 -45 26 -76 8 -83 -10 -4 -10 -7 0 -18 6 -7 12 -23 12 -34
0 -12 9 -30 20 -40 25 -22 26 -51 3 -59 -13 -5 -14 -9 -5 -15 18 -11 29 -56
24 -98 -3 -24 -17 -48 -42 -73 -21 -21 -44 -49 -51 -62 -27 -51 -133 -158
-156 -158 -14 0 -23 -6 -23 -15 0 -21 -30 -31 -40 -14 -7 11 -12 10 -27 -3
-10 -8 -28 -19 -40 -22 -12 -4 -25 -16 -28 -26 -3 -11 -17 -28 -30 -38 -17
-14 -22 -25 -18 -45 3 -16 1 -27 -6 -27 -6 0 -11 -11 -11 -25 0 -14 5 -25 10
-25 13 0 13 -37 0 -45 -5 -3 -10 -13 -10 -22 0 -11 6 -14 25 -9 21 5 25 3 25
-18 0 -13 6 -29 14 -35 8 -7 12 -20 9 -30 -2 -10 9 -40 26 -67 61 -101 82
-155 76 -198 -6 -39 -5 -42 24 -52 37 -15 51 -56 27 -83 -9 -10 -16 -26 -16
-37 0 -28 -25 -59 -59 -73 -24 -10 -34 -10 -58 3 -17 8 -39 13 -50 10 -35 -9
-123 135 -123 201 0 13 -5 27 -10 30 -7 4 -7 12 0 25 7 13 6 21 -4 29 -7 6
-18 29 -25 51 -8 27 -20 44 -35 50 -16 6 -30 27 -46 69 -12 34 -26 64 -31 67
-11 6 11 54 25 54 6 1 -6 10 -26 21 -40 20 -44 32 -29 72 13 33 -2 56 -23 38
-14 -12 -17 -9 -22 17 -3 17 -12 33 -20 36 -8 3 -14 13 -14 23 -1 22 -23 53
-39 53 -6 0 -11 11 -11 25 0 14 -8 38 -18 53 -46 68 -71 109 -77 132 -4 14
-18 41 -31 60 -17 24 -24 49 -24 81 0 42 -3 48 -25 53 -15 4 -25 14 -25 24 0
10 -9 25 -20 34 -25 22 -37 67 -20 78 10 6 4 17 -23 43 -21 19 -37 44 -37 56
0 12 -9 34 -20 49 -15 20 -22 49 -26 101 -5 65 -2 77 21 118 21 35 40 51 88
74 34 17 79 40 101 51 21 11 59 23 85 25 25 3 51 11 56 18 18 21 106 55 146
55 21 0 41 5 44 10 8 14 52 13 57 -1z m2003 -175 c4 -11 8 -33 10 -51 1 -17 9
-43 18 -57 10 -14 17 -28 17 -31 0 -3 -26 -5 -57 -5 -32 -1 -69 -7 -83 -15
-44 -25 -55 -19 -83 50 -34 81 -34 95 -3 95 14 0 39 12 57 28 18 15 49 34 68
43 l36 16 6 -28 c3 -15 9 -35 14 -45z m640 -165 c5 -7 -5 -8 -32 -3 -51 9 -54
14 -10 14 20 0 39 -5 42 -11z m-1342 -24 c20 -14 37 -33 37 -41 0 -8 14 -35
30 -59 17 -24 30 -55 30 -69 0 -16 6 -26 15 -26 8 0 15 -2 15 -4 0 -2 3 -11 6
-20 4 -11 1 -16 -10 -16 -20 0 -21 -16 -1 -24 10 -4 13 -14 9 -35 -5 -25 -3
-32 15 -39 23 -8 62 -77 55 -96 -3 -7 2 -19 11 -26 8 -7 15 -23 15 -36 0 -13
9 -28 20 -34 11 -6 20 -19 20 -28 0 -10 11 -33 24 -52 24 -36 42 -79 38 -93
-1 -4 5 -10 13 -13 8 -4 15 -14 15 -23 0 -9 7 -24 14 -34 7 -9 11 -28 9 -41
-4 -17 1 -27 16 -35 13 -7 21 -22 21 -36 0 -14 5 -25 11 -25 7 0 9 -10 7 -25
-3 -14 0 -30 7 -35 17 -14 28 -58 18 -73 -4 -6 -6 -43 -6 -82 1 -60 -3 -74
-23 -98 -13 -16 -24 -34 -24 -42 0 -7 -7 -18 -15 -25 -12 -10 -15 -10 -15 1
-1 8 -7 2 -15 -13 -8 -15 -24 -29 -34 -33 -11 -3 -26 -17 -35 -30 -10 -15 -30
-27 -53 -31 -21 -4 -46 -11 -55 -15 -11 -6 -18 -5 -20 3 -3 9 -10 8 -22 -5
-21 -20 -81 -24 -73 -4 4 10 -8 13 -49 11 -41 -2 -57 2 -67 15 -6 9 -27 23
-44 30 -27 11 -33 19 -33 45 0 23 -9 37 -34 56 -19 14 -32 28 -29 33 2 4 -1 7
-7 7 -11 0 -36 58 -32 74 4 11 -26 73 -38 81 -6 3 -10 17 -10 31 0 13 -9 33
-20 44 -11 11 -20 31 -20 44 0 13 -7 27 -15 30 -21 8 -76 126 -69 148 3 10 1
18 -5 18 -5 0 -13 15 -17 34 -3 19 -12 37 -20 40 -19 7 -57 85 -51 107 3 11 1
19 -4 19 -5 0 -9 7 -9 15 0 8 -5 15 -11 15 -5 0 -15 14 -20 30 -6 17 -17 30
-25 30 -8 0 -14 10 -14 26 0 14 -9 33 -20 42 -17 14 -22 32 -25 92 -6 94 3
108 81 120 48 8 64 7 92 -8 19 -9 40 -28 46 -42 7 -14 22 -44 34 -67 24 -46
28 -83 11 -100 -8 -8 -6 -16 10 -30 12 -10 24 -35 28 -55 3 -21 11 -38 18 -38
12 0 24 -37 28 -88 1 -12 10 -25 20 -28 9 -3 29 -27 42 -54 29 -58 30 -61 9
-53 -14 5 -15 3 -5 -16 7 -12 19 -25 27 -28 8 -3 14 -15 14 -27 0 -12 9 -27
20 -34 11 -7 20 -20 20 -30 0 -10 7 -28 16 -40 10 -15 13 -33 9 -55 -5 -29 -5
-30 8 -14 13 15 16 16 27 2 7 -9 10 -29 7 -48 -5 -30 -2 -35 24 -44 17 -7 29
-19 29 -29 0 -9 11 -32 25 -50 14 -18 25 -37 25 -42 0 -6 17 -21 38 -33 51
-33 52 -33 52 -14 0 12 6 16 20 12 28 -7 80 20 73 38 -3 8 -1 15 3 15 29 1 33
16 19 64 -8 27 -20 55 -26 62 -6 7 -8 22 -4 34 4 11 -1 34 -9 52 -9 17 -16 37
-16 45 0 7 -4 13 -10 13 -5 0 -10 7 -10 16 0 9 -9 27 -20 41 -11 14 -18 29
-15 33 3 4 -2 13 -10 20 -18 15 -20 47 -2 53 7 3 0 9 -15 16 -20 7 -28 18 -28
35 0 13 -7 29 -15 36 -8 7 -15 18 -15 25 0 6 -7 26 -15 42 -12 24 -13 37 -5
58 9 23 8 26 -5 22 -27 -11 -47 22 -40 64 6 32 4 39 -9 39 -17 0 -38 38 -29
53 7 11 -17 38 -44 48 -23 9 -48 74 -38 101 4 9 -4 19 -19 26 -29 13 -41 48
-32 95 5 25 18 41 59 69 28 20 59 37 67 37 9 1 32 -10 53 -24z m192 -234 c-3
-6 -14 -10 -23 -10 -15 1 -15 2 1 6 9 2 17 9 17 15 0 6 3 9 6 5 3 -3 3 -10 -1
-16z m-781 -240 c3 -5 -1 -11 -9 -14 -9 -4 -12 -1 -8 9 6 16 10 17 17 5z"/>
<path d="M618 1862 c-39 -21 -66 -42 -63 -49 2 -7 0 -15 -5 -18 -6 -4 -3 -17
7 -31 10 -16 16 -44 15 -76 -1 -40 4 -58 24 -84 14 -18 24 -39 21 -46 -5 -15
28 -74 59 -104 11 -11 27 -44 35 -72 7 -29 18 -52 25 -52 6 0 17 -7 24 -15 7
-8 16 -12 21 -9 5 3 18 0 29 -6 16 -9 24 -8 36 5 8 8 22 15 29 15 8 0 33 25
56 55 30 40 39 58 31 68 -6 6 -8 36 -6 66 3 42 -1 59 -16 79 -11 13 -20 40
-20 59 0 26 -6 36 -25 45 -20 9 -26 21 -31 58 -5 39 -11 50 -38 65 -17 10 -44
30 -61 46 -46 43 -71 43 -147 1z m182 -248 c0 -12 11 -38 25 -58 14 -20 25
-41 25 -47 0 -5 7 -24 16 -41 19 -36 21 -103 3 -124 -6 -8 -24 -14 -39 -14
-24 0 -30 6 -44 46 -8 25 -29 61 -46 80 -16 19 -30 43 -30 52 0 10 -9 35 -19
56 -11 20 -21 56 -22 78 -3 34 0 42 21 53 22 12 28 10 67 -23 26 -22 43 -45
43 -58z"/>
<path d="M2226 1633 c-6 -14 -5 -15 5 -6 7 7 10 15 7 18 -3 3 -9 -2 -12 -12z"/>
<path d="M2824 1599 c-11 -12 -45 -34 -77 -51 -33 -16 -57 -34 -54 -41 2 -7
12 -38 21 -71 10 -32 19 -56 22 -53 2 2 0 16 -6 31 -16 44 -12 66 15 76 14 5
42 21 62 35 l37 25 18 -28 c10 -15 18 -42 18 -60 0 -18 9 -58 19 -90 11 -31
25 -86 31 -122 7 -36 21 -85 30 -110 10 -25 21 -67 25 -95 12 -83 34 -123 90
-169 64 -52 140 -74 200 -57 41 11 132 87 154 128 6 12 11 43 10 70 l-1 48
-10 -37 c-5 -21 -21 -48 -35 -60 -14 -13 -35 -34 -46 -47 -62 -67 -169 -67
-256 2 -53 42 -73 71 -82 121 -14 74 -26 121 -42 156 -8 19 -18 60 -21 90 -4
30 -16 80 -27 112 -11 32 -21 79 -24 104 -2 26 -11 54 -19 63 -9 10 -16 23
-16 29 0 21 -17 21 -36 1z"/>
<path d="M1846 1513 c-6 -14 -5 -15 5 -6 7 7 10 15 7 18 -3 3 -9 -2 -12 -12z"/>
<path d="M3341 1365 c0 -11 6 -31 14 -45 18 -32 18 -25 0 25 -8 22 -14 31 -14
20z"/>
<path d="M2740 1357 c0 -9 11 -33 25 -53 14 -20 25 -34 25 -31 0 3 -11 27 -25
53 -14 26 -25 40 -25 31z"/>
<path d="M1370 1308 c0 -8 -7 -21 -15 -28 -8 -6 -25 -35 -38 -63 -15 -32 -56
-85 -110 -140 -83 -85 -132 -117 -180 -117 -51 0 -76 -79 -41 -125 16 -20 16
-20 9 3 -12 40 2 59 48 66 78 12 232 154 296 273 15 27 31 47 36 47 6 -1 27
-41 48 -90 21 -49 44 -96 52 -104 7 -8 20 -35 28 -60 22 -63 63 -153 90 -197
13 -21 29 -57 35 -79 7 -23 19 -47 27 -54 8 -7 15 -21 15 -31 0 -30 62 -150
86 -166 13 -8 26 -27 29 -42 7 -31 25 -49 96 -98 57 -40 203 -78 263 -69 51 8
140 33 184 52 49 21 188 140 201 172 6 15 22 42 36 61 19 26 25 46 25 85 l-1
51 -14 -39 c-8 -22 -22 -51 -33 -65 -10 -14 -26 -39 -34 -56 -9 -16 -35 -43
-58 -60 -23 -16 -49 -37 -58 -46 -29 -28 -86 -59 -110 -59 -13 0 -35 -6 -50
-14 -83 -43 -244 -20 -350 50 -63 42 -78 58 -87 93 -3 12 -19 34 -34 47 -25
21 -81 135 -81 165 0 6 -9 22 -20 36 -11 14 -20 34 -20 43 0 10 -21 54 -46 98
-25 45 -57 114 -70 154 -14 40 -31 79 -39 88 -7 8 -32 60 -56 115 -43 104 -59
131 -59 103z"/>
<path d="M1842 1275 c-1 -11 10 -33 24 -50 15 -16 23 -23 19 -15 -5 8 -14 22
-20 30 -7 8 -15 24 -18 35 l-5 20 0 -20z"/>
<path d="M2790 1251 c0 -6 4 -13 10 -16 6 -3 7 1 4 9 -7 18 -14 21 -14 7z"/>
<path d="M3381 1255 c1 -19 18 -51 18 -35 0 8 -4 22 -9 30 -5 8 -9 11 -9 5z"/>
<path d="M2815 1181 c2 -24 6 -46 9 -49 9 -8 6 51 -4 73 -6 14 -7 7 -5 -24z"/>
<path d="M3397 1179 c-3 -12 -2 -31 3 -42 7 -18 9 -14 9 21 1 46 -4 54 -12 21z"/>
<path d="M1930 1091 c0 -6 4 -13 10 -16 6 -3 7 1 4 9 -7 18 -14 21 -14 7z"/>
<path d="M1950 1046 c0 -8 4 -17 9 -20 5 -4 7 3 4 14 -6 23 -13 26 -13 6z"/>
<path d="M2861 1028 c-1 -28 -12 -49 -52 -97 -60 -70 -96 -86 -178 -78 l-56 6
-2 -97 c-2 -96 -1 -97 13 -57 8 22 13 52 10 68 l-6 27 53 -6 c70 -8 112 12
170 79 59 69 68 94 58 149 l-9 43 -1 -37z"/>
<path d="M2020 911 c0 -6 4 -13 10 -16 6 -3 7 1 4 9 -7 18 -14 21 -14 7z"/>
<path d="M1016 767 c3 -10 9 -15 12 -12 3 3 0 11 -7 18 -10 9 -11 8 -5 -6z"/>
<path d="M1030 719 c0 -13 5 -31 10 -39 7 -11 8 -5 4 20 -8 43 -14 51 -14 19z"/>
<path d="M1050 656 c0 -2 8 -10 18 -17 15 -13 16 -12 3 4 -13 16 -21 21 -21
13z"/>
<path d="M1130 476 c0 -14 4 -27 8 -30 5 -3 6 8 4 25 -5 35 -12 38 -12 5z"/>
</g>
</svg>
