<?xml version="1.0" encoding="utf-8"?>
<!-- Generator: Adobe Illustrator 25.1.0, SVG Export Plug-In . SVG Version: 6.00 Build 0)  -->
<svg version="1.1" id="cave" xmlns="http://www.w3.org/2000/svg" xmlns:xlink="http://www.w3.org/1999/xlink" x="0px" y="0px"
	 viewBox="0 0 1000 400" style="enable-background:new 0 0 1000 400;" xml:space="preserve">
<style type="text/css">
	.st0{clip-path:url(#SVGID_2_);fill-rule:evenodd;clip-rule:evenodd;fill:url(#SVGID_3_);}
	.st1{clip-path:url(#SVGID_2_);}
	.st2{fill-rule:evenodd;clip-rule:evenodd;fill:url(#SVGID_4_);}
	.st3{fill-rule:evenodd;clip-rule:evenodd;fill:url(#SVGID_5_);}
	.st4{fill-rule:evenodd;clip-rule:evenodd;fill:#D7FFD9;}
	.st5{opacity:0.2;}
	.st6{fill-rule:evenodd;clip-rule:evenodd;fill:#007236;}
	.st7{fill-rule:evenodd;clip-rule:evenodd;fill:url(#SVGID_6_);}
	.st8{fill-rule:evenodd;clip-rule:evenodd;fill:#006B39;}
	.st9{opacity:0.5;fill:#002700;}
	.st10{fill-rule:evenodd;clip-rule:evenodd;fill:url(#SVGID_7_);}
	.st11{fill-rule:evenodd;clip-rule:evenodd;fill:#3BD485;}
	.st12{fill-rule:evenodd;clip-rule:evenodd;fill:url(#SVGID_8_);}
	.st13{fill-rule:evenodd;clip-rule:evenodd;fill:#006900;}
	.st14{fill-rule:evenodd;clip-rule:evenodd;fill:#0E8611;}
	.st15{fill-rule:evenodd;clip-rule:evenodd;fill:#007C2A;}
	.st16{opacity:0.2;fill-rule:evenodd;clip-rule:evenodd;fill:#002700;}
	.st17{opacity:0.3;fill-rule:evenodd;clip-rule:evenodd;fill:#002700;}
	.st18{opacity:0.3;fill:#002700;}
	.st19{opacity:0.5;fill-rule:evenodd;clip-rule:evenodd;fill:#002700;}
	.st20{fill:#70EF5A;}
	.st21{fill-rule:evenodd;clip-rule:evenodd;fill:url(#SVGID_9_);}
	.st22{fill-rule:evenodd;clip-rule:evenodd;fill:#006D30;}
	.st23{fill-rule:evenodd;clip-rule:evenodd;fill:#2BB55C;}
	.st24{opacity:0.61;fill-rule:evenodd;clip-rule:evenodd;fill:url(#SVGID_10_);}
	.st25{opacity:0.8;clip-path:url(#SVGID_2_);}
	.st26{fill-rule:evenodd;clip-rule:evenodd;fill:url(#SVGID_11_);}
	.st27{fill-rule:evenodd;clip-rule:evenodd;fill:url(#SVGID_12_);}
	.st28{fill-rule:evenodd;clip-rule:evenodd;fill:url(#SVGID_13_);}
	.st29{fill-rule:evenodd;clip-rule:evenodd;fill:url(#SVGID_14_);}
	.st30{opacity:0.6;fill-rule:evenodd;clip-rule:evenodd;fill:#002700;}
	.st31{fill-rule:evenodd;clip-rule:evenodd;fill:#109C51;}
	.st32{fill-rule:evenodd;clip-rule:evenodd;fill:url(#SVGID_15_);}
	.st33{fill-rule:evenodd;clip-rule:evenodd;fill:url(#SVGID_16_);}
	.st34{fill-rule:evenodd;clip-rule:evenodd;fill:url(#SVGID_17_);}
	.st35{fill-rule:evenodd;clip-rule:evenodd;fill:#009315;}
	.st36{fill-rule:evenodd;clip-rule:evenodd;fill:#047000;}
	.st37{fill-rule:evenodd;clip-rule:evenodd;fill:url(#SVGID_18_);}
	.st38{fill-rule:evenodd;clip-rule:evenodd;fill:#1BC224;}
	.st39{fill-rule:evenodd;clip-rule:evenodd;fill:url(#SVGID_19_);}
	.st40{fill-rule:evenodd;clip-rule:evenodd;fill:#004C00;}
	.st41{fill-rule:evenodd;clip-rule:evenodd;fill:#47AE26;}
	.st42{fill-rule:evenodd;clip-rule:evenodd;fill:#24A921;}
	.st43{fill-rule:evenodd;clip-rule:evenodd;fill:url(#SVGID_20_);}
	.st44{fill-rule:evenodd;clip-rule:evenodd;fill:url(#SVGID_21_);}
	.st45{fill-rule:evenodd;clip-rule:evenodd;fill:url(#SVGID_22_);}
	.st46{fill-rule:evenodd;clip-rule:evenodd;fill:url(#SVGID_23_);}
	.st47{fill-rule:evenodd;clip-rule:evenodd;fill:#001A00;}
	.st48{fill-rule:evenodd;clip-rule:evenodd;fill:#188100;}
	.st49{fill-rule:evenodd;clip-rule:evenodd;fill:#37A717;}
	.st50{fill-rule:evenodd;clip-rule:evenodd;fill:#3CB125;}
	.st51{fill-rule:evenodd;clip-rule:evenodd;fill:#006D1D;}
	.st52{opacity:0.8;fill-rule:evenodd;clip-rule:evenodd;fill:#002700;}
	.st53{fill-rule:evenodd;clip-rule:evenodd;fill:#1AB67E;}
	.st54{fill-rule:evenodd;clip-rule:evenodd;fill:url(#SVGID_24_);}
	.st55{fill-rule:evenodd;clip-rule:evenodd;fill:url(#SVGID_25_);}
	.st56{fill-rule:evenodd;clip-rule:evenodd;fill:#004D00;}
	.st57{fill-rule:evenodd;clip-rule:evenodd;fill:#003B00;}
	.st58{fill-rule:evenodd;clip-rule:evenodd;fill:#4DBB2F;}
	.st59{fill-rule:evenodd;clip-rule:evenodd;fill:#001E00;}
	.st60{opacity:0.8;fill:#002700;}
	.st61{fill-rule:evenodd;clip-rule:evenodd;fill:#3C9F18;}
	.st62{fill-rule:evenodd;clip-rule:evenodd;fill:#004600;}
	.st63{fill-rule:evenodd;clip-rule:evenodd;fill:#002400;}
	.st64{fill-rule:evenodd;clip-rule:evenodd;fill:#003C00;}
	.st65{fill-rule:evenodd;clip-rule:evenodd;fill:#49C034;}
	.st66{fill-rule:evenodd;clip-rule:evenodd;fill:#127600;}
	.st67{opacity:0.8;fill-rule:evenodd;clip-rule:evenodd;fill:#478E27;}
	.st68{fill-rule:evenodd;clip-rule:evenodd;fill:#919C00;}
	.st69{fill-rule:evenodd;clip-rule:evenodd;fill:#001B00;}
	.st70{fill-rule:evenodd;clip-rule:evenodd;fill:#505E00;}
	.st71{fill-rule:evenodd;clip-rule:evenodd;fill:#00773C;}
	.st72{opacity:0.6;fill-rule:evenodd;clip-rule:evenodd;fill:#001600;}
	.st73{fill-rule:evenodd;clip-rule:evenodd;fill:#32BD85;}
	.st74{fill-rule:evenodd;clip-rule:evenodd;fill:#4CD483;}
	.st75{opacity:0.7;fill-rule:evenodd;clip-rule:evenodd;fill:url(#SVGID_26_);}
	.st76{opacity:0.5;fill-rule:evenodd;clip-rule:evenodd;fill:#78ED11;}
	.st77{fill-rule:evenodd;clip-rule:evenodd;fill:#A3D700;}
	.st78{opacity:0.8;fill-rule:evenodd;clip-rule:evenodd;fill:#59C900;}
	.st79{opacity:0.5;fill-rule:evenodd;clip-rule:evenodd;fill:#125600;}
	.st80{fill-rule:evenodd;clip-rule:evenodd;fill:#629900;}
	.st81{clip-path:url(#SVGID_2_);fill-rule:evenodd;clip-rule:evenodd;fill:url(#SVGID_27_);}
	.st82{opacity:0.5;clip-path:url(#SVGID_2_);}
	.st83{fill-rule:evenodd;clip-rule:evenodd;fill:#919A00;}
	.st84{fill-rule:evenodd;clip-rule:evenodd;fill:#007752;}
	.st85{fill-rule:evenodd;clip-rule:evenodd;fill:#0BAB7C;}
	.st86{fill-rule:evenodd;clip-rule:evenodd;fill:#4EE785;}
	.st87{opacity:0.5;fill:url(#SVGID_28_);}
	.st88{opacity:0.5;fill:url(#SVGID_29_);}
	.st89{opacity:0.5;fill:url(#SVGID_30_);}
	.st90{opacity:0.2;fill:url(#SVGID_31_);}
	.st91{opacity:0.3;fill:url(#SVGID_32_);}
	.st92{opacity:0.2;fill:url(#SVGID_33_);}
</style>
<g>
	<defs>
		<rect id="SVGID_1_" width="1000" height="400"/>
	</defs>
	<clipPath id="SVGID_2_">
		<use xlink:href="#SVGID_1_"  style="overflow:visible;"/>
	</clipPath>
	<linearGradient id="SVGID_3_" gradientUnits="userSpaceOnUse" x1="397.8842" y1="277.2526" x2="397.8842" y2="-9.094947e-13">
		<stop  offset="0.2905" style="stop-color:#57C285"/>
		<stop  offset="0.4311" style="stop-color:#40B170"/>
		<stop  offset="0.7247" style="stop-color:#058439"/>
		<stop  offset="0.7489" style="stop-color:#008034"/>
		<stop  offset="0.7999" style="stop-color:#007A31"/>
		<stop  offset="0.8649" style="stop-color:#006B29"/>
		<stop  offset="0.9372" style="stop-color:#00511B"/>
		<stop  offset="1" style="stop-color:#00340C"/>
	</linearGradient>
	<rect x="188.8" class="st0" width="418.1" height="277.3"/>
	<g class="st1">
		<g>
			
				<radialGradient id="SVGID_4_" cx="-1131.0691" cy="195.0467" r="20.9293" gradientTransform="matrix(1.6929 -1.6929 1.6785 1.6785 1938.0031 -2186.0835)" gradientUnits="userSpaceOnUse">
				<stop  offset="0" style="stop-color:#003623"/>
				<stop  offset="0.3351" style="stop-color:#00321F"/>
				<stop  offset="0.6798" style="stop-color:#002613"/>
				<stop  offset="1" style="stop-color:#001400"/>
			</radialGradient>
			<path class="st2" d="M386,20.7c19.4,19.4,19.3,51-0.3,70.6c-19.6,19.6-51.2,19.7-70.6,0.3c-19.4-19.4-19.3-51,0.3-70.6
				C335,1.4,366.6,1.3,386,20.7z"/>
		</g>
		<g>
			
				<radialGradient id="SVGID_5_" cx="-1130.6223" cy="194.2441" r="17.8548" gradientTransform="matrix(1.6929 -1.6929 1.6785 1.6785 1938.0031 -2186.0835)" gradientUnits="userSpaceOnUse">
				<stop  offset="0" style="stop-color:#004B2A"/>
				<stop  offset="0.2672" style="stop-color:#004727"/>
				<stop  offset="0.5397" style="stop-color:#003B1E"/>
				<stop  offset="0.8137" style="stop-color:#00260E"/>
				<stop  offset="1" style="stop-color:#001400"/>
			</radialGradient>
			<path class="st3" d="M380.2,23.8c16.6,16.6,16.4,43.5-0.3,60.2c-16.7,16.7-43.6,16.8-60.2,0.3C303.2,67.7,303.3,40.7,320,24
				C336.7,7.3,363.7,7.2,380.2,23.8z"/>
		</g>
		<path class="st4" d="M388.3,54.1c0,21-17,38-38,38c-17.8,0-32.8-12.3-36.9-28.9c-0.7-2.9-1.1-6-1.1-9.1c0-1.4,0.1-2.8,0.2-4.1
			c2.1-19,18.2-33.9,37.8-33.9C371.3,16.1,388.3,33.1,388.3,54.1z"/>
		<g class="st5">
			<path class="st6" d="M340.7,79.8c0.5,1,0.8,1.9,1.6,2.8c0.9,0.9,1.6,1.1,2.7,1.4c0.7,0.2,0.8,0.4,1.7,0.4c0.6,0,1.3-0.1,1.9,0
				c1.2,0.3,1.8,1.3,3.2,1.4c1.3,0.1,2.1-0.4,3.2-0.7c1-0.3,2.3-0.8,3.2-1.1c1.1-0.4,2-0.7,3.1-1c1.2-0.4,1.8-1.2,3.3-0.8
				c0.1,0.5,0,1.4,0.6,1.7c0.5,0.2,1.2-0.3,1.7-0.5c1.3-0.5,2.5-0.8,3.7-1.3c0.6-0.2,1-0.2,1.6-0.7c0.6-0.4,1.2-0.7,1.8-1.1
				c1.1-0.7,2.2-1.5,3.3-2.3c2.1-1.4,3.5-3.4,4.8-5.5c0.7-1.1,1.1-2.3,1.5-3.6c0.5-1.6,0.3-2-0.7-3.3c-1.9,0.8-2.6-0.4-2.1-2.4
				c0.5-1.7,0.6-4.1,0.3-5.9c-0.1-0.3-0.3-0.6-0.4-1c-0.1-0.5,0-0.9-0.1-1.4c-0.2-0.8-0.4-1.4-0.4-2.3c0-0.9,0.1-1.9-0.1-2.8
				c-0.1-0.5-0.3-0.8-0.4-1.4c0-0.6,0.1-1.1-0.1-1.7c-0.4-1.5-1.8-2-3.1-2.4c-0.9-0.3-1.3-0.6-1.9,0c-0.6,0.6-0.4,1.5-0.4,2.3
				c0,1.5,1,2.9,1.8,4.1c0.4,0.6,1.1,1.1,1,1.9c-0.1,0.4-0.6,0.5-0.5,0.9c0,0.5,0.6,0.7,0.9,1c2.2,2.9-1.9,5.4-3.9,6.9
				c-1.1,0.9-2.8,1.3-3.2,2.8c-0.5,1.5,0.6,2.8,1.2,4.1c0.6,1.4,1.1,3.8,0.2,5.1c-0.4,0.6-1.1,0.9-1.6,1.1c-0.8,0.4-1.1,0.9-1.8,1.4
				c-1.2,0.8-2.6,1.1-4,1c-0.9-0.1-1.6-0.4-2.3-0.9c-0.6-0.4-1.3-1.1-1.9-1.3c-0.5-0.1-0.8,0-1.3-0.1c-0.6-0.1-0.8-0.3-1.3-0.5
				c-1-0.3-1.7,0.4-2.4,0.8c-0.7,0.3-1.4,0.8-2.2,0.6c-0.8-0.2-1.6-0.7-2.4-0.8c-1.8-0.4-4.6-0.5-6,0.7c-0.7,0.6-1,1.4-1.6,2.1
				C342,78.2,340.9,78.4,340.7,79.8z"/>
			<path class="st6" d="M375.6,39.7c-1.7,0-3.2-1.2-4.6-2.2c-1.1-0.8-2.3-2-2.9-3.2c-0.2-0.4-0.2-0.7-0.3-1c0-0.1-0.4-1.2-0.4-1.2
				c0-0.6,0.5-1.4,1-1.9c1.4-1.4,3.5-0.4,4.8,0.5c1.3,0.8,2.6,1.7,3.7,2.8c0.5,0.5,1.3,1,1.6,1.6c0.5,0.8,0.4,1.9,0.3,2.9
				c0,1.6,2,3.4-0.4,3.7c-1,0.1-3.9-0.7-4.2-1.9H375.6z"/>
			<path class="st6" d="M345.3,89c-0.4,0.5-0.9,0.1-1.4,0c-0.5-0.1-0.9-0.2-1.4-0.2c-1,0-1.9,0-2.9-0.2c-0.9-0.2-1.8-0.4-2.6-0.6
				c-0.3-0.1-0.7-0.3-1-0.4c-0.2,0-0.5,0-0.7,0c-0.1,0-0.1-0.1-0.2-0.2c-0.2,0-0.3,0-0.5,0c-0.9-0.2-1.7-0.4-2.5-0.6
				c-0.4-0.1-0.7-0.1-1-0.3c-0.4-0.2-0.8-0.5-1.2-0.7c-1.2-0.9-2.6-1.7-3.7-2.8c-1.1-1.1-2.2-2.1-3.3-3c-0.3-0.2-0.5-0.5-0.7-0.8
				c-0.3-0.2-0.6-0.3-0.9-0.6c-0.6-0.6-1-1.2-1.5-1.9c-0.9-1.3-2.1-2.4-2.8-3.8c-0.3-0.7-0.7-1.4-1.1-2c-0.3-0.4-0.5-0.9-0.7-1.4
				c-0.1-0.3-0.4-0.8-0.5-1.1c-0.1-0.5-0.1-1-0.3-1.5c-0.1-0.2-0.2-0.4-0.2-0.6c-0.1-0.3,0.1-0.6,0-0.8c0-0.2-0.2-0.3-0.3-0.6
				c-0.1-0.3,0.1-0.6,0-0.8c0-0.2-0.2-0.3-0.3-0.6c-0.1-0.3,0.1-0.6,0-0.9c-0.1-0.2-0.2-0.3-0.3-0.6c-0.1-0.2,0-0.6,0-0.8
				c0-0.6-0.2-1-0.2-1.6c0-0.5-0.1-1.2,0-1.7c0-0.2,0.2-0.3,0.3-0.6c0.1-0.3-0.1-0.6,0-0.9c0.6-0.2,0.4,1.2,0.4,1.5
				c0,0.6,0.2,0.9,0.2,1.5c0,0.7,0.3,0.8,0.7,1.3c0.2,0.2,0.6,0.7,0.7,1c0.1,0.2,0.1,0.5,0.1,0.7c0.1,0.2,0.1,0.4,0.1,0.7
				c0,0.6,0,0.8,0.4,1.2c0.3,0.2,0.8,0.6,1.2,0.6c0.5,0.1,1,0.1,1.5,0.2c0.2,0,0.3,0.2,0.6,0.3c0.3,0.1,0.6-0.1,0.9,0
				c0.3,0.1,0.6,0.7,0.7,0.9c0.1,0.5,0,0.9-0.2,1.3c-0.1,0.2-0.1,0.3-0.2,0.5c-0.1,0.2-0.3,0.3-0.4,0.5c-0.4,0.8,0.2,2.1,0.4,2.8
				c0.1,0.3,0.5,1.1,0.2,1.3c-0.2,0.2-1.5,0-1.8-0.1c-0.1,0.3,0.1,0.8,0.2,1.2c0.1,0.4,0.3,0.9,0.5,1.2c0.4,0.7,1.2,1.3,1.9,1.7
				c0.5,0.2,0.8,0.4,0.8-0.3c0-0.3,0-0.4,0.1-0.7c0.1-0.2,0.3-0.2,0.4-0.4c0.1-0.2-0.1-0.6,0-0.8c0-0.2,0.2-0.3,0.2-0.5
				c0.1-0.5-0.1-1.2,0-1.7c0.2-1.1,1-1.6,2-1.8c1-0.2,1.9-0.5,2.9-0.9c1-0.5,2.2-0.6,3.2-0.3c0.9,0.3,1.6,0.8,2.4,1.2
				c0.4,0.2,0.7,0.3,1.1,0.4c0.4,0.2,0.9,0.3,1.3,0.4c0.8,0.2,1.6,0.3,2.3,0.8c0.7,0.4,1.6,0.9,2,1.6c0.4,0.6,0.9,1.9,0.6,2.6
				c-0.2,0.6-1.1,1.1-1.5,1.6c-0.7,0.8-0.5,1.4,0,2.2c0.2,0.3,0.5,0.7,0.6,1.1c0.1,0.4,0,1.1,0,1.6c0,0.4-0.2,0.7-0.4,1.1
				c-0.2,0.3-0.8,0.6-0.9,0.9c-0.2,0.3,0,0.5,0.1,0.7c0,0.1,0.2,0.1,0.2,0.2c0.1,0.2,0,0.3,0.1,0.5c0.2,0.5,0.7,0.4,1.2,0.6
				c0.5,0.1,0.9,0.1,1.4-0.1c0.3-0.1,0.4-0.2,0.7-0.2c0.3-0.1,0.5,0.1,0.7,0.2c0.6,0.1,0.9-0.3,1.5-0.3c0.4,0,0.7,0.2,1.1,0.5
				c0.3,0.3,0.7,0.8,0.7,1.2C346.2,88.3,345.6,88.6,345.3,89z"/>
			<path class="st6" d="M340.9,71.7c0.1-0.1,0.3-0.1,0.4-0.2c0.4,0.4,0.8,0.8,1.2,1.1c0.7,0.4,1,0.2,1.2-0.6
				c0.1-0.4-0.1-0.6-0.2-0.9c-0.1-0.3,0-0.6-0.3-0.8c-0.4-0.3-1.8-0.1-1.6,0.6L340.9,71.7z"/>
			<path class="st6" d="M318.8,42c-0.1,0.2-0.2,0.2-0.4,0.2c-0.1-0.4-0.1-1.1,0-1.5c0-0.2,0.2-0.3,0.2-0.6c0-0.2,0-0.4,0-0.6
				c0.1-0.3,0.3-0.7,0.4-1c0.1-0.4,0.1-0.7,0.3-1.1c0.2-0.4,0.3-0.9,0.4-1.3c0.2-0.4,0.3-0.7,0.5-1c0.4-0.7,0.8-1.4,1.2-2.1
				c0.8-1.2,1.6-2.5,2.8-3.4c0.4-0.3,0.8-0.6,1.3-0.9c0.1-0.1,0.3-0.3,0.4-0.4c0.1-0.1,0.4-0.1,0.5-0.2c0.4-0.3,1.4-1.3,1.9-1.1
				c-0.3,0.9-0.9,1.7-1.3,2.5c-0.5,1-1.4,0.9-2.1,1.6c-1.1,1.1,0.7,1.5,1.4,1.9c0.6,0.4,0.6,1,0.6,1.7c0,0.6,0,1.1,0.2,1.7
				c0.1,0.2,0.2,0.6,0.2,0.8c0,0.2,0,0.3,0,0.5c0,0.1,0.1,0.2,0.2,0.3c0.1,0.7-0.1,1-0.4,1.6c-0.2,0.6-0.4,1.1-0.8,1.5
				c-0.5,0.4-0.9,0.3-1.6,0.3c-0.4,0-0.6-0.1-0.9-0.2c-0.2-0.1-0.6-0.2-0.7-0.2c-0.3-0.1-0.5,0-0.8-0.1c-0.3-0.1-0.3-0.2-0.7-0.1
				c-0.4,0.1-0.8,0.6-1.2,0.6c-0.6,0.1-1.2-0.1-1.8,0C318.6,41.7,318.6,41.7,318.8,42z"/>
		</g>
	</g>
	<g class="st1">
		<linearGradient id="SVGID_6_" gradientUnits="userSpaceOnUse" x1="412.6631" y1="293.8" x2="412.6631" y2="-0.7684">
			<stop  offset="0" style="stop-color:#007D79"/>
			<stop  offset="9.418137e-02" style="stop-color:#007B75"/>
			<stop  offset="0.1886" style="stop-color:#007669"/>
			<stop  offset="0.2833" style="stop-color:#006E55"/>
			<stop  offset="0.3774" style="stop-color:#006339"/>
			<stop  offset="0.4163" style="stop-color:#005D2B"/>
			<stop  offset="0.5537" style="stop-color:#005425"/>
			<stop  offset="0.7777" style="stop-color:#003C15"/>
			<stop  offset="1" style="stop-color:#001D00"/>
		</linearGradient>
		<path class="st7" d="M266.9,84.1l13.4,3.3l8.1-1.6c0,0,32.1-19.8,46-23.2h5.9L345,99l5.9,1.9l4.4,5.1l38-24.9l54.8-81.9L606.9,0
			l-93,282.2l-295.6,11.6L266.9,84.1z"/>
		<polygon class="st8" points="296.4,81 318,87.6 318.8,103.1 323.2,106.1 309,102.7 305.1,101.8 286.2,102.7 297.6,115.6 
			305.1,116.2 298.9,107.5 307.4,116.2 316.9,117.1 308.7,104.8 309.6,105.1 312.4,109.1 310.6,103.8 325.6,116.2 345.5,113 
			343.1,110.9 326.1,106.5 328.2,103.1 343.1,99.5 336.3,70.2 325.4,65.8 323.2,66.9 334,70.2 333.2,70.5 320.1,68.2 309.2,73.6 
			329.8,76 308,74.5 		"/>
		<path class="st9" d="M380.6,109l-25.8-0.3l0.4-2.7l-4.4-5.1l-5.9,2.2h-16.8l14.9-3.5L345,99l-4.7-36.4l-4,7.6l-23.5,22.3
			l-12.5,4.4L282,94.2l6.3-8.5l-8.1,1.6l-7.3,3.4h-7.7l13.3,12.2l26.5-1.3l37.9,9.1l2.5,2.1l-26.3,4.3l-35.5-2.7l4.2,11.5l44.2,56
			l-81-33.9l-9.3,44.1l49.8,100.6H305l-1.2,5l2-5h0.8l1.1-4.6l52.6-131.1l31.5-34.3l11-24.9L380.6,109z M371.6,143.4l-22.8,9.4
			l-46.3-16.2l-6.4-7.9l52.7,5.6l22.8,4.8V143.4z"/>
		<polygon class="st9" points="321.9,287.5 420.6,157.1 426.1,111.7 402.7,98 393.2,81.1 448.1,-0.8 400.3,78.3 406.7,86.6 
			453.1,56.8 496.7,0 502.5,-0.8 453.1,67.9 439,96.4 439,106.1 463.2,100 506.3,46.6 496.3,27.4 554.2,15 513.2,44.8 463.2,109.2 
			432.6,145.4 399.1,228.4 399.1,257.8 488.9,240 606.9,0 514,282.2 		"/>
		<polygon class="st9" points="348.8,152.8 332.1,182 299.1,141.9 302.5,136.6 		"/>
		<polygon class="st9" points="406.7,86.6 402.7,98 426.1,111.7 439,96.4 453.1,67.9 502.5,-0.8 496.7,0 453.1,56.8 		"/>
		<polygon class="st9" points="463.2,100 460.8,112 513.2,44.8 554.2,15 496.3,27.4 506.3,46.6 		"/>
		<polygon class="st9" points="420.6,157.1 418.7,179.8 399.1,228.4 357.3,286 321.9,287.5 		"/>
		<polygon class="st8" points="251.2,148.1 316.7,175.6 279.5,159 275.1,152.2 330.3,179.8 322.3,169 305.2,158.4 315.9,162.3 
			287.9,126.1 259.9,112 		"/>
		<polygon class="st8" points="261.7,106.5 285,117.3 283.7,114.6 263.6,98.5 		"/>
		<polygon class="st8" points="302.5,136.6 348.8,152.8 322.3,141.7 319.2,138.6 357.3,149.3 371.6,143.4 352.5,140.9 371.3,141.7 
			371.6,139.1 296.1,128.6 		"/>
		<polygon class="st8" points="395.6,77.4 448.1,-0.8 409.7,66.6 420.6,57.3 415.6,65.8 474.5,0 468.1,16.5 472,19.4 452.6,51.6 
			480.8,20.7 453.1,56.8 406.7,86.6 		"/>
		<linearGradient id="SVGID_7_" gradientUnits="userSpaceOnUse" x1="411.9872" y1="295.541" x2="411.9872" y2="-0.7632">
			<stop  offset="0" style="stop-color:#099C7A"/>
			<stop  offset="1" style="stop-color:#001400"/>
		</linearGradient>
		<path class="st10" d="M267,84.1l13.4,3.3l8.1-1.6c0,0,32.1-19.8,45.9-23.2l5.9,0L345,99l5.9,1.9l4.4,5.1l38-24.9l54.8-81.9
			l157.4,7.8l-1.3,288.5l-385.8-1.7L267,84.1z"/>
		<polygon class="st11" points="449.7,-3.2 395.6,77.4 393.3,81.1 355.3,106 350.9,100.9 345,99 340.3,62.6 334.4,60.1 309.2,73.6 
			288.4,85.8 280.4,87.4 267,84.1 265.8,85.4 278.9,88.3 287.6,86.6 310.2,73.9 334.3,63.4 339.5,63.3 344.3,99.1 350.1,101.1 
			354.9,107.9 395,84.3 396.7,78.3 		"/>
	</g>
	<g class="st1">
		<g>
			<linearGradient id="SVGID_8_" gradientUnits="userSpaceOnUse" x1="151.8727" y1="349.8842" x2="151.8727" y2="-9.094947e-13">
				<stop  offset="5.347590e-03" style="stop-color:#002300"/>
				<stop  offset="1" style="stop-color:#004700"/>
			</linearGradient>
			<path class="st12" d="M303.7,162.9l-13.6-34.3c0,0-19.5-42.9-21.2-46.7c-1.8-3.8-21-19.1-21.6-19.7c-0.6-0.6-19.1,0-19.1,0
				l-6.8-3.3L188.8,0H0v349.9l303.7-52V162.9z"/>
			<polygon class="st9" points="158,0 176.2,50.8 184.3,60.4 193.6,60.4 221.4,58.9 228.2,62.1 201.9,78.3 218.4,76 222.2,76.5 
				225,82.6 225.2,114.6 205,174.7 210.3,179.8 228.2,176.1 253.3,182 200.2,320.1 0,349.9 100,241.3 139.6,190.7 163.8,86.6 
				163.8,76.2 115.8,146.9 54.1,195.3 68.9,161.7 74.8,126.1 5,225.8 33.5,213.5 0,315.6 0,40.2 55.1,55.7 60.7,42.4 38,-0.8 
				158.3,0.7 			"/>
			<polygon class="st13" points="222.2,76.5 235.4,70.5 247.3,62.1 228.2,62.1 201.9,78.3 218.4,76 			"/>
			<polygon class="st14" points="225.2,114.6 235.6,90.8 235.4,70.5 222.2,76.5 225,82.6 			"/>
			<path class="st15" d="M291,130.7l-18.4-2.3l-6.2-5.6l-30.8-32l-0.2-20.3l11.9-8.4c0,0,18.9,13.8,21.6,19.7L291,130.7z"/>
			<polygon class="st16" points="272.6,128.3 261.6,152.8 228.2,176.1 253.3,182 303.7,162.9 291,130.7 			"/>
			<polygon class="st17" points="115.8,146.9 85.5,198.1 50.4,295.1 139.6,190.7 163.8,86.6 163.8,76.2 			"/>
			<polygon class="st18" points="225,82.6 222.2,76.5 218.4,76 201.9,78.3 188.8,67.9 184.3,60.4 163.8,86.6 139.6,190.7 
				163.2,148.1 134.8,194.5 0,349.9 100,304.2 131.9,295.8 144.6,258.7 205,174.7 225.2,114.6 			"/>
			<polygon class="st18" points="176.2,50.8 163.8,76.2 115.8,146.9 54.1,195.3 68.9,161.7 100,0 119.4,-0.8 161.5,46.6 170.7,48.7 
				170.7,43.4 158.3,0.7 			"/>
			<polygon class="st18" points="228.2,176.1 205,194 163.8,237.9 205,187.4 210.3,179.8 			"/>
			<polygon class="st19" points="221.2,265.5 212.4,295.5 291,272.7 247.3,306.2 200.2,320.1 			"/>
			<polygon class="st9" points="33.5,213.5 47.7,205.2 85.5,198.1 50.4,295.1 0,349.9 0,257.7 			"/>
			<polygon class="st20" points="5,225.8 33.5,213.5 54.1,195.3 68.9,161.7 74.8,126.1 			"/>
			<polygon class="st13" points="228.2,176.1 249,161.4 284.3,165.9 303.7,162.9 253.3,182 			"/>
			<polygon class="st13" points="91.4,44.8 110,84.3 152.5,122.9 163.2,148.1 74.8,100.6 			"/>
			<polygon class="st9" points="74.8,100.6 50.4,157.1 5,225.8 42.8,134.3 91.4,44.8 			"/>
			<linearGradient id="SVGID_9_" gradientUnits="userSpaceOnUse" x1="84.108" y1="225.8171" x2="84.108" y2="100.5684">
				<stop  offset="5.347590e-03" style="stop-color:#002300"/>
				<stop  offset="1" style="stop-color:#003000"/>
			</linearGradient>
			<polygon class="st21" points="74.8,100.6 5,225.8 33.5,213.5 54.1,195.3 115.8,146.9 148.5,152.1 163.2,148.1 			"/>
			<polygon class="st9" points="74.8,100.6 91.4,44.8 0,117.3 -2.9,261.6 33.5,213.5 47.7,205.2 85.5,198.1 110.6,169.8 
				146.9,159.2 163.2,148.1 			"/>
			<polygon class="st13" points="50.4,295.1 85.5,198.1 110.6,169.8 146.9,159.2 140.6,185.1 100,241.3 			"/>
		</g>
		<polygon class="st22" points="205,88.4 169.4,149.6 188.8,128.3 165.6,164.3 225.2,114.6 215.1,143.7 198.6,157.1 198.6,157.1 
			192.9,161.7 194.9,160.8 197,159.9 212.4,152.8 206.4,166.2 178.5,211.6 138.1,255.6 91,334.9 78.7,340 55.1,345.1 122.6,233.4 
			151.3,171.6 157.3,158.7 188.8,79.3 188.8,67.9 228.2,62.1 247.3,62.1 235.4,70.5 222.2,76.5 		"/>
		<polygon class="st23" points="266,118.7 283.8,129.8 272.6,128.3 243.4,110.6 215.1,143.7 225.2,114.6 235.6,90.8 241,96.4 
			266,104.3 272.6,106.8 256.8,104.3 260.8,110.4 286.9,120.5 291,130.7 		"/>
		<polygon class="st23" points="168.9,37.1 138.1,22.7 129.7,10.9 152.7,20.2 124.5,5 119.4,-0.8 158,0 		"/>
		<polygon class="st23" points="171.3,37.1 216.6,50.2 209.4,37.1 183.3,27.5 194,29.3 201.9,31.6 164.5,18.2 162.6,12.9 
			198.9,18.2 192.2,6.1 158,0 		"/>
		<polygon class="st17" points="197,159.9 212.4,152.8 206.4,166.2 178.5,211.6 138.1,255.6 91,334.9 76.7,342.4 100,282.2 
			122.6,233.4 116.6,250.7 122.1,257.7 138.1,248.3 176.2,207 198.6,167.7 176.2,198.3 158.3,214.2 193.4,165.9 		"/>
		<polygon class="st19" points="243.4,110.6 215.1,143.7 198.6,157.1 198.6,157.1 194.9,160.8 156.2,199.7 136,213.8 151.3,171.6 
			157.3,158.7 188.8,79.3 188.8,67.9 196.9,78.3 199.9,78.3 222.2,76.5 205,88.4 169.4,149.6 188.8,128.3 165.6,164.3 225.2,114.6 
			235.6,90.8 		"/>
		<polygon class="st23" points="267,140.9 297.4,146.9 298.9,150.7 276.5,146.9 284.3,150.7 272.6,149.5 301.2,156.4 302.5,159.7 
			261.6,152.8 		"/>
		<polygon class="st23" points="91.4,44.8 102,67.3 136,107.9 107.1,85.3 127.4,110.5 136,133.5 74.8,100.6 		"/>
		<polygon class="st23" points="241.9,90.8 259.3,98 275.1,103.1 258.5,94.1 249.2,91.9 255,94.7 		"/>
		<polygon class="st23" points="269.5,83.2 259.9,81 271.6,87.6 		"/>
		<polygon class="st23" points="178.2,49.4 187.3,50.9 194.9,53.9 192.2,53.9 		"/>
		<polygon class="st22" points="101.4,55.2 116.2,61.4 108.8,61.4 		"/>
		<polygon class="st22" points="152.1,248.3 176.2,217.4 207.8,183.5 163.8,237.9 		"/>
		<linearGradient id="SVGID_10_" gradientUnits="userSpaceOnUse" x1="152.5861" y1="349.8842" x2="152.5861" y2="90.81">
			<stop  offset="0" style="stop-color:#17A485"/>
			<stop  offset="1" style="stop-color:#001400"/>
		</linearGradient>
		<polygon class="st24" points="305.2,307.9 303.7,162.9 273,90.8 241.9,90.8 0,96.7 0,349.9 		"/>
		<polygon class="st22" points="79.4,103.1 85.5,108.7 63.8,151.2 38.9,210.4 45.8,201.6 74.8,138.6 80.1,133.5 62.2,189 
			73.9,179.8 115.8,146.9 136,133.5 		"/>
		<polygon class="st23" points="130.9,108.7 138.1,134.6 153.4,142.9 142.1,122.8 142.1,125.8 		"/>
		<polygon class="st23" points="144.9,120.7 151.2,130.7 151.2,125.7 		"/>
		<polygon class="st23" points="97.2,14.7 105.4,46.6 94.1,23.5 		"/>
		<polygon class="st23" points="110.6,169.8 84.1,258.5 93.5,248.3 112.6,182.6 100,241.3 116.2,218.8 123.4,182.9 123.4,208.9 
			140.6,185.1 140.6,161.1 		"/>
		<polygon class="st23" points="93.5,195.3 87.5,212.6 87.5,220.8 		"/>
		<polygon class="st23" points="97.5,184.6 98.7,190.3 102.3,179.2 		"/>
		<polygon class="st23" points="63,278 60.7,266.7 74.8,243.8 		"/>
		<polygon class="st23" points="228.2,176.1 249,161.4 284.3,165.9 293.7,166.7 283.9,170.4 252.8,169 280.5,171.7 272.5,174.7 
			252.8,174.1 265.8,177.3 253.3,182 		"/>
		<polygon class="st23" points="212.4,295.5 228.9,278 302.5,268.7 291,272.7 245.6,277.6 265.3,280.2 		"/>
		<polygon class="st23" points="0,40.2 55.1,55.7 13.3,36.6 57.7,49.4 60.7,42.4 38,-0.8 0,0 		"/>
		<polygon class="st22" points="101.4,322 152.1,248.3 123.4,295.1 126.4,293.4 130.8,291 123.4,304.7 129.1,304.9 205.1,218.8 
			228.2,209.1 209.5,243.8 212.4,250.7 243.4,208.3 200.2,317.4 91,334.9 		"/>
		<polygon class="st17" points="130.8,291 116.3,306.9 101.4,333.6 123.4,304.7 		"/>
		<polygon class="st17" points="228.2,209.1 192.6,247.2 201.9,241.3 142.9,326.6 167.2,322.7 212.4,250.7 209.5,243.8 		"/>
		<polygon class="st17" points="243.4,208.3 185.6,319.8 200.2,317.4 		"/>
		<polygon class="st22" points="0,315.6 33.5,213.5 18.8,247.2 5,263.1 13.4,240 30.4,214.2 5,224.2 0,229 		"/>
		<polygon class="st22" points="0,229 38.1,145.5 -0.4,206 		"/>
		<polygon class="st23" points="303.7,162.9 289.9,259.8 293.7,245.5 299.1,218.8 300.2,217.6 295.6,269.5 302.5,268.7 296.8,270.9 
			291.8,310.3 305.2,307.9 		"/>
		<polygon class="st23" points="289.9,222.3 281.6,262.5 275.8,264.7 		"/>
	</g>
	<g class="st25">
		<linearGradient id="SVGID_11_" gradientUnits="userSpaceOnUse" x1="228.7512" y1="348.0682" x2="228.7512" y2="113.7644">
			<stop  offset="0" style="stop-color:#004A02"/>
			<stop  offset="0.1541" style="stop-color:#004002"/>
			<stop  offset="0.6982" style="stop-color:#002000"/>
			<stop  offset="1" style="stop-color:#001400"/>
		</linearGradient>
		<path class="st26" d="M-40.9,298.7c0,0,52.4,3.1,77.4-9c21.2-10.3-30.7-27.2-28.3-36.9s52.9-61.3,80.1-59.3
			c27.3,2,44.6,26.9,54.7,29c10,2.1,41.1-46,93.2-45.9s71.1,25.6,74.6,29.3c3.5,3.7-15.5,15.1-18,22.8s47.6-14.9,56.8-33.2
			c9.2-18.4-19.8-32.3-24.1-54.2c-4.4-21.9,45.2-36.8,57.2-20.5c12.1,16.3,11.6,29.1,10.7,35.6c-0.9,6.5-16.3,11.8-18.7,8
			c-2.4-3.8-8.1-3.2-8.5-1.3c-0.4,2,3.6,26.8,38.3,38.6s73.2,53,75,65.8c1.8,12.8-8.3,30.1-3.9,42.3c4.4,12.2,22.6,21.2,22.6,21.2
			v17.1H-40.9V298.7z"/>
		<linearGradient id="SVGID_12_" gradientUnits="userSpaceOnUse" x1="228.7512" y1="348.0682" x2="228.7512" y2="247.4656">
			<stop  offset="0" style="stop-color:#004A02"/>
			<stop  offset="0.1541" style="stop-color:#004002"/>
			<stop  offset="0.6982" style="stop-color:#002000"/>
			<stop  offset="1" style="stop-color:#001400"/>
		</linearGradient>
		<path class="st27" d="M498.4,313.8c0,0-23.1-25.5-40.2-29.2s-7.8,17.2-12.9,28.3c-5.1,11.1-167.4-23.7-256.1-27.1
			c-88.7-3.4-115.5,37.4-158.3,41.1c-42.8,3.7-71.8-79.5-71.8-79.5v100.6h539.3V313.8z"/>
		<linearGradient id="SVGID_13_" gradientUnits="userSpaceOnUse" x1="234.3917" y1="348.0682" x2="234.3917" y2="142.1552">
			<stop  offset="0" style="stop-color:#004A02"/>
			<stop  offset="0.1541" style="stop-color:#004002"/>
			<stop  offset="0.6982" style="stop-color:#002000"/>
			<stop  offset="1" style="stop-color:#001400"/>
		</linearGradient>
		<path class="st28" d="M149.9,348.1c0,0,27.9-24.7,35.5-62.2S164,218.2,165,198.5c1.1-19.6,50.2-59.1,67.1-56.2
			c16.9,2.9,8.5,19.8,9.8,22.1c1.3,2.3,15.3-8.3,41.4,13.7c26.1,22,29.3,45.4,24.4,68.9c-4.8,23.5,11.1,101,11.1,101L149.9,348.1z"
			/>
	</g>
	<g class="st1">
		<g>
			<linearGradient id="SVGID_14_" gradientUnits="userSpaceOnUse" x1="500.0861" y1="400" x2="500.0861" y2="252.6211">
				<stop  offset="5.347590e-03" style="stop-color:#006600"/>
				<stop  offset="0.9637" style="stop-color:#004200"/>
				<stop  offset="1" style="stop-color:#003000"/>
			</linearGradient>
			<polygon class="st29" points="1000.2,267.8 1000.2,400 0,400 0,329 239.7,293.8 558.1,252.6 			"/>
			<polygon class="st30" points="689.9,283.7 650,287.5 556.3,300.7 518.3,293.8 425.4,289.6 525.1,296.1 557.6,303.3 556.3,304.9 
				495.7,317.5 487.3,317.5 443.2,309.2 392.1,308.3 331.4,304.2 325.9,300.6 359,293.4 302,304.2 61.7,319.9 200.2,320.1 
				305.2,307.9 354.9,307.8 482.8,320.1 490.5,320.1 442.6,339.5 378.8,345.1 275.7,359.5 239.7,362.1 0,367.6 0,376.8 436.4,353.4 
				462.6,355.4 432.2,387.2 65.7,400 136,400 429.7,389.8 462.6,355.4 443.2,344.8 570.5,304.2 705.3,284.7 			"/>
			<polygon class="st31" points="577,269.9 694.3,280.9 761.9,283.7 680.1,282.3 658.6,283.7 838.7,287.5 963.9,273.9 1000.2,272.7 
				1000.2,267.8 969.2,264.5 933.2,264.5 929.8,261.8 918.9,255.6 876.4,262 875.4,262.8 869.2,262.6 823.6,264 780.4,264.4 
				727.8,264.5 			"/>
			<polygon class="st31" points="1000.2,271.9 1000.2,400 403.9,399.6 544.8,395.4 498.7,394.1 462.6,388.3 429.7,389.8 
				443.2,375.7 462.6,355.4 440.3,353.4 443.2,344.8 570.5,304.2 705.3,284.7 			"/>
			<linearGradient id="SVGID_15_" gradientUnits="userSpaceOnUse" x1="662.3745" y1="397.4533" x2="651.764" y2="293.3689">
				<stop  offset="5.347590e-03" style="stop-color:#003D00"/>
				<stop  offset="1" style="stop-color:#003000"/>
			</linearGradient>
			<polygon class="st32" points="560,313.3 568.4,307.2 674,291 740,285.6 745,287.5 745,292.8 727.8,304.2 			"/>
			<linearGradient id="SVGID_16_" gradientUnits="userSpaceOnUse" x1="642.7419" y1="399.4547" x2="632.1313" y2="295.3704">
				<stop  offset="5.347590e-03" style="stop-color:#003D00"/>
				<stop  offset="1" style="stop-color:#003000"/>
			</linearGradient>
			<path class="st33" d="M469.6,347.4l3.4-4.4l139.6-29.7l89.4-5.3c0,0,73.1-3,82.2-3c9.1,0,16.9,2.5,16.9,2.5l-81.7,23.3
				c0,0-80.1,14.1-92,14.1s-128.8,5.1-128.8,5.1L469.6,347.4z"/>
			<linearGradient id="SVGID_17_" gradientUnits="userSpaceOnUse" x1="588.506" y1="404.9834" x2="577.8956" y2="300.8995">
				<stop  offset="5.347590e-03" style="stop-color:#003D00"/>
				<stop  offset="1" style="stop-color:#003000"/>
			</linearGradient>
			<path class="st34" d="M543.3,359.2c0,0,3.3,2.8,19.5,2.8c16.2,0,47-2.8,47-2.8l5.4-2.5l8-8.8l-3.3-1.6l-54.2,4.2
				C565.7,350.4,546.7,355.8,543.3,359.2z"/>
			<polygon class="st19" points="239.7,293.8 325.9,296.3 331.4,299.4 302,304.2 287.5,310 282.9,305.8 261.7,307.6 259.2,313.3 
				305.2,307.9 354.9,307.8 357.8,306 331.4,304.2 325.9,300.6 357.3,293.8 			"/>
			<polygon class="st19" points="518.3,293.8 525.1,296.1 557.6,303.3 556.3,304.9 495.7,317.5 487.3,317.5 487.3,320.1 
				490.5,320.1 442.6,339.5 436.4,353.4 331.4,358 329.6,352 278.7,359.1 278.7,361.9 437.9,353.5 462.6,355.4 443.2,344.8 
				570.5,304.2 651.7,292.4 616.9,291 610.4,292.8 564.1,299.4 556.3,300.7 			"/>
			<polygon class="st19" points="328.1,393.3 331.8,390.7 432.2,387.2 429.7,389.8 			"/>
			<polygon class="st35" points="495.7,317.5 487.3,317.5 443.2,309.2 392.1,308.3 331.4,304.2 325.9,300.6 357.3,293.8 416.1,289 
				522.8,295.8 557.6,303.3 556.3,304.9 			"/>
			<polygon class="st19" points="429.6,314.9 443.2,309.2 465.2,313.4 465.2,318.4 			"/>
			<polygon class="st19" points="423,314.3 426.8,308.9 419.9,308.8 417.6,313.8 			"/>
			<polygon class="st36" points="556.3,300.7 518.3,293.8 429.6,289.4 523.9,289.4 615.2,291.5 610.4,292.8 			"/>
			<polygon class="st35" points="462.6,355.4 436.4,353.4 144.9,368.6 201.9,395.3 432.2,387.2 			"/>
			<polygon class="st36" points="61.7,319.9 289,305.3 315.3,302 357.3,293.8 239.7,293.8 121.7,310.3 			"/>
			<path class="st19" d="M788.6,304.9l-90.3,26.5l-170.5,14.8l-54.7-3.3l-3.4,4.4l28.4,6.1l40.5,0.7l-1.8,5.9l33.7,4.8l44.7-4.5
				c0,0,51.4-18.9,65.6-21.5c14.2-2.7,124.9-21.3,124.9-21.3l-1.5-9.7L788.6,304.9z"/>
			<linearGradient id="SVGID_18_" gradientUnits="userSpaceOnUse" x1="766.0024" y1="386.8892" x2="755.3919" y2="282.8048">
				<stop  offset="5.347590e-03" style="stop-color:#003D00"/>
				<stop  offset="1" style="stop-color:#003000"/>
			</linearGradient>
			<path class="st37" d="M603.9,372.7l-3.7-6.4c0,0,48.8-19.8,65.4-24c16.5-4.2,123.9-24.9,140.1-24.9c16.3,0,78.3,3.7,92.1,10
				s28.5,26.7,28.5,26.7l-10.1,7.9c0,0-97.5,30.3-125.6,33.3C762.7,398.4,603.9,372.7,603.9,372.7z"/>
			<path class="st19" d="M904.8,331.6c0,0,15.3,15.5,15.3,18.3c0,2.8-102.8,35.4-139.7,39.9c-36.9,4.5-180.2-23.5-180.2-23.5
				l3.7,6.4c0,0,125.4,27.4,190.9,25.4c65.4-2,142.2-41.6,142.2-41.6l-1.8-6.6l-37.4-22.5L904.8,331.6z"/>
			<polygon class="st19" points="568.4,307.2 686.3,304.9 730.3,300.7 745,287.5 745,292.8 727.8,304.2 560,313.3 			"/>
			<path class="st38" d="M665.6,342.3l3.9,22.5c0,0,53.4,31,119.1,23.7c81.3-9,108.1-57.7,108.1-57.7s-86.9-14.1-93.7-13.3
				C796.1,318.3,665.6,342.3,665.6,342.3z"/>
			<linearGradient id="SVGID_19_" gradientUnits="userSpaceOnUse" x1="901.5562" y1="278.4544" x2="898.4734" y2="248.214">
				<stop  offset="5.347590e-03" style="stop-color:#003D00"/>
				<stop  offset="1" style="stop-color:#003000"/>
			</linearGradient>
			<path class="st39" d="M871.3,262.8h23.3l33.2-3.3v-4.7l-7.5-4.2C920.3,250.6,897.8,252.9,871.3,262.8z"/>
			<path class="st40" d="M669.5,364.8l-23.8,9.8l-45.4-8.3c0,0,46.9-19,65.4-24L669.5,364.8z"/>
			<polygon class="st40" points="612.7,313.3 538,339.5 502.9,344.7 473,342.9 			"/>
			<polygon class="st30" points="875.4,262.8 864,265.8 646.8,267 727.8,264.5 			"/>
			<polygon class="st30" points="926.4,259.8 926.4,264.5 893.8,266.2 918.1,266 926.4,266.2 937,266.4 952.6,270.6 934.7,272.7 
				885.8,275.4 1000.2,275.4 1000.2,267.8 969.2,264.5 933.2,264.5 929.8,261.8 			"/>
			<polygon class="st17" points="814.3,299.4 918.9,292.8 1000.2,299.4 			"/>
			<polygon class="st17" points="896.6,314.3 937,313.8 969.2,317.4 			"/>
			<polygon class="st17" points="1000.2,355.8 898.2,386.6 956,378.5 875.4,400 1000.2,400 			"/>
			<polygon class="st17" points="443.2,375.7 441.8,382.2 471.1,382.2 527.7,387.2 669.1,395.4 544.8,395.4 498.7,394.1 
				462.6,388.3 429.7,389.8 			"/>
			<polygon class="st19" points="498.7,394.1 509.9,385.5 534.8,387.6 669.1,395.4 540.9,395.3 			"/>
			<polygon class="st31" points="230.6,316.6 386,344.5 378.8,345.1 289,339.5 344.5,349.9 339.7,350.5 215.6,335.4 207.9,334.5 
				223.1,339.5 278.7,349.9 116.3,330.4 155.3,318.3 			"/>
			<polygon class="st17" points="378.8,345.1 286.9,337.5 228.8,331.8 289,339.5 			"/>
			<polygon class="st17" points="339.7,350.5 262.8,339.5 131.9,325.4 200.2,334.5 207.9,334.5 			"/>
			<polygon class="st17" points="278.7,349.9 125.7,327.4 116.3,330.4 			"/>
			<polygon class="st41" points="719.5,330.7 825.6,380.9 825.6,388 834.5,385.7 836.4,377.9 722.7,329.8 			"/>
			<polygon class="st42" points="746.6,326.3 879.2,349.9 896.8,358.9 897.8,367.6 916.3,362 920.1,349.9 893.8,336 759.9,324 			
				"/>
			<polygon class="st42" points="612.7,313.3 745,317.4 746.6,322.9 791.7,309.7 788.6,304.9 665.6,310.1 			"/>
			<polygon class="st42" points="393.7,355.6 395.9,343.6 289.9,309.7 297.7,308.8 401,343.3 400.9,355 423,354 425.2,341 
				359,308.2 365.8,308.8 429.7,340.6 426.9,353.8 			"/>
			<polygon class="st42" points="234.9,364.2 375.2,388 405.3,387.2 251,363.4 			"/>
			<polygon class="st41" points="200.2,366.1 296.2,392 246.9,393.7 176.6,367.4 			"/>
			<polygon class="st41" points="410.9,289.8 431.1,308.8 443.2,309.2 413.5,289.9 			"/>
			<polygon class="st41" points="401.6,289.8 426.8,308.9 423,308.9 391.6,291 			"/>
			<linearGradient id="SVGID_20_" gradientUnits="userSpaceOnUse" x1="903.5916" y1="315.5284" x2="899.4537" y2="274.9373">
				<stop  offset="5.347590e-03" style="stop-color:#003D00"/>
				<stop  offset="1" style="stop-color:#003000"/>
			</linearGradient>
			<polygon class="st43" points="875.4,293.8 897.8,282.4 917.1,279.3 924.1,279.3 926.8,288.6 912.4,292.8 			"/>
			<linearGradient id="SVGID_21_" gradientUnits="userSpaceOnUse" x1="940.0226" y1="305.083" x2="937.8478" y2="283.7486">
				<stop  offset="5.347590e-03" style="stop-color:#003D00"/>
				<stop  offset="1" style="stop-color:#003000"/>
			</linearGradient>
			<polygon class="st44" points="922.5,291.4 933.2,287.5 940.4,287.5 954.7,290.5 948,292.8 			"/>
			<polygon class="st30" points="875.4,293.8 912,288.6 918.2,286.6 924.1,279.3 926.8,288.6 933.2,287.5 927.8,290.1 938.6,290.1 
				954.7,290.5 962.6,291.5 949.6,295.3 918.9,292.8 			"/>
			<linearGradient id="SVGID_22_" gradientUnits="userSpaceOnUse" x1="829.5797" y1="328.5146" x2="827.0377" y2="303.5783">
				<stop  offset="5.347590e-03" style="stop-color:#003D00"/>
				<stop  offset="1" style="stop-color:#003000"/>
			</linearGradient>
			<polygon class="st45" points="810.9,313.3 816.2,309.5 836.4,306.4 844.5,307.7 839,314.1 816.8,313.9 			"/>
			<linearGradient id="SVGID_23_" gradientUnits="userSpaceOnUse" x1="559.9512" y1="370.2822" x2="590.0775" y2="370.2822">
				<stop  offset="5.347590e-03" style="stop-color:#003D00"/>
				<stop  offset="1" style="stop-color:#003000"/>
			</linearGradient>
			<polygon class="st46" points="560,371.4 573.8,367.6 583.9,367.6 590.1,369.5 577,372.9 561.3,372.9 			"/>
			<polygon class="st47" points="134.3,319.9 131.9,319.9 136,322.9 89.3,338.5 80.2,338.5 11.7,358.7 0,367.6 0,376.8 3.4,376.8 
				1.1,368.6 11.5,361.1 80.9,339.3 89.9,338.8 145.5,321 149.5,319.9 			"/>
			<polygon class="st31" points="46.4,322.2 68.9,316.6 152.1,309.3 196,311.3 118.9,316.3 119.7,319.9 131.9,319.9 106,329.2 
				43.9,327.4 90.3,333.6 84.4,334.7 5,328.3 			"/>
			<polygon class="st17" points="196,311.3 144.7,312.9 107.7,316.6 66.3,318.8 119.7,319.9 126.3,320.5 117.2,324 84.7,325.4 
				113.4,324.8 112.2,326.3 102.6,327.4 36.9,326.3 26.2,327.4 43.9,327.4 106,329.2 131.9,319.9 119.7,319.5 118.9,316.3 			"/>
			<polygon class="st17" points="90.3,333.6 81.1,333.1 6.2,328.1 5,328.3 84.4,334.7 			"/>
			<polygon class="st19" points="402.4,354.9 409.2,342.4 422.2,341.3 422.2,354.2 			"/>
			<polygon class="st19" points="21.8,375.7 21.8,367.1 100,365.3 100,371.5 			"/>
			<polygon class="st19" points="104.8,371.2 105.8,365.2 116.3,365 116.3,370.5 			"/>
			<polygon class="st48" points="68.9,365.7 82.2,363.4 102.2,364.6 120.4,363.4 192.6,363.2 			"/>
			<polygon class="st47" points="89.9,338.8 76.7,342.4 62.4,345.1 57.4,346.7 76.9,342.7 97.1,338 100,334.9 			"/>
			<polygon class="st48" points="11.5,361.1 27.4,363.4 54.1,366.1 1.1,368.6 			"/>
			<polygon class="st49" points="104.8,364.9 122.9,361.1 153.5,364 			"/>
			<polygon class="st47" points="170.5,367.7 169.9,363.4 147,355.6 97.1,338 97.8,337.2 99.2,338 172.4,363.6 172.4,367.6 			"/>
			<polygon class="st50" points="97.1,338 76.7,342.4 57.4,346.7 11.5,361.1 1.1,368.6 169.9,363.4 			"/>
			<polygon class="st50" points="168.2,352.4 215.2,362.3 260.4,360.6 225.2,352.4 222.4,353.3 185,346.7 			"/>
			<polygon class="st51" points="394.2,343.7 402.4,340 421.3,340 442.6,339.5 			"/>
			<polygon class="st19" points="325.9,300.6 341.8,304.9 331.4,304.2 			"/>
			<polygon class="st51" points="668.6,359.9 678.5,369.4 665.6,366.4 			"/>
			<path class="st51" d="M538,339.5l11.5,4.2c0,0-17.2,3-23.5,2.5c-6.3-0.5-22.1-1.3-22.1-1.3L538,339.5z"/>
			<polygon class="st51" points="413.3,387.2 437,382.2 432.2,387.2 			"/>
			<polygon class="st52" points="137.1,351.3 145.3,353.4 167.1,357.1 172.8,363.7 172.9,367.6 172.4,367.6 172.4,363.6 			"/>
			<polygon class="st50" points="167.1,357.1 176.6,355.6 151.9,349.9 137.1,351.3 145.3,353.4 			"/>
			<polygon class="st51" points="164.9,356.7 170.6,356.6 169.9,360.3 			"/>
			<polygon class="st47" points="429.6,314.9 443.2,309.2 435.4,304.2 411.8,289.4 413.3,289.3 416.1,291.6 439.4,306.1 
				448.8,310.2 448.4,310.9 439.9,311.6 434.2,313.8 433.7,315.3 			"/>
			<polygon class="st47" points="540,313.9 540,308.3 518.4,295.5 519.8,295.5 540.9,308.1 540.9,313.6 			"/>
			<polygon class="st36" points="519.8,295.5 525.1,296.1 557.6,303.3 556.3,304.9 540.9,308.1 			"/>
			<polygon class="st51" points="537.7,306.2 545,307.3 540.9,310.3 540.9,308.1 			"/>
			<polygon class="st52" points="490.5,320.1 494.3,329 495.7,317.5 487.3,317.5 487.3,320.1 			"/>
			<polygon class="st52" points="323.2,307.9 325.9,300.6 357.3,293.8 321.7,293.8 318.2,295.9 325.9,296.3 329,299.3 307.8,302.9 
				306.6,307.9 			"/>
			<polygon class="st51" points="368.2,306.7 381.8,306.7 395.9,306.7 411.8,308.7 394.2,308.7 			"/>
			<polygon class="st51" points="201.9,363 222.2,361.1 242.6,359.4 263.3,360.3 286.4,355.6 318.7,353.5 278.7,359.1 239.7,362.1 
							"/>
			<polygon class="st51" points="850.2,370.9 859.8,362.8 880.6,349.9 871.7,359.9 862.8,367.6 			"/>
			<polygon class="st51" points="612.7,338.9 625,336 672,333.7 635.4,336.9 			"/>
			<polygon class="st41" points="85.5,400 54.1,389.6 92.6,379.9 134.8,379.9 192.6,395.6 139.6,398.2 			"/>
		</g>
		<g>
			<polygon class="st53" points="155.3,318.3 224.6,327.4 312.9,333.6 318.7,331.8 230.6,316.6 			"/>
			<polygon class="st53" points="758,285.6 856.3,283.7 891.4,281.8 875.4,285.6 888.5,285.6 875.4,293.8 772.5,296.1 779.8,295.3 
				742.8,295.3 797.9,286.6 			"/>
			<polygon class="st53" points="667.3,275.4 714.6,279.3 871.3,279.3 			"/>
			<polygon class="st53" points="849.3,314.1 937,313.8 905,310.3 913.9,308.5 			"/>
			<polygon class="st31" points="719.5,366.1 738.1,367.6 750.3,370.3 751.8,374.3 742.8,374.3 			"/>
			<polygon class="st31" points="713.5,358.9 720.6,356.5 729,358.5 			"/>
			<polygon class="st31" points="620.2,318.4 587,322.3 583.9,325.4 			"/>
			<polygon class="st31" points="441.6,324.7 450.4,323.7 454.7,327.1 436.6,326.3 			"/>
			<polygon class="st31" points="823.5,322.9 827.7,321.9 844.9,324 840.9,325.4 			"/>
			<polygon class="st31" points="819,323.6 811.8,323.6 808.4,324 806.9,325.4 819,325.4 			"/>
			<polygon class="st31" points="571,292.1 576.5,287.4 583.6,287.4 594.8,289.8 			"/>
			<polygon class="st31" points="609.7,286.3 607,284.9 601.8,285.6 600.5,286.3 			"/>
		</g>
		<g>
			<linearGradient id="SVGID_24_" gradientUnits="userSpaceOnUse" x1="616.9686" y1="293.8" x2="616.9686" y2="-4.210500e-02">
				<stop  offset="5.347590e-03" style="stop-color:#002300"/>
				<stop  offset="1" style="stop-color:#003000"/>
			</linearGradient>
			<path class="st54" d="M605.5,0l-12,8.6l-9.5,8l-32.8,15.5l-5.9-2l-19.2-7.3c0,0-20.9,3.9-21.8,5c-0.9,1-15.9,18.7-15.9,18.7
				l-14.1,24.2c0,0-22.6,22.1-22.6,23.6s0,9.8,0,9.8l4.9,6.4l-10,15l-34.7,24L359.4,169c0,0-26.2,12.5-27.3,13
				c-1.1,0.5-23.7,33.6-24.3,35.4c-0.6,1.8-17.5,45-17.5,45l-33.8,2.3l-3.8,3l-19,26h130.4l-1-4l56.4-4.9l42.9-9.1l2-3l203.2-9.5
				l332.5,4.5L1000,0L605.5,0z"/>
			
				<radialGradient id="SVGID_25_" cx="719.7317" cy="4865.6372" r="109.9032" gradientTransform="matrix(1 0 0 0.6399 0 -2877.5591)" gradientUnits="userSpaceOnUse">
				<stop  offset="5.904140e-02" style="stop-color:#7A4000"/>
				<stop  offset="0.5503" style="stop-color:#272900"/>
				<stop  offset="1" style="stop-color:#002A00"/>
			</radialGradient>
			<path class="st55" d="M731.4,264.5l2.4-35.8l-5.9-18.2c0,0-25.7-35.4-26.7-36.5c-1-1.1-9-1-9-1s-80.7,18.6-89.6,23.3
				c-8.8,4.7-24.7,16.1-26.5,18.2c-1.8,2.1-20.2,27.3-20.2,27.3l43.4,6.3l15.1-1.7l2.5,0.8l31.6,17L731.4,264.5z"/>
			<path class="st19" d="M526.3,22.7l-2.4,11.6l-29.3,18.2l-11,2.4l-9.1,15.6l20.8-6.1c0,0,40.9-17.6,45.9-20.7
				c5-3.2,10.2-11.6,10.2-11.6L526.3,22.7z"/>
			<g>
				<path class="st9" d="M457.2,237.8l17.1-43.6l22-21.2l14.4-21l34.8-13.5c0,0,44.8,8.3,51.7,6.9c6.9-1.4,46.8-19.6,46.8-19.6
					s17.8-8.8,23.8-10.1c6-1.3,31.4-4.2,31.4-4.2l3.3-5.6l9-15.4l45.4-26.7l14.9-9.7l4.4-0.2l51-21.7L871.7,0h-61.2l-2.3,5.9
					l-22.1,27.3c0,0-21,12.9-30,17.4c-9,4.5-33.1,15.1-33.1,15.1l4.5-13.5l-9.2,14.7c0,0-46.5,39.7-69,50.5
					c-22.5,10.9-68.4,14.7-75.4,14.7c-7,0-25.2-2.3-25.2-2.3l107.2-59.5l29.2-9.1l-28.8,4.9L616.5,81l58.2-34.5l12.6-18.8l17-6.3
					l34.7-15.9L750.6,4l9.2-4l-34.1,0.2c0,0-54.4,38.3-69.1,38.3s-50.1-8.3-48.3-10.4c1.8-2.1,27-27.7,27-27.7l-29.8,0l-1.3,27.1
					c0,0-25.8,44.5-38.9,49.3c-13.1,4.8-92.4,26.7-92.4,26.7L454.3,98l-2.5-3.9v9.8l4.9,6.4l-10,15l-34.7,24l63.6-23.2l7.2,2.3v7.8
					c0,0-12.5,25.2-15.1,28.2c-2.6,3-25.6,8.7-25.6,8.7s-58.7,68.7-60.4,70.7c-1.7,2-13,17.8-13,17.8l-4.8,27l-3.7-4l-31,1.6
					c0,0-60.7-4.3-63.6-5.3c-2.8-1-9.4-12.3-9.4-12.3l-3.5-0.9l-19,26h130.4l-1-4l56.4-4.9l42.9-9.1l2-3l-10.2-24.3L457.2,237.8z"/>
				<path class="st9" d="M774.9,90.2l-30.4,5.6l-42.2,10.3c0,0,36.6-6.3,46.8-7.1c10.2-0.8,14.9,0,14.9,0l-4.3,10l-27.9,29.6
					c0,0-16.7,4.5-37,8.3c-20.3,3.8-127.8,7.6-127.8,7.6l-18.7,8.7l-11.1,19.7L606,178l17-1.9l-67,23.9l-29.3,5.6l-21,9.9l-5.2,23.9
					l-19.3,13.3l17.7-9.3l45.1-9.3l4.6,3.2l-9.3,14.2l-7,4.5l-17,4.4h-40.5l1.3-4.7l2.1-1.5l-6.4,4l-7.2,14.6l184.2-8.6l-31.6-17
					l-17.5,0.9l-6.8,4.5h-22.1l-10.9-7.8l4.3-1.8l-8-1.2l20.2-27.3l35.1-21.3l81.1-20.2l9,1l26.7,36.5l5.9,18.2l-2.4,35.8l25.4,0.5
					l-12.9-12.4l7.4-21.5l-0.4-4.8l-3.3-7.6c0,0-11.8-14.8-15.3-32.9l0.2-12.8h8.1l8.7,3.5l-15.5-10.1v-2.8c0,0,16.1-23.6,32.8-29.7
					l5.9-1.9l26.9-20.1l27.9-41.5l5.6-18.3v-5.7c0,0-13.6,15.9-16.7,19.5C813,69.8,774.9,90.2,774.9,90.2z"/>
			</g>
			<path class="st19" d="M1000,0H891.4l-2,98l-7.8,57l-28.5,62.4l-12.5-2.9l-1-9.7L857.1,99l5.9-65l-14.8,41.7l-5.8,60.5v10.7
				l-4.1,38.8c0,0-13.9,23.1-15.3,24.7c-1.4,1.6-20.1,0-20.1,0l-4.4-10.3l-7.2-43.9l-37.1,20.5l2.6,31.7l-23.1,56.2h26l240.4,3.2
				L1000,0z M954.7,256.3l-49.7-9.1l-8.4-7.5l-14.3-70l3.5-15.5l7.8-60l9.4-8.5l9.4,2.4l44.9,132.5l2.3,33.2L954.7,256.3z
				 M961.5,214.2L906.4,70.3l-1.6-8.9l3.5-46.5l4.5-1.6L954.7,84l17.8,90.1L961.5,214.2z"/>
			<path class="st56" d="M307.8,217.4l29.1-5h2.4c0,0-7.2-23.7-7.2-30.4L307.8,217.4z"/>
			<polygon class="st56" points="350.9,173 411.6,156.1 432.6,152.1 435,149.8 442.8,140.7 475.6,126.1 412,149.3 359.4,169 			"/>
			<path class="st38" d="M442.2,173l-9.6-21l10.3-11.4l32.8-14.7l7.2,2.3v7.8l-15.1,28.2C467.7,164.3,458.1,169.5,442.2,173z"/>
			<path class="st35" d="M381.8,243.8l-16.1,4.5h-4.4l-22.1-35.9c0,0-5.4-16.6-7.2-30.4l18.8-9l60.7-16.9l21-4l9.6,21L381.8,243.8z"
				/>
			<polygon class="st38" points="361.4,248.3 364.2,254.5 368.8,261.6 381.8,243.8 365.7,248.3 			"/>
			<polygon class="st38" points="306.7,261.6 306.7,229.9 307.8,217.4 290.3,262.5 			"/>
			<path class="st57" d="M360.3,284.6l-24.7-4.9l-27.7-18.1h-1.1l-16.4,0.9l-33.8,2.3l-0.3,3.9c0,0,6.3,10.6,9.4,12.3
				c3.1,1.6,63.6,5.3,63.6,5.3L360.3,284.6z"/>
			<polygon class="st40" points="256.6,264.7 256.3,268.7 252.8,267.8 			"/>
			<polygon class="st40" points="504.4,27.7 523.9,34.3 526.3,22.7 			"/>
			<path class="st56" d="M474.5,70.5l-17.3,25.8l-2.8,1.6l-2.5-3.9C451.9,94.1,465.3,77.8,474.5,70.5z"/>
			<polygon class="st40" points="510.7,152.1 540,152.1 545.5,152.1 564.6,146.9 545.5,138.6 			"/>
			<polygon class="st40" points="505.8,215.5 497.6,208.3 507.9,205.9 528.8,205.2 			"/>
			<path class="st38" d="M727.5,52.3l-2.7-1.6l-41.1,11l-27.8,8.7l-107.2,59.5c0,0,18.4,3.4,33.1,1.8s40.3-3.6,68.8-14.8
				s67.8-49.9,67.8-49.9L727.5,52.3z"/>
			<polygon class="st35" points="545.5,152.1 548.4,163.2 567,154.5 564.6,146.9 			"/>
			<path class="st38" d="M537.2,182.9h-18l-24.1-2.8l1.1-7l-22,21.2c0,0,11.3,10.8,23.3,14l10.4-2.4l20.8-0.6l27.3-5.2l67-23.9
				L537.2,182.9z"/>
			<polygon class="st38" points="475.9,255.7 474.6,260.4 515.1,260.4 532.1,256 539.2,251.5 548.5,237.3 543.9,234.1 498.9,243.3 
							"/>
			<path class="st38" d="M764,99h-14.9l-46.8,7.1l-3.3,5.6l-31.4,4.2l-70.6,29.7l12.1,7.3c0,0,63.6-3.7,80-5.9
				c16.3-2.1,42.6-8.3,42.6-8.3l27.9-29.6L764,99z"/>
			<path class="st58" d="M749.4,176.6h4.8l29.5-16.9l5.9-4.6v-4.2l3.5,1.2l17-6.7l6.6-6.7l10.3-36.3l10.9-36.1l1.7-13.6l-12.3,18
				L799.4,112l-26.9,20.1l-8.5,1.5c0,0-19.9,13.9-30.1,30.1v2.8L749.4,176.6z"/>
			<polygon class="st47" points="754.2,176.6 754.2,182.6 749.4,176.6 			"/>
			<path class="st57" d="M751.3,231.1l2.8-12.4l2.6-10.5l-2.6-25.6l-4.8-6.1l-8.7-3.5h-8.1l-0.2,12.8c0,0,4.7,20.7,15.3,32.9
				L751.3,231.1z"/>
			<path class="st35" d="M810.1,145.4l8.1,14.3l7.4,40.3l-2.6,10.3c0,0-16.6,0-20.1,0l-4.4-10.3l-7.2-43.9l1.8-4L810.1,145.4z"/>
			<polygon class="st38" points="863,34 891.4,0 889.4,98 881.6,155 853.1,217.4 840.7,214.5 839.7,204.9 857.1,99 			"/>
			<polygon class="st38" points="687.3,27.7 705,28.5 770.2,22.7 788.6,14.3 795.9,8.6 739.1,5.5 			"/>
			<polygon class="st35" points="827.1,32.3 834.8,32.3 832.8,46.6 816.1,66.2 774.9,90.2 713.1,103.4 711.6,95.5 718,86.7 
				771.7,54.2 776.1,54.1 			"/>
			<polygon class="st19" points="620.7,190.7 623.1,185.9 623.1,176.1 580.3,179.5 623.1,174.2 630.1,173 673.8,169.8 701.3,174.1 
				690.8,174.1 			"/>
			<polygon class="st47" points="558.5,238.6 552.5,239.7 548.5,237.3 543.7,233.4 504.1,239.7 500.5,239.4 481.2,252.6 
				498.9,243.3 543.9,234.1 548.1,237.9 549.9,242.6 550.7,250.5 551.5,245 556.1,241.8 			"/>
			<polygon class="st47" points="426.5,283.7 437.6,257.2 473.5,191.7 496.3,173 474.3,194.3 454.3,248.5 464.5,272.7 474.6,272.7 
				462.5,275.7 			"/>
			<polygon class="st47" points="733.8,228.7 744.5,232.3 750.6,228.7 753,228.7 768.9,234.2 773.2,234.2 786.7,225.8 797.9,231.1 
				786.4,226.9 773.3,235.1 769,235.1 754.2,231.1 748.2,231.1 743.3,233.4 734.7,230.5 733.7,231.1 			"/>
			<polygon class="st38" points="802.9,210.3 797.9,238.2 789.3,254.4 776.7,265.5 759.7,264.5 783.2,234.4 791.3,214.5 
				791.3,156.1 798.5,200 			"/>
			<polygon class="st59" points="789.6,155 789.6,150.9 772.5,132.1 789.9,148.8 796.1,150.9 791.3,158 791.3,191.3 790,157 			"/>
			<polygon class="st9" points="507.7,239.2 523.8,225.8 556.1,200 623.1,176.1 623.1,185.9 620.7,190.7 602.8,196.3 576.2,214.5 
				558.5,238.6 552.5,239.7 543.9,234.1 			"/>
			<polygon class="st9" points="532.1,256 525.4,269.9 533.5,269.5 541.4,256 550.7,250.5 594.6,266.6 648.6,264.1 646,263.2 
				597.2,263.6 586,261.5 554.7,247.2 556.1,241.8 551.5,245 550.7,249.2 549.9,242.6 548.1,237.9 539.2,251.5 			"/>
			<polygon class="st9" points="467.7,164.3 475.6,182.6 473.5,191.7 437.6,257.2 426.5,283.7 419.6,284.8 363.2,289.8 368.8,261.6 
				442.2,173 			"/>
			<path class="st9" d="M472,114.6l0.8-11.1l92.4-26.7l8.4-6.3l30.5-43L605.5,0l29.7,0.4l-27,27.7c0,0,34.6,10.4,48.3,10.4
				s69.1-38.3,69.1-38.3L759.7,0l-9.2,4l-11.5,1.5l-51.8,22.2l-12.6,18.8l-18.2,10.8l-15.7-6.6l-38-4l-14.2,17l-15,27.7l-28.1,15
				L472,114.6z"/>
			<path class="st9" d="M601,129.5l-3.9,16l12.6-4.7l57.9-25l31.4-4.2l3.3-5.6l9.2-16.6L724,65.3l3.5-13l-9.2,14.7
				c0,0-49.4,41.1-70.8,51.2C626,128.1,601,129.5,601,129.5z"/>
			<polygon class="st9" points="618.5,176.6 648.6,164.3 708.9,145.5 725.3,150.9 732.3,149.5 733.7,136.7 759.7,109 756.8,126.1 
				733.8,156.1 722,169.8 725.3,176.1 721.1,190.7 727.9,210.6 701.3,174.1 692.3,173 			"/>
			<polygon class="st19" points="840.7,214.5 837.1,239.7 829.2,266.2 820.4,266 823.5,222.5 823,210.3 818.2,159.7 816.6,138.6 
				837.8,66.2 846.7,91.4 850.2,140.8 839.7,204.9 			"/>
			<polygon class="st19" points="816.1,66.2 799.4,112 827.2,70.5 832.8,52.3 832.8,46.6 			"/>
			<polygon class="st47" points="709.4,104.3 706.3,99 706.3,88.7 709.4,74.2 696,70.5 655.8,70.3 648.6,74.4 655.8,71.3 
				695.9,71.7 704,76.2 705,78.3 705.4,100.6 702.4,106.1 			"/>
			<polygon class="st47" points="829.3,30.8 831.5,25.5 810.5,7.1 806.2,7.1 750.6,4 754.9,2.1 754,3.4 807.4,5.5 809.5,2.8 
				814.7,5.5 818.5,12 832.8,25.1 837.4,24.9 			"/>
			<polygon class="st47" points="799.4,112 817.7,99 827.9,99 837.4,112 842.6,133.9 842.8,132.1 842,129.7 837.7,109.9 828.9,95.8 
				825.5,96.5 817.6,98 804.4,107.2 803.2,106.3 			"/>
			<polygon class="st40" points="817.6,98 820.4,85.6 827.2,70.5 839.6,52.5 837.8,66.2 828.9,95.8 			"/>
			<polygon class="st38" points="541.2,43.7 575,38.9 600.6,22.7 605.5,0 593.6,8.6 584.1,16.5 551.3,32.1 			"/>
			<polygon class="st40" points="808.4,146 816.6,138.6 817.6,152.8 818.2,159.7 			"/>
			<path class="st38" d="M635.2,0.4l-27,27.7c0,0,32.4,10.4,48.3,10.4c15.9,0,69.1-38.3,69.1-38.3L635.2,0.4z"/>
			<polygon class="st38" points="881.6,155 871.2,155 848.8,149.1 857.1,99 876.5,88.2 889.4,98 			"/>
			<polygon class="st9" points="770.4,42.6 771.7,54.2 776.1,54.1 778.4,43.7 786.1,33.2 784.1,50.6 827.1,32.3 829.3,30.8 
				831.5,25.5 810.5,7.1 806.2,7.1 789.9,28.5 			"/>
			<polygon class="st60" points="774.9,90.2 772.5,109 772.5,132.1 764,133.6 756.8,126.1 759.7,109 764,99 749.1,99 748.7,95.8 			
				"/>
			<polygon class="st9" points="533.9,86.6 545.5,106.3 573.6,91.4 573.6,70.5 565.2,76.8 			"/>
			<polygon class="st9" points="583,57.3 583,74 588.6,63.7 587.7,50.6 			"/>
			<polygon class="st9" points="482.8,128.3 487.6,140.8 487.6,180.1 496.3,173 510.7,152.1 504.4,152.8 			"/>
			<polygon class="st9" points="578.7,154 573.6,180.1 586.8,178.9 594.4,152.8 			"/>
			<polygon class="st9" points="605.4,152.9 600.9,177.8 606,178 609.3,152.8 			"/>
			<polygon class="st60" points="837.4,24.9 864.5,19.4 865.8,24.9 859,36.6 839.7,46.6 832.8,46.6 832.8,52.3 828.6,68.6 
				839.6,52.5 837.8,66.2 846.7,91.4 842.6,133.9 850.2,81.1 859.5,72.1 863,34 868.6,28.5 891.2,10.6 891.4,0 871.7,0 			"/>
			<polygon class="st47" points="449.7,235.1 432.6,233.4 409.9,210.8 343.2,218.8 335.7,233.4 328.8,273.9 326.7,273.9 
				331.1,276.7 330,273.9 336.4,234.4 342.5,221.5 344.3,220.6 383,214.6 386.6,214.1 409.2,212.8 410.4,213.8 413.8,216.1 
				431.4,234.1 443.9,240 444.9,243.8 			"/>
			<polygon class="st47" points="747.6,218.8 756.8,208.3 751.3,231.1 747.6,233.4 733.7,264.5 745.2,230.5 			"/>
			<polygon class="st47" points="733.8,166.5 726.1,173 725.3,176.1 732.5,173 740.6,173 748.1,176.1 			"/>
			<polygon class="st19" points="732.3,149.5 729,161.7 733.8,156.1 756.8,126.1 759.7,109 733.7,136.7 			"/>
			<polygon class="st19" points="660.8,111.9 667.8,115.8 699.1,111.7 706.3,99 705,78.3 678,99 			"/>
			<polygon class="st19" points="602.8,46.6 608.2,28.1 635.2,0.4 605.5,0 604.1,27.5 592.1,46.6 592.1,59.4 			"/>
			<polygon class="st19" points="508.8,43.7 512.1,56.8 518,54.2 518,38.5 			"/>
			<polygon class="st19" points="523.9,34.3 539.2,44.8 551.3,32.1 526.3,22.7 			"/>
			<polygon class="st61" points="685.3,113.5 629.3,151.2 673.7,149.1 699.1,111.7 			"/>
			<polygon class="st41" points="711.6,104.5 694.8,146.9 703.4,145.2 709.4,118.5 714.1,104.3 			"/>
			<polygon class="st61" points="620.5,90.2 655.8,113.9 645,119.4 629.3,122.9 597.7,102.6 			"/>
			<polygon class="st61" points="623.9,88.2 685.3,93 689.6,90.2 627.6,85.8 			"/>
			<polygon class="st42" points="629.3,151.2 630.1,173 645,171.3 652,182.6 659.3,181.3 656.8,171.3 647.9,171.3 647.4,165.4 
				646.9,150.4 			"/>
			<polygon class="st61" points="756.8,63.9 751.9,94.2 756.8,93.5 758,63 			"/>
			<polygon class="st61" points="764,59.2 767.6,91.7 774.9,90.2 779.1,87.7 771.7,54.2 			"/>
			<polygon class="st61" points="754.9,64.4 748.7,95 744.5,95.7 750.6,67 			"/>
			<polygon class="st19" points="687.3,27.7 705,28.5 706.3,43.7 754.9,44.8 703.4,46.6 674.7,46.5 			"/>
			<polygon class="st61" points="474.5,70.5 557.5,78.3 565.2,76.8 488,66.6 483.6,54.9 			"/>
			<polygon class="st61" points="488.6,46.4 504.1,46.6 505.3,60.1 575.4,66.6 576.7,85.6 620.5,90.2 627.6,85.8 580.1,79.3 
				579,64.4 506.6,59.3 505.7,45.6 490.8,43.7 			"/>
			<polygon class="st41" points="359.4,169 427.6,190.7 419,200.2 350.9,173 			"/>
			<polygon class="st61" points="346.3,174.7 413.2,207 409.9,210.8 337.8,179.3 			"/>
			<polygon class="st42" points="427.6,190.7 451.9,231.1 449.7,235.1 419,200.2 			"/>
			<polygon class="st19" points="857.8,265.9 853.1,217.4 881.6,155 889.4,98 893.7,94.2 885.8,154.2 882.3,169.8 896.6,239.7 
				905,247.2 954.7,256.3 959.6,253.9 957.3,220.7 906.4,70.3 961.5,214.2 971.2,177.8 972.5,174.1 954.7,84 962.6,46.6 962.6,32.1 
				993.5,48.9 969.8,19.4 975.9,-0.8 1000,0 1000.2,267.8 			"/>
			<polygon class="st19" points="904.8,64.4 890.3,54.9 891.4,0 916.4,0.2 912.9,13.4 908.3,14.9 			"/>
			<polygon class="st38" points="954.3,64.4 926.6,22.7 916.4,0.2 975.9,-0.8 969.8,19.4 962.5,30.8 962.6,32.1 962.6,46.6 			"/>
			<polygon class="st19" points="954.7,84 972.5,123.9 1000.2,174.9 1000.2,267.8 977.4,202.1 972.5,174.1 			"/>
			<polygon class="st19" points="961.5,214.2 970,267.2 958.6,267.2 959.6,253.9 957.3,220.7 911.6,85.8 			"/>
			<polygon class="st38" points="884.4,180.1 911.6,156.1 933.5,150.4 954.7,213.8 921,228.3 894.3,228.4 			"/>
			<polygon class="st38" points="905,247.2 958.9,243 959.6,253.9 954.7,256.3 			"/>
			<polygon class="st38" points="916.4,96.4 933.9,48.9 954.7,84 958.4,102.6 935.6,123.9 934.9,129.6 960.8,114.8 962.9,125.6 
				935.2,145.5 			"/>
			<polygon class="st61" points="908.4,76.2 925.4,34.5 921,10.2 974.6,3.5 1000.2,13.4 1000.2,17 973.9,5.3 922.5,11.5 927,37.3 
				909.8,79.3 889.8,76.4 858,88.2 858.6,84.7 890,69.7 			"/>
			<polygon class="st61" points="969.2,159.8 951.2,187.7 945,184.4 889.4,204.3 890.2,208.3 946,187.8 953.7,193.8 970.7,164.9 			
				"/>
			<polygon class="st40" points="908.3,14.9 904.8,64.4 923.8,115.8 933.9,48.9 912.9,13.4 			"/>
			<polygon class="st40" points="840.7,214.5 857.3,208.3 853.1,217.4 			"/>
			<polygon class="st61" points="834.8,247.2 855.6,243 856.5,252.6 833.2,252.6 			"/>
			<polygon class="st61" points="832.2,256.3 856.8,255.6 857.2,259.8 831.3,259.2 			"/>
			<polygon class="st61" points="861.5,50.2 890.3,28.5 905.5,52.5 931.5,44.8 933.9,33.7 962.9,34 962.6,38.5 936.4,37.9 
				933.9,48.9 905.2,55.7 890.3,36.1 861.3,52.5 			"/>
			<polygon class="st47" points="956.2,91.7 940.8,104.3 925.5,121.6 922.5,119.6 889.7,125 886.7,117.3 889.5,125.9 922.7,120.9 
				926.9,123.7 938,108.4 943.2,102.9 956.7,94.1 			"/>
			<polygon class="st19" points="891.4,0 890.3,54.9 903,85.8 912.4,88.2 904.8,61.4 908.3,14.9 912.9,13.4 916.4,0.2 			"/>
			<polygon class="st19" points="962.5,30.8 962.6,46.6 980.5,100 1000.2,174.9 1000.2,54.1 991.2,47.7 			"/>
			<polygon class="st47" points="829.3,30.8 832.8,46.6 834.8,46.6 832.9,45.1 830.8,31.5 832.6,28.4 			"/>
			<polygon class="st47" points="908.2,74.7 945.2,67.9 948.2,57.3 961.4,52.5 967,59.5 1000,73 1000,70.3 977.9,63.4 966.5,58.2 
				961.6,51.5 952.7,55.1 949,55.7 947.2,55.7 946.7,61.2 944.3,66 944,66.2 918.8,72.3 907.6,73 			"/>
			<polygon class="st18" points="339.3,212.5 362.3,250.5 368.8,261.6 363.2,289.8 360.3,284.6 335.6,279.7 331.1,276.7 330,273.9 
				336.3,233.6 335.7,233.4 319.8,269.4 313.5,264.2 307.8,217.4 			"/>
			<polygon class="st57" points="346.2,223.4 346.8,224.2 353.8,219.7 363.8,217.4 344.3,220.2 344.3,220.2 			"/>
			<polygon class="st57" points="399.1,213.4 406.5,214.2 409.2,212.8 			"/>
			<polygon class="st57" points="439,166.1 445.6,172.2 440.8,174.7 			"/>
			<polygon class="st62" points="695.9,71.7 700.7,80.1 705,78.3 704,76.2 			"/>
			<polygon class="st56" points="659.1,71.3 645.9,75.9 655.8,71.3 			"/>
			<polygon class="st62" points="783.4,144.1 786.7,154.9 790,157 789.6,150.9 			"/>
			<polygon class="st63" points="923.1,113.8 930,111.3 943.4,102.1 940.8,105.4 925.5,121.6 			"/>
			<polygon class="st63" points="921.4,114.6 913.1,121.2 922.5,119.6 			"/>
			<polygon class="st64" points="709.4,143.5 708.9,145.5 725.3,150.9 732.3,149.5 733.7,136.7 			"/>
			<polygon class="st56" points="538.9,152.1 549.9,150.9 545.8,153.6 			"/>
			<polygon class="st56" points="817.7,99 808,109.8 794.3,115.8 			"/>
			<polygon class="st56" points="909.8,79.3 924.5,71.7 908.2,74.7 			"/>
			<polygon class="st57" points="639.2,36.1 674.7,31.7 674.7,36.1 657.4,48.9 649.9,47.7 			"/>
			<polygon class="st19" points="657.4,48.9 656.5,57.3 674.7,46.5 687.3,27.7 694.7,24.6 694.8,20.2 674.7,31.7 674.7,36.1 			"/>
			<polygon class="st19" points="602.8,46.6 597.7,37.9 604.1,27.5 604.9,12.9 627.6,8.2 608.2,28.1 			"/>
			<polygon class="st19" points="559.3,200 576.2,214.5 607.9,195.3 620.7,190.7 623.1,176.1 			"/>
			<polygon class="st19" points="701.3,174.1 722,169.8 725.3,176.1 721.1,190.7 727.9,210.6 			"/>
			<polygon class="st47" points="823.5,222.5 801,231.1 821.9,224 823.5,225.2 830.2,219.3 840.7,205.1 827.2,220.6 			"/>
			<polygon class="st65" points="786.4,226.9 783.2,234.4 792.5,241.1 797.9,238.2 799.1,231.1 			"/>
			<polygon class="st40" points="811.8,227 823.5,225.2 821.9,224 			"/>
			<polygon class="st40" points="754.2,231.1 751.3,231.1 750.3,234 769,235.1 			"/>
			<polygon class="st19" points="756.8,265 781.7,236.4 790,216.2 790.3,166.5 789.6,159.7 754.2,176.6 756.8,208.3 738.1,264.2 			
				"/>
			<polygon class="st56" points="943.2,102.9 957,95.5 956.7,94.1 			"/>
			<polygon class="st56" points="955.7,54.6 957.5,55.2 961.2,53.3 961.4,52.5 			"/>
			<polygon class="st56" points="895.1,125 901.2,125.9 908.6,123 			"/>
			<polygon class="st47" points="495.1,180.1 519.2,182.9 537.2,182.9 623.1,176.1 624.7,176.7 631.1,174.1 537.6,181.3 			"/>
			<polygon class="st61" points="541.8,182.5 548.7,201.4 556.1,200 564.6,197 561.3,181.2 			"/>
			<polygon class="st61" points="567,180.5 584,190 594.4,186.3 572.4,180.1 			"/>
			<polygon class="st40" points="578.5,179.6 597.2,185.3 606.1,182.5 582.9,179.4 			"/>
			<polygon class="st40" points="547.1,201.5 561.3,198.1 555.4,202.6 553.2,202.3 			"/>
			<polygon class="st66" points="743,212.4 750.3,215.6 746.9,222.1 			"/>
			<polygon class="st62" points="831.4,40.3 829.6,49.2 829.6,50.4 832.8,46.6 			"/>
			<polygon class="st19" points="859,36.6 858,47.8 863,32.4 871.7,26.1 864.5,19.4 865.8,24.9 			"/>
			<polygon class="st19" points="567,154.5 569.5,179.4 538.9,182 548.4,163.2 545.8,153.6 549.9,150.9 564.6,146.9 			"/>
			<polygon class="st67" points="727.9,210.6 706.3,187.8 697.9,193.9 659.1,221.8 654.7,245 659.1,249.6 672.2,259.2 689.1,264.3 
				648.6,264.1 617,247.1 629.3,226.9 635.4,198.1 607,247.2 599.5,248.1 556.1,241.8 576.2,214.5 606.9,195.5 694.8,174.9 
				701.3,174.1 			"/>
			<polygon class="st68" points="706.3,255.6 720.1,257.4 730.2,262.8 713.5,259.8 			"/>
			<polygon class="st67" points="706.3,255.6 699.1,264.3 708.9,264.3 713.5,259.8 			"/>
			<polygon class="st69" points="701.3,174.1 692.3,173 627.6,175.5 561.3,198.1 555.4,202.6 553.2,202.3 507.7,239.2 543.9,234.1 
				552.5,239.7 556.1,241.8 554.7,247.2 573.6,252.6 592.7,252.6 597.7,248.4 615.9,253.9 648.6,264.1 614.6,246.4 599.5,248.1 
				558.5,238.6 576.2,214.5 607.9,195.3 645,186.6 680.6,178 			"/>
			<polygon class="st70" points="599.5,248.1 646,263.2 617,247.1 			"/>
		</g>
		<g>
			<polygon class="st71" points="571.1,100.9 592.1,98 565.4,118.5 558.2,126.1 630.8,84.3 633.5,74.6 656.5,57.3 658.7,37.1 
				713.5,0 645,0 608.2,28.1 602.8,46.6 594.4,59.4 583,79.3 589.8,78.3 600.9,70.3 615.9,62.3 600.9,74 573.6,97.1 574.6,91.4 
				548.7,104.6 559.3,104.3 			"/>
			<polygon class="st71" points="473.5,177.8 432.6,215.5 432.6,218.8 427.5,228.4 396.3,273.9 371.6,289 464.5,289 582.9,285.6 
				557.5,282.2 564.6,279.5 526.3,276.7 464.5,269.9 463.2,259.5 470.2,205.2 474.3,194.3 496.3,173 510.7,152.1 518.3,149.1 
				545.5,138.6 530.1,143.3 515.4,145.4 504.4,146.9 491.9,138.6 501.6,149.5 475.6,180.2 			"/>
			<polygon class="st71" points="839.6,52.5 829.7,62.3 808.4,87.2 781.3,114.6 779.1,121.6 772.5,128.3 759.7,129.2 756.8,126.1 
				729,161.7 722,169.8 724.2,171.3 733.8,166.5 734.7,165.4 744.4,150.7 764,133.6 772.5,132.1 799.4,112 803.2,106.3 839.1,56.2 
				841.3,57.3 848.8,67.9 848.2,75.7 844.5,114.6 852.1,83.6 854.4,80.8 859.5,72.1 863,34 860,40 846.4,48.2 839.6,50.6 			"/>
			<polygon class="st31" points="271.1,263.8 293.7,253.9 301.9,250.7 323.6,258.7 323.6,260.4 352.7,276.7 353.9,278.8 
				364.6,282.7 392.2,289.6 363.2,291 364,288.6 357.3,284.1 335.6,279.7 304.2,262.5 289,262.7 293.9,264.7 304.7,270.9 			"/>
			<polygon class="st31" points="332.1,182 350.9,169.8 451.9,132.1 475.6,126.1 439.7,139.9 426.5,152.1 433.7,152.1 409.7,157.1 
				364.8,173 371.6,171.7 365.5,176.1 333.6,183.5 			"/>
			<polygon class="st31" points="654.1,71.3 548.7,129.8 576.3,122.3 597.2,114.6 588.6,120.5 599,117.7 635.2,102.2 623.1,103.4 
				614.8,106.1 666.9,75.5 695.9,71.7 680.6,84.3 670.7,97.1 705,78.3 704,76.2 697.1,71.3 			"/>
			<polygon class="st31" points="655.8,70.3 693.7,57.3 725.7,48.9 729,50.6 723,59.4 718.3,66.9 709.4,74.2 696,70.5 706.3,62.3 
				713.5,56.1 696.6,64.5 685.3,70.3 			"/>
			<polygon class="st17" points="501.6,149.5 507.7,149.5 489.4,169.8 469.9,190.7 492.1,169.8 501.1,163.2 492.9,175.2 
				471.4,196.5 465.1,215.5 458.4,228.4 461.4,210.8 467.4,194 459.7,212.1 451.9,225.3 433.8,241.3 450.7,216.2 445,218.8 
				432.6,215.5 432.6,218.8 424.1,233.4 432.6,225.1 442.2,223.1 424.1,253.9 407.9,267 413.3,257.9 395.5,280.7 400.7,269.3 
				396.3,273.9 376.9,285.7 392.2,289.6 528.8,289.8 525.4,289.8 474.3,283.7 557.5,282.2 564.6,279.5 515.8,281.2 413.3,278.2 
				461.4,270.9 464.5,269.9 463.2,259.5 470.2,205.2 473.6,195.4 496.3,173 510.7,152.1 545.5,138.6 528.8,143.5 530.9,143.3 
				517.1,146.9 503.7,147.7 504.4,146.9 491.9,138.6 			"/>
			<polygon class="st31" points="464.5,269.9 413.3,278.2 503.6,280.9 564.6,279.5 			"/>
			<polygon class="st31" points="440.9,286.2 528.8,289.8 582.9,285.6 557.5,282.2 475.6,283.7 			"/>
			<polygon class="st31" points="432.6,215.5 445,218.8 450.7,216.2 472,182 473.5,177.8 			"/>
			<polygon class="st31" points="433.8,241.3 449.7,222.8 467.4,194 459.7,212.1 451.9,225.3 			"/>
			<polygon class="st17" points="694.7,71.5 666.9,73.9 605.1,109 614.8,106.1 666.9,75.5 			"/>
			<polygon class="st17" points="597.2,114.6 600.9,111.9 567,122.8 548.7,129.8 576.3,122.3 			"/>
			<polygon class="st17" points="677,0 670.3,0 639.5,19.4 632.7,25.5 637.9,28.5 631.1,30.8 608.2,28.1 602.8,46.6 613.6,43.7 
				648.6,45.5 651.3,55.1 632.8,71.3 622.6,85.9 599,98.9 565.4,118.5 561.3,122.9 630.8,84.3 633.5,74.6 656.5,57.3 658.7,37.1 
				713.5,0 706.3,0.4 675.1,16.2 649.9,28.5 645.8,28.5 			"/>
			<polygon class="st17" points="583,79.3 592.1,74 618.5,52.3 629.3,46.6 615.9,62.3 600.9,70.3 589.8,78.3 			"/>
			<polygon class="st17" points="574.6,91.4 569.8,97.1 559.3,104.3 571.1,100.9 573.6,97.1 			"/>
			<polygon class="st17" points="577.2,100 589.3,97.1 611.6,78.3 626.8,67.9 592.1,98 			"/>
			<polygon class="st31" points="608.2,28.1 620.9,29.9 632.7,25.5 639.5,19.4 670.3,0 645,0 			"/>
			<polygon class="st31" points="839.6,50.6 850.2,52.3 860,46.6 854.6,52.3 853.1,57.3 857.2,71.3 862.4,40.1 860,40 			"/>
			<polygon class="st31" points="829.7,62.3 834.8,59.5 799.4,106.1 786.7,113.4 781.3,114.6 799.4,95.8 			"/>
			<polygon class="st17" points="475.6,126.1 438,138.6 415.6,152.1 426.5,152.1 439.7,139.9 			"/>
			<polygon class="st17" points="364.8,173 354,174.7 374.6,166.4 409.7,157.1 			"/>
			<polygon class="st17" points="365.5,176.1 337.5,181.1 332.1,182 333.6,183.5 			"/>
			<polygon class="st17" points="323.6,258.7 314.5,260.5 293.6,257.7 303,259.7 305.4,261.6 291.6,261.6 281.6,261.6 289,262.7 
				304.2,262.5 335.6,279.7 357.3,284.1 364,288.6 363.2,291 392.2,289.6 369.3,287.5 348.7,279.8 353.9,278.8 352.7,276.7 
				336.9,276.7 308.6,262.3 323.6,260.4 			"/>
			<polygon class="st31" points="305.5,271.4 309.6,270.9 323.6,277.3 326.7,280.9 309.6,275.4 			"/>
			<polygon class="st17" points="309.6,270.9 307.8,272 308.7,273.9 322.1,278.1 323.6,277.3 326.7,280.9 309.6,275.4 305.5,271.4 
							"/>
			<polygon class="st31" points="805.8,109 788.4,122.9 774.9,131.4 793.8,122.9 780.2,131.4 775.5,135.4 808.4,132.6 806.8,133.9 
				796.1,138.6 783.3,142.4 789.9,148.8 808.4,146 816.6,138.6 825.8,106.1 827.9,99 821.1,103.4 813.3,109 795.6,121.6 804.2,113 
				817.6,101.7 819.5,99 816.6,99 794.3,115.8 			"/>
			<polygon class="st31" points="782.1,142.6 767.4,149.1 742.8,159.7 775.6,151.2 774.2,152.8 767.9,156.1 789.6,150.9 			"/>
			<polygon class="st31" points="789.6,155 765.8,159.8 755.5,159.8 767.9,156.1 752.5,159.7 742.1,162.3 733.8,166.5 743.6,173 
				764,167.3 761.8,167.3 749.4,169 750.6,167.5 769.3,161 785.2,158.5 			"/>
			<polygon class="st31" points="730.6,79.3 796.1,70.5 814.8,66.9 825.5,54.2 819.7,55.7 794,59.5 829.4,50.6 832.8,46.6 
				781.7,57.3 770.4,59.5 781.3,54.2 776.1,54.1 770.4,55.7 			"/>
			<polygon class="st31" points="807,71.5 761.7,79.3 797.6,77 			"/>
			<polygon class="st17" points="804.4,66.2 762.9,71.5 790.2,69 730.6,79.3 796.1,70.5 814.8,66.9 			"/>
			<polygon class="st17" points="829.4,50.6 829.9,50 821.5,50.6 780.4,61.4 794.9,59.3 			"/>
			<polygon class="st17" points="781.3,54.2 776.1,54.1 761.8,61.6 770.4,59.5 			"/>
			<polygon class="st17" points="816.6,138.6 789.6,145.4 805.1,143.9 789.9,148.8 808.4,146 			"/>
			<polygon class="st17" points="775.5,135.4 792.5,129.8 818.2,123.9 808.4,132.6 			"/>
			<polygon class="st17" points="775.6,151.2 785.9,146.9 784.7,145.5 742.8,159.7 			"/>
			<polygon class="st17" points="685.3,70.3 690.1,64.8 721.4,52.3 712.2,57.3 			"/>
			<polygon class="st17" points="704,76.2 670.7,97.1 705,78.3 			"/>
			<polygon class="st17" points="707.3,73.7 717.5,65.2 729,50.6 718.3,66.9 709.4,74.2 			"/>
			<polygon class="st31" points="541.2,43.7 495.3,64.4 512.9,67.9 556.2,66.2 545.5,64.5 534.8,63 573.6,57.3 585.8,53.3 
				587.7,50.6 570.3,52.3 590.5,46.6 599.8,32.3 569,38.5 541.2,47.8 533.9,48.9 543,43.7 			"/>
			<polygon class="st31" points="575.4,67.9 541.2,70.3 518,74.2 568.6,74.2 573.6,70.5 			"/>
			<polygon class="st17" points="599.8,32.3 588.6,43.7 578.7,46.6 539.7,57.3 570.3,52.3 590.5,46.6 			"/>
			<polygon class="st17" points="585.8,50.6 574.6,54.1 527.4,61.6 534.8,63 573.6,57.3 585.8,53.3 587.7,50.6 			"/>
			<polygon class="st17" points="556.2,66.2 519.2,66.2 495.3,64.4 512.9,67.9 			"/>
			<polygon class="st17" points="573.6,70.5 518,74.2 568.6,74.2 			"/>
			<polygon class="st31" points="729,264.9 744.4,259.8 769,252.6 766.2,255.6 791.3,250.7 821.1,257.8 831.1,259.8 862,264.5 
				891.4,257.8 891.4,267.8 			"/>
			<polygon class="st31" points="855.7,107.2 889.7,84 889.4,96.5 878.7,104.3 889.4,98 892.1,106.1 917.6,103.4 919.4,108.7 
				903.3,115.8 920.1,110.8 921,112 889.3,127.9 885.1,129.6 850.2,145.4 883.9,138.6 881.6,155 846.9,171 877.5,164 876.5,166.2 
				843.8,179.6 			"/>
			<polygon class="st31" points="888.5,200 944.7,184 946.5,189.4 905,208.3 947.2,191.3 948.8,196.2 898.2,220.6 951.6,204.5 
				957.3,220.7 911.6,248.4 905,247.2 896.6,239.7 			"/>
			<polygon class="st31" points="885.8,187 939.6,171 926.6,177.8 941.1,173 942.1,175.9 886.7,193.9 			"/>
			<polygon class="st31" points="904.8,61.4 933.9,48.9 936.4,37.9 964.4,27.7 962.9,34 941.2,44.6 962.6,38.5 962.6,46.6 
				949.9,57.8 947.2,71.3 913.1,87.9 911.6,84 926.6,75.4 909.8,79.3 904.8,64.4 			"/>
			<polygon class="st71" points="889.4,98 885.1,129.6 889.3,127.9 892.1,106.1 			"/>
			<polygon class="st71" points="936.4,37.9 949.9,57.8 947.2,71.3 933.9,48.9 			"/>
			<polygon class="st17" points="909.8,79.3 909.8,78 944.7,67 945.6,68.5 926.3,75.6 			"/>
			<polygon class="st17" points="913.1,87.9 913.5,87 946.5,70.2 947.2,71.3 			"/>
			<polygon class="st17" points="889.5,91.7 856.3,115.8 879.5,103.8 889.4,96.5 			"/>
			<polygon class="st17" points="888.6,102.9 864.6,120.2 887.5,106.2 886.7,113.8 853.1,132.1 854,127.8 860,122.8 852.6,125.9 
				849.9,142.6 882.4,118.5 885.1,117.3 884.4,127.6 850.2,145.4 885.1,129.6 			"/>
			<polygon class="st17" points="919.4,108.7 918.6,106.9 890.3,120.4 904.2,115.4 			"/>
			<polygon class="st17" points="921,112 920.4,111.3 889.3,127.9 			"/>
			<polygon class="st17" points="881.6,155 883.9,138.6 881.6,146.8 848.8,156.8 879.4,148.8 879.7,151.7 869.3,156.8 877,154.4 
				845.8,167.1 845.2,171.3 846.9,171 			"/>
			<polygon class="st17" points="876.5,166.2 844.1,177.8 843.8,179.6 			"/>
			<polygon class="st17" points="942.1,175.9 886.7,193.9 885.8,191.3 			"/>
			<polygon class="st17" points="946.3,187.8 905,208.3 946.5,189.4 			"/>
			<polygon class="st17" points="948.7,195.3 893.4,221.7 898.2,220.6 948.8,196.2 			"/>
			<polygon class="st17" points="951.8,205.3 954.4,212.9 899.5,239.6 942.1,220.8 949.6,219.9 912.9,243.8 905,247.2 911.6,248.4 
				957.3,220.7 			"/>
			<polygon class="st31" points="865.5,84 874.9,78.3 888.6,75.4 882,79.3 			"/>
			<polygon class="st31" points="845.2,184.9 872.5,174.9 866.9,179.9 843.8,187.8 			"/>
			<polygon class="st31" points="899.5,177.8 903.3,176.1 907.6,175.9 			"/>
			<polygon class="st31" points="908.6,145.5 919.6,135.4 922.9,135.4 927.7,138.6 			"/>
			<polygon class="st31" points="907.6,142.6 899.5,142.6 898.2,145.4 903.5,145.4 			"/>
			<polygon class="st31" points="769,32.4 761,32.4 759.7,35.1 765,35.1 			"/>
			<polygon class="st31" points="945.6,17 957.3,9.7 959.6,9.7 964.4,10.9 961.5,13.4 			"/>
			<polygon class="st31" points="944.6,18.4 947.2,18.4 949.9,18.4 944.6,20.5 			"/>
			<polygon class="st31" points="675,142.6 678,141.1 692.7,140.1 695.7,141.4 685.4,143.7 			"/>
			<polygon class="st31" points="672.2,143.7 669.2,142.6 662.3,145.4 670.7,145.5 			"/>
			<polygon class="st31" points="726.8,113.3 735.4,109 740.1,109.5 746.1,112 742.9,114.8 735.2,114.8 725.8,114.8 			"/>
			<polygon class="st31" points="720.6,117.3 719,115.8 714.1,117.3 713.5,118.5 			"/>
			<polygon class="st31" points="745.2,40.3 743.5,38.8 738.7,40.3 738.1,41.5 			"/>
		</g>
		<path class="st72" d="M1000.2,17L1000,17l0,37l0.1,0.1v120.9l-0.1-0.2v0.1l0.1,0.1V400H0l50.5,0l149.7-79.9l14.9-3.2l-2.7-6.9
			l21.4-16.2l5.6,0l0.3,0h-6l0,0l19-26l3.8-3l14.5-1l22.5-9.8l0.1-0.3l11.7-36.2l21.8-29.1c2.6-3.7,4.5-6.2,4.8-6.3l18.8-12.3l72-28
			l23.9-16.5l10-15l-4.9-6.4c0,0,0-8.2,0-9.8c0-0.1,0.1-0.2,0.2-0.3l0.6-1.4c0,0,12.8-14.9,21.8-21.8l14.1-24.2l15.7-18.9l4.2-1.6
			l17.9-3.2l25,9.4l32.8-15.5l19.4-16.8l2,0.2l302.6-0.7l67.7,0L1000,0l0,13.3l0.2,0.1V17z"/>
		<polygon class="st73" points="603.2,0 588.8,12.5 584.1,16.5 551.3,32.1 586.9,17 606.9,0 		"/>
		<polygon class="st73" points="526.3,22.7 508.4,25.9 504.2,27.5 488.6,46.4 483.6,54.9 489.9,46.6 504.9,28.5 512.9,26.8 		"/>
		<path class="st73" d="M474.5,70.5l-11.3,13.7l-11.1,10.2l-0.2-0.4l0.8-1.7C452.6,92.4,465.4,77.5,474.5,70.5z"/>
		<polygon class="st73" points="456.8,110.3 456.8,116.8 447,128.3 419,144.5 446.8,125.3 		"/>
		<polygon class="st73" points="332.1,182 354,170.4 451.9,132.1 425.3,140.9 350.9,169.8 		"/>
		<polygon class="st73" points="332.1,182 310.7,217.4 293.7,253.9 305.5,217.4 		"/>
		<polygon class="st73" points="271.1,263.8 256.3,268.7 252.8,267.8 256.6,264.7 		"/>
		<polygon class="st73" points="293.7,253.9 277.3,263.8 271.1,263.8 		"/>
		<polygon class="st73" points="233.8,293.8 100.5,313.8 115.2,312.5 241.9,293.9 		"/>
		<polygon class="st74" points="152.1,309.3 144.7,312.9 66.3,318.8 76,319 42.8,326.4 36.9,326.3 5,328.3 46.4,322.2 67.7,316.6 		
			"/>
		<polygon class="st19" points="891.4,267.8 729,264.9 754.2,262.5 769,252.6 766.2,255.6 761.1,262.8 808.4,261.2 791.3,250.7 
			862,264.5 867.9,266.2 888.5,264 891.4,257.8 		"/>
		<g>
			
				<radialGradient id="SVGID_26_" cx="719.4474" cy="4866.2661" r="109.9032" gradientTransform="matrix(1 0 0 0.6399 0 -2877.5591)" gradientUnits="userSpaceOnUse">
				<stop  offset="5.904140e-02" style="stop-color:#2AFF8B"/>
				<stop  offset="0.5503" style="stop-color:#396400"/>
				<stop  offset="1" style="stop-color:#126500"/>
			</radialGradient>
			<path class="st75" d="M731.2,264.9l2.4-35.8l-5.9-18.2c0,0-25.7-35.4-26.7-36.5c-1-1.1-9-1-9-1s-80.7,18.6-89.6,23.3
				c-8.8,4.7-24.7,16.1-26.5,18.2c-1.8,2.1-20.2,27.3-20.2,27.3l43.4,6.3l15.1-1.7l2.5,0.8l31.6,17L731.2,264.9z"/>
			<polygon class="st76" points="727.7,211 706,188.2 697.6,194.3 658.8,222.2 654.4,245.4 658.8,250 672,259.6 688.8,264.7 
				648.4,264.5 616.7,247.5 629,227.3 635.1,198.5 606.7,247.6 599.2,248.5 555.8,242.2 575.9,214.9 606.7,195.9 694.6,175.3 
				701,174.5 			"/>
			<polygon class="st77" points="706,256 719.8,257.8 729.9,263.2 713.2,260.2 			"/>
			<polygon class="st78" points="706,256 698.8,264.7 708.7,264.7 713.2,260.2 			"/>
			<polygon class="st79" points="701,174.5 692,173.4 627.3,175.9 561,198.5 555.1,203 552.9,202.7 507.5,239.6 543.7,234.5 
				552.2,240.1 555.8,242.2 554.4,247.6 573.3,253 592.4,253 597.4,248.8 615.6,254.3 648.4,264.5 614.3,246.8 599.2,248.5 
				558.2,239 575.9,214.9 607.6,195.7 644.7,187 680.3,178.4 			"/>
			<polygon class="st80" points="599.2,248.5 645.7,263.6 614.3,246.8 			"/>
			<polygon class="st80" points="510.7,239.1 534.6,236 544.3,243.8 552.7,248.2 573.3,253 554.4,247.6 555.8,242.2 544.1,233.7 			
				"/>
		</g>
		<polygon class="st53" points="233.8,293.8 233.8,293.8 233.7,293.8 233.8,293.8 		"/>
		<polygon class="st73" points="474.5,70.5 483.6,54.9 489.1,47.7 488.6,46.4 470.6,73.8 		"/>
	</g>
	<linearGradient id="SVGID_27_" gradientUnits="userSpaceOnUse" x1="-2.9158" y1="358.7105" x2="1000.1722" y2="358.7105">
		<stop  offset="0" style="stop-color:#098116"/>
		<stop  offset="1" style="stop-color:#096800"/>
	</linearGradient>
	<polygon class="st81" points="1000.2,317.4 909.9,336.9 896.6,330.9 666.2,346.2 620.3,358.5 572.5,354.1 543.3,359.2 462.6,355.4 
		454.4,362 315.3,362.3 312.6,354.3 0,353.4 -2.9,400 1000.2,400 	"/>
	<g class="st82">
		<g>
			<path class="st31" d="M484.5,168.2c-1.3-1.3,4-5.6,5.4-4.2C491.4,165.3,486,169.6,484.5,168.2z"/>
			<path class="st31" d="M512.7,262.8c-1.3-1.3,4-5.6,5.4-4.2C519.6,260,514.2,264.3,512.7,262.8z"/>
			<path class="st31" d="M459.4,232.8c-2.9-1.8,4-5.6,5.4-4.2C466.3,230,463.9,235.6,459.4,232.8z"/>
			<path class="st31" d="M766,330.9c-2.9-1.8,4-5.6,5.4-4.2C772.9,328.1,770.5,333.6,766,330.9z"/>
			<path class="st31" d="M617.7,111.2c-1.3-0.8,1.7-2.4,2.3-1.8C620.6,110,619.6,112.4,617.7,111.2z"/>
			<path class="st83" d="M613,222.6c-1.3-0.8,1.7-2.4,2.3-1.8C615.9,221.4,614.9,223.8,613,222.6z"/>
			<path class="st84" d="M525.8,215.4c-0.6-0.4,0.9-1.2,1.1-0.9C527.3,214.8,526.7,216,525.8,215.4z"/>
			<path class="st31" d="M678.3,78.3c-1.3-0.8,1.7-2.4,2.3-1.8C681.2,77,680.2,79.4,678.3,78.3z"/>
			<path class="st31" d="M499.7,161.5c0-0.9,2.2-2.2,3.7-2.2s2.3,2.6,1.6,3.3C504.4,163.2,499.7,163.1,499.7,161.5z"/>
			<path class="st31" d="M573,196.7c0-0.9,2.2-2.2,3.7-2.2c1.4,0,2.3,2.6,1.6,3.3C577.7,198.4,573,198.3,573,196.7z"/>
			<path class="st31" d="M504.9,149.8c-0.4-0.2-0.5-1.3-0.2-1.9c0.3-0.6,1.5-0.4,1.6-0.1S505.6,150.1,504.9,149.8z"/>
			<path class="st31" d="M543.6,257.4c-0.4-0.2-0.5-1.3-0.2-1.9c0.3-0.6,1.5-0.4,1.6-0.1S544.3,257.7,543.6,257.4z"/>
			<path class="st83" d="M634,215c-0.4-0.2-0.5-1.3-0.2-1.9c0.3-0.6,1.5-0.4,1.6-0.1S634.6,215.3,634,215z"/>
			<path class="st31" d="M526.7,136.5c-0.4-0.2-0.5-1.3-0.2-1.9c0.3-0.6,1.5-0.4,1.6-0.1C528.3,135,527.4,136.8,526.7,136.5z"/>
			<path class="st85" d="M515.4,146.2c0.8-1.2,2.9-0.8,2.9,0c0,0.8-2.5,1.5-2.9,1.1C515,147,515.1,146.8,515.4,146.2z"/>
			<path class="st31" d="M212.1,382.9c-1.3-1.3,4-5.6,5.4-4.2C218.9,380.1,213.5,384.4,212.1,382.9z"/>
			<path class="st31" d="M227.2,376.2c0-0.9,2.2-2.2,3.7-2.2c1.4,0,2.3,2.6,1.6,3.3C231.9,377.9,227.2,377.8,227.2,376.2z"/>
			<path class="st31" d="M239.2,304.6c-0.4-0.2-0.5-1.3-0.2-1.9c0.3-0.6,1.5-0.4,1.6-0.1C240.8,303.1,239.9,304.9,239.2,304.6z"/>
			<path class="st31" d="M254.2,351.3c-0.4-0.2-0.5-1.3-0.2-1.9c0.3-0.6,1.5-0.4,1.6-0.1C255.8,349.7,254.9,351.6,254.2,351.3z"/>
			<path class="st85" d="M262.3,294.8c0.8-1.2,2.9-0.8,2.9,0c0,0.8-2.5,1.5-2.9,1.1C261.9,295.6,261.9,295.4,262.3,294.8z"/>
			<path class="st85" d="M412.6,151c0.8-1.2,2.9-0.8,2.9,0c0,0.8-2.5,1.5-2.9,1.1C412.3,151.7,412.3,151.6,412.6,151z"/>
			<path class="st86" d="M329.6,36.3c-1.3-1.3,4-5.6,5.4-4.2C336.4,33.5,331,37.8,329.6,36.3z"/>
			<path class="st31" d="M835.2,209.3c-1.3-1.3,4-5.6,5.4-4.2C842.1,206.5,836.7,210.8,835.2,209.3z"/>
			<path class="st31" d="M835.2,371.5c-1.3-1.3,4-5.6,5.4-4.2C842.1,368.7,836.7,373,835.2,371.5z"/>
			<path class="st86" d="M272.3,74.6c0-0.9,2.2-2.2,3.7-2.2c1.4,0,2.3,2.6,1.6,3.3C277,76.3,272.3,76.2,272.3,74.6z"/>
			<path class="st86" d="M420.6,95.3c0-0.9,2.2-2.2,3.7-2.2s2.3,2.6,1.6,3.3C425.2,97,420.6,96.9,420.6,95.3z"/>
			<path class="st86" d="M389.1,44.7c-0.4-0.2-0.5-1.3-0.2-1.9c0.3-0.6,1.5-0.4,1.6-0.1S389.8,44.9,389.1,44.7z"/>
			<path class="st31" d="M982.4,253.8c-0.4-0.2-0.5-1.3-0.2-1.9c0.3-0.6,1.5-0.4,1.6-0.1C983.9,252.2,983,254.1,982.4,253.8z"/>
			<path class="st31" d="M968.6,146.5c-0.4-0.2-0.5-1.3-0.2-1.9c0.3-0.6,1.5-0.4,1.6-0.1S969.3,146.8,968.6,146.5z"/>
			<path class="st86" d="M263.9,161.3c-0.4-0.2-0.5-1.3-0.2-1.9c0.3-0.6,1.5-0.4,1.6-0.1S264.6,161.6,263.9,161.3z"/>
			<path class="st86" d="M359.5,130.4c0.8-1.2,2.9-0.8,2.9,0c0,0.8-2.5,1.5-2.9,1.1C359.1,131.1,359.1,130.9,359.5,130.4z"/>
			<path class="st86" d="M260.2,49.5c0.8-1.2,2.9-0.8,2.9,0c0,0.8-2.5,1.5-2.9,1.1C259.8,50.3,259.8,50.1,260.2,49.5z"/>
			<path class="st31" d="M980,125.8c0.8-1.2,2.9-0.8,2.9,0c0,0.8-2.5,1.5-2.9,1.1C979.6,126.5,979.6,126.4,980,125.8z"/>
			<path class="st86" d="M19,302.9c-1.3-1.3,4-5.6,5.4-4.2C25.9,300.1,20.5,304.4,19,302.9z"/>
			<path class="st86" d="M51.4,227.6c0-0.9,2.2-2.2,3.7-2.2s2.3,2.6,1.6,3.3C56,229.3,51.4,229.2,51.4,227.6z"/>
			<path class="st86" d="M140.6,258.9c-0.4-0.2-0.5-1.3-0.2-1.9c0.3-0.6,1.5-0.4,1.6-0.1C142.2,257.4,141.3,259.2,140.6,258.9z"/>
			<path class="st86" d="M20.5,281.8c0.8-1.2,2.9-0.8,2.9,0c0,0.8-2.5,1.5-2.9,1.1C20.1,282.6,20.1,282.4,20.5,281.8z"/>
		</g>
		
			<radialGradient id="SVGID_28_" cx="225.9726" cy="194.8252" r="8.455" gradientTransform="matrix(2.0589 -1.048 0.6881 1.3519 -374.72 178.6789)" gradientUnits="userSpaceOnUse">
			<stop  offset="0" style="stop-color:#009A85"/>
			<stop  offset="0.4217" style="stop-color:#009883"/>
			<stop  offset="0.5736" style="stop-color:#00917C"/>
			<stop  offset="0.6819" style="stop-color:#008671"/>
			<stop  offset="0.7695" style="stop-color:#007560"/>
			<stop  offset="0.8445" style="stop-color:#005F4A"/>
			<stop  offset="0.9108" style="stop-color:#00432F"/>
			<stop  offset="0.9694" style="stop-color:#002410"/>
			<stop  offset="0.9944" style="stop-color:#001400"/>
		</radialGradient>
		<path class="st87" d="M242,196.4c3.2,6.3-2,15.4-11.6,20.3s-20,3.7-23.2-2.6c-3.2-6.3,2-15.4,11.6-20.3
			C228.4,188.9,238.8,190.1,242,196.4z"/>
		
			<radialGradient id="SVGID_29_" cx="564.5584" cy="183.2424" r="5.3316" gradientTransform="matrix(1.9266 -0.8185 0.4683 1.1023 -663.8801 478.886)" gradientUnits="userSpaceOnUse">
			<stop  offset="0" style="stop-color:#009A85"/>
			<stop  offset="0.4217" style="stop-color:#009883"/>
			<stop  offset="0.5736" style="stop-color:#00917C"/>
			<stop  offset="0.6819" style="stop-color:#008671"/>
			<stop  offset="0.7695" style="stop-color:#007560"/>
			<stop  offset="0.8445" style="stop-color:#005F4A"/>
			<stop  offset="0.9108" style="stop-color:#00432F"/>
			<stop  offset="0.9694" style="stop-color:#002410"/>
			<stop  offset="0.9944" style="stop-color:#001400"/>
		</radialGradient>
		<path class="st88" d="M519.9,214.4c1.4,3.2-2.1,7.8-7.8,10.2c-5.7,2.4-11.4,1.7-12.8-1.5c-1.4-3.2,2.1-7.8,7.8-10.2
			C512.8,210.5,518.5,211.2,519.9,214.4z"/>
		
			<radialGradient id="SVGID_30_" cx="697.6572" cy="269.8166" r="5.3316" gradientTransform="matrix(1.9266 -0.8185 0.4683 1.1023 -663.8801 478.886)" gradientUnits="userSpaceOnUse">
			<stop  offset="0" style="stop-color:#009A85"/>
			<stop  offset="0.4217" style="stop-color:#009883"/>
			<stop  offset="0.5736" style="stop-color:#00917C"/>
			<stop  offset="0.6819" style="stop-color:#008671"/>
			<stop  offset="0.7695" style="stop-color:#007560"/>
			<stop  offset="0.8445" style="stop-color:#005F4A"/>
			<stop  offset="0.9108" style="stop-color:#00432F"/>
			<stop  offset="0.9694" style="stop-color:#002410"/>
			<stop  offset="0.9944" style="stop-color:#001400"/>
		</radialGradient>
		<path class="st89" d="M816.9,200.9c1.4,3.2-2.1,7.8-7.8,10.2c-5.7,2.4-11.4,1.7-12.8-1.5c-1.4-3.2,2.1-7.8,7.8-10.2
			C809.8,197,815.5,197.7,816.9,200.9z"/>
		
			<radialGradient id="SVGID_31_" cx="596.4014" cy="296.3709" r="14.4927" gradientTransform="matrix(1.9266 -0.8185 0.4683 1.1023 -663.8801 478.886)" gradientUnits="userSpaceOnUse">
			<stop  offset="0" style="stop-color:#007285"/>
			<stop  offset="0.4223" style="stop-color:#007183"/>
			<stop  offset="0.5745" style="stop-color:#006C7C"/>
			<stop  offset="0.6829" style="stop-color:#006471"/>
			<stop  offset="0.7706" style="stop-color:#005860"/>
			<stop  offset="0.8457" style="stop-color:#00484A"/>
			<stop  offset="0.9122" style="stop-color:#00352E"/>
			<stop  offset="0.9708" style="stop-color:#001F0F"/>
			<stop  offset="0.9944" style="stop-color:#001400"/>
		</radialGradient>
		<path class="st90" d="M651.9,305.6c3.7,8.8-5.7,21.3-21.1,27.8c-15.4,6.6-31,4.7-34.7-4.1c-3.7-8.8,5.7-21.3,21.1-27.8
			C632.6,294.9,648.1,296.7,651.9,305.6z"/>
		
			<radialGradient id="SVGID_32_" cx="632.8462" cy="347.8558" r="4.7567" gradientTransform="matrix(2.4286 -0.9093 0.4305 1.1497 -1060.5374 535.4117)" gradientUnits="userSpaceOnUse">
			<stop  offset="0" style="stop-color:#3BE585"/>
			<stop  offset="0.3857" style="stop-color:#3AE384"/>
			<stop  offset="0.5246" style="stop-color:#39DC7F"/>
			<stop  offset="0.6237" style="stop-color:#35D178"/>
			<stop  offset="0.7037" style="stop-color:#30C06D"/>
			<stop  offset="0.7723" style="stop-color:#2AAA5F"/>
			<stop  offset="0.8331" style="stop-color:#238E4E"/>
			<stop  offset="0.8881" style="stop-color:#196E39"/>
			<stop  offset="0.9386" style="stop-color:#0F4821"/>
			<stop  offset="0.9836" style="stop-color:#031F07"/>
			<stop  offset="0.9944" style="stop-color:#001400"/>
		</radialGradient>
		<path class="st91" d="M637.7,355.6c1.1,3-3.1,7.4-9.5,9.8c-6.4,2.4-12.5,1.9-13.6-1.1c-1.1-3,3.1-7.4,9.5-9.8
			C630.5,352,636.6,352.5,637.7,355.6z"/>
		
			<radialGradient id="SVGID_33_" cx="680.5971" cy="259.3508" r="19.9707" gradientTransform="matrix(1.5736 -0.4967 0.301 0.9536 -357.3389 277.293)" gradientUnits="userSpaceOnUse">
			<stop  offset="0" style="stop-color:#007285"/>
			<stop  offset="0.4223" style="stop-color:#007183"/>
			<stop  offset="0.5745" style="stop-color:#006C7C"/>
			<stop  offset="0.6829" style="stop-color:#006471"/>
			<stop  offset="0.7706" style="stop-color:#005860"/>
			<stop  offset="0.8457" style="stop-color:#00484A"/>
			<stop  offset="0.9122" style="stop-color:#00352E"/>
			<stop  offset="0.9708" style="stop-color:#001F0F"/>
			<stop  offset="0.9944" style="stop-color:#001400"/>
		</radialGradient>
		<path class="st92" d="M823.1,176.6c3.3,10.5-8.1,23.5-25.4,29c-17.4,5.5-34.1,1.4-37.4-9.1c-3.3-10.5,8.1-23.5,25.4-29
			C803.1,162,819.8,166.1,823.1,176.6z"/>
	</g>
</g>
</svg>
